solid bianweiji1_д╛хо_sldprt
   facet normal -7.524589e-001 6.586392e-001 0.000000e+000
      outer loop
         vertex -7.038767e+002 1.000000e+002 1.000000e+002
         vertex -7.038767e+002 1.000000e+002 2.000000e+002
         vertex -6.880030e+002 1.182763e+002 2.000000e+002
      endloop
   endfacet
   facet normal -7.575744e-001 6.527488e-001 0.000000e+000
      outer loop
         vertex -7.038767e+002 1.000000e+002 1.000000e+002
         vertex -6.880030e+002 1.182763e+002 2.000000e+002
         vertex -6.880030e+002 1.182763e+002 1.000000e+002
      endloop
   endfacet
   facet normal -7.869921e-001 6.169631e-001 0.000000e+000
      outer loop
         vertex -6.880030e+002 1.182763e+002 1.000000e+002
         vertex -6.880030e+002 1.182763e+002 2.000000e+002
         vertex -6.206185e+002 2.075521e+002 2.000000e+002
      endloop
   endfacet
   facet normal -8.102062e-001 5.861450e-001 0.000000e+000
      outer loop
         vertex -6.880030e+002 1.182763e+002 1.000000e+002
         vertex -6.206185e+002 2.075521e+002 2.000000e+002
         vertex -6.206185e+002 2.075521e+002 1.000000e+002
      endloop
   endfacet
   facet normal -8.547415e-001 5.190539e-001 0.000000e+000
      outer loop
         vertex -6.206185e+002 2.075521e+002 1.000000e+002
         vertex -6.206185e+002 2.075521e+002 2.000000e+002
         vertex -5.642705e+002 3.047565e+002 2.000000e+002
      endloop
   endfacet
   facet normal -8.758276e-001 4.826241e-001 0.000000e+000
      outer loop
         vertex -6.206185e+002 2.075521e+002 1.000000e+002
         vertex -5.642705e+002 3.047565e+002 2.000000e+002
         vertex -5.642705e+002 3.047565e+002 1.000000e+002
      endloop
   endfacet
   facet normal -9.137217e-001 4.063405e-001 0.000000e+000
      outer loop
         vertex -5.642705e+002 3.047565e+002 1.000000e+002
         vertex -5.642705e+002 3.047565e+002 2.000000e+002
         vertex -5.212958e+002 4.072691e+002 2.000000e+002
      endloop
   endfacet
   facet normal -9.304407e-001 3.664425e-001 0.000000e+000
      outer loop
         vertex -5.642705e+002 3.047565e+002 1.000000e+002
         vertex -5.212958e+002 4.072691e+002 2.000000e+002
         vertex -5.212958e+002 4.072691e+002 1.000000e+002
      endloop
   endfacet
   facet normal -9.586114e-001 2.847178e-001 0.000000e+000
      outer loop
         vertex -5.212958e+002 4.072691e+002 1.000000e+002
         vertex -5.212958e+002 4.072691e+002 2.000000e+002
         vertex -4.915830e+002 5.160574e+002 2.000000e+002
      endloop
   endfacet
   facet normal -9.700543e-001 2.428882e-001 0.000000e+000
      outer loop
         vertex -5.212958e+002 4.072691e+002 1.000000e+002
         vertex -4.915830e+002 5.160574e+002 2.000000e+002
         vertex -4.915830e+002 5.160574e+002 1.000000e+002
      endloop
   endfacet
   facet normal -9.872664e-001 1.590755e-001 0.000000e+000
      outer loop
         vertex -4.915830e+002 5.160574e+002 1.000000e+002
         vertex -4.915830e+002 5.160574e+002 2.000000e+002
         vertex -4.754895e+002 6.322372e+002 2.000000e+002
      endloop
   endfacet
   facet normal -9.931189e-001 1.171096e-001 0.000000e+000
      outer loop
         vertex -4.915830e+002 5.160574e+002 1.000000e+002
         vertex -4.754895e+002 6.322372e+002 2.000000e+002
         vertex -4.754895e+002 6.322372e+002 1.000000e+002
      endloop
   endfacet
   facet normal -9.993957e-001 3.475950e-002 0.000000e+000
      outer loop
         vertex -4.754895e+002 6.322372e+002 1.000000e+002
         vertex -4.754895e+002 6.322372e+002 2.000000e+002
         vertex -4.738369e+002 7.569869e+002 2.000000e+002
      endloop
   endfacet
   facet normal -9.999843e-001 -5.612391e-003 0.000000e+000
      outer loop
         vertex -4.754895e+002 6.322372e+002 1.000000e+002
         vertex -4.738369e+002 7.569869e+002 2.000000e+002
         vertex -4.738369e+002 7.569869e+002 1.000000e+002
      endloop
   endfacet
   facet normal -9.965886e-001 -8.253020e-002 0.000000e+000
      outer loop
         vertex -4.738369e+002 7.569869e+002 1.000000e+002
         vertex -4.738369e+002 7.569869e+002 2.000000e+002
         vertex -4.873320e+002 8.881631e+002 2.000000e+002
      endloop
   endfacet
   facet normal -9.928836e-001 -1.190889e-001 0.000000e+000
      outer loop
         vertex -4.738369e+002 7.569869e+002 1.000000e+002
         vertex -4.873320e+002 8.881631e+002 2.000000e+002
         vertex -4.873320e+002 8.881631e+002 1.000000e+002
      endloop
   endfacet
   facet normal 9.891930e-001 -1.466199e-001 0.000000e+000
      outer loop
         vertex 4.873320e+002 8.881631e+002 1.000000e+002
         vertex 4.873320e+002 8.881631e+002 2.000000e+002
         vertex 4.824739e+002 8.543717e+002 2.000000e+002
      endloop
   endfacet
   facet normal 9.904615e-001 -1.377895e-001 0.000000e+000
      outer loop
         vertex 4.873320e+002 8.881631e+002 1.000000e+002
         vertex 4.824739e+002 8.543717e+002 2.000000e+002
         vertex 4.824739e+002 8.543717e+002 1.000000e+002
      endloop
   endfacet
   facet normal 9.955874e-001 -9.383906e-002 0.000000e+000
      outer loop
         vertex 4.824739e+002 8.543717e+002 1.000000e+002
         vertex 4.824739e+002 8.543717e+002 2.000000e+002
         vertex 4.729814e+002 7.323089e+002 2.000000e+002
      endloop
   endfacet
   facet normal 9.982834e-001 -5.856811e-002 0.000000e+000
      outer loop
         vertex 4.824739e+002 8.543717e+002 1.000000e+002
         vertex 4.729814e+002 7.323089e+002 2.000000e+002
         vertex 4.729814e+002 7.323089e+002 1.000000e+002
      endloop
   endfacet
   facet normal 9.998747e-001 1.583109e-002 0.000000e+000
      outer loop
         vertex 4.729814e+002 7.323089e+002 1.000000e+002
         vertex 4.729814e+002 7.323089e+002 2.000000e+002
         vertex 4.770334e+002 6.140242e+002 2.000000e+002
      endloop
   endfacet
   facet normal 9.984882e-001 5.496589e-002 0.000000e+000
      outer loop
         vertex 4.729814e+002 7.323089e+002 1.000000e+002
         vertex 4.770334e+002 6.140242e+002 2.000000e+002
         vertex 4.770334e+002 6.140242e+002 1.000000e+002
      endloop
   endfacet
   facet normal 9.908356e-001 1.350733e-001 0.000000e+000
      outer loop
         vertex 4.770334e+002 6.140242e+002 1.000000e+002
         vertex 4.770334e+002 6.140242e+002 2.000000e+002
         vertex 4.945913e+002 5.019565e+002 2.000000e+002
      endloop
   endfacet
   facet normal 9.843851e-001 1.760285e-001 0.000000e+000
      outer loop
         vertex 4.770334e+002 6.140242e+002 1.000000e+002
         vertex 4.945913e+002 5.019565e+002 2.000000e+002
         vertex 4.945913e+002 5.019565e+002 1.000000e+002
      endloop
   endfacet
   facet normal 9.660731e-001 2.582687e-001 0.000000e+000
      outer loop
         vertex 4.945913e+002 5.019565e+002 1.000000e+002
         vertex 4.945913e+002 5.019565e+002 2.000000e+002
         vertex 5.255932e+002 3.951028e+002 2.000000e+002
      endloop
   endfacet
   facet normal 9.540880e-001 2.995264e-001 0.000000e+000
      outer loop
         vertex 4.945913e+002 5.019565e+002 1.000000e+002
         vertex 5.255932e+002 3.951028e+002 2.000000e+002
         vertex 5.255932e+002 3.951028e+002 1.000000e+002
      endloop
   endfacet
   facet normal 9.247338e-001 3.806146e-001 0.000000e+000
      outer loop
         vertex 5.255932e+002 3.951028e+002 1.000000e+002
         vertex 5.255932e+002 3.951028e+002 2.000000e+002
         vertex 5.704355e+002 2.926039e+002 2.000000e+002
      endloop
   endfacet
   facet normal 9.073247e-001 4.204306e-001 0.000000e+000
      outer loop
         vertex 5.255932e+002 3.951028e+002 1.000000e+002
         vertex 5.704355e+002 2.926039e+002 2.000000e+002
         vertex 5.704355e+002 2.926039e+002 1.000000e+002
      endloop
   endfacet
   facet normal 8.677908e-001 4.969297e-001 0.000000e+000
      outer loop
         vertex 5.704355e+002 2.926039e+002 1.000000e+002
         vertex 5.704355e+002 2.926039e+002 2.000000e+002
         vertex 6.299573e+002 1.938053e+002 2.000000e+002
      endloop
   endfacet
   facet normal 8.457134e-001 5.336374e-001 0.000000e+000
      outer loop
         vertex 5.704355e+002 2.926039e+002 1.000000e+002
         vertex 6.299573e+002 1.938053e+002 2.000000e+002
         vertex 6.299573e+002 1.938053e+002 1.000000e+002
      endloop
   endfacet
   facet normal 7.984869e-001 6.020121e-001 0.000000e+000
      outer loop
         vertex 6.299573e+002 1.938053e+002 1.000000e+002
         vertex 6.299573e+002 1.938053e+002 2.000000e+002
         vertex 7.038767e+002 1.000000e+002 2.000000e+002
      endloop
   endfacet
   facet normal 7.735025e-001 6.337932e-001 0.000000e+000
      outer loop
         vertex 6.299573e+002 1.938053e+002 1.000000e+002
         vertex 7.038767e+002 1.000000e+002 2.000000e+002
         vertex 7.038767e+002 1.000000e+002 1.000000e+002
      endloop
   endfacet
   facet normal 0.000000e+000 0.000000e+000 -1.000000e+000
      outer loop
         vertex 4.770696e+002 8.503184e+002 1.000000e+002
         vertex 4.873320e+002 8.881631e+002 1.000000e+002
         vertex 4.824739e+002 8.543717e+002 1.000000e+002
      endloop
   endfacet
   facet normal 0.000000e+000 0.000000e+000 -1.000000e+000
      outer loop
         vertex -4.103817e+002 7.143659e+002 1.000000e+002
         vertex -4.738369e+002 7.569869e+002 1.000000e+002
         vertex -4.594789e+002 8.028221e+002 1.000000e+002
      endloop
   endfacet
   facet normal 0.000000e+000 0.000000e+000 -1.000000e+000
      outer loop
         vertex -4.594789e+002 8.028221e+002 1.000000e+002
         vertex -4.738369e+002 7.569869e+002 1.000000e+002
         vertex -4.873320e+002 8.881631e+002 1.000000e+002
      endloop
   endfacet
   facet normal 0.000000e+000 0.000000e+000 -1.000000e+000
      outer loop
         vertex -1.736526e+002 5.311240e+002 1.000000e+002
         vertex -7.571389e+001 5.057659e+002 1.000000e+002
         vertex -7.038767e+002 1.000000e+002 1.000000e+002
      endloop
   endfacet
   facet normal 0.000000e+000 0.000000e+000 -1.000000e+000
      outer loop
         vertex -6.206185e+002 2.075521e+002 1.000000e+002
         vertex -5.642705e+002 3.047565e+002 1.000000e+002
         vertex -2.644820e+002 5.756779e+002 1.000000e+002
      endloop
   endfacet
   facet normal 0.000000e+000 0.000000e+000 -1.000000e+000
      outer loop
         vertex -2.644820e+002 5.756779e+002 1.000000e+002
         vertex -5.642705e+002 3.047565e+002 1.000000e+002
         vertex -5.212958e+002 4.072691e+002 1.000000e+002
      endloop
   endfacet
   facet normal 0.000000e+000 0.000000e+000 -1.000000e+000
      outer loop
         vertex -2.644820e+002 5.756779e+002 1.000000e+002
         vertex -5.212958e+002 4.072691e+002 1.000000e+002
         vertex -3.444835e+002 6.376036e+002 1.000000e+002
      endloop
   endfacet
   facet normal 0.000000e+000 0.000000e+000 -1.000000e+000
      outer loop
         vertex -3.444835e+002 6.376036e+002 1.000000e+002
         vertex -5.212958e+002 4.072691e+002 1.000000e+002
         vertex -4.915830e+002 5.160574e+002 1.000000e+002
      endloop
   endfacet
   facet normal 0.000000e+000 0.000000e+000 -1.000000e+000
      outer loop
         vertex -3.444835e+002 6.376036e+002 1.000000e+002
         vertex -4.915830e+002 5.160574e+002 1.000000e+002
         vertex -4.103817e+002 7.143659e+002 1.000000e+002
      endloop
   endfacet
   facet normal 0.000000e+000 0.000000e+000 -1.000000e+000
      outer loop
         vertex -4.103817e+002 7.143659e+002 1.000000e+002
         vertex -4.915830e+002 5.160574e+002 1.000000e+002
         vertex -4.754895e+002 6.322372e+002 1.000000e+002
      endloop
   endfacet
   facet normal 0.000000e+000 0.000000e+000 -1.000000e+000
      outer loop
         vertex -4.103817e+002 7.143659e+002 1.000000e+002
         vertex -4.754895e+002 6.322372e+002 1.000000e+002
         vertex -4.738369e+002 7.569869e+002 1.000000e+002
      endloop
   endfacet
   facet normal 0.000000e+000 0.000000e+000 -1.000000e+000
      outer loop
         vertex -7.038767e+002 1.000000e+002 1.000000e+002
         vertex -7.571389e+001 5.057659e+002 1.000000e+002
         vertex 7.038767e+002 1.000000e+002 1.000000e+002
      endloop
   endfacet
   facet normal 0.000000e+000 0.000000e+000 -1.000000e+000
      outer loop
         vertex 7.038767e+002 1.000000e+002 1.000000e+002
         vertex -7.571389e+001 5.057659e+002 1.000000e+002
         vertex 2.532458e+001 5.006418e+002 1.000000e+002
      endloop
   endfacet
   facet normal 0.000000e+000 0.000000e+000 -1.000000e+000
      outer loop
         vertex 7.038767e+002 1.000000e+002 1.000000e+002
         vertex 2.532458e+001 5.006418e+002 1.000000e+002
         vertex 1.253263e+002 5.159615e+002 1.000000e+002
      endloop
   endfacet
   facet normal 0.000000e+000 0.000000e+000 -1.000000e+000
      outer loop
         vertex -1.736526e+002 5.311240e+002 1.000000e+002
         vertex -7.038767e+002 1.000000e+002 1.000000e+002
         vertex -2.644820e+002 5.756779e+002 1.000000e+002
      endloop
   endfacet
   facet normal 0.000000e+000 0.000000e+000 -1.000000e+000
      outer loop
         vertex -2.644820e+002 5.756779e+002 1.000000e+002
         vertex -7.038767e+002 1.000000e+002 1.000000e+002
         vertex -6.880030e+002 1.182763e+002 1.000000e+002
      endloop
   endfacet
   facet normal 0.000000e+000 0.000000e+000 -1.000000e+000
      outer loop
         vertex -2.644820e+002 5.756779e+002 1.000000e+002
         vertex -6.880030e+002 1.182763e+002 1.000000e+002
         vertex -6.206185e+002 2.075521e+002 1.000000e+002
      endloop
   endfacet
   facet normal 0.000000e+000 0.000000e+000 -1.000000e+000
      outer loop
         vertex 3.060530e+002 6.046121e+002 1.000000e+002
         vertex 5.255932e+002 3.951028e+002 1.000000e+002
         vertex 5.704355e+002 2.926039e+002 1.000000e+002
      endloop
   endfacet
   facet normal 0.000000e+000 0.000000e+000 -1.000000e+000
      outer loop
         vertex 4.770696e+002 8.503184e+002 1.000000e+002
         vertex 4.824739e+002 8.543717e+002 1.000000e+002
         vertex 4.371733e+002 7.573490e+002 1.000000e+002
      endloop
   endfacet
   facet normal 0.000000e+000 0.000000e+000 -1.000000e+000
      outer loop
         vertex 4.371733e+002 7.573490e+002 1.000000e+002
         vertex 4.824739e+002 8.543717e+002 1.000000e+002
         vertex 4.729814e+002 7.323089e+002 1.000000e+002
      endloop
   endfacet
   facet normal 0.000000e+000 0.000000e+000 -1.000000e+000
      outer loop
         vertex 4.371733e+002 7.573490e+002 1.000000e+002
         vertex 4.729814e+002 7.323089e+002 1.000000e+002
         vertex 3.793791e+002 6.743138e+002 1.000000e+002
      endloop
   endfacet
   facet normal 0.000000e+000 0.000000e+000 -1.000000e+000
      outer loop
         vertex 3.793791e+002 6.743138e+002 1.000000e+002
         vertex 4.729814e+002 7.323089e+002 1.000000e+002
         vertex 4.770334e+002 6.140242e+002 1.000000e+002
      endloop
   endfacet
   facet normal 0.000000e+000 0.000000e+000 -1.000000e+000
      outer loop
         vertex 3.793791e+002 6.743138e+002 1.000000e+002
         vertex 4.770334e+002 6.140242e+002 1.000000e+002
         vertex 3.060530e+002 6.046121e+002 1.000000e+002
      endloop
   endfacet
   facet normal 0.000000e+000 0.000000e+000 -1.000000e+000
      outer loop
         vertex 3.060530e+002 6.046121e+002 1.000000e+002
         vertex 4.770334e+002 6.140242e+002 1.000000e+002
         vertex 4.945913e+002 5.019565e+002 1.000000e+002
      endloop
   endfacet
   facet normal 0.000000e+000 0.000000e+000 -1.000000e+000
      outer loop
         vertex 3.060530e+002 6.046121e+002 1.000000e+002
         vertex 4.945913e+002 5.019565e+002 1.000000e+002
         vertex 5.255932e+002 3.951028e+002 1.000000e+002
      endloop
   endfacet
   facet normal 0.000000e+000 0.000000e+000 -1.000000e+000
      outer loop
         vertex 1.253263e+002 5.159615e+002 1.000000e+002
         vertex 2.201971e+002 5.510978e+002 1.000000e+002
         vertex 7.038767e+002 1.000000e+002 1.000000e+002
      endloop
   endfacet
   facet normal 0.000000e+000 0.000000e+000 -1.000000e+000
      outer loop
         vertex 7.038767e+002 1.000000e+002 1.000000e+002
         vertex 2.201971e+002 5.510978e+002 1.000000e+002
         vertex 3.060530e+002 6.046121e+002 1.000000e+002
      endloop
   endfacet
   facet normal 0.000000e+000 0.000000e+000 -1.000000e+000
      outer loop
         vertex 7.038767e+002 1.000000e+002 1.000000e+002
         vertex 3.060530e+002 6.046121e+002 1.000000e+002
         vertex 6.299573e+002 1.938053e+002 1.000000e+002
      endloop
   endfacet
   facet normal 0.000000e+000 0.000000e+000 -1.000000e+000
      outer loop
         vertex 6.299573e+002 1.938053e+002 1.000000e+002
         vertex 3.060530e+002 6.046121e+002 1.000000e+002
         vertex 5.704355e+002 2.926039e+002 1.000000e+002
      endloop
   endfacet
   facet normal 0.000000e+000 1.000000e+000 0.000000e+000
      outer loop
         vertex -8.000000e+002 1.000000e+002 2.000000e+002
         vertex -7.038767e+002 1.000000e+002 2.000000e+002
         vertex -7.038767e+002 1.000000e+002 1.000000e+002
      endloop
   endfacet
   facet normal 0.000000e+000 1.000000e+000 0.000000e+000
      outer loop
         vertex 7.038767e+002 1.000000e+002 2.000000e+002
         vertex 8.000000e+002 1.000000e+002 2.000000e+002
         vertex 7.038767e+002 1.000000e+002 1.000000e+002
      endloop
   endfacet
   facet normal 0.000000e+000 1.000000e+000 0.000000e+000
      outer loop
         vertex 7.038767e+002 1.000000e+002 1.000000e+002
         vertex 8.000000e+002 1.000000e+002 2.000000e+002
         vertex 8.000000e+002 1.000000e+002 -2.000000e+002
      endloop
   endfacet
   facet normal 0.000000e+000 1.000000e+000 0.000000e+000
      outer loop
         vertex 7.038767e+002 1.000000e+002 1.000000e+002
         vertex 8.000000e+002 1.000000e+002 -2.000000e+002
         vertex -7.038767e+002 1.000000e+002 1.000000e+002
      endloop
   endfacet
   facet normal 0.000000e+000 1.000000e+000 0.000000e+000
      outer loop
         vertex -7.038767e+002 1.000000e+002 1.000000e+002
         vertex 8.000000e+002 1.000000e+002 -2.000000e+002
         vertex -8.000000e+002 1.000000e+002 -2.000000e+002
      endloop
   endfacet
   facet normal 0.000000e+000 1.000000e+000 0.000000e+000
      outer loop
         vertex -7.038767e+002 1.000000e+002 1.000000e+002
         vertex -8.000000e+002 1.000000e+002 -2.000000e+002
         vertex -8.000000e+002 1.000000e+002 2.000000e+002
      endloop
   endfacet
   facet normal -1.000000e+000 0.000000e+000 0.000000e+000
      outer loop
         vertex -8.000000e+002 1.000000e+002 2.000000e+002
         vertex -8.000000e+002 1.000000e+002 -2.000000e+002
         vertex -8.000000e+002 0.000000e+000 2.000000e+002
      endloop
   endfacet
   facet normal -1.000000e+000 0.000000e+000 0.000000e+000
      outer loop
         vertex -8.000000e+002 0.000000e+000 2.000000e+002
         vertex -8.000000e+002 1.000000e+002 -2.000000e+002
         vertex -8.000000e+002 0.000000e+000 -2.000000e+002
      endloop
   endfacet
   facet normal 0.000000e+000 0.000000e+000 1.000000e+000
      outer loop
         vertex -8.000000e+002 0.000000e+000 2.000000e+002
         vertex 8.000000e+002 0.000000e+000 2.000000e+002
         vertex 7.038767e+002 1.000000e+002 2.000000e+002
      endloop
   endfacet
   facet normal 0.000000e+000 0.000000e+000 1.000000e+000
      outer loop
         vertex 7.038767e+002 1.000000e+002 2.000000e+002
         vertex 8.000000e+002 0.000000e+000 2.000000e+002
         vertex 8.000000e+002 1.000000e+002 2.000000e+002
      endloop
   endfacet
   facet normal 0.000000e+000 0.000000e+000 1.000000e+000
      outer loop
         vertex 6.299573e+002 1.938053e+002 2.000000e+002
         vertex -5.212958e+002 4.072691e+002 2.000000e+002
         vertex 7.038767e+002 1.000000e+002 2.000000e+002
      endloop
   endfacet
   facet normal 0.000000e+000 0.000000e+000 1.000000e+000
      outer loop
         vertex 7.038767e+002 1.000000e+002 2.000000e+002
         vertex -5.212958e+002 4.072691e+002 2.000000e+002
         vertex -5.642705e+002 3.047565e+002 2.000000e+002
      endloop
   endfacet
   facet normal 0.000000e+000 0.000000e+000 1.000000e+000
      outer loop
         vertex 7.038767e+002 1.000000e+002 2.000000e+002
         vertex -5.642705e+002 3.047565e+002 2.000000e+002
         vertex -6.206185e+002 2.075521e+002 2.000000e+002
      endloop
   endfacet
   facet normal 0.000000e+000 0.000000e+000 1.000000e+000
      outer loop
         vertex -8.000000e+002 1.000000e+002 2.000000e+002
         vertex -8.000000e+002 0.000000e+000 2.000000e+002
         vertex -7.038767e+002 1.000000e+002 2.000000e+002
      endloop
   endfacet
   facet normal 0.000000e+000 0.000000e+000 1.000000e+000
      outer loop
         vertex -7.038767e+002 1.000000e+002 2.000000e+002
         vertex -8.000000e+002 0.000000e+000 2.000000e+002
         vertex 7.038767e+002 1.000000e+002 2.000000e+002
      endloop
   endfacet
   facet normal 0.000000e+000 0.000000e+000 1.000000e+000
      outer loop
         vertex -7.038767e+002 1.000000e+002 2.000000e+002
         vertex 7.038767e+002 1.000000e+002 2.000000e+002
         vertex -6.880030e+002 1.182763e+002 2.000000e+002
      endloop
   endfacet
   facet normal 0.000000e+000 0.000000e+000 1.000000e+000
      outer loop
         vertex -6.880030e+002 1.182763e+002 2.000000e+002
         vertex 7.038767e+002 1.000000e+002 2.000000e+002
         vertex -6.206185e+002 2.075521e+002 2.000000e+002
      endloop
   endfacet
   facet normal 0.000000e+000 0.000000e+000 1.000000e+000
      outer loop
         vertex 6.299573e+002 1.938053e+002 2.000000e+002
         vertex 5.704355e+002 2.926039e+002 2.000000e+002
         vertex -5.212958e+002 4.072691e+002 2.000000e+002
      endloop
   endfacet
   facet normal 0.000000e+000 0.000000e+000 1.000000e+000
      outer loop
         vertex -5.212958e+002 4.072691e+002 2.000000e+002
         vertex 5.704355e+002 2.926039e+002 2.000000e+002
         vertex 5.255932e+002 3.951028e+002 2.000000e+002
      endloop
   endfacet
   facet normal 0.000000e+000 0.000000e+000 1.000000e+000
      outer loop
         vertex -5.212958e+002 4.072691e+002 2.000000e+002
         vertex 5.255932e+002 3.951028e+002 2.000000e+002
         vertex -4.915830e+002 5.160574e+002 2.000000e+002
      endloop
   endfacet
   facet normal 0.000000e+000 0.000000e+000 1.000000e+000
      outer loop
         vertex -4.915830e+002 5.160574e+002 2.000000e+002
         vertex 5.255932e+002 3.951028e+002 2.000000e+002
         vertex 4.945913e+002 5.019565e+002 2.000000e+002
      endloop
   endfacet
   facet normal 0.000000e+000 0.000000e+000 1.000000e+000
      outer loop
         vertex -4.915830e+002 5.160574e+002 2.000000e+002
         vertex 4.945913e+002 5.019565e+002 2.000000e+002
         vertex -4.754895e+002 6.322372e+002 2.000000e+002
      endloop
   endfacet
   facet normal 0.000000e+000 0.000000e+000 1.000000e+000
      outer loop
         vertex -4.754895e+002 6.322372e+002 2.000000e+002
         vertex 4.945913e+002 5.019565e+002 2.000000e+002
         vertex 4.770334e+002 6.140242e+002 2.000000e+002
      endloop
   endfacet
   facet normal 0.000000e+000 0.000000e+000 1.000000e+000
      outer loop
         vertex -4.754895e+002 6.322372e+002 2.000000e+002
         vertex 4.770334e+002 6.140242e+002 2.000000e+002
         vertex -4.738369e+002 7.569869e+002 2.000000e+002
      endloop
   endfacet
   facet normal 0.000000e+000 0.000000e+000 1.000000e+000
      outer loop
         vertex 4.770334e+002 6.140242e+002 2.000000e+002
         vertex 4.729814e+002 7.323089e+002 2.000000e+002
         vertex -4.738369e+002 7.569869e+002 2.000000e+002
      endloop
   endfacet
   facet normal 0.000000e+000 0.000000e+000 1.000000e+000
      outer loop
         vertex -4.738369e+002 7.569869e+002 2.000000e+002
         vertex 4.729814e+002 7.323089e+002 2.000000e+002
         vertex 4.824739e+002 8.543717e+002 2.000000e+002
      endloop
   endfacet
   facet normal 0.000000e+000 0.000000e+000 1.000000e+000
      outer loop
         vertex -4.738369e+002 7.569869e+002 2.000000e+002
         vertex 4.824739e+002 8.543717e+002 2.000000e+002
         vertex -4.873320e+002 8.881631e+002 2.000000e+002
      endloop
   endfacet
   facet normal 0.000000e+000 0.000000e+000 1.000000e+000
      outer loop
         vertex -4.873320e+002 8.881631e+002 2.000000e+002
         vertex 4.824739e+002 8.543717e+002 2.000000e+002
         vertex 4.873320e+002 8.881631e+002 2.000000e+002
      endloop
   endfacet
   facet normal 0.000000e+000 0.000000e+000 1.000000e+000
      outer loop
         vertex 4.371733e+002 1.242651e+003 2.000000e+002
         vertex 3.793791e+002 1.325686e+003 2.000000e+002
         vertex -4.897650e+002 8.993508e+002 2.000000e+002
      endloop
   endfacet
   facet normal 0.000000e+000 0.000000e+000 1.000000e+000
      outer loop
         vertex -4.897650e+002 8.993508e+002 2.000000e+002
         vertex -3.444835e+002 1.362396e+003 2.000000e+002
         vertex -4.103817e+002 1.285634e+003 2.000000e+002
      endloop
   endfacet
   facet normal 0.000000e+000 0.000000e+000 1.000000e+000
      outer loop
         vertex 4.873320e+002 8.881631e+002 2.000000e+002
         vertex 4.974347e+002 9.494158e+002 2.000000e+002
         vertex -4.873320e+002 8.881631e+002 2.000000e+002
      endloop
   endfacet
   facet normal 0.000000e+000 0.000000e+000 1.000000e+000
      outer loop
         vertex -4.873320e+002 8.881631e+002 2.000000e+002
         vertex 4.974347e+002 9.494158e+002 2.000000e+002
         vertex 4.974347e+002 1.050584e+003 2.000000e+002
      endloop
   endfacet
   facet normal 0.000000e+000 0.000000e+000 1.000000e+000
      outer loop
         vertex -4.873320e+002 8.881631e+002 2.000000e+002
         vertex 4.974347e+002 1.050584e+003 2.000000e+002
         vertex -4.897650e+002 8.993508e+002 2.000000e+002
      endloop
   endfacet
   facet normal 0.000000e+000 0.000000e+000 1.000000e+000
      outer loop
         vertex -4.897650e+002 8.993508e+002 2.000000e+002
         vertex 4.974347e+002 1.050584e+003 2.000000e+002
         vertex 4.770696e+002 1.149682e+003 2.000000e+002
      endloop
   endfacet
   facet normal 0.000000e+000 0.000000e+000 1.000000e+000
      outer loop
         vertex -4.897650e+002 8.993508e+002 2.000000e+002
         vertex 4.770696e+002 1.149682e+003 2.000000e+002
         vertex 4.371733e+002 1.242651e+003 2.000000e+002
      endloop
   endfacet
   facet normal 0.000000e+000 0.000000e+000 1.000000e+000
      outer loop
         vertex -7.571389e+001 1.494234e+003 2.000000e+002
         vertex -4.897650e+002 8.993508e+002 2.000000e+002
         vertex 2.532458e+001 1.499358e+003 2.000000e+002
      endloop
   endfacet
   facet normal 0.000000e+000 0.000000e+000 1.000000e+000
      outer loop
         vertex 2.532458e+001 1.499358e+003 2.000000e+002
         vertex -4.897650e+002 8.993508e+002 2.000000e+002
         vertex 1.253263e+002 1.484039e+003 2.000000e+002
      endloop
   endfacet
   facet normal 0.000000e+000 0.000000e+000 1.000000e+000
      outer loop
         vertex -7.571389e+001 1.494234e+003 2.000000e+002
         vertex -1.736526e+002 1.468876e+003 2.000000e+002
         vertex -4.897650e+002 8.993508e+002 2.000000e+002
      endloop
   endfacet
   facet normal 0.000000e+000 0.000000e+000 1.000000e+000
      outer loop
         vertex -4.897650e+002 8.993508e+002 2.000000e+002
         vertex -1.736526e+002 1.468876e+003 2.000000e+002
         vertex -2.644820e+002 1.424322e+003 2.000000e+002
      endloop
   endfacet
   facet normal 0.000000e+000 0.000000e+000 1.000000e+000
      outer loop
         vertex -4.897650e+002 8.993508e+002 2.000000e+002
         vertex -2.644820e+002 1.424322e+003 2.000000e+002
         vertex -3.444835e+002 1.362396e+003 2.000000e+002
      endloop
   endfacet
   facet normal 0.000000e+000 0.000000e+000 1.000000e+000
      outer loop
         vertex 3.793791e+002 1.325686e+003 2.000000e+002
         vertex 3.060530e+002 1.395388e+003 2.000000e+002
         vertex -4.897650e+002 8.993508e+002 2.000000e+002
      endloop
   endfacet
   facet normal 0.000000e+000 0.000000e+000 1.000000e+000
      outer loop
         vertex -4.897650e+002 8.993508e+002 2.000000e+002
         vertex 3.060530e+002 1.395388e+003 2.000000e+002
         vertex 2.201971e+002 1.448902e+003 2.000000e+002
      endloop
   endfacet
   facet normal 0.000000e+000 0.000000e+000 1.000000e+000
      outer loop
         vertex -4.897650e+002 8.993508e+002 2.000000e+002
         vertex 2.201971e+002 1.448902e+003 2.000000e+002
         vertex 1.253263e+002 1.484039e+003 2.000000e+002
      endloop
   endfacet
   facet normal 0.000000e+000 0.000000e+000 1.000000e+000
      outer loop
         vertex -4.103817e+002 1.285634e+003 2.000000e+002
         vertex -4.594789e+002 1.197178e+003 2.000000e+002
         vertex -4.897650e+002 8.993508e+002 2.000000e+002
      endloop
   endfacet
   facet normal 0.000000e+000 0.000000e+000 1.000000e+000
      outer loop
         vertex -4.897650e+002 8.993508e+002 2.000000e+002
         vertex -4.594789e+002 1.197178e+003 2.000000e+002
         vertex -4.897650e+002 1.100649e+003 2.000000e+002
      endloop
   endfacet
   facet normal 0.000000e+000 0.000000e+000 1.000000e+000
      outer loop
         vertex -4.897650e+002 8.993508e+002 2.000000e+002
         vertex -4.897650e+002 1.100649e+003 2.000000e+002
         vertex -5.000000e+002 1.000000e+003 2.000000e+002
      endloop
   endfacet
   facet normal 1.000000e+000 0.000000e+000 0.000000e+000
      outer loop
         vertex 8.000000e+002 1.000000e+002 -2.000000e+002
         vertex 8.000000e+002 1.000000e+002 2.000000e+002
         vertex 8.000000e+002 0.000000e+000 -2.000000e+002
      endloop
   endfacet
   facet normal 1.000000e+000 0.000000e+000 0.000000e+000
      outer loop
         vertex 8.000000e+002 0.000000e+000 -2.000000e+002
         vertex 8.000000e+002 1.000000e+002 2.000000e+002
         vertex 8.000000e+002 0.000000e+000 2.000000e+002
      endloop
   endfacet
   facet normal 0.000000e+000 0.000000e+000 -1.000000e+000
      outer loop
         vertex -8.000000e+002 1.000000e+002 -2.000000e+002
         vertex 8.000000e+002 1.000000e+002 -2.000000e+002
         vertex -8.000000e+002 0.000000e+000 -2.000000e+002
      endloop
   endfacet
   facet normal 0.000000e+000 0.000000e+000 -1.000000e+000
      outer loop
         vertex -8.000000e+002 0.000000e+000 -2.000000e+002
         vertex 8.000000e+002 1.000000e+002 -2.000000e+002
         vertex 8.000000e+002 0.000000e+000 -2.000000e+002
      endloop
   endfacet
   facet normal 0.000000e+000 -1.000000e+000 0.000000e+000
      outer loop
         vertex 8.000000e+002 0.000000e+000 -2.000000e+002
         vertex 8.000000e+002 0.000000e+000 2.000000e+002
         vertex -8.000000e+002 0.000000e+000 -2.000000e+002
      endloop
   endfacet
   facet normal 0.000000e+000 -1.000000e+000 0.000000e+000
      outer loop
         vertex -8.000000e+002 0.000000e+000 -2.000000e+002
         vertex 8.000000e+002 0.000000e+000 2.000000e+002
         vertex -8.000000e+002 0.000000e+000 2.000000e+002
      endloop
   endfacet
   facet normal 0.000000e+000 0.000000e+000 -1.000000e+000
      outer loop
         vertex -2.598076e+002 8.500000e+002 0.000000e+000
         vertex -4.594789e+002 8.028221e+002 0.000000e+000
         vertex -2.897778e+002 9.223543e+002 0.000000e+000
      endloop
   endfacet
   facet normal 0.000000e+000 0.000000e+000 -1.000000e+000
      outer loop
         vertex -2.897778e+002 9.223543e+002 0.000000e+000
         vertex -4.594789e+002 8.028221e+002 0.000000e+000
         vertex -4.897650e+002 8.993508e+002 0.000000e+000
      endloop
   endfacet
   facet normal 0.000000e+000 0.000000e+000 -1.000000e+000
      outer loop
         vertex -2.897778e+002 9.223543e+002 0.000000e+000
         vertex -4.897650e+002 8.993508e+002 0.000000e+000
         vertex -3.000000e+002 1.000000e+003 0.000000e+000
      endloop
   endfacet
   facet normal 0.000000e+000 0.000000e+000 -1.000000e+000
      outer loop
         vertex -3.000000e+002 1.000000e+003 0.000000e+000
         vertex -4.897650e+002 8.993508e+002 0.000000e+000
         vertex -5.000000e+002 1.000000e+003 0.000000e+000
      endloop
   endfacet
   facet normal 0.000000e+000 0.000000e+000 -1.000000e+000
      outer loop
         vertex -3.000000e+002 1.000000e+003 0.000000e+000
         vertex -5.000000e+002 1.000000e+003 0.000000e+000
         vertex -2.897778e+002 1.077646e+003 0.000000e+000
      endloop
   endfacet
   facet normal 0.000000e+000 0.000000e+000 -1.000000e+000
      outer loop
         vertex 3.215626e-013 7.000000e+002 0.000000e+000
         vertex -7.571389e+001 5.057659e+002 0.000000e+000
         vertex -7.764571e+001 7.102222e+002 0.000000e+000
      endloop
   endfacet
   facet normal 0.000000e+000 0.000000e+000 -1.000000e+000
      outer loop
         vertex -7.764571e+001 7.102222e+002 0.000000e+000
         vertex -7.571389e+001 5.057659e+002 0.000000e+000
         vertex -1.736526e+002 5.311240e+002 0.000000e+000
      endloop
   endfacet
   facet normal 0.000000e+000 0.000000e+000 -1.000000e+000
      outer loop
         vertex -7.764571e+001 7.102222e+002 0.000000e+000
         vertex -1.736526e+002 5.311240e+002 0.000000e+000
         vertex -1.500000e+002 7.401924e+002 0.000000e+000
      endloop
   endfacet
   facet normal 0.000000e+000 0.000000e+000 -1.000000e+000
      outer loop
         vertex -1.500000e+002 7.401924e+002 0.000000e+000
         vertex -1.736526e+002 5.311240e+002 0.000000e+000
         vertex -2.644820e+002 5.756779e+002 0.000000e+000
      endloop
   endfacet
   facet normal 0.000000e+000 0.000000e+000 -1.000000e+000
      outer loop
         vertex -1.500000e+002 7.401924e+002 0.000000e+000
         vertex -2.644820e+002 5.756779e+002 0.000000e+000
         vertex -2.121320e+002 7.878680e+002 0.000000e+000
      endloop
   endfacet
   facet normal 0.000000e+000 0.000000e+000 -1.000000e+000
      outer loop
         vertex -2.121320e+002 7.878680e+002 0.000000e+000
         vertex -2.644820e+002 5.756779e+002 0.000000e+000
         vertex -3.444835e+002 6.376036e+002 0.000000e+000
      endloop
   endfacet
   facet normal 0.000000e+000 0.000000e+000 -1.000000e+000
      outer loop
         vertex -2.121320e+002 7.878680e+002 0.000000e+000
         vertex -3.444835e+002 6.376036e+002 0.000000e+000
         vertex -2.598076e+002 8.500000e+002 0.000000e+000
      endloop
   endfacet
   facet normal 0.000000e+000 0.000000e+000 -1.000000e+000
      outer loop
         vertex -2.598076e+002 8.500000e+002 0.000000e+000
         vertex -3.444835e+002 6.376036e+002 0.000000e+000
         vertex -4.103817e+002 7.143659e+002 0.000000e+000
      endloop
   endfacet
   facet normal 0.000000e+000 0.000000e+000 -1.000000e+000
      outer loop
         vertex -2.598076e+002 8.500000e+002 0.000000e+000
         vertex -4.103817e+002 7.143659e+002 0.000000e+000
         vertex -4.594789e+002 8.028221e+002 0.000000e+000
      endloop
   endfacet
   facet normal 0.000000e+000 0.000000e+000 -1.000000e+000
      outer loop
         vertex 2.121320e+002 7.878680e+002 0.000000e+000
         vertex 3.060530e+002 6.046121e+002 0.000000e+000
         vertex 1.500000e+002 7.401924e+002 0.000000e+000
      endloop
   endfacet
   facet normal 0.000000e+000 0.000000e+000 -1.000000e+000
      outer loop
         vertex 1.500000e+002 7.401924e+002 0.000000e+000
         vertex 3.060530e+002 6.046121e+002 0.000000e+000
         vertex 2.201971e+002 5.510978e+002 0.000000e+000
      endloop
   endfacet
   facet normal 0.000000e+000 0.000000e+000 -1.000000e+000
      outer loop
         vertex 1.500000e+002 7.401924e+002 0.000000e+000
         vertex 2.201971e+002 5.510978e+002 0.000000e+000
         vertex 7.764571e+001 7.102222e+002 0.000000e+000
      endloop
   endfacet
   facet normal 0.000000e+000 0.000000e+000 -1.000000e+000
      outer loop
         vertex 7.764571e+001 7.102222e+002 0.000000e+000
         vertex 2.201971e+002 5.510978e+002 0.000000e+000
         vertex 1.253263e+002 5.159615e+002 0.000000e+000
      endloop
   endfacet
   facet normal 0.000000e+000 0.000000e+000 -1.000000e+000
      outer loop
         vertex 7.764571e+001 7.102222e+002 0.000000e+000
         vertex 1.253263e+002 5.159615e+002 0.000000e+000
         vertex 3.215626e-013 7.000000e+002 0.000000e+000
      endloop
   endfacet
   facet normal 0.000000e+000 0.000000e+000 -1.000000e+000
      outer loop
         vertex 3.215626e-013 7.000000e+002 0.000000e+000
         vertex 1.253263e+002 5.159615e+002 0.000000e+000
         vertex 2.532458e+001 5.006418e+002 0.000000e+000
      endloop
   endfacet
   facet normal 0.000000e+000 0.000000e+000 -1.000000e+000
      outer loop
         vertex 3.215626e-013 7.000000e+002 0.000000e+000
         vertex 2.532458e+001 5.006418e+002 0.000000e+000
         vertex -7.571389e+001 5.057659e+002 0.000000e+000
      endloop
   endfacet
   facet normal 0.000000e+000 0.000000e+000 -1.000000e+000
      outer loop
         vertex 3.000000e+002 1.000000e+003 0.000000e+000
         vertex 4.974347e+002 9.494158e+002 0.000000e+000
         vertex 2.897778e+002 9.223543e+002 0.000000e+000
      endloop
   endfacet
   facet normal 0.000000e+000 0.000000e+000 -1.000000e+000
      outer loop
         vertex 2.897778e+002 9.223543e+002 0.000000e+000
         vertex 4.974347e+002 9.494158e+002 0.000000e+000
         vertex 4.770696e+002 8.503184e+002 0.000000e+000
      endloop
   endfacet
   facet normal 0.000000e+000 0.000000e+000 -1.000000e+000
      outer loop
         vertex 2.897778e+002 9.223543e+002 0.000000e+000
         vertex 4.770696e+002 8.503184e+002 0.000000e+000
         vertex 2.598076e+002 8.500000e+002 0.000000e+000
      endloop
   endfacet
   facet normal 0.000000e+000 0.000000e+000 -1.000000e+000
      outer loop
         vertex 2.598076e+002 8.500000e+002 0.000000e+000
         vertex 4.770696e+002 8.503184e+002 0.000000e+000
         vertex 4.371733e+002 7.573490e+002 0.000000e+000
      endloop
   endfacet
   facet normal 0.000000e+000 0.000000e+000 -1.000000e+000
      outer loop
         vertex 2.598076e+002 8.500000e+002 0.000000e+000
         vertex 4.371733e+002 7.573490e+002 0.000000e+000
         vertex 2.121320e+002 7.878680e+002 0.000000e+000
      endloop
   endfacet
   facet normal 0.000000e+000 0.000000e+000 -1.000000e+000
      outer loop
         vertex 2.121320e+002 7.878680e+002 0.000000e+000
         vertex 4.371733e+002 7.573490e+002 0.000000e+000
         vertex 3.793791e+002 6.743138e+002 0.000000e+000
      endloop
   endfacet
   facet normal 0.000000e+000 0.000000e+000 -1.000000e+000
      outer loop
         vertex 2.121320e+002 7.878680e+002 0.000000e+000
         vertex 3.793791e+002 6.743138e+002 0.000000e+000
         vertex 3.060530e+002 6.046121e+002 0.000000e+000
      endloop
   endfacet
   facet normal 0.000000e+000 0.000000e+000 -1.000000e+000
      outer loop
         vertex 2.897778e+002 1.077646e+003 0.000000e+000
         vertex 4.974347e+002 1.050584e+003 0.000000e+000
         vertex 3.000000e+002 1.000000e+003 0.000000e+000
      endloop
   endfacet
   facet normal 0.000000e+000 0.000000e+000 -1.000000e+000
      outer loop
         vertex 3.000000e+002 1.000000e+003 0.000000e+000
         vertex 4.974347e+002 1.050584e+003 0.000000e+000
         vertex 5.000000e+002 1.000000e+003 4.440892e-013
      endloop
   endfacet
   facet normal 0.000000e+000 0.000000e+000 -1.000000e+000
      outer loop
         vertex 3.000000e+002 1.000000e+003 0.000000e+000
         vertex 5.000000e+002 1.000000e+003 4.440892e-013
         vertex 4.974347e+002 9.494158e+002 0.000000e+000
      endloop
   endfacet
   facet normal 0.000000e+000 0.000000e+000 -1.000000e+000
      outer loop
         vertex 1.500000e+002 1.259808e+003 0.000000e+000
         vertex 3.060530e+002 1.395388e+003 0.000000e+000
         vertex 2.121320e+002 1.212132e+003 0.000000e+000
      endloop
   endfacet
   facet normal 0.000000e+000 0.000000e+000 -1.000000e+000
      outer loop
         vertex 2.121320e+002 1.212132e+003 0.000000e+000
         vertex 3.060530e+002 1.395388e+003 0.000000e+000
         vertex 3.793791e+002 1.325686e+003 0.000000e+000
      endloop
   endfacet
   facet normal 0.000000e+000 0.000000e+000 -1.000000e+000
      outer loop
         vertex 2.121320e+002 1.212132e+003 0.000000e+000
         vertex 3.793791e+002 1.325686e+003 0.000000e+000
         vertex 2.598076e+002 1.150000e+003 0.000000e+000
      endloop
   endfacet
   facet normal 0.000000e+000 0.000000e+000 -1.000000e+000
      outer loop
         vertex 2.598076e+002 1.150000e+003 0.000000e+000
         vertex 3.793791e+002 1.325686e+003 0.000000e+000
         vertex 4.371733e+002 1.242651e+003 0.000000e+000
      endloop
   endfacet
   facet normal 0.000000e+000 0.000000e+000 -1.000000e+000
      outer loop
         vertex 2.598076e+002 1.150000e+003 0.000000e+000
         vertex 4.371733e+002 1.242651e+003 0.000000e+000
         vertex 2.897778e+002 1.077646e+003 0.000000e+000
      endloop
   endfacet
   facet normal 0.000000e+000 0.000000e+000 -1.000000e+000
      outer loop
         vertex 2.897778e+002 1.077646e+003 0.000000e+000
         vertex 4.371733e+002 1.242651e+003 0.000000e+000
         vertex 4.770696e+002 1.149682e+003 0.000000e+000
      endloop
   endfacet
   facet normal 0.000000e+000 0.000000e+000 -1.000000e+000
      outer loop
         vertex 2.897778e+002 1.077646e+003 0.000000e+000
         vertex 4.770696e+002 1.149682e+003 0.000000e+000
         vertex 4.974347e+002 1.050584e+003 0.000000e+000
      endloop
   endfacet
   facet normal 0.000000e+000 0.000000e+000 -1.000000e+000
      outer loop
         vertex -7.764571e+001 1.289778e+003 0.000000e+000
         vertex -7.571389e+001 1.494234e+003 0.000000e+000
         vertex -8.498308e-014 1.300000e+003 0.000000e+000
      endloop
   endfacet
   facet normal 0.000000e+000 0.000000e+000 -1.000000e+000
      outer loop
         vertex -8.498308e-014 1.300000e+003 0.000000e+000
         vertex -7.571389e+001 1.494234e+003 0.000000e+000
         vertex 2.532458e+001 1.499358e+003 0.000000e+000
      endloop
   endfacet
   facet normal 0.000000e+000 0.000000e+000 -1.000000e+000
      outer loop
         vertex -8.498308e-014 1.300000e+003 0.000000e+000
         vertex 2.532458e+001 1.499358e+003 0.000000e+000
         vertex 7.764571e+001 1.289778e+003 0.000000e+000
      endloop
   endfacet
   facet normal 0.000000e+000 0.000000e+000 -1.000000e+000
      outer loop
         vertex 7.764571e+001 1.289778e+003 0.000000e+000
         vertex 2.532458e+001 1.499358e+003 0.000000e+000
         vertex 1.253263e+002 1.484039e+003 0.000000e+000
      endloop
   endfacet
   facet normal 0.000000e+000 0.000000e+000 -1.000000e+000
      outer loop
         vertex 7.764571e+001 1.289778e+003 0.000000e+000
         vertex 1.253263e+002 1.484039e+003 0.000000e+000
         vertex 1.500000e+002 1.259808e+003 0.000000e+000
      endloop
   endfacet
   facet normal 0.000000e+000 0.000000e+000 -1.000000e+000
      outer loop
         vertex 1.500000e+002 1.259808e+003 0.000000e+000
         vertex 1.253263e+002 1.484039e+003 0.000000e+000
         vertex 2.201971e+002 1.448902e+003 0.000000e+000
      endloop
   endfacet
   facet normal 0.000000e+000 0.000000e+000 -1.000000e+000
      outer loop
         vertex 1.500000e+002 1.259808e+003 0.000000e+000
         vertex 2.201971e+002 1.448902e+003 0.000000e+000
         vertex 3.060530e+002 1.395388e+003 0.000000e+000
      endloop
   endfacet
   facet normal 0.000000e+000 0.000000e+000 -1.000000e+000
      outer loop
         vertex -5.000000e+002 1.000000e+003 0.000000e+000
         vertex -4.897650e+002 1.100649e+003 0.000000e+000
         vertex -2.897778e+002 1.077646e+003 0.000000e+000
      endloop
   endfacet
   facet normal 0.000000e+000 0.000000e+000 -1.000000e+000
      outer loop
         vertex -2.897778e+002 1.077646e+003 0.000000e+000
         vertex -4.897650e+002 1.100649e+003 0.000000e+000
         vertex -4.594789e+002 1.197178e+003 0.000000e+000
      endloop
   endfacet
   facet normal 0.000000e+000 0.000000e+000 -1.000000e+000
      outer loop
         vertex -2.897778e+002 1.077646e+003 0.000000e+000
         vertex -4.594789e+002 1.197178e+003 0.000000e+000
         vertex -2.598076e+002 1.150000e+003 0.000000e+000
      endloop
   endfacet
   facet normal 0.000000e+000 0.000000e+000 -1.000000e+000
      outer loop
         vertex -2.598076e+002 1.150000e+003 0.000000e+000
         vertex -4.594789e+002 1.197178e+003 0.000000e+000
         vertex -4.103817e+002 1.285634e+003 0.000000e+000
      endloop
   endfacet
   facet normal 0.000000e+000 0.000000e+000 -1.000000e+000
      outer loop
         vertex -2.598076e+002 1.150000e+003 0.000000e+000
         vertex -4.103817e+002 1.285634e+003 0.000000e+000
         vertex -2.121320e+002 1.212132e+003 0.000000e+000
      endloop
   endfacet
   facet normal 0.000000e+000 0.000000e+000 -1.000000e+000
      outer loop
         vertex -2.121320e+002 1.212132e+003 0.000000e+000
         vertex -4.103817e+002 1.285634e+003 0.000000e+000
         vertex -3.444835e+002 1.362396e+003 0.000000e+000
      endloop
   endfacet
   facet normal 0.000000e+000 0.000000e+000 -1.000000e+000
      outer loop
         vertex -2.121320e+002 1.212132e+003 0.000000e+000
         vertex -3.444835e+002 1.362396e+003 0.000000e+000
         vertex -1.500000e+002 1.259808e+003 0.000000e+000
      endloop
   endfacet
   facet normal 0.000000e+000 0.000000e+000 -1.000000e+000
      outer loop
         vertex -1.500000e+002 1.259808e+003 0.000000e+000
         vertex -3.444835e+002 1.362396e+003 0.000000e+000
         vertex -2.644820e+002 1.424322e+003 0.000000e+000
      endloop
   endfacet
   facet normal 0.000000e+000 0.000000e+000 -1.000000e+000
      outer loop
         vertex -1.500000e+002 1.259808e+003 0.000000e+000
         vertex -2.644820e+002 1.424322e+003 0.000000e+000
         vertex -7.764571e+001 1.289778e+003 0.000000e+000
      endloop
   endfacet
   facet normal 0.000000e+000 0.000000e+000 -1.000000e+000
      outer loop
         vertex -7.764571e+001 1.289778e+003 0.000000e+000
         vertex -2.644820e+002 1.424322e+003 0.000000e+000
         vertex -1.736526e+002 1.468876e+003 0.000000e+000
      endloop
   endfacet
   facet normal 0.000000e+000 0.000000e+000 -1.000000e+000
      outer loop
         vertex -7.764571e+001 1.289778e+003 0.000000e+000
         vertex -1.736526e+002 1.468876e+003 0.000000e+000
         vertex -7.571389e+001 1.494234e+003 0.000000e+000
      endloop
   endfacet
   facet normal -9.616628e-001 -2.742345e-001 -5.945584e-016
      outer loop
         vertex -4.594789e+002 8.028221e+002 1.000000e+002
         vertex -4.873320e+002 8.881631e+002 1.000000e+002
         vertex -4.897650e+002 8.993508e+002 4.440892e-013
      endloop
   endfacet
   facet normal -9.434500e-001 -3.315149e-001 -2.974155e-016
      outer loop
         vertex -4.897650e+002 8.993508e+002 4.440892e-013
         vertex -4.594789e+002 8.028221e+002 4.440892e-013
         vertex -4.594789e+002 8.028221e+002 1.000000e+002
      endloop
   endfacet
   facet normal -8.902854e-001 -4.554029e-001 -2.974155e-016
      outer loop
         vertex -4.594789e+002 8.028221e+002 1.000000e+002
         vertex -4.594789e+002 8.028221e+002 4.440892e-013
         vertex -4.103817e+002 7.143659e+002 4.440892e-013
      endloop
   endfacet
   facet normal -8.574041e-001 -5.146438e-001 -5.948310e-016
      outer loop
         vertex -4.594789e+002 8.028221e+002 1.000000e+002
         vertex -4.103817e+002 7.143659e+002 4.440892e-013
         vertex -4.103817e+002 7.143659e+002 1.000000e+002
      endloop
   endfacet
   facet normal -7.803894e-001 -6.252939e-001 -2.974155e-016
      outer loop
         vertex -4.103817e+002 7.143659e+002 1.000000e+002
         vertex -4.103817e+002 7.143659e+002 4.440892e-013
         vertex -3.444835e+002 6.376036e+002 4.440892e-013
      endloop
   endfacet
   facet normal -7.362559e-001 -6.767032e-001 -5.948310e-016
      outer loop
         vertex -4.103817e+002 7.143659e+002 1.000000e+002
         vertex -3.444835e+002 6.376036e+002 4.440892e-013
         vertex -3.444835e+002 6.376036e+002 1.000000e+002
      endloop
   endfacet
   facet normal -6.385439e-001 -7.695854e-001 -2.974155e-016
      outer loop
         vertex -3.444835e+002 6.376036e+002 1.000000e+002
         vertex -3.444835e+002 6.376036e+002 4.440892e-013
         vertex -2.644820e+002 5.756779e+002 4.440892e-013
      endloop
   endfacet
   facet normal -5.849653e-001 -8.110583e-001 -5.948310e-016
      outer loop
         vertex -3.444835e+002 6.376036e+002 1.000000e+002
         vertex -2.644820e+002 5.756779e+002 4.440892e-013
         vertex -2.644820e+002 5.756779e+002 1.000000e+002
      endloop
   endfacet
   facet normal -4.705565e-001 -8.823699e-001 -2.974155e-016
      outer loop
         vertex -2.644820e+002 5.756779e+002 1.000000e+002
         vertex -2.644820e+002 5.756779e+002 4.440892e-013
         vertex -1.736526e+002 5.311240e+002 4.440892e-013
      endloop
   endfacet
   facet normal -4.097262e-001 -9.122086e-001 -5.948310e-016
      outer loop
         vertex -2.644820e+002 5.756779e+002 1.000000e+002
         vertex -1.736526e+002 5.311240e+002 4.440892e-013
         vertex -1.736526e+002 5.311240e+002 1.000000e+002
      endloop
   endfacet
   facet normal -2.833044e-001 -9.590300e-001 -2.974155e-016
      outer loop
         vertex -1.736526e+002 5.311240e+002 1.000000e+002
         vertex -1.736526e+002 5.311240e+002 4.440892e-013
         vertex -7.571389e+001 5.057659e+002 4.440892e-013
      endloop
   endfacet
   facet normal -2.177129e-001 -9.760128e-001 -5.948310e-016
      outer loop
         vertex -1.736526e+002 5.311240e+002 1.000000e+002
         vertex -7.571389e+001 5.057659e+002 4.440892e-013
         vertex -7.571389e+001 5.057659e+002 1.000000e+002
      endloop
   endfacet
   facet normal -8.445384e-002 -9.964274e-001 -2.974155e-016
      outer loop
         vertex -7.571389e+001 5.057659e+002 1.000000e+002
         vertex -7.571389e+001 5.057659e+002 4.440892e-013
         vertex 2.532458e+001 5.006418e+002 4.440892e-013
      endloop
   endfacet
   facet normal -1.678635e-002 -9.998591e-001 -5.948310e-016
      outer loop
         vertex -7.571389e+001 5.057659e+002 1.000000e+002
         vertex 2.532458e+001 5.006418e+002 4.440892e-013
         vertex 2.532458e+001 5.006418e+002 1.000000e+002
      endloop
   endfacet
   facet normal 1.178543e-001 -9.930309e-001 -2.974155e-016
      outer loop
         vertex 2.532458e+001 5.006418e+002 1.000000e+002
         vertex 2.532458e+001 5.006418e+002 4.440892e-013
         vertex 1.253263e+002 5.159615e+002 4.440892e-013
      endloop
   endfacet
   facet normal 1.848274e-001 -9.827710e-001 -5.948310e-016
      outer loop
         vertex 2.532458e+001 5.006418e+002 1.000000e+002
         vertex 1.253263e+002 5.159615e+002 4.440892e-013
         vertex 1.253263e+002 5.159615e+002 1.000000e+002
      endloop
   endfacet
   facet normal 3.153374e-001 -9.489796e-001 -2.974155e-016
      outer loop
         vertex 1.253263e+002 5.159615e+002 1.000000e+002
         vertex 1.253263e+002 5.159615e+002 4.440892e-013
         vertex 2.201971e+002 5.510978e+002 4.440892e-013
      endloop
   endfacet
   facet normal 3.788744e-001 -9.254481e-001 -5.948310e-016
      outer loop
         vertex 1.253263e+002 5.159615e+002 1.000000e+002
         vertex 2.201971e+002 5.510978e+002 4.440892e-013
         vertex 2.201971e+002 5.510978e+002 1.000000e+002
      endloop
   endfacet
   facet normal 4.999107e-001 -8.660769e-001 -2.974155e-016
      outer loop
         vertex 2.201971e+002 5.510978e+002 1.000000e+002
         vertex 2.201971e+002 5.510978e+002 4.440892e-013
         vertex 3.060530e+002 6.046121e+002 4.440892e-013
      endloop
   endfacet
   facet normal 5.574101e-001 -8.302373e-001 -5.948310e-016
      outer loop
         vertex 2.201971e+002 5.510978e+002 1.000000e+002
         vertex 3.060530e+002 6.046121e+002 4.440892e-013
         vertex 3.060530e+002 6.046121e+002 1.000000e+002
      endloop
   endfacet
   facet normal 6.640174e-001 -7.477170e-001 -2.974155e-016
      outer loop
         vertex 3.060530e+002 6.046121e+002 1.000000e+002
         vertex 3.060530e+002 6.046121e+002 4.440892e-013
         vertex 3.793791e+002 6.743138e+002 4.440892e-013
      endloop
   endfacet
   facet normal 7.131254e-001 -7.010365e-001 -5.948310e-016
      outer loop
         vertex 3.060530e+002 6.046121e+002 1.000000e+002
         vertex 3.793791e+002 6.743138e+002 4.440892e-013
         vertex 3.793791e+002 6.743138e+002 1.000000e+002
      endloop
   endfacet
   facet normal 8.009393e-001 -5.987455e-001 -2.974155e-016
      outer loop
         vertex 3.793791e+002 6.743138e+002 1.000000e+002
         vertex 3.793791e+002 6.743138e+002 4.440892e-013
         vertex 4.371733e+002 7.573490e+002 4.440892e-013
      endloop
   endfacet
   facet normal 8.396453e-001 -5.431350e-001 -5.948310e-016
      outer loop
         vertex 3.793791e+002 6.743138e+002 1.000000e+002
         vertex 4.371733e+002 7.573490e+002 4.440892e-013
         vertex 4.371733e+002 7.573490e+002 1.000000e+002
      endloop
   endfacet
   facet normal 9.050707e-001 -4.252612e-001 -2.974155e-016
      outer loop
         vertex 4.371733e+002 7.573490e+002 1.000000e+002
         vertex 4.371733e+002 7.573490e+002 4.440892e-013
         vertex 4.770696e+002 8.503184e+002 4.440892e-013
      endloop
   endfacet
   facet normal 9.317900e-001 -3.629977e-001 -2.974155e-016
      outer loop
         vertex 4.371733e+002 7.573490e+002 1.000000e+002
         vertex 4.770696e+002 8.503184e+002 4.440892e-013
         vertex 4.770696e+002 8.503184e+002 1.000000e+002
      endloop
   endfacet
   facet normal 9.616382e-001 -2.743209e-001 -2.962620e-016
      outer loop
         vertex 4.770696e+002 8.503184e+002 1.000000e+002
         vertex 4.770696e+002 8.503184e+002 4.440892e-013
         vertex 4.873320e+002 8.881631e+002 1.000000e+002
      endloop
   endfacet
   facet normal 9.779595e-001 -2.087947e-001 -2.970929e-016
      outer loop
         vertex 4.873320e+002 8.881631e+002 1.000000e+002
         vertex 4.770696e+002 8.503184e+002 4.440892e-013
         vertex 4.974347e+002 9.494158e+002 4.440892e-013
      endloop
   endfacet
   facet normal 9.830845e-001 -1.831526e-001 -5.931357e-016
      outer loop
         vertex 4.873320e+002 8.881631e+002 1.000000e+002
         vertex 4.974347e+002 9.494158e+002 4.440892e-013
         vertex 4.873320e+002 8.881631e+002 2.000000e+002
      endloop
   endfacet
   facet normal 9.898312e-001 -1.422473e-001 -2.965679e-016
      outer loop
         vertex 4.873320e+002 8.881631e+002 2.000000e+002
         vertex 4.974347e+002 9.494158e+002 4.440892e-013
         vertex 4.974347e+002 9.494158e+002 2.000000e+002
      endloop
   endfacet
   facet normal 9.977177e-001 -6.752258e-002 -2.963976e-016
      outer loop
         vertex 4.974347e+002 9.494158e+002 2.000000e+002
         vertex 4.974347e+002 9.494158e+002 4.440892e-013
         vertex 5.000000e+002 1.000000e+003 4.440892e-013
      endloop
   endfacet
   facet normal 1.000000e+000 0.000000e+000 -2.970756e-016
      outer loop
         vertex 4.974347e+002 9.494158e+002 2.000000e+002
         vertex 5.000000e+002 1.000000e+003 4.440892e-013
         vertex 4.974347e+002 1.050584e+003 2.000000e+002
      endloop
   endfacet
   facet normal 9.977177e-001 6.752258e-002 -2.963976e-016
      outer loop
         vertex 5.000000e+002 1.000000e+003 4.440892e-013
         vertex 4.974347e+002 1.050584e+003 4.440892e-013
         vertex 4.974347e+002 1.050584e+003 2.000000e+002
      endloop
   endfacet
   facet normal 9.857872e-001 1.679992e-001 0.000000e+000
      outer loop
         vertex 4.974347e+002 1.050584e+003 2.000000e+002
         vertex 4.974347e+002 1.050584e+003 4.440892e-013
         vertex 4.770696e+002 1.149682e+003 4.440892e-013
      endloop
   endfacet
   facet normal 9.721483e-001 2.343668e-001 0.000000e+000
      outer loop
         vertex 4.974347e+002 1.050584e+003 2.000000e+002
         vertex 4.770696e+002 1.149682e+003 4.440892e-013
         vertex 4.770696e+002 1.149682e+003 2.000000e+002
      endloop
   endfacet
   facet normal 9.317900e-001 3.629977e-001 0.000000e+000
      outer loop
         vertex 4.770696e+002 1.149682e+003 2.000000e+002
         vertex 4.770696e+002 1.149682e+003 4.440892e-013
         vertex 4.371733e+002 1.242651e+003 4.440892e-013
      endloop
   endfacet
   facet normal 9.050707e-001 4.252612e-001 0.000000e+000
      outer loop
         vertex 4.770696e+002 1.149682e+003 2.000000e+002
         vertex 4.371733e+002 1.242651e+003 4.440892e-013
         vertex 4.371733e+002 1.242651e+003 2.000000e+002
      endloop
   endfacet
   facet normal 8.396453e-001 5.431351e-001 0.000000e+000
      outer loop
         vertex 4.371733e+002 1.242651e+003 2.000000e+002
         vertex 4.371733e+002 1.242651e+003 4.440892e-013
         vertex 3.793791e+002 1.325686e+003 4.440892e-013
      endloop
   endfacet
   facet normal 8.009393e-001 5.987455e-001 0.000000e+000
      outer loop
         vertex 4.371733e+002 1.242651e+003 2.000000e+002
         vertex 3.793791e+002 1.325686e+003 4.440892e-013
         vertex 3.793791e+002 1.325686e+003 2.000000e+002
      endloop
   endfacet
   facet normal 7.131254e-001 7.010365e-001 0.000000e+000
      outer loop
         vertex 3.793791e+002 1.325686e+003 2.000000e+002
         vertex 3.793791e+002 1.325686e+003 4.440892e-013
         vertex 3.060530e+002 1.395388e+003 4.440892e-013
      endloop
   endfacet
   facet normal 6.640174e-001 7.477170e-001 0.000000e+000
      outer loop
         vertex 3.793791e+002 1.325686e+003 2.000000e+002
         vertex 3.060530e+002 1.395388e+003 4.440892e-013
         vertex 3.060530e+002 1.395388e+003 2.000000e+002
      endloop
   endfacet
   facet normal 5.574101e-001 8.302373e-001 0.000000e+000
      outer loop
         vertex 3.060530e+002 1.395388e+003 2.000000e+002
         vertex 3.060530e+002 1.395388e+003 4.440892e-013
         vertex 2.201971e+002 1.448902e+003 4.440892e-013
      endloop
   endfacet
   facet normal 4.999107e-001 8.660769e-001 0.000000e+000
      outer loop
         vertex 3.060530e+002 1.395388e+003 2.000000e+002
         vertex 2.201971e+002 1.448902e+003 4.440892e-013
         vertex 2.201971e+002 1.448902e+003 2.000000e+002
      endloop
   endfacet
   facet normal 3.788744e-001 9.254481e-001 0.000000e+000
      outer loop
         vertex 2.201971e+002 1.448902e+003 2.000000e+002
         vertex 2.201971e+002 1.448902e+003 4.440892e-013
         vertex 1.253263e+002 1.484039e+003 4.440892e-013
      endloop
   endfacet
   facet normal 3.153374e-001 9.489796e-001 0.000000e+000
      outer loop
         vertex 2.201971e+002 1.448902e+003 2.000000e+002
         vertex 1.253263e+002 1.484039e+003 4.440892e-013
         vertex 1.253263e+002 1.484039e+003 2.000000e+002
      endloop
   endfacet
   facet normal 1.848274e-001 9.827710e-001 0.000000e+000
      outer loop
         vertex 1.253263e+002 1.484039e+003 2.000000e+002
         vertex 1.253263e+002 1.484039e+003 4.440892e-013
         vertex 2.532458e+001 1.499358e+003 4.440892e-013
      endloop
   endfacet
   facet normal 1.178543e-001 9.930309e-001 0.000000e+000
      outer loop
         vertex 1.253263e+002 1.484039e+003 2.000000e+002
         vertex 2.532458e+001 1.499358e+003 4.440892e-013
         vertex 2.532458e+001 1.499358e+003 2.000000e+002
      endloop
   endfacet
   facet normal -1.678635e-002 9.998591e-001 0.000000e+000
      outer loop
         vertex 2.532458e+001 1.499358e+003 2.000000e+002
         vertex 2.532458e+001 1.499358e+003 4.440892e-013
         vertex -7.571389e+001 1.494234e+003 4.440892e-013
      endloop
   endfacet
   facet normal -8.445384e-002 9.964274e-001 0.000000e+000
      outer loop
         vertex 2.532458e+001 1.499358e+003 2.000000e+002
         vertex -7.571389e+001 1.494234e+003 4.440892e-013
         vertex -7.571389e+001 1.494234e+003 2.000000e+002
      endloop
   endfacet
   facet normal -2.177129e-001 9.760128e-001 0.000000e+000
      outer loop
         vertex -7.571389e+001 1.494234e+003 2.000000e+002
         vertex -7.571389e+001 1.494234e+003 4.440892e-013
         vertex -1.736526e+002 1.468876e+003 4.440892e-013
      endloop
   endfacet
   facet normal -2.833044e-001 9.590300e-001 0.000000e+000
      outer loop
         vertex -7.571389e+001 1.494234e+003 2.000000e+002
         vertex -1.736526e+002 1.468876e+003 4.440892e-013
         vertex -1.736526e+002 1.468876e+003 2.000000e+002
      endloop
   endfacet
   facet normal -4.097262e-001 9.122086e-001 0.000000e+000
      outer loop
         vertex -1.736526e+002 1.468876e+003 2.000000e+002
         vertex -1.736526e+002 1.468876e+003 4.440892e-013
         vertex -2.644820e+002 1.424322e+003 4.440892e-013
      endloop
   endfacet
   facet normal -4.705565e-001 8.823699e-001 0.000000e+000
      outer loop
         vertex -1.736526e+002 1.468876e+003 2.000000e+002
         vertex -2.644820e+002 1.424322e+003 4.440892e-013
         vertex -2.644820e+002 1.424322e+003 2.000000e+002
      endloop
   endfacet
   facet normal -5.849653e-001 8.110583e-001 0.000000e+000
      outer loop
         vertex -2.644820e+002 1.424322e+003 2.000000e+002
         vertex -2.644820e+002 1.424322e+003 4.440892e-013
         vertex -3.444835e+002 1.362396e+003 4.440892e-013
      endloop
   endfacet
   facet normal -6.385439e-001 7.695854e-001 0.000000e+000
      outer loop
         vertex -2.644820e+002 1.424322e+003 2.000000e+002
         vertex -3.444835e+002 1.362396e+003 4.440892e-013
         vertex -3.444835e+002 1.362396e+003 2.000000e+002
      endloop
   endfacet
   facet normal -7.362559e-001 6.767032e-001 0.000000e+000
      outer loop
         vertex -3.444835e+002 1.362396e+003 2.000000e+002
         vertex -3.444835e+002 1.362396e+003 4.440892e-013
         vertex -4.103817e+002 1.285634e+003 4.440892e-013
      endloop
   endfacet
   facet normal -7.803893e-001 6.252939e-001 0.000000e+000
      outer loop
         vertex -3.444835e+002 1.362396e+003 2.000000e+002
         vertex -4.103817e+002 1.285634e+003 4.440892e-013
         vertex -4.103817e+002 1.285634e+003 2.000000e+002
      endloop
   endfacet
   facet normal -8.574041e-001 5.146438e-001 0.000000e+000
      outer loop
         vertex -4.103817e+002 1.285634e+003 2.000000e+002
         vertex -4.103817e+002 1.285634e+003 4.440892e-013
         vertex -4.594789e+002 1.197178e+003 4.440892e-013
      endloop
   endfacet
   facet normal -8.902854e-001 4.554030e-001 0.000000e+000
      outer loop
         vertex -4.103817e+002 1.285634e+003 2.000000e+002
         vertex -4.594789e+002 1.197178e+003 4.440892e-013
         vertex -4.594789e+002 1.197178e+003 2.000000e+002
      endloop
   endfacet
   facet normal -9.434500e-001 3.315149e-001 0.000000e+000
      outer loop
         vertex -4.594789e+002 1.197178e+003 2.000000e+002
         vertex -4.594789e+002 1.197178e+003 4.440892e-013
         vertex -4.897650e+002 1.100649e+003 4.440892e-013
      endloop
   endfacet
   facet normal -9.637332e-001 2.668677e-001 0.000000e+000
      outer loop
         vertex -4.594789e+002 1.197178e+003 2.000000e+002
         vertex -4.897650e+002 1.100649e+003 4.440892e-013
         vertex -4.897650e+002 1.100649e+003 2.000000e+002
      endloop
   endfacet
   facet normal -9.908710e-001 1.348137e-001 0.000000e+000
      outer loop
         vertex -4.897650e+002 1.100649e+003 2.000000e+002
         vertex -4.897650e+002 1.100649e+003 4.440892e-013
         vertex -5.000000e+002 1.000000e+003 4.440892e-013
      endloop
   endfacet
   facet normal -9.977255e-001 6.740683e-002 0.000000e+000
      outer loop
         vertex -4.897650e+002 1.100649e+003 2.000000e+002
         vertex -5.000000e+002 1.000000e+003 4.440892e-013
         vertex -5.000000e+002 1.000000e+003 2.000000e+002
      endloop
   endfacet
   facet normal -9.977255e-001 -6.740683e-002 0.000000e+000
      outer loop
         vertex -5.000000e+002 1.000000e+003 2.000000e+002
         vertex -5.000000e+002 1.000000e+003 4.440892e-013
         vertex -4.897650e+002 8.993508e+002 4.440892e-013
      endloop
   endfacet
   facet normal -9.908710e-001 -1.348137e-001 0.000000e+000
      outer loop
         vertex -5.000000e+002 1.000000e+003 2.000000e+002
         vertex -4.897650e+002 8.993508e+002 4.440892e-013
         vertex -4.897650e+002 8.993508e+002 2.000000e+002
      endloop
   endfacet
   facet normal -9.779649e-001 -2.087691e-001 -2.960767e-016
      outer loop
         vertex -4.897650e+002 8.993508e+002 2.000000e+002
         vertex -4.897650e+002 8.993508e+002 4.440892e-013
         vertex -4.873320e+002 8.881631e+002 1.000000e+002
      endloop
   endfacet
   facet normal -9.763429e-001 -2.162279e-001 -5.921534e-016
      outer loop
         vertex -4.897650e+002 8.993508e+002 2.000000e+002
         vertex -4.873320e+002 8.881631e+002 1.000000e+002
         vertex -4.873320e+002 8.881631e+002 2.000000e+002
      endloop
   endfacet
   facet normal 9.962141e-001 8.693379e-002 0.000000e+000
      outer loop
         vertex -2.897778e+002 9.223543e+002 1.000000e+002
         vertex -3.000000e+002 1.000000e+003 0.000000e+000
         vertex -3.000000e+002 1.000000e+003 1.000000e+002
      endloop
   endfacet
   facet normal 9.962141e-001 -8.693379e-002 0.000000e+000
      outer loop
         vertex -3.000000e+002 1.000000e+003 1.000000e+002
         vertex -3.000000e+002 1.000000e+003 0.000000e+000
         vertex -2.897778e+002 1.077646e+003 0.000000e+000
      endloop
   endfacet
   facet normal 9.847691e-001 -1.738676e-001 0.000000e+000
      outer loop
         vertex -3.000000e+002 1.000000e+003 1.000000e+002
         vertex -2.897778e+002 1.077646e+003 0.000000e+000
         vertex -2.897778e+002 1.077646e+003 1.000000e+002
      endloop
   endfacet
   facet normal 9.397688e-001 -3.418108e-001 0.000000e+000
      outer loop
         vertex -2.897778e+002 1.077646e+003 1.000000e+002
         vertex -2.897778e+002 1.077646e+003 0.000000e+000
         vertex -2.598076e+002 1.150000e+003 0.000000e+000
      endloop
   endfacet
   facet normal 9.062136e-001 -4.228202e-001 0.000000e+000
      outer loop
         vertex -2.897778e+002 1.077646e+003 1.000000e+002
         vertex -2.598076e+002 1.150000e+003 0.000000e+000
         vertex -2.598076e+002 1.150000e+003 1.000000e+002
      endloop
   endfacet
   facet normal 8.192798e-001 -5.733939e-001 0.000000e+000
      outer loop
         vertex -2.598076e+002 1.150000e+003 1.000000e+002
         vertex -2.598076e+002 1.150000e+003 0.000000e+000
         vertex -2.121320e+002 1.212132e+003 0.000000e+000
      endloop
   endfacet
   facet normal 7.659011e-001 -6.429583e-001 0.000000e+000
      outer loop
         vertex -2.598076e+002 1.150000e+003 1.000000e+002
         vertex -2.121320e+002 1.212132e+003 0.000000e+000
         vertex -2.121320e+002 1.212132e+003 1.000000e+002
      endloop
   endfacet
   facet normal 6.429583e-001 -7.659012e-001 0.000000e+000
      outer loop
         vertex -2.121320e+002 1.212132e+003 1.000000e+002
         vertex -2.121320e+002 1.212132e+003 0.000000e+000
         vertex -1.500000e+002 1.259808e+003 0.000000e+000
      endloop
   endfacet
   facet normal 5.733939e-001 -8.192798e-001 0.000000e+000
      outer loop
         vertex -2.121320e+002 1.212132e+003 1.000000e+002
         vertex -1.500000e+002 1.259808e+003 0.000000e+000
         vertex -1.500000e+002 1.259808e+003 1.000000e+002
      endloop
   endfacet
   facet normal 4.228202e-001 -9.062136e-001 0.000000e+000
      outer loop
         vertex -1.500000e+002 1.259808e+003 1.000000e+002
         vertex -1.500000e+002 1.259808e+003 0.000000e+000
         vertex -7.764571e+001 1.289778e+003 0.000000e+000
      endloop
   endfacet
   facet normal 3.418108e-001 -9.397688e-001 0.000000e+000
      outer loop
         vertex -1.500000e+002 1.259808e+003 1.000000e+002
         vertex -7.764571e+001 1.289778e+003 0.000000e+000
         vertex -7.764571e+001 1.289778e+003 1.000000e+002
      endloop
   endfacet
   facet normal 1.738676e-001 -9.847691e-001 0.000000e+000
      outer loop
         vertex -7.764571e+001 1.289778e+003 1.000000e+002
         vertex -7.764571e+001 1.289778e+003 0.000000e+000
         vertex -8.498308e-014 1.300000e+003 0.000000e+000
      endloop
   endfacet
   facet normal 8.693379e-002 -9.962141e-001 0.000000e+000
      outer loop
         vertex -7.764571e+001 1.289778e+003 1.000000e+002
         vertex -8.498308e-014 1.300000e+003 0.000000e+000
         vertex -8.498308e-014 1.300000e+003 1.000000e+002
      endloop
   endfacet
   facet normal -8.693379e-002 -9.962141e-001 0.000000e+000
      outer loop
         vertex -8.498308e-014 1.300000e+003 1.000000e+002
         vertex -8.498308e-014 1.300000e+003 0.000000e+000
         vertex 7.764571e+001 1.289778e+003 0.000000e+000
      endloop
   endfacet
   facet normal -1.738676e-001 -9.847691e-001 0.000000e+000
      outer loop
         vertex -8.498308e-014 1.300000e+003 1.000000e+002
         vertex 7.764571e+001 1.289778e+003 0.000000e+000
         vertex 7.764571e+001 1.289778e+003 1.000000e+002
      endloop
   endfacet
   facet normal -3.418108e-001 -9.397688e-001 0.000000e+000
      outer loop
         vertex 7.764571e+001 1.289778e+003 1.000000e+002
         vertex 7.764571e+001 1.289778e+003 0.000000e+000
         vertex 1.500000e+002 1.259808e+003 0.000000e+000
      endloop
   endfacet
   facet normal -4.228202e-001 -9.062136e-001 0.000000e+000
      outer loop
         vertex 7.764571e+001 1.289778e+003 1.000000e+002
         vertex 1.500000e+002 1.259808e+003 0.000000e+000
         vertex 1.500000e+002 1.259808e+003 1.000000e+002
      endloop
   endfacet
   facet normal -5.733939e-001 -8.192798e-001 0.000000e+000
      outer loop
         vertex 1.500000e+002 1.259808e+003 1.000000e+002
         vertex 1.500000e+002 1.259808e+003 0.000000e+000
         vertex 2.121320e+002 1.212132e+003 0.000000e+000
      endloop
   endfacet
   facet normal -6.429583e-001 -7.659011e-001 0.000000e+000
      outer loop
         vertex 1.500000e+002 1.259808e+003 1.000000e+002
         vertex 2.121320e+002 1.212132e+003 0.000000e+000
         vertex 2.121320e+002 1.212132e+003 1.000000e+002
      endloop
   endfacet
   facet normal -7.659012e-001 -6.429583e-001 0.000000e+000
      outer loop
         vertex 2.121320e+002 1.212132e+003 1.000000e+002
         vertex 2.121320e+002 1.212132e+003 0.000000e+000
         vertex 2.598076e+002 1.150000e+003 0.000000e+000
      endloop
   endfacet
   facet normal -8.192798e-001 -5.733939e-001 0.000000e+000
      outer loop
         vertex 2.121320e+002 1.212132e+003 1.000000e+002
         vertex 2.598076e+002 1.150000e+003 0.000000e+000
         vertex 2.598076e+002 1.150000e+003 1.000000e+002
      endloop
   endfacet
   facet normal -9.062136e-001 -4.228202e-001 0.000000e+000
      outer loop
         vertex 2.598076e+002 1.150000e+003 1.000000e+002
         vertex 2.598076e+002 1.150000e+003 0.000000e+000
         vertex 2.897778e+002 1.077646e+003 0.000000e+000
      endloop
   endfacet
   facet normal -9.397688e-001 -3.418108e-001 0.000000e+000
      outer loop
         vertex 2.598076e+002 1.150000e+003 1.000000e+002
         vertex 2.897778e+002 1.077646e+003 0.000000e+000
         vertex 2.897778e+002 1.077646e+003 1.000000e+002
      endloop
   endfacet
   facet normal -9.847691e-001 -1.738676e-001 0.000000e+000
      outer loop
         vertex 2.897778e+002 1.077646e+003 1.000000e+002
         vertex 2.897778e+002 1.077646e+003 0.000000e+000
         vertex 3.000000e+002 1.000000e+003 0.000000e+000
      endloop
   endfacet
   facet normal -9.962141e-001 -8.693379e-002 0.000000e+000
      outer loop
         vertex 2.897778e+002 1.077646e+003 1.000000e+002
         vertex 3.000000e+002 1.000000e+003 0.000000e+000
         vertex 3.000000e+002 1.000000e+003 1.000000e+002
      endloop
   endfacet
   facet normal -9.962141e-001 8.693379e-002 0.000000e+000
      outer loop
         vertex 3.000000e+002 1.000000e+003 1.000000e+002
         vertex 3.000000e+002 1.000000e+003 0.000000e+000
         vertex 2.897778e+002 9.223543e+002 0.000000e+000
      endloop
   endfacet
   facet normal -9.847691e-001 1.738676e-001 0.000000e+000
      outer loop
         vertex 3.000000e+002 1.000000e+003 1.000000e+002
         vertex 2.897778e+002 9.223543e+002 0.000000e+000
         vertex 2.897778e+002 9.223543e+002 1.000000e+002
      endloop
   endfacet
   facet normal -9.397688e-001 3.418108e-001 0.000000e+000
      outer loop
         vertex 2.897778e+002 9.223543e+002 1.000000e+002
         vertex 2.897778e+002 9.223543e+002 0.000000e+000
         vertex 2.598076e+002 8.500000e+002 0.000000e+000
      endloop
   endfacet
   facet normal -9.062136e-001 4.228202e-001 0.000000e+000
      outer loop
         vertex 2.897778e+002 9.223543e+002 1.000000e+002
         vertex 2.598076e+002 8.500000e+002 0.000000e+000
         vertex 2.598076e+002 8.500000e+002 1.000000e+002
      endloop
   endfacet
   facet normal -8.192798e-001 5.733939e-001 0.000000e+000
      outer loop
         vertex 2.598076e+002 8.500000e+002 1.000000e+002
         vertex 2.598076e+002 8.500000e+002 0.000000e+000
         vertex 2.121320e+002 7.878680e+002 0.000000e+000
      endloop
   endfacet
   facet normal -7.659011e-001 6.429583e-001 0.000000e+000
      outer loop
         vertex 2.598076e+002 8.500000e+002 1.000000e+002
         vertex 2.121320e+002 7.878680e+002 0.000000e+000
         vertex 2.121320e+002 7.878680e+002 1.000000e+002
      endloop
   endfacet
   facet normal -6.429583e-001 7.659012e-001 0.000000e+000
      outer loop
         vertex 2.121320e+002 7.878680e+002 1.000000e+002
         vertex 2.121320e+002 7.878680e+002 0.000000e+000
         vertex 1.500000e+002 7.401924e+002 0.000000e+000
      endloop
   endfacet
   facet normal -5.733939e-001 8.192798e-001 0.000000e+000
      outer loop
         vertex 2.121320e+002 7.878680e+002 1.000000e+002
         vertex 1.500000e+002 7.401924e+002 0.000000e+000
         vertex 1.500000e+002 7.401924e+002 1.000000e+002
      endloop
   endfacet
   facet normal -4.228202e-001 9.062136e-001 0.000000e+000
      outer loop
         vertex 1.500000e+002 7.401924e+002 1.000000e+002
         vertex 1.500000e+002 7.401924e+002 0.000000e+000
         vertex 7.764571e+001 7.102222e+002 0.000000e+000
      endloop
   endfacet
   facet normal -3.418108e-001 9.397688e-001 0.000000e+000
      outer loop
         vertex 1.500000e+002 7.401924e+002 1.000000e+002
         vertex 7.764571e+001 7.102222e+002 0.000000e+000
         vertex 7.764571e+001 7.102222e+002 1.000000e+002
      endloop
   endfacet
   facet normal -1.738676e-001 9.847691e-001 0.000000e+000
      outer loop
         vertex 7.764571e+001 7.102222e+002 1.000000e+002
         vertex 7.764571e+001 7.102222e+002 0.000000e+000
         vertex 3.215626e-013 7.000000e+002 0.000000e+000
      endloop
   endfacet
   facet normal -8.693379e-002 9.962141e-001 0.000000e+000
      outer loop
         vertex 7.764571e+001 7.102222e+002 1.000000e+002
         vertex 3.215626e-013 7.000000e+002 0.000000e+000
         vertex 3.215626e-013 7.000000e+002 1.000000e+002
      endloop
   endfacet
   facet normal 8.693379e-002 9.962141e-001 0.000000e+000
      outer loop
         vertex 3.215626e-013 7.000000e+002 1.000000e+002
         vertex 3.215626e-013 7.000000e+002 0.000000e+000
         vertex -7.764571e+001 7.102222e+002 0.000000e+000
      endloop
   endfacet
   facet normal 1.738676e-001 9.847691e-001 0.000000e+000
      outer loop
         vertex 3.215626e-013 7.000000e+002 1.000000e+002
         vertex -7.764571e+001 7.102222e+002 0.000000e+000
         vertex -7.764571e+001 7.102222e+002 1.000000e+002
      endloop
   endfacet
   facet normal 3.418108e-001 9.397688e-001 0.000000e+000
      outer loop
         vertex -7.764571e+001 7.102222e+002 1.000000e+002
         vertex -7.764571e+001 7.102222e+002 0.000000e+000
         vertex -1.500000e+002 7.401924e+002 0.000000e+000
      endloop
   endfacet
   facet normal 4.228202e-001 9.062136e-001 0.000000e+000
      outer loop
         vertex -7.764571e+001 7.102222e+002 1.000000e+002
         vertex -1.500000e+002 7.401924e+002 0.000000e+000
         vertex -1.500000e+002 7.401924e+002 1.000000e+002
      endloop
   endfacet
   facet normal 5.733939e-001 8.192798e-001 0.000000e+000
      outer loop
         vertex -1.500000e+002 7.401924e+002 1.000000e+002
         vertex -1.500000e+002 7.401924e+002 0.000000e+000
         vertex -2.121320e+002 7.878680e+002 0.000000e+000
      endloop
   endfacet
   facet normal 6.429583e-001 7.659011e-001 0.000000e+000
      outer loop
         vertex -1.500000e+002 7.401924e+002 1.000000e+002
         vertex -2.121320e+002 7.878680e+002 0.000000e+000
         vertex -2.121320e+002 7.878680e+002 1.000000e+002
      endloop
   endfacet
   facet normal 7.659012e-001 6.429583e-001 0.000000e+000
      outer loop
         vertex -2.121320e+002 7.878680e+002 1.000000e+002
         vertex -2.121320e+002 7.878680e+002 0.000000e+000
         vertex -2.598076e+002 8.500000e+002 0.000000e+000
      endloop
   endfacet
   facet normal 8.192798e-001 5.733939e-001 0.000000e+000
      outer loop
         vertex -2.121320e+002 7.878680e+002 1.000000e+002
         vertex -2.598076e+002 8.500000e+002 0.000000e+000
         vertex -2.598076e+002 8.500000e+002 1.000000e+002
      endloop
   endfacet
   facet normal 9.062136e-001 4.228202e-001 0.000000e+000
      outer loop
         vertex -2.598076e+002 8.500000e+002 1.000000e+002
         vertex -2.598076e+002 8.500000e+002 0.000000e+000
         vertex -2.897778e+002 9.223543e+002 0.000000e+000
      endloop
   endfacet
   facet normal 9.397688e-001 3.418108e-001 0.000000e+000
      outer loop
         vertex -2.598076e+002 8.500000e+002 1.000000e+002
         vertex -2.897778e+002 9.223543e+002 0.000000e+000
         vertex -2.897778e+002 9.223543e+002 1.000000e+002
      endloop
   endfacet
   facet normal 9.847691e-001 1.738676e-001 0.000000e+000
      outer loop
         vertex -2.897778e+002 9.223543e+002 1.000000e+002
         vertex -2.897778e+002 9.223543e+002 0.000000e+000
         vertex -3.000000e+002 1.000000e+003 0.000000e+000
      endloop
   endfacet
   facet normal 0.000000e+000 0.000000e+000 -1.000000e+000
      outer loop
         vertex -1.500000e+002 7.401924e+002 1.000000e+002
         vertex -2.598076e+002 1.150000e+003 1.000000e+002
         vertex -2.121320e+002 1.212132e+003 1.000000e+002
      endloop
   endfacet
   facet normal 0.000000e+000 0.000000e+000 -1.000000e+000
      outer loop
         vertex -2.121320e+002 1.212132e+003 1.000000e+002
         vertex -1.500000e+002 1.259808e+003 1.000000e+002
         vertex -1.500000e+002 7.401924e+002 1.000000e+002
      endloop
   endfacet
   facet normal 0.000000e+000 0.000000e+000 -1.000000e+000
      outer loop
         vertex -1.500000e+002 7.401924e+002 1.000000e+002
         vertex -1.500000e+002 1.259808e+003 1.000000e+002
         vertex -7.764571e+001 1.289778e+003 1.000000e+002
      endloop
   endfacet
   facet normal 0.000000e+000 0.000000e+000 -1.000000e+000
      outer loop
         vertex -1.500000e+002 7.401924e+002 1.000000e+002
         vertex -7.764571e+001 1.289778e+003 1.000000e+002
         vertex -8.498308e-014 1.300000e+003 1.000000e+002
      endloop
   endfacet
   facet normal 0.000000e+000 0.000000e+000 -1.000000e+000
      outer loop
         vertex -2.598076e+002 8.500000e+002 1.000000e+002
         vertex -2.897778e+002 9.223543e+002 1.000000e+002
         vertex -3.000000e+002 1.000000e+003 1.000000e+002
      endloop
   endfacet
   facet normal 0.000000e+000 0.000000e+000 -1.000000e+000
      outer loop
         vertex 3.215626e-013 7.000000e+002 1.000000e+002
         vertex -7.764571e+001 7.102222e+002 1.000000e+002
         vertex 1.500000e+002 1.259808e+003 1.000000e+002
      endloop
   endfacet
   facet normal 0.000000e+000 0.000000e+000 -1.000000e+000
      outer loop
         vertex 1.500000e+002 1.259808e+003 1.000000e+002
         vertex -7.764571e+001 7.102222e+002 1.000000e+002
         vertex -1.500000e+002 7.401924e+002 1.000000e+002
      endloop
   endfacet
   facet normal 0.000000e+000 0.000000e+000 -1.000000e+000
      outer loop
         vertex 1.500000e+002 1.259808e+003 1.000000e+002
         vertex -1.500000e+002 7.401924e+002 1.000000e+002
         vertex 7.764571e+001 1.289778e+003 1.000000e+002
      endloop
   endfacet
   facet normal 0.000000e+000 0.000000e+000 -1.000000e+000
      outer loop
         vertex 7.764571e+001 1.289778e+003 1.000000e+002
         vertex -1.500000e+002 7.401924e+002 1.000000e+002
         vertex -8.498308e-014 1.300000e+003 1.000000e+002
      endloop
   endfacet
   facet normal 0.000000e+000 0.000000e+000 -1.000000e+000
      outer loop
         vertex 2.897778e+002 9.223543e+002 1.000000e+002
         vertex 2.598076e+002 8.500000e+002 1.000000e+002
         vertex 3.000000e+002 1.000000e+003 1.000000e+002
      endloop
   endfacet
   facet normal 0.000000e+000 0.000000e+000 -1.000000e+000
      outer loop
         vertex 3.000000e+002 1.000000e+003 1.000000e+002
         vertex 2.598076e+002 8.500000e+002 1.000000e+002
         vertex 2.897778e+002 1.077646e+003 1.000000e+002
      endloop
   endfacet
   facet normal 0.000000e+000 0.000000e+000 -1.000000e+000
      outer loop
         vertex 2.121320e+002 1.212132e+003 1.000000e+002
         vertex 2.598076e+002 1.150000e+003 1.000000e+002
         vertex 1.500000e+002 7.401924e+002 1.000000e+002
      endloop
   endfacet
   facet normal 0.000000e+000 0.000000e+000 -1.000000e+000
      outer loop
         vertex 1.500000e+002 7.401924e+002 1.000000e+002
         vertex 2.598076e+002 1.150000e+003 1.000000e+002
         vertex 2.897778e+002 1.077646e+003 1.000000e+002
      endloop
   endfacet
   facet normal 0.000000e+000 0.000000e+000 -1.000000e+000
      outer loop
         vertex 1.500000e+002 7.401924e+002 1.000000e+002
         vertex 2.897778e+002 1.077646e+003 1.000000e+002
         vertex 2.121320e+002 7.878680e+002 1.000000e+002
      endloop
   endfacet
   facet normal 0.000000e+000 0.000000e+000 -1.000000e+000
      outer loop
         vertex 2.121320e+002 7.878680e+002 1.000000e+002
         vertex 2.897778e+002 1.077646e+003 1.000000e+002
         vertex 2.598076e+002 8.500000e+002 1.000000e+002
      endloop
   endfacet
   facet normal 0.000000e+000 0.000000e+000 -1.000000e+000
      outer loop
         vertex 2.121320e+002 1.212132e+003 1.000000e+002
         vertex 1.500000e+002 7.401924e+002 1.000000e+002
         vertex 1.500000e+002 1.259808e+003 1.000000e+002
      endloop
   endfacet
   facet normal 0.000000e+000 0.000000e+000 -1.000000e+000
      outer loop
         vertex 1.500000e+002 1.259808e+003 1.000000e+002
         vertex 1.500000e+002 7.401924e+002 1.000000e+002
         vertex 7.764571e+001 7.102222e+002 1.000000e+002
      endloop
   endfacet
   facet normal 0.000000e+000 0.000000e+000 -1.000000e+000
      outer loop
         vertex 1.500000e+002 1.259808e+003 1.000000e+002
         vertex 7.764571e+001 7.102222e+002 1.000000e+002
         vertex 3.215626e-013 7.000000e+002 1.000000e+002
      endloop
   endfacet
   facet normal 0.000000e+000 0.000000e+000 -1.000000e+000
      outer loop
         vertex -1.500000e+002 7.401924e+002 1.000000e+002
         vertex -2.121320e+002 7.878680e+002 1.000000e+002
         vertex -2.598076e+002 1.150000e+003 1.000000e+002
      endloop
   endfacet
   facet normal 0.000000e+000 0.000000e+000 -1.000000e+000
      outer loop
         vertex -2.598076e+002 1.150000e+003 1.000000e+002
         vertex -2.121320e+002 7.878680e+002 1.000000e+002
         vertex -2.598076e+002 8.500000e+002 1.000000e+002
      endloop
   endfacet
   facet normal 0.000000e+000 0.000000e+000 -1.000000e+000
      outer loop
         vertex -2.598076e+002 1.150000e+003 1.000000e+002
         vertex -2.598076e+002 8.500000e+002 1.000000e+002
         vertex -2.897778e+002 1.077646e+003 1.000000e+002
      endloop
   endfacet
   facet normal 0.000000e+000 0.000000e+000 -1.000000e+000
      outer loop
         vertex -2.897778e+002 1.077646e+003 1.000000e+002
         vertex -2.598076e+002 8.500000e+002 1.000000e+002
         vertex -3.000000e+002 1.000000e+003 1.000000e+002
      endloop
   endfacet
endsolid