solid R9_д╛хо_sldprt
   facet normal 0.000000e+000 0.000000e+000 1.000000e+000
      outer loop
         vertex -2.367302e-001 1.000000e+001 1.000000e+003
         vertex -2.600000e+002 1.000000e+001 1.000000e+003
         vertex -2.000000e+000 0.000000e+000 1.000000e+003
      endloop
   endfacet
   facet normal 0.000000e+000 0.000000e+000 1.000000e+000
      outer loop
         vertex -2.000000e+000 0.000000e+000 1.000000e+003
         vertex -2.600000e+002 1.000000e+001 1.000000e+003
         vertex -2.600000e+002 0.000000e+000 1.000000e+003
      endloop
   endfacet
   facet normal 0.000000e+000 0.000000e+000 -1.000000e+000
      outer loop
         vertex -2.000000e+000 0.000000e+000 -1.000000e+003
         vertex -2.600000e+002 0.000000e+000 -1.000000e+003
         vertex -2.367302e-001 1.000000e+001 -1.000000e+003
      endloop
   endfacet
   facet normal 0.000000e+000 0.000000e+000 -1.000000e+000
      outer loop
         vertex -2.367302e-001 1.000000e+001 -1.000000e+003
         vertex -2.600000e+002 0.000000e+000 -1.000000e+003
         vertex -2.600000e+002 1.000000e+001 -1.000000e+003
      endloop
   endfacet
   facet normal 0.000000e+000 1.000000e+000 0.000000e+000
      outer loop
         vertex -2.600000e+002 1.000000e+001 -1.000000e+003
         vertex -2.600000e+002 1.000000e+001 1.000000e+003
         vertex -2.367302e-001 1.000000e+001 -1.000000e+003
      endloop
   endfacet
   facet normal 0.000000e+000 1.000000e+000 0.000000e+000
      outer loop
         vertex -2.367302e-001 1.000000e+001 -1.000000e+003
         vertex -2.600000e+002 1.000000e+001 1.000000e+003
         vertex -2.367302e-001 1.000000e+001 1.000000e+003
      endloop
   endfacet
   facet normal 0.000000e+000 -1.000000e+000 0.000000e+000
      outer loop
         vertex -2.000000e+000 0.000000e+000 1.000000e+003
         vertex -2.600000e+002 0.000000e+000 1.000000e+003
         vertex -2.000000e+000 0.000000e+000 -1.000000e+003
      endloop
   endfacet
   facet normal 0.000000e+000 -1.000000e+000 0.000000e+000
      outer loop
         vertex -2.000000e+000 0.000000e+000 -1.000000e+003
         vertex -2.600000e+002 0.000000e+000 1.000000e+003
         vertex -2.600000e+002 0.000000e+000 -1.000000e+003
      endloop
   endfacet
   facet normal -1.000000e+000 0.000000e+000 1.387779e-016
      outer loop
         vertex -2.600000e+002 1.000000e+001 1.000000e+003
         vertex -2.600000e+002 1.000000e+001 -1.000000e+003
         vertex -2.600000e+002 0.000000e+000 1.000000e+003
      endloop
   endfacet
   facet normal -1.000000e+000 0.000000e+000 1.387779e-016
      outer loop
         vertex -2.600000e+002 0.000000e+000 1.000000e+003
         vertex -2.600000e+002 1.000000e+001 -1.000000e+003
         vertex -2.600000e+002 0.000000e+000 -1.000000e+003
      endloop
   endfacet
   facet normal 9.848078e-001 -1.736482e-001 -1.430759e-016
      outer loop
         vertex -2.367302e-001 1.000000e+001 -1.000000e+003
         vertex -2.367302e-001 1.000000e+001 1.000000e+003
         vertex -2.000000e+000 -2.758335e-030 -1.000000e+003
      endloop
   endfacet
   facet normal 9.848078e-001 -1.736482e-001 -1.430759e-016
      outer loop
         vertex -2.000000e+000 -2.758335e-030 -1.000000e+003
         vertex -2.367302e-001 1.000000e+001 1.000000e+003
         vertex -2.000000e+000 -2.121085e-014 1.000000e+003
      endloop
   endfacet
   facet normal 1.000000e+000 0.000000e+000 -1.387779e-016
      outer loop
         vertex 2.600000e+002 1.000000e+001 -1.000000e+003
         vertex 2.600000e+002 1.000000e+001 1.000000e+003
         vertex 2.600000e+002 0.000000e+000 -1.000000e+003
      endloop
   endfacet
   facet normal 1.000000e+000 0.000000e+000 -1.387779e-016
      outer loop
         vertex 2.600000e+002 0.000000e+000 -1.000000e+003
         vertex 2.600000e+002 1.000000e+001 1.000000e+003
         vertex 2.600000e+002 0.000000e+000 1.000000e+003
      endloop
   endfacet
   facet normal 0.000000e+000 1.000000e+000 0.000000e+000
      outer loop
         vertex 2.600000e+002 1.000000e+001 1.000000e+003
         vertex 2.600000e+002 1.000000e+001 -1.000000e+003
         vertex 2.367302e-001 1.000000e+001 1.000000e+003
      endloop
   endfacet
   facet normal 0.000000e+000 1.000000e+000 0.000000e+000
      outer loop
         vertex 2.367302e-001 1.000000e+001 1.000000e+003
         vertex 2.600000e+002 1.000000e+001 -1.000000e+003
         vertex 2.367302e-001 1.000000e+001 -1.000000e+003
      endloop
   endfacet
   facet normal 0.000000e+000 -1.000000e+000 0.000000e+000
      outer loop
         vertex 2.000000e+000 0.000000e+000 -1.000000e+003
         vertex 2.600000e+002 0.000000e+000 -1.000000e+003
         vertex 2.000000e+000 0.000000e+000 1.000000e+003
      endloop
   endfacet
   facet normal 0.000000e+000 -1.000000e+000 0.000000e+000
      outer loop
         vertex 2.000000e+000 0.000000e+000 1.000000e+003
         vertex 2.600000e+002 0.000000e+000 -1.000000e+003
         vertex 2.600000e+002 0.000000e+000 1.000000e+003
      endloop
   endfacet
   facet normal 0.000000e+000 0.000000e+000 -1.000000e+000
      outer loop
         vertex 2.367302e-001 1.000000e+001 -1.000000e+003
         vertex 2.600000e+002 1.000000e+001 -1.000000e+003
         vertex 2.000000e+000 0.000000e+000 -1.000000e+003
      endloop
   endfacet
   facet normal 0.000000e+000 0.000000e+000 -1.000000e+000
      outer loop
         vertex 2.000000e+000 0.000000e+000 -1.000000e+003
         vertex 2.600000e+002 1.000000e+001 -1.000000e+003
         vertex 2.600000e+002 0.000000e+000 -1.000000e+003
      endloop
   endfacet
   facet normal 0.000000e+000 0.000000e+000 1.000000e+000
      outer loop
         vertex 2.000000e+000 0.000000e+000 1.000000e+003
         vertex 2.600000e+002 0.000000e+000 1.000000e+003
         vertex 2.367302e-001 1.000000e+001 1.000000e+003
      endloop
   endfacet
   facet normal 0.000000e+000 0.000000e+000 1.000000e+000
      outer loop
         vertex 2.367302e-001 1.000000e+001 1.000000e+003
         vertex 2.600000e+002 0.000000e+000 1.000000e+003
         vertex 2.600000e+002 1.000000e+001 1.000000e+003
      endloop
   endfacet
   facet normal -9.848078e-001 -1.736482e-001 -4.031751e-014
      outer loop
         vertex 2.000000e+000 6.996316e-012 -1.000000e+003
         vertex 2.000000e+000 0.000000e+000 1.000000e+003
         vertex 2.367302e-001 1.000000e+001 -1.000000e+003
      endloop
   endfacet
   facet normal -9.848078e-001 -1.736482e-001 -4.031751e-014
      outer loop
         vertex 2.367302e-001 1.000000e+001 -1.000000e+003
         vertex 2.000000e+000 0.000000e+000 1.000000e+003
         vertex 2.367302e-001 1.000000e+001 1.000000e+003
      endloop
   endfacet
endsolid