v 0.050345028638872413 0.17380016083599809 0.078402037691006288
v 0.04743536693909095 0.17380016083599809 0.078409129189384807
v 0.050345028638872413 0.17743826402001411 0.078402037691006288
v 0.11715774512793159 0.17380016083599809 0.078402037691006288
v 0.04743536693909095 0.17453320876362383 0.078412679267938157
v 0.050345028638872413 0.1803433192764044 0.078409129189384807
v 0.044480104047355307 0.17380016083599809 0.079756782301877105
v 0.059055763303897724 0.19777364215601795 0.078405583440195548
v 0.053245564039153315 0.18324837453279469 0.078402037691006288
v 0.12005828052821249 0.17743826402001411 0.078402037691006288
v 0.12005828052821249 0.17453320876362383 0.078409129189384807
v 0.12005828052821249 0.17380016083599809 0.078448141089194845
v 0.04743536693909095 0.17743826402001411 0.078806335356499613
v 0.050345028638872413 0.18324837453279469 0.078703486983190629
v 0.053245564039153315 0.18905576620492709 0.078621917434381294
v 0.056155225738934778 0.19486587671770766 0.078554535211693088
v 0.059055763303897724 0.20067869741240824 0.078504886064315271
v 0.043741285077398329 0.17380016083599809 0.080473166507122551
v 0.044470982077218835 0.17434315833882513 0.079962479048495072
v 0.045437828653767165 0.17743826402001411 0.080235553688437156
v 0.061965422838997142 0.20153392865336645 0.078405583440195548
v 0.061965422838997142 0.20067869741240824 0.078402037691006288
v 0.059055763303897724 0.19486587671770766 0.078402037691006288
v 0.12296794222799395 0.18324837453279469 0.078402037691006288
v 0.12296794222799395 0.1803433192764044 0.078409129189384807
v 0.12586847762827486 0.18615342978918498 0.078409129189384807
v 0.12877813932805632 0.19196082146131738 0.078412679267938157
v 0.13168780102783778 0.19777364215601795 0.078419770766316677
v 0.12296794222799395 0.17743826402001411 0.078629008932759814
v 0.12292233670667568 0.17380016083599809 0.079792248452497883
v 0.048265396951684469 0.18324837453279469 0.080136255393681521
v 0.051083843279465302 0.18905576620492709 0.080051140095682927
v 0.053911413742064651 0.19486587671770766 0.079983757872994721
v 0.056729860069845484 0.20067869741240824 0.079934104396252814
v 0.058991916006988554 0.20153392865336645 0.078816972604067392
v 0.04317577055194205 0.17380016083599809 0.082718075997789353
v 0.045848282674995688 0.17917315277412321 0.080834906523616579
v 0.048703212553958319 0.18510000891893991 0.080703687827429427
v 0.051549024792148568 0.19102414622310843 0.080593747955741923
v 0.054403956835793243 0.19695099370919694 0.080505086908554069
v 0.064865962568642133 0.20153392865336645 0.078402037691006288
v 0.12586847762827486 0.18905576620492709 0.078402037691006288
v 0.12877813932805632 0.19486587671770766 0.078405583440195548
v 0.13168780102783778 0.20067869741240824 0.078412679267938157
v 0.13458833642811868 0.20067869741240824 0.079366671962504909
v 0.13168780102783778 0.19486587671770766 0.078941099801876025
v 0.12877813932805632 0.18905576620492709 0.078816972604067392
v 0.12586847762827486 0.18324837453279469 0.078714124230758409
v 0.12512054534690958 0.17743826402001411 0.080058231594061446
v 0.12465536383422632 0.1754807507056973 0.080604385203309703
v 0.12410808891967889 0.17380016083599809 0.082718075997789353
v 0.056939648065527981 0.20153392865336645 0.080129159565938912
v 0.04317577055194205 0.17380016083599809 0.10595798986649274
v 0.054248896331565488 0.1972659376292481 0.082718075997789353
v 0.056264680721844262 0.20153392865336645 0.082718075997789353
v 0.12502020800477248 0.20153392865336645 0.078402037691006288
v 0.12877813932805632 0.19777364215601795 0.078402037691006288
v 0.12877813932805632 0.20067869741240824 0.078402037691006288
v 0.12792075206378156 0.20153392865336645 0.078405583440195548
v 0.13083041376356302 0.20153392865336645 0.078519069061072311
v 0.13458833642811868 0.20153392865336645 0.079678762831621119
v 0.13621191723148801 0.20153392865336645 0.080746245476428724
v 0.13619366463248689 0.20067869741240824 0.080788803125428021
v 0.13461569800916401 0.19803699737357922 0.080090151995492964
v 0.13076656430197181 0.18905576620492709 0.080246195265369025
v 0.12793898734532633 0.18324837453279469 0.080143346892060041
v 0.13359412394116094 0.19486587671770766 0.080370322463177657
v 0.12751029371318895 0.18140759819178581 0.080714325074997206
v 0.12410808891967889 0.17380016083599809 0.10595798986649274
v 0.13321104448907001 0.19325588145885103 0.081008682868803028
v 0.13605685672726026 0.19918272894493955 0.081193096461557257
v 0.13607509200880502 0.19916372303658686 0.082718075997789353
v 0.043230498043396792 0.17380016083599809 0.10703965983742147
v 0.054248896331565488 0.1972659376292481 0.10595798986649274
v 0.056264680721844262 0.20153392865336645 0.10595798986649274
v 0.13628487567512343 0.20153392865336645 0.081671867848117308
v 0.1363578514362152 0.20067869741240824 0.082718075997789353
v 0.1303561059513792 0.18733445433660251 0.080849089520373618
v 0.12477393645790819 0.17524183041905689 0.10886253750494354
v 0.12388006131308754 0.17380016083599809 0.10887672374872365
v 0.13607509200880502 0.19916372303658686 0.11463261979969408
v 0.13132295685729162 0.18909377802163246 0.11463261979969408
v 0.12759238711505311 0.18119040265414627 0.11463261979969408
v 0.043750407047534801 0.17380016083599809 0.10825254742219634
v 0.045848282674995688 0.17917315277412321 0.10778796227941639
v 0.056428861031526445 0.20153392865336645 0.10708931006714031
v 0.13633960749594226 0.20153392865336645 0.082718075997789353
v 0.1363578514362152 0.20067869741240824 0.11463261979969408
v 0.12470096935554459 0.17551332484110632 0.11176708406105332
v 0.1268626901152326 0.1797595911162238 0.11463261979969408
v 0.12387094367231516 0.17380016083599809 0.10889445574169301
v 0.12456415279158978 0.175841845646942 0.1135190326743569
v 0.045437828653767165 0.17743826402001411 0.10834475530091447
v 0.048155941968774985 0.17380016083599809 0.11463261979969408
v 0.048329246413275684 0.17419111973073181 0.11463261979969408
v 0.057395707608074775 0.20153392865336645 0.11003996110377967
v 0.057204161387983177 0.20153392865336645 0.1097030478256566
v 0.051549024792148568 0.19102414622310843 0.10800429519126112
v 0.054403956835793243 0.19695099370919694 0.10808586365772943
v 0.13633960749594226 0.20153392865336645 0.11463261979969408
v 0.12626980967936691 0.17885277983150388 0.11463261979969408
v 0.12251188701481125 0.17380016083599809 0.11133796290421211
v 0.12208318472394569 0.17380016083599809 0.11152237866164838
v 0.12529384979141028 0.17737581727238788 0.11463261979969408
v 0.11473150888110634 0.17380016083599809 0.11463261979969408
v 0.05116593668132946 0.18018856182766291 0.11463261979969408
v 0.052616204381469911 0.18324837453279469 0.11463261979969408
v 0.054695836068657855 0.18761138643994829 0.11463261979969408
v 0.055261348429432089 0.18875982819322862 0.11463261979969408
v 0.056930526095391509 0.19214001384097973 0.11463261979969408
v 0.057660220930529971 0.19335090234188629 0.11463261979969408
v 0.05892806654539734 0.1949961992355283 0.11463261979969408
v 0.05794297819325811 0.20153392865336645 0.11040169895559165
v 0.069326224981337059 0.20153392865336645 0.11463261979969408
v 0.060442185871811049 0.19669578635485202 0.11463261979969408
v 0.059803702079309129 0.20153392865336645 0.11110744374858728
v 0.062138727283497841 0.19764332829692549 0.11463261979969408
f 1 2 3
f 1 3 9
f 1 9 23
f 1 23 22
f 1 22 41
f 1 41 56
f 1 56 58
f 1 58 57
f 1 57 42
f 1 42 24
f 1 24 10
f 1 10 4
f 1 4 12
f 1 12 30
f 1 30 51
f 1 51 69
f 1 69 80
f 1 80 91
f 1 91 102
f 1 102 103
f 1 103 105
f 1 105 94
f 1 94 84
f 1 84 73
f 1 73 53
f 1 53 36
f 1 36 18
f 1 18 7
f 1 7 2
f 2 5 6
f 2 6 3
f 2 7 5
f 3 6 8
f 3 8 9
f 4 10 11
f 4 11 12
f 5 13 14
f 5 14 15
f 5 15 16
f 5 16 17
f 5 17 6
f 5 7 13
f 6 17 8
f 7 18 19
f 7 19 20
f 7 20 13
f 8 17 21
f 8 21 22
f 8 22 23
f 8 23 9
f 10 24 25
f 10 25 11
f 11 25 12
f 12 25 26
f 12 26 27
f 12 27 28
f 12 28 29
f 12 29 30
f 13 31 32
f 13 32 33
f 13 33 34
f 13 34 14
f 13 20 31
f 14 34 15
f 15 34 16
f 16 34 17
f 17 35 21
f 17 34 35
f 18 36 37
f 18 37 20
f 18 20 19
f 20 37 38
f 20 38 39
f 20 39 40
f 20 40 31
f 21 41 22
f 21 35 52
f 21 52 55
f 21 55 75
f 21 75 86
f 21 86 97
f 21 97 96
f 21 96 113
f 21 113 116
f 21 116 114
f 21 114 100
f 21 100 87
f 21 87 76
f 21 76 62
f 21 62 61
f 21 61 60
f 21 60 59
f 21 59 56
f 21 56 41
f 24 42 25
f 25 42 26
f 26 42 27
f 27 42 43
f 27 43 44
f 27 44 28
f 28 44 45
f 28 45 46
f 28 46 47
f 28 47 48
f 28 48 29
f 29 48 49
f 29 49 30
f 30 49 50
f 30 50 51
f 31 40 32
f 32 40 52
f 32 52 33
f 33 52 34
f 34 52 35
f 36 53 74
f 36 74 54
f 36 54 37
f 37 54 55
f 37 55 39
f 37 39 38
f 39 55 40
f 40 55 52
f 42 57 43
f 43 57 44
f 44 57 58
f 44 58 59
f 44 59 60
f 44 60 61
f 44 61 45
f 45 61 62
f 45 62 63
f 45 63 64
f 45 64 46
f 46 65 66
f 46 66 49
f 46 49 47
f 46 64 67
f 46 67 65
f 47 49 48
f 49 66 50
f 50 66 65
f 50 65 67
f 50 67 68
f 50 68 51
f 51 68 70
f 51 70 71
f 51 71 72
f 51 72 81
f 51 81 69
f 53 73 74
f 54 74 75
f 54 75 55
f 56 59 58
f 62 76 77
f 62 77 63
f 63 71 64
f 63 77 71
f 64 71 67
f 67 70 78
f 67 78 68
f 67 71 70
f 68 78 70
f 69 79 80
f 69 81 82
f 69 82 83
f 69 83 79
f 71 77 72
f 72 77 88
f 72 88 81
f 73 84 85
f 73 85 75
f 73 75 74
f 75 85 86
f 76 87 77
f 77 87 100
f 77 100 88
f 79 89 80
f 79 83 90
f 79 90 89
f 80 89 92
f 80 92 91
f 81 88 100
f 81 100 114
f 81 114 117
f 81 117 115
f 81 115 112
f 81 112 111
f 81 111 110
f 81 110 109
f 81 109 108
f 81 108 107
f 81 107 106
f 81 106 95
f 81 95 94
f 81 94 105
f 81 105 104
f 81 104 101
f 81 101 90
f 81 90 83
f 81 83 82
f 84 93 85
f 84 94 95
f 84 95 93
f 85 93 96
f 85 96 97
f 85 97 98
f 85 98 86
f 86 98 99
f 86 99 97
f 89 90 92
f 90 101 92
f 91 92 102
f 92 103 102
f 92 101 104
f 92 104 105
f 92 105 103
f 93 95 96
f 95 106 96
f 96 106 107
f 96 107 108
f 96 108 109
f 96 109 110
f 96 110 111
f 96 111 112
f 96 112 113
f 97 99 98
f 112 115 113
f 113 115 116
f 114 116 117
f 115 117 116
