v 0.079919209130666136 0.080634027164348421 0.10697448559041889
v 0.07695481993942993 0.080634027164348421 0.14372763493279561
v 0.078658693129202206 0.077680331502413158 0.10697448559041889
v -0.0006757348816721076 0.080634027164348421 0.10697448559041889
v 0.076824419493055685 0.080634027164348421 0.14452035881503034
v 0.075129239666375025 0.076980323116836058 0.145517519598933
v 0.054717532676792136 0.03356270222290253 0.14527552979315317
v 0.063393376996620565 0.045275043457559005 0.10697448559041889
v -0.00071920169713018955 0.080542969814137055 0.10697448559041889
v -0.0006757348816721076 0.080468985311212438 0.10780893155438365
v -0.00061488134003079287 0.080634027164348421 0.10761700867961627
v 0.076476689298755118 0.080634027164348421 0.14647713180808786
v 0.075546512436044433 0.078670586950593147 0.14654388843766514
v 0.063384683633528949 0.053999543335706723 0.14804171853169229
v 0.072277859865965743 0.07105585678099674 0.14568023874823499
v 0.051866152876382854 0.027666692797223169 0.14545493864101999
v 0.069426480065556462 0.065125701660743884 0.14583461088357252
v 0.051909619691840936 0.027598397078712089 0.14372763493279561
v 0.052918034657694124 0.026727653726221379 0.10697448559041889
v -0.001127781103707981 0.079649462665264015 0.10697448559041889
v 0.0042185549397183997 0.080634027164348421 0.14372763493279561
v -0.0065436640518672928 0.05734592747332945 0.14587633296530256
v 0.076050723165994094 0.080634027164348421 0.14742005648335993
v 0.074746736019707993 0.077720168146082236 0.14745343371580755
v 0.066218676707754998 0.059935391569737206 0.14791237877951996
v 0.075224866660382805 0.079655153614359597 0.14826284513192506
v 0.060533303833119667 0.048080770113645033 0.14811681784586994
v 0.05147495803130625 0.028372392131895852 0.1473908505932125
v 0.052266042166892096 0.029311426873533553 0.14650633769823529
v 0.050257905598277336 0.026437404498936445 0.14643958323334005
v 0.049040853165248421 0.024821127332786019 0.14548831370878557
v 0.050570862340211437 0.026141466487237974 0.14372763493279561
v 0.05024921223518572 0.023540622657321097 0.10697448559041889
v -0.0020666513295102829 0.076974632167740475 0.10697448559041889
v -0.0076042413609522241 0.055405253220638551 0.14372763493279561
v -0.00084090445104872957 0.069200548929421624 0.14614752649654777
v 0.0046619121280267461 0.080634027164348421 0.14620593827684264
v -0.0069957146032672557 0.055541840328296621 0.14676084369559772
v -0.0061698580976559669 0.05660039149498769 0.14781224491749506
v -0.0033358650234299181 0.06254192851343171 0.14795410086124999
v -0.00050186761983977979 0.068477775665121171 0.14808344061342232
v -0.0036922842514580112 0.063270391644486723 0.14601818890905749
v 0.075442196408309126 0.080634027164348421 0.1484005297333798
v 0.072373486859973524 0.073730687278520279 0.14830039587135491
v 0.051970472151141228 0.030313068549268796 0.14824615759804227
v 0.057681924032710385 0.042156303777805715 0.1481627134345822
v 0.049536367285083399 0.027143108162973217 0.14850483493770489
v 0.048136757474153608 0.024821127332786019 0.14548831370878557
v 0.047206581693783944 0.022499146502598821 0.10697448559041889
v 0.047423912524051287 0.022504835287012359 0.10697448559041889
v 0.049119092350731947 0.02477559541065727 0.14372763493279561
v 0.047423912524051287 0.026898386528452944 0.14869258647017208
v 0.047267434153084237 0.025350405080813598 0.14652719873910031
v -0.008343164235647349 0.058313419125127108 0.10697448559041889
v -0.0088473706362329207 0.055206063508247027 0.10697448559041889
v -0.0079085047397947084 0.052502778265245575 0.14372763493279561
v -0.0073608271943869652 0.052502778265245575 0.14663150610810743
v 0.0020713245616377773 0.074999810055794036 0.14663150610810743
v 0.0047401480664872042 0.080634027164348421 0.14663150610810743
v -0.0065958242304169912 0.054665406026710328 0.14834211795308494
v 0.0023495121805695018 0.074402240918619467 0.14813350754443477
v -0.0037705245192825587 0.060601254260740811 0.14837966869251479
v 0.075024919309275628 0.080634027164348421 0.1486007974574296
v 0.072825533082009397 0.075745348198817841 0.14857159156728217
v 0.066662031731381299 0.061870374873332523 0.14836715250093219
v 0.055204354515876519 0.037979017260725445 0.14846728419827504
v 0.052379053722401064 0.032168374236161867 0.1485131797869873
v 0.050440462976178213 0.029311426873533553 0.1487384798942023
v 0.047423912524051287 0.029265899280768892 0.14944775961297696
v 0.046311178283439725 0.024946332542252925 0.14372763493279561
v 0.044563839360550389 0.023455256256205315 0.10697448559041889
v 0.044520373086262818 0.029265899280768892 0.14921828599877973
v 0.044520373086262818 0.027302459067013618 0.14846728419827504
v 0.044520373086262818 0.026232526002131384 0.14663150610810743
v -0.0088908374516910027 0.0522409859481206 0.10697448559041889
v -0.0078302644719701608 0.049617373992457303 0.10697448559041889
v -0.0069609411509007901 0.050408441892927813 0.14372763493279561
v -0.0066827578613331551 0.050687307057339537 0.14663150610810743
v -0.0063698011193990545 0.0510003200810068 0.14813767888673496
v -0.006569744141142142 0.052502778265245575 0.14831708556991974
v 0.0052095853440703999 0.080321014140681157 0.14817522962616481
v 0.0050617981715129212 0.080634027164348421 0.14743257267494253
v -0.0048571775882782497 0.052502778265245575 0.1489762961929999
v -0.0050658183024770431 0.055541840328296621 0.14882192405766237
v -0.0043008110091429796 0.058313419125127108 0.14865503573074224
v 0.0048444640942225115 0.078647823154210816 0.14843390696582742
v 0.07361661613525422 0.080634027164348421 0.14911815213675483
v 0.073694856403078768 0.078670586950593147 0.14875516959276713
v 0.070000233370874965 0.069934705174254264 0.14860914014202997
v 0.064358325147015671 0.058313419125127108 0.14867589677160725
v 0.061541718798972855 0.052502778265245575 0.14870510266175468
v 0.053239683680378819 0.037979017260725445 0.14922245734107992
v 0.050336144783760861 0.032168374236161867 0.14927252427209237
v 0.047423912524051287 0.032168374236161867 0.14959378689903208
v 0.044520373086262818 0.032168374236161867 0.14959378689903208
v 0.041616834189644861 0.032168374236161867 0.14952285892715461
v 0.050336144783760861 0.03507654230533247 0.14952285892715461
v 0.044520373086262818 0.025674795673307937 0.14372763493279561
v 0.044502986901250097 0.023478020052587645 0.10697448559041889
v 0.041738539108245445 0.029191914777844274 0.14870092915477245
v 0.038713294751856392 0.032168374236161867 0.14926835292979218
v 0.00094989804027562075 0.049600301145170556 0.14914735802690227
v 0.0067569779981935807 0.046697824025095536 0.1490889462466074
v 0.021283366926716007 0.038599350194282345 0.14863417468987722
v 0.042781726985294588 0.027683767809191961 0.14820443551631224
v 0.027099138083043539 0.035782241640005152 0.14859662395044737
v 0.013146502459839615 0.041957118394778281 0.1483880135417972
v 0.025012762328945254 0.036248912453935189 0.14832125691221992
v 0.040843136239071737 0.028173202419504328 0.14720727256772753
v 0.041738539108245445 0.027427664276480523 0.14639786115161002
v 0.040104211740865078 0.027786204892912447 0.14527136061553503
v -0.0078041843826953117 0.049560464501501478 0.10697448559041889
v -0.006448041387223602 0.047961258017955755 0.10697448559041889
v -0.0048745643144614825 0.04673197404903312 0.10697448559041889
v -0.0048571775882782497 0.049025497969060361 0.14372763493279561
v -0.0048571775882782497 0.049600301145170556 0.14663150610810743
v -0.0048571775882782497 0.050613322554414919 0.14840887458266222
v -0.00064096142930564204 0.04808646322742266 0.14814602373601737
v 0.0056529382030146569 0.080634027164348421 0.14832543041920215
v 0.0052704345563476251 0.080634027164348421 0.14794575601196758
v -0.0019536376093192698 0.052502778265245575 0.14949782437930736
v -0.0019536376093192698 0.055405253220638551 0.14956875235118483
v -0.0019536376093192698 0.058313419125127108 0.14941020887354711
v 0.0038534380192346007 0.072837180129647239 0.14913066832833743
v -0.0014842046611001636 0.064124062149690686 0.14868424162088967
v 0.0013324016869426525 0.069934705174254264 0.14870927400405487
v 0.0061919180559666942 0.080634027164348421 0.14860914014202997
v 0.072660363512632775 0.080634027164348421 0.14936848679181708
v 0.070669611505519203 0.075745348198817841 0.14932676471008705
v 0.056143222576996776 0.043789660285289023 0.14916821906776728
v 0.059046762555955756 0.049600301145170556 0.14910980728747242
v 0.064862533712283288 0.064124062149690686 0.1494018640242647
v 0.059046762555955756 0.052502778265245575 0.14946027580455956
v 0.056143222576996776 0.046697824025095536 0.14948530818772476
v 0.053239683680378819 0.040887185329896047 0.14950616922858978
v 0.047423912524051287 0.03507654230533247 0.14959795824133226
v 0.050336144783760861 0.037979017260725445 0.14959378689903208
v 0.035809755855238434 0.03507654230533247 0.1495395464610374
v 0.041616834189644861 0.03507654230533247 0.14959795824133226
v 0.032906215876279454 0.037979017260725445 0.14959795824133226
v 0.00094989804027562075 0.052502778265245575 0.14958961339204985
v 0.0067569779981935807 0.049600301145170556 0.14958544204974966
v 0.018379826947757028 0.043789660285289023 0.14957292585816706
v 0.024195600268766604 0.040887185329896047 0.14956458100888465
v 0.030002678062002519 0.037979017260725445 0.14955206481730204
v 0.0038534380192346007 0.049600301145170556 0.14947279199614216
v 0.0096692091755621323 0.046697824025095536 0.14944775961297696
v 0.015476289133480092 0.043789660285289023 0.14941855372282953
v 0.021283366926716007 0.040887185329896047 0.1493893478326821
v 0.027099138083043539 0.037979017260725445 0.14935179709325225
v 0.070669611505519203 0.078647823154210816 0.14954371996801963
v 0.064862533712283288 0.067026539269765706 0.14956875235118483
v 0.061950300370232692 0.061215896245202128 0.14957709720046725
v 0.059046762555955756 0.055405253220638551 0.14958127070744948
v 0.012720534162396546 0.038070076775618855 0.10697448559041889
v -0.0017536945875761822 0.049571846399692643 0.14864669088145982
v 0.0096692091755621323 0.044239256087250267 0.14869258647017208
v 0.00094989804027562075 0.047739304509181901 0.14839635622639757
v 0.0052791279194392415 0.045229515864794345 0.14810012814730511
v 0.011207912795957786 0.04239533229854836 0.14799582294298003
v 0.022335246543345233 0.036334278855050972 0.14577202559629543
v -0.0032576247556053706 0.048217357221303103 0.14372763493279561
v -0.0048137107728201678 0.046697824025095536 0.10697448559041889
v -0.0027099515395617169 0.048513295233001574 0.14663150610810743
v -0.0012581815500822269 0.047796214000137727 0.14663150610810743
v 0.00094989804027562075 0.064124062149690686 0.14943941476369454
v 0.00094989804027562075 0.055405253220638551 0.14959795824133226
v 0.00094989804027562075 0.058313419125127108 0.14959795824133226
v 0.00094989804027562075 0.061215896245202128 0.14957709720046725
v 0.0096692091755621323 0.080634027164348421 0.14953537511873721
v 0.0067569779981935807 0.075745348198817841 0.14948948169470699
v 0.0067569779981935807 0.078647823154210816 0.14918490876633211
v 0.0067222045458271151 0.080634027164348421 0.14881775271536218
v 0.070669611505519203 0.080634027164348421 0.14958127070744948
v 0.050336144783760861 0.040887185329896047 0.14959795824133226
v 0.067766073691242268 0.075745348198817841 0.14959795824133226
v 0.064862533712283288 0.069934705174254264 0.14959795824133226
v 0.0038534380192346007 0.052502778265245575 0.14959795824133226
v 0.0068439094644276999 0.040921331024469543 0.10697448559041889
v 0.010477681119672233 0.042036791682116437 0.14605573748380529
v 0.016406463831508733 0.039185537433265749 0.14591805504703259
v 0.0010107515819169355 0.043801042183480188 0.10697448559041889
v 0.0067743647243768135 0.040955476719043038 0.10697448559041889
v 0.0067569779981935807 0.069934705174254264 0.14959795824133226
v 0.0096692091755621323 0.078647823154210816 0.14959378689903208
v 0.0067569779981935807 0.072837180129647239 0.14958961339204985
v 0.011651267819584088 0.080634027164348421 0.14959378689903208
v 0.008747727840625108 0.080634027164348421 0.14940603536656488
v 0.069748130170582179 0.080634027164348421 0.14959795824133226
v 0.0096692091755621323 0.075745348198817841 0.14959795824133226
v 0.012572749154521112 0.080634027164348421 0.14959795824133226
f 1 2 3
f 1 3 8
f 1 8 19
f 1 19 33
f 1 33 50
f 1 50 49
f 1 49 71
f 1 71 99
f 1 99 155
f 1 155 179
f 1 179 183
f 1 183 182
f 1 182 163
f 1 163 114
f 1 114 113
f 1 113 112
f 1 112 76
f 1 76 75
f 1 75 55
f 1 55 54
f 1 54 34
f 1 34 20
f 1 20 9
f 1 9 4
f 1 4 11
f 1 11 21
f 1 21 37
f 1 37 59
f 1 59 82
f 1 82 120
f 1 120 119
f 1 119 127
f 1 127 173
f 1 173 188
f 1 188 170
f 1 170 187
f 1 187 191
f 1 191 189
f 1 189 174
f 1 174 128
f 1 128 87
f 1 87 63
f 1 63 43
f 1 43 23
f 1 23 12
f 1 12 5
f 1 5 2
f 2 5 6
f 2 6 3
f 3 6 7
f 3 7 8
f 4 9 10
f 4 10 11
f 5 12 6
f 6 12 13
f 6 13 14
f 6 14 15
f 6 15 7
f 7 16 8
f 7 15 17
f 7 17 14
f 7 14 16
f 8 16 18
f 8 18 19
f 9 20 10
f 10 21 11
f 10 20 22
f 10 22 21
f 12 23 24
f 12 24 13
f 13 24 14
f 14 17 15
f 14 24 25
f 14 25 26
f 14 26 27
f 14 27 28
f 14 28 29
f 14 29 16
f 16 29 28
f 16 28 30
f 16 30 31
f 16 31 32
f 16 32 18
f 18 32 33
f 18 33 19
f 20 34 35
f 20 35 22
f 21 36 37
f 21 22 36
f 22 35 38
f 22 38 39
f 22 39 40
f 22 40 41
f 22 41 42
f 22 42 36
f 23 43 26
f 23 26 24
f 24 26 25
f 26 43 44
f 26 44 45
f 26 45 46
f 26 46 27
f 27 46 28
f 28 46 45
f 28 45 47
f 28 47 30
f 30 47 31
f 31 48 49
f 31 49 50
f 31 50 33
f 31 33 51
f 31 51 32
f 31 47 52
f 31 52 53
f 31 53 48
f 32 51 33
f 34 54 35
f 35 54 55
f 35 55 56
f 35 56 57
f 35 57 38
f 36 58 59
f 36 59 37
f 36 42 58
f 38 57 60
f 38 60 39
f 39 60 40
f 40 60 41
f 41 61 59
f 41 59 58
f 41 58 42
f 41 60 62
f 41 62 61
f 43 63 64
f 43 64 44
f 44 64 65
f 44 65 45
f 45 66 67
f 45 67 68
f 45 68 47
f 45 65 66
f 47 68 69
f 47 69 52
f 48 53 70
f 48 70 49
f 49 70 71
f 52 69 72
f 52 72 73
f 52 73 53
f 53 73 74
f 53 74 70
f 55 75 56
f 56 75 76
f 56 76 77
f 56 77 78
f 56 78 57
f 57 78 79
f 57 79 80
f 57 80 60
f 59 81 82
f 59 61 81
f 60 80 83
f 60 83 84
f 60 84 85
f 60 85 62
f 61 62 81
f 62 85 86
f 62 86 81
f 63 87 88
f 63 88 64
f 64 88 89
f 64 89 67
f 64 67 65
f 65 67 66
f 67 89 90
f 67 90 91
f 67 91 68
f 68 92 93
f 68 93 69
f 68 91 92
f 69 94 95
f 69 95 96
f 69 96 72
f 69 93 97
f 69 97 94
f 70 74 98
f 70 98 99
f 70 99 71
f 72 100 73
f 72 96 101
f 72 101 102
f 72 102 103
f 72 103 104
f 72 104 100
f 73 105 74
f 73 100 106
f 73 106 104
f 73 104 107
f 73 107 108
f 73 108 105
f 74 105 109
f 74 109 110
f 74 110 111
f 74 111 98
f 76 112 77
f 77 112 113
f 77 113 114
f 77 114 115
f 77 115 78
f 78 115 116
f 78 116 79
f 79 117 83
f 79 83 80
f 79 116 118
f 79 118 117
f 81 86 119
f 81 119 120
f 81 120 82
f 83 117 121
f 83 121 122
f 83 122 84
f 84 122 123
f 84 123 124
f 84 124 85
f 85 125 86
f 85 124 125
f 86 126 127
f 86 127 119
f 86 125 126
f 87 128 129
f 87 129 130
f 87 130 131
f 87 131 90
f 87 90 89
f 87 89 88
f 90 131 91
f 91 131 130
f 91 130 92
f 92 130 129
f 92 129 93
f 93 129 132
f 93 132 133
f 93 133 134
f 93 134 135
f 93 135 97
f 94 136 139
f 94 139 95
f 94 97 137
f 94 137 175
f 94 175 136
f 95 138 96
f 95 139 140
f 95 140 141
f 95 141 142
f 95 142 143
f 95 143 144
f 95 144 145
f 95 145 138
f 96 138 121
f 96 121 146
f 96 146 147
f 96 147 148
f 96 148 149
f 96 149 150
f 96 150 101
f 97 135 151
f 97 151 152
f 97 152 153
f 97 153 154
f 97 154 137
f 98 111 99
f 99 111 155
f 100 104 106
f 101 150 102
f 102 150 149
f 102 149 148
f 102 148 147
f 102 147 146
f 102 146 121
f 102 121 117
f 102 117 156
f 102 156 157
f 102 157 103
f 103 157 104
f 104 157 158
f 104 158 107
f 105 108 118
f 105 118 159
f 105 159 160
f 105 160 109
f 107 158 118
f 107 118 108
f 109 160 110
f 110 160 161
f 110 161 111
f 111 161 162
f 111 162 155
f 114 163 115
f 115 163 162
f 115 162 164
f 115 164 116
f 116 164 118
f 117 118 158
f 117 158 156
f 118 165 159
f 118 164 165
f 121 138 145
f 121 145 144
f 121 144 143
f 121 143 142
f 121 142 141
f 121 141 122
f 122 166 123
f 122 141 167
f 122 167 168
f 122 168 169
f 122 169 170
f 122 170 171
f 122 171 166
f 123 166 172
f 123 172 124
f 124 126 125
f 124 172 126
f 126 172 173
f 126 173 127
f 128 174 151
f 128 151 129
f 129 151 132
f 132 151 133
f 133 151 134
f 134 151 135
f 136 175 177
f 136 177 176
f 136 176 189
f 136 189 191
f 136 191 190
f 136 190 184
f 136 184 168
f 136 168 167
f 136 167 178
f 136 178 140
f 136 140 139
f 137 154 176
f 137 176 177
f 137 177 175
f 140 178 141
f 141 178 167
f 151 174 152
f 152 174 153
f 153 174 176
f 153 176 154
f 155 162 179
f 156 158 157
f 159 165 180
f 159 180 181
f 159 181 161
f 159 161 160
f 161 181 162
f 162 181 180
f 162 180 165
f 162 165 164
f 162 163 182
f 162 182 183
f 162 183 179
f 166 171 172
f 168 184 185
f 168 185 186
f 168 186 169
f 169 186 170
f 170 185 187
f 170 188 171
f 170 186 185
f 171 188 172
f 172 188 173
f 174 189 176
f 184 190 185
f 185 190 191
f 185 191 187
