v 0.0067608917433304438 0.080639719195785026 0.078402037691006288
v 0.0038556892885611149 0.080639719195785026 0.078409077237015734
v 0.0067608917433304438 0.084464734015634896 0.078402037691006288
v 0.073570506243019529 0.080639719195785026 0.078402037691006288
v 0.00087034597513196976 0.080639719195785026 0.079492989818542803
v 0.0038556892885611149 0.081559321586707229 0.078409077237015734
v 0.024192099977900283 0.12223065907584391 0.078402037691006288
v 0.076475708697788858 0.084464734015634896 0.078402037691006288
v 0.076475708697788858 0.081559321586707229 0.078409077237015734
v 0.076475708697788858 0.080639719195785026 0.078500574017682179
v -0.00042196920556897277 0.080639719195785026 0.080583941946079318
v 0.00083027338112001692 0.081488242087086632 0.079809717436598815
v 0.0017218669510655205 0.084464734015634896 0.080077176891316881
v 0.0038556892885611149 0.084464734015634896 0.078648382837060105
v 0.0067608917433304438 0.090275559955831253 0.07857799603569382
v 0.0096660941980997728 0.09608638589602761 0.078521688326346428
v 0.012571292323505012 0.10189721183622397 0.078479459709017929
v 0.015476494778274341 0.10770359476652352 0.078444266308334787
v 0.021286897523130954 0.11932524664691624 0.078416112453661091
v 0.024192099977900283 0.12513607366945362 0.078416112453661091
v 0.027097300267987567 0.12602457607343925 0.078402037691006288
v 0.07939092713637913 0.090275559955831253 0.078402037691006288
v 0.096822137535631014 0.12513607366945362 0.078409077237015734
v 0.082296129591148459 0.093180973467099942 0.078416112453661091
v 0.085201332045917788 0.098991799407296299 0.078430191545679984
v 0.07939092713637913 0.084464734015634896 0.078789147781064495
v 0.079180550347180467 0.080639719195785026 0.079943447163957848
v -0.00075255944743940484 0.080639719195785026 0.082561729672427031
v 0.0021726749749718111 0.086401676356480689 0.080626170563407817
v 0.0045469285471750331 0.090275559955831253 0.080006790089950597
v 0.0050277866872261989 0.092328007565901538 0.080534669453377283
v 0.0078728802509775986 0.098254339857663409 0.080457247435365642
v 0.019343417842510091 0.12223065907584391 0.080316482491361252
v 0.0073619676654174682 0.09608638589602761 0.079950486709967294
v 0.021286897523130954 0.12223065907584391 0.078880648891095029
v 0.024192099977900283 0.12602457607343925 0.078521688326346428
v 0.093916935080861685 0.12602457607343925 0.078402037691006288
v 0.093916935080861685 0.12223065907584391 0.078402037691006288
v 0.096822137535631014 0.12602457607343925 0.078409077237015734
v 0.099827517146066136 0.12602457607343925 0.079422603017176518
v 0.096822137535631014 0.12223065907584391 0.078585035581703266
v 0.093916935080861685 0.11641983421798857 0.078528727872355875
v 0.091011732626092356 0.11060900936013324 0.078479459709017929
v 0.088106530171323028 0.10479818233759586 0.078451305854344233
v 0.082296129591148459 0.090275559955831253 0.078901763199759278
v 0.099026082583283437 0.12223065907584391 0.080013829635960043
v 0.096201025316538014 0.11641983421798857 0.079957521926612651
v 0.081394513543335878 0.084464734015634896 0.080217941835321271
v 0.08098377811344154 0.082705492588522639 0.080809168454104796
v 0.080152289105149876 0.080639719195785026 0.082716573708450314
v -0.00077259574444538126 0.080639719195785026 0.082716573708450314
v 0.016889023411647053 0.11796583281687495 0.081111821309506005
v 0.019734116975398452 0.12389216510863682 0.080935858635454383
v 0.02153734690634157 0.12602457607343925 0.08002086918196949
v 0.010187024932162891 0.10189721183622397 0.079908253763274706
v 0.10123002763093586 0.12602457607343925 0.080548748545396176
v 0.098545220113868182 0.12020042543291659 0.08054170899938673
v 0.092845014837862394 0.10834331892183707 0.080407979272027696
v 0.083838889825695928 0.08863182488028451 0.080956977273482722
v 0.080372684042851528 0.081101740272682993 0.082716573708450314
v 0.080152289105149876 0.080639719195785026 0.10596439732534513
v 0.086683983389447328 0.09455815663087587 0.081139975164179701
v -0.00077259574444538126 0.080639719195785026 0.10594328301668088
v 0.0027436964515498707 0.088094279129187103 0.082716573708450314
v 0.019684028397565556 0.12399878435806772 0.082716573708450314
v 0.020645749007031977 0.12602457607343925 0.082716573708450314
v 0.10144040442013452 0.12602457607343925 0.081569313871566407
v 0.080372684042851528 0.081101740272682993 0.10596439732534513
v 0.08319774563896104 0.08708582519905711 0.082716573708450314
v 0.086683983389447328 0.09455815663087587 0.10752692218930196
v 0.092804942243850441 0.11424743724645597 0.15030629848809951
v 0.077978398503006419 0.082914291324510697 0.14533718859651512
v 0.076956569002522068 0.080639719195785026 0.14372539665156137
v 0.10150051331115245 0.12589574285686539 0.082716573708450314
v 0.10081929220104152 0.12444303772474258 0.082716573708450314
v 0.098685469863545927 0.11990721924995856 0.082716573708450314
v 0.092354134219944151 0.10648634210040547 0.082716573708450314
v -0.00061230969776165933 0.080639719195785026 0.10761842221699147
v -0.00076257759594239305 0.080657489070690175 0.10596439732534513
v 0.016889023411647053 0.11796583281687495 0.10755507604397566
v 0.0027436964515498707 0.088094279129187103 0.10596439732534513
v 0.019684028397565556 0.12399878435806772 0.10596439732534513
v 0.020645749007031977 0.12602457607343925 0.10596439732534513
v 0.10156061787280629 0.12602457607343925 0.082716573708450314
v 0.08319774563896104 0.08708582519905711 0.10596439732534513
v 0.092354134219944151 0.10648634210040547 0.10596439732534513
v 0.098685469863545927 0.11990721924995856 0.10596439732534513
v 0.10157063602130928 0.12602457607343925 0.10596439732534513
v 0.098364897770178483 0.12602457607343925 0.15030629848809951
v 0.097453267903227003 0.12408763589727551 0.15030629848809951
v 0.092273993361284334 0.11318123176405476 0.15030629848809951
v 0.076475708697788858 0.080639719195785026 0.14647740888738958
v 0.10157063602130928 0.12602457607343925 0.088354332236829869
v 0.0042163339759405116 0.080639719195785026 0.14372539665156137
v 0.0081634022282001673 0.088920589135686762 0.14533014905050567
v 0.025624664908278971 0.12602457607343925 0.14372539665156137
v 0.019734116975398452 0.12389216510863682 0.10770288161633051
v 0.050168607593397821 0.12602457607343925 0.15030629848809951
v 0.092033562126576707 0.11279473211433316 0.15030629848809951
v 0.075443861048801519 0.080639719195785026 0.14839889323375399
v 0.076054955119391532 0.080639719195785026 0.14742055219554817
v 0.0046671419998468022 0.080639719195785026 0.14620290988666207
v 0.0048975550860514416 0.080981793075902725 0.14663225292341286
v 0.011018513940454555 0.094846920886278122 0.1455061117245573
v 0.016718719216460343 0.10669514083639353 0.14582283934261331
v 0.02241892449246613 0.11855224734747305 0.14609733401397673
v 0.025704807931620832 0.12602457607343925 0.14416881445096696
v 0.048906347399376354 0.12602457607343925 0.15026406554140692
v 0.012571292323505012 0.084464734015634896 0.14959541690461176
v 0.011649644308050544 0.080639719195785026 0.14959541690461176
v 0.046722437566388886 0.10189721183622397 0.15030629848809951
v 0.090530870156677101 0.11069341680710321 0.15030629848809951
v 0.073610578837031482 0.080639719195785026 0.14911680570452301
v 0.075023107470404193 0.080639719195785026 0.14860300543311522
v 0.0047472871878707079 0.080639719195785026 0.14663225292341286
v 0.0050578411327351636 0.080639719195785026 0.14742759174155762
v 0.022769553196024583 0.11782811574518953 0.14803993266900539
v 0.025344161079559391 0.12433197654775591 0.14663225292341286
v 0.026175650087851055 0.12602457607343925 0.14663225292341286
v 0.030894098457384445 0.12602457607343925 0.14951799488660011
v 0.030002502722756896 0.12223065907584391 0.1495883816879664
v 0.021286897523130954 0.10479818233759586 0.14956726304993806
v 0.01838169723304367 0.098991799407296299 0.14955318828728326
v 0.0096660941980997728 0.081559321586707229 0.14951095966995476
v 0.0096660941980997728 0.080639719195785026 0.14953207397861901
v 0.047453746983747457 0.097952247654911784 0.15030629848809951
v 0.046822616886736723 0.098245453837869812 0.15030629848809951
v 0.046752491470727339 0.09888517799318336 0.15030629848809951
v 0.046702401810553421 0.10154181000875689 0.15030629848809951
v 0.069753671756616675 0.080639719195785026 0.14959541690461176
v 0.088447142891060537 0.10913409026086746 0.15030629848809951
v 0.0706653037882502 0.080639719195785026 0.14958134214195695
v 0.072658874211386004 0.080639719195785026 0.14936315085057683
v 0.0052682179219338265 0.080639719195785026 0.1479413963423295
v 0.025614646759775983 0.1237544480369514 0.14811735468701703
v 0.0080732388916732734 0.086241745317652302 0.14821589101369292
v 0.026275829408198892 0.12602457607343925 0.14681525081410984
v 0.030002502722756896 0.12602457607343925 0.14938426515924108
v 0.030002502722756896 0.12513607366945362 0.14948280581528106
v 0.0096660941980997728 0.084464734015634896 0.14923646066922724
v 0.0087444418532812151 0.080639719195785026 0.14940538379726942
v 0.021286897523130954 0.10770359476652352 0.14939834425125997
v 0.01838169723304367 0.10189721183622397 0.14936315085057683
v 0.049597585034478739 0.098161046390899842 0.15030629848809951
v 0.087204918452874536 0.10862764124968355 0.15030629848809951
v 0.08564212192132109 0.10815229006075416 0.15030629848809951
v 0.050318876573919577 0.098236569982758259 0.15030629848809951
v 0.0056589170548221879 0.080639719195785026 0.14832146688637826
v 0.025284054353223506 0.12223065907584391 0.14836369983307085
v 0.027457947120049009 0.12602457607343925 0.14854669772376783
v 0.010928350603927661 0.092163634599517374 0.14825812396038551
v 0.0076725216102819238 0.084464734015634896 0.14848335046841099
v 0.028139166065477894 0.12602457607343925 0.1488141571784859
v 0.027097300267987567 0.12223065907584391 0.14910977048787766
v 0.006720819149318491 0.080639719195785026 0.1488141571784859
v 0.018972755006627706 0.10770359476652352 0.14864523405044372
v 0.0061998884152553724 0.080639719195785026 0.14861004497912467
v 0.016157713723703226 0.10189721183622397 0.14861004497912467
v 0.024602835407794621 0.11932524664691624 0.14870154175979111
v 0.0067108010008155028 0.081399390547878842 0.14867338790511742
f 1 2 6
f 1 6 3
f 1 3 7
f 1 7 21
f 1 21 37
f 1 37 38
f 1 38 22
f 1 22 8
f 1 8 4
f 1 4 10
f 1 10 27
f 1 27 50
f 1 50 61
f 1 61 73
f 1 73 92
f 1 92 101
f 1 101 100
f 1 100 114
f 1 114 113
f 1 113 133
f 1 133 132
f 1 132 130
f 1 130 110
f 1 110 125
f 1 125 141
f 1 141 155
f 1 155 157
f 1 157 148
f 1 148 134
f 1 134 116
f 1 116 115
f 1 115 102
f 1 102 94
f 1 94 78
f 1 78 63
f 1 63 51
f 1 51 28
f 1 28 11
f 1 11 5
f 1 5 2
f 2 5 6
f 3 6 7
f 4 8 9
f 4 9 10
f 5 11 12
f 5 12 13
f 5 13 14
f 5 14 6
f 6 14 15
f 6 15 16
f 6 16 17
f 6 17 18
f 6 18 19
f 6 19 7
f 7 19 20
f 7 20 21
f 8 22 9
f 9 22 23
f 9 23 24
f 9 24 10
f 10 24 25
f 10 25 26
f 10 26 27
f 11 28 29
f 11 29 13
f 11 13 12
f 13 30 14
f 13 29 31
f 13 31 32
f 13 32 33
f 13 33 30
f 14 30 34
f 14 34 35
f 14 35 15
f 15 35 16
f 16 35 17
f 17 35 18
f 18 35 36
f 18 36 19
f 19 36 20
f 20 36 21
f 21 36 54
f 21 54 66
f 21 66 83
f 21 83 96
f 21 96 107
f 21 107 119
f 21 119 137
f 21 137 150
f 21 150 153
f 21 153 138
f 21 138 120
f 21 120 108
f 21 108 98
f 21 98 89
f 21 89 88
f 21 88 93
f 21 93 84
f 21 84 67
f 21 67 56
f 21 56 40
f 21 40 39
f 21 39 37
f 22 38 23
f 23 38 37
f 23 37 39
f 23 39 40
f 23 40 41
f 23 41 42
f 23 42 43
f 23 43 44
f 23 44 25
f 23 25 24
f 25 44 26
f 26 45 46
f 26 46 47
f 26 47 48
f 26 48 27
f 26 44 43
f 26 43 42
f 26 42 41
f 26 41 45
f 27 48 49
f 27 49 50
f 28 51 29
f 29 32 31
f 29 51 52
f 29 52 53
f 29 53 32
f 30 33 34
f 32 53 33
f 33 53 54
f 33 54 34
f 34 55 35
f 34 54 55
f 35 54 36
f 35 55 54
f 40 56 46
f 40 46 41
f 41 46 45
f 46 56 57
f 46 57 58
f 46 58 48
f 46 48 47
f 48 58 49
f 49 58 57
f 49 57 59
f 49 59 50
f 50 60 68
f 50 68 61
f 50 59 62
f 50 62 60
f 51 63 81
f 51 81 64
f 51 64 52
f 52 64 65
f 52 65 66
f 52 66 53
f 53 66 54
f 56 67 57
f 57 67 62
f 57 62 59
f 60 62 69
f 60 69 85
f 60 85 68
f 61 68 70
f 61 70 71
f 61 71 72
f 61 72 73
f 62 67 74
f 62 74 75
f 62 75 76
f 62 76 77
f 62 77 69
f 63 78 79
f 63 79 80
f 63 80 81
f 64 81 82
f 64 82 65
f 65 82 83
f 65 83 66
f 67 84 74
f 68 85 70
f 69 77 86
f 69 86 85
f 70 85 86
f 70 86 87
f 70 87 88
f 70 88 89
f 70 89 90
f 70 90 71
f 71 90 89
f 71 89 98
f 71 98 111
f 71 111 129
f 71 129 128
f 71 128 127
f 71 127 126
f 71 126 144
f 71 144 147
f 71 147 146
f 71 146 145
f 71 145 131
f 71 131 112
f 71 112 99
f 71 99 91
f 71 91 72
f 72 92 73
f 72 91 92
f 74 84 93
f 74 93 75
f 75 93 76
f 76 93 88
f 76 88 87
f 76 87 86
f 76 86 77
f 78 94 95
f 78 95 80
f 78 80 79
f 80 95 96
f 80 96 97
f 80 97 83
f 80 83 82
f 80 82 81
f 83 97 96
f 91 99 100
f 91 100 101
f 91 101 92
f 94 102 95
f 95 102 103
f 95 103 104
f 95 104 105
f 95 105 96
f 96 106 107
f 96 105 106
f 98 108 109
f 98 109 110
f 98 110 111
f 99 112 113
f 99 113 114
f 99 114 100
f 102 115 103
f 103 115 116
f 103 116 117
f 103 117 104
f 104 117 105
f 105 117 106
f 106 117 118
f 106 118 107
f 107 118 119
f 108 120 121
f 108 121 122
f 108 122 109
f 109 123 124
f 109 124 125
f 109 125 110
f 109 122 123
f 110 126 127
f 110 127 128
f 110 128 129
f 110 129 111
f 110 130 126
f 112 131 132
f 112 132 133
f 112 133 113
f 116 134 117
f 117 135 118
f 117 134 136
f 117 136 135
f 118 135 119
f 119 135 137
f 120 138 139
f 120 139 122
f 120 122 121
f 122 139 123
f 123 139 124
f 124 140 141
f 124 141 125
f 124 139 142
f 124 142 143
f 124 143 140
f 126 130 144
f 130 132 131
f 130 131 145
f 130 145 146
f 130 146 147
f 130 147 144
f 134 148 136
f 135 149 150
f 135 150 137
f 135 136 151
f 135 151 149
f 136 148 152
f 136 152 151
f 138 153 154
f 138 154 142
f 138 142 139
f 140 155 141
f 140 143 154
f 140 154 156
f 140 156 155
f 142 154 143
f 148 157 152
f 149 156 150
f 149 151 152
f 149 152 158
f 149 158 156
f 150 156 159
f 150 159 153
f 152 157 160
f 152 160 158
f 153 159 154
f 154 159 156
f 155 160 157
f 155 156 158
f 155 158 160
