v 0.098372262018494638 0.12602458040280334 0.16116242571614947
v 0.098369530189754195 0.12602458040280334 0.16987988171892365
v 0.097771333294786655 0.12475338386013074 0.16987988171892365
v 0.096583130661708816 0.12223374807712173 0.16987988171892365
v 0.098372262018494638 0.12602458040280334 0.15030629632341747
v 0.09833128891675208 0.12602458040280334 0.17278268570598743
v 0.093840707967338732 0.11642405751265783 0.16987988171892365
v 0.096583130661708816 0.12223374807712173 0.15244496754869324
v 0.095613448351681896 0.12026216649419624 0.17278268570598743
v 0.093840707967338732 0.11642405751265783 0.15244496754869324
v 0.097457211953912493 0.12408801688131538 0.15030629632341747
v 0.070467285168844873 0.12602458040280334 0.15030629632341747
v 0.098227492412707507 0.12602458040280334 0.1740351404315168
v 0.092810934083750241 0.11435617139024457 0.16987988171892365
v 0.092808202255009797 0.11425111504124996 0.15030629632341747
v 0.094927845925112442 0.11881061946696736 0.17278268570598743
v 0.093783348222517604 0.11642405751265783 0.17278268570598743
v 0.070467285168844873 0.12602458040280334 0.17895453623526203
v 0.070467285168844873 0.11590052050141286 0.15030629632341747
v 0.095517847333858652 0.12046352521799658 0.17450085445598307
v 0.093357234891377538 0.12602458040280334 0.19442711634426202
v 0.092480421770433419 0.12365027487823105 0.19459893148751595
v 0.091633658765634174 0.11290462436301568 0.16987988171892365
v 0.090535597822262781 0.11069841289326243 0.15030629632341747
v 0.092040653624955227 0.11279956801402108 0.15030629632341747
v 0.092275560591084715 0.11318302845015188 0.15030629632341747
v 0.092772692810748125 0.11447173510588426 0.17278268570598743
v 0.092647041676780006 0.1147151189669009 0.17453250643684104
v 0.070467285168844873 0.12601932888416284 0.18122433091071499
v 0.070486405805345931 0.12602458040280334 0.18123789480840724
v 0.071674606273741726 0.11439119161636413 0.15030629632341747
v 0.070467285168844873 0.11350695580068865 0.16406974955932263
v 0.0930376455636584 0.12602458040280334 0.19514151337139041
v 0.092830052555569254 0.12513859335935368 0.19500134587963036
v 0.090082166203718284 0.12019913095305385 0.19513699351528102
v 0.09018050337964606 0.11174373785266023 0.16987988171892365
v 0.090967170481519644 0.11286260139048143 0.17297258893240708
v 0.089967442384711938 0.11185404788497738 0.17212706845510151
v 0.088448731767681366 0.10913480460594221 0.15030629632341747
v 0.070871548199425483 0.12602458040280334 0.19311588184249018
v 0.070467285168844873 0.11876684526665893 0.17666213362053396
v 0.073362672955223418 0.11339489454059731 0.15030629632341747
v 0.070467285168844873 0.11359800665685388 0.1669725535463864
v 0.081639109626297557 0.10951651381429883 0.15030629632341747
v 0.083608520033132183 0.10869706260285789 0.15030629632341747
v 0.091772964713940419 0.12602458040280334 0.19581069451996858
v 0.091035461870666634 0.12250339602538701 0.19531332851464434
v 0.088104564640026417 0.12223374807712173 0.19643918830483409
v 0.088104564640026417 0.11981391928914886 0.19547610394567949
v 0.088104564640026417 0.11884213507285651 0.19311588184249018
v 0.088104564640026417 0.11232330549395086 0.17346543075225784
v 0.088104564640026417 0.11188206320000021 0.17201402875872596
v 0.08548505692151992 0.10813675630240122 0.15030629632341747
v 0.085646217499749711 0.108154266415461 0.15030629632341747
v 0.087214096704744171 0.10862877554307498 0.15030629632341747
v 0.070926176115506168 0.12602458040280334 0.19324700529266736
v 0.070467285168844873 0.11736782641392735 0.17549106661052216
v 0.070467285168844873 0.1157289261557275 0.17271938607363557
v 0.070467285168844873 0.11425111504124996 0.16974875826874647
v 0.091010875412002645 0.12602458040280334 0.19610459340118092
v 0.091010875412002645 0.12513859335935368 0.19596443023878496
v 0.08899230074656822 0.12602458040280334 0.19647535581243736
v 0.088104564640026417 0.12513859335935368 0.19649344389560308
v 0.082297398094826668 0.12513859335935368 0.19649344389560308
v 0.085200981367426543 0.12223374807712173 0.19630806052529282
v 0.085200981367426543 0.12003979303710571 0.1953449848248664
v 0.085200981367426543 0.11929563596122644 0.19311588184249018
v 0.072095255947400905 0.12602458040280334 0.19518220939383124
v 0.083163283900809015 0.12050204789966451 0.19496065418655362
v 0.077235934208486123 0.12335261377962498 0.19501038992121322
v 0.088104564640026417 0.12602458040280334 0.19649344389560308
v 0.079393819151590883 0.12602458040280334 0.19638944824081039
v 0.079393819151590883 0.12513859335935368 0.19634423669162426
v 0.082297398094826668 0.12602458040280334 0.19649344389560308
v 0.073581193278274337 0.12602458040280334 0.19555749166119707
v 0.073581193278274337 0.12568314077452475 0.19541732849880111
v 0.079393819151590883 0.12285709208340284 0.19538115233246967
f 1 2 3
f 1 3 4
f 1 4 8
f 1 8 5
f 1 5 12
f 1 12 18
f 1 18 30
f 1 30 40
f 1 40 56
f 1 56 68
f 1 68 75
f 1 75 72
f 1 72 74
f 1 74 71
f 1 71 62
f 1 62 60
f 1 60 46
f 1 46 33
f 1 33 21
f 1 21 13
f 1 13 6
f 1 6 2
f 2 6 3
f 3 6 4
f 4 7 10
f 4 10 8
f 4 6 9
f 4 9 7
f 5 8 10
f 5 10 11
f 5 11 15
f 5 15 26
f 5 26 25
f 5 25 24
f 5 24 39
f 5 39 55
f 5 55 54
f 5 54 53
f 5 53 45
f 5 45 44
f 5 44 42
f 5 42 31
f 5 31 19
f 5 19 12
f 6 13 9
f 7 14 15
f 7 15 10
f 7 9 16
f 7 16 17
f 7 17 14
f 9 13 16
f 10 15 11
f 12 19 32
f 12 32 43
f 12 43 59
f 12 59 58
f 12 58 57
f 12 57 41
f 12 41 29
f 12 29 18
f 13 20 16
f 13 21 22
f 13 22 20
f 14 23 24
f 14 24 25
f 14 25 26
f 14 26 15
f 14 17 27
f 14 27 23
f 16 20 17
f 17 20 28
f 17 28 27
f 18 29 30
f 19 31 32
f 20 22 28
f 21 33 34
f 21 34 22
f 22 34 35
f 22 35 28
f 23 36 24
f 23 27 37
f 23 37 38
f 23 38 36
f 24 36 39
f 27 28 37
f 28 35 37
f 29 40 30
f 29 41 40
f 31 42 32
f 32 42 44
f 32 44 45
f 32 45 43
f 33 46 47
f 33 47 34
f 34 47 35
f 35 47 48
f 35 48 49
f 35 49 50
f 35 50 38
f 35 38 37
f 36 38 39
f 38 50 51
f 38 51 52
f 38 52 53
f 38 53 54
f 38 54 55
f 38 55 39
f 40 41 57
f 40 57 58
f 40 58 56
f 43 45 53
f 43 53 52
f 43 52 59
f 46 60 61
f 46 61 47
f 47 61 48
f 48 62 63
f 48 63 64
f 48 64 65
f 48 65 49
f 48 61 60
f 48 60 62
f 49 65 66
f 49 66 50
f 50 66 67
f 50 67 51
f 51 67 59
f 51 59 52
f 56 58 68
f 58 59 68
f 59 67 66
f 59 66 69
f 59 69 70
f 59 70 68
f 62 71 63
f 63 71 74
f 63 74 64
f 64 72 73
f 64 73 65
f 64 74 72
f 65 73 75
f 65 75 76
f 65 76 77
f 65 77 66
f 66 77 68
f 66 68 70
f 66 70 69
f 68 77 76
f 68 76 75
f 72 75 73
