v -0.034475114962924047 0.0031250343928320157 0.022675173147311489
v -0.033361186900164819 0.0031173367834809729 0.078334577539764472
v -0.034437224368413177 0.006010650804460671 0.022675173147311489
v -0.034444809414297894 0.00054720979177874662 0.022675173147311489
v -0.03331572857722559 0.0045486072339969152 0.078334577539764472
v -0.034437224368413177 0.00021632515315023193 0.022675173147311489
v -0.033255100162516926 0.00021632515315023193 0.078334577539764472
v -0.033262685208401643 0.0060029618538378071 0.078334577539764472
v -0.034300832082139132 0.008911662434791412 0.022675173147311489
v -0.034338722676650002 -0.0023461042292009515 0.022675173147311489
v -0.034300832082139132 -0.0026923754278033729 0.022675173147311489
v -0.032898949355062379 -0.0026923754278033729 0.078334577539764472
v -0.032906534400947096 0.008911662434791412 0.078334577539764472
v -0.032550383593492549 0.010796935979911659 0.078334577539764472
v -0.033717346366347545 0.011951187739800029 0.022675173147311489
v -0.033755228302130236 -0.0055395211101331721 0.022675173147311489
v -0.032550383593492549 -0.0045622624129497136 0.078334577539764472
v -0.032232114721820693 0.012251290599752551 0.078334577539764472
v -0.031860811140053069 0.013482488147602723 0.078334577539764472
v -0.03147434612524419 0.014729072255426801 0.078334577539764472
v -0.030678686934156818 0.020246379216109667 0.022675173147311489
v -0.033717346366347545 -0.0057165055141099042 0.022675173147311489
v -0.032224538334664155 -0.0060089194234395626 0.078334577539764472
v -0.030928751003963473 0.0161526450965917 0.078334577539764472
v -0.030352850334056602 0.017630083885757541 0.078334577539764472
v -0.030011852300915132 0.01846114428700435 0.078334577539764472
v -0.029655701493460584 0.019284507078900115 0.078334577539764472
v -0.028890352180363454 0.020738861698741007 0.078334577539764472
v -0.028125002867266324 0.022162434539905906 0.078334577539764472
v -0.024836283694633032 0.027864419184552458 0.078334577539764472
v -0.0234647195042747 0.030242170882939956 0.078334577539764472
v -0.024798393100122162 0.028849379820451049 0.022675173147311489
v -0.033687032158993213 -0.0058319350194628305 0.022675173147311489
v -0.031459193350931114 -0.0084943986884648548 0.078334577539764472
v -0.02139601080268444 0.033250914409272581 0.078334577539764472
v -0.019380336811189947 0.035451677374319257 0.078334577539764472
v -0.016735723110328726 0.038129536262023367 0.078334577539764472
v -0.021888558225777122 0.03175039145078179 0.022675173147311489
v -0.030792350058961249 -0.013734686958520148 0.022675173147311489
v -0.030330112513858809 -0.011410796878769502 0.078334577539764472
v -0.013015071941219147 0.037406203427414353 0.022675173147311489
v -0.010938782523108259 0.041030543562990018 0.078334577539764472
v -0.030678686934156818 -0.014019403258498764 0.022675173147311489
v -0.029640548719147508 -0.013011354123911134 0.078334577539764472
v -0.0076576397376315053 0.042161706824189349 0.078334577539764472
v -0.010688718453301604 0.038191091160647173 0.022675173147311489
v -0.030527133214841518 -0.014250244951748259 0.022675173147311489
v -0.027389967761523526 -0.01688193550080247 0.078334577539764472
v -0.028837304482175419 -0.014473406353103069 0.078334577539764472
v 0.00092031549545240621 0.04363914561335519 0.078334577539764472
v -0.001921323235755612 0.040899727497663185 0.022675173147311489
v -0.026404868585974073 -0.018336290120643362 0.078334577539764472
v -0.025018147291938575 -0.02233768756286153 0.022675173147311489
v 0.0154694941965417 0.041923163192224722 0.078334577539764472
v 0.0067551423478196537 0.041099800400328956 0.022675173147311489
v 0.0063914108238444789 0.041115186960302863 0.022675173147311489
v 0.0038528838606311511 0.041192137077628754 0.022675173147311489
v 0.0034967330531766039 0.041192137077628754 0.022675173147311489
v 0.00095062537344264841 0.041161359628316851 0.022675173147311489
v -0.024790816712965624 -0.022622395204111967 0.022675173147311489
v -0.025677405538023723 -0.019244296309851971 0.078334577539764472
v 0.021274011170918705 0.039152967627220814 0.078334577539764472
v 0.018227777516253485 0.037729394786055914 0.022675173147311489
v 0.017954979955613126 0.037837122352693708 0.022675173147311489
v 0.0096195124051793313 0.040545763019073811 0.022675173147311489
v 0.0093164028018666856 0.040615015527048659 0.022675173147311489
v -0.023760250555748763 -0.021591270558927567 0.078334577539764472
v -0.024965103923114629 -0.020121520720384589 0.078334577539764472
v -0.024533171926638342 -0.022884027334765633 0.022675173147311489
v 0.024009560999796786 0.037798651623394852 0.078334577539764472
v 0.023585209719841127 0.034913026553038018 0.022675173147311489
v -0.02085799206856026 -0.024492282189258308 0.078334577539764472
v -0.021888558225777122 -0.025523406834442708 0.022675173147311489
v 0.027237660416449594 0.03521313374235463 0.078334577539764472
v 0.023888317158471728 0.034751433038399282 0.022675173147311489
v -0.018417971126474197 -0.026331378737000477 0.078334577539764472
v -0.021600607890823686 -0.025731173017095432 0.022675173147311489
v -0.017425291234404117 -0.027054711571609491 0.078334577539764472
v 0.030200540824300626 0.032358294780037877 0.078334577539764472
v 0.029942898202655388 0.029203348628404513 0.022675173147311489
v 0.027184617047625648 0.031842728128081588 0.022675173147311489
v 0.026995174898481522 0.032012014922707277 0.022675173147311489
v 0.024130804841121845 0.0345513644650976 0.022675173147311489
v -0.013333336483526914 -0.031148445691127458 0.022675173147311489
v -0.016690256128661318 -0.027516412275564839 0.078334577539764472
v 0.033102799311489128 0.029449585540356094 0.078334577539764472
v 0.035921702387181398 0.026471623792699461 0.078334577539764472
v 0.032534470699374707 0.026417762174062609 0.022675173147311489
v -0.012893832429258179 -0.031363900824403046 0.022675173147311489
v -0.011908728924344636 -0.030201960113891813 0.078334577539764472
v -0.012749855097099416 -0.029763343579261414 0.078334577539764472
v -0.013575824166177031 -0.029324727044631016 0.078334577539764472
v -0.015977950184388134 -0.027962717760818101 0.078334577539764472
v 0.039702973312271461 0.020538793125439325 0.078334577539764472
v 0.035398840756734384 0.023047356559789567 0.022675173147311489
v 0.035209398607590259 0.023308988690443233 0.022675173147311489
v -0.010453811487172116 -0.030755997495146958 0.078334577539764472
v -0.0045735176531374599 -0.034080239100134191 0.022675173147311489
v -0.0077561500881228596 -0.031694785463031561 0.078334577539764472
v 0.041870194529035121 0.014729072255426801 0.078334577539764472
v 0.038429921637086528 0.017137605732490291 0.022675173147311489
v 0.038278365753089183 0.017483881260456802 0.022675173147311489
v 0.035550394476049685 0.022770337869161994 0.022675173147311489
v -0.0040809659006806887 -0.034195659946758938 0.022675173147311489
v -0.0048538916009343569 -0.032487370805615423 0.078334577539764472
v -0.0063239661417840431 -0.03208723365901206 0.078334577539764472
v 0.042817407439437793 0.011820371674473196 0.078334577539764472
v 0.039028557962509147 0.014759854034102793 0.022675173147311489
v -0.0015803252026141412 -0.034711217939987049 0.022675173147311489
v -0.0020274099734035045 -0.03299523984822067 0.078334577539764472
v 0.042938651280762852 0.008911662434791412 0.078334577539764472
v 0.040801742106671479 0.0031250343928320157 0.022675173147311489
v 0.040680498265346421 0.004286975103343249 0.022675173147311489
v 0.040430432030857721 0.006010650804460671 0.022675173147311489
v 0.039104334822166797 0.014382801056824379 0.022675173147311489
v 0.00095062537344264841 -0.034926681731990816 0.022675173147311489
v -0.00058006892338752225 -0.033210694981496258 0.078334577539764472
v 0.04287045080826174 0.0060029618538378071 0.078334577539764472
v 0.040407700704706062 0.00021632515315023193 0.022675173147311489
v 0.0013143525680537338 -0.034934379341341859 0.022675173147311489
v 0.0009582017605991866 -0.033310737926875278 0.078334577539764472
v 0.041953552105213399 0.0030250001061811749 0.078334577539764472
v 0.038285944304927766 -0.011026046292140046 0.022675173147311489
v 0.039013403023514026 -0.008532869417763711 0.022675173147311489
v 0.0038528838606311511 -0.034965161120017851 0.022675173147311489
v 0.0038604602477876893 -0.033364595216148041 0.078334577539764472
v 0.040976029316820484 0.00021632515315023193 0.078334577539764472
v 0.036671894596601362 -0.011287678422793712 0.078334577539764472
v 0.035110888257098904 -0.014442624574427076 0.078334577539764472
v 0.035398840756734384 -0.016820380602178664 0.022675173147311489
v 0.038945204715694959 -0.00558569810751125 0.078334577539764472
v 0.037528175708351263 -0.009302370591022624 0.078334577539764472
v 0.0067475659606631155 -0.034865118174638832 0.022675173147311489
v 0.0049137598958382545 -0.033318426877498142 0.078334577539764472
v 0.034368274599517523 -0.015796944907617128 0.078334577539764472
v 0.03269360297052859 -0.019983015704434892 0.022675173147311489
v 0.033474105057938797 -0.017097390634078058 0.078334577539764472
v 0.031928255822113505 -0.01929046464850187 0.078334577539764472
v 0.03073855739374276 -0.020744819268342762 0.078334577539764472
v 0.0067930307776484788 -0.033203006030873394 0.078334577539764472
v 0.0060655698943801739 -0.033249174369523293 0.078334577539764472
v 0.0094149131523580398 -0.034295694233409779 0.022675173147311489
v 0.0096498222831695735 -0.032772087105594039 0.078334577539764472
v 0.0085965226351190083 -0.032964458069544678 0.078334577539764472
v 0.007505334557239618 -0.033133753522898546 0.078334577539764472
v 0.02993532181549885 -0.022968666402714388 0.022675173147311489
v 0.030018675062313038 -0.021522018050952718 0.078334577539764472
v 0.018212622577258364 -0.031494716889729879 0.022675173147311489
v 0.0154694941965417 -0.031210000589751263 0.078334577539764472
v 0.012559659322196659 -0.032125704388310916 0.078334577539764472
v 0.027768098434053146 -0.023776646964000336 0.078334577539764472
v 0.026987596346642939 -0.025785038965096374 0.022675173147311489
v 0.029276061404731657 -0.022322292344159445 0.078334577539764472
v 0.02388074077131519 -0.028509066191450383 0.022675173147311489
v 0.021274011170918705 -0.028532150360775332 0.078334577539764472
v 0.018811261067363028 -0.029809511917911313 0.078334577539764472
v 0.017356341465508462 -0.030478978804519385 0.078334577539764472
v 0.016393973616110669 -0.030856031781797799 0.078334577539764472
v 0.026320759548719208 -0.025046319570513453 0.078334577539764472
v 0.023721608500161306 -0.027023929792933499 0.078334577539764472
v 0.022986571229736463 -0.027554883004863695 0.078334577539764472
v 0.024433912279752446 -0.026492976581003302 0.078334577539764472
f 1 2 3
f 1 3 9
f 1 9 15
f 1 15 21
f 1 21 32
f 1 32 38
f 1 38 41
f 1 41 46
f 1 46 51
f 1 51 59
f 1 59 58
f 1 58 57
f 1 57 56
f 1 56 55
f 1 55 66
f 1 66 65
f 1 65 64
f 1 64 63
f 1 63 71
f 1 71 75
f 1 75 83
f 1 83 82
f 1 82 81
f 1 81 80
f 1 80 88
f 1 88 96
f 1 96 95
f 1 95 103
f 1 103 102
f 1 102 101
f 1 101 108
f 1 108 115
f 1 115 114
f 1 114 113
f 1 113 112
f 1 112 119
f 1 119 124
f 1 124 123
f 1 123 130
f 1 130 136
f 1 136 146
f 1 146 152
f 1 152 154
f 1 154 148
f 1 148 142
f 1 142 133
f 1 133 125
f 1 125 120
f 1 120 116
f 1 116 109
f 1 109 104
f 1 104 98
f 1 98 89
f 1 89 84
f 1 84 77
f 1 77 73
f 1 73 69
f 1 69 60
f 1 60 53
f 1 53 47
f 1 47 43
f 1 43 39
f 1 39 33
f 1 33 22
f 1 22 16
f 1 16 11
f 1 11 10
f 1 10 6
f 1 6 4
f 1 4 2
f 2 5 3
f 2 4 6
f 2 6 7
f 2 7 12
f 2 12 17
f 2 17 23
f 2 23 34
f 2 34 40
f 2 40 44
f 2 44 49
f 2 49 48
f 2 48 52
f 2 52 61
f 2 61 68
f 2 68 67
f 2 67 72
f 2 72 76
f 2 76 78
f 2 78 85
f 2 85 93
f 2 93 92
f 2 92 91
f 2 91 90
f 2 90 97
f 2 97 99
f 2 99 106
f 2 106 105
f 2 105 110
f 2 110 117
f 2 117 121
f 2 121 126
f 2 126 134
f 2 134 141
f 2 141 140
f 2 140 145
f 2 145 144
f 2 144 143
f 2 143 150
f 2 150 149
f 2 149 158
f 2 158 157
f 2 157 156
f 2 156 155
f 2 155 161
f 2 161 160
f 2 160 162
f 2 162 159
f 2 159 151
f 2 151 153
f 2 153 147
f 2 147 139
f 2 139 138
f 2 138 137
f 2 137 135
f 2 135 129
f 2 129 128
f 2 128 132
f 2 132 131
f 2 131 127
f 2 127 122
f 2 122 118
f 2 118 111
f 2 111 107
f 2 107 100
f 2 100 94
f 2 94 87
f 2 87 86
f 2 86 79
f 2 79 74
f 2 74 70
f 2 70 62
f 2 62 54
f 2 54 50
f 2 50 45
f 2 45 42
f 2 42 37
f 2 37 36
f 2 36 35
f 2 35 31
f 2 31 30
f 2 30 29
f 2 29 28
f 2 28 27
f 2 27 26
f 2 26 25
f 2 25 24
f 2 24 20
f 2 20 19
f 2 19 18
f 2 18 14
f 2 14 13
f 2 13 8
f 2 8 5
f 3 5 8
f 3 8 9
f 6 10 7
f 7 10 11
f 7 11 12
f 8 13 9
f 9 13 14
f 9 14 15
f 11 16 17
f 11 17 12
f 14 18 15
f 15 18 19
f 15 19 20
f 15 20 21
f 16 22 17
f 17 22 23
f 20 24 21
f 21 24 25
f 21 25 26
f 21 26 27
f 21 27 28
f 21 28 29
f 21 29 30
f 21 30 31
f 21 31 32
f 22 33 23
f 23 33 34
f 31 35 32
f 32 35 36
f 32 36 37
f 32 37 38
f 33 39 34
f 34 39 40
f 37 41 38
f 37 42 41
f 39 43 40
f 40 43 44
f 41 42 45
f 41 45 46
f 43 47 48
f 43 48 49
f 43 49 44
f 45 50 51
f 45 51 46
f 47 52 48
f 47 53 52
f 50 54 55
f 50 55 56
f 50 56 57
f 50 57 58
f 50 58 59
f 50 59 51
f 52 53 60
f 52 60 61
f 54 62 63
f 54 63 64
f 54 64 65
f 54 65 66
f 54 66 55
f 60 67 68
f 60 68 61
f 60 69 67
f 62 70 63
f 63 70 71
f 67 69 72
f 69 73 72
f 70 74 75
f 70 75 71
f 72 73 76
f 73 77 78
f 73 78 76
f 74 79 80
f 74 80 81
f 74 81 82
f 74 82 83
f 74 83 75
f 77 84 78
f 78 84 85
f 79 86 80
f 80 86 87
f 80 87 88
f 84 89 90
f 84 90 91
f 84 91 92
f 84 92 93
f 84 93 85
f 87 94 95
f 87 95 96
f 87 96 88
f 89 97 90
f 89 98 99
f 89 99 97
f 94 100 101
f 94 101 102
f 94 102 103
f 94 103 95
f 98 104 105
f 98 105 106
f 98 106 99
f 100 107 101
f 101 107 108
f 104 109 105
f 105 109 110
f 107 111 112
f 107 112 113
f 107 113 114
f 107 114 115
f 107 115 108
f 109 116 117
f 109 117 110
f 111 118 112
f 112 118 119
f 116 120 121
f 116 121 117
f 118 122 123
f 118 123 124
f 118 124 119
f 120 125 126
f 120 126 121
f 122 127 123
f 123 128 129
f 123 129 130
f 123 127 131
f 123 131 132
f 123 132 128
f 125 133 126
f 126 133 134
f 129 135 130
f 130 135 137
f 130 137 138
f 130 138 139
f 130 139 136
f 133 140 141
f 133 141 134
f 133 142 143
f 133 143 144
f 133 144 145
f 133 145 140
f 136 139 146
f 139 147 146
f 142 148 149
f 142 149 150
f 142 150 143
f 146 151 152
f 146 147 153
f 146 153 151
f 148 154 155
f 148 155 156
f 148 156 157
f 148 157 158
f 148 158 149
f 151 159 152
f 152 159 154
f 154 160 161
f 154 161 155
f 154 159 162
f 154 162 160
