v 0.050426273485375039 0.16000583706945309 0.19893629624180365
v 0.051239713374777784 0.16000583706945309 0.2320965409612582
v 0.051200171127866789 0.16121231827771659 0.2320965409612582
v 0.051154979060819061 0.16290592221586869 0.2320965409612582
v 0.050443220781103193 0.16290592221586869 0.19893629624180365
v 0.050793451183165417 0.1571000847854444 0.19893629624180365
v 0.051589943776840008 0.15754189639077282 0.2320965409612582
v 0.051245361030232472 0.16411240342413219 0.2320965409612582
v 0.050895130628170249 0.16581167882924147 0.21055456039479636
v 0.050872535676987407 0.16581167882924147 0.20764918476546346
v 0.050821695954484991 0.16581167882924147 0.19893629624180365
v 0.051431774789196028 0.15510627408260164 0.19893629624180365
v 0.052103992986682945 0.15372986533382721 0.21055456039479636
v 0.052437276093017016 0.15419433250143572 0.2320965409612582
v 0.051883686800945128 0.15609184948820093 0.2320965409612582
v 0.051708570517572994 0.15694148719075557 0.2320965409612582
v 0.051375287411238924 0.16581167882924147 0.2320965409612582
v 0.051663378450525266 0.16785080065664443 0.2320965409612582
v 0.051363987770965458 0.16871742678388607 0.21055456039479636
v 0.051347042639919349 0.16871742678388607 0.20764918476546346
v 0.051347042639919349 0.16871742678388607 0.20183843350679764
v 0.051426127133741339 0.16867211565932588 0.19893629624180365
v 0.053041707272273364 0.15128858021742703 0.19893629624180365
v 0.05302475997654521 0.15128858021742703 0.20183843350679764
v 0.05301346250095379 0.15128858021742703 0.20474380913613055
v 0.053007814845499102 0.15128858021742703 0.20764918476546346
v 0.053030409796681943 0.15128858021742703 0.21055456039479636
v 0.053555756482116301 0.15128858021742703 0.2320965409612582
v 0.051979716425813227 0.16930650603808123 0.2320965409612582
v 0.051736815288892568 0.1703373968976048 0.21055456039479636
v 0.051731165468755835 0.17036005678924898 0.20764918476546346
v 0.051731165468755835 0.17036005678924898 0.20183843350679764
v 0.051753762584620722 0.17029774858127361 0.20011467987712661
v 0.051844144554034133 0.17000321328354012 0.19893629624180365
v 0.054069805691959238 0.14897757432520659 0.19893629624180365
v 0.05416018766137265 0.14887561780090003 0.20764918476546346
v 0.05417148513696407 0.14889261055495112 0.21055456039479636
v 0.054453928520795725 0.14936840766838172 0.2320965409612582
v 0.052279107105373035 0.17028642296481561 0.2320965409612582
v 0.05269147687021114 0.17162318339725885 0.2320965409612582
v 0.05223956485846204 0.17179311093776978 0.21055456039479636
v 0.052233917203007352 0.17181576217068578 0.20764918476546346
v 0.052233917203007352 0.17181576217068578 0.20183843350679764
v 0.052307351876692609 0.17141360754041673 0.19893629624180365
v 0.055007519977549657 0.14741990809009914 0.20764918476546346
v 0.057329210740342862 0.14374948187379127 0.19893629624180365
v 0.055007519977549657 0.14741990809009914 0.20183843350679764
v 0.055013167633004345 0.14744256798174332 0.21055456039479636
v 0.055273018230335202 0.14791836076580983 0.2320965409612582
v 0.054792861447266528 0.14876799413900038 0.2320965409612582
v 0.053872094457404263 0.17452893135190345 0.2320965409612582
v 0.053369342723152746 0.17452893135190345 0.21055456039479636
v 0.053352395427424593 0.17452893135190345 0.20764918476546346
v 0.053352395427424593 0.17452893135190345 0.20183843350679764
v 0.053584001253435876 0.17452893135190345 0.19893629624180365
v 0.059306320921210576 0.14283188181376044 0.2320965409612582
v 0.05785455742577722 0.14433289831975743 0.2320965409612582
v 0.056724781725768558 0.14578294522232932 0.2320965409612582
v 0.058780974235776218 0.14229943930058347 0.19893629624180365
v 0.054612097508439705 0.17612058742447717 0.2320965409612582
v 0.054374844026973734 0.1765454019463904 0.21055456039479636
v 0.054363546551382314 0.1765623903710774 0.20764918476546346
v 0.054363546551382314 0.1765623903710774 0.20183843350679764
v 0.054476523471978566 0.17636414013069329 0.19893629624180365
v 0.060232737731209574 0.14085505953560468 0.19893629624180365
v 0.060808924139146348 0.14138183491118855 0.2320965409612582
v 0.055532866662984015 0.17757062999768497 0.2320965409612582
v 0.05526736841019847 0.1779954445195982 0.21055456039479636
v 0.055256070934607049 0.17801810441124238 0.20764918476546346
v 0.055256070934607049 0.17801810441124238 0.20183843350679764
v 0.055385995150931455 0.17781985417085827 0.19893629624180365
v 0.065412765582503807 0.13755281110019185 0.19893629624180365
v 0.063842375346337465 0.13849307538123096 0.20183843350679764
v 0.063842375346337465 0.13849307538123096 0.20764918476546346
v 0.063859322642065619 0.13849874251882405 0.21055456039479636
v 0.061961296955019896 0.13988647688405648 0.21055456039479636
v 0.062260689799261748 0.14023765758153633 0.2320965409612582
v 0.0616562586200054 0.14071345469496693 0.2320965409612582
v 0.056137295677558319 0.1784599160165708 0.2320965409612582
v 0.056990277813872059 0.1796947112659793 0.2320965409612582
v 0.056719131905631825 0.18003456634700116 0.21055456039479636
v 0.056707834430040405 0.18004590062218734 0.20764918476546346
v 0.056707834430040405 0.18004590062218734 0.20183843350679764
v 0.056837758646364811 0.17988163588990541 0.19893629624180365
v 0.065294141006452866 0.13762644492462522 0.20764918476546346
v 0.067774000756890052 0.136465279170286 0.19893629624180365
v 0.067774000756890052 0.13641996371636173 0.20183843350679764
v 0.067774000756890052 0.13641430090813272 0.20474380913613055
v 0.067774000756890052 0.13641430090813272 0.20764918476546346
v 0.065311086137498975 0.13764344200804041 0.21055456039479636
v 0.065762998149248075 0.13788134056475571 0.2320965409612582
v 0.065158566969991727 0.13825517682451566 0.2320965409612582
v 0.064311232489132675 0.13878195220009953 0.2320965409612582
v 0.063113669770893444 0.13963158557329008 0.2320965409612582
v 0.058165245580928449 0.18115042530614428 0.2320965409612582
v 0.057865854901368641 0.18149028038716614 0.21055456039479636
v 0.057860207245913953 0.18150160600362414 0.20764918476546346
v 0.05785455742577722 0.18150160600362414 0.20474380913613055
v 0.057860207245913953 0.18150160600362414 0.20183843350679764
v 0.058007076593284468 0.18133167846311321 0.19893629624180365
v 0.067774000756890052 0.13643696079977691 0.21055456039479636
v 0.071428828274383627 0.13487929456466946 0.19893629624180365
v 0.066587733349560196 0.13747917727575848 0.2320965409612582
v 0.059617009076361804 0.18266277608732745 0.2320965409612582
v 0.059317618396801997 0.18294598576860294 0.21055456039479636
v 0.059311970741347309 0.18295731138506094 0.20764918476546346
v 0.059311970741347309 0.18295731138506094 0.20183843350679764
v 0.059458840088717824 0.1828213693526522 0.19893629624180365
v 0.069977066943632316 0.13555333758912008 0.21055456039479636
v 0.067774000756890052 0.13690709077561442 0.2320965409612582
v 0.073581054738623475 0.13418825445680366 0.19893629624180365
v 0.060549075706497535 0.18351240513115391 0.2320965409612582
v 0.060859763861648764 0.18440169115003974 0.21055456039479636
v 0.060842818730602655 0.18441301676649774 0.20764918476546346
v 0.060842818730602655 0.18441301676649774 0.20474380913613055
v 0.060842818730602655 0.18440735395826874 0.20183843350679764
v 0.060984040422518482 0.184277074734089 0.19893629624180365
v 0.071428828274383627 0.13509453755910467 0.21055456039479636
v 0.070677527747756763 0.13581389603747956 0.2320965409612582
v 0.068977213295266016 0.13644828641623491 0.2320965409612582
v 0.076490229384944874 0.1338427365675528 0.19893629624180365
v 0.076490229384944874 0.13462440325390307 0.2320965409612582
v 0.073722276430539302 0.13502656654290029 0.2320965409612582
v 0.073123495071419686 0.13515117430012286 0.2320965409612582
v 0.072270512935105946 0.13534376173227797 0.2320965409612582
v 0.071344096125106948 0.13561564579709545 0.2320965409612582
v 0.06120999534605201 0.18411281866053525 0.2320965409612582
v 0.062661757759144343 0.18525699166082338 0.2320965409612582
v 0.062311529521764164 0.18550055302576768 0.21055456039479636
v 0.062294580061353966 0.18552321291741186 0.20764918476546346
v 0.062294580061353966 0.18552321291741186 0.20183843350679764
v 0.06244145373808857 0.18550055302576768 0.19893629624180365
v 0.079388108720356898 0.13376343993489043 0.19893629624180365
v 0.079388108720356898 0.13448846122149433 0.2320965409612582
v 0.077693441923320838 0.13456776218352079 0.2320965409612582
v 0.063955354431615763 0.18607264385527583 0.2320965409612582
v 0.064475051296913388 0.18695625840720448 0.21055456039479636
v 0.065813837871750491 0.18801547196660123 0.19893629624180365
v 0.064362072211635091 0.18695059559897548 0.19893629624180365
v 0.08229163571122361 0.13386539645919698 0.19893629624180365
v 0.080596971078869595 0.1345564322376987 0.2320965409612582
v 0.064864823945886607 0.18664473468478399 0.2320965409612582
v 0.065926814792346744 0.1878228931931743 0.21055456039479636
v 0.067774000756890052 0.18866119662054276 0.21055456039479636
v 0.067768350936753319 0.18888209809384288 0.19893629624180365
v 0.085200812522227054 0.13424489985655003 0.19893629624180365
v 0.08229163571122361 0.13465272595377625 0.2320965409612582
v 0.06645780913323579 0.18753401204494163 0.2320965409612582
v 0.067909574793351191 0.18820805939875634 0.2320965409612582
v 0.070677527747756763 0.1892729357663821 0.2320965409612582
v 0.070677527747756763 0.1897430700715837 0.21055456039479636
v 0.070677527747756763 0.1897657213044997 0.20764918476546346
v 0.074264570411701814 0.19091556577174501 0.19893629624180365
v 0.087245709721325337 0.13491894288100065 0.19893629624180365
v 0.087206165309732298 0.13513418587543585 0.21055456039479636
v 0.086313640926507562 0.13538341004860915 0.2320965409612582
v 0.084861879595756251 0.13507754047568948 0.2320965409612582
v 0.083347974572864969 0.13482265349428718 0.2320965409612582
v 0.073581054738623475 0.19001495413640118 0.2320965409612582
v 0.072857996818634141 0.19035480055869486 0.21055456039479636
v 0.076484581729490186 0.19148198513429598 0.19893629624180365
v 0.091007866503960477 0.13658422844864365 0.19893629624180365
v 0.091007866503960477 0.13656156855699947 0.20183843350679764
v 0.091007866503960477 0.13656156855699947 0.20764918476546346
v 0.091007866503960477 0.13657856564041465 0.21055456039479636
v 0.088657930969847698 0.13561564579709545 0.21055456039479636
v 0.088104339513093766 0.13593284098647312 0.2320965409612582
v 0.07487464924641285 0.1902415184179303 0.2320965409612582
v 0.075857555599050996 0.19040011168325505 0.2320965409612582
v 0.076456336958170612 0.1904794169746456 0.2320965409612582
v 0.077309319094484352 0.19058703630718116 0.2320965409612582
v 0.079388108720356898 0.19161792716670473 0.19893629624180365
v 0.093244822952794959 0.13762078211639622 0.19893629624180365
v 0.093318257626480217 0.13771141302424478 0.20764918476546346
v 0.093301312495434108 0.13772840144893178 0.21055456039479636
v 0.091764816850724074 0.13747351446752948 0.2320965409612582
v 0.091007866503960477 0.13709967387840544 0.2320965409612582
v 0.07856901901081742 0.19060969619882534 0.2320965409612582
v 0.08229163571122361 0.1914366740097358 0.19893629624180365
v 0.079388108720356898 0.19062102181528334 0.2320965409612582
v 0.081161857846532903 0.19053605371566379 0.2320965409612582
v 0.098136757600120805 0.14123456293295772 0.19893629624180365
v 0.096752781122918019 0.14006206723279641 0.20183843350679764
v 0.094770023286595617 0.13861202465958861 0.20183843350679764
v 0.094770023286595617 0.13860636185135961 0.20474380913613055
v 0.094770023286595617 0.13860636185135961 0.20764918476546346
v 0.094753078155549508 0.13861768746781761 0.21055456039479636
v 0.094295516323663675 0.138866915970355 0.2320965409612582
v 0.093691085144407327 0.13851006813528205 0.2320965409612582
v 0.092838105172775631 0.13801161545957136 0.2320965409612582
v 0.084398667943733685 0.19088724307187183 0.19893629624180365
v 0.081766289025789252 0.1904794169746456 0.2320965409612582
v 0.082619268997420947 0.19039444887502605 0.2320965409612582
v 0.085200812522227054 0.18996963435311282 0.2320965409612582
v 0.085765699289890363 0.19030948943413467 0.21055456039479636
v 0.099492493635368107 0.14269027264375861 0.19893629624180365
v 0.1010854744933532 0.14413465240873741 0.20183843350679764
v 0.099633713162601889 0.14263363157337633 0.20183843350679764
v 0.09820454245366933 0.14117792186257544 0.20183843350679764
v 0.096752781122918019 0.14006206723279641 0.20764918476546346
v 0.096741485812008643 0.14006773004102541 0.21055456039479636
v 0.096402548556173751 0.1403169585435628 0.2320965409612582
v 0.095171095575842302 0.13946732517037225 0.2320965409612582
v 0.091007866503960477 0.1887858130364935 0.19893629624180365
v 0.088104339513093766 0.18964110488854896 0.21055456039479636
v 0.088104339513093766 0.18966376478019314 0.20764918476546346
v 0.088104339513093766 0.18917664205030454 0.2320965409612582
v 0.10094425496611942 0.14430457994924833 0.19893629624180365
v 0.10217571227581496 0.1455846993113093 0.20183843350679764
v 0.10219265740686106 0.14557903217371621 0.20474380913613055
v 0.1010854744933532 0.14412898527114432 0.20474380913613055
v 0.099633713162601889 0.14263363157337633 0.20764918476546346
v 0.09820454245366933 0.14117792186257544 0.20764918476546346
v 0.098193247142759954 0.14118925180839753 0.21055456039479636
v 0.097255532857169535 0.14100233151383551 0.2320965409612582
v 0.092871995434867849 0.18795317241735404 0.19893629624180365
v 0.089686025060169483 0.18857623717965138 0.2320965409612582
v 0.090787558153540615 0.18815141399900998 0.2320965409612582
v 0.10202884292844444 0.14576028966004922 0.19893629624180365
v 0.10362747793593036 0.14771444771719672 0.20183843350679764
v 0.10219265740686106 0.14557903217371621 0.20764918476546346
v 0.10364442306697647 0.14771444771719672 0.20474380913613055
v 0.1010854744933532 0.14412898527114432 0.20764918476546346
v 0.099628063342465156 0.14263929438160533 0.21055456039479636
v 0.098458745395545499 0.14209552625197036 0.2320965409612582
v 0.097854314216289151 0.1414951213813172 0.2320965409612582
v 0.091391989332796963 0.18787952993419249 0.2320965409612582
v 0.092239323813656016 0.18749436372861045 0.2320965409612582
v 0.093917043314963922 0.18645781006085788 0.2320965409612582
v 0.094154292467065803 0.18684297626643992 0.21055456039479636
v 0.096300869111168919 0.18539293369323212 0.21055456039479636
v 0.09632346839171585 0.1854099307766473 0.20764918476546346
v 0.09632346839171585 0.1854099307766473 0.20183843350679764
v 0.094323761094983249 0.18687696177454211 0.19893629624180365
v 0.10348060425919575 0.14792402790340292 0.19893629624180365
v 0.10433923405096418 0.14937973328483972 0.19893629624180365
v 0.10445221313624248 0.14916449461976861 0.20183843350679764
v 0.10216441263554149 0.1455960249277673 0.21055456039479636
v 0.10107982900258056 0.1441459823545595 0.21055456039479636
v 0.10364442306697647 0.14771444771719672 0.20764918476546346
v 0.099294780236131086 0.142945163954525 0.2320965409612582
v 0.095097656572792955 0.18567048056627861 0.2320965409612582
v 0.095928041593241808 0.18511538682018563 0.2320965409612582
v 0.097752634771284319 0.18426008630940199 0.21055456039479636
v 0.097775229722467161 0.184277074734089 0.20764918476546346
v 0.097775229722467161 0.184277074734089 0.20183843350679764
v 0.096221788946711018 0.18542691920133431 0.19893629624180365
v 0.10520916348300607 0.15128858021742703 0.19893629624180365
v 0.10543511732419858 0.15128858021742703 0.20183843350679764
v 0.10445221313624248 0.14916449461976861 0.20764918476546346
v 0.10187067394080046 0.14599252107917143 0.2320965409612582
v 0.10361617829565689 0.14773144047124781 0.21055456039479636
v 0.1037461025119813 0.14872834582266919 0.2320965409612582
v 0.10121539870967761 0.14514288770598088 0.2320965409612582
v 0.10074654589624649 0.14454247850596363 0.2320965409612582
v 0.10444091349596901 0.14918148304445561 0.21055456039479636
v 0.096532472772498157 0.18462826409029703 0.2320965409612582
v 0.099300425726903729 0.18280438092796519 0.21055456039479636
v 0.097379807253357209 0.18393722831179532 0.2320965409612582
v 0.098995387391889234 0.18248717707985934 0.2320965409612582
v 0.099317375187313928 0.1828213693526522 0.20764918476546346
v 0.099317375187313928 0.1828213693526522 0.20183843350679764
v 0.097673550277462329 0.18415246697686644 0.19893629624180365
v 0.1062937514453311 0.15419433250143572 0.19893629624180365
v 0.10543511732419858 0.15128858021742703 0.20764918476546346
v 0.10651405546638687 0.15419433250143572 0.20183843350679764
v 0.10541817219315247 0.15128858021742703 0.21055456039479636
v 0.10426579937727892 0.14957798352522383 0.2320965409612582
v 0.10075219138701913 0.18129203014678202 0.21055456039479636
v 0.099599818571145582 0.18184146108464599 0.2320965409612582
v 0.10076913651806524 0.18130901857146903 0.20764918476546346
v 0.10076913651806524 0.18130901857146903 0.20183843350679764
v 0.10063921230174083 0.18120139923893347 0.19893629624180365
v 0.099187450970989521 0.18269675293670146 0.19893629624180365
v 0.10687558334404051 0.15604653836364074 0.19893629624180365
v 0.10698291260918208 0.15568402772033879 0.20183843350679764
v 0.1065027558261134 0.15419433250143572 0.21055456039479636
v 0.10651405546638687 0.15419433250143572 0.20764918476546346
v 0.10500015477285968 0.15128858021742703 0.2320965409612582
v 0.10469511643784518 0.15055789179323004 0.2320965409612582
v 0.10044715305200463 0.18092951517411598 0.2320965409612582
v 0.10113631854521971 0.18008554893851852 0.2320965409612582
v 0.10162777063919776 0.17947947260090819 0.2320965409612582
v 0.10190456420289268 0.17983632476534522 0.21055456039479636
v 0.10191586384316614 0.17985331319003223 0.20764918476546346
v 0.10191586384316614 0.17985331319003223 0.20183843350679764
v 0.10192150933393879 0.17974569385749667 0.19893629624180365
v 0.10724276104183089 0.15750224374507754 0.19893629624180365
v 0.10698291260918208 0.15568402772033879 0.20764918476546346
v 0.10777375754740198 0.16000583706945309 0.19893629624180365
v 0.10725971050224109 0.15713407029354659 0.20183843350679764
v 0.10600000409186189 0.15419433250143572 0.2320965409612582
v 0.10561588559238949 0.15298785129317222 0.2320965409612582
v 0.10697726278904535 0.15572367603666998 0.21055456039479636
v 0.1029722027048075 0.17743468796527623 0.2320965409612582
v 0.10335632986300808 0.17774054887946772 0.21055456039479636
v 0.10446351277651594 0.17642644833866866 0.19893629624180365
v 0.10337327499405419 0.17788216237883364 0.19893629624180365
v 0.10725971050224109 0.15713407029354659 0.20764918476546346
v 0.10763818351094084 0.16000583706945309 0.21055456039479636
v 0.10724841086196762 0.15717371860987778 0.21055456039479636
v 0.10813528542505563 0.16290592221586869 0.19893629624180365
v 0.10641802151215468 0.15575199440717907 0.2320965409612582
v 0.10671741435639653 0.15689617173683129 0.2320965409612582
v 0.1070337523316845 0.15834621431003909 0.2320965409612582
v 0.10397770617331054 0.17576939806826913 0.2320965409612582
v 0.10426014955714219 0.17629050630625992 0.21055456039479636
v 0.10532213823892028 0.17452326854367445 0.19893629624180365
v 0.10510183421786451 0.17452893135190345 0.21055456039479636
v 0.10711848664564322 0.15933746118259556 0.2320965409612582
v 0.1080675005715071 0.16581167882924147 0.19893629624180365
v 0.10729360076433331 0.16290592221586869 0.2320965409612582
v 0.10717497618828237 0.16000583706945309 0.2320965409612582
v 0.10439572359360333 0.17491976036571449 0.2320965409612582
v 0.10468946228834436 0.17431935549506133 0.2320965409612582
v 0.1062598525245107 0.17162318339725885 0.21055456039479636
v 0.1062768019849209 0.17162318339725885 0.20764918476546346
v 0.10745176975197729 0.16829261226197284 0.19893629624180365
v 0.10514137862945755 0.17320916800287539 0.2320965409612582
v 0.10577405025066938 0.17162318339725885 0.2320965409612582
v 0.10687558334404051 0.16966902101074727 0.21055456039479636
v 0.10660443527111824 0.16871742678388607 0.2320965409612582
v 0.10697726278904535 0.16714276779472753 0.2320965409612582
v 0.10715237690773544 0.16569272522151973 0.2320965409612582
v 0.10612428281741365 0.17041670218899535 0.2320965409612582
f 1 2 3
f 1 3 4
f 1 4 5
f 1 5 11
f 1 11 22
f 1 22 34
f 1 34 44
f 1 44 55
f 1 55 64
f 1 64 71
f 1 71 84
f 1 84 100
f 1 100 108
f 1 108 117
f 1 117 132
f 1 132 139
f 1 139 138
f 1 138 145
f 1 145 153
f 1 153 161
f 1 161 172
f 1 172 179
f 1 179 191
f 1 191 204
f 1 204 216
f 1 216 234
f 1 234 247
f 1 247 263
f 1 263 274
f 1 274 273
f 1 273 287
f 1 287 298
f 1 298 297
f 1 297 308
f 1 308 318
f 1 318 311
f 1 311 302
f 1 302 290
f 1 290 288
f 1 288 275
f 1 275 264
f 1 264 248
f 1 248 236
f 1 236 235
f 1 235 219
f 1 219 208
f 1 208 196
f 1 196 182
f 1 182 173
f 1 173 162
f 1 162 154
f 1 154 146
f 1 146 140
f 1 140 133
f 1 133 121
f 1 121 111
f 1 111 102
f 1 102 86
f 1 86 72
f 1 72 65
f 1 65 59
f 1 59 46
f 1 46 35
f 1 35 23
f 1 23 12
f 1 12 6
f 1 6 2
f 2 6 7
f 2 7 16
f 2 16 15
f 2 15 14
f 2 14 28
f 2 28 38
f 2 38 50
f 2 50 49
f 2 49 58
f 2 58 57
f 2 57 56
f 2 56 66
f 2 66 78
f 2 78 77
f 2 77 94
f 2 94 93
f 2 93 92
f 2 92 91
f 2 91 103
f 2 103 110
f 2 110 120
f 2 120 119
f 2 119 126
f 2 126 125
f 2 125 124
f 2 124 123
f 2 123 122
f 2 122 135
f 2 135 134
f 2 134 141
f 2 141 147
f 2 147 158
f 2 158 157
f 2 157 156
f 2 156 167
f 2 167 177
f 2 177 176
f 2 176 190
f 2 190 189
f 2 189 188
f 2 188 203
f 2 203 202
f 2 202 215
f 2 215 226
f 2 226 225
f 2 225 241
f 2 241 255
f 2 255 254
f 2 254 251
f 2 251 253
f 2 253 268
f 2 268 280
f 2 280 279
f 2 279 293
f 2 293 292
f 2 292 303
f 2 303 304
f 2 304 305
f 2 305 310
f 2 310 313
f 2 313 312
f 2 312 324
f 2 324 323
f 2 323 322
f 2 322 325
f 2 325 320
f 2 320 319
f 2 319 315
f 2 315 314
f 2 314 306
f 2 306 295
f 2 295 283
f 2 283 282
f 2 282 281
f 2 281 270
f 2 270 260
f 2 260 259
f 2 259 257
f 2 257 243
f 2 243 242
f 2 242 229
f 2 229 228
f 2 228 227
f 2 227 218
f 2 218 217
f 2 217 207
f 2 207 194
f 2 194 193
f 2 193 192
f 2 192 181
f 2 181 180
f 2 180 178
f 2 178 171
f 2 171 170
f 2 170 169
f 2 169 168
f 2 168 159
f 2 159 150
f 2 150 149
f 2 149 148
f 2 148 142
f 2 142 136
f 2 136 128
f 2 128 127
f 2 127 112
f 2 112 104
f 2 104 95
f 2 95 80
f 2 80 79
f 2 79 67
f 2 67 60
f 2 60 51
f 2 51 40
f 2 40 39
f 2 39 29
f 2 29 18
f 2 18 17
f 2 17 8
f 2 8 4
f 2 4 3
f 4 8 9
f 4 9 5
f 5 9 10
f 5 10 11
f 6 12 13
f 6 13 14
f 6 14 15
f 6 15 16
f 6 16 7
f 8 17 9
f 9 17 18
f 9 18 19
f 9 19 10
f 10 19 11
f 11 19 20
f 11 20 21
f 11 21 22
f 12 23 24
f 12 24 25
f 12 25 26
f 12 26 27
f 12 27 13
f 13 27 14
f 14 27 28
f 18 29 19
f 19 29 30
f 19 30 20
f 20 30 31
f 20 31 32
f 20 32 21
f 21 32 33
f 21 33 22
f 22 33 34
f 23 35 24
f 24 35 25
f 25 35 26
f 26 35 36
f 26 36 37
f 26 37 27
f 27 38 28
f 27 37 38
f 29 39 30
f 30 39 40
f 30 40 41
f 30 41 42
f 30 42 31
f 31 42 43
f 31 43 32
f 32 43 33
f 33 43 44
f 33 44 34
f 35 45 36
f 35 46 47
f 35 47 45
f 36 45 48
f 36 48 37
f 37 48 49
f 37 49 50
f 37 50 38
f 40 51 41
f 41 51 52
f 41 52 53
f 41 53 42
f 42 53 54
f 42 54 43
f 43 54 55
f 43 55 44
f 45 47 46
f 45 46 48
f 46 56 57
f 46 57 58
f 46 58 48
f 46 59 56
f 48 58 49
f 51 60 52
f 52 60 61
f 52 61 62
f 52 62 53
f 53 62 63
f 53 63 54
f 54 63 64
f 54 64 55
f 56 59 65
f 56 65 66
f 60 67 68
f 60 68 61
f 61 68 69
f 61 69 62
f 62 69 70
f 62 70 63
f 63 70 64
f 64 70 71
f 65 72 73
f 65 73 74
f 65 74 75
f 65 75 76
f 65 76 77
f 65 77 78
f 65 78 66
f 67 79 68
f 68 79 80
f 68 80 81
f 68 81 69
f 69 81 82
f 69 82 83
f 69 83 70
f 70 83 84
f 70 84 71
f 72 85 74
f 72 74 73
f 72 86 87
f 72 87 88
f 72 88 89
f 72 89 85
f 74 85 75
f 75 85 90
f 75 90 91
f 75 91 92
f 75 92 93
f 75 93 94
f 75 94 77
f 75 77 76
f 80 95 96
f 80 96 81
f 81 96 82
f 82 96 97
f 82 97 98
f 82 98 83
f 83 98 99
f 83 99 84
f 84 99 100
f 85 89 101
f 85 101 90
f 86 102 87
f 87 102 88
f 88 102 89
f 89 102 101
f 90 101 91
f 91 101 103
f 95 104 96
f 96 104 105
f 96 105 106
f 96 106 97
f 97 106 98
f 98 106 107
f 98 107 99
f 99 107 108
f 99 108 100
f 101 102 109
f 101 109 110
f 101 110 103
f 102 111 109
f 104 112 113
f 104 113 105
f 105 113 114
f 105 114 106
f 106 114 115
f 106 115 107
f 107 115 116
f 107 116 117
f 107 117 108
f 109 111 118
f 109 118 119
f 109 119 120
f 109 120 110
f 111 121 122
f 111 122 123
f 111 123 124
f 111 124 125
f 111 125 126
f 111 126 118
f 112 127 113
f 113 128 129
f 113 129 130
f 113 130 114
f 113 127 128
f 114 130 131
f 114 131 115
f 115 131 116
f 116 131 132
f 116 132 117
f 118 126 119
f 121 133 134
f 121 134 135
f 121 135 122
f 128 136 137
f 128 137 129
f 129 137 138
f 129 138 130
f 130 138 131
f 131 138 139
f 131 139 132
f 133 140 134
f 134 140 141
f 136 142 137
f 137 142 143
f 137 143 138
f 138 143 144
f 138 144 145
f 140 146 147
f 140 147 141
f 142 148 143
f 143 148 149
f 143 149 144
f 144 150 151
f 144 151 145
f 144 149 150
f 145 151 152
f 145 152 153
f 146 154 155
f 146 155 156
f 146 156 157
f 146 157 158
f 146 158 147
f 150 159 160
f 150 160 151
f 151 160 153
f 151 153 152
f 153 160 161
f 154 162 163
f 154 163 164
f 154 164 165
f 154 165 166
f 154 166 155
f 155 166 167
f 155 167 156
f 159 168 161
f 159 161 160
f 161 169 170
f 161 170 171
f 161 171 172
f 161 168 169
f 162 173 163
f 163 173 164
f 164 173 165
f 165 173 174
f 165 174 175
f 165 175 190
f 165 190 176
f 165 176 177
f 165 177 166
f 166 177 167
f 171 178 172
f 172 178 180
f 172 180 181
f 172 181 179
f 173 182 183
f 173 183 184
f 173 184 185
f 173 185 186
f 173 186 174
f 174 186 187
f 174 187 175
f 175 187 188
f 175 188 189
f 175 189 190
f 179 181 192
f 179 192 193
f 179 193 194
f 179 194 195
f 179 195 191
f 182 196 197
f 182 197 198
f 182 198 199
f 182 199 183
f 183 185 184
f 183 199 213
f 183 213 200
f 183 200 186
f 183 186 185
f 186 200 201
f 186 201 187
f 187 201 202
f 187 202 203
f 187 203 188
f 191 195 205
f 191 205 206
f 191 206 204
f 194 207 195
f 195 207 205
f 196 208 197
f 197 208 209
f 197 209 210
f 197 210 211
f 197 211 198
f 198 212 213
f 198 213 199
f 198 211 223
f 198 223 212
f 200 213 201
f 201 213 214
f 201 214 202
f 202 214 215
f 204 206 205
f 204 205 217
f 204 217 218
f 204 218 216
f 205 207 217
f 208 219 209
f 209 219 220
f 209 220 210
f 210 221 223
f 210 223 211
f 210 220 222
f 210 222 240
f 210 240 221
f 212 223 224
f 212 224 213
f 213 224 214
f 214 224 225
f 214 225 226
f 214 226 215
f 216 218 227
f 216 227 228
f 216 228 229
f 216 229 230
f 216 230 231
f 216 231 232
f 216 232 233
f 216 233 234
f 219 235 220
f 220 235 236
f 220 236 237
f 220 237 222
f 221 238 239
f 221 239 223
f 221 240 252
f 221 252 238
f 222 237 250
f 222 250 240
f 223 239 224
f 224 239 241
f 224 241 225
f 229 242 230
f 230 242 243
f 230 243 231
f 231 243 244
f 231 244 245
f 231 245 232
f 232 245 246
f 232 246 233
f 233 246 247
f 233 247 234
f 236 248 249
f 236 249 237
f 237 249 265
f 237 265 250
f 238 251 239
f 238 252 253
f 238 253 251
f 239 251 254
f 239 254 255
f 239 255 241
f 240 250 256
f 240 256 252
f 243 257 244
f 244 258 245
f 244 257 259
f 244 259 260
f 244 260 258
f 245 258 261
f 245 261 262
f 245 262 246
f 246 262 263
f 246 263 247
f 248 264 249
f 249 264 266
f 249 266 278
f 249 278 265
f 250 265 267
f 250 267 256
f 252 256 268
f 252 268 253
f 256 267 268
f 258 260 269
f 258 269 271
f 258 271 261
f 260 270 269
f 261 271 272
f 261 272 262
f 262 272 273
f 262 273 274
f 262 274 263
f 264 275 276
f 264 276 266
f 265 277 267
f 265 278 277
f 266 276 289
f 266 289 278
f 267 279 280
f 267 280 268
f 267 277 279
f 269 270 281
f 269 281 282
f 269 282 283
f 269 283 284
f 269 284 271
f 271 284 285
f 271 285 286
f 271 286 272
f 272 286 287
f 272 287 273
f 275 288 276
f 276 288 290
f 276 290 291
f 276 291 299
f 276 299 289
f 277 292 293
f 277 293 279
f 277 278 289
f 277 289 294
f 277 294 292
f 283 295 296
f 283 296 284
f 284 296 297
f 284 297 285
f 285 297 286
f 286 297 298
f 286 298 287
f 289 299 294
f 290 300 301
f 290 301 299
f 290 299 291
f 290 302 300
f 292 294 303
f 294 304 303
f 294 299 301
f 294 301 305
f 294 305 304
f 295 306 307
f 295 307 296
f 296 307 297
f 297 307 309
f 297 309 308
f 300 310 305
f 300 305 301
f 300 302 310
f 302 311 312
f 302 312 313
f 302 313 310
f 306 314 307
f 307 314 315
f 307 315 309
f 308 316 317
f 308 317 318
f 308 309 316
f 309 315 319
f 309 319 320
f 309 320 316
f 311 318 321
f 311 321 322
f 311 322 323
f 311 323 324
f 311 324 312
f 316 320 321
f 316 321 318
f 316 318 317
f 320 325 321
f 321 325 322
