v 0.12409797552516594 0.17379745065407809 0.10600996604706864
v 0.1240878534719248 0.17376939637477845 0.10596277381381158
v 0.12409797552516594 0.17379745065407809 0.082720201715557273
v 0.12095823410021472 0.17379745065407809 0.17277631288204776
v 0.11279489773661339 0.14983619545824683 0.107413959339139
v 0.12127220824270984 0.16778843183757181 0.10596277381381158
v 0.1240878534719248 0.17376939637477845 0.082720201715557273
v 0.1218090060961608 0.16955138352970872 0.080513927470024726
v 0.12229515904849336 0.17162298424651073 0.079994806410150998
v 0.12292310733348361 0.17379745065407809 0.07979423563061494
v 0.11592451710832347 0.17379745065407809 0.19483905966673731
v 0.11574220758651671 0.17299780844802842 0.1946266913700575
v 0.1052088647568839 0.1512858397299584 0.19893305787746474
v 0.11878066786795932 0.1698132581047514 0.17453425549993318
v 0.10121835133598661 0.13231885236043534 0.17431008968610961
v 0.10406438004238133 0.13824369968031452 0.17372017486464519
v 0.098331808440442814 0.12602458040280334 0.17277631288204776
v 0.1015627089556615 0.12602458040280334 0.10596277381381158
v 0.10997925250739843 0.14385055953718767 0.10596277381381158
v 0.11913515619960352 0.16325243585886012 0.10596277381381158
v 0.12034041652719379 0.16581036270255828 0.10596277381381158
v 0.12127220824270984 0.16778843183757181 0.082720201715557273
v 0.11279489773661339 0.14983619545824683 0.081269016190229859
v 0.10994886903021867 0.14391134813836765 0.081068445410693801
v 0.10709271394121872 0.13798182510527185 0.08090327151195309
v 0.104246685234824 0.13205698211475675 0.080761692647499883
v 0.10139053014582405 0.12613213479487756 0.080643708817334181
v 0.11895284667779676 0.1636218691553411 0.080443138037798123
v 0.10184629962097685 0.12804473095676633 0.080089190876665106
v 0.11946938310730909 0.16581036270255828 0.079935814495068147
v 0.10553296961134834 0.13966996538594306 0.078862171165161254
v 0.12005682586187844 0.17162298424651073 0.078567215919111089
v 0.12005682586187844 0.17379745065407809 0.078449232088945386
v 0.11560041225385903 0.17379745065407809 0.19511041987849997
v 0.10724463565648162 0.1574959401909633 0.19893305787746474
v 0.10686989455962698 0.15604161587667104 0.19893305787746474
v 0.10629258251702695 0.15418981264532633 0.19893305787746474
v 0.10433783999572738 0.14937791928128624 0.19893305787746474
v 0.098362196246986666 0.12639400504055615 0.17440447415262372
v 0.098220400914328987 0.12602458040280334 0.17402692762783911
v 0.1015627089556615 0.12602458040280334 0.082720201715557273
v 0.10997925250739843 0.14385055953718767 0.082720201715557273
v 0.11913515619960352 0.16325243585886012 0.082720201715557273
v 0.12034041652719379 0.16581036270255828 0.082720201715557273
v 0.10144117071757836 0.12602458040280334 0.081563971436280025
v 0.10123860410119706 0.12602458040280334 0.080549324350820073
v 0.10467207123279704 0.1338573481713547 0.080183575343179214
v 0.099830785815953671 0.12602458040280334 0.079428486622974082
v 0.099719378289839844 0.12804473095676633 0.078661600385625197
v 0.10262617395059409 0.1338573481713547 0.078755989181503394
v 0.11716015225436532 0.16581036270255828 0.078508224004028238
v 0.11425335659361108 0.16000242553055061 0.078472831452596981
v 0.11134656093285683 0.15418981264532633 0.078449232088945386
v 0.10843976527210258 0.14838654685717118 0.078425637054657882
v 0.11716015225436532 0.16871901133114281 0.078413839537514129
v 0.11716015225436532 0.17162298424651073 0.078402042020370377
v 0.11716015225436532 0.17379745065407809 0.078402042020370377
v 0.11426348730558039 0.17379745065407809 0.19581831420076601
v 0.10812579112960746 0.16290639844591853 0.19893305787746474
v 0.10777130279796326 0.159997749817334 0.19893305787746474
v 0.10347694161717608 0.14792359496699398 0.19893305787746474
v 0.093034753548446647 0.12602458040280334 0.19513401491278748
v 0.093358858402911082 0.12602458040280334 0.19442612059052145
v 0.096822704682326732 0.12602458040280334 0.078413839537514129
v 0.099719378289839844 0.13095337958535086 0.078413839537514129
v 0.10262617395059409 0.13676131675735853 0.078413839537514129
v 0.10553296961134834 0.1425739339719469 0.078413839537514129
v 0.10262617395059409 0.13966996538594306 0.078402042020370377
v 0.050344346764028325 0.17379745065407809 0.078402042020370377
v 0.11351400078250701 0.17379745065407809 0.19611326944681617
v 0.10806502417524794 0.16581036270255828 0.19893305787746474
v 0.10202860914278361 0.14575847998585983 0.19893305787746474
v 0.091768730595860937 0.12602458040280334 0.19580651668362226
v 0.10094489138264057 0.14430415567156757 0.19893305787746474
v 0.093915909021572486 0.12602458040280334 0.078402042020370377
v 0.096822704682326732 0.12804473095676633 0.078402042020370377
v 0.047437548938592033 0.16871901133114281 0.078402042020370377
v 0.047437548938592033 0.17379745065407809 0.078413839537514129
v 0.10555322237655879 0.17379745065407809 0.19892125603095689
v 0.10744719794349883 0.16828879376284595 0.19893305787746474
v 0.091009113360818239 0.12602458040280334 0.19610147192967242
v 0.099486423866914697 0.14269083979045433 0.19893305787746474
v 0.098129246153425609 0.14123651980552615 0.19893305787746474
v 0.027100101366553442 0.12602458040280334 0.078402042020370377
v 0.035810361966210957 0.14547790255795073 0.078402042020370377
v 0.027100101366553442 0.13095337958535086 0.078413839537514129
v 0.044530753277837787 0.16871901133114281 0.078425637054657882
v 0.044530753277837787 0.17162298424651073 0.078932960597387858
v 0.044480112706083486 0.17379745065407809 0.079758838749819594
v 0.027100101366553442 0.12804473095676633 0.078402042020370377
v 0.10523924823406366 0.17379745065407809 0.19893305787746474
v 0.10623181556266742 0.17162298424651073 0.19893305787746474
v 0.093247446547433166 0.13762175189395226 0.19893305787746474
v 0.088983473173189831 0.12602458040280334 0.19646722093731328
v 0.024193305705799195 0.12602458040280334 0.07852002152117199
v 0.035810361966210957 0.1512858397299584 0.078496426486884485
v 0.038717159791647249 0.15709845694454677 0.078461029606089139
v 0.041623955452401495 0.16290639844591853 0.078437434571801634
v 0.032913692688061935 0.14547790255795073 0.078543620884823584
v 0.030006897027307688 0.13966996538594306 0.078602608470542346
v 0.027100101366553442 0.1338573481713547 0.078673397902768949
v 0.024193305705799195 0.12804473095676633 0.078767786698647146
v 0.030634845312297931 0.14547790255795073 0.079971207046499404
v 0.033460616924118114 0.1512858397299584 0.079924016977924395
v 0.036286388535938296 0.15709845694454677 0.079888620097129048
v 0.042616520616323206 0.17162298424651073 0.080360551088427767
v 0.043740752565615326 0.17379745065407809 0.08047853491859347
v 0.05360563075642677 0.17379745065407809 0.19893305787746474
v 0.091009113360818239 0.13658362233767113 0.19893305787746474
v 0.087241419321512692 0.13491886495244704 0.19893305787746474
v 0.085195522039309746 0.13424547999133801 0.19893305787746474
v 0.082288726378555499 0.133866703927152 0.19893305787746474
v 0.088102317700063992 0.12602458040280334 0.19649081597160079
v 0.021539712903816455 0.12602458040280334 0.080030198961582255
v 0.022167661188806698 0.12804473095676633 0.080207174706830808
v 0.02499343280062688 0.1338573481713547 0.080112785910952611
v 0.027819204412447063 0.13966996538594306 0.080030198961582255
v 0.033987284065599754 0.15352577911065052 0.080419543003510618
v 0.043001392425147167 0.1732456472246931 0.080997655978467198
v 0.043183699782271878 0.17379745065407809 0.082720201715557273
v 0.052309219997297207 0.17141722688879552 0.19893305787746474
v 0.053281528066644379 0.17379745065407809 0.19892125603095689
v 0.079381926388437163 0.13375914520571369 0.19893305787746474
v 0.082288726378555499 0.12602458040280334 0.19649081597160079
v 0.020638304665480167 0.12602458040280334 0.082720201715557273
v 0.022582920804174511 0.12982639416049785 0.080785287681787388
v 0.028285100270205088 0.14167608880025623 0.080561121867963825
v 0.040145237336147221 0.1673161241915973 0.081174631723715751
v 0.040135108788859952 0.16734418712962512 0.082720201715557273
v 0.043183699782271878 0.17379745065407809 0.10596277381381158
v 0.051843321974857137 0.1700049883228168 0.19893305787746474
v 0.039790751169185068 0.14494480631079626 0.19507502299770463
v 0.043052035161583513 0.15280563268801134 0.1946266913700575
v 0.048551652340596885 0.17379745065407809 0.17465223500073479
v 0.042859597092489488 0.16191970173502007 0.17460504493215978
v 0.037157415461776866 0.15006533138204509 0.17442806918691123
v 0.03431138892006419 0.14414516410474659 0.17433368472039712
v 0.076485259274970185 0.13383864531848827 0.19893305787746474
v 0.079381926388437163 0.12602458040280334 0.19638462965857884
v 0.020638304665480167 0.12602458040280334 0.10596277381381158
v 0.028153435649516723 0.14195666622816533 0.082720201715557273
v 0.037309339341721814 0.16135854687920187 0.082720201715557273
v 0.040135108788859952 0.16734418712962512 0.10596277381381158
v 0.040145237336147221 0.1673161241915973 0.10749654628850935
v 0.043234342518708224 0.17379745065407809 0.10704821249618018
v 0.051428064524171369 0.16867224554024857 0.19893305787746474
v 0.039790751169185068 0.1425739339719469 0.19509862236135622
v 0.041623955452401495 0.1425739339719469 0.19604248001458957
v 0.050445627907536927 0.16290639844591853 0.19893305787746474
v 0.050830499716360888 0.16581036270255828 0.19893305787746474
v 0.050840628263648158 0.16586647991988573 0.19893305787746474
v 0.034058181731928594 0.1425739339719469 0.17469943372803798
v 0.033339078686034973 0.13966996538594306 0.17277631288204776
v 0.048207292556239956 0.17379745065407809 0.17277631288204776
v 0.033612542968745107 0.1425739339719469 0.17277631288204776
v 0.073578461449533894 0.13418468706079395 0.19893305787746474
v 0.0714312808591403 0.13487677920413349 0.19893305787746474
v 0.073578461449533894 0.12602458040280334 0.19554695398900335
v 0.025631511797586437 0.12602458040280334 0.14371720333002208
v 0.028153435649516723 0.14195666622816533 0.10596277381381158
v 0.037309339341721814 0.16135854687920187 0.10596277381381158
v 0.043001392425147167 0.1732456472246931 0.10764992483478836
v 0.040043956192638619 0.14098867237013329 0.19476827023451071
v 0.026178436033642616 0.12602458040280334 0.14663137189782066
v 0.050435499360249658 0.16000242553055061 0.19893305787746474
v 0.041623955452401495 0.14052572480932018 0.19518120931072658
v 0.047437548938592033 0.13966996538594306 0.19616046384475527
v 0.065415125085932557 0.13755160753697498 0.19893305787746474
v 0.060239608432019531 0.14085306369875944 0.19893305787746474
v 0.058781146327998773 0.1422980322572544 0.19893305787746474
v 0.057332811688924262 0.14375235657154667 0.19893305787746474
v 0.05407152877886684 0.14898043603486971 0.19893305787746474
v 0.053038449425796053 0.1512858397299584 0.19893305787746474
v 0.051428064524171369 0.15510168495666682 0.19893305787746474
v 0.050789987691893856 0.15709845694454677 0.19893305787746474
v 0.025702409463915277 0.12602458040280334 0.14416553712235125
v 0.067774996510630625 0.13646671218979961 0.19893305787746474
v 0.053251142424782572 0.13676131675735853 0.19608967441252867
v 0.067774996510630625 0.12850768717630762 0.19544077200534549
v 0.07209974333327962 0.12602458040280334 0.19518120931072658
v 0.049331524505532076 0.12602458040280334 0.17480561571169584
v 0.051296397738800958 0.12602458040280334 0.17691750549071428
v 0.045665111609735132 0.13806600093126303 0.19480366278594197
v 0.026279717177151218 0.12602458040280334 0.14682014516021297
v 0.027464716080802865 0.12602458040280334 0.14854269089730304
v 0.047437548938592033 0.13764981050261599 0.19520480434501408
v 0.044632034421346389 0.13956241099386885 0.19546436703963299
v 0.071309742621057159 0.12620695919443553 0.19505142796341712
v 0.057525247593336243 0.13236561815132958 0.19463848888720126
f 1 2 7
f 1 7 3
f 1 3 10
f 1 10 33
f 1 33 57
f 1 57 69
f 1 69 78
f 1 78 89
f 1 89 107
f 1 107 120
f 1 120 130
f 1 130 145
f 1 145 154
f 1 154 134
f 1 134 122
f 1 122 108
f 1 108 91
f 1 91 79
f 1 79 70
f 1 70 58
f 1 58 34
f 1 34 11
f 1 11 4
f 1 4 2
f 2 4 5
f 2 5 6
f 2 6 22
f 2 22 7
f 3 7 8
f 3 8 9
f 3 9 10
f 4 11 12
f 4 12 13
f 4 13 14
f 4 14 15
f 4 15 16
f 4 16 17
f 4 17 5
f 5 18 19
f 5 19 20
f 5 20 21
f 5 21 6
f 5 17 18
f 6 21 44
f 6 44 22
f 7 22 23
f 7 23 8
f 8 23 24
f 8 24 25
f 8 25 26
f 8 26 27
f 8 27 28
f 8 28 9
f 9 28 29
f 9 29 30
f 9 30 31
f 9 31 32
f 9 32 10
f 10 32 33
f 11 34 35
f 11 35 36
f 11 36 37
f 11 37 13
f 11 13 12
f 13 37 36
f 13 36 35
f 13 35 60
f 13 60 59
f 13 59 71
f 13 71 80
f 13 80 92
f 13 92 91
f 13 91 108
f 13 108 121
f 13 121 131
f 13 131 146
f 13 146 151
f 13 151 150
f 13 150 149
f 13 149 165
f 13 165 175
f 13 175 174
f 13 174 173
f 13 173 172
f 13 172 171
f 13 171 170
f 13 170 169
f 13 169 168
f 13 168 177
f 13 177 157
f 13 157 156
f 13 156 138
f 13 138 123
f 13 123 112
f 13 112 111
f 13 111 110
f 13 110 109
f 13 109 93
f 13 93 83
f 13 83 82
f 13 82 74
f 13 74 72
f 13 72 61
f 13 61 38
f 13 38 14
f 14 38 15
f 15 38 39
f 15 39 40
f 15 40 17
f 15 17 16
f 17 40 63
f 17 63 62
f 17 62 73
f 17 73 81
f 17 81 94
f 17 94 113
f 17 113 124
f 17 124 139
f 17 139 158
f 17 158 180
f 17 180 182
f 17 182 181
f 17 181 185
f 17 185 184
f 17 184 164
f 17 164 176
f 17 176 159
f 17 159 140
f 17 140 125
f 17 125 114
f 17 114 95
f 17 95 84
f 17 84 75
f 17 75 64
f 17 64 48
f 17 48 46
f 17 46 45
f 17 45 41
f 17 41 18
f 18 41 42
f 18 42 19
f 19 42 43
f 19 43 20
f 20 43 44
f 20 44 21
f 22 44 23
f 23 44 43
f 23 43 42
f 23 42 41
f 23 41 24
f 24 41 26
f 24 26 25
f 26 41 45
f 26 45 27
f 27 46 29
f 27 29 47
f 27 47 28
f 27 45 46
f 28 47 29
f 29 46 48
f 29 48 49
f 29 49 50
f 29 50 31
f 29 31 30
f 31 50 32
f 32 50 49
f 32 49 51
f 32 51 33
f 33 51 52
f 33 52 53
f 33 53 54
f 33 54 55
f 33 55 56
f 33 56 57
f 34 58 59
f 34 59 60
f 34 60 35
f 38 61 62
f 38 62 63
f 38 63 39
f 39 63 40
f 48 64 49
f 49 52 51
f 49 64 65
f 49 65 66
f 49 66 67
f 49 67 54
f 49 54 53
f 49 53 52
f 54 67 55
f 55 67 56
f 56 68 76
f 56 76 75
f 56 75 84
f 56 84 90
f 56 90 85
f 56 85 77
f 56 77 69
f 56 69 57
f 56 67 68
f 58 70 71
f 58 71 59
f 61 72 62
f 62 72 74
f 62 74 73
f 64 75 76
f 64 76 65
f 65 76 66
f 66 76 67
f 67 76 68
f 69 77 78
f 70 79 80
f 70 80 71
f 73 74 82
f 73 82 83
f 73 83 81
f 77 85 78
f 78 86 87
f 78 87 88
f 78 88 89
f 78 85 90
f 78 90 86
f 79 91 92
f 79 92 80
f 81 83 93
f 81 93 94
f 84 95 90
f 86 95 96
f 86 96 97
f 86 97 98
f 86 98 87
f 86 90 95
f 87 98 88
f 88 98 97
f 88 97 96
f 88 96 99
f 88 99 100
f 88 100 101
f 88 101 102
f 88 102 103
f 88 103 104
f 88 104 105
f 88 105 106
f 88 106 89
f 89 106 107
f 93 109 94
f 94 109 110
f 94 110 111
f 94 111 112
f 94 112 113
f 95 114 102
f 95 102 101
f 95 101 100
f 95 100 99
f 95 99 96
f 102 114 115
f 102 115 116
f 102 116 117
f 102 117 103
f 103 117 106
f 103 106 104
f 104 106 105
f 106 118 119
f 106 119 107
f 106 117 118
f 107 119 120
f 108 122 121
f 112 123 113
f 113 123 124
f 114 125 115
f 115 125 126
f 115 126 127
f 115 127 118
f 115 118 116
f 116 118 117
f 118 127 119
f 119 127 126
f 119 126 128
f 119 128 120
f 120 128 129
f 120 129 143
f 120 143 130
f 121 122 132
f 121 132 131
f 122 133 132
f 122 134 135
f 122 135 136
f 122 136 137
f 122 137 133
f 123 138 124
f 124 138 139
f 125 140 160
f 125 160 141
f 125 141 128
f 125 128 126
f 128 141 142
f 128 142 129
f 129 142 161
f 129 161 143
f 130 143 144
f 130 144 145
f 131 132 146
f 132 147 148
f 132 148 149
f 132 149 150
f 132 150 151
f 132 151 146
f 132 133 137
f 132 137 152
f 132 152 153
f 132 153 147
f 134 154 135
f 135 154 136
f 136 154 137
f 137 155 152
f 137 154 144
f 137 144 140
f 137 140 155
f 138 156 139
f 139 156 157
f 139 157 158
f 140 159 155
f 140 144 160
f 141 160 161
f 141 161 142
f 143 161 144
f 144 162 145
f 144 161 160
f 144 154 162
f 145 162 154
f 147 163 148
f 147 153 164
f 147 164 163
f 148 165 149
f 148 163 166
f 148 166 167
f 148 167 168
f 148 168 169
f 148 169 170
f 148 170 171
f 148 171 172
f 148 172 173
f 148 173 174
f 148 174 175
f 148 175 165
f 152 155 153
f 153 155 164
f 155 159 176
f 155 176 164
f 157 177 158
f 158 178 179
f 158 179 180
f 158 177 168
f 158 168 178
f 163 181 182
f 163 182 183
f 163 183 166
f 163 164 184
f 163 184 185
f 163 185 181
f 166 186 187
f 166 187 167
f 166 183 186
f 167 187 186
f 167 186 178
f 167 178 168
f 178 186 179
f 179 186 180
f 180 186 188
f 180 188 182
f 182 188 189
f 182 189 183
f 183 189 188
f 183 188 186
