v 0.048156695278126549 0.17380016083599809 0.11463261763501204
v 0.048165332359485002 0.17380016083599809 0.16987020126081964
v 0.048329384952926546 0.17419111973073181 0.11463261763501204
v 0.11473712839569444 0.17380016083599809 0.11463261763501204
v 0.048199867696826548 0.17380016083599809 0.17235399640321414
v 0.048355287538273728 0.17420740679843633 0.16987020126081964
v 0.051161494753773684 0.18018856182766291 0.11463261763501204
v 0.061229290239457668 0.20153392865336645 0.16987020126081964
v 0.061229290239457668 0.20153392865336645 0.13210994009118066
v 0.12529708815574919 0.17737581727238788 0.11463261763501204
v 0.11663671481849441 0.17380016083599809 0.11550730936755232
v 0.048208504778185002 0.17380016083599809 0.17277483656889325
v 0.049918127363468068 0.17743826402001411 0.17277483656889325
v 0.054692991676451086 0.18762224448508463 0.17161958472590022
v 0.057507831643945406 0.19360882853687938 0.1175867635508126
v 0.054131754562715184 0.18643579091509893 0.11463261763501204
v 0.061281097574834076 0.20153392865336645 0.17277483656889325
v 0.061237925156134076 0.20153392865336645 0.12975817540074008
v 0.060331304363434091 0.19958998356610597 0.12339603416695982
v 0.12542660541184919 0.17802742120276288 0.19311553549336302
v 0.1210316601151718 0.17380016083599809 0.16988670479672863
v 0.1210316601151718 0.17380016083599809 0.12920530478310704
v 0.12101439461118307 0.17380016083599809 0.12630066947503343
v 0.12078125835496617 0.17380016083599809 0.12325575411173345
v 0.12019411865588309 0.17380016083599809 0.12049139885888621
v 0.11914933919636056 0.17380016083599809 0.11794158957285578
v 0.11788007355007185 0.17380016083599809 0.11645626701168305
v 0.11678349757858314 0.17380016083599809 0.11560633058300623
v 0.12685992798094353 0.1797595911162238 0.11463261763501204
v 0.12687720214366044 0.1797595911162238 0.12630066947503343
v 0.12687720214366044 0.1797595911162238 0.19311553549336302
v 0.048553884127784996 0.17380016083599809 0.17465624832124571
v 0.057568273895998223 0.19349208290484327 0.17430142229920254
v 0.054718898591162357 0.18757066444132292 0.17355050708597963
v 0.057542369145968997 0.19354095276668498 0.11577961771005058
v 0.054701628757809539 0.18761138643994829 0.11463261763501204
v 0.059485125822786922 0.19777364215601795 0.12049139885888621
v 0.060348574196786908 0.19951667877334339 0.12049139885888621
v 0.060417649200834089 0.19941893904965996 0.17440044351465644
v 0.065520625194746329 0.20153392865336645 0.19311553549336302
v 0.061263827741481258 0.20153392865336645 0.12685354009266647
v 0.12508986747297174 0.17831521135124501 0.19517848614071431
v 0.1159286906153057 0.17380016083599809 0.19484016365458012
v 0.12095394802976617 0.17380016083599809 0.17277483656889325
v 0.12759385909884352 0.18119040265414627 0.11463261763501204
v 0.12760249185083788 0.18121211874441895 0.19311553549336302
v 0.12750751426144352 0.18140759819178581 0.19484841542253462
v 0.053285576022068015 0.17380016083599809 0.19892480610951024
v 0.053561876038256739 0.17447348085664577 0.19893305787746474
v 0.053587782952968011 0.17453320876362383 0.19893305787746474
v 0.056937957448851051 0.19214001384097973 0.11463261763501204
v 0.055271502952903895 0.18877883410158131 0.11463261763501204
v 0.060409016448839725 0.19937277936973824 0.11873376362585114
v 0.061367442412234074 0.20153392865336645 0.12385813533709344
v 0.054477133912315179 0.17637126626398453 0.19893305787746474
v 0.065943714465069914 0.20153392865336645 0.19496394017389751
v 0.12598784685494918 0.18040033700146246 0.19549206198171321
v 0.10555004895268122 0.17380016083599809 0.19892480610951024
v 0.1135196679201001 0.17380016083599809 0.19611094457830014
v 0.11426223178999445 0.17380016083599809 0.19581388093193841
v 0.11560057676969443 0.17380016083599809 0.19512072376503287
v 0.13130667844831528 0.18905576620492709 0.11463261763501204
v 0.13130667844831528 0.18905576620492709 0.19311553549336302
v 0.13606428591603775 0.19918272894493955 0.19460086238389984
v 0.1332149062818378 0.19325588145885103 0.19469163183139926
v 0.13358618388742088 0.19486587671770766 0.19509596846116939
v 0.13077134391992656 0.18905576620492709 0.19517848614071431
v 0.12794787120043788 0.18324837453279469 0.19524450028435025
v 0.053605048456956739 0.17380016083599809 0.19893305787746474
v 0.057654618733398222 0.19335090234188629 0.11463261763501204
v 0.061427884664286891 0.20153392865336645 0.12339603416695982
v 0.061773261849204841 0.20153392865336645 0.12119280129970011
v 0.062006393776057656 0.20153392865336645 0.12049139885888621
v 0.062610807637857646 0.20153392865336645 0.11922062226453028
v 0.062938917154104823 0.20153392865336645 0.11857698003471578
v 0.061125677733386896 0.19891937372737828 0.11679458949781724
v 0.059994559930510505 0.19698357650333415 0.11534226967909839
v 0.055383750375651075 0.17782108371025968 0.19893305787746474
v 0.067774221554458614 0.20153392865336645 0.19587164330761986
v 0.056842977694774643 0.17988448461147627 0.19893305787746474
v 0.12587559510283791 0.18324837453279469 0.19620996579375405
v 0.10532554977782277 0.17453049858170383 0.19893305787746474
v 0.10523920494042277 0.17380016083599809 0.19893305787746474
v 0.12587559510283791 0.18615342978918498 0.19647402236829781
v 0.12877678856646041 0.19196082146131738 0.19646577060034331
v 0.13168660612334909 0.19777364215601795 0.19644101529647984
v 0.13168660612334909 0.20067869741240824 0.1964822741362523
v 0.13606428591603775 0.19914200694631418 0.11463261763501204
v 0.13607291000930394 0.19916372303658686 0.19311553549336302
v 0.13634921868422084 0.20067869741240824 0.19311553549336302
v 0.13619380317213775 0.20067869741240824 0.19481540835071665
v 0.1346136891842265 0.19803699737357922 0.19531876619594069
v 0.13168660612334909 0.19486587671770766 0.19606143397057318
v 0.058932521461045384 0.1949961992355283 0.11463261763501204
v 0.063059799493528412 0.19938364607360276 0.11597766014095839
v 0.060434919034186907 0.19669578635485202 0.11463261763501204
v 0.06931979371098218 0.20153392865336645 0.11463261763501204
v 0.058008630834992581 0.18133701223967141 0.19893305787746474
v 0.05945922323743974 0.18282755168457193 0.19893305787746474
v 0.060987525560610489 0.18428007931276708 0.19893305787746474
v 0.062438117963057649 0.18550454469945815 0.19893305787746474
v 0.068629035011782191 0.20153392865336645 0.19606143397057318
v 0.10446210140382278 0.17643371301161076 0.19893305787746474
v 0.13458778226951523 0.20067869741240824 0.19576437032421146
v 0.13458778226951523 0.20153392865336645 0.19555807612534915
v 0.1328695269322378 0.20153392865336645 0.19597891629102826
v 0.13165205779791528 0.20153392865336645 0.19619346225784506
v 0.12877678856646041 0.20153392865336645 0.19639975645670738
v 0.12587559510283791 0.20153392865336645 0.1964822741362523
v 0.082297406753554847 0.19143954004876301 0.19893305787746474
v 0.08440421818849636 0.19088839468271962 0.19893305787746474
v 0.091018226672226532 0.18878970080544583 0.19893305787746474
v 0.092874640676326503 0.18795619431348848 0.19893305787746474
v 0.094325228749409573 0.18688104869424255 0.19893305787746474
v 0.096224815172209544 0.1854285210660474 0.19893305787746474
v 0.097675407574656703 0.18415789599943461 0.19893305787746474
v 0.099186442229156679 0.18270265818931947 0.19893305787746474
v 0.10063703030223975 0.18120397953993078 0.19893305787746474
v 0.10192357011124537 0.17974873307108746 0.19893305787746474
v 0.10337415818432844 0.1778862406398059 0.19893305787746474
v 0.13607291000930394 0.19916372303658686 0.11463261763501204
v 0.13634921868422084 0.20070313234332909 0.11463261763501204
v 0.13634058593222648 0.20153392865336645 0.19311553549336302
v 0.13621106867612648 0.20153392865336645 0.19483191188662563
v 0.13634921868422084 0.20067869741240824 0.11463261763501204
v 0.13544259789152086 0.20153392865336645 0.19529401089207721
v 0.062135911032157654 0.19764332829692549 0.11463261763501204
v 0.13634058593222648 0.20153392865336645 0.11463261763501204
v 0.064363604806522756 0.18695435348700512 0.19893305787746474
v 0.070675406359352932 0.20153392865336645 0.19644101529647984
v 0.12296577754594923 0.20153392865336645 0.19649052590420679
v 0.079396226278024618 0.19162144261034536 0.19893305787746474
v 0.065814197208969916 0.18801592222046654 0.19893305787746474
v 0.071530217651994465 0.20153392865336645 0.19645751883238882
v 0.067774221554458614 0.18888200284783291 0.19893305787746474
v 0.074267345534083151 0.19091825863620865 0.19893305787746474
v 0.07648640655645389 0.19148026204738838 0.19893305787746474
v 0.079396226278024618 0.20153392865336645 0.19649052590420679
v 0.073585223916241616 0.20153392865336645 0.1964822741362523
f 1 2 3
f 1 3 7
f 1 7 16
f 1 16 36
f 1 36 52
f 1 52 51
f 1 51 70
f 1 70 94
f 1 94 96
f 1 96 127
f 1 127 97
f 1 97 128
f 1 128 122
f 1 122 125
f 1 125 121
f 1 121 88
f 1 88 62
f 1 62 45
f 1 45 29
f 1 29 10
f 1 10 4
f 1 4 11
f 1 11 28
f 1 28 27
f 1 27 26
f 1 26 25
f 1 25 24
f 1 24 23
f 1 23 22
f 1 22 21
f 1 21 44
f 1 44 43
f 1 43 61
f 1 61 60
f 1 60 59
f 1 59 58
f 1 58 83
f 1 83 69
f 1 69 48
f 1 48 32
f 1 32 12
f 1 12 5
f 1 5 2
f 2 5 6
f 2 6 3
f 3 6 8
f 3 8 9
f 3 9 7
f 4 10 11
f 5 12 13
f 5 13 14
f 5 14 6
f 6 14 8
f 7 15 16
f 7 9 15
f 8 17 40
f 8 40 56
f 8 56 79
f 8 79 102
f 8 102 130
f 8 130 134
f 8 134 139
f 8 139 138
f 8 138 131
f 8 131 109
f 8 109 108
f 8 108 107
f 8 107 106
f 8 106 105
f 8 105 126
f 8 126 124
f 8 124 123
f 8 123 128
f 8 128 97
f 8 97 75
f 8 75 74
f 8 74 73
f 8 73 72
f 8 72 71
f 8 71 54
f 8 54 41
f 8 41 18
f 8 18 9
f 8 14 17
f 9 18 19
f 9 19 15
f 10 20 21
f 10 21 22
f 10 22 23
f 10 23 24
f 10 24 25
f 10 25 26
f 10 26 27
f 10 27 28
f 10 28 11
f 10 29 30
f 10 30 31
f 10 31 20
f 12 32 33
f 12 33 34
f 12 34 13
f 13 34 17
f 13 17 14
f 15 35 36
f 15 36 16
f 15 19 37
f 15 37 38
f 15 38 35
f 17 39 40
f 17 34 33
f 17 33 39
f 18 41 19
f 19 41 38
f 19 38 37
f 20 42 43
f 20 43 44
f 20 44 21
f 20 31 42
f 29 45 30
f 30 45 31
f 31 45 46
f 31 46 47
f 31 47 42
f 32 48 49
f 32 49 50
f 32 50 33
f 33 50 39
f 35 51 52
f 35 52 36
f 35 38 53
f 35 53 51
f 38 41 54
f 38 54 53
f 39 50 55
f 39 55 40
f 40 55 56
f 42 47 57
f 42 57 58
f 42 58 59
f 42 59 60
f 42 60 61
f 42 61 43
f 45 62 63
f 45 63 46
f 46 63 64
f 46 64 65
f 46 65 47
f 47 65 66
f 47 66 67
f 47 67 68
f 47 68 57
f 48 69 49
f 49 69 83
f 49 83 82
f 49 82 103
f 49 103 120
f 49 120 119
f 49 119 118
f 49 118 117
f 49 117 116
f 49 116 115
f 49 115 114
f 49 114 113
f 49 113 112
f 49 112 111
f 49 111 110
f 49 110 132
f 49 132 137
f 49 137 136
f 49 136 135
f 49 135 133
f 49 133 129
f 49 129 101
f 49 101 100
f 49 100 99
f 49 99 98
f 49 98 80
f 49 80 78
f 49 78 55
f 49 55 50
f 51 53 70
f 53 54 71
f 53 71 72
f 53 72 73
f 53 73 74
f 53 74 75
f 53 75 76
f 53 76 77
f 53 77 70
f 55 78 56
f 56 78 80
f 56 80 79
f 57 81 58
f 57 68 81
f 58 82 83
f 58 81 84
f 58 84 85
f 58 85 86
f 58 86 87
f 58 87 82
f 62 88 63
f 63 88 89
f 63 89 64
f 64 89 90
f 64 90 91
f 64 91 92
f 64 92 66
f 64 66 65
f 66 92 67
f 67 93 68
f 67 92 93
f 68 93 81
f 70 77 94
f 75 95 96
f 75 96 76
f 75 97 95
f 76 96 77
f 77 96 94
f 79 80 98
f 79 98 99
f 79 99 100
f 79 100 101
f 79 101 102
f 81 93 86
f 81 86 85
f 81 85 84
f 82 87 103
f 86 93 104
f 86 104 87
f 87 104 105
f 87 105 106
f 87 106 107
f 87 107 108
f 87 108 109
f 87 109 110
f 87 110 111
f 87 111 112
f 87 112 113
f 87 113 114
f 87 114 115
f 87 115 116
f 87 116 117
f 87 117 118
f 87 118 119
f 87 119 120
f 87 120 103
f 88 121 89
f 89 121 125
f 89 125 90
f 90 122 123
f 90 123 124
f 90 124 91
f 90 125 122
f 91 124 126
f 91 126 104
f 91 104 92
f 92 104 93
f 95 127 96
f 95 97 127
f 101 129 102
f 102 129 130
f 104 126 105
f 109 131 132
f 109 132 110
f 122 128 123
f 129 133 130
f 130 133 135
f 130 135 136
f 130 136 137
f 130 137 134
f 131 138 132
f 132 138 139
f 132 139 137
f 134 137 139
