v 0.13634348660616641 0.20153393731209462 0.19311091606187958
v 0.13632780564943442 0.20242086815691579 0.19311091606187958
v 0.13623373722649884 0.20232498140106264 0.19485645938101281
v 0.13621806492849503 0.20153393731209462 0.19483334057677515
v 0.13634348660616641 0.20153393731209462 0.082725440246105508
v 0.13458755714258258 0.20341268217616798 0.19311091606187958
v 0.13632780564943442 0.20242086815691579 0.082725440246105508
v 0.1305505030577237 0.20518954844448839 0.19481021744317339
v 0.13458755714258258 0.2027744473221012 0.19524949637050948
v 0.13544200043927651 0.20153393731209462 0.19529573397898481
v 0.13628861624569671 0.20153393731209462 0.081673487030286762
v 0.13623373722649884 0.20232498140106264 0.080702458288028023
v 0.13215748507917408 0.20457828552869889 0.19311091606187958
v 0.13458755714258258 0.20341268217616798 0.082725440246105508
v 0.12462426168260771 0.20803913588816464 0.19472930162834157
v 0.075278098356544643 0.23130025498217816 0.19475242043257923
v 0.08120434189634268 0.22844768027728019 0.19483334057677515
v 0.087130583271458673 0.22559809283360394 0.19490269698948814
v 0.093056828975938755 0.22274550946997779 0.1949604983294464
v 0.10490931172617074 0.21704634324135347 0.19505297787576115
v 0.12877890129613606 0.20560605058734988 0.19520325443267006
v 0.13287083440019282 0.20153393731209462 0.19597776900954456
v 0.13458755714258258 0.20153393731209462 0.19555005381369139
v 0.091018702902276372 0.22322493459051534 0.19534197591682423
v 0.10844467910034411 0.21474810031446873 0.19544601486525781
v 0.12297024544968954 0.20649299009089922 0.19609336736009697
v 0.12877890129613606 0.2035864715094467 0.19616272810217406
v 0.13621806492849503 0.20153393731209462 0.080748695896503353
v 0.13458755714258258 0.2027744473221012 0.080136021608020691
v 0.1305505030577237 0.20518954844448839 0.080794937834342773
v 0.13458755714258258 0.20153393731209462 0.079685187607929864
v 0.13070728664885906 0.20526446376069224 0.19311091606187958
v 0.11869802030749171 0.21088872333184089 0.19463682208202682
v 0.13215748507917408 0.20457828552869889 0.082725440246105508
v 0.073584886225842638 0.23166283056594145 0.19515701682419473
v 0.075403522198898065 0.23135719477868261 0.19311091606187958
v 0.073584886225842638 0.23214224702775083 0.19311091606187958
v 0.079393542072289158 0.22887616609994127 0.19522637756627181
v 0.085202202248099768 0.2260535505945423 0.19529573397898481
v 0.13165579836848856 0.20153393731209462 0.19619740630853055
v 0.073584886225842638 0.22973313774526344 0.19611648616433464
v 0.085202202248099768 0.22392010924108657 0.19625520764848881
v 0.091018702902276372 0.22101658657958395 0.19630144525696414
v 0.096819522599720986 0.21811006799813143 0.19634768719480356
v 0.10262817844616751 0.21520654533662881 0.19638236540116005
v 0.10844467910034411 0.21230302267512619 0.19640548420539772
v 0.12006199512260124 0.20649299009089922 0.19645172614323714
v 0.12587065096904776 0.2035864715094467 0.19646328554535597
v 0.12877890129613606 0.20560605058734988 0.080205382350097776
v 0.13083270832653043 0.20153393731209462 0.078517636041558703
v 0.12877890129613606 0.2035864715094467 0.07878351527838412
v 0.096819522599720986 0.22040531500506627 0.079951062515391191
v 0.091018702902276372 0.22322793051046524 0.080008863855349444
v 0.098975229872688752 0.21989593068502972 0.080459697855440271
v 0.093056828975938755 0.22274550946997779 0.080540617999636188
v 0.087130583271458673 0.22559809283360394 0.080633097545950938
v 0.08120434189634268 0.22844768027728019 0.080748695896503353
v 0.075278098356544643 0.23130025498217816 0.080887417380657523
v 0.12462426168260771 0.20803913588816464 0.080945214391251685
v 0.12877890129613606 0.20617537062384078 0.19311091606187958
v 0.13070728664885906 0.20526446376069224 0.082725440246105508
v 0.1201952616080027 0.21022651245944673 0.19311091606187958
v 0.11869802030749171 0.21088872333184089 0.081118614081762352
v 0.071523243046446361 0.23171076528513984 0.19515701682419473
v 0.075403522198898065 0.23135719477868261 0.082725440246105508
v 0.071225363314953771 0.23197146227315019 0.19311091606187958
v 0.073584886225842638 0.23214224702775083 0.082725440246105508
v 0.12877890129613606 0.20153393731209462 0.19639392480327889
v 0.076493134388248896 0.22682661916381092 0.1964748449474748
v 0.070676635898754336 0.22682661916381092 0.19611648616433464
v 0.073584886225842638 0.22682661916381092 0.19649796375171247
v 0.08811045257518807 0.22101658657958395 0.19649796375171247
v 0.12587065096904776 0.20153393731209462 0.19648640434959364
v 0.12297024544968954 0.2035864715094467 0.19649796375171247
v 0.085202202248099768 0.2260535505945423 0.080078224597426528
v 0.12792445799944213 0.20153393731209462 0.07841359709312512
v 0.12587065096904776 0.2035864715094467 0.07841359709312512
v 0.11425333494679063 0.20939651275240184 0.078425156495243953
v 0.091018702902276372 0.22101658657958395 0.078575437381516955
v 0.079393542072289158 0.22682661916381092 0.0787372733405447
v 0.10844467910034411 0.21230302267512619 0.078448275299481618
v 0.10262817844616751 0.21520654533662881 0.078482957835202205
v 0.073584886225842638 0.22973313774526344 0.078852871691097115
v 0.079393542072289158 0.22887616609994127 0.080170699814377189
v 0.073584886225842638 0.23166283056594145 0.080274738762810771
v 0.12877890129613606 0.20617537062384078 0.082725440246105508
v 0.1201952616080027 0.21022651245944673 0.082725440246105508
v 0.069767320076908668 0.23009570467029855 0.19311091606187958
v 0.069108847610405755 0.22852258693475586 0.19475242043257923
v 0.070606086746234697 0.22958631169153382 0.19542289173165606
v 0.071225363314953771 0.23197146227315019 0.082725440246105508
v 0.071523243046446361 0.23171076528513984 0.080332540102769023
v 0.064867977887625772 0.21230302267512619 0.19641704360751655
v 0.067776226050032029 0.21811006799813143 0.19644016674111831
v 0.070676635898754336 0.22392010924108657 0.19645172614323714
v 0.068709061142293637 0.22682661916381092 0.19515701682419473
v 0.062390871612749477 0.21230302267512619 0.19544601486525781
v 0.067776226050032029 0.22101658657958395 0.19603557034950281
v 0.070676635898754336 0.22101658657958395 0.19649796375171247
v 0.12297024544968954 0.20153393731209462 0.19649796375171247
v 0.12501620767235383 0.20153393731209462 0.078402037691006288
v 0.12297024544968954 0.2035864715094467 0.078402037691006288
v 0.076493134388248896 0.22682661916381092 0.07841359709312512
v 0.073584886225842638 0.22682661916381092 0.078402037691006288
v 0.070676635898754336 0.22682661916381092 0.078852871691097115
v 0.069053975085254016 0.2286424410502082 0.19311091606187958
v 0.069767320076908668 0.23009570467029855 0.082725440246105508
v 0.063409934649580668 0.21667179263651876 0.19457902074206856
v 0.066263310286835186 0.22259568749629827 0.19467150028838331
v 0.063065020706620289 0.21520654533662881 0.19497205773156523
v 0.065887040924456963 0.22101658657958395 0.19507609667999881
v 0.070606086746234697 0.22958631169153382 0.079904824906915861
v 0.069108847610405755 0.22852258693475586 0.080887417380657523
v 0.064867977887625772 0.20939651275240184 0.19648640434959364
v 0.064867977887625772 0.21520654533662881 0.19594309080318806
v 0.061708882040512669 0.20957329800563046 0.19551537127797081
v 0.067776226050032029 0.21520654533662881 0.19649796375171247
v 0.060321390119669249 0.20871932228025819 0.19486801878313165
v 0.08811045257518807 0.20153393731209462 0.19649796375171247
v 0.064867977887625772 0.20153393731209462 0.078402037691006288
v 0.064867977887625772 0.20649299009089922 0.078402037691006288
v 0.070676635898754336 0.22392010924108657 0.07841359709312512
v 0.058996609037661518 0.20153393731209462 0.078818193484740617
v 0.059553174767544903 0.20649299009089922 0.079893265504797029
v 0.068709061142293637 0.22682661916381092 0.080286302494293693
v 0.064867977887625772 0.21230302267512619 0.078436715897362785
v 0.061959729725219514 0.20649299009089922 0.078471398433083372
v 0.066913942274972105 0.22411187409406469 0.19311091606187958
v 0.069053975085254016 0.2286424410502082 0.082725440246105508
v 0.062712268449975961 0.21520654533662881 0.19311091606187958
v 0.061356129783868341 0.21230302267512619 0.19311091606187958
v 0.060595752745427944 0.21056211610493275 0.19311091606187958
v 0.057248524381807775 0.20288231775775395 0.080448138453321438
v 0.063409934649580668 0.21667179263651876 0.0812457718344336
v 0.070676635898754336 0.20153393731209462 0.19644016674111831
v 0.071531081360130311 0.20153393731209462 0.19646328554535597
v 0.073584886225842638 0.20153393731209462 0.19648640434959364
v 0.067776226050032029 0.20939651275240184 0.19649796375171247
v 0.060321390119669249 0.2077335001009058 0.19486801878313165
v 0.061959729725219514 0.20726006682026804 0.19527261517474714
v 0.067776226050032029 0.20153393731209462 0.19587373006111097
v 0.068630671511408003 0.20153393731209462 0.19605868915374047
v 0.060219483383049721 0.2091088524848424 0.19311091606187958
v 0.073584886225842638 0.20649299009089922 0.19649796375171247
v 0.061959729725219514 0.20153393731209462 0.07841359709312512
v 0.061959729725219514 0.2035864715094467 0.07841359709312512
v 0.056934965858265241 0.20153393731209462 0.080136021608020691
v 0.060101900019062293 0.20880622127626164 0.080390341442727276
v 0.061340453156500441 0.21230302267512619 0.19020938057849401
v 0.066913942274972105 0.22411187409406469 0.082725440246105508
v 0.056260814599712383 0.20153393731209462 0.10596083642338155
v 0.056268655078078378 0.20153393731209462 0.082725440246105508
v 0.057758055900223371 0.20470712740400093 0.082725440246105508
v 0.061340453156500441 0.21230302267512619 0.082725440246105508
v 0.06551860987576269 0.20153393731209462 0.19311091606187958
v 0.065941913449608702 0.20153393731209462 0.1949604983294464
v 0.060219483383049721 0.20762862558520295 0.19311091606187958
v 0.061277740152982707 0.20153393731209462 0.17277704887394296
v 0.056260814599712383 0.20153393731209462 0.095302610921906505
f 1 2 3
f 1 3 4
f 1 4 10
f 1 10 23
f 1 23 22
f 1 22 40
f 1 40 68
f 1 68 73
f 1 73 100
f 1 100 119
f 1 119 137
f 1 137 136
f 1 136 135
f 1 135 142
f 1 142 141
f 1 141 156
f 1 156 155
f 1 155 158
f 1 158 151
f 1 151 159
f 1 159 152
f 1 152 147
f 1 147 123
f 1 123 145
f 1 145 120
f 1 120 101
f 1 101 76
f 1 76 50
f 1 50 31
f 1 31 28
f 1 28 11
f 1 11 5
f 1 5 7
f 1 7 2
f 2 6 3
f 2 7 14
f 2 14 6
f 3 6 8
f 3 8 9
f 3 9 10
f 3 10 4
f 5 11 12
f 5 12 7
f 6 13 8
f 6 14 34
f 6 34 13
f 7 12 14
f 8 13 15
f 8 15 16
f 8 16 17
f 8 17 18
f 8 18 19
f 8 19 20
f 8 20 21
f 8 21 9
f 9 22 23
f 9 23 10
f 9 21 24
f 9 24 25
f 9 25 26
f 9 26 27
f 9 27 22
f 11 28 12
f 12 29 30
f 12 30 14
f 12 28 31
f 12 31 29
f 13 32 33
f 13 33 15
f 13 34 61
f 13 61 32
f 14 30 34
f 15 33 16
f 16 35 17
f 16 33 36
f 16 36 37
f 16 37 35
f 17 35 38
f 17 38 18
f 18 38 19
f 19 38 20
f 20 38 39
f 20 39 21
f 21 39 24
f 22 27 40
f 24 39 41
f 24 41 26
f 24 26 25
f 26 41 42
f 26 42 27
f 27 42 43
f 27 43 44
f 27 44 45
f 27 45 46
f 27 46 47
f 27 47 48
f 27 48 40
f 29 49 30
f 29 31 50
f 29 50 51
f 29 51 52
f 29 52 53
f 29 53 49
f 30 49 54
f 30 54 55
f 30 55 56
f 30 56 57
f 30 57 58
f 30 58 59
f 30 59 34
f 32 60 33
f 32 61 86
f 32 86 60
f 33 60 62
f 33 62 36
f 34 59 63
f 34 63 61
f 35 37 64
f 35 64 41
f 35 41 38
f 36 62 87
f 36 87 65
f 36 65 67
f 36 67 37
f 37 66 64
f 37 67 91
f 37 91 66
f 38 41 39
f 40 48 68
f 41 69 42
f 41 64 70
f 41 70 71
f 41 71 69
f 42 69 43
f 43 69 44
f 44 69 45
f 45 69 46
f 46 69 47
f 47 69 72
f 47 72 48
f 48 73 68
f 48 72 74
f 48 74 73
f 49 53 75
f 49 75 54
f 50 76 77
f 50 77 78
f 50 78 51
f 51 79 80
f 51 80 52
f 51 78 81
f 51 81 82
f 51 82 79
f 52 80 53
f 53 80 83
f 53 83 75
f 54 75 84
f 54 84 55
f 55 84 56
f 56 84 85
f 56 85 57
f 57 85 58
f 58 63 59
f 58 85 67
f 58 67 65
f 58 65 63
f 60 86 87
f 60 87 62
f 61 63 86
f 63 65 87
f 63 87 86
f 64 66 88
f 64 88 89
f 64 89 90
f 64 90 70
f 66 91 107
f 66 107 88
f 67 85 92
f 67 92 91
f 69 71 72
f 70 93 94
f 70 94 95
f 70 95 71
f 70 90 96
f 70 96 97
f 70 97 98
f 70 98 93
f 71 95 99
f 71 99 117
f 71 117 138
f 71 138 144
f 71 144 119
f 71 119 100
f 71 100 74
f 71 74 72
f 73 74 100
f 75 83 84
f 76 101 102
f 76 102 77
f 77 102 103
f 77 103 78
f 78 103 81
f 79 82 103
f 79 103 80
f 80 103 83
f 81 103 82
f 83 103 104
f 83 104 105
f 83 105 92
f 83 92 85
f 83 85 84
f 88 106 89
f 88 107 129
f 88 129 106
f 89 108 109
f 89 109 110
f 89 110 111
f 89 111 96
f 89 96 90
f 89 106 108
f 91 92 107
f 92 105 112
f 92 112 113
f 92 113 107
f 93 114 94
f 93 98 115
f 93 115 97
f 93 97 116
f 93 116 114
f 94 114 95
f 95 114 117
f 95 117 99
f 96 111 97
f 97 115 98
f 97 111 110
f 97 110 118
f 97 118 116
f 101 120 121
f 101 121 104
f 101 104 102
f 102 104 103
f 104 121 146
f 104 146 122
f 104 122 105
f 105 123 124
f 105 124 125
f 105 125 112
f 105 122 126
f 105 126 127
f 105 127 123
f 106 128 108
f 106 129 150
f 106 150 128
f 107 113 129
f 108 118 110
f 108 110 109
f 108 128 130
f 108 130 131
f 108 131 132
f 108 132 118
f 112 125 113
f 113 125 133
f 113 133 134
f 113 134 129
f 114 135 136
f 114 136 137
f 114 137 138
f 114 138 117
f 114 116 139
f 114 139 140
f 114 140 141
f 114 141 142
f 114 142 135
f 116 118 139
f 118 132 143
f 118 143 157
f 118 157 139
f 119 144 137
f 120 145 146
f 120 146 121
f 122 146 126
f 123 147 124
f 123 127 146
f 123 146 145
f 124 147 125
f 125 147 148
f 125 148 133
f 126 146 127
f 128 149 130
f 128 150 154
f 128 154 149
f 129 134 150
f 130 149 131
f 131 149 132
f 132 149 151
f 132 151 143
f 133 148 147
f 133 147 152
f 133 152 134
f 134 152 153
f 134 153 154
f 134 154 150
f 137 144 138
f 139 155 156
f 139 156 141
f 139 141 140
f 139 157 158
f 139 158 155
f 143 151 157
f 149 154 159
f 149 159 151
f 151 158 157
f 152 159 153
f 153 159 154
