v -0.033369256834827554 0.0031146266015609769 0.078342829307718964
v -0.033335920731338786 0.0031146266015609769 0.10305042141424853
v -0.03325813937610772 0.0060272582451078027 0.078342829307718964
v -0.032258082247629216 0.012086870010363404 0.07834002820915309
v -0.033247030227854191 0.00021315605863675424 0.078342829307718964
v -0.033224811931347131 0.00020199495801415113 0.10305042141424853
v -0.032891450896459451 0.0031146266015609769 0.10521146029909245
v -0.032835896496463624 0.0060160971444851996 0.10514699173843645
v -0.033224811931347131 0.0060160971444851996 0.10305042141424853
v -0.032835896496463624 0.00020199495801415113 0.10514419063987057
v -0.032869232599952392 0.0089287287880320254 0.10305042141424853
v -0.033080349710410351 0.0074556713153247078 0.078342829307718964
v 0.042657575975983464 0.012086870010363404 0.07834002820915309
v 0.0038552217172394543 -0.033365798779364908 0.078342829307718964
v 0.00095504565417797727 -0.033310001934980071 0.078342829307718964
v -0.0005783804713926366 -0.033209569346833001 0.078342829307718964
v -0.0020229117641145655 -0.032997534411188079 0.078342829307718964
v -0.0048564199495625959 -0.032484193052373767 0.078342829307718964
v -0.0077565916832599835 -0.031691867471635271 0.078342829307718964
v -0.010445646306499412 -0.030754473558987472 0.078342829307718964
v -0.01190129107683896 -0.030207657557033529 0.078342829307718964
v -0.013579170764618176 -0.029326060488770567 0.078342829307718964
v -0.015968204785822782 -0.027964596704832922 0.078342829307718964
v -0.016690468267501701 -0.027518221949754229 0.078342829307718964
v -0.01742384522679824 -0.027049524993430329 0.078342829307718964
v -0.018412797536387304 -0.026324148698971095 0.078342829307718964
v -0.020846276809334208 -0.024493987958709551 0.078342829307718964
v -0.023757566350013304 -0.021592517415785328 0.078342829307718964
v -0.024968749247677946 -0.020119459943078011 0.078342829307718964
v -0.025679903581103336 -0.019237862874815048 0.078342829307718964
v -0.026402171392146345 -0.018322791163412455 0.078342829307718964
v -0.026902199956385597 -0.017597414868953221 0.078342829307718964
v -0.02739111937237132 -0.016883208333844768 0.078342829307718964
v -0.028846764142710868 -0.014472756948489651 0.078342829307718964
v -0.029635699831367324 -0.013010860576404937 0.078342829307718964
v -0.030335740687175095 -0.011403895872410919 0.078342829307718964
v -0.030891336639502442 -0.0099754741434658345 0.078342829307718964
v -0.031458033081355141 -0.0085024253294866958 0.078342829307718964
v -0.031846948516238649 -0.0072748774355639312 0.078342829307718964
v -0.032224746144140448 -0.0060250073403959603 0.078342829307718964
v -0.03254698937204642 -0.0045631196270394248 0.078342829307718964
v -0.032891450896459451 -0.0026994755849100716 0.078342829307718964
v -0.032891450896459451 0.0089287287880320254 0.078342829307718964
v -0.032224746144140448 0.01227658274476312 0.07834002820915309
v -0.032858114792970683 -0.0026994755849100716 0.10305042141424853
v -0.032502535461575943 -0.0043845593345341327 0.10461444099115724
v -0.032658098172038075 -0.0026994755849100716 0.10486950547648721
v -0.031002445439494097 0.00020199495801415113 0.10618967145637559
v -0.031002445439494097 0.0031146266015609769 0.10625694111559747
v -0.031002445439494097 0.0060160971444851996 0.10619247688430555
v -0.031002445439494097 0.0089287287880320254 0.10592059281948807
v -0.032669215979019783 0.0089287287880320254 0.10487511200298305
v -0.032502535461575943 0.01062497363827869 0.10461163989259137
v -0.031002445439494097 -0.0026994755849100716 0.10591779172092219
v -0.032524762416811182 0.010747728427670966 0.10305042141424853
v -0.032502535461575943 0.010903957860202873 0.10271967747995292
v -0.03255809852029995 0.010803525272055803 0.078342829307718964
v 0.041868640287327008 0.014742830974503074 0.07834002820915309
v 0.073559451211817117 0.080639709454715824 0.07840729786837497
v 0.073559451211817117 0.078642158181299771 0.07840729786837497
v 0.042857588267551983 0.0060272582451078027 0.078342829307718964
v 0.041957535120175693 0.0030141853546857278 0.078342829307718964
v 0.040979697370545271 0.00021315605863675424 0.078342829307718964
v 0.03894624051605336 -0.0056009547865624731 0.078342829307718964
v 0.03752393184920258 -0.0093170644527422186 0.078342829307718964
v 0.03666832503590961 -0.011281141083018642 0.078342829307718964
v 0.035101562806850228 -0.014439282305350021 0.078342829307718964
v 0.034368184765212667 -0.015800737430559486 0.078342829307718964
v 0.034101502431348657 -0.016191323999981522 0.078342829307718964
v 0.033468130535495355 -0.017106395711384115 0.078342829307718964
v 0.031923592014648144 -0.019282507277305461 0.078342829307718964
v 0.030734630660513629 -0.020744394990661996 0.078342829307718964
v 0.029278988054856125 -0.022329046152138987 0.078342829307718964
v 0.028512273909729796 -0.023065574888492646 0.078342829307718964
v 0.02776778455515666 -0.023779781423601098 0.078342829307718964
v 0.026312140867158135 -0.025040803960663494 0.078342829307718964
v 0.02536763922101648 -0.025777332697017152 0.078342829307718964
v 0.024434249970151423 -0.026491539232125605 0.078342829307718964
v 0.022989716512747449 -0.02755169659289386 0.078342829307718964
v 0.021289614199097084 -0.028533734908032071 0.078342829307718964
v 0.018811685345043794 -0.029817079646339673 0.078342829307718964
v 0.017367154052321865 -0.030486641778957713 0.078342829307718964
v 0.016411540010903614 -0.030854914805862721 0.078342829307718964
v 0.015467039447102982 -0.031212018073416947 0.078342829307718964
v 0.012566863384041504 -0.03212708978481954 0.078342829307718964
v 0.011100105136084337 -0.032461879509856739 0.078342829307718964
v 0.0096666873209800275 -0.032785499475543156 0.078342829307718964
v 0.0085999536561598977 -0.032964059768048448 0.078342829307718964
v 0.0075109995301506638 -0.033142611401825561 0.078342829307718964
v 0.0068220699872784674 -0.033198408246210398 0.078342829307718964
v 0.0060775795503643093 -0.033254205090595235 0.078342829307718964
v 0.0049441780079307329 -0.033321163035602674 0.078342829307718964
v 0.0035218693410799529 -0.033332315477497099 0.10271967747995292
v 0.00095504565417797727 -0.033298840834357468 0.099143174652883637
v 0.0052219716547303174 -0.033298840834357468 0.099143174652883637
v 0.0038552217172394543 -0.033332315477497099 0.10305042141424853
v -0.0006894979301124704 -0.033231891548078207 0.099143174652883637
v -0.0006894979301124704 -0.033231891548078207 0.082720968013001106
v -0.00062283005249902379 -0.033220721788727425 0.079814354185538616
v -0.0048564199495625959 -0.032461879509856739 0.099143174652883637
v -0.0077565916832599835 -0.031680715029740847 0.10305042141424853
v -0.0077565916832599835 -0.031691867471635271 0.079814354185538616
v -0.0021451427004520185 -0.032964059768048448 0.099143174652883637
v -0.010412310203010644 -0.030732151357742266 0.10305042141424853
v -0.0086788717858715114 -0.031357086405326251 0.099143174652883637
v -0.011867954973350192 -0.030185335355788323 0.10271967747995292
v -0.013579170764618176 -0.029292585845630936 0.099143174652883637
v -0.015968204785822782 -0.027942274503587716 0.099143174652883637
v -0.01742384522679824 -0.027060677435324754 0.10305042141424853
v -0.01742384522679824 -0.027060677435324754 0.082720968013001106
v -0.019301737206145975 -0.025609942163862642 0.10305042141424853
v -0.020746268498867904 -0.024415877571807687 0.10305042141424853
v -0.023735339394778066 -0.021570203873268301 0.10450512887726271
v -0.023735339394778066 -0.021581364973890904 0.099143174652883637
v -0.024957635770060327 -0.020119459943078011 0.099143174652883637
v -0.024968749247677946 -0.020119459943078011 0.079814354185538616
v -0.026235490874702505 -0.018534817440329199 0.10271967747995292
v -0.026402171392146345 -0.018322791163412455 0.099143174652883637
v -0.02650217537324856 -0.018166553072152369 0.10271967747995292
v -0.027357783268882552 -0.016883208333844768 0.099143174652883637
v -0.0288134280392221 -0.014461595847867048 0.099143174652883637
v -0.029635699831367324 -0.013010860576404937 0.099143174652883637
v -0.030324631538921565 -0.011403895872410919 0.099143174652883637
v -0.031435806126119903 -0.0085024253294866958 0.099143174652883637
v -0.03220251918890521 -0.0059580580541166994 0.099143174652883637
v -0.032235855292393978 -0.0058018199628566136 0.10271967747995292
v -0.032324754454606752 -0.0054558777959249904 0.099143174652883637
v -0.032535871565064711 -0.0045073227826545881 0.099143174652883637
v -0.031858057664492179 0.013504121979957706 0.07834002820915309
v -0.032269191395882746 0.012086870010363404 0.078342829307718964
v -0.032269191395882746 0.012086870010363404 0.078519415410199467
v -0.032246964440647508 0.012086870010363404 0.099143174652883637
v -0.03221362833715874 0.012209624799755681 0.10014661517939805
v -0.032524762416811182 -0.0045073227826545881 0.10305042141424853
v -0.03219141004065168 -0.0059580580541166994 0.10305042141424853
v -0.031413579170884665 -0.00851357777138112 0.10305042141424853
v -0.029602363727878556 -0.012966224832642703 0.10461163989259137
v -0.029935716104038057 -0.011403895872410919 0.10502366547298436
v -0.030480194249383696 -0.00851357777138112 0.10546652478442242
v -0.028091160228179091 -0.00851357777138112 0.10651200560092744
v -0.028091160228179091 -0.0056009547865624731 0.10659609483963683
v -0.028091160228179091 0.0060160971444851996 0.10659609483963683
v -0.028091160228179091 0.0089287287880320254 0.106590488313141
v -0.028091160228179091 0.011830199330956248 0.10651200560092744
v -0.028091160228179091 0.012086870010363404 0.10650079471261781
v -0.028091160228179091 0.014742830974503074 0.10638027171041364
v -0.030491303397637226 0.014742830974503074 0.10546652478442242
v -0.032235855292393978 0.012086870010363404 0.10305042141424853
v -0.029935716104038057 0.017644301517427297 0.10506010356584322
v -0.029624582024385615 0.019273588422666521 0.10465928887375986
v -0.031435806126119903 0.014742830974503074 0.10305042141424853
v -0.03220251918890521 0.012209624799755681 0.10305042141424853
v 0.039701842265903092 0.020556933160974122 0.07834002820915309
v 0.0038663351948570734 0.080639709454715824 0.07840729786837497
v 0.076470740752496213 0.080639709454715824 0.078496989304216114
v 0.035912723286059878 0.026482629036214844 0.07834002820915309
v 0.033090329660570489 0.02946221862476911 0.07834002820915309
v 0.030190153597509012 0.032374850268315936 0.07834002820915309
v 0.027234418805087618 0.035220523966855322 0.07834002820915309
v 0.024012000596461192 0.037809526985987552 0.07834002820915309
v 0.021300725512032659 0.039159829669302593 0.07834002820915309
v 0.015478148595356511 0.041938545422834539 0.07834002820915309
v 0.00092171388005329868 0.043645951373703806 0.07834002820915309
v 0.073559451211817117 0.075740687638375548 0.078410098966940844
v 0.076470740752496213 0.078642158181299771 0.078687585228890078
v 0.037335031952910658 -0.010131703575997741 0.082720968013001106
v 0.036623877619485268 -0.011571286405565429 0.082720968013001106
v 0.078570867649283616 0.078642158181299771 0.080117067652037077
v 0.07812639781440428 0.076767361697275993 0.080680452130361346
v 0.063414391729910757 0.045208280333935591 0.081204595252578837
v 0.036623877619485268 -0.011571286405565429 0.099143174652883637
v 0.034323738431129347 -0.015722627043657622 0.10305042141424853
v 0.03370147784821162 -0.016704656700067655 0.099143174652883637
v 0.033368124389711096 -0.017217989400153788 0.099143174652883637
v 0.035168233931486742 -0.014271891772195511 0.099143174652883637
v 0.035157121536210145 -0.014271891772195511 0.10305042141424853
v 0.031923592014648144 -0.019249023975437651 0.10305042141424853
v 0.03071240803464248 -0.020699759246899763 0.099143174652883637
v 0.029756793993224229 -0.02177107770829062 0.099143174652883637
v 0.029256763264302932 -0.022329046152138987 0.099143174652883637
v 0.028734509909510486 -0.022831226410330696 0.099143174652883637
v 0.027734449534008915 -0.023779781423601098 0.099143174652883637
v 0.026278805846010389 -0.025018490418146466 0.10305042141424853
v 0.02438980255372708 -0.026469225689608578 0.10305042141424853
v 0.022945269096323107 -0.027518221949754229 0.10305042141424853
v 0.022756370282372207 -0.027629815638523902 0.10271967747995292
v 0.021278500721479465 -0.028489090505541659 0.10305042141424853
v 0.018800574032108219 -0.029805918545717069 0.10271967747995292
v 0.017344929261768671 -0.030475489337063288 0.099143174652883637
v 0.016700444970638773 -0.030720998915847841 0.099143174652883637
v 0.015467039447102982 -0.031167373670926535 0.10305042141424853
v 0.015133684906261435 -0.031278967359696208 0.10271967747995292
v 0.012566863384041504 -0.03209361514167991 0.099143174652883637
v 0.0096555738433624083 -0.032740872390509101 0.10014661517939805
v 0.012233508843199958 -0.03216057308668735 0.10271967747995292
v 0.0073554346550064875 -0.033097975658063328 0.099143174652883637
v 0.0059331259881557075 -0.033265366191217838 0.10271967747995292
v 0.0060331342986220116 -0.033265366191217838 0.079814354185538616
v 0.00095504565417797727 -0.033287688392463044 0.10305042141424853
v 0.0059220168399021778 -0.033265366191217838 0.10305042141424853
v 0.0057220002189695696 -0.033231891548078207 0.10460603336609553
v 0.0038552217172394543 -0.033254205090595235 0.1046508790840161
v 0.00095504565417797727 -0.033243043989972632 0.10461163989259137
v -0.0006894979301124704 -0.033220721788727425 0.10305042141424853
v -0.0048453064719449768 -0.032461879509856739 0.10014661517939805
v -0.0048453064719449768 -0.032450718409234136 0.10305042141424853
v -0.00062283005249902379 -0.033209569346833001 0.1045527778584312
v -0.010012285619873607 -0.030575921925210359 0.1049591990770104
v -0.011867954973350192 -0.030174182913893899 0.10305042141424853
v -0.013568057287000557 -0.029281416086280154 0.10305042141424853
v -0.015968204785822782 -0.027931122061693292 0.10305042141424853
v -0.01564596155791681 -0.027741409327293576 0.1050012436963651
v -0.018835044745395491 -0.02523051669506321 0.10516661241648984
v -0.024346489747101241 -0.020119459943078011 0.10500965132142681
v -0.027113321396207646 -0.016503782865045336 0.10507692098064869
v -0.026391057914528726 -0.018322791163412455 0.10305042141424853
v -0.024946526621806797 -0.020119459943078011 0.10305042141424853
v -0.022279698953802607 -0.022262096865859726 0.1050292719994802
v -0.027346669791264933 -0.016872055891950344 0.10305042141424853
v -0.028802314561604481 -0.014461595847867048 0.10305042141424853
v -0.029624582024385615 -0.013010860576404937 0.10305042141424853
v -0.030313522390668035 -0.011403895872410919 0.10305042141424853
v -0.031424696977866373 -0.00851357777138112 0.10271967747995292
v -0.032102519537167085 -0.006259364477286089 0.10271967747995292
v -0.031446915274373433 0.014742830974503074 0.10014661517939805
v -0.031469142229608671 0.014742830974503074 0.07834002820915309
v -0.028091160228179091 -0.014082179037795794 0.10532918220273074
v -0.028091160228179091 -0.011403895872410919 0.10606914845417142
v -0.025190984165117614 -0.014305366415335141 0.10650359797586573
v -0.025190984165117614 -0.011403895872410919 0.10659609483963683
v -0.0077899277867487515 0.049549325047699322 0.10697448559041889
v -0.0088788840774400302 0.052238769313706801 0.10697448559041889
v -0.0088344388256977324 0.05519603670101586 0.10697448559041889
v -0.0083344059320943908 0.058309540014902961 0.10697448559041889
v -0.0020451387193498038 0.076968231202934223 0.10697448559041889
v -0.0011117451391206568 0.079646514368319099 0.10697448559041889
v -0.028091160228179091 0.017644301517427297 0.10605233103936595
v -0.00066727530424132153 0.080639709454715824 0.10697448559041889
v -0.00074505665947238731 0.080639709454715824 0.10610278328378236
v -0.00075616580772591702 0.080639709454715824 0.10595703307702897
v -0.029669035934856092 0.019362864239555078 0.10305042141424853
v -0.030346858494156803 0.017644301517427297 0.10305042141424853
v 0.00096615913179559643 0.075740687638375548 0.078410098966940844
v 0.00096615913179559643 0.078642158181299771 0.078732433111492695
v 0.00087726429894691149 0.080639709454715824 0.079486413514490928
v -0.0076565877021577688 0.042172893900996489 0.07834002820915309
v -0.010934561393121045 0.04103462615332637 0.07834002820915309
v -0.016734917848608089 0.038133155610402147 0.07834002820915309
v -0.01937952289074113 0.035454872445017271 0.07834002820915309
v -0.021390754954679847 0.033267608437201501 0.07834002820915309
v -0.023457545747978481 0.030254544205507605 0.07834002820915309
v -0.028124496331667859 0.022186220066213347 0.07834002820915309
v 0.079159791046371553 0.080639709454715824 0.079940485878920664
v 0.037335031952910658 -0.010131703575997741 0.099143174652883637
v 0.040846356203613265 -0.0026883144842874684 0.082720968013001106
v 0.080148739026596527 0.080639709454715824 0.082715357157141178
v 0.036612765224208671 -0.011571286405565429 0.10305042141424853
v 0.033345900681498925 -0.017217989400153788 0.10305042141424853
v 0.037301696931762912 -0.010064754289718481 0.10460323010284761
v 0.031756914744227371 -0.019059311241037935 0.10493116860921325
v 0.030690184326430309 -0.020699759246899763 0.10305042141424853
v 0.029245651951367357 -0.022317893710244563 0.10305042141424853
v 0.027723337138732318 -0.023779781423601098 0.10305042141424853
v 0.026056569846229699 -0.024839938784369353 0.10496200234025832
v 0.022867487741092041 -0.027473577547263817 0.10466489323557365
v 0.018789462719172645 -0.029805918545717069 0.10305042141424853
v 0.017333817948833097 -0.030464328236440685 0.10305042141424853
v 0.017200477864242114 -0.030408531392055849 0.10472935963154761
v 0.012555749906423885 -0.032082462699785486 0.10305042141424853
v 0.0096555738433624083 -0.032718550189263895 0.10305042141424853
v 0.0073554346550064875 -0.033075653456818122 0.10305042141424853
v 0.015467039447102982 -0.030732151357742266 0.10511896343532134
v 0.012555749906423885 -0.031189695872171741 0.10547213131091826
v 0.0096555738433624083 -0.031491002295341131 0.10554780859520185
v 0.0067220616768121633 -0.031982021452910236 0.10540205622376642
v 0.0038552217172394543 -0.031736511874125684 0.10569636206520316
v 0.00095504565417797727 -0.031736511874125684 0.10565712070909639
v -0.0017228954914438321 -0.0319262246085254 0.10536842139415548
v -0.0048453064719449768 -0.031357086405326251 0.10552818791714846
v -0.0077565916832599835 -0.030988830695877601 0.10534880071610209
v -0.013568057287000557 -0.028321699972387149 0.10539925512520054
v -0.016568237331164248 -0.026089800220809145 0.10562068478091957
v -0.019635093911669566 -0.023288762266031993 0.10573840451987582
v -0.022279698953802607 -0.020119459943078011 0.10605513213793183
v -0.025379882979068513 -0.017374227491413874 0.10567113486065394
v -0.030913554936009502 0.016182405145342582 0.07834002820915309
v -0.022279698953802607 -0.017217989400153788 0.10657647416158345
v -0.01937952289074113 -0.020119459943078011 0.10659609483963683
v -0.0064454004751290372 0.047953517114963817 0.10697448559041889
v 0.07991539496090333 0.080639709454715824 0.10697448559041889
v -0.00075616580772591702 0.080639709454715824 0.082698541907017753
v -0.0017006685362085938 0.078642158181299771 0.10305042141424853
v -0.026168822997089058 0.026795096560006837 0.082715357157141178
v -0.029669035934856092 0.019362864239555078 0.082715357157141178
v -0.030346858494156803 0.017644301517427297 0.07834002820915309
v -0.029657918127874383 0.019295906294547638 0.07834002820915309
v -0.0004228134315664156 0.080639709454715824 0.080587955266590239
v -0.0010895225132495079 0.078642158181299771 0.080161915534639694
v 0.037412814390482746 -0.0099419995003262041 0.10271967747995292
v 0.037323919557634061 -0.010120551134103317 0.10305042141424853
v 0.040846356203613265 -0.0026883144842874684 0.099143174652883637
v 0.066936827293548939 0.052629351553764747 0.10595703307702897
v 0.080148739026596527 0.080639709454715824 0.10595703307702897
v 0.034879326807069538 -0.013803186157143432 0.10511616233675547
v 0.063381055626421989 0.045275238278943031 0.10697448559041889
v 0.06336994647816846 0.045252916077697825 0.10697448559041889
v 0.029979029993004919 -0.020063663098693174 0.10550296071259924
v 0.029001192243374496 -0.02207238413146001 0.10504608724960363
v 0.032390287722421696 -0.017217989400153788 0.10534599961753621
v 0.027045518908795696 -0.023032100245353015 0.10551978029208675
v 0.023967553180036849 -0.025855451742647195 0.10529274410987188
v 0.021278500721479465 -0.027931122061693292 0.10511335690882551
v 0.01825609588676258 -0.028924312818725928 0.10544970520493491
v 0.015467039447102982 -0.028835041331201461 0.10616444641650841
v 0.012555749906423885 -0.028835041331201461 0.1065204153906712
v 0.0096555738433624083 -0.028835041331201461 0.10659609483963683
v -0.0019451304088834998 -0.028835041331201461 0.10659609483963683
v -0.0048453064719449768 -0.028835041331201461 0.10657367089833553
v -0.0077565916832599835 -0.028835041331201461 0.10639428586197119
v -0.01084567088963645 -0.029080550909986014 0.10561507825442373
v -0.013568057287000557 -0.025933570788277238 0.10628497158339462
v -0.016479346827679653 -0.023020939144730412 0.10649519035080401
v -0.0048119703684562087 0.046681333477278819 0.10697448559041889
v -0.0048564199495625959 0.046714812449782539 0.10697448559041889
v 0.078648649004514681 0.077671280966784162 0.10697448559041889
v -0.00074505665947238731 0.080639709454715824 0.082564002588573993
v -0.0092122364535995316 0.062672904765229853 0.081232623555693939
v -0.0017006685362085938 0.078642158181299771 0.082715357157141178
v -0.0063676191198979715 0.068598604969834664 0.081044828729585849
v -0.00066727530424132153 0.080461157820938711 0.080742115263087388
v 0.035790493432063447 -0.00851357777138112 0.10608035934248106
v 0.033168112098142577 -0.014584350637259325 0.10569916532845108
v 0.052902643768356128 0.026716977514376794 0.10697448559041889
v 0.029979029993004919 -0.017217989400153788 0.10639148043404123
v 0.027067741534666845 -0.020119459943078011 0.1064783707713165
v 0.024167565471605368 -0.023020939144730412 0.10641390654002458
v 0.021278500721479465 -0.025933570788277238 0.10615884205469461
v 0.018367213345482414 -0.025933570788277238 0.10655965458209593
v 0.015467039447102982 -0.025933570788277238 0.10659609483963683
v 0.050235813935669893 0.023547679520786902 0.10697448559041889
v 0.047413421392521526 0.022509844361263853 0.10697448559041889
v 0.047191186475081859 0.022509844361263853 0.10697448559041889
v 0.044546581432948817 0.023458403703898345 0.10697448559041889
v 0.012733539572121255 0.038066197665394708 0.10697448559041889
v 0.0068554039260851907 0.040923028135192607 0.10697448559041889
v 0.027067741534666845 -0.017217989400153788 0.10659609483963683
v 0.021278500721479465 -0.023020939144730412 0.10659609483963683
f 1 2 3
f 1 3 4
f 1 4 5
f 1 5 6
f 1 6 2
f 2 7 8
f 2 8 9
f 2 9 3
f 2 6 10
f 2 10 7
f 3 11 12
f 3 12 4
f 3 9 11
f 4 13 14
f 4 14 15
f 4 15 16
f 4 16 17
f 4 17 18
f 4 18 19
f 4 19 20
f 4 20 21
f 4 21 22
f 4 22 23
f 4 23 24
f 4 24 25
f 4 25 26
f 4 26 27
f 4 27 28
f 4 28 29
f 4 29 30
f 4 30 31
f 4 31 32
f 4 32 33
f 4 33 34
f 4 34 35
f 4 35 36
f 4 36 37
f 4 37 38
f 4 38 39
f 4 39 40
f 4 40 41
f 4 41 42
f 4 42 5
f 4 12 43
f 4 43 44
f 4 44 129
f 4 129 226
f 4 226 286
f 4 286 295
f 4 295 296
f 4 296 252
f 4 252 251
f 4 251 250
f 4 250 249
f 4 249 248
f 4 248 247
f 4 247 246
f 4 246 163
f 4 163 162
f 4 162 161
f 4 161 160
f 4 160 159
f 4 159 158
f 4 158 157
f 4 157 156
f 4 156 153
f 4 153 58
f 4 58 13
f 5 42 6
f 6 42 45
f 6 45 46
f 6 46 47
f 6 47 10
f 7 48 49
f 7 49 50
f 7 50 8
f 7 10 48
f 8 50 51
f 8 51 52
f 8 52 9
f 9 52 53
f 9 53 11
f 10 47 54
f 10 54 48
f 11 43 12
f 11 53 55
f 11 55 56
f 11 56 57
f 11 57 43
f 13 58 59
f 13 59 60
f 13 60 61
f 13 61 62
f 13 62 63
f 13 63 64
f 13 64 65
f 13 65 66
f 13 66 67
f 13 67 68
f 13 68 69
f 13 69 70
f 13 70 71
f 13 71 72
f 13 72 73
f 13 73 74
f 13 74 75
f 13 75 76
f 13 76 77
f 13 77 78
f 13 78 79
f 13 79 80
f 13 80 81
f 13 81 82
f 13 82 83
f 13 83 84
f 13 84 85
f 13 85 86
f 13 86 87
f 13 87 88
f 13 88 89
f 13 89 90
f 13 90 91
f 13 91 92
f 13 92 14
f 14 93 94
f 14 94 15
f 14 92 95
f 14 95 96
f 14 96 93
f 15 94 97
f 15 97 98
f 15 98 99
f 15 99 16
f 16 99 17
f 17 99 98
f 17 98 97
f 17 97 18
f 18 100 101
f 18 101 102
f 18 102 19
f 18 97 103
f 18 103 100
f 19 102 20
f 20 104 21
f 20 102 101
f 20 101 105
f 20 105 104
f 21 106 107
f 21 107 22
f 21 104 106
f 22 107 108
f 22 108 23
f 23 108 109
f 23 109 24
f 24 109 110
f 24 110 25
f 25 110 26
f 26 110 109
f 26 109 27
f 27 111 112
f 27 112 113
f 27 113 114
f 27 114 28
f 27 109 111
f 28 114 115
f 28 115 116
f 28 116 29
f 29 116 30
f 30 117 31
f 30 116 117
f 31 117 118
f 31 118 32
f 32 118 33
f 33 118 119
f 33 119 120
f 33 120 34
f 34 120 121
f 34 121 122
f 34 122 35
f 35 122 36
f 36 122 123
f 36 123 37
f 37 123 38
f 38 123 124
f 38 124 39
f 39 124 40
f 40 124 125
f 40 125 126
f 40 126 127
f 40 127 128
f 40 128 41
f 41 128 42
f 42 128 45
f 43 57 44
f 44 57 130
f 44 130 131
f 44 131 132
f 44 132 133
f 44 133 129
f 45 128 134
f 45 134 46
f 46 134 135
f 46 135 136
f 46 136 137
f 46 137 138
f 46 138 139
f 46 139 47
f 47 139 54
f 48 54 140
f 48 140 141
f 48 141 49
f 49 141 142
f 49 142 143
f 49 143 50
f 50 143 144
f 50 144 145
f 50 145 146
f 50 146 51
f 51 146 147
f 51 147 52
f 52 147 53
f 53 148 56
f 53 56 55
f 53 147 149
f 53 149 150
f 53 150 151
f 53 151 152
f 53 152 148
f 54 139 140
f 56 148 132
f 56 132 57
f 57 132 131
f 57 131 130
f 58 153 59
f 59 154 245
f 59 245 297
f 59 297 326
f 59 326 291
f 59 291 240
f 59 240 239
f 59 239 238
f 59 238 290
f 59 290 303
f 59 303 256
f 59 256 253
f 59 253 155
f 59 155 60
f 59 153 156
f 59 156 157
f 59 157 158
f 59 158 159
f 59 159 160
f 59 160 161
f 59 161 162
f 59 162 163
f 59 163 154
f 60 155 164
f 60 164 61
f 61 164 62
f 62 164 63
f 63 164 64
f 64 164 65
f 65 164 155
f 65 155 165
f 65 165 66
f 66 166 167
f 66 167 67
f 66 165 168
f 66 168 169
f 66 169 170
f 66 170 166
f 67 167 171
f 67 171 68
f 68 172 173
f 68 173 174
f 68 174 69
f 68 171 175
f 68 175 176
f 68 176 172
f 69 174 70
f 70 174 177
f 70 177 71
f 71 177 72
f 72 177 178
f 72 178 179
f 72 179 180
f 72 180 73
f 73 180 181
f 73 181 74
f 74 181 75
f 75 181 182
f 75 182 76
f 76 183 77
f 76 182 183
f 77 183 184
f 77 184 78
f 78 184 79
f 79 184 185
f 79 185 186
f 79 186 187
f 79 187 80
f 80 187 188
f 80 188 81
f 81 188 82
f 82 189 83
f 82 188 189
f 83 189 190
f 83 190 84
f 84 190 191
f 84 191 192
f 84 192 85
f 85 193 86
f 85 192 193
f 86 193 87
f 87 194 88
f 87 193 195
f 87 195 194
f 88 194 89
f 89 196 197
f 89 197 198
f 89 198 90
f 89 194 196
f 90 198 91
f 91 198 92
f 92 198 197
f 92 197 95
f 93 96 199
f 93 199 94
f 94 199 204
f 94 204 97
f 95 197 200
f 95 200 96
f 96 200 201
f 96 201 202
f 96 202 203
f 96 203 199
f 97 204 103
f 100 205 101
f 100 103 205
f 101 205 206
f 101 206 207
f 101 207 208
f 101 208 104
f 101 104 105
f 103 204 205
f 104 208 209
f 104 209 106
f 106 209 210
f 106 210 107
f 107 210 211
f 107 211 108
f 108 211 109
f 109 211 212
f 109 212 213
f 109 213 111
f 111 213 113
f 111 113 112
f 113 214 215
f 113 215 216
f 113 216 117
f 113 117 217
f 113 217 115
f 113 115 114
f 113 213 218
f 113 218 214
f 115 217 117
f 115 117 116
f 117 216 118
f 118 216 119
f 119 216 219
f 119 219 120
f 120 219 220
f 120 220 121
f 121 220 221
f 121 221 122
f 122 221 222
f 122 222 123
f 123 222 223
f 123 223 124
f 124 223 125
f 125 135 126
f 125 223 224
f 125 224 135
f 126 135 134
f 126 134 127
f 127 134 128
f 129 225 226
f 129 133 225
f 132 148 133
f 133 148 152
f 133 152 151
f 133 151 225
f 135 224 223
f 135 223 136
f 136 223 222
f 136 222 137
f 137 222 221
f 137 221 220
f 137 220 219
f 137 219 216
f 137 216 215
f 137 215 138
f 138 215 227
f 138 227 228
f 138 228 139
f 139 228 140
f 140 228 229
f 140 229 230
f 140 230 141
f 141 231 232
f 141 232 142
f 141 230 231
f 142 232 233
f 142 233 143
f 143 233 234
f 143 234 144
f 144 234 235
f 144 235 145
f 145 235 146
f 146 235 236
f 146 236 237
f 146 237 147
f 147 237 236
f 147 236 149
f 149 236 150
f 150 236 238
f 150 238 239
f 150 239 240
f 150 240 241
f 150 241 242
f 150 242 151
f 151 242 225
f 154 243 244
f 154 244 245
f 154 163 246
f 154 246 247
f 154 247 248
f 154 248 249
f 154 249 250
f 154 250 251
f 154 251 252
f 154 252 243
f 155 253 165
f 165 253 168
f 166 254 171
f 166 171 167
f 166 170 255
f 166 255 301
f 166 301 254
f 168 253 256
f 168 256 169
f 169 256 170
f 170 256 255
f 171 254 257
f 171 257 176
f 171 176 175
f 172 258 174
f 172 174 173
f 172 176 259
f 172 259 260
f 172 260 258
f 174 258 177
f 176 257 259
f 177 260 261
f 177 261 178
f 177 258 260
f 178 261 179
f 179 261 262
f 179 262 180
f 180 262 181
f 181 262 263
f 181 263 182
f 182 263 183
f 183 263 264
f 183 264 265
f 183 265 184
f 184 265 185
f 185 265 187
f 185 187 186
f 187 265 266
f 187 266 188
f 188 266 267
f 188 267 189
f 189 267 190
f 190 267 191
f 191 267 268
f 191 268 269
f 191 269 192
f 192 269 193
f 193 269 195
f 194 195 270
f 194 270 271
f 194 271 196
f 195 269 270
f 196 271 200
f 196 200 197
f 199 203 207
f 199 207 204
f 200 271 201
f 201 271 270
f 201 270 269
f 201 269 272
f 201 272 273
f 201 273 274
f 201 274 275
f 201 275 276
f 201 276 202
f 202 276 277
f 202 277 203
f 203 277 207
f 204 207 206
f 204 206 205
f 207 277 278
f 207 278 279
f 207 279 280
f 207 280 208
f 208 280 281
f 208 281 212
f 208 212 209
f 209 212 210
f 210 212 211
f 212 281 282
f 212 282 213
f 213 283 218
f 213 282 283
f 214 218 284
f 214 284 285
f 214 285 215
f 215 285 227
f 218 283 284
f 225 242 226
f 226 242 286
f 227 285 228
f 228 285 229
f 229 285 284
f 229 284 287
f 229 287 230
f 230 287 288
f 230 288 231
f 231 289 324
f 231 324 323
f 231 323 345
f 231 345 344
f 231 344 343
f 231 343 342
f 231 342 341
f 231 341 340
f 231 340 333
f 231 333 306
f 231 306 305
f 231 305 325
f 231 325 290
f 231 290 238
f 231 238 236
f 231 236 235
f 231 235 234
f 231 234 233
f 231 233 232
f 231 288 289
f 240 291 328
f 240 328 292
f 240 292 241
f 241 293 294
f 241 294 295
f 241 295 242
f 241 292 293
f 242 295 286
f 243 252 244
f 244 252 296
f 244 296 245
f 245 296 298
f 245 298 297
f 254 299 300
f 254 300 257
f 254 301 302
f 254 302 299
f 255 256 303
f 255 303 301
f 257 300 259
f 259 304 260
f 259 300 302
f 259 302 305
f 259 305 306
f 259 306 304
f 260 307 308
f 260 308 262
f 260 262 261
f 260 304 309
f 260 309 307
f 262 308 263
f 263 308 264
f 264 308 310
f 264 310 311
f 264 311 265
f 265 312 268
f 265 268 266
f 265 311 312
f 266 268 267
f 268 272 269
f 268 312 272
f 272 312 313
f 272 313 314
f 272 314 273
f 273 314 315
f 273 315 274
f 274 276 275
f 274 315 276
f 276 315 316
f 276 316 317
f 276 317 318
f 276 318 277
f 277 318 279
f 277 279 278
f 279 318 319
f 279 319 280
f 280 319 320
f 280 320 281
f 281 320 319
f 281 319 282
f 282 319 321
f 282 321 322
f 282 322 284
f 282 284 283
f 284 322 288
f 284 288 287
f 288 322 318
f 288 318 317
f 288 317 323
f 288 323 324
f 288 324 289
f 290 325 303
f 291 326 327
f 291 327 296
f 291 296 328
f 292 328 293
f 293 296 294
f 293 328 296
f 294 296 295
f 296 327 329
f 296 329 330
f 296 330 298
f 297 330 326
f 297 298 330
f 299 302 300
f 301 303 302
f 302 303 305
f 303 325 305
f 304 331 332
f 304 332 309
f 304 306 331
f 306 333 334
f 306 334 331
f 307 309 334
f 307 334 335
f 307 335 310
f 307 310 308
f 309 332 334
f 310 335 336
f 310 336 337
f 310 337 311
f 311 337 312
f 312 337 313
f 313 337 314
f 314 337 338
f 314 338 315
f 315 338 316
f 316 338 339
f 316 339 340
f 316 340 341
f 316 341 342
f 316 342 317
f 317 342 343
f 317 343 344
f 317 344 345
f 317 345 323
f 318 322 319
f 319 322 321
f 326 330 329
f 326 329 327
f 331 334 332
f 333 340 346
f 333 346 335
f 333 335 334
f 335 347 338
f 335 338 336
f 335 346 347
f 336 338 337
f 338 347 339
f 339 347 340
f 340 347 346
