v 0.079387091319795877 0.19062232928323836 0.23209886150041015
v 0.079387091319795877 0.19060275189882586 0.23379600685838742
v 0.080913261431152572 0.19051884016404413 0.2381743360556895
v 0.081161355640298527 0.19053841754845663 0.23209886150041015
v 0.078560100520793152 0.19061114220643122 0.23209886150041015
v 0.077394800223748506 0.1905775809760098 0.23379600685838742
v 0.079387091319795877 0.19055799493286912 0.23670177213048837
v 0.077650414538317836 0.1905440110868602 0.23670177213048837
v 0.088100542660787318 0.18828405705598256 0.23897080916722568
v 0.090280784440049999 0.18792884139117133 0.23863740483869711
v 0.085198565582264629 0.18983637652643953 0.23670177213048837
v 0.082416875555603231 0.1903426350456035 0.23670177213048837
v 0.082544682712887896 0.19038738335283206 0.23379600685838742
v 0.082612346344241916 0.1903985704296392 0.23209886150041015
v 0.081093692008944507 0.19053282401005306 0.23379600685838742
v 0.079387091319795877 0.19052723047164949 0.23819053653611222
v 0.03581231018005121 0.188888202497209 0.25122594875396109
v 0.03581231018005121 0.18805470466397983 0.25330281397749588
v 0.077304582770170494 0.19059156482201872 0.23209886150041015
v 0.03581231018005121 0.18898889484720144 0.24832018348186014
v 0.077808293458567823 0.19052163693324592 0.23818359223611274
v 0.03581231018005121 0.18650237653479468 0.25475685688312233
v 0.037428695580303872 0.18484097440673991 0.25565057617083575
v 0.091152882883500708 0.18636812295438082 0.23930191027405867
v 0.09391201692325607 0.18552903158274808 0.2389754415868014
v 0.095708837230664756 0.18496124414114484 0.23853552624294416
v 0.092122712391906669 0.18743656671801628 0.23670177213048837
v 0.09067172601732737 0.18810784327881375 0.23670177213048837
v 0.088100542660787318 0.18905322053884249 0.23670177213048837
v 0.043428122690669979 0.18208035539510187 0.25572003648828689
v 0.085198565582264629 0.18995384949164268 0.23379600685838742
v 0.085198565582264629 0.18997063010685339 0.23209886150041015
v 0.033601994473141161 0.1884015300211857 0.25122594875396109
v 0.033970380063512495 0.18803233051036555 0.25323335366004474
v 0.075846076290167819 0.19040416396804277 0.23209886150041015
v 0.033511777019563149 0.18796799615999632 0.24641696905195321
v 0.03326368064573515 0.18835397628602718 0.24832018348186014
v 0.074868724511656437 0.19024194269561107 0.23209886150041015
v 0.034113223102279822 0.18502277306358411 0.25571540406871118
v 0.03581231018005121 0.18504795264512836 0.25573161320786209
v 0.09391201692325607 0.18324669473952798 0.24004745274644657
v 0.096731294488942077 0.18321593027830835 0.23911899464127939
v 0.09391201692325607 0.18637931003118796 0.23670177213048837
v 0.098716069808930162 0.18222859282152465 0.2386651906974232
v 0.097340262841764169 0.18390958099272009 0.23670177213048837
v 0.095881752032397405 0.18509270095235691 0.23670177213048837
v 0.092212932010166726 0.18748132368397302 0.23379600685838742
v 0.090761941306223337 0.18814700670636691 0.23379600685838742
v 0.088100542660787318 0.18916789673484385 0.23379600685838742
v 0.035601803509929864 0.18300056173231455 0.25575014288616493
v 0.043428122690669979 0.18121888121112667 0.25572003648828689
v 0.096558379687209428 0.1620483877532149 0.24372653769093333
v 0.099723491185724822 0.1774345754018099 0.2400520765072941
v 0.096821514107202133 0.18034063507066894 0.24014701080304757
v 0.088100542660787318 0.18917908381165099 0.23209886150041015
v 0.031008259459059162 0.18557937342838021 0.24751676607032447
v 0.031113510629437791 0.18233208194071887 0.25325650709919512
v 0.033564404769434508 0.18605485882759637 0.2541733884847871
v 0.033977898004253826 0.18503675690959304 0.24377978886923357
v 0.032775005838820481 0.18627582091199374 0.24538664100976126
v 0.031008259459059162 0.18557937342838021 0.24629194567577806
v 0.073575617057327125 0.19001818384201191 0.23209886150041015
v 0.070673637814122392 0.18927418262323986 0.23209886150041015
v 0.069530889174619692 0.18883225845444512 0.23209886150041015
v 0.06791450377436703 0.1882057388596044 0.23209886150041015
v 0.06645599512968231 0.18753725906800872 0.23209886150041015
v 0.034113223102279822 0.18380609187352587 0.25571540406871118
v 0.099700935198818785 0.18026231687429078 0.2391236270608551
v 0.09391201692325607 0.18643805084315362 0.23379600685838742
v 0.10145264786177949 0.17923862141788388 0.23854015866251987
v 0.10040763461659613 0.18088603969992972 0.23670177213048837
v 0.098956648242016831 0.18245514844432559 0.23670177213048837
v 0.097370334604729492 0.18393195514633437 0.23379600685838742
v 0.098986720004982154 0.18248031936714165 0.23379600685838742
v 0.095911823795362727 0.18510948156756762 0.23379600685838742
v 0.09391201692325607 0.1864604249967679 0.23209886150041015
v 0.092243003773132048 0.18749530752998195 0.23209886150041015
v 0.090784497293129374 0.18815538835524409 0.23209886150041015
v 0.089686856298074658 0.18857773513962633 0.23209886150041015
v 0.034489128798074531 0.18187058038751164 0.25557185967296137
v 0.036428792144250544 0.18157969041434147 0.25566215289041094
v 0.042458291017581973 0.18121888121112667 0.25572003648828689
v 0.041623784442519962 0.1774345754018099 0.25489808939844838
v 0.096039635282011482 0.1620483877532149 0.24372653769093333
v 0.10555000132967624 0.1620483877532149 0.23948713778726172
v 0.10553496977755766 0.16290986193719009 0.23946166380895939
v 0.10522672771311697 0.16872198127490817 0.23914678050000548
v 0.10263298836967089 0.17162804094376721 0.24007755048559642
v 0.063892331878565634 0.16392236165806168 0.24740794317457204
v 0.10285853092127489 0.17471031438979506 0.23932737559363282
v 0.10203154445163626 0.1774345754018099 0.23898007400637711
v 0.030489510724497126 0.18337535478153827 0.24841975019718932
v 0.030745125039066457 0.1827236556051533 0.25122594875396109
v 0.031113510629437791 0.18107623732310746 0.25325650709919512
v 0.062666883726226252 0.18525771899399041 0.23209886150041015
v 0.06181734126968158 0.18459204463032469 0.23209886150041015
v 0.061215895186964908 0.18411375380317857 0.23209886150041015
v 0.060546786555235238 0.18351240513115391 0.23209886150041015
v 0.037203153028699865 0.18188176746431878 0.24100832047118737
v 0.032293846807965099 0.18324669473952798 0.24454848478077185
v 0.064869681492394971 0.18664502042281389 0.23209886150041015
v 0.030707533170677759 0.18324669473952798 0.24600020714724635
v 0.10445236033462152 0.17386003594135518 0.23867907929742216
v 0.10393361592942357 0.17570324538498233 0.23670177213048837
v 0.10290363856572288 0.1774345754018099 0.23670177213048837
v 0.10159549090054681 0.17943441257946519 0.23670177213048837
v 0.10043770637956145 0.18092520312748289 0.23379600685838742
v 0.097377850380788777 0.18394034545393972 0.23209886150041015
v 0.095926864006209478 0.18511787187517298 0.23209886150041015
v 0.098325132561016881 0.18309006700549985 0.23209886150041015
v 0.09899423578104144 0.18248870967474701 0.23209886150041015
v 0.032752452016596489 0.18020078795185152 0.25392101253455668
v 0.033617030354623822 0.17845266866108506 0.25321714452089383
v 0.038721805199315229 0.17536201356618003 0.25324261849919616
v 0.038721805199315229 0.1774345754018099 0.25444659733501596
v 0.041623784442519962 0.17488931627743748 0.25353203648857592
v 0.058193627809557863 0.1620483877532149 0.24051746582945366
v 0.10670027007460231 0.1620483877532149 0.23869760031699683
v 0.10710624320399825 0.16290986193719009 0.2383896613080424
v 0.10706865566497364 0.1649432603452668 0.23831556857101555
v 0.10578305965733953 0.16587185699008483 0.2391074179217042
v 0.10482826603041623 0.17162804094376721 0.23900553932595126
v 0.061960184308448907 0.16396432185481663 0.24738478973542166
v 0.03066994563165315 0.18008611175585015 0.24815348564695994
v 0.03079023268351444 0.18020078795185152 0.25121206015396214
v 0.031684882784507096 0.17914072583709323 0.25217292787870293
v 0.059622062526595215 0.18266212668271403 0.23209886150041015
v 0.037173081265734542 0.18034063507066894 0.24098516703203698
v 0.058772520070050543 0.18177827834512456 0.23209886150041015
v 0.058171073987333871 0.18115175875028383 0.23209886150041015
v 0.056990735644124518 0.17969732620188933 0.23209886150041015
v 0.056141193187579846 0.17846105896869041 0.23209886150041015
v 0.055539747104863174 0.17757442252062733 0.23209886150041015
v 0.054615023076223151 0.17612278674143461 0.23209886150041015
v 0.05387073287239813 0.17453130384342447 0.23209886150041015
v 0.052690394529188778 0.17162804094376721 0.23209886150041015
v 0.051983695111411432 0.16930934610092391 0.23209886150041015
v 0.051660418247829104 0.16785771032173119 0.23209886150041015
v 0.051374731087953429 0.16581592160604913 0.23209886150041015
v 0.051246923930668764 0.16411815281964298 0.23209886150041015
v 0.051156707559431774 0.16290986193719009 0.23209886150041015
v 0.030910524064739819 0.18088324293072794 0.24628731325620234
v 0.037203153028699865 0.17881348652302803 0.24101063235161113
v 0.10646721174693902 0.16872198127490817 0.23670177213048837
v 0.10564774105335967 0.17162804094376721 0.23670177213048837
v 0.1046478311232602 0.17425160960578961 0.23670177213048837
v 0.1039636876923889 0.17574799369221089 0.23379600685838742
v 0.10294874621017086 0.1774345754018099 0.23379600685838742
v 0.10161804688745285 0.17947077057908839 0.23379600685838742
v 0.10162556266351214 0.17948195765589553 0.23209886150041015
v 0.10113689002127951 0.18008330632792019 0.23209886150041015
v 0.10044522648498483 0.18093359343508825 0.23209886150041015
v 0.037120455680545228 0.17586266988821225 0.25280733557491464
v 0.038954865691660567 0.17399428952176904 0.25101756780160767
v 0.051532611090544439 0.1620483877532149 0.23862350757996997
v 0.053246732967457466 0.1620483877532149 0.23967467718088853
v 0.0603137260628899 0.16427198378446933 0.24701433470901557
v 0.056148711128321177 0.1620483877532149 0.24027898713795037
v 0.10709121165187968 0.1620483877532149 0.2383572430297406
v 0.10717391116471636 0.1620483877532149 0.23729912912882256
v 0.10723405469064701 0.16290986193719009 0.23670177213048837
v 0.107121283414845 0.16534323297603476 0.23670177213048837
v 0.10691077241535957 0.16679765686570108 0.23670177213048837
v 0.031511967982774447 0.17894774010344189 0.24707221830689152
v 0.031293945536593815 0.17874635540345701 0.24901016289552402
v 0.031293945536593815 0.17874635540345701 0.25023498329007043
v 0.032752452016596489 0.17806948530425598 0.25121206015396214
v 0.036624262932889229 0.17548228330058496 0.25122594875396109
v 0.051179261381655766 0.1620483877532149 0.23209886150041015
v 0.10659501457485959 0.16872198127490817 0.23379600685838742
v 0.10576051232916167 0.17162804094376721 0.23379600685838742
v 0.10467790288622553 0.17429635791301817 0.23379600685838742
v 0.10397120346844818 0.17577316461502696 0.23209886150041015
v 0.10469294309707228 0.17432153749456242 0.23209886150041015
v 0.1029713021970769 0.1774345754018099 0.23209886150041015
v 0.038082769412891904 0.17347684392579793 0.24832018348186014
v 0.051246923930668764 0.1620483877532149 0.23670177213048837
v 0.10719645849289422 0.1620483877532149 0.23669250729133695
v 0.10724157046670629 0.1620483877532149 0.23379600685838742
v 0.10729419821657765 0.16290986193719009 0.23209886150041015
v 0.10714383074302286 0.16561453690606426 0.23379600685838742
v 0.10696340016523093 0.16706617268525698 0.23379600685838742
v 0.051186779322397097 0.1620483877532149 0.23329357549707852
v 0.051224370108444772 0.1620483877532149 0.23584046246234858
v 0.10725660201882486 0.1620483877532149 0.23209886150041015
v 0.10660253035091888 0.16872198127490817 0.23209886150041015
v 0.10612137348474554 0.17041975006131432 0.23209886150041015
v 0.10577554388128024 0.17162804094376721 0.23209886150041015
v 0.10697091594129021 0.16715007576131052 0.23209886150041015
v 0.10715135517781033 0.1656956518716442 0.23209886150041015
f 1 2 3
f 1 3 4
f 1 4 14
f 1 14 32
f 1 32 55
f 1 55 79
f 1 79 78
f 1 78 77
f 1 77 76
f 1 76 109
f 1 109 108
f 1 108 110
f 1 110 111
f 1 111 152
f 1 152 151
f 1 151 150
f 1 150 175
f 1 175 173
f 1 173 174
f 1 174 188
f 1 188 187
f 1 187 186
f 1 186 189
f 1 189 190
f 1 190 180
f 1 180 185
f 1 185 169
f 1 169 141
f 1 141 140
f 1 140 139
f 1 139 138
f 1 138 137
f 1 137 136
f 1 136 135
f 1 135 134
f 1 134 133
f 1 133 132
f 1 132 131
f 1 131 130
f 1 130 129
f 1 129 127
f 1 127 98
f 1 98 97
f 1 97 96
f 1 96 95
f 1 95 101
f 1 101 66
f 1 66 65
f 1 65 64
f 1 64 63
f 1 63 62
f 1 62 38
f 1 38 35
f 1 35 19
f 1 19 5
f 1 5 6
f 1 6 2
f 2 7 3
f 2 6 8
f 2 8 7
f 3 9 10
f 3 10 11
f 3 11 12
f 3 12 13
f 3 13 14
f 3 14 15
f 3 15 4
f 3 7 16
f 3 16 17
f 3 17 18
f 3 18 9
f 4 15 14
f 5 19 6
f 6 19 20
f 6 20 8
f 7 8 21
f 7 21 16
f 8 20 21
f 9 18 22
f 9 22 23
f 9 23 10
f 10 24 25
f 10 25 26
f 10 26 27
f 10 27 28
f 10 28 29
f 10 29 11
f 10 23 30
f 10 30 24
f 11 31 12
f 11 29 31
f 12 31 13
f 13 31 14
f 14 31 32
f 16 21 17
f 17 20 33
f 17 33 34
f 17 34 18
f 17 21 20
f 18 34 22
f 19 35 20
f 20 36 37
f 20 37 33
f 20 35 38
f 20 38 36
f 22 34 39
f 22 39 40
f 22 40 23
f 23 40 30
f 24 30 25
f 25 41 42
f 25 42 26
f 25 30 41
f 26 43 27
f 26 42 44
f 26 44 45
f 26 45 46
f 26 46 43
f 27 47 28
f 27 43 47
f 28 48 49
f 28 49 29
f 28 47 48
f 29 49 31
f 30 40 50
f 30 50 51
f 30 51 52
f 30 52 53
f 30 53 54
f 30 54 41
f 31 49 32
f 32 49 55
f 33 37 56
f 33 56 34
f 34 56 57
f 34 57 58
f 34 58 39
f 36 59 60
f 36 60 61
f 36 61 37
f 36 38 62
f 36 62 63
f 36 63 64
f 36 64 65
f 36 65 66
f 36 66 59
f 37 61 56
f 39 58 57
f 39 57 94
f 39 94 67
f 39 67 50
f 39 50 40
f 41 54 42
f 42 54 68
f 42 68 44
f 43 46 69
f 43 69 47
f 44 68 70
f 44 70 71
f 44 71 72
f 44 72 45
f 45 73 46
f 45 72 74
f 45 74 73
f 46 73 75
f 46 75 76
f 46 76 69
f 47 77 48
f 47 69 77
f 48 77 78
f 48 78 79
f 48 79 49
f 49 79 55
f 50 67 80
f 50 80 81
f 50 81 82
f 50 82 51
f 51 82 83
f 51 83 52
f 52 84 117
f 52 117 158
f 52 158 156
f 52 156 155
f 52 155 177
f 52 177 184
f 52 184 183
f 52 183 169
f 52 169 185
f 52 185 179
f 52 179 178
f 52 178 160
f 52 160 159
f 52 159 118
f 52 118 85
f 52 85 86
f 52 86 87
f 52 87 88
f 52 88 53
f 52 83 89
f 52 89 84
f 53 88 90
f 53 90 91
f 53 91 68
f 53 68 54
f 56 61 92
f 56 92 93
f 56 93 57
f 57 93 94
f 59 95 96
f 59 96 97
f 59 97 98
f 59 98 99
f 59 99 100
f 59 100 61
f 59 61 60
f 59 66 101
f 59 101 95
f 61 100 102
f 61 102 92
f 67 94 80
f 68 91 70
f 69 76 77
f 70 91 103
f 70 103 104
f 70 104 105
f 70 105 106
f 70 106 71
f 71 107 72
f 71 106 107
f 72 107 74
f 73 108 109
f 73 109 75
f 73 74 110
f 73 110 108
f 74 111 110
f 74 107 152
f 74 152 111
f 75 109 76
f 80 94 112
f 80 112 113
f 80 113 114
f 80 114 115
f 80 115 83
f 80 83 81
f 81 83 82
f 83 115 116
f 83 116 89
f 84 89 117
f 85 118 119
f 85 119 86
f 86 119 120
f 86 120 121
f 86 121 87
f 87 121 120
f 87 120 122
f 87 122 88
f 88 122 90
f 89 116 123
f 89 123 117
f 90 122 103
f 90 103 91
f 92 124 125
f 92 125 93
f 92 102 124
f 93 125 94
f 94 125 126
f 94 126 112
f 98 127 99
f 99 128 100
f 99 127 129
f 99 129 130
f 99 130 131
f 99 131 132
f 99 132 133
f 99 133 134
f 99 134 135
f 99 135 136
f 99 136 137
f 99 137 138
f 99 138 139
f 99 139 140
f 99 140 141
f 99 141 128
f 100 142 102
f 100 128 143
f 100 143 142
f 102 142 124
f 103 122 120
f 103 120 144
f 103 144 145
f 103 145 146
f 103 146 104
f 104 147 105
f 104 146 172
f 104 172 147
f 105 147 148
f 105 148 149
f 105 149 106
f 106 149 107
f 107 149 150
f 107 150 151
f 107 151 152
f 112 126 113
f 113 126 153
f 113 153 114
f 114 116 115
f 114 153 154
f 114 154 155
f 114 155 156
f 114 156 157
f 114 157 123
f 114 123 116
f 117 123 158
f 118 159 119
f 119 159 160
f 119 160 161
f 119 161 120
f 120 161 162
f 120 162 163
f 120 163 144
f 123 157 156
f 123 156 158
f 124 142 164
f 124 164 165
f 124 165 166
f 124 166 125
f 125 166 126
f 126 166 167
f 126 167 168
f 126 168 153
f 128 141 169
f 128 169 143
f 142 143 169
f 142 169 164
f 144 163 170
f 144 170 145
f 145 170 171
f 145 171 146
f 146 171 172
f 147 173 148
f 147 172 174
f 147 174 173
f 148 175 149
f 148 173 175
f 149 175 150
f 153 168 154
f 154 168 176
f 154 176 155
f 155 176 166
f 155 166 177
f 160 178 161
f 161 178 179
f 161 179 180
f 161 180 162
f 162 181 182
f 162 182 163
f 162 180 181
f 163 182 170
f 164 169 165
f 165 169 166
f 166 176 167
f 166 169 183
f 166 183 184
f 166 184 177
f 167 176 168
f 170 186 187
f 170 187 188
f 170 188 171
f 170 182 189
f 170 189 186
f 171 188 174
f 171 174 172
f 179 185 180
f 180 190 181
f 181 190 189
f 181 189 182
