v 0.10725343725367548 0.16204517536506052 0.23258484127817913
v 0.10725343725367548 0.16204517536506052 0.23209822941325309
v 0.10719796944096144 0.16204517536506052 0.23669324328323216
v 0.13369328369626571 0.14720083360844477 0.24154251204745647
v 0.13369328369626571 0.14720083360844477 0.24041438367048384
v 0.13280579003411291 0.14677312707131979 0.23847804094656444
v 0.13339744958930538 0.14421974605991555 0.23494211941378762
v 0.13168718625813708 0.14324856146054959 0.23287108151431724
v 0.13322180728819638 0.14127081702784278 0.23228175981573307
v 0.13168718625813708 0.14179499911433707 0.23223798128606055
v 0.12877510011446552 0.13966932464005782 0.23210327745178139
v 0.1072441940613445 0.16170107750723101 0.23209822941325309
v 0.05117507596892229 0.16204517536506052 0.23209822941325309
v 0.10717023553460442 0.16204517536506052 0.23729940620812429
v 0.13248223067952375 0.14662198031222889 0.24348053456464258
v 0.13319407338183936 0.14406859930082466 0.24693226728333595
v 0.13868542147544188 0.14095244858079686 0.24357313966251593
v 0.13921237435495343 0.14130940464997205 0.24163679693859652
v 0.14490710731475015 0.13542119240901779 0.24124111037827711
v 0.10708703381553336 0.16204517536506052 0.23835849854532654
v 0.106698754797171 0.16204517536506052 0.23869861338819376
v 0.14490710731475015 0.13542119240901779 0.24077470798492062
v 0.13921237435495343 0.14130940464997205 0.24011803869856096
v 0.13893503529138324 0.14111002444556059 0.23818169597464156
v 0.13396137523814083 0.14478252009790321 0.23670165956702205
v 0.13899050310409727 0.13827043350356688 0.23521320687561265
v 0.1452029327629823 0.13299966218095777 0.23783147639598956
v 0.13322180728819638 0.14087526900717423 0.23228175981573307
v 0.13157624197398082 0.13981082124659333 0.23221104398269599
v 0.10374044836248048 0.14872192970508863 0.23209822941325309
v 0.10426739691262793 0.14957090934430167 0.23209822941325309
v 0.10469265302967828 0.15055496081374148 0.23209822941325309
v 0.10499773032896959 0.15128495653968416 0.23209822941325309
v 0.10561712379051907 0.15298613686499279 0.23209822941325309
v 0.10599615961655046 0.1541920812321092 0.23209822941325309
v 0.10641216821190574 0.1557453358452095 0.23209822941325309
v 0.10671724551119705 0.1568901755675674 0.23209822941325309
v 0.10703156600281932 0.15834052119626146 0.23209822941325309
v 0.10711476772189038 0.15933421415952848 0.23209822941325309
v 0.10717023553460442 0.16000310957007674 0.23209822941325309
v 0.12877510011446552 0.13676219994763278 0.23210833414903786
v 0.084862767115394588 0.13507709888055236 0.23209822941325309
v 0.086323433948077899 0.13538260478688852 0.23209822941325309
v 0.088107660135350374 0.13592929956664795 0.23209822941325309
v 0.09101974194965784 0.13709986437042537 0.23209822941325309
v 0.092850192757313377 0.13800673193687846 0.23209822941325309
v 0.094301612068301621 0.13886214934049251 0.23209822941325309
v 0.095179858208759349 0.1394667277181279 0.23209822941325309
v 0.09640940193952735 0.14031570735734095 0.23209822941325309
v 0.097259914173628059 0.14100389874363589 0.23209822941325309
v 0.097860821250515595 0.14149270992551938 0.23209822941325309
v 0.099293749847477797 0.1429462722717319 0.23209822941325309
v 0.10014426208157851 0.1438788649196045 0.23209822941325309
v 0.10074516915846604 0.14453811450696147 0.23209822941325309
v 0.10121664556653537 0.14514269288459686 0.23209822941325309
v 0.10186377726380597 0.14598846013565553 0.23209822941325309
v 0.051239791303331395 0.16000310957007674 0.23209822941325309
v 0.051193566682948333 0.16204517536506052 0.23379547001724033
v 0.13158548949567589 0.14590806384451444 0.24526533222797486
v 0.13168718625813708 0.14443199313440086 0.24737341216659459
v 0.13168718625813708 0.14257323261496441 0.24848806756252084
v 0.13354536664278555 0.14257323261496441 0.24742392718679029
v 0.14489786845178326 0.13259446833709793 0.24404964679165719
v 0.13951744732488064 0.13901650848773778 0.24468779505844218
v 0.10183604335744895 0.15886149089460139 0.24727911861672636
v 0.14536933620112441 0.13368142013221579 0.24232882847083881
v 0.14555423468265666 0.13392260900563907 0.23972740017676986
v 0.10554316959314308 0.16204517536506052 0.23948662692229916
v 0.095900944103405938 0.16166891899077457 0.2471982980479045
v 0.1443431816659147 0.13493560227401685 0.2388383739197294
v 0.14561895001706576 0.1307067660187235 0.23937718059811786
v 0.1452029327629823 0.13151072460077035 0.23783147639598956
v 0.13035595009427198 0.13511890322020009 0.23226997528668158
v 0.13055008743877111 0.13676219994763278 0.23222956500227065
v 0.12877510011446552 0.1350642363398426 0.23222956500227065
v 0.079399152928149086 0.13448538304362673 0.23209822941325309
v 0.082301987220761486 0.13464939234342738 0.23209822941325309
v 0.083355884321056395 0.13482304746641932 0.23209822941325309
v 0.051591088893641668 0.15753977500236899 0.23209822941325309
v 0.051591088893641668 0.15756871680130696 0.23379547001724033
v 0.051258277687993348 0.16000310957007674 0.23379547001724033
v 0.051230543781636328 0.16204517536506052 0.23584125906534104
v 0.12877510011446552 0.14511696780317734 0.24792569182602942
v 0.13168718625813708 0.13966932464005782 0.24897973612470337
v 0.099728249156859128 0.15935029341775669 0.24765965240273269
v 0.12877510011446552 0.14257323261496441 0.2491396888103522
v 0.14489786845178326 0.13209279461450468 0.24404964679165719
v 0.14543405153553352 0.13105407626470739 0.24254435287393983
v 0.096566562185338489 0.16204517536506052 0.24372467606437487
v 0.095041184347610164 0.16166891899077457 0.2471982980479045
v 0.096853148770603747 0.16016390215235893 0.24783813476668437
v 0.14500880407721134 0.12924355784931968 0.24159807510618048
v 0.14500880407721134 0.12924355784931968 0.24019212277685964
v 0.14330777960900992 0.12973558141935754 0.23861948127136678
v 0.14330777960900992 0.1311859270480516 0.23754691595311817
v 0.13630028821128187 0.13222785778600327 0.2351206017777393
v 0.077698126295265624 0.13456577933476782 0.23209822941325309
v 0.13554222521794729 0.13222785778600327 0.2351206017777393
v 0.12712030459601126 0.1294107795372747 0.24081848651459314
v 0.051711267711400721 0.1569351966247336 0.23209822941325309
v 0.051886918671237903 0.15608621265615646 0.23209822941325309
v 0.051896161863568879 0.15611515878445853 0.23379547001724033
v 0.051914652577594922 0.15621484672198221 0.23670165956702205
v 0.051628065992329664 0.15766840906819474 0.23670165956702205
v 0.051332236214733429 0.16000310957007674 0.23670165956702205
v 0.051249034495662371 0.16204517536506052 0.23670165956702205
v 0.12877510011446552 0.13966932464005782 0.24929797036146251
v 0.12877510011446552 0.13676219994763278 0.24924071885074361
v 0.13168718625813708 0.13676219994763278 0.24855710360229122
v 0.13651291194044296 0.13479088894996288 0.24698446209679836
v 0.099728249156859128 0.15709598920701578 0.2486227713968
v 0.12587227015121721 0.14257323261496441 0.24928954541894444
v 0.096825414864246728 0.15709598920701578 0.24879788551549009
v 0.14330777960900992 0.13183552648285318 0.24422476091034728
v 0.14330777960900992 0.13038196413664066 0.24314209085631389
v 0.096048856827522011 0.16204517536506052 0.24372467606437487
v 0.094560460417845771 0.16000310957007674 0.24759904130548038
v 0.058191806229617227 0.16204517536506052 0.24051709350414197
v 0.056148727363436512 0.16204517536506052 0.24027967983620468
v 0.14330777960900992 0.12919532007463502 0.24168900041078711
v 0.14330777960900992 0.12919532007463502 0.24007089192362685
v 0.076487068949159576 0.13462366293264377 0.23209822941325309
v 0.12712030459601126 0.1294107795372747 0.24123606233974881
v 0.05220123916286018 0.15498961070848322 0.23209822941325309
v 0.052460091841768419 0.1541920812321092 0.23379547001724033
v 0.052506312132787392 0.1541920812321092 0.23670165956702205
v 0.051702024519069745 0.15798677751524065 0.23833660928049027
v 0.051581845701310691 0.16000310957007674 0.23854370874107322
v 0.051535621080927629 0.16204517536506052 0.23862284951662838
v 0.12587227015121721 0.13966932464005782 0.24929797036146251
v 0.12296943152924072 0.13966932464005782 0.24928112913515454
v 0.12587227015121721 0.13676219994763278 0.24903361073143249
v 0.12877510011446552 0.1339997885792617 0.24802672186642083
v 0.12296943152924072 0.14257323261496441 0.24927271285136465
v 0.093922576242270239 0.1541920812321092 0.24854195082797814
v 0.093922576242270239 0.15128495653968416 0.24859583409343544
v 0.096825414864246728 0.15128495653968416 0.24879788551549009
v 0.13459001622138539 0.13145605772041286 0.24499087652088825
v 0.12877510011446552 0.13254623056241327 0.24660056006553044
v 0.053245888741460023 0.16204517536506052 0.23967352557004074
v 0.076487068949159576 0.13464295890839045 0.23379547001724033
v 0.07374139273767627 0.13503529454090463 0.23379547001724033
v 0.073722904188332272 0.13502242767083078 0.23209822941325309
v 0.074203628118096665 0.13515749517169345 0.23842921437836362
v 0.076487068949159576 0.13469119668307511 0.23670165956702205
v 0.052441601127742377 0.1541920812321092 0.23209822941325309
v 0.053088728495648885 0.15249411329495494 0.23209822941325309
v 0.053550966040751324 0.15128495653968416 0.23209822941325309
v 0.053615677045796339 0.15128495653968416 0.23670165956702205
v 0.054549390998968106 0.14957090934430167 0.23839890882973747
v 0.054161116309969837 0.15128495653968416 0.23882826918394462
v 0.053615677045796339 0.1541920812321092 0.23918017721459151
v 0.053005526776577827 0.15705096814984959 0.23912124591060591
v 0.053245888741460023 0.16000310957007674 0.23961627405932184
v 0.12587227015121721 0.13440498675248563 0.2478196137471097
v 0.067778561741958288 0.13966932464005782 0.23992440356029621
v 0.070681398199252732 0.13708056839467869 0.23917007247880673
v 0.056148727363436512 0.15709598920701578 0.24029820085577935
v 0.056148727363436512 0.1541920812321092 0.24025274253284012
v 0.059060809177743978 0.14838104856477757 0.24022411677748068
v 0.061963643470356378 0.14547714058987099 0.24026957510041991
v 0.064866479927650822 0.14257323261496441 0.24022916481600898
v 0.073778372001046311 0.13507066544551544 0.23670165956702205
v 0.072326954854740111 0.13535044627043208 0.23670165956702205
v 0.073121999276126781 0.13515106173665653 0.23209822941325309
v 0.067778561741958288 0.13764655915018481 0.23885183824204759
v 0.066003578747016789 0.13803246134766206 0.2384443671526767
v 0.070681398199252732 0.13589714105019152 0.23670165956702205
v 0.054456946087566072 0.14936509570485329 0.23209822941325309
v 0.054456946087566072 0.14938117496308151 0.23379547001724033
v 0.054475436801592114 0.14942298363209333 0.23670165956702205
v 0.055316701513997757 0.14796942128588081 0.23670165956702205
v 0.056768120824986001 0.14583410098841026 0.23670165956702205
v 0.05705470741025126 0.14620713631581367 0.23876933787995902
v 0.056111745935384427 0.14851289934812179 0.23909935664576965
v 0.056148727363436512 0.15128495653968416 0.23990083450219324
v 0.061815726416876215 0.14240279420949092 0.23936202782380478
v 0.064968172360747922 0.13961465343033624 0.23913135064639068
v 0.058894401410237773 0.14533564398333548 0.2393569711265483
v 0.071347016281185283 0.13561414350775641 0.23209822941325309
v 0.07228997559137007 0.13534401283539516 0.23379547001724033
v 0.070681398199252732 0.13582639058224172 0.23379547001724033
v 0.070681398199252732 0.13581352804153196 0.23209822941325309
v 0.072271487042026072 0.13534079611787669 0.23209822941325309
v 0.062684729365002967 0.14055046712509139 0.23877607437048221
v 0.062314943225348696 0.14026104047698346 0.23670165956702205
v 0.064385755997886429 0.1388106948482894 0.23670165956702205
v 0.065837173144192629 0.13793276908077429 0.23670165956702205
v 0.067778561741958288 0.1370259015143212 0.23670165956702205
v 0.067778561741958288 0.13692942596495189 0.23379547001724033
v 0.055270481222978785 0.14791153335864077 0.23209822941325309
v 0.055279724415309761 0.14792761261686899 0.23379547001724033
v 0.056731143726298006 0.1457955090369169 0.23379547001724033
v 0.057905219644351968 0.1443837553597162 0.23670165956702205
v 0.059744913644338482 0.14325499056622243 0.23882994897721133
v 0.067778561741958288 0.13690369655416829 0.23209822941325309
v 0.06898037156636927 0.13644704821810533 0.23209822941325309
v 0.06085427855734743 0.14141553035189675 0.23670165956702205
v 0.062277963961978655 0.14024496121875524 0.23379547001724033
v 0.064330288185172391 0.13879139887254272 0.23379547001724033
v 0.060826544650990411 0.14138980094111314 0.23379547001724033
v 0.06578170533147859 0.13789739384679939 0.23379547001724033
v 0.066585995109878282 0.1374793331328657 0.23209822941325309
v 0.056120993457079493 0.14666378898124072 0.23209822941325309
v 0.056731143726298006 0.14577942977868869 0.23209822941325309
v 0.057858995023968907 0.14432908414999462 0.23209822941325309
v 0.057868242545663973 0.14434516340822284 0.23379547001724033
v 0.059356638955340213 0.14286908836874518 0.23670165956702205
v 0.059319657527288128 0.14284336328732566 0.23379547001724033
v 0.062259473247952613 0.14023531539556394 0.23209822941325309
v 0.064311797471146348 0.13878175304935142 0.23209822941325309
v 0.065763216782134593 0.13788131458857117 0.23209822941325309
v 0.060808053936964368 0.14138015511792185 0.23209822941325309
v 0.059310414334957151 0.14283371746413437 0.23209822941325309
v 0.05992980779650664 0.14222913908649898 0.23209822941325309
f 1 2 13
f 1 13 58
f 1 58 82
f 1 82 106
f 1 106 129
f 1 129 140
f 1 140 119
f 1 119 118
f 1 118 116
f 1 116 89
f 1 89 68
f 1 68 21
f 1 21 20
f 1 20 14
f 1 14 3
f 1 3 4
f 1 4 5
f 1 5 2
f 2 5 6
f 2 6 7
f 2 7 8
f 2 8 9
f 2 9 10
f 2 10 11
f 2 11 12
f 2 12 40
f 2 40 39
f 2 39 38
f 2 38 37
f 2 37 36
f 2 36 35
f 2 35 34
f 2 34 33
f 2 33 32
f 2 32 31
f 2 31 30
f 2 30 56
f 2 56 55
f 2 55 54
f 2 54 53
f 2 53 52
f 2 52 51
f 2 51 50
f 2 50 49
f 2 49 48
f 2 48 47
f 2 47 46
f 2 46 45
f 2 45 44
f 2 44 43
f 2 43 42
f 2 42 78
f 2 78 77
f 2 77 76
f 2 76 97
f 2 97 122
f 2 122 143
f 2 143 165
f 2 165 184
f 2 184 180
f 2 180 183
f 2 183 197
f 2 197 196
f 2 196 203
f 2 203 212
f 2 212 211
f 2 211 210
f 2 210 213
f 2 213 215
f 2 215 214
f 2 214 206
f 2 206 205
f 2 205 204
f 2 204 191
f 2 191 169
f 2 169 148
f 2 148 147
f 2 147 146
f 2 146 124
f 2 124 101
f 2 101 100
f 2 100 79
f 2 79 57
f 2 57 13
f 3 14 4
f 4 15 16
f 4 16 17
f 4 17 18
f 4 18 19
f 4 19 22
f 4 22 5
f 4 14 20
f 4 20 21
f 4 21 15
f 5 22 23
f 5 23 24
f 5 24 25
f 5 25 7
f 5 7 6
f 7 25 24
f 7 24 26
f 7 26 9
f 7 9 8
f 9 26 27
f 9 27 72
f 9 72 28
f 9 28 29
f 9 29 11
f 9 11 10
f 11 30 31
f 11 31 32
f 11 32 33
f 11 33 34
f 11 34 35
f 11 35 36
f 11 36 37
f 11 37 38
f 11 38 39
f 11 39 40
f 11 40 12
f 11 29 41
f 11 41 42
f 11 42 43
f 11 43 44
f 11 44 45
f 11 45 46
f 11 46 47
f 11 47 48
f 11 48 49
f 11 49 50
f 11 50 51
f 11 51 52
f 11 52 53
f 11 53 54
f 11 54 55
f 11 55 56
f 11 56 30
f 13 57 81
f 13 81 58
f 15 59 16
f 15 21 59
f 16 60 61
f 16 61 62
f 16 62 63
f 16 63 64
f 16 64 17
f 16 59 21
f 16 21 65
f 16 65 60
f 17 64 19
f 17 19 18
f 19 63 66
f 19 66 67
f 19 67 22
f 19 64 63
f 21 68 69
f 21 69 65
f 22 67 70
f 22 70 24
f 22 24 23
f 24 70 27
f 24 27 26
f 27 70 67
f 27 67 71
f 27 71 72
f 28 73 74
f 28 74 41
f 28 41 29
f 28 72 73
f 41 74 73
f 41 73 75
f 41 75 76
f 41 76 77
f 41 77 78
f 41 78 42
f 57 79 80
f 57 80 81
f 58 81 82
f 60 83 61
f 60 65 83
f 61 84 63
f 61 63 62
f 61 83 85
f 61 85 86
f 61 86 84
f 63 87 88
f 63 88 66
f 63 84 87
f 65 69 85
f 65 85 83
f 66 88 67
f 67 88 71
f 68 89 69
f 69 89 116
f 69 116 90
f 69 90 91
f 69 91 85
f 71 88 92
f 71 92 93
f 71 93 72
f 72 93 94
f 72 94 95
f 72 95 96
f 72 96 73
f 73 96 75
f 75 96 76
f 76 96 98
f 76 98 94
f 76 94 99
f 76 99 97
f 79 100 80
f 80 100 101
f 80 101 102
f 80 102 103
f 80 103 104
f 80 104 81
f 81 105 106
f 81 106 82
f 81 104 105
f 84 86 107
f 84 107 108
f 84 108 109
f 84 109 110
f 84 110 87
f 85 91 111
f 85 111 86
f 86 112 107
f 86 111 113
f 86 113 112
f 87 110 114
f 87 114 115
f 87 115 92
f 87 92 88
f 90 117 113
f 90 113 91
f 90 116 118
f 90 118 119
f 90 119 117
f 91 113 111
f 92 115 120
f 92 120 121
f 92 121 93
f 93 121 94
f 94 98 96
f 94 96 95
f 94 121 99
f 97 99 122
f 99 121 120
f 99 120 123
f 99 123 122
f 101 124 102
f 102 124 125
f 102 125 126
f 102 126 103
f 103 127 104
f 103 126 127
f 104 127 105
f 105 127 128
f 105 128 106
f 106 128 129
f 107 112 130
f 107 130 108
f 108 130 131
f 108 131 132
f 108 132 133
f 108 133 110
f 108 110 109
f 110 133 114
f 112 134 131
f 112 131 130
f 112 113 134
f 113 117 119
f 113 119 135
f 113 135 136
f 113 136 137
f 113 137 131
f 113 131 134
f 114 133 115
f 115 138 120
f 115 133 139
f 115 139 138
f 119 140 135
f 120 138 139
f 120 139 123
f 122 123 141
f 122 141 142
f 122 142 143
f 123 139 144
f 123 144 145
f 123 145 141
f 124 146 125
f 125 147 148
f 125 148 149
f 125 149 126
f 125 146 147
f 126 149 150
f 126 150 127
f 127 150 151
f 127 151 152
f 127 152 128
f 128 152 153
f 128 153 154
f 128 154 129
f 129 154 140
f 131 137 136
f 131 136 132
f 132 155 133
f 132 136 156
f 132 156 157
f 132 157 155
f 133 155 144
f 133 144 139
f 135 140 136
f 136 140 158
f 136 158 159
f 136 159 160
f 136 160 161
f 136 161 162
f 136 162 156
f 140 154 159
f 140 159 158
f 141 145 163
f 141 163 142
f 142 163 164
f 142 164 143
f 143 164 165
f 144 157 166
f 144 166 167
f 144 167 168
f 144 168 164
f 144 164 163
f 144 163 145
f 144 155 157
f 148 169 170
f 148 170 171
f 148 171 149
f 149 171 150
f 150 171 172
f 150 172 173
f 150 173 174
f 150 174 175
f 150 175 151
f 151 175 176
f 151 176 152
f 152 176 159
f 152 159 154
f 152 154 153
f 156 162 177
f 156 177 178
f 156 178 166
f 156 166 157
f 159 176 160
f 160 176 179
f 160 179 161
f 161 179 177
f 161 177 162
f 164 180 181
f 164 181 165
f 164 168 182
f 164 182 183
f 164 183 180
f 165 181 184
f 166 178 167
f 167 178 185
f 167 185 186
f 167 186 187
f 167 187 188
f 167 188 189
f 167 189 168
f 168 189 190
f 168 190 182
f 169 191 170
f 170 191 192
f 170 192 171
f 171 192 172
f 172 192 173
f 173 193 207
f 173 207 194
f 173 194 174
f 173 192 193
f 174 194 195
f 174 195 179
f 174 179 175
f 175 179 176
f 177 185 178
f 177 179 195
f 177 195 185
f 180 184 181
f 182 190 196
f 182 196 197
f 182 197 183
f 185 195 198
f 185 198 186
f 186 199 200
f 186 200 187
f 186 198 201
f 186 201 199
f 187 202 188
f 187 200 202
f 188 202 190
f 188 190 189
f 190 202 203
f 190 203 196
f 191 204 193
f 191 193 192
f 193 205 206
f 193 206 207
f 193 204 205
f 194 207 208
f 194 208 195
f 195 208 198
f 198 208 209
f 198 209 201
f 199 210 211
f 199 211 200
f 199 201 213
f 199 213 210
f 200 211 212
f 200 212 202
f 201 209 213
f 202 212 203
f 206 214 209
f 206 209 207
f 207 209 208
f 209 214 215
f 209 215 213
