v 0.030046874375309673 0.084468982204147669 0.16407169777316288
v 0.030834234175437569 0.084306599662903631 0.16094512627377178
v 0.03097271321520273 0.081567054913312009 0.16140820804487166
v 0.030335703571173267 0.081567054913312009 0.16407169777316288
v 0.030133918405010118 0.084468982204147669 0.1669682458291174
v 0.030446487668858213 0.087376148025531564 0.1669682458291174
v 0.030379226668364512 0.087376148025531564 0.16407169777316288
v 0.030964801302329259 0.087381386556079799 0.16119028950342917
v 0.031265501614526126 0.086417569452053061 0.15937427279564786
v 0.031265501614526126 0.085160416284145612 0.15937427279564786
v 0.031566199762040947 0.081567054913312009 0.15995539684332866
v 0.031202195488128137 0.079681325702621347 0.16185313246298039
v 0.030755102058610595 0.080650380254855297 0.16298814452885524
v 0.03061662085416339 0.080645141724307062 0.16406867154766436
v 0.031043931254474189 0.079450847675955366 0.1669682458291174
v 0.030691795932212607 0.080645141724307062 0.1669682458291174
v 0.030426706804333514 0.081567054913312009 0.1669682458291174
v 0.03106767132245869 0.081567054913312009 0.16927458466684941
v 0.030956887224773744 0.084558030729421529 0.16994953685775882
v 0.031360457557100041 0.08558994331887021 0.17147499262404076
v 0.031360457557100041 0.08617661436429061 0.17147499262404076
v 0.031079542438791963 0.087239955972346656 0.16975582812030454
v 0.031336719653797585 0.089094256164429952 0.1687085939113433
v 0.031154715352159135 0.089492355262888207 0.1669682458291174
v 0.031119106332523405 0.089581403788162067 0.16407169777316288
v 0.031289239517828582 0.08920425772955573 0.16217699054369172
v 0.037188499213598097 0.10353579821552733 0.15960127434295002
v 0.033924322123646877 0.087376148025531564 0.1564111391199976
v 0.03383727701160541 0.084468982204147669 0.15628098977674054
v 0.050170035201206317 0.12602311707774111 0.15030629848809951
v 0.03414589031901677 0.079786087654857868 0.15662300737512508
v 0.033580099796599788 0.078754175065409188 0.15838454336520474
v 0.034165673348223513 0.077067495945118164 0.15943480596434656
v 0.031000410321964988 0.079403705230385341 0.16406867154766436
v 0.031253630498192853 0.079744183739836078 0.16894770469000364
v 0.03261865085472998 0.077999882948196514 0.1669682458291174
v 0.034043019216546316 0.077015114968999904 0.16987084633606897
v 0.034209195363073736 0.077088447902629059 0.17151131165938716
v 0.031158672390936892 0.080650380254855297 0.16910811628824596
v 0.034066758202189795 0.086606141399015207 0.17447747156053595
v 0.031506852839102761 0.080650380254855297 0.16982847052036143
v 0.031771941966981854 0.081567054913312009 0.17072739803307446
v 0.034383284504815648 0.080377998313167526 0.17421415097788739
v 0.034122150251032268 0.084468982204147669 0.17444417875068807
v 0.040045148932445263 0.10370341820497858 0.17431402940743101
v 0.040492242361962805 0.10564152947412853 0.17388726667167753
v 0.039495184400457267 0.10472485589801284 0.17286424226670449
v 0.039902712853902345 0.10682011009551756 0.17195320985199736
v 0.031760073015330625 0.088114725633440555 0.170645676956522
v 0.031771941966981854 0.090948556897683761 0.1669682458291174
v 0.04868631775176975 0.12602311707774111 0.17386305253832524
v 0.047966220575647089 0.12602311707774111 0.17079701420763282
v 0.037144977198747875 0.10361960821025296 0.16116607537007688
v 0.037813638823635309 0.105075809303878 0.16116607537007688
v 0.047404386280252099 0.12602311707774111 0.16406867154766436
v 0.047693216287871459 0.12602311707774111 0.16116607537007688
v 0.040021409946801784 0.10948632082913901 0.15951652704089903
v 0.048619056210105538 0.12602311707774111 0.15628704439241964
v 0.037057932086706408 0.086433282879015721 0.15371435441717646
v 0.036947147989021462 0.084468982204147669 0.15360236675627464
v 0.035487170607569396 0.084468982204147669 0.15482817641051549
v 0.070467285168844873 0.12602311707774111 0.15030629848809951
v 0.04803743915608906 0.11107347652774174 0.15030629848809951
v 0.035894697978673451 0.078754175065409188 0.15619624247468955
v 0.036915494925822467 0.076931304974274278 0.15655339336524876
v 0.034976772133994888 0.077853217080938203 0.15750074914466639
v 0.037046062052714157 0.082745635534701045 0.15369316867400473
v 0.035894697978673451 0.076606539891786202 0.15838454336520474
v 0.038909610848833542 0.075108432718457324 0.1583905958162018
v 0.040005583956372798 0.074217949630400765 0.15944388464084214
v 0.034003453158132829 0.077009876438451669 0.16116304914457835
v 0.032610737859515487 0.077947501972078254 0.16406867154766436
v 0.033682970899070241 0.078659888009587092 0.17218021139929951
v 0.040005583956372798 0.074217949630400765 0.17149618053189453
v 0.037208282242804841 0.077161783000940259 0.17426863169558904
v 0.035063816163695333 0.078659888009587092 0.17362999854002603
v 0.036072744159193121 0.076753207923726557 0.17260092168405594
v 0.035815566944187499 0.084468982204147669 0.17569723092846179
v 0.037880900906470033 0.084468982204147669 0.17693817387487731
v 0.051875320304842265 0.12602311707774111 0.17737401961649046
v 0.051293703250825787 0.12602311707774111 0.17691698596702354
v 0.03792046696488352 0.080645141724307062 0.17596660396210739
v 0.03859308454620769 0.081593245401371139 0.17662339880002564
v 0.039471445414813788 0.082578015545249794 0.17730137721643358
v 0.03651192459349617 0.078659888009587092 0.17457735431944366
v 0.049331240391013706 0.12602311707774111 0.17480738209224433
v 0.047804000926726917 0.12602311707774111 0.1698738725615675
v 0.047467691594894321 0.12602311707774111 0.16785506843983633
v 0.037188499213598097 0.10352532223677188 0.16337858822926232
v 0.047439995570473084 0.12602311707774111 0.1669682458291174
v 0.047404386280252099 0.12602311707774111 0.16495549415838329
v 0.048227354829430469 0.12602311707774111 0.15822110121209981
v 0.03872365167309938 0.084468982204147669 0.15294557408303844
v 0.046727811389564916 0.1018910230102581 0.15030932471359804
v 0.046704071862750926 0.10153482999150368 0.15030932471359804
v 0.070467285168844873 0.11589779949608264 0.15030629848809951
v 0.070467285168844873 0.12602311707774111 0.17895697799660848
v 0.050755608752830042 0.11107347652774174 0.15030629848809951
v 0.047459778329094572 0.097951944599425522 0.15030932471359804
v 0.046826725723842867 0.098245280663306234 0.15030932471359804
v 0.046755507413986153 0.098879095236637682 0.15030932471359804
v 0.039973930893173804 0.079880374710679963 0.1537506756172049
v 0.038719695716662644 0.076475585286808506 0.15615689721384463
v 0.038893784858404556 0.081692769905400447 0.15341773885999799
v 0.039518924468441768 0.080645141724307062 0.15360842137195374
v 0.041627780986745036 0.074668428622636257 0.15751890866233959
v 0.041627780986745036 0.073903661609009158 0.15897474825406316
v 0.044527953261612935 0.072903178038167843 0.16116304914457835
v 0.044527953261612935 0.072510316387916801 0.16406867154766436
v 0.041465561337824863 0.073662706521246707 0.16107224722684826
v 0.044527953261612935 0.072557460998168871 0.1669682458291174
v 0.041627780986745036 0.073987471603734783 0.17183214351459997
v 0.041627780986745036 0.075014145662635229 0.17328495255146092
v 0.038719695716662644 0.076800350369296583 0.17456221886258694
v 0.038909610848833542 0.075365101233182435 0.17258881678206184
v 0.038719695716662644 0.078659888009587092 0.17543390601644915
v 0.038632650604621177 0.080645141724307062 0.17624203377611414
v 0.039332965292707606 0.084468982204147669 0.17734980548313817
v 0.05033225485012649 0.1018910230102581 0.1787269502238078
v 0.056144469433854538 0.12602311707774111 0.17836979933324859
v 0.041014510869529563 0.080645141724307062 0.17691395974152502
v 0.04296114828008317 0.080068948822324154 0.17716517542217947
v 0.042541750874986864 0.080645141724307062 0.17724387027323341
v 0.041849349182114928 0.081593245401371139 0.17737098906162785
v 0.041627780986745036 0.084468982204147669 0.17761312606578672
v 0.041627780986745036 0.084468982204147669 0.1525490779316343
v 0.041627780986745036 0.081567054913312009 0.15290017420651442
v 0.070467285168844873 0.11350397286883102 0.16406867154766436
v 0.067669983455276916 0.10770011612247765 0.16407169777316288
v 0.053390690817477826 0.078659888009587092 0.16406867154766436
v 0.052037540494932949 0.076920827913177808 0.16189853450418645
v 0.05162209958744389 0.077434164942628031 0.15996144929432571
v 0.048773362322640706 0.07728225838013944 0.15686816844010043
v 0.046158063828370177 0.079953709808991164 0.15374159477602728
v 0.045461706179061506 0.080645141724307062 0.15339957717764274
v 0.044531909759220181 0.081567054913312009 0.15294557408303844
v 0.050304558825705253 0.098234804684550786 0.15030932471359804
v 0.070225933944268237 0.12602311707774111 0.18113922427144458
v 0.070467285168844873 0.12601787854719287 0.18122699779899409
v 0.049596331142404332 0.098161470668580608 0.15030932471359804
v 0.041627780986745036 0.079697039129584007 0.1535660455562462
v 0.041627780986745036 0.078240838035958965 0.15449524181799063
v 0.041627780986745036 0.076119393350395109 0.15594805301953363
v 0.044527953261612935 0.074893668118754003 0.15738573525826605
v 0.044527953261612935 0.073756993577068802 0.15884157268530757
v 0.046403371821139315 0.074024139152890384 0.15926531136024458
v 0.047396473285037606 0.073741280150106142 0.16140215559387461
v 0.047436039072865838 0.073144130961248249 0.16406867154766436
v 0.047701129824256464 0.073437467025128961 0.16717103324306726
v 0.044527953261612935 0.073102227046226459 0.16987084633606897
v 0.044527953261612935 0.073919375035971818 0.17188662423230161
v 0.044527953261612935 0.075312720257064175 0.17333640704366404
v 0.041627780986745036 0.076470348920942316 0.17477408928239646
v 0.05033225485012649 0.098989095719422437 0.17881774997685584
v 0.043230195529081042 0.080068948822324154 0.17716517542217947
v 0.044527953261612935 0.080645141724307062 0.15325732293239158
v 0.043095671904582106 0.080645141724307062 0.15323613718921986
v 0.060943800065648063 0.093714292676505023 0.1669682458291174
v 0.070467285168844873 0.11359301922942283 0.1669682458291174
v 0.060935885988092547 0.093782388703097477 0.16987084633606897
v 0.060215789353140398 0.09225809104170947 0.1669682458291174
v 0.053347167720286581 0.078659888009587092 0.1669682458291174
v 0.052243282699873855 0.076690349886511827 0.16406867154766436
v 0.050537997055067396 0.075239385158752975 0.16406867154766436
v 0.048943495507945883 0.074254617179556365 0.16252505842839127
v 0.050280819298891263 0.075826057286514398 0.1612417396662682
v 0.048342095424722661 0.074731286659850987 0.16058797538321257
v 0.049691289249660292 0.076669397929000932 0.15880525364996118
v 0.046834638989642616 0.076805588899844818 0.15652010055540089
v 0.044527953261612935 0.076344632846512855 0.15619321624919102
v 0.044527953261612935 0.079749422270384313 0.15356301933074767
v 0.070467285168844873 0.1187630592377627 0.17666274406087057
v 0.044041294314852417 0.080645141724307062 0.17709858980248372
v 0.045339052047384309 0.081567054913312009 0.17698660214158191
v 0.047439995570473084 0.081567054913312009 0.17614518157206904
v 0.049224412790936006 0.079524180609584522 0.17451076437038382
v 0.049097802161651563 0.074123662574578669 0.16406867154766436
v 0.049109671654473303 0.074113187678164244 0.16634172190491259
v 0.046862335014063852 0.073762232107617037 0.16987084633606897
v 0.048844580903082677 0.07432795011318552 0.16827880495009129
v 0.046233238906419394 0.074134139635675139 0.1715657923770888
v 0.044527953261612935 0.076763682820140983 0.17452589982724054
v 0.046233238906419394 0.077109399860139954 0.17430495073093544
v 0.044330124593057033 0.078921795054860439 0.17609977953086298
v 0.047297558680174399 0.078591793606506172 0.17491029107665057
v 0.070467285168844873 0.11424778792494722 0.16974372321831044
v 0.063760883726081741 0.099685768329968616 0.16987084633606897
v 0.060726187826714906 0.094222392257748033 0.1715536874750947
v 0.051986104943697722 0.076973208889296069 0.16890835509979463
v 0.063582838627903093 0.10005767585802672 0.1715052592083901
v 0.052203716641460368 0.076732255966215662 0.1669682458291174
v 0.070467285168844873 0.11736971618135239 0.17548838673415079
v 0.048168005741810238 0.077580832974568387 0.17392963815802098
v 0.050328298352519243 0.078644174582624432 0.1727431759293071
v 0.050173991698813564 0.075103194187909089 0.16717103324306726
v 0.050411386425782953 0.07625034579069076 0.16987689878706602
v 0.048318355897908671 0.074736525190399222 0.16987084633606897
v 0.049509286571533376 0.076784636942333923 0.17199255511284228
v 0.070467285168844873 0.11572494097608316 0.17271290934495775
v 0.051440096909316974 0.077769404921530533 0.17084543814497333
f 1 2 3
f 1 3 4
f 1 4 5
f 1 5 6
f 1 6 7
f 1 7 8
f 1 8 9
f 1 9 2
f 2 9 10
f 2 10 3
f 3 10 11
f 3 11 12
f 3 12 13
f 3 13 4
f 4 13 14
f 4 14 15
f 4 15 16
f 4 16 17
f 4 17 5
f 5 17 18
f 5 18 19
f 5 19 20
f 5 20 21
f 5 21 6
f 6 21 22
f 6 22 23
f 6 23 24
f 6 24 7
f 7 24 25
f 7 25 26
f 7 26 8
f 8 26 27
f 8 27 9
f 9 28 29
f 9 29 10
f 9 27 30
f 9 30 28
f 10 29 31
f 10 31 11
f 11 31 12
f 12 31 32
f 12 32 33
f 12 33 34
f 12 34 13
f 13 34 14
f 14 34 15
f 15 35 16
f 15 34 36
f 15 36 37
f 15 37 38
f 15 38 35
f 16 35 17
f 17 35 39
f 17 39 18
f 18 39 20
f 18 20 19
f 20 40 21
f 20 39 35
f 20 35 41
f 20 41 42
f 20 42 43
f 20 43 44
f 20 44 40
f 21 40 45
f 21 45 46
f 21 46 47
f 21 47 48
f 21 48 49
f 21 49 23
f 21 23 22
f 23 50 24
f 23 49 48
f 23 48 51
f 23 51 52
f 23 52 50
f 24 50 25
f 25 50 53
f 25 53 27
f 25 27 26
f 27 53 54
f 27 54 55
f 27 55 56
f 27 56 57
f 27 57 58
f 27 58 30
f 28 59 60
f 28 60 61
f 28 61 29
f 28 30 59
f 29 61 31
f 30 58 92
f 30 92 56
f 30 56 55
f 30 55 91
f 30 91 90
f 30 90 88
f 30 88 87
f 30 87 52
f 30 52 51
f 30 51 86
f 30 86 81
f 30 81 80
f 30 80 120
f 30 120 138
f 30 138 97
f 30 97 62
f 30 62 96
f 30 96 98
f 30 98 63
f 30 63 60
f 30 60 59
f 31 64 65
f 31 65 66
f 31 66 32
f 31 61 67
f 31 67 64
f 32 66 33
f 33 66 65
f 33 65 68
f 33 68 69
f 33 69 70
f 33 70 71
f 33 71 34
f 34 71 72
f 34 72 36
f 35 38 73
f 35 73 43
f 35 43 41
f 36 72 37
f 37 72 71
f 37 71 74
f 37 74 38
f 38 75 76
f 38 76 73
f 38 74 77
f 38 77 75
f 40 44 78
f 40 78 79
f 40 79 80
f 40 80 81
f 40 81 45
f 41 43 42
f 43 82 83
f 43 83 84
f 43 84 79
f 43 79 78
f 43 78 44
f 43 73 76
f 43 76 75
f 43 75 85
f 43 85 82
f 45 81 86
f 45 86 46
f 46 86 51
f 46 51 47
f 47 51 48
f 50 52 87
f 50 87 88
f 50 88 89
f 50 89 53
f 53 89 88
f 53 88 90
f 53 90 91
f 53 91 55
f 53 55 54
f 56 92 57
f 57 92 58
f 60 93 67
f 60 67 61
f 60 63 94
f 60 94 95
f 60 95 93
f 62 97 139
f 62 139 172
f 62 172 192
f 62 192 199
f 62 199 186
f 62 186 159
f 62 159 128
f 62 128 96
f 63 98 99
f 63 99 100
f 63 100 101
f 63 101 95
f 63 95 94
f 64 67 65
f 65 67 102
f 65 102 103
f 65 103 69
f 65 69 68
f 67 93 104
f 67 104 105
f 67 105 102
f 69 103 106
f 69 106 107
f 69 107 70
f 70 107 108
f 70 108 109
f 70 109 110
f 70 110 74
f 70 74 71
f 74 110 109
f 74 109 111
f 74 111 112
f 74 112 113
f 74 113 114
f 74 114 115
f 74 115 77
f 75 77 115
f 75 115 114
f 75 114 116
f 75 116 117
f 75 117 83
f 75 83 82
f 75 82 85
f 79 84 118
f 79 118 80
f 80 119 120
f 80 118 119
f 83 117 84
f 84 117 116
f 84 116 121
f 84 121 122
f 84 122 123
f 84 123 124
f 84 124 125
f 84 125 118
f 93 126 127
f 93 127 104
f 93 95 101
f 93 101 100
f 93 100 126
f 96 128 129
f 96 129 130
f 96 130 131
f 96 131 132
f 96 132 133
f 96 133 134
f 96 134 135
f 96 135 136
f 96 136 137
f 96 137 98
f 97 138 139
f 98 137 140
f 98 140 99
f 99 140 136
f 99 136 127
f 99 127 100
f 100 127 126
f 102 141 142
f 102 142 103
f 102 105 127
f 102 127 141
f 103 143 106
f 103 142 143
f 104 127 105
f 106 143 144
f 106 144 145
f 106 145 107
f 107 145 108
f 108 145 146
f 108 146 147
f 108 147 148
f 108 148 109
f 109 148 111
f 111 148 149
f 111 149 150
f 111 150 112
f 112 150 151
f 112 151 113
f 113 151 152
f 113 152 153
f 113 153 114
f 114 122 116
f 114 153 122
f 116 122 121
f 118 125 154
f 118 154 119
f 119 154 139
f 119 139 120
f 120 139 138
f 122 153 155
f 122 155 123
f 123 155 124
f 124 155 139
f 124 139 125
f 125 139 154
f 127 136 156
f 127 156 157
f 127 157 141
f 128 158 129
f 128 159 160
f 128 160 158
f 129 158 130
f 130 158 161
f 130 161 162
f 130 162 163
f 130 163 131
f 131 163 164
f 131 164 165
f 131 165 166
f 131 166 132
f 132 166 167
f 132 167 146
f 132 146 168
f 132 168 133
f 133 168 146
f 133 146 144
f 133 144 169
f 133 169 134
f 134 169 170
f 134 170 171
f 134 171 156
f 134 156 135
f 135 156 136
f 136 140 137
f 139 155 173
f 139 173 174
f 139 174 175
f 139 175 176
f 139 176 172
f 141 157 171
f 141 171 142
f 142 171 143
f 143 171 170
f 143 170 144
f 144 146 145
f 144 170 169
f 146 165 147
f 146 167 165
f 147 165 148
f 148 165 177
f 148 177 178
f 148 178 149
f 149 179 150
f 149 178 180
f 149 180 179
f 150 179 181
f 150 181 151
f 151 181 152
f 152 182 153
f 152 181 183
f 152 183 182
f 153 182 155
f 155 182 184
f 155 184 185
f 155 185 173
f 156 171 157
f 158 160 161
f 159 186 187
f 159 187 160
f 160 188 189
f 160 189 162
f 160 162 161
f 160 187 190
f 160 190 188
f 162 189 191
f 162 191 163
f 163 191 164
f 164 178 177
f 164 177 165
f 164 191 178
f 165 167 166
f 172 176 188
f 172 188 192
f 173 185 174
f 174 185 175
f 175 185 176
f 176 185 193
f 176 193 194
f 176 194 188
f 178 191 195
f 178 195 180
f 179 180 181
f 180 196 197
f 180 197 181
f 180 195 189
f 180 189 196
f 181 197 196
f 181 196 198
f 181 198 193
f 181 193 183
f 182 183 184
f 183 193 185
f 183 185 184
f 186 199 190
f 186 190 187
f 188 194 200
f 188 200 189
f 188 190 192
f 189 200 198
f 189 198 196
f 189 195 191
f 190 199 192
f 193 198 194
f 194 198 200
