solid ÅçÇ¹_Ä¬ÈÏ_sldprt
   facet normal 0.000000e+00 3.230851e-01 9.463699e-01
      outer loop
         vertex -3.758770e+00 1.368081e+00 4.286998e+00
         vertex -3.692046e+00 1.539091e+00 4.228617e+00
         vertex -4.000000e+00 1.539091e+00 4.228617e+00
      endloop
   endfacet
   facet normal 0.000000e+00 -3.230851e-01 9.463699e-01
      outer loop
         vertex 3.758770e+00 -1.368081e+00 4.286998e+00
         vertex 3.692046e+00 -1.539091e+00 4.228617e+00
         vertex 4.000000e+00 -1.539091e+00 4.228617e+00
      endloop
   endfacet
   facet normal -7.391556e-01 -5.870244e-02 6.709717e-01
      outer loop
         vertex -3.984569e+00 -3.510128e-01 4.486289e+00
         vertex -4.000000e+00 0.000000e+00 4.500000e+00
         vertex -4.000000e+00 -7.814168e-01 4.431635e+00
      endloop
   endfacet
   facet normal -5.830057e-02 -1.237014e-01 9.906054e-01
      outer loop
         vertex -3.984569e+00 -3.510128e-01 4.486289e+00
         vertex -4.000000e+00 -7.814168e-01 4.431635e+00
         vertex -3.939160e+00 -6.949981e-01 4.446007e+00
      endloop
   endfacet
   facet normal 0.000000e+00 -3.232375e-01 9.463179e-01
      outer loop
         vertex -3.692046e+00 -1.539091e+00 4.228617e+00
         vertex -3.758264e+00 -1.369471e+00 4.286554e+00
         vertex -4.000000e+00 -1.539091e+00 4.228617e+00
      endloop
   endfacet
   facet normal -3.216854e-02 -2.817102e-01 9.589601e-01
      outer loop
         vertex -4.000000e+00 -1.539091e+00 4.228617e+00
         vertex -3.758264e+00 -1.369471e+00 4.286554e+00
         vertex -3.851537e+00 -1.079658e+00 4.368563e+00
      endloop
   endfacet
   facet normal -1.089216e-01 -2.572791e-01 9.601789e-01
      outer loop
         vertex -4.000000e+00 -1.539091e+00 4.228617e+00
         vertex -3.851537e+00 -1.079658e+00 4.368563e+00
         vertex -4.000000e+00 -7.814168e-01 4.431635e+00
      endloop
   endfacet
   facet normal 0.000000e+00 -2.069037e-01 9.783613e-01
      outer loop
         vertex -4.000000e+00 -7.814168e-01 4.431635e+00
         vertex -3.851537e+00 -1.079658e+00 4.368563e+00
         vertex -3.922931e+00 -7.814168e-01 4.431635e+00
      endloop
   endfacet
   facet normal 0.000000e+00 -1.640553e-01 9.864511e-01
      outer loop
         vertex -4.000000e+00 -7.814168e-01 4.431635e+00
         vertex -3.922931e+00 -7.814168e-01 4.431635e+00
         vertex -3.939160e+00 -6.949981e-01 4.446007e+00
      endloop
   endfacet
   facet normal 0.000000e+00 -3.938439e-01 9.191773e-01
      outer loop
         vertex -3.692046e+00 -1.539091e+00 4.228617e+00
         vertex -4.000000e+00 -1.539091e+00 4.228617e+00
         vertex -3.464102e+00 -2.000000e+00 4.031129e+00
      endloop
   endfacet
   facet normal -2.947746e-02 -4.224343e-01 9.059141e-01
      outer loop
         vertex -3.464102e+00 -2.000000e+00 4.031129e+00
         vertex -4.000000e+00 -1.539091e+00 4.228617e+00
         vertex -4.000000e+00 -2.250000e+00 3.897114e+00
      endloop
   endfacet
   facet normal 0.000000e+00 -4.724565e-01 8.813540e-01
      outer loop
         vertex -3.464102e+00 -2.000000e+00 4.031129e+00
         vertex -4.000000e+00 -2.250000e+00 3.897114e+00
         vertex -3.307189e+00 -2.250000e+00 3.897114e+00
      endloop
   endfacet
   facet normal 0.000000e+00 -5.361626e-01 8.441147e-01
      outer loop
         vertex -3.307189e+00 -2.250000e+00 3.897114e+00
         vertex -4.000000e+00 -2.250000e+00 3.897114e+00
         vertex -3.064178e+00 -2.571150e+00 3.693127e+00
      endloop
   endfacet
   facet normal -1.827772e-02 -5.734807e-01 8.190152e-01
      outer loop
         vertex -3.064178e+00 -2.571150e+00 3.693127e+00
         vertex -4.000000e+00 -2.250000e+00 3.897114e+00
         vertex -4.000000e+00 -2.892544e+00 3.447200e+00
      endloop
   endfacet
   facet normal 2.352923e-04 -6.081240e-01 7.938420e-01
      outer loop
         vertex -3.064178e+00 -2.571150e+00 3.693127e+00
         vertex -4.000000e+00 -2.892544e+00 3.447200e+00
         vertex -2.757621e+00 -2.897504e+00 3.443032e+00
      endloop
   endfacet
   facet normal -1.333655e-04 -6.626957e-01 7.488888e-01
      outer loop
         vertex -2.757621e+00 -2.897504e+00 3.443032e+00
         vertex -4.000000e+00 -2.892544e+00 3.447200e+00
         vertex -2.571150e+00 -3.064178e+00 3.295575e+00
      endloop
   endfacet
   facet normal -9.901305e-03 -7.070721e-01 7.070721e-01
      outer loop
         vertex -2.571150e+00 -3.064178e+00 3.295575e+00
         vertex -4.000000e+00 -2.892544e+00 3.447200e+00
         vertex -4.000000e+00 -3.447200e+00 2.892544e+00
      endloop
   endfacet
   facet normal 4.650313e-05 -7.249533e-01 6.887980e-01
      outer loop
         vertex -2.571150e+00 -3.064178e+00 3.295575e+00
         vertex -4.000000e+00 -3.447200e+00 2.892544e+00
         vertex -2.027372e+00 -3.448154e+00 2.891407e+00
      endloop
   endfacet
   facet normal -2.213378e-06 -7.680343e-01 6.404087e-01
      outer loop
         vertex -2.027372e+00 -3.448154e+00 2.891407e+00
         vertex -4.000000e+00 -3.447200e+00 2.892544e+00
         vertex -2.000000e+00 -3.464102e+00 2.872281e+00
      endloop
   endfacet
   facet normal -1.111311e-03 -8.191515e-01 5.735762e-01
      outer loop
         vertex -2.000000e+00 -3.464102e+00 2.872281e+00
         vertex -4.000000e+00 -3.447200e+00 2.892544e+00
         vertex -4.000000e+00 -3.897114e+00 2.250000e+00
      endloop
   endfacet
   facet normal -7.479140e-03 -8.093775e-01 5.872411e-01
      outer loop
         vertex -2.000000e+00 -3.464102e+00 2.872281e+00
         vertex -4.000000e+00 -3.897114e+00 2.250000e+00
         vertex -1.368081e+00 -3.758770e+00 2.474196e+00
      endloop
   endfacet
   facet normal 1.221109e-02 -8.847993e-01 4.658124e-01
      outer loop
         vertex 6.945927e-01 -3.939231e+00 2.175422e+00
         vertex 4.000000e+00 -4.228617e+00 1.539091e+00
         vertex 9.013878e-01 -3.897114e+00 2.250000e+00
      endloop
   endfacet
   facet normal 0.000000e+00 -9.063079e-01 4.226180e-01
      outer loop
         vertex 9.013878e-01 -3.897114e+00 2.250000e+00
         vertex 4.000000e+00 -4.228617e+00 1.539091e+00
         vertex 4.000000e+00 -3.897114e+00 2.250000e+00
      endloop
   endfacet
   facet normal 0.000000e+00 -8.510184e-01 5.251359e-01
      outer loop
         vertex 9.013878e-01 -3.897114e+00 2.250000e+00
         vertex 4.000000e+00 -3.897114e+00 2.250000e+00
         vertex 1.368081e+00 -3.758770e+00 2.474196e+00
      endloop
   endfacet
   facet normal 8.594169e-03 -8.926803e-01 4.506084e-01
      outer loop
         vertex 6.945927e-01 -3.939231e+00 2.175422e+00
         vertex 4.391804e-01 -3.975817e+00 2.107814e+00
         vertex 4.000000e+00 -4.228617e+00 1.539091e+00
      endloop
   endfacet
   facet normal 5.492062e-03 -9.005634e-01 4.346900e-01
      outer loop
         vertex 4.000000e+00 -4.228617e+00 1.539091e+00
         vertex 4.391804e-01 -3.975817e+00 2.107814e+00
         vertex 1.778183e-01 -3.996046e+00 2.069207e+00
      endloop
   endfacet
   facet normal 2.327151e-03 -9.094642e-01 4.157756e-01
      outer loop
         vertex 4.000000e+00 -4.228617e+00 1.539091e+00
         vertex 1.778183e-01 -3.996046e+00 2.069207e+00
         vertex 8.673617e-16 -4.000000e+00 2.061553e+00
      endloop
   endfacet
   facet normal -4.954126e-03 -9.021052e-01 4.314877e-01
      outer loop
         vertex -1.778395e-01 -3.996045e+00 2.069209e+00
         vertex -3.527667e-01 -3.984414e+00 2.091517e+00
         vertex -4.000000e+00 -4.228617e+00 1.539091e+00
      endloop
   endfacet
   facet normal -8.074783e-03 -8.937891e-01 4.484147e-01
      outer loop
         vertex -4.000000e+00 -4.228617e+00 1.539091e+00
         vertex -3.527667e-01 -3.984414e+00 2.091517e+00
         vertex -6.945927e-01 -3.939231e+00 2.175422e+00
      endloop
   endfacet
   facet normal -2.012584e-03 -9.063061e-01 4.226171e-01
      outer loop
         vertex -4.000000e+00 -4.228617e+00 1.539091e+00
         vertex -6.945927e-01 -3.939231e+00 2.175422e+00
         vertex -4.000000e+00 -3.897114e+00 2.250000e+00
      endloop
   endfacet
   facet normal 0.000000e+00 -8.707448e-01 4.917351e-01
      outer loop
         vertex -4.000000e+00 -3.897114e+00 2.250000e+00
         vertex -6.945927e-01 -3.939231e+00 2.175422e+00
         vertex -9.013878e-01 -3.897114e+00 2.250000e+00
      endloop
   endfacet
   facet normal 0.000000e+00 -8.510184e-01 5.251359e-01
      outer loop
         vertex -4.000000e+00 -3.897114e+00 2.250000e+00
         vertex -9.013878e-01 -3.897114e+00 2.250000e+00
         vertex -1.368081e+00 -3.758770e+00 2.474196e+00
      endloop
   endfacet
   facet normal 4.508220e-04 -7.071067e-01 7.071067e-01
      outer loop
         vertex 4.000000e+00 -3.447200e+00 2.892544e+00
         vertex 4.000000e+00 -2.892544e+00 3.447200e+00
         vertex 2.757621e+00 -2.897504e+00 3.443032e+00
      endloop
   endfacet
   facet normal 2.537442e-02 -6.781731e-01 7.344640e-01
      outer loop
         vertex 2.757621e+00 -2.897504e+00 3.443032e+00
         vertex 2.571150e+00 -3.064178e+00 3.295575e+00
         vertex 4.000000e+00 -3.447200e+00 2.892544e+00
      endloop
   endfacet
   facet normal 0.000000e+00 -7.248710e-01 6.888846e-01
      outer loop
         vertex 4.000000e+00 -3.447200e+00 2.892544e+00
         vertex 2.571150e+00 -3.064178e+00 3.295575e+00
         vertex 2.028993e+00 -3.447200e+00 2.892544e+00
      endloop
   endfacet
   facet normal 0.000000e+00 -8.191520e-01 5.735765e-01
      outer loop
         vertex 4.000000e+00 -3.447200e+00 2.892544e+00
         vertex 2.028993e+00 -3.447200e+00 2.892544e+00
         vertex 4.000000e+00 -3.897114e+00 2.250000e+00
      endloop
   endfacet
   facet normal 2.334644e-02 -7.838694e-01 6.204867e-01
      outer loop
         vertex 4.000000e+00 -3.897114e+00 2.250000e+00
         vertex 2.028993e+00 -3.447200e+00 2.892544e+00
         vertex 2.000397e+00 -3.463872e+00 2.872558e+00
      endloop
   endfacet
   facet normal 7.482751e-03 -8.093563e-01 5.872703e-01
      outer loop
         vertex 4.000000e+00 -3.897114e+00 2.250000e+00
         vertex 2.000397e+00 -3.463872e+00 2.872558e+00
         vertex 1.368081e+00 -3.758770e+00 2.474196e+00
      endloop
   endfacet
   facet normal 0.000000e+00 -4.226180e-01 9.063079e-01
      outer loop
         vertex 4.000000e+00 -1.539091e+00 4.228617e+00
         vertex 3.692046e+00 -1.539091e+00 4.228617e+00
         vertex 4.000000e+00 -2.250000e+00 3.897114e+00
      endloop
   endfacet
   facet normal 3.718114e-02 -4.090511e-01 9.117537e-01
      outer loop
         vertex 3.692046e+00 -1.539091e+00 4.228617e+00
         vertex 3.464102e+00 -2.000000e+00 4.031129e+00
         vertex 4.000000e+00 -2.250000e+00 3.897114e+00
      endloop
   endfacet
   facet normal 0.000000e+00 -4.724565e-01 8.813540e-01
      outer loop
         vertex 4.000000e+00 -2.250000e+00 3.897114e+00
         vertex 3.464102e+00 -2.000000e+00 4.031129e+00
         vertex 3.307189e+00 -2.250000e+00 3.897114e+00
      endloop
   endfacet
   facet normal 0.000000e+00 -5.735765e-01 8.191520e-01
      outer loop
         vertex 4.000000e+00 -2.250000e+00 3.897114e+00
         vertex 3.307189e+00 -2.250000e+00 3.897114e+00
         vertex 4.000000e+00 -2.892544e+00 3.447200e+00
      endloop
   endfacet
   facet normal 2.953880e-02 -5.517595e-01 8.334800e-01
      outer loop
         vertex 4.000000e+00 -2.892544e+00 3.447200e+00
         vertex 3.307189e+00 -2.250000e+00 3.897114e+00
         vertex 3.064178e+00 -2.571150e+00 3.693127e+00
      endloop
   endfacet
   facet normal -2.352923e-04 -6.081240e-01 7.938420e-01
      outer loop
         vertex 4.000000e+00 -2.892544e+00 3.447200e+00
         vertex 3.064178e+00 -2.571150e+00 3.693127e+00
         vertex 2.757621e+00 -2.897504e+00 3.443032e+00
      endloop
   endfacet
   facet normal 7.409061e-01 -5.853456e-02 6.690529e-01
      outer loop
         vertex 4.000000e+00 -7.814168e-01 4.431635e+00
         vertex 4.000000e+00 0.000000e+00 4.500000e+00
         vertex 3.984659e+00 -3.499950e-01 4.486369e+00
      endloop
   endfacet
   facet normal 5.873768e-02 -1.235864e-01 9.905939e-01
      outer loop
         vertex 3.984659e+00 -3.499950e-01 4.486369e+00
         vertex 3.939231e+00 -6.945927e-01 4.446070e+00
         vertex 4.000000e+00 -7.814168e-01 4.431635e+00
      endloop
   endfacet
   facet normal -8.874343e-05 -1.640706e-01 9.864486e-01
      outer loop
         vertex 4.000000e+00 -7.814168e-01 4.431635e+00
         vertex 3.939231e+00 -6.945927e-01 4.446070e+00
         vertex 3.922790e+00 -7.821253e-01 4.431510e+00
      endloop
   endfacet
   facet normal 8.139373e-04 -2.588189e-01 9.659255e-01
      outer loop
         vertex 4.000000e+00 -7.814168e-01 4.431635e+00
         vertex 3.922790e+00 -7.821253e-01 4.431510e+00
         vertex 4.000000e+00 -1.539091e+00 4.228617e+00
      endloop
   endfacet
   facet normal 1.578191e-01 -2.406017e-01 9.577076e-01
      outer loop
         vertex 4.000000e+00 -1.539091e+00 4.228617e+00
         vertex 3.922790e+00 -7.821253e-01 4.431510e+00
         vertex 3.851144e+00 -1.081061e+00 4.368216e+00
      endloop
   endfacet
   facet normal 3.234002e-02 -2.817573e-01 9.589405e-01
      outer loop
         vertex 4.000000e+00 -1.539091e+00 4.228617e+00
         vertex 3.851144e+00 -1.081061e+00 4.368216e+00
         vertex 3.758770e+00 -1.368081e+00 4.286998e+00
      endloop
   endfacet
   facet normal 7.391556e-01 5.870244e-02 6.709717e-01
      outer loop
         vertex 3.984569e+00 3.510128e-01 4.486289e+00
         vertex 4.000000e+00 0.000000e+00 4.500000e+00
         vertex 4.000000e+00 7.814168e-01 4.431635e+00
      endloop
   endfacet
   facet normal 5.830057e-02 1.237014e-01 9.906054e-01
      outer loop
         vertex 3.984569e+00 3.510128e-01 4.486289e+00
         vertex 4.000000e+00 7.814168e-01 4.431635e+00
         vertex 3.939160e+00 6.949981e-01 4.446007e+00
      endloop
   endfacet
   facet normal -0.000000e+00 3.232375e-01 9.463179e-01
      outer loop
         vertex 3.692046e+00 1.539091e+00 4.228617e+00
         vertex 3.758264e+00 1.369471e+00 4.286554e+00
         vertex 4.000000e+00 1.539091e+00 4.228617e+00
      endloop
   endfacet
   facet normal 3.216854e-02 2.817102e-01 9.589601e-01
      outer loop
         vertex 4.000000e+00 1.539091e+00 4.228617e+00
         vertex 3.758264e+00 1.369471e+00 4.286554e+00
         vertex 3.851537e+00 1.079658e+00 4.368563e+00
      endloop
   endfacet
   facet normal 1.089216e-01 2.572791e-01 9.601789e-01
      outer loop
         vertex 4.000000e+00 1.539091e+00 4.228617e+00
         vertex 3.851537e+00 1.079658e+00 4.368563e+00
         vertex 4.000000e+00 7.814168e-01 4.431635e+00
      endloop
   endfacet
   facet normal 0.000000e+00 2.069037e-01 9.783613e-01
      outer loop
         vertex 4.000000e+00 7.814168e-01 4.431635e+00
         vertex 3.851537e+00 1.079658e+00 4.368563e+00
         vertex 3.922931e+00 7.814168e-01 4.431635e+00
      endloop
   endfacet
   facet normal 0.000000e+00 1.640553e-01 9.864511e-01
      outer loop
         vertex 4.000000e+00 7.814168e-01 4.431635e+00
         vertex 3.922931e+00 7.814168e-01 4.431635e+00
         vertex 3.939160e+00 6.949981e-01 4.446007e+00
      endloop
   endfacet
   facet normal -0.000000e+00 3.938439e-01 9.191773e-01
      outer loop
         vertex 3.692046e+00 1.539091e+00 4.228617e+00
         vertex 4.000000e+00 1.539091e+00 4.228617e+00
         vertex 3.464102e+00 2.000000e+00 4.031129e+00
      endloop
   endfacet
   facet normal 2.947746e-02 4.224343e-01 9.059141e-01
      outer loop
         vertex 3.464102e+00 2.000000e+00 4.031129e+00
         vertex 4.000000e+00 1.539091e+00 4.228617e+00
         vertex 4.000000e+00 2.250000e+00 3.897114e+00
      endloop
   endfacet
   facet normal 0.000000e+00 4.724565e-01 8.813540e-01
      outer loop
         vertex 3.464102e+00 2.000000e+00 4.031129e+00
         vertex 4.000000e+00 2.250000e+00 3.897114e+00
         vertex 3.307189e+00 2.250000e+00 3.897114e+00
      endloop
   endfacet
   facet normal -0.000000e+00 5.361626e-01 8.441147e-01
      outer loop
         vertex 3.307189e+00 2.250000e+00 3.897114e+00
         vertex 4.000000e+00 2.250000e+00 3.897114e+00
         vertex 3.064178e+00 2.571150e+00 3.693127e+00
      endloop
   endfacet
   facet normal 1.827772e-02 5.734807e-01 8.190152e-01
      outer loop
         vertex 3.064178e+00 2.571150e+00 3.693127e+00
         vertex 4.000000e+00 2.250000e+00 3.897114e+00
         vertex 4.000000e+00 2.892544e+00 3.447200e+00
      endloop
   endfacet
   facet normal -2.352923e-04 6.081240e-01 7.938420e-01
      outer loop
         vertex 3.064178e+00 2.571150e+00 3.693127e+00
         vertex 4.000000e+00 2.892544e+00 3.447200e+00
         vertex 2.757621e+00 2.897504e+00 3.443032e+00
      endloop
   endfacet
   facet normal 1.333655e-04 6.626957e-01 7.488888e-01
      outer loop
         vertex 2.757621e+00 2.897504e+00 3.443032e+00
         vertex 4.000000e+00 2.892544e+00 3.447200e+00
         vertex 2.571150e+00 3.064178e+00 3.295575e+00
      endloop
   endfacet
   facet normal 9.901305e-03 7.070721e-01 7.070721e-01
      outer loop
         vertex 2.571150e+00 3.064178e+00 3.295575e+00
         vertex 4.000000e+00 2.892544e+00 3.447200e+00
         vertex 4.000000e+00 3.447200e+00 2.892544e+00
      endloop
   endfacet
   facet normal -4.650313e-05 7.249533e-01 6.887980e-01
      outer loop
         vertex 2.571150e+00 3.064178e+00 3.295575e+00
         vertex 4.000000e+00 3.447200e+00 2.892544e+00
         vertex 2.027372e+00 3.448154e+00 2.891407e+00
      endloop
   endfacet
   facet normal 2.213378e-06 7.680343e-01 6.404087e-01
      outer loop
         vertex 2.027372e+00 3.448154e+00 2.891407e+00
         vertex 4.000000e+00 3.447200e+00 2.892544e+00
         vertex 2.000000e+00 3.464102e+00 2.872281e+00
      endloop
   endfacet
   facet normal 1.111311e-03 8.191515e-01 5.735762e-01
      outer loop
         vertex 2.000000e+00 3.464102e+00 2.872281e+00
         vertex 4.000000e+00 3.447200e+00 2.892544e+00
         vertex 4.000000e+00 3.897114e+00 2.250000e+00
      endloop
   endfacet
   facet normal 7.479140e-03 8.093775e-01 5.872411e-01
      outer loop
         vertex 2.000000e+00 3.464102e+00 2.872281e+00
         vertex 4.000000e+00 3.897114e+00 2.250000e+00
         vertex 1.368081e+00 3.758770e+00 2.474196e+00
      endloop
   endfacet
   facet normal -1.221109e-02 8.847993e-01 4.658124e-01
      outer loop
         vertex -6.945927e-01 3.939231e+00 2.175422e+00
         vertex -4.000000e+00 4.228617e+00 1.539091e+00
         vertex -9.013878e-01 3.897114e+00 2.250000e+00
      endloop
   endfacet
   facet normal 0.000000e+00 9.063079e-01 4.226180e-01
      outer loop
         vertex -9.013878e-01 3.897114e+00 2.250000e+00
         vertex -4.000000e+00 4.228617e+00 1.539091e+00
         vertex -4.000000e+00 3.897114e+00 2.250000e+00
      endloop
   endfacet
   facet normal 0.000000e+00 8.510184e-01 5.251359e-01
      outer loop
         vertex -9.013878e-01 3.897114e+00 2.250000e+00
         vertex -4.000000e+00 3.897114e+00 2.250000e+00
         vertex -1.368081e+00 3.758770e+00 2.474196e+00
      endloop
   endfacet
   facet normal -8.594169e-03 8.926803e-01 4.506084e-01
      outer loop
         vertex -6.945927e-01 3.939231e+00 2.175422e+00
         vertex -4.391804e-01 3.975817e+00 2.107814e+00
         vertex -4.000000e+00 4.228617e+00 1.539091e+00
      endloop
   endfacet
   facet normal -5.492062e-03 9.005634e-01 4.346900e-01
      outer loop
         vertex -4.000000e+00 4.228617e+00 1.539091e+00
         vertex -4.391804e-01 3.975817e+00 2.107814e+00
         vertex -1.778183e-01 3.996046e+00 2.069207e+00
      endloop
   endfacet
   facet normal -2.327151e-03 9.094642e-01 4.157756e-01
      outer loop
         vertex -4.000000e+00 4.228617e+00 1.539091e+00
         vertex -1.778183e-01 3.996046e+00 2.069207e+00
         vertex 0.000000e+00 4.000000e+00 2.061553e+00
      endloop
   endfacet
   facet normal 2.327248e-03 9.094640e-01 4.157763e-01
      outer loop
         vertex 4.000000e+00 4.228617e+00 1.539091e+00
         vertex 0.000000e+00 4.000000e+00 2.061553e+00
         vertex 1.778395e-01 3.996045e+00 2.069209e+00
      endloop
   endfacet
   facet normal 4.954126e-03 9.021052e-01 4.314877e-01
      outer loop
         vertex 1.778395e-01 3.996045e+00 2.069209e+00
         vertex 3.527667e-01 3.984414e+00 2.091517e+00
         vertex 4.000000e+00 4.228617e+00 1.539091e+00
      endloop
   endfacet
   facet normal 8.074783e-03 8.937891e-01 4.484147e-01
      outer loop
         vertex 4.000000e+00 4.228617e+00 1.539091e+00
         vertex 3.527667e-01 3.984414e+00 2.091517e+00
         vertex 6.945927e-01 3.939231e+00 2.175422e+00
      endloop
   endfacet
   facet normal 2.012584e-03 9.063061e-01 4.226171e-01
      outer loop
         vertex 4.000000e+00 4.228617e+00 1.539091e+00
         vertex 6.945927e-01 3.939231e+00 2.175422e+00
         vertex 4.000000e+00 3.897114e+00 2.250000e+00
      endloop
   endfacet
   facet normal 0.000000e+00 8.707448e-01 4.917351e-01
      outer loop
         vertex 4.000000e+00 3.897114e+00 2.250000e+00
         vertex 6.945927e-01 3.939231e+00 2.175422e+00
         vertex 9.013878e-01 3.897114e+00 2.250000e+00
      endloop
   endfacet
   facet normal 0.000000e+00 8.510184e-01 5.251359e-01
      outer loop
         vertex 4.000000e+00 3.897114e+00 2.250000e+00
         vertex 9.013878e-01 3.897114e+00 2.250000e+00
         vertex 1.368081e+00 3.758770e+00 2.474196e+00
      endloop
   endfacet
   facet normal -4.508220e-04 7.071067e-01 7.071067e-01
      outer loop
         vertex -4.000000e+00 3.447200e+00 2.892544e+00
         vertex -4.000000e+00 2.892544e+00 3.447200e+00
         vertex -2.757621e+00 2.897504e+00 3.443032e+00
      endloop
   endfacet
   facet normal -2.537442e-02 6.781731e-01 7.344640e-01
      outer loop
         vertex -2.757621e+00 2.897504e+00 3.443032e+00
         vertex -2.571150e+00 3.064178e+00 3.295575e+00
         vertex -4.000000e+00 3.447200e+00 2.892544e+00
      endloop
   endfacet
   facet normal -0.000000e+00 7.248710e-01 6.888846e-01
      outer loop
         vertex -4.000000e+00 3.447200e+00 2.892544e+00
         vertex -2.571150e+00 3.064178e+00 3.295575e+00
         vertex -2.028993e+00 3.447200e+00 2.892544e+00
      endloop
   endfacet
   facet normal -0.000000e+00 8.191520e-01 5.735765e-01
      outer loop
         vertex -4.000000e+00 3.447200e+00 2.892544e+00
         vertex -2.028993e+00 3.447200e+00 2.892544e+00
         vertex -4.000000e+00 3.897114e+00 2.250000e+00
      endloop
   endfacet
   facet normal -2.334644e-02 7.838694e-01 6.204867e-01
      outer loop
         vertex -4.000000e+00 3.897114e+00 2.250000e+00
         vertex -2.028993e+00 3.447200e+00 2.892544e+00
         vertex -2.000397e+00 3.463872e+00 2.872558e+00
      endloop
   endfacet
   facet normal -7.482751e-03 8.093563e-01 5.872703e-01
      outer loop
         vertex -4.000000e+00 3.897114e+00 2.250000e+00
         vertex -2.000397e+00 3.463872e+00 2.872558e+00
         vertex -1.368081e+00 3.758770e+00 2.474196e+00
      endloop
   endfacet
   facet normal -0.000000e+00 4.226180e-01 9.063079e-01
      outer loop
         vertex -4.000000e+00 1.539091e+00 4.228617e+00
         vertex -3.692046e+00 1.539091e+00 4.228617e+00
         vertex -4.000000e+00 2.250000e+00 3.897114e+00
      endloop
   endfacet
   facet normal -3.718114e-02 4.090511e-01 9.117537e-01
      outer loop
         vertex -3.692046e+00 1.539091e+00 4.228617e+00
         vertex -3.464102e+00 2.000000e+00 4.031129e+00
         vertex -4.000000e+00 2.250000e+00 3.897114e+00
      endloop
   endfacet
   facet normal -0.000000e+00 4.724565e-01 8.813540e-01
      outer loop
         vertex -4.000000e+00 2.250000e+00 3.897114e+00
         vertex -3.464102e+00 2.000000e+00 4.031129e+00
         vertex -3.307189e+00 2.250000e+00 3.897114e+00
      endloop
   endfacet
   facet normal -0.000000e+00 5.735765e-01 8.191520e-01
      outer loop
         vertex -4.000000e+00 2.250000e+00 3.897114e+00
         vertex -3.307189e+00 2.250000e+00 3.897114e+00
         vertex -4.000000e+00 2.892544e+00 3.447200e+00
      endloop
   endfacet
   facet normal -2.953880e-02 5.517595e-01 8.334800e-01
      outer loop
         vertex -4.000000e+00 2.892544e+00 3.447200e+00
         vertex -3.307189e+00 2.250000e+00 3.897114e+00
         vertex -3.064178e+00 2.571150e+00 3.693127e+00
      endloop
   endfacet
   facet normal 2.352923e-04 6.081240e-01 7.938420e-01
      outer loop
         vertex -4.000000e+00 2.892544e+00 3.447200e+00
         vertex -3.064178e+00 2.571150e+00 3.693127e+00
         vertex -2.757621e+00 2.897504e+00 3.443032e+00
      endloop
   endfacet
   facet normal -7.409061e-01 5.853456e-02 6.690529e-01
      outer loop
         vertex -4.000000e+00 7.814168e-01 4.431635e+00
         vertex -4.000000e+00 0.000000e+00 4.500000e+00
         vertex -3.984659e+00 3.499950e-01 4.486369e+00
      endloop
   endfacet
   facet normal -5.873768e-02 1.235864e-01 9.905939e-01
      outer loop
         vertex -3.984659e+00 3.499950e-01 4.486369e+00
         vertex -3.939231e+00 6.945927e-01 4.446070e+00
         vertex -4.000000e+00 7.814168e-01 4.431635e+00
      endloop
   endfacet
   facet normal 8.874343e-05 1.640706e-01 9.864486e-01
      outer loop
         vertex -4.000000e+00 7.814168e-01 4.431635e+00
         vertex -3.939231e+00 6.945927e-01 4.446070e+00
         vertex -3.922790e+00 7.821253e-01 4.431510e+00
      endloop
   endfacet
   facet normal -8.139373e-04 2.588189e-01 9.659255e-01
      outer loop
         vertex -4.000000e+00 7.814168e-01 4.431635e+00
         vertex -3.922790e+00 7.821253e-01 4.431510e+00
         vertex -4.000000e+00 1.539091e+00 4.228617e+00
      endloop
   endfacet
   facet normal -1.578191e-01 2.406017e-01 9.577076e-01
      outer loop
         vertex -4.000000e+00 1.539091e+00 4.228617e+00
         vertex -3.922790e+00 7.821253e-01 4.431510e+00
         vertex -3.851144e+00 1.081061e+00 4.368216e+00
      endloop
   endfacet
   facet normal -3.234002e-02 2.817573e-01 9.589405e-01
      outer loop
         vertex -4.000000e+00 1.539091e+00 4.228617e+00
         vertex -3.851144e+00 1.081061e+00 4.368216e+00
         vertex -3.758770e+00 1.368081e+00 4.286998e+00
      endloop
   endfacet
   facet normal 0.000000e+00 9.161321e-01 4.008765e-01
      outer loop
         vertex 0.000000e+00 4.000000e+00 2.061553e+00
         vertex 4.000000e+00 4.228617e+00 1.539091e+00
         vertex -4.000000e+00 4.228617e+00 1.539091e+00
      endloop
   endfacet
   facet normal -0.000000e+00 9.659258e-01 2.588190e-01
      outer loop
         vertex -4.000000e+00 4.228617e+00 1.539091e+00
         vertex 4.000000e+00 4.228617e+00 1.539091e+00
         vertex 4.000000e+00 4.431635e+00 7.814168e-01
      endloop
   endfacet
   facet normal 0.000000e+00 9.659258e-01 2.588190e-01
      outer loop
         vertex -4.000000e+00 4.228617e+00 1.539091e+00
         vertex 4.000000e+00 4.431635e+00 7.814168e-01
         vertex -4.000000e+00 4.431635e+00 7.814168e-01
      endloop
   endfacet
   facet normal -0.000000e+00 9.961947e-01 8.715577e-02
      outer loop
         vertex -4.000000e+00 4.431635e+00 7.814168e-01
         vertex 4.000000e+00 4.431635e+00 7.814168e-01
         vertex 4.000000e+00 4.500000e+00 2.755455e-16
      endloop
   endfacet
   facet normal 0.000000e+00 9.961947e-01 8.715577e-02
      outer loop
         vertex -4.000000e+00 4.431635e+00 7.814168e-01
         vertex 4.000000e+00 4.500000e+00 2.755455e-16
         vertex -4.000000e+00 4.500000e+00 2.755455e-16
      endloop
   endfacet
   facet normal 0.000000e+00 9.961947e-01 -8.715577e-02
      outer loop
         vertex -4.000000e+00 4.500000e+00 2.755455e-16
         vertex 4.000000e+00 4.500000e+00 2.755455e-16
         vertex 4.000000e+00 4.431635e+00 -7.814168e-01
      endloop
   endfacet
   facet normal 0.000000e+00 9.961947e-01 -8.715577e-02
      outer loop
         vertex -4.000000e+00 4.500000e+00 2.755455e-16
         vertex 4.000000e+00 4.431635e+00 -7.814168e-01
         vertex -4.000000e+00 4.431635e+00 -7.814168e-01
      endloop
   endfacet
   facet normal 0.000000e+00 9.659258e-01 -2.588190e-01
      outer loop
         vertex -4.000000e+00 4.431635e+00 -7.814168e-01
         vertex 4.000000e+00 4.431635e+00 -7.814168e-01
         vertex 4.000000e+00 4.228617e+00 -1.539091e+00
      endloop
   endfacet
   facet normal 0.000000e+00 9.659258e-01 -2.588190e-01
      outer loop
         vertex -4.000000e+00 4.431635e+00 -7.814168e-01
         vertex 4.000000e+00 4.228617e+00 -1.539091e+00
         vertex -4.000000e+00 4.228617e+00 -1.539091e+00
      endloop
   endfacet
   facet normal 0.000000e+00 9.063079e-01 -4.226180e-01
      outer loop
         vertex -4.000000e+00 4.228617e+00 -1.539091e+00
         vertex 4.000000e+00 4.228617e+00 -1.539091e+00
         vertex 4.000000e+00 3.897114e+00 -2.250000e+00
      endloop
   endfacet
   facet normal 0.000000e+00 9.063079e-01 -4.226180e-01
      outer loop
         vertex -4.000000e+00 4.228617e+00 -1.539091e+00
         vertex 4.000000e+00 3.897114e+00 -2.250000e+00
         vertex -4.000000e+00 3.897114e+00 -2.250000e+00
      endloop
   endfacet
   facet normal 0.000000e+00 8.191520e-01 -5.735765e-01
      outer loop
         vertex -4.000000e+00 3.897114e+00 -2.250000e+00
         vertex 4.000000e+00 3.897114e+00 -2.250000e+00
         vertex 4.000000e+00 3.447200e+00 -2.892544e+00
      endloop
   endfacet
   facet normal 0.000000e+00 8.191520e-01 -5.735765e-01
      outer loop
         vertex -4.000000e+00 3.897114e+00 -2.250000e+00
         vertex 4.000000e+00 3.447200e+00 -2.892544e+00
         vertex -4.000000e+00 3.447200e+00 -2.892544e+00
      endloop
   endfacet
   facet normal 0.000000e+00 7.071068e-01 -7.071068e-01
      outer loop
         vertex -4.000000e+00 3.447200e+00 -2.892544e+00
         vertex 4.000000e+00 3.447200e+00 -2.892544e+00
         vertex 4.000000e+00 2.892544e+00 -3.447200e+00
      endloop
   endfacet
   facet normal 0.000000e+00 7.071068e-01 -7.071068e-01
      outer loop
         vertex -4.000000e+00 3.447200e+00 -2.892544e+00
         vertex 4.000000e+00 2.892544e+00 -3.447200e+00
         vertex -4.000000e+00 2.892544e+00 -3.447200e+00
      endloop
   endfacet
   facet normal 0.000000e+00 5.735765e-01 -8.191520e-01
      outer loop
         vertex -4.000000e+00 2.892544e+00 -3.447200e+00
         vertex 4.000000e+00 2.892544e+00 -3.447200e+00
         vertex 4.000000e+00 2.250000e+00 -3.897114e+00
      endloop
   endfacet
   facet normal 0.000000e+00 5.735765e-01 -8.191520e-01
      outer loop
         vertex -4.000000e+00 2.892544e+00 -3.447200e+00
         vertex 4.000000e+00 2.250000e+00 -3.897114e+00
         vertex -4.000000e+00 2.250000e+00 -3.897114e+00
      endloop
   endfacet
   facet normal 0.000000e+00 4.226180e-01 -9.063079e-01
      outer loop
         vertex -4.000000e+00 2.250000e+00 -3.897114e+00
         vertex 4.000000e+00 2.250000e+00 -3.897114e+00
         vertex 4.000000e+00 1.539091e+00 -4.228617e+00
      endloop
   endfacet
   facet normal 0.000000e+00 4.226180e-01 -9.063079e-01
      outer loop
         vertex -4.000000e+00 2.250000e+00 -3.897114e+00
         vertex 4.000000e+00 1.539091e+00 -4.228617e+00
         vertex -4.000000e+00 1.539091e+00 -4.228617e+00
      endloop
   endfacet
   facet normal 0.000000e+00 2.588190e-01 -9.659258e-01
      outer loop
         vertex -4.000000e+00 1.539091e+00 -4.228617e+00
         vertex 4.000000e+00 1.539091e+00 -4.228617e+00
         vertex 4.000000e+00 7.814168e-01 -4.431635e+00
      endloop
   endfacet
   facet normal 0.000000e+00 2.588190e-01 -9.659258e-01
      outer loop
         vertex -4.000000e+00 1.539091e+00 -4.228617e+00
         vertex 4.000000e+00 7.814168e-01 -4.431635e+00
         vertex -4.000000e+00 7.814168e-01 -4.431635e+00
      endloop
   endfacet
   facet normal 0.000000e+00 8.715577e-02 -9.961947e-01
      outer loop
         vertex -4.000000e+00 7.814168e-01 -4.431635e+00
         vertex 4.000000e+00 7.814168e-01 -4.431635e+00
         vertex 4.000000e+00 5.510910e-16 -4.500000e+00
      endloop
   endfacet
   facet normal 0.000000e+00 8.715577e-02 -9.961947e-01
      outer loop
         vertex -4.000000e+00 7.814168e-01 -4.431635e+00
         vertex 4.000000e+00 5.510910e-16 -4.500000e+00
         vertex -4.000000e+00 5.510910e-16 -4.500000e+00
      endloop
   endfacet
   facet normal 0.000000e+00 -8.715577e-02 -9.961947e-01
      outer loop
         vertex -4.000000e+00 5.510910e-16 -4.500000e+00
         vertex 4.000000e+00 5.510910e-16 -4.500000e+00
         vertex 4.000000e+00 -7.814168e-01 -4.431635e+00
      endloop
   endfacet
   facet normal 0.000000e+00 -8.715577e-02 -9.961947e-01
      outer loop
         vertex -4.000000e+00 5.510910e-16 -4.500000e+00
         vertex 4.000000e+00 -7.814168e-01 -4.431635e+00
         vertex -4.000000e+00 -7.814168e-01 -4.431635e+00
      endloop
   endfacet
   facet normal 0.000000e+00 -2.588190e-01 -9.659258e-01
      outer loop
         vertex -4.000000e+00 -7.814168e-01 -4.431635e+00
         vertex 4.000000e+00 -7.814168e-01 -4.431635e+00
         vertex 4.000000e+00 -1.539091e+00 -4.228617e+00
      endloop
   endfacet
   facet normal 0.000000e+00 -2.588190e-01 -9.659258e-01
      outer loop
         vertex -4.000000e+00 -7.814168e-01 -4.431635e+00
         vertex 4.000000e+00 -1.539091e+00 -4.228617e+00
         vertex -4.000000e+00 -1.539091e+00 -4.228617e+00
      endloop
   endfacet
   facet normal 0.000000e+00 -4.226180e-01 -9.063079e-01
      outer loop
         vertex -4.000000e+00 -1.539091e+00 -4.228617e+00
         vertex 4.000000e+00 -1.539091e+00 -4.228617e+00
         vertex 4.000000e+00 -2.250000e+00 -3.897114e+00
      endloop
   endfacet
   facet normal 0.000000e+00 -4.226180e-01 -9.063079e-01
      outer loop
         vertex -4.000000e+00 -1.539091e+00 -4.228617e+00
         vertex 4.000000e+00 -2.250000e+00 -3.897114e+00
         vertex -4.000000e+00 -2.250000e+00 -3.897114e+00
      endloop
   endfacet
   facet normal 0.000000e+00 -5.735765e-01 -8.191520e-01
      outer loop
         vertex -4.000000e+00 -2.250000e+00 -3.897114e+00
         vertex 4.000000e+00 -2.250000e+00 -3.897114e+00
         vertex 4.000000e+00 -2.892544e+00 -3.447200e+00
      endloop
   endfacet
   facet normal 0.000000e+00 -5.735765e-01 -8.191520e-01
      outer loop
         vertex -4.000000e+00 -2.250000e+00 -3.897114e+00
         vertex 4.000000e+00 -2.892544e+00 -3.447200e+00
         vertex -4.000000e+00 -2.892544e+00 -3.447200e+00
      endloop
   endfacet
   facet normal 0.000000e+00 -7.071068e-01 -7.071068e-01
      outer loop
         vertex -4.000000e+00 -2.892544e+00 -3.447200e+00
         vertex 4.000000e+00 -2.892544e+00 -3.447200e+00
         vertex 4.000000e+00 -3.447200e+00 -2.892544e+00
      endloop
   endfacet
   facet normal 0.000000e+00 -7.071068e-01 -7.071068e-01
      outer loop
         vertex -4.000000e+00 -2.892544e+00 -3.447200e+00
         vertex 4.000000e+00 -3.447200e+00 -2.892544e+00
         vertex -4.000000e+00 -3.447200e+00 -2.892544e+00
      endloop
   endfacet
   facet normal 0.000000e+00 -8.191520e-01 -5.735765e-01
      outer loop
         vertex -4.000000e+00 -3.447200e+00 -2.892544e+00
         vertex 4.000000e+00 -3.447200e+00 -2.892544e+00
         vertex 4.000000e+00 -3.897114e+00 -2.250000e+00
      endloop
   endfacet
   facet normal 0.000000e+00 -8.191520e-01 -5.735765e-01
      outer loop
         vertex -4.000000e+00 -3.447200e+00 -2.892544e+00
         vertex 4.000000e+00 -3.897114e+00 -2.250000e+00
         vertex -4.000000e+00 -3.897114e+00 -2.250000e+00
      endloop
   endfacet
   facet normal 0.000000e+00 -9.063079e-01 -4.226180e-01
      outer loop
         vertex -4.000000e+00 -3.897114e+00 -2.250000e+00
         vertex 4.000000e+00 -3.897114e+00 -2.250000e+00
         vertex 4.000000e+00 -4.228617e+00 -1.539091e+00
      endloop
   endfacet
   facet normal 0.000000e+00 -9.063079e-01 -4.226180e-01
      outer loop
         vertex -4.000000e+00 -3.897114e+00 -2.250000e+00
         vertex 4.000000e+00 -4.228617e+00 -1.539091e+00
         vertex -4.000000e+00 -4.228617e+00 -1.539091e+00
      endloop
   endfacet
   facet normal 0.000000e+00 -9.659258e-01 -2.588190e-01
      outer loop
         vertex -4.000000e+00 -4.228617e+00 -1.539091e+00
         vertex 4.000000e+00 -4.228617e+00 -1.539091e+00
         vertex 4.000000e+00 -4.431635e+00 -7.814168e-01
      endloop
   endfacet
   facet normal 0.000000e+00 -9.659258e-01 -2.588190e-01
      outer loop
         vertex -4.000000e+00 -4.228617e+00 -1.539091e+00
         vertex 4.000000e+00 -4.431635e+00 -7.814168e-01
         vertex -4.000000e+00 -4.431635e+00 -7.814168e-01
      endloop
   endfacet
   facet normal 0.000000e+00 -9.961947e-01 -8.715577e-02
      outer loop
         vertex -4.000000e+00 -4.431635e+00 -7.814168e-01
         vertex 4.000000e+00 -4.431635e+00 -7.814168e-01
         vertex 4.000000e+00 -4.500000e+00 -8.266366e-16
      endloop
   endfacet
   facet normal 0.000000e+00 -9.961947e-01 -8.715577e-02
      outer loop
         vertex -4.000000e+00 -4.431635e+00 -7.814168e-01
         vertex 4.000000e+00 -4.500000e+00 -8.266366e-16
         vertex -4.000000e+00 -4.500000e+00 -8.266366e-16
      endloop
   endfacet
   facet normal 0.000000e+00 -9.961947e-01 8.715577e-02
      outer loop
         vertex -4.000000e+00 -4.500000e+00 -8.266366e-16
         vertex 4.000000e+00 -4.500000e+00 -8.266366e-16
         vertex 4.000000e+00 -4.431635e+00 7.814168e-01
      endloop
   endfacet
   facet normal 0.000000e+00 -9.961947e-01 8.715577e-02
      outer loop
         vertex -4.000000e+00 -4.500000e+00 -8.266366e-16
         vertex 4.000000e+00 -4.431635e+00 7.814168e-01
         vertex -4.000000e+00 -4.431635e+00 7.814168e-01
      endloop
   endfacet
   facet normal 0.000000e+00 -9.659258e-01 2.588190e-01
      outer loop
         vertex -4.000000e+00 -4.431635e+00 7.814168e-01
         vertex 4.000000e+00 -4.431635e+00 7.814168e-01
         vertex 4.000000e+00 -4.228617e+00 1.539091e+00
      endloop
   endfacet
   facet normal 0.000000e+00 -9.659258e-01 2.588190e-01
      outer loop
         vertex -4.000000e+00 -4.431635e+00 7.814168e-01
         vertex 4.000000e+00 -4.228617e+00 1.539091e+00
         vertex -4.000000e+00 -4.228617e+00 1.539091e+00
      endloop
   endfacet
   facet normal 0.000000e+00 -9.161321e-01 4.008765e-01
      outer loop
         vertex -4.000000e+00 -4.228617e+00 1.539091e+00
         vertex 4.000000e+00 -4.228617e+00 1.539091e+00
         vertex 8.673617e-16 -4.000000e+00 2.061553e+00
      endloop
   endfacet
   facet normal -2.327248e-03 -9.094640e-01 4.157763e-01
      outer loop
         vertex -4.000000e+00 -4.228617e+00 1.539091e+00
         vertex 8.673617e-16 -4.000000e+00 2.061553e+00
         vertex -1.778395e-01 -3.996045e+00 2.069209e+00
      endloop
   endfacet
   facet normal 1.000000e+00 0.000000e+00 0.000000e+00
      outer loop
         vertex 4.000000e+00 1.539091e+00 4.228617e+00
         vertex 4.000000e+00 7.814168e-01 4.431635e+00
         vertex 4.000000e+00 0.000000e+00 0.000000e+00
      endloop
   endfacet
   facet normal 1.000000e+00 0.000000e+00 0.000000e+00
      outer loop
         vertex 4.000000e+00 0.000000e+00 0.000000e+00
         vertex 4.000000e+00 7.814168e-01 4.431635e+00
         vertex 4.000000e+00 0.000000e+00 4.500000e+00
      endloop
   endfacet
   facet normal 1.000000e+00 0.000000e+00 -0.000000e+00
      outer loop
         vertex 4.000000e+00 0.000000e+00 0.000000e+00
         vertex 4.000000e+00 0.000000e+00 4.500000e+00
         vertex 4.000000e+00 -7.814168e-01 4.431635e+00
      endloop
   endfacet
   facet normal 1.000000e+00 0.000000e+00 0.000000e+00
      outer loop
         vertex 4.000000e+00 3.447200e+00 2.892544e+00
         vertex 4.000000e+00 2.892544e+00 3.447200e+00
         vertex 4.000000e+00 0.000000e+00 0.000000e+00
      endloop
   endfacet
   facet normal 1.000000e+00 0.000000e+00 0.000000e+00
      outer loop
         vertex 4.000000e+00 0.000000e+00 0.000000e+00
         vertex 4.000000e+00 2.892544e+00 3.447200e+00
         vertex 4.000000e+00 2.250000e+00 3.897114e+00
      endloop
   endfacet
   facet normal 1.000000e+00 0.000000e+00 0.000000e+00
      outer loop
         vertex 4.000000e+00 0.000000e+00 0.000000e+00
         vertex 4.000000e+00 2.250000e+00 3.897114e+00
         vertex 4.000000e+00 1.539091e+00 4.228617e+00
      endloop
   endfacet
   facet normal 1.000000e+00 0.000000e+00 0.000000e+00
      outer loop
         vertex 4.000000e+00 4.431635e+00 7.814168e-01
         vertex 4.000000e+00 4.228617e+00 1.539091e+00
         vertex 4.000000e+00 0.000000e+00 0.000000e+00
      endloop
   endfacet
   facet normal 1.000000e+00 0.000000e+00 0.000000e+00
      outer loop
         vertex 4.000000e+00 0.000000e+00 0.000000e+00
         vertex 4.000000e+00 4.228617e+00 1.539091e+00
         vertex 4.000000e+00 3.897114e+00 2.250000e+00
      endloop
   endfacet
   facet normal 1.000000e+00 0.000000e+00 0.000000e+00
      outer loop
         vertex 4.000000e+00 0.000000e+00 0.000000e+00
         vertex 4.000000e+00 3.897114e+00 2.250000e+00
         vertex 4.000000e+00 3.447200e+00 2.892544e+00
      endloop
   endfacet
   facet normal 1.000000e+00 0.000000e+00 -0.000000e+00
      outer loop
         vertex 4.000000e+00 4.228617e+00 -1.539091e+00
         vertex 4.000000e+00 4.431635e+00 -7.814168e-01
         vertex 4.000000e+00 0.000000e+00 0.000000e+00
      endloop
   endfacet
   facet normal 1.000000e+00 -0.000000e+00 0.000000e+00
      outer loop
         vertex 4.000000e+00 0.000000e+00 0.000000e+00
         vertex 4.000000e+00 4.431635e+00 -7.814168e-01
         vertex 4.000000e+00 4.500000e+00 2.755455e-16
      endloop
   endfacet
   facet normal 1.000000e+00 0.000000e+00 0.000000e+00
      outer loop
         vertex 4.000000e+00 0.000000e+00 0.000000e+00
         vertex 4.000000e+00 4.500000e+00 2.755455e-16
         vertex 4.000000e+00 4.431635e+00 7.814168e-01
      endloop
   endfacet
   facet normal 1.000000e+00 0.000000e+00 -0.000000e+00
      outer loop
         vertex 4.000000e+00 2.892544e+00 -3.447200e+00
         vertex 4.000000e+00 3.447200e+00 -2.892544e+00
         vertex 4.000000e+00 0.000000e+00 0.000000e+00
      endloop
   endfacet
   facet normal 1.000000e+00 0.000000e+00 0.000000e+00
      outer loop
         vertex 4.000000e+00 0.000000e+00 0.000000e+00
         vertex 4.000000e+00 3.447200e+00 -2.892544e+00
         vertex 4.000000e+00 3.897114e+00 -2.250000e+00
      endloop
   endfacet
   facet normal 1.000000e+00 0.000000e+00 0.000000e+00
      outer loop
         vertex 4.000000e+00 0.000000e+00 0.000000e+00
         vertex 4.000000e+00 3.897114e+00 -2.250000e+00
         vertex 4.000000e+00 4.228617e+00 -1.539091e+00
      endloop
   endfacet
   facet normal 1.000000e+00 0.000000e+00 -0.000000e+00
      outer loop
         vertex 4.000000e+00 7.814168e-01 -4.431635e+00
         vertex 4.000000e+00 1.539091e+00 -4.228617e+00
         vertex 4.000000e+00 0.000000e+00 0.000000e+00
      endloop
   endfacet
   facet normal 1.000000e+00 0.000000e+00 0.000000e+00
      outer loop
         vertex 4.000000e+00 0.000000e+00 0.000000e+00
         vertex 4.000000e+00 1.539091e+00 -4.228617e+00
         vertex 4.000000e+00 2.250000e+00 -3.897114e+00
      endloop
   endfacet
   facet normal 1.000000e+00 0.000000e+00 0.000000e+00
      outer loop
         vertex 4.000000e+00 0.000000e+00 0.000000e+00
         vertex 4.000000e+00 2.250000e+00 -3.897114e+00
         vertex 4.000000e+00 2.892544e+00 -3.447200e+00
      endloop
   endfacet
   facet normal 1.000000e+00 -0.000000e+00 0.000000e+00
      outer loop
         vertex 4.000000e+00 -1.539091e+00 -4.228617e+00
         vertex 4.000000e+00 -7.814168e-01 -4.431635e+00
         vertex 4.000000e+00 0.000000e+00 0.000000e+00
      endloop
   endfacet
   facet normal 1.000000e+00 0.000000e+00 0.000000e+00
      outer loop
         vertex 4.000000e+00 0.000000e+00 0.000000e+00
         vertex 4.000000e+00 -7.814168e-01 -4.431635e+00
         vertex 4.000000e+00 5.510910e-16 -4.500000e+00
      endloop
   endfacet
   facet normal 1.000000e+00 0.000000e+00 0.000000e+00
      outer loop
         vertex 4.000000e+00 0.000000e+00 0.000000e+00
         vertex 4.000000e+00 5.510910e-16 -4.500000e+00
         vertex 4.000000e+00 7.814168e-01 -4.431635e+00
      endloop
   endfacet
   facet normal 1.000000e+00 -0.000000e+00 0.000000e+00
      outer loop
         vertex 4.000000e+00 -3.447200e+00 -2.892544e+00
         vertex 4.000000e+00 -2.892544e+00 -3.447200e+00
         vertex 4.000000e+00 0.000000e+00 0.000000e+00
      endloop
   endfacet
   facet normal 1.000000e+00 0.000000e+00 0.000000e+00
      outer loop
         vertex 4.000000e+00 0.000000e+00 0.000000e+00
         vertex 4.000000e+00 -2.892544e+00 -3.447200e+00
         vertex 4.000000e+00 -2.250000e+00 -3.897114e+00
      endloop
   endfacet
   facet normal 1.000000e+00 0.000000e+00 0.000000e+00
      outer loop
         vertex 4.000000e+00 0.000000e+00 0.000000e+00
         vertex 4.000000e+00 -2.250000e+00 -3.897114e+00
         vertex 4.000000e+00 -1.539091e+00 -4.228617e+00
      endloop
   endfacet
   facet normal 1.000000e+00 -0.000000e+00 0.000000e+00
      outer loop
         vertex 4.000000e+00 -4.431635e+00 -7.814168e-01
         vertex 4.000000e+00 -4.228617e+00 -1.539091e+00
         vertex 4.000000e+00 0.000000e+00 0.000000e+00
      endloop
   endfacet
   facet normal 1.000000e+00 0.000000e+00 0.000000e+00
      outer loop
         vertex 4.000000e+00 0.000000e+00 0.000000e+00
         vertex 4.000000e+00 -4.228617e+00 -1.539091e+00
         vertex 4.000000e+00 -3.897114e+00 -2.250000e+00
      endloop
   endfacet
   facet normal 1.000000e+00 0.000000e+00 0.000000e+00
      outer loop
         vertex 4.000000e+00 0.000000e+00 0.000000e+00
         vertex 4.000000e+00 -3.897114e+00 -2.250000e+00
         vertex 4.000000e+00 -3.447200e+00 -2.892544e+00
      endloop
   endfacet
   facet normal 1.000000e+00 0.000000e+00 0.000000e+00
      outer loop
         vertex 4.000000e+00 -4.228617e+00 1.539091e+00
         vertex 4.000000e+00 -4.431635e+00 7.814168e-01
         vertex 4.000000e+00 0.000000e+00 0.000000e+00
      endloop
   endfacet
   facet normal 1.000000e+00 0.000000e+00 0.000000e+00
      outer loop
         vertex 4.000000e+00 0.000000e+00 0.000000e+00
         vertex 4.000000e+00 -4.431635e+00 7.814168e-01
         vertex 4.000000e+00 -4.500000e+00 -8.266366e-16
      endloop
   endfacet
   facet normal 1.000000e+00 0.000000e+00 0.000000e+00
      outer loop
         vertex 4.000000e+00 0.000000e+00 0.000000e+00
         vertex 4.000000e+00 -4.500000e+00 -8.266366e-16
         vertex 4.000000e+00 -4.431635e+00 -7.814168e-01
      endloop
   endfacet
   facet normal 1.000000e+00 0.000000e+00 0.000000e+00
      outer loop
         vertex 4.000000e+00 -2.892544e+00 3.447200e+00
         vertex 4.000000e+00 -3.447200e+00 2.892544e+00
         vertex 4.000000e+00 0.000000e+00 0.000000e+00
      endloop
   endfacet
   facet normal 1.000000e+00 0.000000e+00 0.000000e+00
      outer loop
         vertex 4.000000e+00 0.000000e+00 0.000000e+00
         vertex 4.000000e+00 -3.447200e+00 2.892544e+00
         vertex 4.000000e+00 -3.897114e+00 2.250000e+00
      endloop
   endfacet
   facet normal 1.000000e+00 0.000000e+00 0.000000e+00
      outer loop
         vertex 4.000000e+00 0.000000e+00 0.000000e+00
         vertex 4.000000e+00 -3.897114e+00 2.250000e+00
         vertex 4.000000e+00 -4.228617e+00 1.539091e+00
      endloop
   endfacet
   facet normal 1.000000e+00 0.000000e+00 0.000000e+00
      outer loop
         vertex 4.000000e+00 -7.814168e-01 4.431635e+00
         vertex 4.000000e+00 -1.539091e+00 4.228617e+00
         vertex 4.000000e+00 0.000000e+00 0.000000e+00
      endloop
   endfacet
   facet normal 1.000000e+00 0.000000e+00 0.000000e+00
      outer loop
         vertex 4.000000e+00 0.000000e+00 0.000000e+00
         vertex 4.000000e+00 -1.539091e+00 4.228617e+00
         vertex 4.000000e+00 -2.250000e+00 3.897114e+00
      endloop
   endfacet
   facet normal 1.000000e+00 0.000000e+00 0.000000e+00
      outer loop
         vertex 4.000000e+00 0.000000e+00 0.000000e+00
         vertex 4.000000e+00 -2.250000e+00 3.897114e+00
         vertex 4.000000e+00 -2.892544e+00 3.447200e+00
      endloop
   endfacet
   facet normal -1.000000e+00 0.000000e+00 0.000000e+00
      outer loop
         vertex -4.000000e+00 -1.539091e+00 4.228617e+00
         vertex -4.000000e+00 -7.814168e-01 4.431635e+00
         vertex -4.000000e+00 0.000000e+00 0.000000e+00
      endloop
   endfacet
   facet normal -1.000000e+00 0.000000e+00 0.000000e+00
      outer loop
         vertex -4.000000e+00 0.000000e+00 0.000000e+00
         vertex -4.000000e+00 -7.814168e-01 4.431635e+00
         vertex -4.000000e+00 -1.102182e-15 4.500000e+00
      endloop
   endfacet
   facet normal -1.000000e+00 0.000000e+00 0.000000e+00
      outer loop
         vertex -4.000000e+00 0.000000e+00 0.000000e+00
         vertex -4.000000e+00 -1.102182e-15 4.500000e+00
         vertex -4.000000e+00 7.814168e-01 4.431635e+00
      endloop
   endfacet
   facet normal -1.000000e+00 0.000000e+00 0.000000e+00
      outer loop
         vertex -4.000000e+00 -3.447200e+00 2.892544e+00
         vertex -4.000000e+00 -2.892544e+00 3.447200e+00
         vertex -4.000000e+00 0.000000e+00 0.000000e+00
      endloop
   endfacet
   facet normal -1.000000e+00 0.000000e+00 0.000000e+00
      outer loop
         vertex -4.000000e+00 0.000000e+00 0.000000e+00
         vertex -4.000000e+00 -2.892544e+00 3.447200e+00
         vertex -4.000000e+00 -2.250000e+00 3.897114e+00
      endloop
   endfacet
   facet normal -1.000000e+00 0.000000e+00 0.000000e+00
      outer loop
         vertex -4.000000e+00 0.000000e+00 0.000000e+00
         vertex -4.000000e+00 -2.250000e+00 3.897114e+00
         vertex -4.000000e+00 -1.539091e+00 4.228617e+00
      endloop
   endfacet
   facet normal -1.000000e+00 0.000000e+00 0.000000e+00
      outer loop
         vertex -4.000000e+00 -4.431635e+00 7.814168e-01
         vertex -4.000000e+00 -4.228617e+00 1.539091e+00
         vertex -4.000000e+00 0.000000e+00 0.000000e+00
      endloop
   endfacet
   facet normal -1.000000e+00 0.000000e+00 0.000000e+00
      outer loop
         vertex -4.000000e+00 0.000000e+00 0.000000e+00
         vertex -4.000000e+00 -4.228617e+00 1.539091e+00
         vertex -4.000000e+00 -3.897114e+00 2.250000e+00
      endloop
   endfacet
   facet normal -1.000000e+00 0.000000e+00 0.000000e+00
      outer loop
         vertex -4.000000e+00 0.000000e+00 0.000000e+00
         vertex -4.000000e+00 -3.897114e+00 2.250000e+00
         vertex -4.000000e+00 -3.447200e+00 2.892544e+00
      endloop
   endfacet
   facet normal -1.000000e+00 0.000000e+00 0.000000e+00
      outer loop
         vertex -4.000000e+00 -4.228617e+00 -1.539091e+00
         vertex -4.000000e+00 -4.431635e+00 -7.814168e-01
         vertex -4.000000e+00 0.000000e+00 0.000000e+00
      endloop
   endfacet
   facet normal -1.000000e+00 0.000000e+00 0.000000e+00
      outer loop
         vertex -4.000000e+00 0.000000e+00 0.000000e+00
         vertex -4.000000e+00 -4.431635e+00 -7.814168e-01
         vertex -4.000000e+00 -4.500000e+00 -8.266366e-16
      endloop
   endfacet
   facet normal -1.000000e+00 -0.000000e+00 0.000000e+00
      outer loop
         vertex -4.000000e+00 0.000000e+00 0.000000e+00
         vertex -4.000000e+00 -4.500000e+00 -8.266366e-16
         vertex -4.000000e+00 -4.431635e+00 7.814168e-01
      endloop
   endfacet
   facet normal -1.000000e+00 0.000000e+00 0.000000e+00
      outer loop
         vertex -4.000000e+00 -2.892544e+00 -3.447200e+00
         vertex -4.000000e+00 -3.447200e+00 -2.892544e+00
         vertex -4.000000e+00 0.000000e+00 0.000000e+00
      endloop
   endfacet
   facet normal -1.000000e+00 0.000000e+00 0.000000e+00
      outer loop
         vertex -4.000000e+00 0.000000e+00 0.000000e+00
         vertex -4.000000e+00 -3.447200e+00 -2.892544e+00
         vertex -4.000000e+00 -3.897114e+00 -2.250000e+00
      endloop
   endfacet
   facet normal -1.000000e+00 0.000000e+00 0.000000e+00
      outer loop
         vertex -4.000000e+00 0.000000e+00 0.000000e+00
         vertex -4.000000e+00 -3.897114e+00 -2.250000e+00
         vertex -4.000000e+00 -4.228617e+00 -1.539091e+00
      endloop
   endfacet
   facet normal -1.000000e+00 0.000000e+00 0.000000e+00
      outer loop
         vertex -4.000000e+00 -7.814168e-01 -4.431635e+00
         vertex -4.000000e+00 -1.539091e+00 -4.228617e+00
         vertex -4.000000e+00 0.000000e+00 0.000000e+00
      endloop
   endfacet
   facet normal -1.000000e+00 0.000000e+00 0.000000e+00
      outer loop
         vertex -4.000000e+00 0.000000e+00 0.000000e+00
         vertex -4.000000e+00 -1.539091e+00 -4.228617e+00
         vertex -4.000000e+00 -2.250000e+00 -3.897114e+00
      endloop
   endfacet
   facet normal -1.000000e+00 0.000000e+00 0.000000e+00
      outer loop
         vertex -4.000000e+00 0.000000e+00 0.000000e+00
         vertex -4.000000e+00 -2.250000e+00 -3.897114e+00
         vertex -4.000000e+00 -2.892544e+00 -3.447200e+00
      endloop
   endfacet
   facet normal -1.000000e+00 -0.000000e+00 0.000000e+00
      outer loop
         vertex -4.000000e+00 1.539091e+00 -4.228617e+00
         vertex -4.000000e+00 7.814168e-01 -4.431635e+00
         vertex -4.000000e+00 0.000000e+00 0.000000e+00
      endloop
   endfacet
   facet normal -1.000000e+00 0.000000e+00 0.000000e+00
      outer loop
         vertex -4.000000e+00 0.000000e+00 0.000000e+00
         vertex -4.000000e+00 7.814168e-01 -4.431635e+00
         vertex -4.000000e+00 5.510910e-16 -4.500000e+00
      endloop
   endfacet
   facet normal -1.000000e+00 0.000000e+00 -0.000000e+00
      outer loop
         vertex -4.000000e+00 0.000000e+00 0.000000e+00
         vertex -4.000000e+00 5.510910e-16 -4.500000e+00
         vertex -4.000000e+00 -7.814168e-01 -4.431635e+00
      endloop
   endfacet
   facet normal -1.000000e+00 -0.000000e+00 0.000000e+00
      outer loop
         vertex -4.000000e+00 3.447200e+00 -2.892544e+00
         vertex -4.000000e+00 2.892544e+00 -3.447200e+00
         vertex -4.000000e+00 0.000000e+00 0.000000e+00
      endloop
   endfacet
   facet normal -1.000000e+00 0.000000e+00 0.000000e+00
      outer loop
         vertex -4.000000e+00 0.000000e+00 0.000000e+00
         vertex -4.000000e+00 2.892544e+00 -3.447200e+00
         vertex -4.000000e+00 2.250000e+00 -3.897114e+00
      endloop
   endfacet
   facet normal -1.000000e+00 0.000000e+00 0.000000e+00
      outer loop
         vertex -4.000000e+00 0.000000e+00 0.000000e+00
         vertex -4.000000e+00 2.250000e+00 -3.897114e+00
         vertex -4.000000e+00 1.539091e+00 -4.228617e+00
      endloop
   endfacet
   facet normal -1.000000e+00 -0.000000e+00 0.000000e+00
      outer loop
         vertex -4.000000e+00 4.431635e+00 -7.814168e-01
         vertex -4.000000e+00 4.228617e+00 -1.539091e+00
         vertex -4.000000e+00 0.000000e+00 0.000000e+00
      endloop
   endfacet
   facet normal -1.000000e+00 0.000000e+00 0.000000e+00
      outer loop
         vertex -4.000000e+00 0.000000e+00 0.000000e+00
         vertex -4.000000e+00 4.228617e+00 -1.539091e+00
         vertex -4.000000e+00 3.897114e+00 -2.250000e+00
      endloop
   endfacet
   facet normal -1.000000e+00 0.000000e+00 0.000000e+00
      outer loop
         vertex -4.000000e+00 0.000000e+00 0.000000e+00
         vertex -4.000000e+00 3.897114e+00 -2.250000e+00
         vertex -4.000000e+00 3.447200e+00 -2.892544e+00
      endloop
   endfacet
   facet normal -1.000000e+00 0.000000e+00 -0.000000e+00
      outer loop
         vertex -4.000000e+00 4.228617e+00 1.539091e+00
         vertex -4.000000e+00 4.431635e+00 7.814168e-01
         vertex -4.000000e+00 0.000000e+00 0.000000e+00
      endloop
   endfacet
   facet normal -1.000000e+00 0.000000e+00 0.000000e+00
      outer loop
         vertex -4.000000e+00 0.000000e+00 0.000000e+00
         vertex -4.000000e+00 4.431635e+00 7.814168e-01
         vertex -4.000000e+00 4.500000e+00 2.755455e-16
      endloop
   endfacet
   facet normal -1.000000e+00 0.000000e+00 0.000000e+00
      outer loop
         vertex -4.000000e+00 0.000000e+00 0.000000e+00
         vertex -4.000000e+00 4.500000e+00 2.755455e-16
         vertex -4.000000e+00 4.431635e+00 -7.814168e-01
      endloop
   endfacet
   facet normal -1.000000e+00 0.000000e+00 -0.000000e+00
      outer loop
         vertex -4.000000e+00 2.892544e+00 3.447200e+00
         vertex -4.000000e+00 3.447200e+00 2.892544e+00
         vertex -4.000000e+00 0.000000e+00 0.000000e+00
      endloop
   endfacet
   facet normal -1.000000e+00 0.000000e+00 0.000000e+00
      outer loop
         vertex -4.000000e+00 0.000000e+00 0.000000e+00
         vertex -4.000000e+00 3.447200e+00 2.892544e+00
         vertex -4.000000e+00 3.897114e+00 2.250000e+00
      endloop
   endfacet
   facet normal -1.000000e+00 0.000000e+00 0.000000e+00
      outer loop
         vertex -4.000000e+00 0.000000e+00 0.000000e+00
         vertex -4.000000e+00 3.897114e+00 2.250000e+00
         vertex -4.000000e+00 4.228617e+00 1.539091e+00
      endloop
   endfacet
   facet normal -1.000000e+00 0.000000e+00 -0.000000e+00
      outer loop
         vertex -4.000000e+00 7.814168e-01 4.431635e+00
         vertex -4.000000e+00 1.539091e+00 4.228617e+00
         vertex -4.000000e+00 0.000000e+00 0.000000e+00
      endloop
   endfacet
   facet normal -1.000000e+00 0.000000e+00 0.000000e+00
      outer loop
         vertex -4.000000e+00 0.000000e+00 0.000000e+00
         vertex -4.000000e+00 1.539091e+00 4.228617e+00
         vertex -4.000000e+00 2.250000e+00 3.897114e+00
      endloop
   endfacet
   facet normal -1.000000e+00 0.000000e+00 0.000000e+00
      outer loop
         vertex -4.000000e+00 0.000000e+00 0.000000e+00
         vertex -4.000000e+00 2.250000e+00 3.897114e+00
         vertex -4.000000e+00 2.892544e+00 3.447200e+00
      endloop
   endfacet
   facet normal -9.519148e-01 -3.063627e-01 -5.300535e-07
      outer loop
         vertex -3.851537e+00 -1.079658e+00 4.368563e+00
         vertex -3.758264e+00 -1.369471e+00 4.286554e+00
         vertex -3.758770e+00 -1.368081e+00 1.100000e+02
      endloop
   endfacet
   facet normal -2.223549e-02 -9.997528e-01 0.000000e+00
      outer loop
         vertex -1.778395e-01 -3.996045e+00 2.069209e+00
         vertex 7.347881e-16 -4.000000e+00 2.061553e+00
         vertex 7.347881e-16 -4.000000e+00 1.100000e+02
      endloop
   endfacet
   facet normal 9.519148e-01 3.063627e-01 -5.300535e-07
      outer loop
         vertex 3.851537e+00 1.079658e+00 4.368563e+00
         vertex 3.758264e+00 1.369471e+00 4.286554e+00
         vertex 3.758770e+00 1.368081e+00 1.100000e+02
      endloop
   endfacet
   facet normal 2.223549e-02 9.997528e-01 0.000000e+00
      outer loop
         vertex 1.778395e-01 3.996045e+00 2.069209e+00
         vertex -2.449294e-16 4.000000e+00 2.061553e+00
         vertex -2.449294e-16 4.000000e+00 1.100000e+02
      endloop
   endfacet
   facet normal -9.659258e-01 2.588190e-01 0.000000e+00
      outer loop
         vertex -3.758770e+00 1.368081e+00 1.100000e+02
         vertex -3.758770e+00 1.368081e+00 4.286998e+00
         vertex -3.939231e+00 6.945927e-01 1.100000e+02
      endloop
   endfacet
   facet normal -9.518884e-01 3.064448e-01 3.273825e-04
      outer loop
         vertex -3.939231e+00 6.945927e-01 1.100000e+02
         vertex -3.758770e+00 1.368081e+00 4.286998e+00
         vertex -3.851144e+00 1.081061e+00 4.368216e+00
      endloop
   endfacet
   facet normal -9.724580e-01 2.330784e-01 4.180867e-05
      outer loop
         vertex -3.851144e+00 1.081061e+00 4.368216e+00
         vertex -3.922790e+00 7.821253e-01 4.431510e+00
         vertex -3.939231e+00 6.945927e-01 1.100000e+02
      endloop
   endfacet
   facet normal -9.828137e-01 1.846002e-01 0.000000e+00
      outer loop
         vertex -3.939231e+00 6.945927e-01 1.100000e+02
         vertex -3.922790e+00 7.821253e-01 4.431510e+00
         vertex -3.939231e+00 6.945927e-01 4.446070e+00
      endloop
   endfacet
   facet normal -9.961947e-01 8.715613e-02 0.000000e+00
      outer loop
         vertex -3.939231e+00 6.945927e-01 1.100000e+02
         vertex -3.939231e+00 6.945927e-01 4.446070e+00
         vertex -4.000000e+00 0.000000e+00 1.100000e+02
      endloop
   endfacet
   facet normal -8.191520e-01 5.735765e-01 0.000000e+00
      outer loop
         vertex -3.464102e+00 2.000000e+00 1.100000e+02
         vertex -3.064178e+00 2.571150e+00 1.100000e+02
         vertex -3.064178e+00 2.571150e+00 3.693127e+00
      endloop
   endfacet
   facet normal -7.973578e-01 6.035069e-01 2.427947e-04
      outer loop
         vertex -3.064178e+00 2.571150e+00 3.693127e+00
         vertex -3.307189e+00 2.250000e+00 3.897114e+00
         vertex -3.464102e+00 2.000000e+00 1.100000e+02
      endloop
   endfacet
   facet normal -8.469878e-01 5.316123e-01 0.000000e+00
      outer loop
         vertex -3.464102e+00 2.000000e+00 1.100000e+02
         vertex -3.307189e+00 2.250000e+00 3.897114e+00
         vertex -3.464102e+00 2.000000e+00 4.031129e+00
      endloop
   endfacet
   facet normal -9.063078e-01 4.226182e-01 0.000000e+00
      outer loop
         vertex -3.464102e+00 2.000000e+00 1.100000e+02
         vertex -3.464102e+00 2.000000e+00 4.031129e+00
         vertex -3.758770e+00 1.368081e+00 1.100000e+02
      endloop
   endfacet
   facet normal -8.963460e-01 4.433552e-01 1.513608e-04
      outer loop
         vertex -3.758770e+00 1.368081e+00 1.100000e+02
         vertex -3.464102e+00 2.000000e+00 4.031129e+00
         vertex -3.692046e+00 1.539091e+00 4.228617e+00
      endloop
   endfacet
   facet normal -9.315975e-01 3.634915e-01 0.000000e+00
      outer loop
         vertex -3.758770e+00 1.368081e+00 1.100000e+02
         vertex -3.692046e+00 1.539091e+00 4.228617e+00
         vertex -3.758770e+00 1.368081e+00 4.286998e+00
      endloop
   endfacet
   facet normal -4.226182e-01 9.063078e-01 -3.732303e-07
      outer loop
         vertex -1.368081e+00 3.758770e+00 1.100000e+02
         vertex -2.000397e+00 3.463872e+00 2.872558e+00
         vertex -2.000000e+00 3.464102e+00 1.100000e+02
      endloop
   endfacet
   facet normal -5.036808e-01 8.638899e-01 1.814323e-08
      outer loop
         vertex -2.000000e+00 3.464102e+00 1.100000e+02
         vertex -2.000397e+00 3.463872e+00 2.872558e+00
         vertex -2.028993e+00 3.447200e+00 2.892544e+00
      endloop
   endfacet
   facet normal -5.735765e-01 8.191520e-01 2.599781e-05
      outer loop
         vertex -2.000000e+00 3.464102e+00 1.100000e+02
         vertex -2.028993e+00 3.447200e+00 2.892544e+00
         vertex -2.571150e+00 3.064178e+00 1.100000e+02
      endloop
   endfacet
   facet normal -5.770077e-01 8.167387e-01 0.000000e+00
      outer loop
         vertex -2.571150e+00 3.064178e+00 1.100000e+02
         vertex -2.028993e+00 3.447200e+00 2.892544e+00
         vertex -2.571150e+00 3.064178e+00 3.295575e+00
      endloop
   endfacet
   facet normal -7.071068e-01 7.071068e-01 0.000000e+00
      outer loop
         vertex -2.571150e+00 3.064178e+00 1.100000e+02
         vertex -2.571150e+00 3.064178e+00 3.295575e+00
         vertex -3.064178e+00 2.571150e+00 1.100000e+02
      endloop
   endfacet
   facet normal -6.662603e-01 7.457192e-01 3.671395e-04
      outer loop
         vertex -3.064178e+00 2.571150e+00 1.100000e+02
         vertex -2.571150e+00 3.064178e+00 3.295575e+00
         vertex -2.757621e+00 2.897504e+00 3.443032e+00
      endloop
   endfacet
   facet normal -7.288675e-01 6.846548e-01 0.000000e+00
      outer loop
         vertex -3.064178e+00 2.571150e+00 1.100000e+02
         vertex -2.757621e+00 2.897504e+00 3.443032e+00
         vertex -3.064178e+00 2.571150e+00 3.693127e+00
      endloop
   endfacet
   facet normal -2.588190e-01 9.659258e-01 1.191748e-04
      outer loop
         vertex -6.945927e-01 3.939231e+00 1.100000e+02
         vertex -9.013878e-01 3.897114e+00 2.250000e+00
         vertex -1.368081e+00 3.758770e+00 1.100000e+02
      endloop
   endfacet
   facet normal -2.842105e-01 9.587619e-01 0.000000e+00
      outer loop
         vertex -1.368081e+00 3.758770e+00 1.100000e+02
         vertex -9.013878e-01 3.897114e+00 2.250000e+00
         vertex -1.368081e+00 3.758770e+00 2.474196e+00
      endloop
   endfacet
   facet normal -4.226701e-01 9.062836e-01 0.000000e+00
      outer loop
         vertex -1.368081e+00 3.758770e+00 1.100000e+02
         vertex -1.368081e+00 3.758770e+00 2.474196e+00
         vertex -2.000397e+00 3.463872e+00 2.872558e+00
      endloop
   endfacet
   facet normal -2.223291e-02 9.997528e-01 0.000000e+00
      outer loop
         vertex -2.449294e-16 4.000000e+00 2.061553e+00
         vertex -1.778183e-01 3.996046e+00 2.069207e+00
         vertex -2.449294e-16 4.000000e+00 1.100000e+02
      endloop
   endfacet
   facet normal -7.715346e-02 9.970192e-01 9.058292e-05
      outer loop
         vertex -2.449294e-16 4.000000e+00 1.100000e+02
         vertex -1.778183e-01 3.996046e+00 2.069207e+00
         vertex -4.391804e-01 3.975817e+00 2.107814e+00
      endloop
   endfacet
   facet normal -8.715613e-02 9.961947e-01 1.314841e-04
      outer loop
         vertex -2.449294e-16 4.000000e+00 1.100000e+02
         vertex -4.391804e-01 3.975817e+00 2.107814e+00
         vertex -6.945927e-01 3.939231e+00 1.100000e+02
      endloop
   endfacet
   facet normal -1.417959e-01 9.898959e-01 0.000000e+00
      outer loop
         vertex -6.945927e-01 3.939231e+00 1.100000e+02
         vertex -4.391804e-01 3.975817e+00 2.107814e+00
         vertex -6.945927e-01 3.939231e+00 2.175422e+00
      endloop
   endfacet
   facet normal -1.995661e-01 9.798844e-01 0.000000e+00
      outer loop
         vertex -6.945927e-01 3.939231e+00 1.100000e+02
         vertex -6.945927e-01 3.939231e+00 2.175422e+00
         vertex -9.013878e-01 3.897114e+00 2.250000e+00
      endloop
   endfacet
   facet normal 6.633379e-02 9.977975e-01 7.273321e-05
      outer loop
         vertex 1.778395e-01 3.996045e+00 2.069209e+00
         vertex -2.449294e-16 4.000000e+00 1.100000e+02
         vertex 3.527667e-01 3.984414e+00 2.091517e+00
      endloop
   endfacet
   facet normal 8.715613e-02 9.961947e-01 1.410356e-04
      outer loop
         vertex 3.527667e-01 3.984414e+00 2.091517e+00
         vertex -2.449294e-16 4.000000e+00 1.100000e+02
         vertex 6.945927e-01 3.939231e+00 1.100000e+02
      endloop
   endfacet
   facet normal 1.310418e-01 9.913768e-01 0.000000e+00
      outer loop
         vertex 3.527667e-01 3.984414e+00 2.091517e+00
         vertex 6.945927e-01 3.939231e+00 1.100000e+02
         vertex 6.945927e-01 3.939231e+00 2.175422e+00
      endloop
   endfacet
   facet normal 1.995661e-01 9.798844e-01 -0.000000e+00
      outer loop
         vertex 6.945927e-01 3.939231e+00 2.175422e+00
         vertex 6.945927e-01 3.939231e+00 1.100000e+02
         vertex 9.013878e-01 3.897114e+00 2.250000e+00
      endloop
   endfacet
   facet normal 2.588190e-01 9.659258e-01 1.191748e-04
      outer loop
         vertex 9.013878e-01 3.897114e+00 2.250000e+00
         vertex 6.945927e-01 3.939231e+00 1.100000e+02
         vertex 1.368081e+00 3.758770e+00 1.100000e+02
      endloop
   endfacet
   facet normal 2.842105e-01 9.587619e-01 0.000000e+00
      outer loop
         vertex 9.013878e-01 3.897114e+00 2.250000e+00
         vertex 1.368081e+00 3.758770e+00 1.100000e+02
         vertex 1.368081e+00 3.758770e+00 2.474196e+00
      endloop
   endfacet
   facet normal 4.226182e-01 9.063078e-01 -0.000000e+00
      outer loop
         vertex 1.368081e+00 3.758770e+00 2.474196e+00
         vertex 1.368081e+00 3.758770e+00 1.100000e+02
         vertex 2.000000e+00 3.464102e+00 1.100000e+02
      endloop
   endfacet
   facet normal 4.226182e-01 9.063078e-01 0.000000e+00
      outer loop
         vertex 1.368081e+00 3.758770e+00 2.474196e+00
         vertex 2.000000e+00 3.464102e+00 1.100000e+02
         vertex 2.000000e+00 3.464102e+00 2.872281e+00
      endloop
   endfacet
   facet normal 7.071068e-01 7.071068e-01 0.000000e+00
      outer loop
         vertex 2.571150e+00 3.064178e+00 1.100000e+02
         vertex 3.064178e+00 2.571150e+00 1.100000e+02
         vertex 3.064178e+00 2.571150e+00 3.693127e+00
      endloop
   endfacet
   facet normal 7.287893e-01 6.847379e-01 2.043004e-04
      outer loop
         vertex 3.064178e+00 2.571150e+00 3.693127e+00
         vertex 2.757621e+00 2.897504e+00 3.443032e+00
         vertex 2.571150e+00 3.064178e+00 1.100000e+02
      endloop
   endfacet
   facet normal 6.664217e-01 7.455750e-01 0.000000e+00
      outer loop
         vertex 2.571150e+00 3.064178e+00 1.100000e+02
         vertex 2.757621e+00 2.897504e+00 3.443032e+00
         vertex 2.571150e+00 3.064178e+00 3.295575e+00
      endloop
   endfacet
   facet normal 5.735765e-01 8.191520e-01 0.000000e+00
      outer loop
         vertex 2.571150e+00 3.064178e+00 1.100000e+02
         vertex 2.571150e+00 3.064178e+00 3.295575e+00
         vertex 2.000000e+00 3.464102e+00 1.100000e+02
      endloop
   endfacet
   facet normal 5.768030e-01 8.168833e-01 2.577300e-05
      outer loop
         vertex 2.000000e+00 3.464102e+00 1.100000e+02
         vertex 2.571150e+00 3.064178e+00 3.295575e+00
         vertex 2.027372e+00 3.448154e+00 2.891407e+00
      endloop
   endfacet
   facet normal 5.034254e-01 8.640387e-01 0.000000e+00
      outer loop
         vertex 2.000000e+00 3.464102e+00 1.100000e+02
         vertex 2.027372e+00 3.448154e+00 2.891407e+00
         vertex 2.000000e+00 3.464102e+00 2.872281e+00
      endloop
   endfacet
   facet normal 9.063078e-01 4.226182e-01 1.217674e-06
      outer loop
         vertex 3.758770e+00 1.368081e+00 1.100000e+02
         vertex 3.758264e+00 1.369471e+00 4.286554e+00
         vertex 3.464102e+00 2.000000e+00 1.100000e+02
      endloop
   endfacet
   facet normal 9.314813e-01 3.637890e-01 4.221537e-04
      outer loop
         vertex 3.758264e+00 1.369471e+00 4.286554e+00
         vertex 3.692046e+00 1.539091e+00 4.228617e+00
         vertex 3.464102e+00 2.000000e+00 1.100000e+02
      endloop
   endfacet
   facet normal 8.963718e-01 4.433031e-01 0.000000e+00
      outer loop
         vertex 3.464102e+00 2.000000e+00 1.100000e+02
         vertex 3.692046e+00 1.539091e+00 4.228617e+00
         vertex 3.464102e+00 2.000000e+00 4.031129e+00
      endloop
   endfacet
   facet normal 8.191520e-01 5.735765e-01 0.000000e+00
      outer loop
         vertex 3.464102e+00 2.000000e+00 1.100000e+02
         vertex 3.464102e+00 2.000000e+00 4.031129e+00
         vertex 3.064178e+00 2.571150e+00 1.100000e+02
      endloop
   endfacet
   facet normal 8.469081e-01 5.317392e-01 3.302453e-04
      outer loop
         vertex 3.064178e+00 2.571150e+00 1.100000e+02
         vertex 3.464102e+00 2.000000e+00 4.031129e+00
         vertex 3.307189e+00 2.250000e+00 3.897114e+00
      endloop
   endfacet
   facet normal 7.974320e-01 6.034088e-01 0.000000e+00
      outer loop
         vertex 3.064178e+00 2.571150e+00 1.100000e+02
         vertex 3.307189e+00 2.250000e+00 3.897114e+00
         vertex 3.064178e+00 2.571150e+00 3.693127e+00
      endloop
   endfacet
   facet normal 9.961947e-01 8.715613e-02 0.000000e+00
      outer loop
         vertex 3.939231e+00 6.945927e-01 1.100000e+02
         vertex 4.000000e+00 4.898587e-16 1.100000e+02
         vertex 4.000000e+00 4.898587e-16 4.500000e+00
      endloop
   endfacet
   facet normal 9.990346e-01 4.393034e-02 2.862266e-04
      outer loop
         vertex 4.000000e+00 4.898587e-16 4.500000e+00
         vertex 3.984569e+00 3.510128e-01 4.486289e+00
         vertex 3.939231e+00 6.945927e-01 1.100000e+02
      endloop
   endfacet
   facet normal 9.913990e-01 1.308744e-01 -1.665726e-07
      outer loop
         vertex 3.939231e+00 6.945927e-01 1.100000e+02
         vertex 3.984569e+00 3.510128e-01 4.486289e+00
         vertex 3.939160e+00 6.949981e-01 4.446007e+00
      endloop
   endfacet
   facet normal 9.659258e-01 2.588190e-01 3.419660e-07
      outer loop
         vertex 3.939231e+00 6.945927e-01 1.100000e+02
         vertex 3.939160e+00 6.949981e-01 4.446007e+00
         vertex 3.758770e+00 1.368081e+00 1.100000e+02
      endloop
   endfacet
   facet normal 9.828048e-01 1.846466e-01 5.021602e-04
      outer loop
         vertex 3.758770e+00 1.368081e+00 1.100000e+02
         vertex 3.939160e+00 6.949981e-01 4.446007e+00
         vertex 3.922931e+00 7.814168e-01 4.431635e+00
      endloop
   endfacet
   facet normal 9.725129e-01 2.328491e-01 2.182858e-04
      outer loop
         vertex 3.758770e+00 1.368081e+00 1.100000e+02
         vertex 3.922931e+00 7.814168e-01 4.431635e+00
         vertex 3.851537e+00 1.079658e+00 4.368563e+00
      endloop
   endfacet
   facet normal 9.659258e-01 -2.588190e-01 0.000000e+00
      outer loop
         vertex 3.758770e+00 -1.368081e+00 1.100000e+02
         vertex 3.758770e+00 -1.368081e+00 4.286998e+00
         vertex 3.939231e+00 -6.945927e-01 1.100000e+02
      endloop
   endfacet
   facet normal 9.518884e-01 -3.064448e-01 3.273825e-04
      outer loop
         vertex 3.939231e+00 -6.945927e-01 1.100000e+02
         vertex 3.758770e+00 -1.368081e+00 4.286998e+00
         vertex 3.851144e+00 -1.081061e+00 4.368216e+00
      endloop
   endfacet
   facet normal 9.724580e-01 -2.330784e-01 4.180867e-05
      outer loop
         vertex 3.851144e+00 -1.081061e+00 4.368216e+00
         vertex 3.922790e+00 -7.821253e-01 4.431510e+00
         vertex 3.939231e+00 -6.945927e-01 1.100000e+02
      endloop
   endfacet
   facet normal 9.828137e-01 -1.846002e-01 0.000000e+00
      outer loop
         vertex 3.939231e+00 -6.945927e-01 1.100000e+02
         vertex 3.922790e+00 -7.821253e-01 4.431510e+00
         vertex 3.939231e+00 -6.945927e-01 4.446070e+00
      endloop
   endfacet
   facet normal 9.961947e-01 -8.715613e-02 0.000000e+00
      outer loop
         vertex 3.939231e+00 -6.945927e-01 1.100000e+02
         vertex 3.939231e+00 -6.945927e-01 4.446070e+00
         vertex 4.000000e+00 4.898587e-16 1.100000e+02
      endloop
   endfacet
   facet normal 9.914179e-01 -1.307304e-01 2.894884e-04
      outer loop
         vertex 4.000000e+00 4.898587e-16 1.100000e+02
         vertex 3.939231e+00 -6.945927e-01 4.446070e+00
         vertex 3.984659e+00 -3.499950e-01 4.486369e+00
      endloop
   endfacet
   facet normal 9.990407e-01 -4.379194e-02 0.000000e+00
      outer loop
         vertex 4.000000e+00 4.898587e-16 1.100000e+02
         vertex 3.984659e+00 -3.499950e-01 4.486369e+00
         vertex 4.000000e+00 4.898587e-16 4.500000e+00
      endloop
   endfacet
   facet normal 8.191520e-01 -5.735765e-01 0.000000e+00
      outer loop
         vertex 3.464102e+00 -2.000000e+00 1.100000e+02
         vertex 3.064178e+00 -2.571150e+00 1.100000e+02
         vertex 3.064178e+00 -2.571150e+00 3.693127e+00
      endloop
   endfacet
   facet normal 7.973578e-01 -6.035069e-01 2.427947e-04
      outer loop
         vertex 3.064178e+00 -2.571150e+00 3.693127e+00
         vertex 3.307189e+00 -2.250000e+00 3.897114e+00
         vertex 3.464102e+00 -2.000000e+00 1.100000e+02
      endloop
   endfacet
   facet normal 8.469878e-01 -5.316123e-01 0.000000e+00
      outer loop
         vertex 3.464102e+00 -2.000000e+00 1.100000e+02
         vertex 3.307189e+00 -2.250000e+00 3.897114e+00
         vertex 3.464102e+00 -2.000000e+00 4.031129e+00
      endloop
   endfacet
   facet normal 9.063078e-01 -4.226182e-01 0.000000e+00
      outer loop
         vertex 3.464102e+00 -2.000000e+00 1.100000e+02
         vertex 3.464102e+00 -2.000000e+00 4.031129e+00
         vertex 3.758770e+00 -1.368081e+00 1.100000e+02
      endloop
   endfacet
   facet normal 8.963460e-01 -4.433552e-01 1.513608e-04
      outer loop
         vertex 3.758770e+00 -1.368081e+00 1.100000e+02
         vertex 3.464102e+00 -2.000000e+00 4.031129e+00
         vertex 3.692046e+00 -1.539091e+00 4.228617e+00
      endloop
   endfacet
   facet normal 9.315975e-01 -3.634915e-01 0.000000e+00
      outer loop
         vertex 3.758770e+00 -1.368081e+00 1.100000e+02
         vertex 3.692046e+00 -1.539091e+00 4.228617e+00
         vertex 3.758770e+00 -1.368081e+00 4.286998e+00
      endloop
   endfacet
   facet normal 4.226182e-01 -9.063078e-01 -3.732303e-07
      outer loop
         vertex 1.368081e+00 -3.758770e+00 1.100000e+02
         vertex 2.000397e+00 -3.463872e+00 2.872558e+00
         vertex 2.000000e+00 -3.464102e+00 1.100000e+02
      endloop
   endfacet
   facet normal 5.036808e-01 -8.638899e-01 1.814323e-08
      outer loop
         vertex 2.000000e+00 -3.464102e+00 1.100000e+02
         vertex 2.000397e+00 -3.463872e+00 2.872558e+00
         vertex 2.028993e+00 -3.447200e+00 2.892544e+00
      endloop
   endfacet
   facet normal 5.735765e-01 -8.191520e-01 2.599781e-05
      outer loop
         vertex 2.000000e+00 -3.464102e+00 1.100000e+02
         vertex 2.028993e+00 -3.447200e+00 2.892544e+00
         vertex 2.571150e+00 -3.064178e+00 1.100000e+02
      endloop
   endfacet
   facet normal 5.770077e-01 -8.167387e-01 0.000000e+00
      outer loop
         vertex 2.571150e+00 -3.064178e+00 1.100000e+02
         vertex 2.028993e+00 -3.447200e+00 2.892544e+00
         vertex 2.571150e+00 -3.064178e+00 3.295575e+00
      endloop
   endfacet
   facet normal 7.071068e-01 -7.071068e-01 0.000000e+00
      outer loop
         vertex 2.571150e+00 -3.064178e+00 1.100000e+02
         vertex 2.571150e+00 -3.064178e+00 3.295575e+00
         vertex 3.064178e+00 -2.571150e+00 1.100000e+02
      endloop
   endfacet
   facet normal 6.662603e-01 -7.457192e-01 3.671395e-04
      outer loop
         vertex 3.064178e+00 -2.571150e+00 1.100000e+02
         vertex 2.571150e+00 -3.064178e+00 3.295575e+00
         vertex 2.757621e+00 -2.897504e+00 3.443032e+00
      endloop
   endfacet
   facet normal 7.288675e-01 -6.846548e-01 0.000000e+00
      outer loop
         vertex 3.064178e+00 -2.571150e+00 1.100000e+02
         vertex 2.757621e+00 -2.897504e+00 3.443032e+00
         vertex 3.064178e+00 -2.571150e+00 3.693127e+00
      endloop
   endfacet
   facet normal 2.588190e-01 -9.659258e-01 1.191748e-04
      outer loop
         vertex 6.945927e-01 -3.939231e+00 1.100000e+02
         vertex 9.013878e-01 -3.897114e+00 2.250000e+00
         vertex 1.368081e+00 -3.758770e+00 1.100000e+02
      endloop
   endfacet
   facet normal 2.842105e-01 -9.587619e-01 0.000000e+00
      outer loop
         vertex 1.368081e+00 -3.758770e+00 1.100000e+02
         vertex 9.013878e-01 -3.897114e+00 2.250000e+00
         vertex 1.368081e+00 -3.758770e+00 2.474196e+00
      endloop
   endfacet
   facet normal 4.226701e-01 -9.062836e-01 0.000000e+00
      outer loop
         vertex 1.368081e+00 -3.758770e+00 1.100000e+02
         vertex 1.368081e+00 -3.758770e+00 2.474196e+00
         vertex 2.000397e+00 -3.463872e+00 2.872558e+00
      endloop
   endfacet
   facet normal 2.223291e-02 -9.997528e-01 0.000000e+00
      outer loop
         vertex 7.347881e-16 -4.000000e+00 2.061553e+00
         vertex 1.778183e-01 -3.996046e+00 2.069207e+00
         vertex 7.347881e-16 -4.000000e+00 1.100000e+02
      endloop
   endfacet
   facet normal 7.715346e-02 -9.970192e-01 9.058292e-05
      outer loop
         vertex 7.347881e-16 -4.000000e+00 1.100000e+02
         vertex 1.778183e-01 -3.996046e+00 2.069207e+00
         vertex 4.391804e-01 -3.975817e+00 2.107814e+00
      endloop
   endfacet
   facet normal 8.715613e-02 -9.961947e-01 1.314841e-04
      outer loop
         vertex 7.347881e-16 -4.000000e+00 1.100000e+02
         vertex 4.391804e-01 -3.975817e+00 2.107814e+00
         vertex 6.945927e-01 -3.939231e+00 1.100000e+02
      endloop
   endfacet
   facet normal 1.417959e-01 -9.898959e-01 0.000000e+00
      outer loop
         vertex 6.945927e-01 -3.939231e+00 1.100000e+02
         vertex 4.391804e-01 -3.975817e+00 2.107814e+00
         vertex 6.945927e-01 -3.939231e+00 2.175422e+00
      endloop
   endfacet
   facet normal 1.995661e-01 -9.798844e-01 0.000000e+00
      outer loop
         vertex 6.945927e-01 -3.939231e+00 1.100000e+02
         vertex 6.945927e-01 -3.939231e+00 2.175422e+00
         vertex 9.013878e-01 -3.897114e+00 2.250000e+00
      endloop
   endfacet
   facet normal -6.633379e-02 -9.977975e-01 7.273321e-05
      outer loop
         vertex -1.778395e-01 -3.996045e+00 2.069209e+00
         vertex 7.347881e-16 -4.000000e+00 1.100000e+02
         vertex -3.527667e-01 -3.984414e+00 2.091517e+00
      endloop
   endfacet
   facet normal -8.715613e-02 -9.961947e-01 1.410356e-04
      outer loop
         vertex -3.527667e-01 -3.984414e+00 2.091517e+00
         vertex 7.347881e-16 -4.000000e+00 1.100000e+02
         vertex -6.945927e-01 -3.939231e+00 1.100000e+02
      endloop
   endfacet
   facet normal -1.310418e-01 -9.913768e-01 0.000000e+00
      outer loop
         vertex -3.527667e-01 -3.984414e+00 2.091517e+00
         vertex -6.945927e-01 -3.939231e+00 1.100000e+02
         vertex -6.945927e-01 -3.939231e+00 2.175422e+00
      endloop
   endfacet
   facet normal -1.995661e-01 -9.798844e-01 0.000000e+00
      outer loop
         vertex -6.945927e-01 -3.939231e+00 2.175422e+00
         vertex -6.945927e-01 -3.939231e+00 1.100000e+02
         vertex -9.013878e-01 -3.897114e+00 2.250000e+00
      endloop
   endfacet
   facet normal -2.588190e-01 -9.659258e-01 1.191748e-04
      outer loop
         vertex -9.013878e-01 -3.897114e+00 2.250000e+00
         vertex -6.945927e-01 -3.939231e+00 1.100000e+02
         vertex -1.368081e+00 -3.758770e+00 1.100000e+02
      endloop
   endfacet
   facet normal -2.842105e-01 -9.587619e-01 0.000000e+00
      outer loop
         vertex -9.013878e-01 -3.897114e+00 2.250000e+00
         vertex -1.368081e+00 -3.758770e+00 1.100000e+02
         vertex -1.368081e+00 -3.758770e+00 2.474196e+00
      endloop
   endfacet
   facet normal -4.226182e-01 -9.063078e-01 0.000000e+00
      outer loop
         vertex -1.368081e+00 -3.758770e+00 2.474196e+00
         vertex -1.368081e+00 -3.758770e+00 1.100000e+02
         vertex -2.000000e+00 -3.464102e+00 1.100000e+02
      endloop
   endfacet
   facet normal -4.226182e-01 -9.063078e-01 0.000000e+00
      outer loop
         vertex -1.368081e+00 -3.758770e+00 2.474196e+00
         vertex -2.000000e+00 -3.464102e+00 1.100000e+02
         vertex -2.000000e+00 -3.464102e+00 2.872281e+00
      endloop
   endfacet
   facet normal -7.071068e-01 -7.071068e-01 0.000000e+00
      outer loop
         vertex -2.571150e+00 -3.064178e+00 1.100000e+02
         vertex -3.064178e+00 -2.571150e+00 1.100000e+02
         vertex -3.064178e+00 -2.571150e+00 3.693127e+00
      endloop
   endfacet
   facet normal -7.287893e-01 -6.847379e-01 2.043004e-04
      outer loop
         vertex -3.064178e+00 -2.571150e+00 3.693127e+00
         vertex -2.757621e+00 -2.897504e+00 3.443032e+00
         vertex -2.571150e+00 -3.064178e+00 1.100000e+02
      endloop
   endfacet
   facet normal -6.664217e-01 -7.455750e-01 -0.000000e+00
      outer loop
         vertex -2.571150e+00 -3.064178e+00 1.100000e+02
         vertex -2.757621e+00 -2.897504e+00 3.443032e+00
         vertex -2.571150e+00 -3.064178e+00 3.295575e+00
      endloop
   endfacet
   facet normal -5.735765e-01 -8.191520e-01 -0.000000e+00
      outer loop
         vertex -2.571150e+00 -3.064178e+00 1.100000e+02
         vertex -2.571150e+00 -3.064178e+00 3.295575e+00
         vertex -2.000000e+00 -3.464102e+00 1.100000e+02
      endloop
   endfacet
   facet normal -5.768030e-01 -8.168833e-01 2.577300e-05
      outer loop
         vertex -2.000000e+00 -3.464102e+00 1.100000e+02
         vertex -2.571150e+00 -3.064178e+00 3.295575e+00
         vertex -2.027372e+00 -3.448154e+00 2.891407e+00
      endloop
   endfacet
   facet normal -5.034254e-01 -8.640387e-01 -0.000000e+00
      outer loop
         vertex -2.000000e+00 -3.464102e+00 1.100000e+02
         vertex -2.027372e+00 -3.448154e+00 2.891407e+00
         vertex -2.000000e+00 -3.464102e+00 2.872281e+00
      endloop
   endfacet
   facet normal -9.063078e-01 -4.226182e-01 1.217674e-06
      outer loop
         vertex -3.758770e+00 -1.368081e+00 1.100000e+02
         vertex -3.758264e+00 -1.369471e+00 4.286554e+00
         vertex -3.464102e+00 -2.000000e+00 1.100000e+02
      endloop
   endfacet
   facet normal -9.314813e-01 -3.637890e-01 4.221537e-04
      outer loop
         vertex -3.758264e+00 -1.369471e+00 4.286554e+00
         vertex -3.692046e+00 -1.539091e+00 4.228617e+00
         vertex -3.464102e+00 -2.000000e+00 1.100000e+02
      endloop
   endfacet
   facet normal -8.963718e-01 -4.433031e-01 -0.000000e+00
      outer loop
         vertex -3.464102e+00 -2.000000e+00 1.100000e+02
         vertex -3.692046e+00 -1.539091e+00 4.228617e+00
         vertex -3.464102e+00 -2.000000e+00 4.031129e+00
      endloop
   endfacet
   facet normal -8.191520e-01 -5.735765e-01 -0.000000e+00
      outer loop
         vertex -3.464102e+00 -2.000000e+00 1.100000e+02
         vertex -3.464102e+00 -2.000000e+00 4.031129e+00
         vertex -3.064178e+00 -2.571150e+00 1.100000e+02
      endloop
   endfacet
   facet normal -8.469081e-01 -5.317392e-01 3.302453e-04
      outer loop
         vertex -3.064178e+00 -2.571150e+00 1.100000e+02
         vertex -3.464102e+00 -2.000000e+00 4.031129e+00
         vertex -3.307189e+00 -2.250000e+00 3.897114e+00
      endloop
   endfacet
   facet normal -7.974320e-01 -6.034088e-01 -0.000000e+00
      outer loop
         vertex -3.064178e+00 -2.571150e+00 1.100000e+02
         vertex -3.307189e+00 -2.250000e+00 3.897114e+00
         vertex -3.064178e+00 -2.571150e+00 3.693127e+00
      endloop
   endfacet
   facet normal -9.659258e-01 -2.588190e-01 3.419660e-07
      outer loop
         vertex -3.939231e+00 -6.945927e-01 1.100000e+02
         vertex -3.939160e+00 -6.949981e-01 4.446007e+00
         vertex -3.758770e+00 -1.368081e+00 1.100000e+02
      endloop
   endfacet
   facet normal -9.828048e-01 -1.846466e-01 5.021602e-04
      outer loop
         vertex -3.758770e+00 -1.368081e+00 1.100000e+02
         vertex -3.939160e+00 -6.949981e-01 4.446007e+00
         vertex -3.922931e+00 -7.814168e-01 4.431635e+00
      endloop
   endfacet
   facet normal -9.725129e-01 -2.328491e-01 2.182858e-04
      outer loop
         vertex -3.758770e+00 -1.368081e+00 1.100000e+02
         vertex -3.922931e+00 -7.814168e-01 4.431635e+00
         vertex -3.851537e+00 -1.079658e+00 4.368563e+00
      endloop
   endfacet
   facet normal -9.914179e-01 1.307304e-01 2.894884e-04
      outer loop
         vertex -3.939231e+00 6.945927e-01 4.446070e+00
         vertex -3.984659e+00 3.499950e-01 4.486369e+00
         vertex -4.000000e+00 0.000000e+00 1.100000e+02
      endloop
   endfacet
   facet normal -9.990407e-01 4.379194e-02 3.804594e-20
      outer loop
         vertex -4.000000e+00 0.000000e+00 1.100000e+02
         vertex -3.984659e+00 3.499950e-01 4.486369e+00
         vertex -4.000000e+00 9.165721e-17 4.500000e+00
      endloop
   endfacet
   facet normal -9.961947e-01 -8.715613e-02 -7.572027e-20
      outer loop
         vertex -4.000000e+00 0.000000e+00 1.100000e+02
         vertex -4.000000e+00 9.165721e-17 4.500000e+00
         vertex -3.939231e+00 -6.945927e-01 1.100000e+02
      endloop
   endfacet
   facet normal -9.990346e-01 -4.393034e-02 2.862266e-04
      outer loop
         vertex -3.939231e+00 -6.945927e-01 1.100000e+02
         vertex -4.000000e+00 9.165721e-17 4.500000e+00
         vertex -3.984569e+00 -3.510128e-01 4.486289e+00
      endloop
   endfacet
   facet normal -9.913990e-01 -1.308744e-01 -1.665726e-07
      outer loop
         vertex -3.939231e+00 -6.945927e-01 1.100000e+02
         vertex -3.984569e+00 -3.510128e-01 4.486289e+00
         vertex -3.939160e+00 -6.949981e-01 4.446007e+00
      endloop
   endfacet
   facet normal 0.000000e+00 -0.000000e+00 1.000000e+00
      outer loop
         vertex 3.758770e+00 -1.368081e+00 1.100000e+02
         vertex 3.939231e+00 -6.945927e-01 1.100000e+02
         vertex 0.000000e+00 0.000000e+00 1.100000e+02
      endloop
   endfacet
   facet normal -0.000000e+00 0.000000e+00 1.000000e+00
      outer loop
         vertex 0.000000e+00 0.000000e+00 1.100000e+02
         vertex 3.939231e+00 -6.945927e-01 1.100000e+02
         vertex 4.000000e+00 4.898587e-16 1.100000e+02
      endloop
   endfacet
   facet normal 0.000000e+00 0.000000e+00 1.000000e+00
      outer loop
         vertex 0.000000e+00 0.000000e+00 1.100000e+02
         vertex 4.000000e+00 4.898587e-16 1.100000e+02
         vertex 3.939231e+00 6.945927e-01 1.100000e+02
      endloop
   endfacet
   facet normal 0.000000e+00 -0.000000e+00 1.000000e+00
      outer loop
         vertex 2.571150e+00 -3.064178e+00 1.100000e+02
         vertex 3.064178e+00 -2.571150e+00 1.100000e+02
         vertex 0.000000e+00 0.000000e+00 1.100000e+02
      endloop
   endfacet
   facet normal 0.000000e+00 0.000000e+00 1.000000e+00
      outer loop
         vertex 0.000000e+00 0.000000e+00 1.100000e+02
         vertex 3.064178e+00 -2.571150e+00 1.100000e+02
         vertex 3.464102e+00 -2.000000e+00 1.100000e+02
      endloop
   endfacet
   facet normal 0.000000e+00 0.000000e+00 1.000000e+00
      outer loop
         vertex 0.000000e+00 0.000000e+00 1.100000e+02
         vertex 3.464102e+00 -2.000000e+00 1.100000e+02
         vertex 3.758770e+00 -1.368081e+00 1.100000e+02
      endloop
   endfacet
   facet normal 0.000000e+00 -0.000000e+00 1.000000e+00
      outer loop
         vertex 6.945927e-01 -3.939231e+00 1.100000e+02
         vertex 1.368081e+00 -3.758770e+00 1.100000e+02
         vertex 0.000000e+00 0.000000e+00 1.100000e+02
      endloop
   endfacet
   facet normal 0.000000e+00 0.000000e+00 1.000000e+00
      outer loop
         vertex 0.000000e+00 0.000000e+00 1.100000e+02
         vertex 1.368081e+00 -3.758770e+00 1.100000e+02
         vertex 2.000000e+00 -3.464102e+00 1.100000e+02
      endloop
   endfacet
   facet normal 0.000000e+00 0.000000e+00 1.000000e+00
      outer loop
         vertex 0.000000e+00 0.000000e+00 1.100000e+02
         vertex 2.000000e+00 -3.464102e+00 1.100000e+02
         vertex 2.571150e+00 -3.064178e+00 1.100000e+02
      endloop
   endfacet
   facet normal -0.000000e+00 0.000000e+00 1.000000e+00
      outer loop
         vertex -1.368081e+00 -3.758770e+00 1.100000e+02
         vertex -6.945927e-01 -3.939231e+00 1.100000e+02
         vertex 0.000000e+00 0.000000e+00 1.100000e+02
      endloop
   endfacet
   facet normal 0.000000e+00 0.000000e+00 1.000000e+00
      outer loop
         vertex 0.000000e+00 0.000000e+00 1.100000e+02
         vertex -6.945927e-01 -3.939231e+00 1.100000e+02
         vertex 7.347881e-16 -4.000000e+00 1.100000e+02
      endloop
   endfacet
   facet normal 0.000000e+00 0.000000e+00 1.000000e+00
      outer loop
         vertex 0.000000e+00 0.000000e+00 1.100000e+02
         vertex 7.347881e-16 -4.000000e+00 1.100000e+02
         vertex 6.945927e-01 -3.939231e+00 1.100000e+02
      endloop
   endfacet
   facet normal -0.000000e+00 0.000000e+00 1.000000e+00
      outer loop
         vertex -3.064178e+00 -2.571150e+00 1.100000e+02
         vertex -2.571150e+00 -3.064178e+00 1.100000e+02
         vertex 0.000000e+00 0.000000e+00 1.100000e+02
      endloop
   endfacet
   facet normal 0.000000e+00 0.000000e+00 1.000000e+00
      outer loop
         vertex 0.000000e+00 0.000000e+00 1.100000e+02
         vertex -2.571150e+00 -3.064178e+00 1.100000e+02
         vertex -2.000000e+00 -3.464102e+00 1.100000e+02
      endloop
   endfacet
   facet normal 0.000000e+00 0.000000e+00 1.000000e+00
      outer loop
         vertex 0.000000e+00 0.000000e+00 1.100000e+02
         vertex -2.000000e+00 -3.464102e+00 1.100000e+02
         vertex -1.368081e+00 -3.758770e+00 1.100000e+02
      endloop
   endfacet
   facet normal -0.000000e+00 0.000000e+00 1.000000e+00
      outer loop
         vertex -3.939231e+00 -6.945927e-01 1.100000e+02
         vertex -3.758770e+00 -1.368081e+00 1.100000e+02
         vertex 0.000000e+00 0.000000e+00 1.100000e+02
      endloop
   endfacet
   facet normal 0.000000e+00 0.000000e+00 1.000000e+00
      outer loop
         vertex 0.000000e+00 0.000000e+00 1.100000e+02
         vertex -3.758770e+00 -1.368081e+00 1.100000e+02
         vertex -3.464102e+00 -2.000000e+00 1.100000e+02
      endloop
   endfacet
   facet normal 0.000000e+00 0.000000e+00 1.000000e+00
      outer loop
         vertex 0.000000e+00 0.000000e+00 1.100000e+02
         vertex -3.464102e+00 -2.000000e+00 1.100000e+02
         vertex -3.064178e+00 -2.571150e+00 1.100000e+02
      endloop
   endfacet
   facet normal 0.000000e+00 0.000000e+00 1.000000e+00
      outer loop
         vertex -3.758770e+00 1.368081e+00 1.100000e+02
         vertex -3.939231e+00 6.945927e-01 1.100000e+02
         vertex 0.000000e+00 0.000000e+00 1.100000e+02
      endloop
   endfacet
   facet normal 0.000000e+00 0.000000e+00 1.000000e+00
      outer loop
         vertex 0.000000e+00 0.000000e+00 1.100000e+02
         vertex -3.939231e+00 6.945927e-01 1.100000e+02
         vertex -4.000000e+00 0.000000e+00 1.100000e+02
      endloop
   endfacet
   facet normal 0.000000e+00 0.000000e+00 1.000000e+00
      outer loop
         vertex 0.000000e+00 0.000000e+00 1.100000e+02
         vertex -4.000000e+00 0.000000e+00 1.100000e+02
         vertex -3.939231e+00 -6.945927e-01 1.100000e+02
      endloop
   endfacet
   facet normal 0.000000e+00 0.000000e+00 1.000000e+00
      outer loop
         vertex -2.571150e+00 3.064178e+00 1.100000e+02
         vertex -3.064178e+00 2.571150e+00 1.100000e+02
         vertex 0.000000e+00 0.000000e+00 1.100000e+02
      endloop
   endfacet
   facet normal 0.000000e+00 0.000000e+00 1.000000e+00
      outer loop
         vertex 0.000000e+00 0.000000e+00 1.100000e+02
         vertex -3.064178e+00 2.571150e+00 1.100000e+02
         vertex -3.464102e+00 2.000000e+00 1.100000e+02
      endloop
   endfacet
   facet normal 0.000000e+00 0.000000e+00 1.000000e+00
      outer loop
         vertex 0.000000e+00 0.000000e+00 1.100000e+02
         vertex -3.464102e+00 2.000000e+00 1.100000e+02
         vertex -3.758770e+00 1.368081e+00 1.100000e+02
      endloop
   endfacet
   facet normal 0.000000e+00 0.000000e+00 1.000000e+00
      outer loop
         vertex -6.945927e-01 3.939231e+00 1.100000e+02
         vertex -1.368081e+00 3.758770e+00 1.100000e+02
         vertex 0.000000e+00 0.000000e+00 1.100000e+02
      endloop
   endfacet
   facet normal 0.000000e+00 0.000000e+00 1.000000e+00
      outer loop
         vertex 0.000000e+00 0.000000e+00 1.100000e+02
         vertex -1.368081e+00 3.758770e+00 1.100000e+02
         vertex -2.000000e+00 3.464102e+00 1.100000e+02
      endloop
   endfacet
   facet normal 0.000000e+00 0.000000e+00 1.000000e+00
      outer loop
         vertex 0.000000e+00 0.000000e+00 1.100000e+02
         vertex -2.000000e+00 3.464102e+00 1.100000e+02
         vertex -2.571150e+00 3.064178e+00 1.100000e+02
      endloop
   endfacet
   facet normal 0.000000e+00 0.000000e+00 1.000000e+00
      outer loop
         vertex 1.368081e+00 3.758770e+00 1.100000e+02
         vertex 6.945927e-01 3.939231e+00 1.100000e+02
         vertex 0.000000e+00 0.000000e+00 1.100000e+02
      endloop
   endfacet
   facet normal 0.000000e+00 -0.000000e+00 1.000000e+00
      outer loop
         vertex 0.000000e+00 0.000000e+00 1.100000e+02
         vertex 6.945927e-01 3.939231e+00 1.100000e+02
         vertex -2.449294e-16 4.000000e+00 1.100000e+02
      endloop
   endfacet
   facet normal 0.000000e+00 0.000000e+00 1.000000e+00
      outer loop
         vertex 0.000000e+00 0.000000e+00 1.100000e+02
         vertex -2.449294e-16 4.000000e+00 1.100000e+02
         vertex -6.945927e-01 3.939231e+00 1.100000e+02
      endloop
   endfacet
   facet normal 0.000000e+00 0.000000e+00 1.000000e+00
      outer loop
         vertex 3.064178e+00 2.571150e+00 1.100000e+02
         vertex 2.571150e+00 3.064178e+00 1.100000e+02
         vertex 0.000000e+00 0.000000e+00 1.100000e+02
      endloop
   endfacet
   facet normal 0.000000e+00 0.000000e+00 1.000000e+00
      outer loop
         vertex 0.000000e+00 0.000000e+00 1.100000e+02
         vertex 2.571150e+00 3.064178e+00 1.100000e+02
         vertex 2.000000e+00 3.464102e+00 1.100000e+02
      endloop
   endfacet
   facet normal 0.000000e+00 0.000000e+00 1.000000e+00
      outer loop
         vertex 0.000000e+00 0.000000e+00 1.100000e+02
         vertex 2.000000e+00 3.464102e+00 1.100000e+02
         vertex 1.368081e+00 3.758770e+00 1.100000e+02
      endloop
   endfacet
   facet normal 0.000000e+00 0.000000e+00 1.000000e+00
      outer loop
         vertex 3.939231e+00 6.945927e-01 1.100000e+02
         vertex 3.758770e+00 1.368081e+00 1.100000e+02
         vertex 0.000000e+00 0.000000e+00 1.100000e+02
      endloop
   endfacet
   facet normal 0.000000e+00 0.000000e+00 1.000000e+00
      outer loop
         vertex 0.000000e+00 0.000000e+00 1.100000e+02
         vertex 3.758770e+00 1.368081e+00 1.100000e+02
         vertex 3.464102e+00 2.000000e+00 1.100000e+02
      endloop
   endfacet
   facet normal 0.000000e+00 0.000000e+00 1.000000e+00
      outer loop
         vertex 0.000000e+00 0.000000e+00 1.100000e+02
         vertex 3.464102e+00 2.000000e+00 1.100000e+02
         vertex 3.064178e+00 2.571150e+00 1.100000e+02
      endloop
   endfacet
endsolid ÅçÇ¹_Ä¬ÈÏ_sldprt