solid 直线机构_默认_sldprt
   facet normal -0.000000e+00 1.000000e+00 0.000000e+00
      outer loop
         vertex -2.000000e+01 2.000000e+01 5.000000e+02
         vertex 2.000000e+01 2.000000e+01 5.000000e+02
         vertex -2.000000e+01 2.000000e+01 0.000000e+00
      endloop
   endfacet
   facet normal 0.000000e+00 1.000000e+00 0.000000e+00
      outer loop
         vertex -2.000000e+01 2.000000e+01 0.000000e+00
         vertex 2.000000e+01 2.000000e+01 5.000000e+02
         vertex 2.000000e+01 2.000000e+01 0.000000e+00
      endloop
   endfacet
   facet normal -1.000000e+00 0.000000e+00 0.000000e+00
      outer loop
         vertex -2.000000e+01 -2.000000e+01 5.000000e+02
         vertex -2.000000e+01 2.000000e+01 5.000000e+02
         vertex -2.000000e+01 -2.000000e+01 0.000000e+00
      endloop
   endfacet
   facet normal -1.000000e+00 0.000000e+00 0.000000e+00
      outer loop
         vertex -2.000000e+01 -2.000000e+01 0.000000e+00
         vertex -2.000000e+01 2.000000e+01 5.000000e+02
         vertex -2.000000e+01 2.000000e+01 0.000000e+00
      endloop
   endfacet
   facet normal -0.000000e+00 -1.000000e+00 -0.000000e+00
      outer loop
         vertex 2.000000e+01 -2.000000e+01 5.000000e+02
         vertex -2.000000e+01 -2.000000e+01 5.000000e+02
         vertex 2.000000e+01 -2.000000e+01 0.000000e+00
      endloop
   endfacet
   facet normal 0.000000e+00 -1.000000e+00 0.000000e+00
      outer loop
         vertex 2.000000e+01 -2.000000e+01 0.000000e+00
         vertex -2.000000e+01 -2.000000e+01 5.000000e+02
         vertex -2.000000e+01 -2.000000e+01 0.000000e+00
      endloop
   endfacet
   facet normal 1.000000e+00 -0.000000e+00 0.000000e+00
      outer loop
         vertex 2.000000e+01 3.830222e+00 1.083964e+01
         vertex 2.000000e+01 4.330127e+00 1.012570e+01
         vertex 2.000000e+01 2.000000e+01 5.000000e+02
      endloop
   endfacet
   facet normal 1.000000e+00 0.000000e+00 0.000000e+00
      outer loop
         vertex 2.000000e+01 4.924039e+00 8.493943e+00
         vertex 2.000000e+01 5.000000e+00 7.625702e+00
         vertex 2.000000e+01 2.000000e+01 0.000000e+00
      endloop
   endfacet
   facet normal 1.000000e+00 0.000000e+00 0.000000e+00
      outer loop
         vertex 2.000000e+01 2.000000e+01 0.000000e+00
         vertex 2.000000e+01 5.000000e+00 7.625702e+00
         vertex 2.000000e+01 4.924039e+00 6.757461e+00
      endloop
   endfacet
   facet normal 1.000000e+00 0.000000e+00 0.000000e+00
      outer loop
         vertex 2.000000e+01 4.924039e+00 6.757461e+00
         vertex 2.000000e+01 4.698463e+00 5.915601e+00
         vertex 2.000000e+01 2.000000e+01 0.000000e+00
      endloop
   endfacet
   facet normal 1.000000e+00 0.000000e+00 0.000000e+00
      outer loop
         vertex 2.000000e+01 2.000000e+01 0.000000e+00
         vertex 2.000000e+01 4.698463e+00 5.915601e+00
         vertex 2.000000e+01 4.330127e+00 5.125702e+00
      endloop
   endfacet
   facet normal 1.000000e+00 0.000000e+00 0.000000e+00
      outer loop
         vertex 2.000000e+01 2.000000e+01 0.000000e+00
         vertex 2.000000e+01 4.330127e+00 5.125702e+00
         vertex 2.000000e+01 3.830222e+00 4.411764e+00
      endloop
   endfacet
   facet normal 1.000000e+00 0.000000e+00 0.000000e+00
      outer loop
         vertex 2.000000e+01 3.830222e+00 4.411764e+00
         vertex 2.000000e+01 3.213938e+00 3.795480e+00
         vertex 2.000000e+01 2.000000e+01 0.000000e+00
      endloop
   endfacet
   facet normal 1.000000e+00 0.000000e+00 0.000000e+00
      outer loop
         vertex 2.000000e+01 2.000000e+01 0.000000e+00
         vertex 2.000000e+01 3.213938e+00 3.795480e+00
         vertex 2.000000e+01 2.500000e+00 3.295575e+00
      endloop
   endfacet
   facet normal 1.000000e+00 0.000000e+00 0.000000e+00
      outer loop
         vertex 2.000000e+01 2.000000e+01 0.000000e+00
         vertex 2.000000e+01 2.500000e+00 3.295575e+00
         vertex 2.000000e+01 1.710101e+00 2.927239e+00
      endloop
   endfacet
   facet normal 1.000000e+00 0.000000e+00 0.000000e+00
      outer loop
         vertex 2.000000e+01 1.710101e+00 2.927239e+00
         vertex 2.000000e+01 8.682409e-01 2.701663e+00
         vertex 2.000000e+01 2.000000e+01 0.000000e+00
      endloop
   endfacet
   facet normal 1.000000e+00 0.000000e+00 0.000000e+00
      outer loop
         vertex 2.000000e+01 2.000000e+01 0.000000e+00
         vertex 2.000000e+01 8.682409e-01 2.701663e+00
         vertex 2.000000e+01 0.000000e+00 2.625702e+00
      endloop
   endfacet
   facet normal 1.000000e+00 0.000000e+00 0.000000e+00
      outer loop
         vertex 2.000000e+01 2.000000e+01 0.000000e+00
         vertex 2.000000e+01 0.000000e+00 2.625702e+00
         vertex 2.000000e+01 -2.000000e+01 0.000000e+00
      endloop
   endfacet
   facet normal 1.000000e+00 0.000000e+00 0.000000e+00
      outer loop
         vertex 2.000000e+01 0.000000e+00 2.625702e+00
         vertex 2.000000e+01 -8.682409e-01 2.701663e+00
         vertex 2.000000e+01 -2.000000e+01 0.000000e+00
      endloop
   endfacet
   facet normal 1.000000e+00 0.000000e+00 0.000000e+00
      outer loop
         vertex 2.000000e+01 -2.000000e+01 0.000000e+00
         vertex 2.000000e+01 -8.682409e-01 2.701663e+00
         vertex 2.000000e+01 -1.710101e+00 2.927239e+00
      endloop
   endfacet
   facet normal 1.000000e+00 0.000000e+00 0.000000e+00
      outer loop
         vertex 2.000000e+01 -2.000000e+01 0.000000e+00
         vertex 2.000000e+01 -1.710101e+00 2.927239e+00
         vertex 2.000000e+01 -2.500000e+00 3.295575e+00
      endloop
   endfacet
   facet normal 1.000000e+00 0.000000e+00 0.000000e+00
      outer loop
         vertex 2.000000e+01 -2.500000e+00 3.295575e+00
         vertex 2.000000e+01 -3.213938e+00 3.795480e+00
         vertex 2.000000e+01 -2.000000e+01 0.000000e+00
      endloop
   endfacet
   facet normal 1.000000e+00 0.000000e+00 0.000000e+00
      outer loop
         vertex 2.000000e+01 -2.000000e+01 0.000000e+00
         vertex 2.000000e+01 -3.213938e+00 3.795480e+00
         vertex 2.000000e+01 -3.830222e+00 4.411764e+00
      endloop
   endfacet
   facet normal 1.000000e+00 0.000000e+00 0.000000e+00
      outer loop
         vertex 2.000000e+01 -2.000000e+01 0.000000e+00
         vertex 2.000000e+01 -3.830222e+00 4.411764e+00
         vertex 2.000000e+01 -4.330127e+00 5.125702e+00
      endloop
   endfacet
   facet normal 1.000000e+00 0.000000e+00 0.000000e+00
      outer loop
         vertex 2.000000e+01 2.000000e+01 5.000000e+02
         vertex 2.000000e+01 4.330127e+00 1.012570e+01
         vertex 2.000000e+01 2.000000e+01 0.000000e+00
      endloop
   endfacet
   facet normal 1.000000e+00 0.000000e+00 0.000000e+00
      outer loop
         vertex 2.000000e+01 2.000000e+01 0.000000e+00
         vertex 2.000000e+01 4.330127e+00 1.012570e+01
         vertex 2.000000e+01 4.698463e+00 9.335803e+00
      endloop
   endfacet
   facet normal 1.000000e+00 0.000000e+00 0.000000e+00
      outer loop
         vertex 2.000000e+01 2.000000e+01 0.000000e+00
         vertex 2.000000e+01 4.698463e+00 9.335803e+00
         vertex 2.000000e+01 4.924039e+00 8.493943e+00
      endloop
   endfacet
   facet normal 1.000000e+00 0.000000e+00 0.000000e+00
      outer loop
         vertex 2.000000e+01 -4.330127e+00 5.125702e+00
         vertex 2.000000e+01 -4.698463e+00 5.915601e+00
         vertex 2.000000e+01 -2.000000e+01 0.000000e+00
      endloop
   endfacet
   facet normal 1.000000e+00 0.000000e+00 0.000000e+00
      outer loop
         vertex 2.000000e+01 -2.000000e+01 0.000000e+00
         vertex 2.000000e+01 -4.698463e+00 5.915601e+00
         vertex 2.000000e+01 -4.924039e+00 6.757461e+00
      endloop
   endfacet
   facet normal 1.000000e+00 0.000000e+00 0.000000e+00
      outer loop
         vertex 2.000000e+01 -2.000000e+01 0.000000e+00
         vertex 2.000000e+01 -4.924039e+00 6.757461e+00
         vertex 2.000000e+01 -5.000000e+00 7.625702e+00
      endloop
   endfacet
   facet normal 1.000000e+00 0.000000e+00 -0.000000e+00
      outer loop
         vertex 2.000000e+01 -5.000000e+00 7.625702e+00
         vertex 2.000000e+01 -4.924039e+00 8.493943e+00
         vertex 2.000000e+01 -2.000000e+01 0.000000e+00
      endloop
   endfacet
   facet normal 1.000000e+00 0.000000e+00 0.000000e+00
      outer loop
         vertex 2.000000e+01 -2.000000e+01 0.000000e+00
         vertex 2.000000e+01 -4.924039e+00 8.493943e+00
         vertex 2.000000e+01 -4.698463e+00 9.335803e+00
      endloop
   endfacet
   facet normal 1.000000e+00 0.000000e+00 0.000000e+00
      outer loop
         vertex 2.000000e+01 -2.000000e+01 0.000000e+00
         vertex 2.000000e+01 -4.698463e+00 9.335803e+00
         vertex 2.000000e+01 -2.000000e+01 5.000000e+02
      endloop
   endfacet
   facet normal 1.000000e+00 0.000000e+00 0.000000e+00
      outer loop
         vertex 2.000000e+01 -2.000000e+01 5.000000e+02
         vertex 2.000000e+01 -4.698463e+00 9.335803e+00
         vertex 2.000000e+01 -4.330127e+00 1.012570e+01
      endloop
   endfacet
   facet normal 1.000000e+00 0.000000e+00 0.000000e+00
      outer loop
         vertex 2.000000e+01 -2.000000e+01 5.000000e+02
         vertex 2.000000e+01 -4.330127e+00 1.012570e+01
         vertex 2.000000e+01 -3.830222e+00 1.083964e+01
      endloop
   endfacet
   facet normal 1.000000e+00 0.000000e+00 -0.000000e+00
      outer loop
         vertex 2.000000e+01 -3.830222e+00 1.083964e+01
         vertex 2.000000e+01 -3.213938e+00 1.145592e+01
         vertex 2.000000e+01 -2.000000e+01 5.000000e+02
      endloop
   endfacet
   facet normal 1.000000e+00 0.000000e+00 0.000000e+00
      outer loop
         vertex 2.000000e+01 -2.000000e+01 5.000000e+02
         vertex 2.000000e+01 -3.213938e+00 1.145592e+01
         vertex 2.000000e+01 -2.500000e+00 1.195583e+01
      endloop
   endfacet
   facet normal 1.000000e+00 0.000000e+00 0.000000e+00
      outer loop
         vertex 2.000000e+01 -2.000000e+01 5.000000e+02
         vertex 2.000000e+01 -2.500000e+00 1.195583e+01
         vertex 2.000000e+01 -1.710101e+00 1.232417e+01
      endloop
   endfacet
   facet normal 1.000000e+00 0.000000e+00 -0.000000e+00
      outer loop
         vertex 2.000000e+01 -1.710101e+00 1.232417e+01
         vertex 2.000000e+01 -8.682409e-01 1.254974e+01
         vertex 2.000000e+01 -2.000000e+01 5.000000e+02
      endloop
   endfacet
   facet normal 1.000000e+00 0.000000e+00 0.000000e+00
      outer loop
         vertex 2.000000e+01 -2.000000e+01 5.000000e+02
         vertex 2.000000e+01 -8.682409e-01 1.254974e+01
         vertex 2.000000e+01 0.000000e+00 1.262570e+01
      endloop
   endfacet
   facet normal 1.000000e+00 -0.000000e+00 0.000000e+00
      outer loop
         vertex 2.000000e+01 -2.000000e+01 5.000000e+02
         vertex 2.000000e+01 0.000000e+00 1.262570e+01
         vertex 2.000000e+01 2.000000e+01 5.000000e+02
      endloop
   endfacet
   facet normal 1.000000e+00 0.000000e+00 0.000000e+00
      outer loop
         vertex 2.000000e+01 2.000000e+01 5.000000e+02
         vertex 2.000000e+01 0.000000e+00 1.262570e+01
         vertex 2.000000e+01 8.682409e-01 1.254974e+01
      endloop
   endfacet
   facet normal 1.000000e+00 0.000000e+00 0.000000e+00
      outer loop
         vertex 2.000000e+01 2.000000e+01 5.000000e+02
         vertex 2.000000e+01 8.682409e-01 1.254974e+01
         vertex 2.000000e+01 1.710101e+00 1.232417e+01
      endloop
   endfacet
   facet normal 1.000000e+00 -0.000000e+00 0.000000e+00
      outer loop
         vertex 2.000000e+01 1.710101e+00 1.232417e+01
         vertex 2.000000e+01 2.500000e+00 1.195583e+01
         vertex 2.000000e+01 2.000000e+01 5.000000e+02
      endloop
   endfacet
   facet normal 1.000000e+00 0.000000e+00 0.000000e+00
      outer loop
         vertex 2.000000e+01 2.000000e+01 5.000000e+02
         vertex 2.000000e+01 2.500000e+00 1.195583e+01
         vertex 2.000000e+01 3.213938e+00 1.145592e+01
      endloop
   endfacet
   facet normal 1.000000e+00 0.000000e+00 0.000000e+00
      outer loop
         vertex 2.000000e+01 2.000000e+01 5.000000e+02
         vertex 2.000000e+01 3.213938e+00 1.145592e+01
         vertex 2.000000e+01 3.830222e+00 1.083964e+01
      endloop
   endfacet
   facet normal 0.000000e+00 0.000000e+00 1.000000e+00
      outer loop
         vertex -2.000000e+01 -2.000000e+01 5.000000e+02
         vertex 2.000000e+01 -2.000000e+01 5.000000e+02
         vertex -2.000000e+01 2.000000e+01 5.000000e+02
      endloop
   endfacet
   facet normal -0.000000e+00 0.000000e+00 1.000000e+00
      outer loop
         vertex -2.000000e+01 2.000000e+01 5.000000e+02
         vertex 2.000000e+01 -2.000000e+01 5.000000e+02
         vertex 2.000000e+01 2.000000e+01 5.000000e+02
      endloop
   endfacet
   facet normal 0.000000e+00 0.000000e+00 -1.000000e+00
      outer loop
         vertex 2.000000e+01 -2.000000e+01 0.000000e+00
         vertex -2.000000e+01 -2.000000e+01 0.000000e+00
         vertex 2.000000e+01 2.000000e+01 0.000000e+00
      endloop
   endfacet
   facet normal -0.000000e+00 0.000000e+00 -1.000000e+00
      outer loop
         vertex 2.000000e+01 2.000000e+01 0.000000e+00
         vertex -2.000000e+01 -2.000000e+01 0.000000e+00
         vertex -2.000000e+01 2.000000e+01 0.000000e+00
      endloop
   endfacet
   facet normal 0.000000e+00 8.715494e-02 9.961948e-01
      outer loop
         vertex 2.000000e+01 0.000000e+00 1.262570e+01
         vertex 2.100000e+01 8.682409e-01 1.254974e+01
         vertex 2.000000e+01 8.682409e-01 1.254974e+01
      endloop
   endfacet
   facet normal -0.000000e+00 2.588190e-01 9.659258e-01
      outer loop
         vertex 2.000000e+01 8.682409e-01 1.254974e+01
         vertex 2.100000e+01 8.682409e-01 1.254974e+01
         vertex 2.100000e+01 1.710101e+00 1.232417e+01
      endloop
   endfacet
   facet normal 0.000000e+00 2.588190e-01 9.659258e-01
      outer loop
         vertex 2.000000e+01 8.682409e-01 1.254974e+01
         vertex 2.100000e+01 1.710101e+00 1.232417e+01
         vertex 2.000000e+01 1.710101e+00 1.232417e+01
      endloop
   endfacet
   facet normal -0.000000e+00 4.226184e-01 9.063077e-01
      outer loop
         vertex 2.000000e+01 1.710101e+00 1.232417e+01
         vertex 2.100000e+01 1.710101e+00 1.232417e+01
         vertex 2.100000e+01 2.500000e+00 1.195583e+01
      endloop
   endfacet
   facet normal 0.000000e+00 4.226184e-01 9.063077e-01
      outer loop
         vertex 2.000000e+01 1.710101e+00 1.232417e+01
         vertex 2.100000e+01 2.500000e+00 1.195583e+01
         vertex 2.000000e+01 2.500000e+00 1.195583e+01
      endloop
   endfacet
   facet normal -0.000000e+00 5.735766e-01 8.191519e-01
      outer loop
         vertex 2.000000e+01 2.500000e+00 1.195583e+01
         vertex 2.100000e+01 2.500000e+00 1.195583e+01
         vertex 2.100000e+01 3.213938e+00 1.145592e+01
      endloop
   endfacet
   facet normal 0.000000e+00 5.735766e-01 8.191519e-01
      outer loop
         vertex 2.000000e+01 2.500000e+00 1.195583e+01
         vertex 2.100000e+01 3.213938e+00 1.145592e+01
         vertex 2.000000e+01 3.213938e+00 1.145592e+01
      endloop
   endfacet
   facet normal -0.000000e+00 7.071068e-01 7.071068e-01
      outer loop
         vertex 2.000000e+01 3.213938e+00 1.145592e+01
         vertex 2.100000e+01 3.213938e+00 1.145592e+01
         vertex 2.100000e+01 3.830222e+00 1.083964e+01
      endloop
   endfacet
   facet normal 0.000000e+00 7.071068e-01 7.071068e-01
      outer loop
         vertex 2.000000e+01 3.213938e+00 1.145592e+01
         vertex 2.100000e+01 3.830222e+00 1.083964e+01
         vertex 2.000000e+01 3.830222e+00 1.083964e+01
      endloop
   endfacet
   facet normal -0.000000e+00 8.191520e-01 5.735765e-01
      outer loop
         vertex 2.000000e+01 3.830222e+00 1.083964e+01
         vertex 2.100000e+01 3.830222e+00 1.083964e+01
         vertex 2.100000e+01 4.330127e+00 1.012570e+01
      endloop
   endfacet
   facet normal 0.000000e+00 8.191520e-01 5.735765e-01
      outer loop
         vertex 2.000000e+01 3.830222e+00 1.083964e+01
         vertex 2.100000e+01 4.330127e+00 1.012570e+01
         vertex 2.000000e+01 4.330127e+00 1.012570e+01
      endloop
   endfacet
   facet normal -0.000000e+00 9.063077e-01 4.226183e-01
      outer loop
         vertex 2.000000e+01 4.330127e+00 1.012570e+01
         vertex 2.100000e+01 4.330127e+00 1.012570e+01
         vertex 2.100000e+01 4.698463e+00 9.335803e+00
      endloop
   endfacet
   facet normal 0.000000e+00 9.063077e-01 4.226183e-01
      outer loop
         vertex 2.000000e+01 4.330127e+00 1.012570e+01
         vertex 2.100000e+01 4.698463e+00 9.335803e+00
         vertex 2.000000e+01 4.698463e+00 9.335803e+00
      endloop
   endfacet
   facet normal -0.000000e+00 9.659258e-01 2.588191e-01
      outer loop
         vertex 2.000000e+01 4.698463e+00 9.335803e+00
         vertex 2.100000e+01 4.698463e+00 9.335803e+00
         vertex 2.100000e+01 4.924039e+00 8.493943e+00
      endloop
   endfacet
   facet normal 0.000000e+00 9.659258e-01 2.588191e-01
      outer loop
         vertex 2.000000e+01 4.698463e+00 9.335803e+00
         vertex 2.100000e+01 4.924039e+00 8.493943e+00
         vertex 2.000000e+01 4.924039e+00 8.493943e+00
      endloop
   endfacet
   facet normal -0.000000e+00 9.961947e-01 8.715548e-02
      outer loop
         vertex 2.000000e+01 4.924039e+00 8.493943e+00
         vertex 2.100000e+01 4.924039e+00 8.493943e+00
         vertex 2.100000e+01 5.000000e+00 7.625702e+00
      endloop
   endfacet
   facet normal 0.000000e+00 9.961947e-01 8.715548e-02
      outer loop
         vertex 2.000000e+01 4.924039e+00 8.493943e+00
         vertex 2.100000e+01 5.000000e+00 7.625702e+00
         vertex 2.000000e+01 5.000000e+00 7.625702e+00
      endloop
   endfacet
   facet normal 0.000000e+00 9.961947e-01 -8.715548e-02
      outer loop
         vertex 2.000000e+01 5.000000e+00 7.625702e+00
         vertex 2.100000e+01 5.000000e+00 7.625702e+00
         vertex 2.100000e+01 4.924039e+00 6.757461e+00
      endloop
   endfacet
   facet normal 0.000000e+00 9.961947e-01 -8.715548e-02
      outer loop
         vertex 2.000000e+01 5.000000e+00 7.625702e+00
         vertex 2.100000e+01 4.924039e+00 6.757461e+00
         vertex 2.000000e+01 4.924039e+00 6.757461e+00
      endloop
   endfacet
   facet normal 0.000000e+00 9.659259e-01 -2.588189e-01
      outer loop
         vertex 2.000000e+01 4.924039e+00 6.757461e+00
         vertex 2.100000e+01 4.924039e+00 6.757461e+00
         vertex 2.100000e+01 4.698463e+00 5.915601e+00
      endloop
   endfacet
   facet normal 0.000000e+00 9.659259e-01 -2.588189e-01
      outer loop
         vertex 2.000000e+01 4.924039e+00 6.757461e+00
         vertex 2.100000e+01 4.698463e+00 5.915601e+00
         vertex 2.000000e+01 4.698463e+00 5.915601e+00
      endloop
   endfacet
   facet normal 0.000000e+00 9.063077e-01 -4.226185e-01
      outer loop
         vertex 2.000000e+01 4.698463e+00 5.915601e+00
         vertex 2.100000e+01 4.698463e+00 5.915601e+00
         vertex 2.100000e+01 4.330127e+00 5.125702e+00
      endloop
   endfacet
   facet normal 0.000000e+00 9.063077e-01 -4.226185e-01
      outer loop
         vertex 2.000000e+01 4.698463e+00 5.915601e+00
         vertex 2.100000e+01 4.330127e+00 5.125702e+00
         vertex 2.000000e+01 4.330127e+00 5.125702e+00
      endloop
   endfacet
   facet normal 0.000000e+00 8.191521e-01 -5.735763e-01
      outer loop
         vertex 2.000000e+01 4.330127e+00 5.125702e+00
         vertex 2.100000e+01 4.330127e+00 5.125702e+00
         vertex 2.100000e+01 3.830222e+00 4.411764e+00
      endloop
   endfacet
   facet normal 0.000000e+00 8.191521e-01 -5.735763e-01
      outer loop
         vertex 2.000000e+01 4.330127e+00 5.125702e+00
         vertex 2.100000e+01 3.830222e+00 4.411764e+00
         vertex 2.000000e+01 3.830222e+00 4.411764e+00
      endloop
   endfacet
   facet normal 0.000000e+00 7.071068e-01 -7.071068e-01
      outer loop
         vertex 2.000000e+01 3.830222e+00 4.411764e+00
         vertex 2.100000e+01 3.830222e+00 4.411764e+00
         vertex 2.100000e+01 3.213938e+00 3.795480e+00
      endloop
   endfacet
   facet normal 0.000000e+00 7.071068e-01 -7.071068e-01
      outer loop
         vertex 2.000000e+01 3.830222e+00 4.411764e+00
         vertex 2.100000e+01 3.213938e+00 3.795480e+00
         vertex 2.000000e+01 3.213938e+00 3.795480e+00
      endloop
   endfacet
   facet normal 0.000000e+00 5.735764e-01 -8.191521e-01
      outer loop
         vertex 2.000000e+01 3.213938e+00 3.795480e+00
         vertex 2.100000e+01 3.213938e+00 3.795480e+00
         vertex 2.100000e+01 2.500000e+00 3.295575e+00
      endloop
   endfacet
   facet normal 0.000000e+00 5.735764e-01 -8.191521e-01
      outer loop
         vertex 2.000000e+01 3.213938e+00 3.795480e+00
         vertex 2.100000e+01 2.500000e+00 3.295575e+00
         vertex 2.000000e+01 2.500000e+00 3.295575e+00
      endloop
   endfacet
   facet normal 0.000000e+00 4.226182e-01 -9.063078e-01
      outer loop
         vertex 2.000000e+01 2.500000e+00 3.295575e+00
         vertex 2.100000e+01 2.500000e+00 3.295575e+00
         vertex 2.100000e+01 1.710101e+00 2.927239e+00
      endloop
   endfacet
   facet normal 0.000000e+00 4.226182e-01 -9.063078e-01
      outer loop
         vertex 2.000000e+01 2.500000e+00 3.295575e+00
         vertex 2.100000e+01 1.710101e+00 2.927239e+00
         vertex 2.000000e+01 1.710101e+00 2.927239e+00
      endloop
   endfacet
   facet normal 0.000000e+00 2.588190e-01 -9.659258e-01
      outer loop
         vertex 2.000000e+01 1.710101e+00 2.927239e+00
         vertex 2.100000e+01 1.710101e+00 2.927239e+00
         vertex 2.100000e+01 8.682409e-01 2.701663e+00
      endloop
   endfacet
   facet normal 0.000000e+00 2.588190e-01 -9.659258e-01
      outer loop
         vertex 2.000000e+01 1.710101e+00 2.927239e+00
         vertex 2.100000e+01 8.682409e-01 2.701663e+00
         vertex 2.000000e+01 8.682409e-01 2.701663e+00
      endloop
   endfacet
   facet normal 0.000000e+00 8.715574e-02 -9.961947e-01
      outer loop
         vertex 2.000000e+01 8.682409e-01 2.701663e+00
         vertex 2.100000e+01 8.682409e-01 2.701663e+00
         vertex 2.100000e+01 6.123234e-16 2.625702e+00
      endloop
   endfacet
   facet normal 0.000000e+00 8.715574e-02 -9.961947e-01
      outer loop
         vertex 2.000000e+01 8.682409e-01 2.701663e+00
         vertex 2.100000e+01 6.123234e-16 2.625702e+00
         vertex 2.000000e+01 6.123234e-16 2.625702e+00
      endloop
   endfacet
   facet normal 0.000000e+00 -8.715574e-02 -9.961947e-01
      outer loop
         vertex 2.000000e+01 6.123234e-16 2.625702e+00
         vertex 2.100000e+01 6.123234e-16 2.625702e+00
         vertex 2.100000e+01 -8.682409e-01 2.701663e+00
      endloop
   endfacet
   facet normal 0.000000e+00 -8.715574e-02 -9.961947e-01
      outer loop
         vertex 2.000000e+01 6.123234e-16 2.625702e+00
         vertex 2.100000e+01 -8.682409e-01 2.701663e+00
         vertex 2.000000e+01 -8.682409e-01 2.701663e+00
      endloop
   endfacet
   facet normal 0.000000e+00 -2.588190e-01 -9.659258e-01
      outer loop
         vertex 2.000000e+01 -8.682409e-01 2.701663e+00
         vertex 2.100000e+01 -8.682409e-01 2.701663e+00
         vertex 2.100000e+01 -1.710101e+00 2.927239e+00
      endloop
   endfacet
   facet normal 0.000000e+00 -2.588190e-01 -9.659258e-01
      outer loop
         vertex 2.000000e+01 -8.682409e-01 2.701663e+00
         vertex 2.100000e+01 -1.710101e+00 2.927239e+00
         vertex 2.000000e+01 -1.710101e+00 2.927239e+00
      endloop
   endfacet
   facet normal 0.000000e+00 -4.226182e-01 -9.063078e-01
      outer loop
         vertex 2.000000e+01 -1.710101e+00 2.927239e+00
         vertex 2.100000e+01 -1.710101e+00 2.927239e+00
         vertex 2.100000e+01 -2.500000e+00 3.295575e+00
      endloop
   endfacet
   facet normal 0.000000e+00 -4.226182e-01 -9.063078e-01
      outer loop
         vertex 2.000000e+01 -1.710101e+00 2.927239e+00
         vertex 2.100000e+01 -2.500000e+00 3.295575e+00
         vertex 2.000000e+01 -2.500000e+00 3.295575e+00
      endloop
   endfacet
   facet normal 0.000000e+00 -5.735764e-01 -8.191521e-01
      outer loop
         vertex 2.000000e+01 -2.500000e+00 3.295575e+00
         vertex 2.100000e+01 -2.500000e+00 3.295575e+00
         vertex 2.100000e+01 -3.213938e+00 3.795480e+00
      endloop
   endfacet
   facet normal 0.000000e+00 -5.735764e-01 -8.191521e-01
      outer loop
         vertex 2.000000e+01 -2.500000e+00 3.295575e+00
         vertex 2.100000e+01 -3.213938e+00 3.795480e+00
         vertex 2.000000e+01 -3.213938e+00 3.795480e+00
      endloop
   endfacet
   facet normal 0.000000e+00 -7.071068e-01 -7.071068e-01
      outer loop
         vertex 2.000000e+01 -3.213938e+00 3.795480e+00
         vertex 2.100000e+01 -3.213938e+00 3.795480e+00
         vertex 2.100000e+01 -3.830222e+00 4.411764e+00
      endloop
   endfacet
   facet normal 0.000000e+00 -7.071068e-01 -7.071068e-01
      outer loop
         vertex 2.000000e+01 -3.213938e+00 3.795480e+00
         vertex 2.100000e+01 -3.830222e+00 4.411764e+00
         vertex 2.000000e+01 -3.830222e+00 4.411764e+00
      endloop
   endfacet
   facet normal 0.000000e+00 -8.191521e-01 -5.735763e-01
      outer loop
         vertex 2.000000e+01 -3.830222e+00 4.411764e+00
         vertex 2.100000e+01 -3.830222e+00 4.411764e+00
         vertex 2.100000e+01 -4.330127e+00 5.125702e+00
      endloop
   endfacet
   facet normal 0.000000e+00 -8.191521e-01 -5.735763e-01
      outer loop
         vertex 2.000000e+01 -3.830222e+00 4.411764e+00
         vertex 2.100000e+01 -4.330127e+00 5.125702e+00
         vertex 2.000000e+01 -4.330127e+00 5.125702e+00
      endloop
   endfacet
   facet normal 0.000000e+00 -9.063077e-01 -4.226185e-01
      outer loop
         vertex 2.000000e+01 -4.330127e+00 5.125702e+00
         vertex 2.100000e+01 -4.330127e+00 5.125702e+00
         vertex 2.100000e+01 -4.698463e+00 5.915601e+00
      endloop
   endfacet
   facet normal 0.000000e+00 -9.063077e-01 -4.226185e-01
      outer loop
         vertex 2.000000e+01 -4.330127e+00 5.125702e+00
         vertex 2.100000e+01 -4.698463e+00 5.915601e+00
         vertex 2.000000e+01 -4.698463e+00 5.915601e+00
      endloop
   endfacet
   facet normal 0.000000e+00 -9.659259e-01 -2.588189e-01
      outer loop
         vertex 2.000000e+01 -4.698463e+00 5.915601e+00
         vertex 2.100000e+01 -4.698463e+00 5.915601e+00
         vertex 2.100000e+01 -4.924039e+00 6.757461e+00
      endloop
   endfacet
   facet normal 0.000000e+00 -9.659259e-01 -2.588189e-01
      outer loop
         vertex 2.000000e+01 -4.698463e+00 5.915601e+00
         vertex 2.100000e+01 -4.924039e+00 6.757461e+00
         vertex 2.000000e+01 -4.924039e+00 6.757461e+00
      endloop
   endfacet
   facet normal 0.000000e+00 -9.961947e-01 -8.715548e-02
      outer loop
         vertex 2.000000e+01 -4.924039e+00 6.757461e+00
         vertex 2.100000e+01 -4.924039e+00 6.757461e+00
         vertex 2.100000e+01 -5.000000e+00 7.625702e+00
      endloop
   endfacet
   facet normal 0.000000e+00 -9.961947e-01 -8.715548e-02
      outer loop
         vertex 2.000000e+01 -4.924039e+00 6.757461e+00
         vertex 2.100000e+01 -5.000000e+00 7.625702e+00
         vertex 2.000000e+01 -5.000000e+00 7.625702e+00
      endloop
   endfacet
   facet normal 0.000000e+00 -9.961947e-01 8.715548e-02
      outer loop
         vertex 2.000000e+01 -5.000000e+00 7.625702e+00
         vertex 2.100000e+01 -5.000000e+00 7.625702e+00
         vertex 2.100000e+01 -4.924039e+00 8.493943e+00
      endloop
   endfacet
   facet normal 0.000000e+00 -9.961947e-01 8.715548e-02
      outer loop
         vertex 2.000000e+01 -5.000000e+00 7.625702e+00
         vertex 2.100000e+01 -4.924039e+00 8.493943e+00
         vertex 2.000000e+01 -4.924039e+00 8.493943e+00
      endloop
   endfacet
   facet normal 0.000000e+00 -9.659258e-01 2.588191e-01
      outer loop
         vertex 2.000000e+01 -4.924039e+00 8.493943e+00
         vertex 2.100000e+01 -4.924039e+00 8.493943e+00
         vertex 2.100000e+01 -4.698463e+00 9.335803e+00
      endloop
   endfacet
   facet normal 0.000000e+00 -9.659258e-01 2.588191e-01
      outer loop
         vertex 2.000000e+01 -4.924039e+00 8.493943e+00
         vertex 2.100000e+01 -4.698463e+00 9.335803e+00
         vertex 2.000000e+01 -4.698463e+00 9.335803e+00
      endloop
   endfacet
   facet normal 0.000000e+00 -9.063077e-01 4.226183e-01
      outer loop
         vertex 2.000000e+01 -4.698463e+00 9.335803e+00
         vertex 2.100000e+01 -4.698463e+00 9.335803e+00
         vertex 2.100000e+01 -4.330127e+00 1.012570e+01
      endloop
   endfacet
   facet normal 0.000000e+00 -9.063077e-01 4.226183e-01
      outer loop
         vertex 2.000000e+01 -4.698463e+00 9.335803e+00
         vertex 2.100000e+01 -4.330127e+00 1.012570e+01
         vertex 2.000000e+01 -4.330127e+00 1.012570e+01
      endloop
   endfacet
   facet normal 0.000000e+00 -8.191520e-01 5.735765e-01
      outer loop
         vertex 2.000000e+01 -4.330127e+00 1.012570e+01
         vertex 2.100000e+01 -4.330127e+00 1.012570e+01
         vertex 2.100000e+01 -3.830222e+00 1.083964e+01
      endloop
   endfacet
   facet normal 0.000000e+00 -8.191520e-01 5.735765e-01
      outer loop
         vertex 2.000000e+01 -4.330127e+00 1.012570e+01
         vertex 2.100000e+01 -3.830222e+00 1.083964e+01
         vertex 2.000000e+01 -3.830222e+00 1.083964e+01
      endloop
   endfacet
   facet normal 0.000000e+00 -7.071068e-01 7.071068e-01
      outer loop
         vertex 2.000000e+01 -3.830222e+00 1.083964e+01
         vertex 2.100000e+01 -3.830222e+00 1.083964e+01
         vertex 2.100000e+01 -3.213938e+00 1.145592e+01
      endloop
   endfacet
   facet normal 0.000000e+00 -7.071068e-01 7.071068e-01
      outer loop
         vertex 2.000000e+01 -3.830222e+00 1.083964e+01
         vertex 2.100000e+01 -3.213938e+00 1.145592e+01
         vertex 2.000000e+01 -3.213938e+00 1.145592e+01
      endloop
   endfacet
   facet normal 0.000000e+00 -5.735766e-01 8.191519e-01
      outer loop
         vertex 2.000000e+01 -3.213938e+00 1.145592e+01
         vertex 2.100000e+01 -3.213938e+00 1.145592e+01
         vertex 2.100000e+01 -2.500000e+00 1.195583e+01
      endloop
   endfacet
   facet normal 0.000000e+00 -5.735766e-01 8.191519e-01
      outer loop
         vertex 2.000000e+01 -3.213938e+00 1.145592e+01
         vertex 2.100000e+01 -2.500000e+00 1.195583e+01
         vertex 2.000000e+01 -2.500000e+00 1.195583e+01
      endloop
   endfacet
   facet normal 0.000000e+00 -4.226184e-01 9.063077e-01
      outer loop
         vertex 2.000000e+01 -2.500000e+00 1.195583e+01
         vertex 2.100000e+01 -2.500000e+00 1.195583e+01
         vertex 2.100000e+01 -1.710101e+00 1.232417e+01
      endloop
   endfacet
   facet normal 0.000000e+00 -4.226184e-01 9.063077e-01
      outer loop
         vertex 2.000000e+01 -2.500000e+00 1.195583e+01
         vertex 2.100000e+01 -1.710101e+00 1.232417e+01
         vertex 2.000000e+01 -1.710101e+00 1.232417e+01
      endloop
   endfacet
   facet normal 0.000000e+00 -2.588190e-01 9.659258e-01
      outer loop
         vertex 2.000000e+01 -1.710101e+00 1.232417e+01
         vertex 2.100000e+01 -1.710101e+00 1.232417e+01
         vertex 2.100000e+01 -8.682409e-01 1.254974e+01
      endloop
   endfacet
   facet normal 0.000000e+00 -2.588190e-01 9.659258e-01
      outer loop
         vertex 2.000000e+01 -1.710101e+00 1.232417e+01
         vertex 2.100000e+01 -8.682409e-01 1.254974e+01
         vertex 2.000000e+01 -8.682409e-01 1.254974e+01
      endloop
   endfacet
   facet normal 0.000000e+00 -8.715494e-02 9.961948e-01
      outer loop
         vertex 2.000000e+01 -8.682409e-01 1.254974e+01
         vertex 2.100000e+01 -8.682409e-01 1.254974e+01
         vertex 2.100000e+01 0.000000e+00 1.262570e+01
      endloop
   endfacet
   facet normal 0.000000e+00 -8.715494e-02 9.961948e-01
      outer loop
         vertex 2.000000e+01 -8.682409e-01 1.254974e+01
         vertex 2.100000e+01 0.000000e+00 1.262570e+01
         vertex 2.000000e+01 0.000000e+00 1.262570e+01
      endloop
   endfacet
   facet normal -0.000000e+00 8.715494e-02 9.961948e-01
      outer loop
         vertex 2.000000e+01 0.000000e+00 1.262570e+01
         vertex 2.100000e+01 0.000000e+00 1.262570e+01
         vertex 2.100000e+01 8.682409e-01 1.254974e+01
      endloop
   endfacet
   facet normal 1.000000e+00 -0.000000e+00 0.000000e+00
      outer loop
         vertex 2.100000e+01 -1.710101e+00 2.927239e+00
         vertex 2.100000e+01 -8.682409e-01 2.701663e+00
         vertex 2.100000e+01 0.000000e+00 7.625702e+00
      endloop
   endfacet
   facet normal 1.000000e+00 0.000000e+00 0.000000e+00
      outer loop
         vertex 2.100000e+01 0.000000e+00 7.625702e+00
         vertex 2.100000e+01 -8.682409e-01 2.701663e+00
         vertex 2.100000e+01 6.123234e-16 2.625702e+00
      endloop
   endfacet
   facet normal 1.000000e+00 0.000000e+00 0.000000e+00
      outer loop
         vertex 2.100000e+01 0.000000e+00 7.625702e+00
         vertex 2.100000e+01 6.123234e-16 2.625702e+00
         vertex 2.100000e+01 8.682409e-01 2.701663e+00
      endloop
   endfacet
   facet normal 1.000000e+00 -0.000000e+00 0.000000e+00
      outer loop
         vertex 2.100000e+01 -3.830222e+00 4.411764e+00
         vertex 2.100000e+01 -3.213938e+00 3.795480e+00
         vertex 2.100000e+01 0.000000e+00 7.625702e+00
      endloop
   endfacet
   facet normal 1.000000e+00 0.000000e+00 0.000000e+00
      outer loop
         vertex 2.100000e+01 0.000000e+00 7.625702e+00
         vertex 2.100000e+01 -3.213938e+00 3.795480e+00
         vertex 2.100000e+01 -2.500000e+00 3.295575e+00
      endloop
   endfacet
   facet normal 1.000000e+00 0.000000e+00 0.000000e+00
      outer loop
         vertex 2.100000e+01 0.000000e+00 7.625702e+00
         vertex 2.100000e+01 -2.500000e+00 3.295575e+00
         vertex 2.100000e+01 -1.710101e+00 2.927239e+00
      endloop
   endfacet
   facet normal 1.000000e+00 -0.000000e+00 0.000000e+00
      outer loop
         vertex 2.100000e+01 -4.924039e+00 6.757461e+00
         vertex 2.100000e+01 -4.698463e+00 5.915601e+00
         vertex 2.100000e+01 0.000000e+00 7.625702e+00
      endloop
   endfacet
   facet normal 1.000000e+00 0.000000e+00 0.000000e+00
      outer loop
         vertex 2.100000e+01 0.000000e+00 7.625702e+00
         vertex 2.100000e+01 -4.698463e+00 5.915601e+00
         vertex 2.100000e+01 -4.330127e+00 5.125702e+00
      endloop
   endfacet
   facet normal 1.000000e+00 0.000000e+00 0.000000e+00
      outer loop
         vertex 2.100000e+01 0.000000e+00 7.625702e+00
         vertex 2.100000e+01 -4.330127e+00 5.125702e+00
         vertex 2.100000e+01 -3.830222e+00 4.411764e+00
      endloop
   endfacet
   facet normal 1.000000e+00 0.000000e+00 0.000000e+00
      outer loop
         vertex 2.100000e+01 -4.698463e+00 9.335803e+00
         vertex 2.100000e+01 -4.924039e+00 8.493943e+00
         vertex 2.100000e+01 0.000000e+00 7.625702e+00
      endloop
   endfacet
   facet normal 1.000000e+00 0.000000e+00 0.000000e+00
      outer loop
         vertex 2.100000e+01 0.000000e+00 7.625702e+00
         vertex 2.100000e+01 -4.924039e+00 8.493943e+00
         vertex 2.100000e+01 -5.000000e+00 7.625702e+00
      endloop
   endfacet
   facet normal 1.000000e+00 0.000000e+00 0.000000e+00
      outer loop
         vertex 2.100000e+01 0.000000e+00 7.625702e+00
         vertex 2.100000e+01 -5.000000e+00 7.625702e+00
         vertex 2.100000e+01 -4.924039e+00 6.757461e+00
      endloop
   endfacet
   facet normal 1.000000e+00 0.000000e+00 0.000000e+00
      outer loop
         vertex 2.100000e+01 -3.213938e+00 1.145592e+01
         vertex 2.100000e+01 -3.830222e+00 1.083964e+01
         vertex 2.100000e+01 0.000000e+00 7.625702e+00
      endloop
   endfacet
   facet normal 1.000000e+00 0.000000e+00 0.000000e+00
      outer loop
         vertex 2.100000e+01 0.000000e+00 7.625702e+00
         vertex 2.100000e+01 -3.830222e+00 1.083964e+01
         vertex 2.100000e+01 -4.330127e+00 1.012570e+01
      endloop
   endfacet
   facet normal 1.000000e+00 0.000000e+00 0.000000e+00
      outer loop
         vertex 2.100000e+01 0.000000e+00 7.625702e+00
         vertex 2.100000e+01 -4.330127e+00 1.012570e+01
         vertex 2.100000e+01 -4.698463e+00 9.335803e+00
      endloop
   endfacet
   facet normal 1.000000e+00 0.000000e+00 0.000000e+00
      outer loop
         vertex 2.100000e+01 -8.682409e-01 1.254974e+01
         vertex 2.100000e+01 -1.710101e+00 1.232417e+01
         vertex 2.100000e+01 0.000000e+00 7.625702e+00
      endloop
   endfacet
   facet normal 1.000000e+00 0.000000e+00 0.000000e+00
      outer loop
         vertex 2.100000e+01 0.000000e+00 7.625702e+00
         vertex 2.100000e+01 -1.710101e+00 1.232417e+01
         vertex 2.100000e+01 -2.500000e+00 1.195583e+01
      endloop
   endfacet
   facet normal 1.000000e+00 0.000000e+00 0.000000e+00
      outer loop
         vertex 2.100000e+01 0.000000e+00 7.625702e+00
         vertex 2.100000e+01 -2.500000e+00 1.195583e+01
         vertex 2.100000e+01 -3.213938e+00 1.145592e+01
      endloop
   endfacet
   facet normal 1.000000e+00 0.000000e+00 0.000000e+00
      outer loop
         vertex 2.100000e+01 1.710101e+00 1.232417e+01
         vertex 2.100000e+01 8.682409e-01 1.254974e+01
         vertex 2.100000e+01 0.000000e+00 7.625702e+00
      endloop
   endfacet
   facet normal 1.000000e+00 0.000000e+00 0.000000e+00
      outer loop
         vertex 2.100000e+01 0.000000e+00 7.625702e+00
         vertex 2.100000e+01 8.682409e-01 1.254974e+01
         vertex 2.100000e+01 0.000000e+00 1.262570e+01
      endloop
   endfacet
   facet normal 1.000000e+00 0.000000e+00 -0.000000e+00
      outer loop
         vertex 2.100000e+01 0.000000e+00 7.625702e+00
         vertex 2.100000e+01 0.000000e+00 1.262570e+01
         vertex 2.100000e+01 -8.682409e-01 1.254974e+01
      endloop
   endfacet
   facet normal 1.000000e+00 0.000000e+00 0.000000e+00
      outer loop
         vertex 2.100000e+01 3.830222e+00 1.083964e+01
         vertex 2.100000e+01 3.213938e+00 1.145592e+01
         vertex 2.100000e+01 0.000000e+00 7.625702e+00
      endloop
   endfacet
   facet normal 1.000000e+00 0.000000e+00 0.000000e+00
      outer loop
         vertex 2.100000e+01 0.000000e+00 7.625702e+00
         vertex 2.100000e+01 3.213938e+00 1.145592e+01
         vertex 2.100000e+01 2.500000e+00 1.195583e+01
      endloop
   endfacet
   facet normal 1.000000e+00 0.000000e+00 0.000000e+00
      outer loop
         vertex 2.100000e+01 0.000000e+00 7.625702e+00
         vertex 2.100000e+01 2.500000e+00 1.195583e+01
         vertex 2.100000e+01 1.710101e+00 1.232417e+01
      endloop
   endfacet
   facet normal 1.000000e+00 0.000000e+00 0.000000e+00
      outer loop
         vertex 2.100000e+01 4.924039e+00 8.493943e+00
         vertex 2.100000e+01 4.698463e+00 9.335803e+00
         vertex 2.100000e+01 0.000000e+00 7.625702e+00
      endloop
   endfacet
   facet normal 1.000000e+00 0.000000e+00 0.000000e+00
      outer loop
         vertex 2.100000e+01 0.000000e+00 7.625702e+00
         vertex 2.100000e+01 4.698463e+00 9.335803e+00
         vertex 2.100000e+01 4.330127e+00 1.012570e+01
      endloop
   endfacet
   facet normal 1.000000e+00 0.000000e+00 0.000000e+00
      outer loop
         vertex 2.100000e+01 0.000000e+00 7.625702e+00
         vertex 2.100000e+01 4.330127e+00 1.012570e+01
         vertex 2.100000e+01 3.830222e+00 1.083964e+01
      endloop
   endfacet
   facet normal 1.000000e+00 0.000000e+00 -0.000000e+00
      outer loop
         vertex 2.100000e+01 4.698463e+00 5.915601e+00
         vertex 2.100000e+01 4.924039e+00 6.757461e+00
         vertex 2.100000e+01 0.000000e+00 7.625702e+00
      endloop
   endfacet
   facet normal 1.000000e+00 -0.000000e+00 0.000000e+00
      outer loop
         vertex 2.100000e+01 0.000000e+00 7.625702e+00
         vertex 2.100000e+01 4.924039e+00 6.757461e+00
         vertex 2.100000e+01 5.000000e+00 7.625702e+00
      endloop
   endfacet
   facet normal 1.000000e+00 0.000000e+00 0.000000e+00
      outer loop
         vertex 2.100000e+01 0.000000e+00 7.625702e+00
         vertex 2.100000e+01 5.000000e+00 7.625702e+00
         vertex 2.100000e+01 4.924039e+00 8.493943e+00
      endloop
   endfacet
   facet normal 1.000000e+00 0.000000e+00 -0.000000e+00
      outer loop
         vertex 2.100000e+01 3.213938e+00 3.795480e+00
         vertex 2.100000e+01 3.830222e+00 4.411764e+00
         vertex 2.100000e+01 0.000000e+00 7.625702e+00
      endloop
   endfacet
   facet normal 1.000000e+00 0.000000e+00 0.000000e+00
      outer loop
         vertex 2.100000e+01 0.000000e+00 7.625702e+00
         vertex 2.100000e+01 3.830222e+00 4.411764e+00
         vertex 2.100000e+01 4.330127e+00 5.125702e+00
      endloop
   endfacet
   facet normal 1.000000e+00 0.000000e+00 0.000000e+00
      outer loop
         vertex 2.100000e+01 0.000000e+00 7.625702e+00
         vertex 2.100000e+01 4.330127e+00 5.125702e+00
         vertex 2.100000e+01 4.698463e+00 5.915601e+00
      endloop
   endfacet
   facet normal 1.000000e+00 0.000000e+00 -0.000000e+00
      outer loop
         vertex 2.100000e+01 8.682409e-01 2.701663e+00
         vertex 2.100000e+01 1.710101e+00 2.927239e+00
         vertex 2.100000e+01 0.000000e+00 7.625702e+00
      endloop
   endfacet
   facet normal 1.000000e+00 0.000000e+00 0.000000e+00
      outer loop
         vertex 2.100000e+01 0.000000e+00 7.625702e+00
         vertex 2.100000e+01 1.710101e+00 2.927239e+00
         vertex 2.100000e+01 2.500000e+00 3.295575e+00
      endloop
   endfacet
   facet normal 1.000000e+00 0.000000e+00 0.000000e+00
      outer loop
         vertex 2.100000e+01 0.000000e+00 7.625702e+00
         vertex 2.100000e+01 2.500000e+00 3.295575e+00
         vertex 2.100000e+01 3.213938e+00 3.795480e+00
      endloop
   endfacet
endsolid 直线机构_默认_sldprt