solid KR16_2_Link4_2_motor_д╛хо_sldprt
   facet normal 4.614482e-014 1.000000e+000 -4.614482e-014
      outer loop
         vertex 2.457302e+002 4.300000e+001 1.430364e+003
         vertex 2.598723e+002 4.300000e+001 1.444506e+003
         vertex 2.740144e+002 4.300000e+001 1.430364e+003
      endloop
   endfacet
   facet normal -7.065416e-014 4.614482e-014 1.000000e+000
      outer loop
         vertex 2.457302e+002 2.130000e+002 1.430364e+003
         vertex 2.457302e+002 4.300000e+001 1.430364e+003
         vertex 2.740144e+002 2.130000e+002 1.430364e+003
      endloop
   endfacet
   facet normal -7.065416e-014 4.614482e-014 1.000000e+000
      outer loop
         vertex 2.740144e+002 2.130000e+002 1.430364e+003
         vertex 2.457302e+002 4.300000e+001 1.430364e+003
         vertex 2.740144e+002 4.300000e+001 1.430364e+003
      endloop
   endfacet
   facet normal 4.614482e-014 1.000000e+000 -4.614482e-014
      outer loop
         vertex 1.846715e+002 4.300000e+001 1.341021e+003
         vertex 1.705294e+002 4.300000e+001 1.355163e+003
         vertex 1.846715e+002 4.300000e+001 1.369305e+003
      endloop
   endfacet
   facet normal -1.000000e+000 4.614482e-014 -6.182239e-014
      outer loop
         vertex 1.846715e+002 2.130000e+002 1.341021e+003
         vertex 1.846715e+002 4.300000e+001 1.341021e+003
         vertex 1.846715e+002 2.130000e+002 1.369305e+003
      endloop
   endfacet
   facet normal -1.000000e+000 4.614482e-014 -6.182239e-014
      outer loop
         vertex 1.846715e+002 2.130000e+002 1.369305e+003
         vertex 1.846715e+002 4.300000e+001 1.341021e+003
         vertex 1.846715e+002 4.300000e+001 1.369305e+003
      endloop
   endfacet
   facet normal 4.614482e-014 1.000000e+000 -4.614482e-014
      outer loop
         vertex 2.740144e+002 4.300000e+001 1.279962e+003
         vertex 2.598723e+002 4.300000e+001 1.265820e+003
         vertex 2.457302e+002 4.300000e+001 1.279962e+003
      endloop
   endfacet
   facet normal 7.065416e-014 -4.614482e-014 -1.000000e+000
      outer loop
         vertex 2.740144e+002 2.130000e+002 1.279962e+003
         vertex 2.740144e+002 4.300000e+001 1.279962e+003
         vertex 2.457302e+002 2.130000e+002 1.279962e+003
      endloop
   endfacet
   facet normal 7.065416e-014 -4.614482e-014 -1.000000e+000
      outer loop
         vertex 2.457302e+002 2.130000e+002 1.279962e+003
         vertex 2.740144e+002 4.300000e+001 1.279962e+003
         vertex 2.457302e+002 4.300000e+001 1.279962e+003
      endloop
   endfacet
   facet normal 4.614482e-014 1.000000e+000 -4.614482e-014
      outer loop
         vertex 2.457302e+002 2.130000e+002 1.279962e+003
         vertex 1.846715e+002 2.130000e+002 1.341021e+003
         vertex 1.846715e+002 2.130000e+002 1.369305e+003
      endloop
   endfacet
   facet normal 4.614482e-014 1.000000e+000 -4.614482e-014
      outer loop
         vertex 3.350731e+002 2.130000e+002 1.341021e+003
         vertex 2.740144e+002 2.130000e+002 1.279962e+003
         vertex 3.350731e+002 2.130000e+002 1.369305e+003
      endloop
   endfacet
   facet normal 4.614482e-014 1.000000e+000 -4.614482e-014
      outer loop
         vertex 3.350731e+002 2.130000e+002 1.369305e+003
         vertex 2.740144e+002 2.130000e+002 1.279962e+003
         vertex 2.457302e+002 2.130000e+002 1.279962e+003
      endloop
   endfacet
   facet normal 4.614482e-014 1.000000e+000 -4.614482e-014
      outer loop
         vertex 3.350731e+002 2.130000e+002 1.369305e+003
         vertex 2.457302e+002 2.130000e+002 1.279962e+003
         vertex 2.740144e+002 2.130000e+002 1.430364e+003
      endloop
   endfacet
   facet normal 4.614482e-014 1.000000e+000 -4.614482e-014
      outer loop
         vertex 2.740144e+002 2.130000e+002 1.430364e+003
         vertex 2.457302e+002 2.130000e+002 1.279962e+003
         vertex 1.846715e+002 2.130000e+002 1.369305e+003
      endloop
   endfacet
   facet normal 4.614482e-014 1.000000e+000 -4.614482e-014
      outer loop
         vertex 2.740144e+002 2.130000e+002 1.430364e+003
         vertex 1.846715e+002 2.130000e+002 1.369305e+003
         vertex 2.457302e+002 2.130000e+002 1.430364e+003
      endloop
   endfacet
   facet normal 1.000000e+000 -4.614482e-014 6.280370e-014
      outer loop
         vertex 3.350731e+002 2.130000e+002 1.369305e+003
         vertex 3.350731e+002 4.300000e+001 1.369305e+003
         vertex 3.350731e+002 2.130000e+002 1.341021e+003
      endloop
   endfacet
   facet normal 1.000000e+000 -4.614482e-014 6.280370e-014
      outer loop
         vertex 3.350731e+002 2.130000e+002 1.341021e+003
         vertex 3.350731e+002 4.300000e+001 1.369305e+003
         vertex 3.350731e+002 4.300000e+001 1.341021e+003
      endloop
   endfacet
   facet normal 4.614482e-014 1.000000e+000 -4.614482e-014
      outer loop
         vertex 3.350731e+002 4.300000e+001 1.369305e+003
         vertex 3.492152e+002 4.300000e+001 1.355163e+003
         vertex 3.350731e+002 4.300000e+001 1.341021e+003
      endloop
   endfacet
   facet normal 7.071068e-001 -4.253538e-027 7.071068e-001
      outer loop
         vertex 2.598723e+002 3.600000e+001 1.444506e+003
         vertex 3.492152e+002 3.600000e+001 1.355163e+003
         vertex 3.350731e+002 4.300000e+001 1.369305e+003
      endloop
   endfacet
   facet normal 7.071068e-001 -4.253538e-027 7.071068e-001
      outer loop
         vertex 3.350731e+002 4.300000e+001 1.369305e+003
         vertex 3.492152e+002 3.600000e+001 1.355163e+003
         vertex 3.492152e+002 4.300000e+001 1.355163e+003
      endloop
   endfacet
   facet normal 7.071068e-001 -4.253538e-027 7.071068e-001
      outer loop
         vertex 2.598723e+002 4.300000e+001 1.444506e+003
         vertex 2.598723e+002 3.600000e+001 1.444506e+003
         vertex 2.740144e+002 4.300000e+001 1.430364e+003
      endloop
   endfacet
   facet normal 7.071068e-001 -4.253538e-027 7.071068e-001
      outer loop
         vertex 2.740144e+002 4.300000e+001 1.430364e+003
         vertex 2.598723e+002 3.600000e+001 1.444506e+003
         vertex 3.350731e+002 4.300000e+001 1.369305e+003
      endloop
   endfacet
   facet normal 7.071068e-001 -4.253538e-027 7.071068e-001
      outer loop
         vertex 2.740144e+002 4.300000e+001 1.430364e+003
         vertex 3.350731e+002 4.300000e+001 1.369305e+003
         vertex 2.740144e+002 2.130000e+002 1.430364e+003
      endloop
   endfacet
   facet normal 7.071068e-001 -4.253538e-027 7.071068e-001
      outer loop
         vertex 2.740144e+002 2.130000e+002 1.430364e+003
         vertex 3.350731e+002 4.300000e+001 1.369305e+003
         vertex 3.350731e+002 2.130000e+002 1.369305e+003
      endloop
   endfacet
   facet normal -7.071068e-001 6.525863e-014 7.071068e-001
      outer loop
         vertex 1.846715e+002 4.300000e+001 1.369305e+003
         vertex 1.705294e+002 4.300000e+001 1.355163e+003
         vertex 1.705294e+002 3.600000e+001 1.355163e+003
      endloop
   endfacet
   facet normal -7.071068e-001 6.525863e-014 7.071068e-001
      outer loop
         vertex 2.598723e+002 3.600000e+001 1.444506e+003
         vertex 2.598723e+002 4.300000e+001 1.444506e+003
         vertex 2.457302e+002 4.300000e+001 1.430364e+003
      endloop
   endfacet
   facet normal -7.071068e-001 6.525863e-014 7.071068e-001
      outer loop
         vertex 2.457302e+002 2.130000e+002 1.430364e+003
         vertex 1.846715e+002 2.130000e+002 1.369305e+003
         vertex 2.457302e+002 4.300000e+001 1.430364e+003
      endloop
   endfacet
   facet normal -7.071068e-001 6.525863e-014 7.071068e-001
      outer loop
         vertex 2.457302e+002 4.300000e+001 1.430364e+003
         vertex 1.846715e+002 2.130000e+002 1.369305e+003
         vertex 1.846715e+002 4.300000e+001 1.369305e+003
      endloop
   endfacet
   facet normal -7.071068e-001 6.525863e-014 7.071068e-001
      outer loop
         vertex 2.457302e+002 4.300000e+001 1.430364e+003
         vertex 1.846715e+002 4.300000e+001 1.369305e+003
         vertex 2.598723e+002 3.600000e+001 1.444506e+003
      endloop
   endfacet
   facet normal -7.071068e-001 6.525863e-014 7.071068e-001
      outer loop
         vertex 2.598723e+002 3.600000e+001 1.444506e+003
         vertex 1.846715e+002 4.300000e+001 1.369305e+003
         vertex 1.705294e+002 3.600000e+001 1.355163e+003
      endloop
   endfacet
   facet normal -7.071068e-001 4.253538e-027 -7.071068e-001
      outer loop
         vertex 2.457302e+002 4.300000e+001 1.279962e+003
         vertex 2.598723e+002 4.300000e+001 1.265820e+003
         vertex 2.598723e+002 3.600000e+001 1.265820e+003
      endloop
   endfacet
   facet normal -7.071068e-001 4.253538e-027 -7.071068e-001
      outer loop
         vertex 1.705294e+002 3.600000e+001 1.355163e+003
         vertex 1.705294e+002 4.300000e+001 1.355163e+003
         vertex 1.846715e+002 4.300000e+001 1.341021e+003
      endloop
   endfacet
   facet normal -7.071068e-001 4.253538e-027 -7.071068e-001
      outer loop
         vertex 1.846715e+002 2.130000e+002 1.341021e+003
         vertex 2.457302e+002 2.130000e+002 1.279962e+003
         vertex 1.846715e+002 4.300000e+001 1.341021e+003
      endloop
   endfacet
   facet normal -7.071068e-001 4.253538e-027 -7.071068e-001
      outer loop
         vertex 1.846715e+002 4.300000e+001 1.341021e+003
         vertex 2.457302e+002 2.130000e+002 1.279962e+003
         vertex 2.457302e+002 4.300000e+001 1.279962e+003
      endloop
   endfacet
   facet normal -7.071068e-001 4.253538e-027 -7.071068e-001
      outer loop
         vertex 1.846715e+002 4.300000e+001 1.341021e+003
         vertex 2.457302e+002 4.300000e+001 1.279962e+003
         vertex 1.705294e+002 3.600000e+001 1.355163e+003
      endloop
   endfacet
   facet normal -7.071068e-001 4.253538e-027 -7.071068e-001
      outer loop
         vertex 1.705294e+002 3.600000e+001 1.355163e+003
         vertex 2.457302e+002 4.300000e+001 1.279962e+003
         vertex 2.598723e+002 3.600000e+001 1.265820e+003
      endloop
   endfacet
   facet normal 7.071068e-001 -6.525863e-014 -7.071068e-001
      outer loop
         vertex 3.492152e+002 3.600000e+001 1.355163e+003
         vertex 2.598723e+002 3.600000e+001 1.265820e+003
         vertex 2.740144e+002 4.300000e+001 1.279962e+003
      endloop
   endfacet
   facet normal 7.071068e-001 -6.525863e-014 -7.071068e-001
      outer loop
         vertex 2.740144e+002 4.300000e+001 1.279962e+003
         vertex 2.598723e+002 3.600000e+001 1.265820e+003
         vertex 2.598723e+002 4.300000e+001 1.265820e+003
      endloop
   endfacet
   facet normal 7.071068e-001 -6.525863e-014 -7.071068e-001
      outer loop
         vertex 3.492152e+002 4.300000e+001 1.355163e+003
         vertex 3.492152e+002 3.600000e+001 1.355163e+003
         vertex 3.350731e+002 4.300000e+001 1.341021e+003
      endloop
   endfacet
   facet normal 7.071068e-001 -6.525863e-014 -7.071068e-001
      outer loop
         vertex 3.350731e+002 4.300000e+001 1.341021e+003
         vertex 3.492152e+002 3.600000e+001 1.355163e+003
         vertex 2.740144e+002 4.300000e+001 1.279962e+003
      endloop
   endfacet
   facet normal 7.071068e-001 -6.525863e-014 -7.071068e-001
      outer loop
         vertex 3.350731e+002 4.300000e+001 1.341021e+003
         vertex 2.740144e+002 4.300000e+001 1.279962e+003
         vertex 3.350731e+002 2.130000e+002 1.341021e+003
      endloop
   endfacet
   facet normal 7.071068e-001 -6.525863e-014 -7.071068e-001
      outer loop
         vertex 3.350731e+002 2.130000e+002 1.341021e+003
         vertex 2.740144e+002 4.300000e+001 1.279962e+003
         vertex 2.740144e+002 2.130000e+002 1.279962e+003
      endloop
   endfacet
   facet normal 0.000000e+000 -1.000000e+000 0.000000e+000
      outer loop
         vertex 3.492152e+002 3.600000e+001 1.355163e+003
         vertex 2.598723e+002 3.600000e+001 1.444506e+003
         vertex 2.598723e+002 3.600000e+001 1.265820e+003
      endloop
   endfacet
   facet normal 0.000000e+000 -1.000000e+000 0.000000e+000
      outer loop
         vertex 2.598723e+002 3.600000e+001 1.265820e+003
         vertex 2.598723e+002 3.600000e+001 1.444506e+003
         vertex 1.705294e+002 3.600000e+001 1.355163e+003
      endloop
   endfacet
   facet normal -1.000000e+000 1.224606e-016 0.000000e+000
      outer loop
         vertex 1.030000e+002 2.037815e+001 1.448827e+003
         vertex 1.030000e+002 3.637815e+001 1.448827e+003
         vertex 1.030000e+002 3.637815e+001 1.432827e+003
      endloop
   endfacet
   facet normal -1.000000e+000 1.224606e-016 0.000000e+000
      outer loop
         vertex 1.030000e+002 -3.612185e+001 1.432827e+003
         vertex 1.030000e+002 -3.612185e+001 1.448827e+003
         vertex 1.030000e+002 -2.012185e+001 1.448827e+003
      endloop
   endfacet
   facet normal -8.659275e-017 -7.071068e-001 7.071068e-001
      outer loop
         vertex -8.870000e+001 -3.612185e+001 1.432827e+003
         vertex 1.030000e+002 -3.612185e+001 1.432827e+003
         vertex -8.870000e+001 -2.012185e+001 1.448827e+003
      endloop
   endfacet
   facet normal -8.659275e-017 -7.071068e-001 7.071068e-001
      outer loop
         vertex -8.870000e+001 -2.012185e+001 1.448827e+003
         vertex 1.030000e+002 -3.612185e+001 1.432827e+003
         vertex 1.030000e+002 -2.012185e+001 1.448827e+003
      endloop
   endfacet
   facet normal -7.498304e-033 -6.123032e-017 1.000000e+000
      outer loop
         vertex 1.030000e+002 -2.012185e+001 1.448827e+003
         vertex 1.030000e+002 -3.612185e+001 1.448827e+003
         vertex 1.080000e+002 -3.612185e+001 1.448827e+003
      endloop
   endfacet
   facet normal -7.498304e-033 -6.123032e-017 1.000000e+000
      outer loop
         vertex 1.080000e+002 3.637815e+001 1.448827e+003
         vertex 1.030000e+002 3.637815e+001 1.448827e+003
         vertex 1.030000e+002 2.037815e+001 1.448827e+003
      endloop
   endfacet
   facet normal -7.498304e-033 -6.123032e-017 1.000000e+000
      outer loop
         vertex -8.870000e+001 2.037815e+001 1.448827e+003
         vertex -8.870000e+001 -2.012185e+001 1.448827e+003
         vertex 1.030000e+002 2.037815e+001 1.448827e+003
      endloop
   endfacet
   facet normal -7.498304e-033 -6.123032e-017 1.000000e+000
      outer loop
         vertex 1.030000e+002 2.037815e+001 1.448827e+003
         vertex -8.870000e+001 -2.012185e+001 1.448827e+003
         vertex 1.030000e+002 -2.012185e+001 1.448827e+003
      endloop
   endfacet
   facet normal -7.498304e-033 -6.123032e-017 1.000000e+000
      outer loop
         vertex 1.030000e+002 2.037815e+001 1.448827e+003
         vertex 1.030000e+002 -2.012185e+001 1.448827e+003
         vertex 1.080000e+002 3.637815e+001 1.448827e+003
      endloop
   endfacet
   facet normal -7.498304e-033 -6.123032e-017 1.000000e+000
      outer loop
         vertex 1.080000e+002 3.637815e+001 1.448827e+003
         vertex 1.030000e+002 -2.012185e+001 1.448827e+003
         vertex 1.080000e+002 -3.612185e+001 1.448827e+003
      endloop
   endfacet
   facet normal 8.659275e-017 7.071068e-001 7.071068e-001
      outer loop
         vertex -8.870000e+001 2.037815e+001 1.448827e+003
         vertex 1.030000e+002 2.037815e+001 1.448827e+003
         vertex -8.870000e+001 3.637815e+001 1.432827e+003
      endloop
   endfacet
   facet normal 8.659275e-017 7.071068e-001 7.071068e-001
      outer loop
         vertex -8.870000e+001 3.637815e+001 1.432827e+003
         vertex 1.030000e+002 2.037815e+001 1.448827e+003
         vertex 1.030000e+002 3.637815e+001 1.432827e+003
      endloop
   endfacet
   facet normal 1.224606e-016 1.000000e+000 6.123032e-017
      outer loop
         vertex 1.030000e+002 3.637815e+001 1.432827e+003
         vertex 1.030000e+002 3.637815e+001 1.448827e+003
         vertex 1.080000e+002 3.637815e+001 1.448827e+003
      endloop
   endfacet
   facet normal 1.224606e-016 1.000000e+000 6.123032e-017
      outer loop
         vertex 1.080000e+002 3.637815e+001 1.376327e+003
         vertex 1.030000e+002 3.637815e+001 1.376327e+003
         vertex 1.030000e+002 3.637815e+001 1.392327e+003
      endloop
   endfacet
   facet normal 1.224606e-016 1.000000e+000 6.123032e-017
      outer loop
         vertex -8.870000e+001 3.637815e+001 1.392327e+003
         vertex -8.870000e+001 3.637815e+001 1.432827e+003
         vertex 1.030000e+002 3.637815e+001 1.392327e+003
      endloop
   endfacet
   facet normal 1.224606e-016 1.000000e+000 6.123032e-017
      outer loop
         vertex 1.030000e+002 3.637815e+001 1.392327e+003
         vertex -8.870000e+001 3.637815e+001 1.432827e+003
         vertex 1.030000e+002 3.637815e+001 1.432827e+003
      endloop
   endfacet
   facet normal 1.224606e-016 1.000000e+000 6.123032e-017
      outer loop
         vertex 1.030000e+002 3.637815e+001 1.392327e+003
         vertex 1.030000e+002 3.637815e+001 1.432827e+003
         vertex 1.080000e+002 3.637815e+001 1.376327e+003
      endloop
   endfacet
   facet normal 1.224606e-016 1.000000e+000 6.123032e-017
      outer loop
         vertex 1.080000e+002 3.637815e+001 1.376327e+003
         vertex 1.030000e+002 3.637815e+001 1.432827e+003
         vertex 1.080000e+002 3.637815e+001 1.448827e+003
      endloop
   endfacet
   facet normal 1.000000e+000 0.000000e+000 0.000000e+000
      outer loop
         vertex 1.080000e+002 3.637815e+001 1.448827e+003
         vertex 1.080000e+002 -3.612185e+001 1.448827e+003
         vertex 1.080000e+002 3.637815e+001 1.376327e+003
      endloop
   endfacet
   facet normal 1.000000e+000 0.000000e+000 0.000000e+000
      outer loop
         vertex 1.080000e+002 3.637815e+001 1.376327e+003
         vertex 1.080000e+002 -3.612185e+001 1.448827e+003
         vertex 1.080000e+002 -3.612185e+001 1.376327e+003
      endloop
   endfacet
   facet normal -1.224606e-016 -1.000000e+000 -6.123032e-017
      outer loop
         vertex 1.030000e+002 -3.612185e+001 1.392327e+003
         vertex 1.030000e+002 -3.612185e+001 1.376327e+003
         vertex 1.080000e+002 -3.612185e+001 1.376327e+003
      endloop
   endfacet
   facet normal -1.224606e-016 -1.000000e+000 -6.123032e-017
      outer loop
         vertex 1.080000e+002 -3.612185e+001 1.448827e+003
         vertex 1.030000e+002 -3.612185e+001 1.448827e+003
         vertex 1.030000e+002 -3.612185e+001 1.432827e+003
      endloop
   endfacet
   facet normal -1.224606e-016 -1.000000e+000 -6.123032e-017
      outer loop
         vertex -8.870000e+001 -3.612185e+001 1.432827e+003
         vertex -8.870000e+001 -3.612185e+001 1.392327e+003
         vertex 1.030000e+002 -3.612185e+001 1.432827e+003
      endloop
   endfacet
   facet normal -1.224606e-016 -1.000000e+000 -6.123032e-017
      outer loop
         vertex 1.030000e+002 -3.612185e+001 1.432827e+003
         vertex -8.870000e+001 -3.612185e+001 1.392327e+003
         vertex 1.030000e+002 -3.612185e+001 1.392327e+003
      endloop
   endfacet
   facet normal -1.224606e-016 -1.000000e+000 -6.123032e-017
      outer loop
         vertex 1.030000e+002 -3.612185e+001 1.432827e+003
         vertex 1.030000e+002 -3.612185e+001 1.392327e+003
         vertex 1.080000e+002 -3.612185e+001 1.448827e+003
      endloop
   endfacet
   facet normal -1.224606e-016 -1.000000e+000 -6.123032e-017
      outer loop
         vertex 1.080000e+002 -3.612185e+001 1.448827e+003
         vertex 1.030000e+002 -3.612185e+001 1.392327e+003
         vertex 1.080000e+002 -3.612185e+001 1.376327e+003
      endloop
   endfacet
   facet normal -1.000000e+000 1.224606e-016 0.000000e+000
      outer loop
         vertex 1.030000e+002 -2.012185e+001 1.376327e+003
         vertex 1.030000e+002 -3.612185e+001 1.376327e+003
         vertex 1.030000e+002 -3.612185e+001 1.392327e+003
      endloop
   endfacet
   facet normal -8.659275e-017 -7.071068e-001 -7.071068e-001
      outer loop
         vertex -8.870000e+001 -2.012185e+001 1.376327e+003
         vertex 1.030000e+002 -2.012185e+001 1.376327e+003
         vertex -8.870000e+001 -3.612185e+001 1.392327e+003
      endloop
   endfacet
   facet normal -8.659275e-017 -7.071068e-001 -7.071068e-001
      outer loop
         vertex -8.870000e+001 -3.612185e+001 1.392327e+003
         vertex 1.030000e+002 -2.012185e+001 1.376327e+003
         vertex 1.030000e+002 -3.612185e+001 1.392327e+003
      endloop
   endfacet
   facet normal -1.000000e+000 1.224606e-016 0.000000e+000
      outer loop
         vertex -8.870000e+001 -2.012185e+001 1.448827e+003
         vertex -8.870000e+001 2.037815e+001 1.448827e+003
         vertex -8.870000e+001 -3.612185e+001 1.432827e+003
      endloop
   endfacet
   facet normal -1.000000e+000 1.224606e-016 0.000000e+000
      outer loop
         vertex -8.870000e+001 -3.612185e+001 1.432827e+003
         vertex -8.870000e+001 2.037815e+001 1.448827e+003
         vertex -8.870000e+001 3.637815e+001 1.432827e+003
      endloop
   endfacet
   facet normal -1.000000e+000 1.224606e-016 0.000000e+000
      outer loop
         vertex -8.870000e+001 -3.612185e+001 1.432827e+003
         vertex -8.870000e+001 3.637815e+001 1.432827e+003
         vertex -8.870000e+001 3.637815e+001 1.392327e+003
      endloop
   endfacet
   facet normal -1.000000e+000 1.224606e-016 0.000000e+000
      outer loop
         vertex -8.870000e+001 3.637815e+001 1.392327e+003
         vertex -8.870000e+001 2.037815e+001 1.376327e+003
         vertex -8.870000e+001 -3.612185e+001 1.432827e+003
      endloop
   endfacet
   facet normal -1.000000e+000 1.224606e-016 0.000000e+000
      outer loop
         vertex -8.870000e+001 -3.612185e+001 1.432827e+003
         vertex -8.870000e+001 2.037815e+001 1.376327e+003
         vertex -8.870000e+001 -2.012185e+001 1.376327e+003
      endloop
   endfacet
   facet normal -1.000000e+000 1.224606e-016 0.000000e+000
      outer loop
         vertex -8.870000e+001 -3.612185e+001 1.432827e+003
         vertex -8.870000e+001 -2.012185e+001 1.376327e+003
         vertex -8.870000e+001 -3.612185e+001 1.392327e+003
      endloop
   endfacet
   facet normal 8.659275e-017 7.071068e-001 -7.071068e-001
      outer loop
         vertex -8.870000e+001 3.637815e+001 1.392327e+003
         vertex 1.030000e+002 3.637815e+001 1.392327e+003
         vertex -8.870000e+001 2.037815e+001 1.376327e+003
      endloop
   endfacet
   facet normal 8.659275e-017 7.071068e-001 -7.071068e-001
      outer loop
         vertex -8.870000e+001 2.037815e+001 1.376327e+003
         vertex 1.030000e+002 3.637815e+001 1.392327e+003
         vertex 1.030000e+002 2.037815e+001 1.376327e+003
      endloop
   endfacet
   facet normal -1.000000e+000 1.224606e-016 0.000000e+000
      outer loop
         vertex 1.030000e+002 3.637815e+001 1.392327e+003
         vertex 1.030000e+002 3.637815e+001 1.376327e+003
         vertex 1.030000e+002 2.037815e+001 1.376327e+003
      endloop
   endfacet
   facet normal 7.498304e-033 6.123032e-017 -1.000000e+000
      outer loop
         vertex 1.030000e+002 2.037815e+001 1.376327e+003
         vertex 1.030000e+002 3.637815e+001 1.376327e+003
         vertex 1.080000e+002 3.637815e+001 1.376327e+003
      endloop
   endfacet
   facet normal 7.498304e-033 6.123032e-017 -1.000000e+000
      outer loop
         vertex 1.080000e+002 -3.612185e+001 1.376327e+003
         vertex 1.030000e+002 -3.612185e+001 1.376327e+003
         vertex 1.030000e+002 -2.012185e+001 1.376327e+003
      endloop
   endfacet
   facet normal 7.498304e-033 6.123032e-017 -1.000000e+000
      outer loop
         vertex -8.870000e+001 -2.012185e+001 1.376327e+003
         vertex -8.870000e+001 2.037815e+001 1.376327e+003
         vertex 1.030000e+002 -2.012185e+001 1.376327e+003
      endloop
   endfacet
   facet normal 7.498304e-033 6.123032e-017 -1.000000e+000
      outer loop
         vertex 1.030000e+002 -2.012185e+001 1.376327e+003
         vertex -8.870000e+001 2.037815e+001 1.376327e+003
         vertex 1.030000e+002 2.037815e+001 1.376327e+003
      endloop
   endfacet
   facet normal 7.498304e-033 6.123032e-017 -1.000000e+000
      outer loop
         vertex 1.030000e+002 -2.012185e+001 1.376327e+003
         vertex 1.030000e+002 2.037815e+001 1.376327e+003
         vertex 1.080000e+002 -3.612185e+001 1.376327e+003
      endloop
   endfacet
   facet normal 7.498304e-033 6.123032e-017 -1.000000e+000
      outer loop
         vertex 1.080000e+002 -3.612185e+001 1.376327e+003
         vertex 1.030000e+002 2.037815e+001 1.376327e+003
         vertex 1.080000e+002 3.637815e+001 1.376327e+003
      endloop
   endfacet
   facet normal -1.000000e+000 1.224606e-016 0.000000e+000
      outer loop
         vertex 9.550000e+001 3.625000e+001 1.299749e+003
         vertex 9.550000e+001 3.625000e+001 1.283749e+003
         vertex 9.550000e+001 2.025000e+001 1.283749e+003
      endloop
   endfacet
   facet normal -1.000000e+000 1.224606e-016 0.000000e+000
      outer loop
         vertex 9.550000e+001 2.025000e+001 1.356249e+003
         vertex 9.550000e+001 3.625000e+001 1.356249e+003
         vertex 9.550000e+001 3.625000e+001 1.340249e+003
      endloop
   endfacet
   facet normal 1.224606e-016 1.000000e+000 6.123032e-017
      outer loop
         vertex 9.550000e+001 3.625000e+001 1.340249e+003
         vertex 9.550000e+001 3.625000e+001 1.356249e+003
         vertex 1.005000e+002 3.625000e+001 1.356249e+003
      endloop
   endfacet
   facet normal 1.224606e-016 1.000000e+000 6.123032e-017
      outer loop
         vertex 1.005000e+002 3.625000e+001 1.283749e+003
         vertex 9.550000e+001 3.625000e+001 1.283749e+003
         vertex 9.550000e+001 3.625000e+001 1.299749e+003
      endloop
   endfacet
   facet normal 1.224606e-016 1.000000e+000 6.123032e-017
      outer loop
         vertex -9.620000e+001 3.625000e+001 1.299749e+003
         vertex -9.620000e+001 3.625000e+001 1.340249e+003
         vertex 9.550000e+001 3.625000e+001 1.299749e+003
      endloop
   endfacet
   facet normal 1.224606e-016 1.000000e+000 6.123032e-017
      outer loop
         vertex 9.550000e+001 3.625000e+001 1.299749e+003
         vertex -9.620000e+001 3.625000e+001 1.340249e+003
         vertex 9.550000e+001 3.625000e+001 1.340249e+003
      endloop
   endfacet
   facet normal 1.224606e-016 1.000000e+000 6.123032e-017
      outer loop
         vertex 9.550000e+001 3.625000e+001 1.299749e+003
         vertex 9.550000e+001 3.625000e+001 1.340249e+003
         vertex 1.005000e+002 3.625000e+001 1.283749e+003
      endloop
   endfacet
   facet normal 1.224606e-016 1.000000e+000 6.123032e-017
      outer loop
         vertex 1.005000e+002 3.625000e+001 1.283749e+003
         vertex 9.550000e+001 3.625000e+001 1.340249e+003
         vertex 1.005000e+002 3.625000e+001 1.356249e+003
      endloop
   endfacet
   facet normal 8.659275e-017 7.071068e-001 -7.071068e-001
      outer loop
         vertex -9.620000e+001 3.625000e+001 1.299749e+003
         vertex 9.550000e+001 3.625000e+001 1.299749e+003
         vertex -9.620000e+001 2.025000e+001 1.283749e+003
      endloop
   endfacet
   facet normal 8.659275e-017 7.071068e-001 -7.071068e-001
      outer loop
         vertex -9.620000e+001 2.025000e+001 1.283749e+003
         vertex 9.550000e+001 3.625000e+001 1.299749e+003
         vertex 9.550000e+001 2.025000e+001 1.283749e+003
      endloop
   endfacet
   facet normal 8.659275e-017 7.071068e-001 7.071068e-001
      outer loop
         vertex -9.620000e+001 2.025000e+001 1.356249e+003
         vertex 9.550000e+001 2.025000e+001 1.356249e+003
         vertex -9.620000e+001 3.625000e+001 1.340249e+003
      endloop
   endfacet
   facet normal 8.659275e-017 7.071068e-001 7.071068e-001
      outer loop
         vertex -9.620000e+001 3.625000e+001 1.340249e+003
         vertex 9.550000e+001 2.025000e+001 1.356249e+003
         vertex 9.550000e+001 3.625000e+001 1.340249e+003
      endloop
   endfacet
   facet normal 7.498304e-033 6.123032e-017 -1.000000e+000
      outer loop
         vertex 9.550000e+001 2.025000e+001 1.283749e+003
         vertex 9.550000e+001 3.625000e+001 1.283749e+003
         vertex 1.005000e+002 3.625000e+001 1.283749e+003
      endloop
   endfacet
   facet normal 7.498304e-033 6.123032e-017 -1.000000e+000
      outer loop
         vertex 1.005000e+002 -3.625000e+001 1.283749e+003
         vertex 9.550000e+001 -3.625000e+001 1.283749e+003
         vertex 9.550000e+001 -2.025000e+001 1.283749e+003
      endloop
   endfacet
   facet normal 7.498304e-033 6.123032e-017 -1.000000e+000
      outer loop
         vertex -9.620000e+001 -2.025000e+001 1.283749e+003
         vertex -9.620000e+001 2.025000e+001 1.283749e+003
         vertex 9.550000e+001 -2.025000e+001 1.283749e+003
      endloop
   endfacet
   facet normal 7.498304e-033 6.123032e-017 -1.000000e+000
      outer loop
         vertex 9.550000e+001 -2.025000e+001 1.283749e+003
         vertex -9.620000e+001 2.025000e+001 1.283749e+003
         vertex 9.550000e+001 2.025000e+001 1.283749e+003
      endloop
   endfacet
   facet normal 7.498304e-033 6.123032e-017 -1.000000e+000
      outer loop
         vertex 9.550000e+001 -2.025000e+001 1.283749e+003
         vertex 9.550000e+001 2.025000e+001 1.283749e+003
         vertex 1.005000e+002 -3.625000e+001 1.283749e+003
      endloop
   endfacet
   facet normal 7.498304e-033 6.123032e-017 -1.000000e+000
      outer loop
         vertex 1.005000e+002 -3.625000e+001 1.283749e+003
         vertex 9.550000e+001 2.025000e+001 1.283749e+003
         vertex 1.005000e+002 3.625000e+001 1.283749e+003
      endloop
   endfacet
   facet normal 1.000000e+000 0.000000e+000 0.000000e+000
      outer loop
         vertex 1.005000e+002 3.625000e+001 1.356249e+003
         vertex 1.005000e+002 -3.625000e+001 1.356249e+003
         vertex 1.005000e+002 3.625000e+001 1.283749e+003
      endloop
   endfacet
   facet normal 1.000000e+000 0.000000e+000 0.000000e+000
      outer loop
         vertex 1.005000e+002 3.625000e+001 1.283749e+003
         vertex 1.005000e+002 -3.625000e+001 1.356249e+003
         vertex 1.005000e+002 -3.625000e+001 1.283749e+003
      endloop
   endfacet
   facet normal -7.498304e-033 -6.123032e-017 1.000000e+000
      outer loop
         vertex 9.550000e+001 -2.025000e+001 1.356249e+003
         vertex 9.550000e+001 -3.625000e+001 1.356249e+003
         vertex 1.005000e+002 -3.625000e+001 1.356249e+003
      endloop
   endfacet
   facet normal -7.498304e-033 -6.123032e-017 1.000000e+000
      outer loop
         vertex 1.005000e+002 3.625000e+001 1.356249e+003
         vertex 9.550000e+001 3.625000e+001 1.356249e+003
         vertex 9.550000e+001 2.025000e+001 1.356249e+003
      endloop
   endfacet
   facet normal -7.498304e-033 -6.123032e-017 1.000000e+000
      outer loop
         vertex -9.620000e+001 2.025000e+001 1.356249e+003
         vertex -9.620000e+001 -2.025000e+001 1.356249e+003
         vertex 9.550000e+001 2.025000e+001 1.356249e+003
      endloop
   endfacet
   facet normal -7.498304e-033 -6.123032e-017 1.000000e+000
      outer loop
         vertex 9.550000e+001 2.025000e+001 1.356249e+003
         vertex -9.620000e+001 -2.025000e+001 1.356249e+003
         vertex 9.550000e+001 -2.025000e+001 1.356249e+003
      endloop
   endfacet
   facet normal -7.498304e-033 -6.123032e-017 1.000000e+000
      outer loop
         vertex 9.550000e+001 2.025000e+001 1.356249e+003
         vertex 9.550000e+001 -2.025000e+001 1.356249e+003
         vertex 1.005000e+002 3.625000e+001 1.356249e+003
      endloop
   endfacet
   facet normal -7.498304e-033 -6.123032e-017 1.000000e+000
      outer loop
         vertex 1.005000e+002 3.625000e+001 1.356249e+003
         vertex 9.550000e+001 -2.025000e+001 1.356249e+003
         vertex 1.005000e+002 -3.625000e+001 1.356249e+003
      endloop
   endfacet
   facet normal -1.000000e+000 1.224606e-016 0.000000e+000
      outer loop
         vertex 9.550000e+001 -3.625000e+001 1.340249e+003
         vertex 9.550000e+001 -3.625000e+001 1.356249e+003
         vertex 9.550000e+001 -2.025000e+001 1.356249e+003
      endloop
   endfacet
   facet normal -8.659275e-017 -7.071068e-001 7.071068e-001
      outer loop
         vertex -9.620000e+001 -3.625000e+001 1.340249e+003
         vertex 9.550000e+001 -3.625000e+001 1.340249e+003
         vertex -9.620000e+001 -2.025000e+001 1.356249e+003
      endloop
   endfacet
   facet normal -8.659275e-017 -7.071068e-001 7.071068e-001
      outer loop
         vertex -9.620000e+001 -2.025000e+001 1.356249e+003
         vertex 9.550000e+001 -3.625000e+001 1.340249e+003
         vertex 9.550000e+001 -2.025000e+001 1.356249e+003
      endloop
   endfacet
   facet normal -1.000000e+000 1.224606e-016 0.000000e+000
      outer loop
         vertex -9.620000e+001 3.625000e+001 1.299749e+003
         vertex -9.620000e+001 2.025000e+001 1.283749e+003
         vertex -9.620000e+001 3.625000e+001 1.340249e+003
      endloop
   endfacet
   facet normal -1.000000e+000 1.224606e-016 0.000000e+000
      outer loop
         vertex -9.620000e+001 3.625000e+001 1.340249e+003
         vertex -9.620000e+001 2.025000e+001 1.283749e+003
         vertex -9.620000e+001 -2.025000e+001 1.283749e+003
      endloop
   endfacet
   facet normal -1.000000e+000 1.224606e-016 0.000000e+000
      outer loop
         vertex -9.620000e+001 3.625000e+001 1.340249e+003
         vertex -9.620000e+001 -2.025000e+001 1.283749e+003
         vertex -9.620000e+001 2.025000e+001 1.356249e+003
      endloop
   endfacet
   facet normal -1.000000e+000 1.224606e-016 0.000000e+000
      outer loop
         vertex -9.620000e+001 -3.625000e+001 1.299749e+003
         vertex -9.620000e+001 -3.625000e+001 1.340249e+003
         vertex -9.620000e+001 -2.025000e+001 1.283749e+003
      endloop
   endfacet
   facet normal -1.000000e+000 1.224606e-016 0.000000e+000
      outer loop
         vertex -9.620000e+001 -2.025000e+001 1.283749e+003
         vertex -9.620000e+001 -3.625000e+001 1.340249e+003
         vertex -9.620000e+001 -2.025000e+001 1.356249e+003
      endloop
   endfacet
   facet normal -1.000000e+000 1.224606e-016 0.000000e+000
      outer loop
         vertex -9.620000e+001 -2.025000e+001 1.283749e+003
         vertex -9.620000e+001 -2.025000e+001 1.356249e+003
         vertex -9.620000e+001 2.025000e+001 1.356249e+003
      endloop
   endfacet
   facet normal -8.659275e-017 -7.071068e-001 -7.071068e-001
      outer loop
         vertex -9.620000e+001 -2.025000e+001 1.283749e+003
         vertex 9.550000e+001 -2.025000e+001 1.283749e+003
         vertex -9.620000e+001 -3.625000e+001 1.299749e+003
      endloop
   endfacet
   facet normal -8.659275e-017 -7.071068e-001 -7.071068e-001
      outer loop
         vertex -9.620000e+001 -3.625000e+001 1.299749e+003
         vertex 9.550000e+001 -2.025000e+001 1.283749e+003
         vertex 9.550000e+001 -3.625000e+001 1.299749e+003
      endloop
   endfacet
   facet normal -1.000000e+000 1.224606e-016 0.000000e+000
      outer loop
         vertex 9.550000e+001 -2.025000e+001 1.283749e+003
         vertex 9.550000e+001 -3.625000e+001 1.283749e+003
         vertex 9.550000e+001 -3.625000e+001 1.299749e+003
      endloop
   endfacet
   facet normal -1.224606e-016 -1.000000e+000 -6.123032e-017
      outer loop
         vertex 9.550000e+001 -3.625000e+001 1.299749e+003
         vertex 9.550000e+001 -3.625000e+001 1.283749e+003
         vertex 1.005000e+002 -3.625000e+001 1.283749e+003
      endloop
   endfacet
   facet normal -1.224606e-016 -1.000000e+000 -6.123032e-017
      outer loop
         vertex 1.005000e+002 -3.625000e+001 1.356249e+003
         vertex 9.550000e+001 -3.625000e+001 1.356249e+003
         vertex 9.550000e+001 -3.625000e+001 1.340249e+003
      endloop
   endfacet
   facet normal -1.224606e-016 -1.000000e+000 -6.123032e-017
      outer loop
         vertex -9.620000e+001 -3.625000e+001 1.340249e+003
         vertex -9.620000e+001 -3.625000e+001 1.299749e+003
         vertex 9.550000e+001 -3.625000e+001 1.340249e+003
      endloop
   endfacet
   facet normal -1.224606e-016 -1.000000e+000 -6.123032e-017
      outer loop
         vertex 9.550000e+001 -3.625000e+001 1.340249e+003
         vertex -9.620000e+001 -3.625000e+001 1.299749e+003
         vertex 9.550000e+001 -3.625000e+001 1.299749e+003
      endloop
   endfacet
   facet normal -1.224606e-016 -1.000000e+000 -6.123032e-017
      outer loop
         vertex 9.550000e+001 -3.625000e+001 1.340249e+003
         vertex 9.550000e+001 -3.625000e+001 1.299749e+003
         vertex 1.005000e+002 -3.625000e+001 1.356249e+003
      endloop
   endfacet
   facet normal -1.224606e-016 -1.000000e+000 -6.123032e-017
      outer loop
         vertex 1.005000e+002 -3.625000e+001 1.356249e+003
         vertex 9.550000e+001 -3.625000e+001 1.299749e+003
         vertex 1.005000e+002 -3.625000e+001 1.283749e+003
      endloop
   endfacet
   facet normal -1.000000e+000 1.224606e-016 0.000000e+000
      outer loop
         vertex 1.220000e+002 -2.025000e+001 1.191299e+003
         vertex 1.220000e+002 -3.625000e+001 1.191299e+003
         vertex 1.220000e+002 -3.625000e+001 1.207299e+003
      endloop
   endfacet
   facet normal -1.000000e+000 1.224606e-016 0.000000e+000
      outer loop
         vertex 1.220000e+002 3.625000e+001 1.207299e+003
         vertex 1.220000e+002 3.625000e+001 1.191299e+003
         vertex 1.220000e+002 2.025000e+001 1.191299e+003
      endloop
   endfacet
   facet normal 8.659275e-017 7.071068e-001 -7.071068e-001
      outer loop
         vertex -6.970000e+001 3.625000e+001 1.207299e+003
         vertex 1.220000e+002 3.625000e+001 1.207299e+003
         vertex -6.970000e+001 2.025000e+001 1.191299e+003
      endloop
   endfacet
   facet normal 8.659275e-017 7.071068e-001 -7.071068e-001
      outer loop
         vertex -6.970000e+001 2.025000e+001 1.191299e+003
         vertex 1.220000e+002 3.625000e+001 1.207299e+003
         vertex 1.220000e+002 2.025000e+001 1.191299e+003
      endloop
   endfacet
   facet normal 7.498304e-033 6.123032e-017 -1.000000e+000
      outer loop
         vertex 1.220000e+002 2.025000e+001 1.191299e+003
         vertex 1.220000e+002 3.625000e+001 1.191299e+003
         vertex 1.270000e+002 3.625000e+001 1.191299e+003
      endloop
   endfacet
   facet normal 7.498304e-033 6.123032e-017 -1.000000e+000
      outer loop
         vertex 1.270000e+002 -3.625000e+001 1.191299e+003
         vertex 1.220000e+002 -3.625000e+001 1.191299e+003
         vertex 1.220000e+002 -2.025000e+001 1.191299e+003
      endloop
   endfacet
   facet normal 7.498304e-033 6.123032e-017 -1.000000e+000
      outer loop
         vertex -6.970000e+001 -2.025000e+001 1.191299e+003
         vertex -6.970000e+001 2.025000e+001 1.191299e+003
         vertex 1.220000e+002 -2.025000e+001 1.191299e+003
      endloop
   endfacet
   facet normal 7.498304e-033 6.123032e-017 -1.000000e+000
      outer loop
         vertex 1.220000e+002 -2.025000e+001 1.191299e+003
         vertex -6.970000e+001 2.025000e+001 1.191299e+003
         vertex 1.220000e+002 2.025000e+001 1.191299e+003
      endloop
   endfacet
   facet normal 7.498304e-033 6.123032e-017 -1.000000e+000
      outer loop
         vertex 1.220000e+002 -2.025000e+001 1.191299e+003
         vertex 1.220000e+002 2.025000e+001 1.191299e+003
         vertex 1.270000e+002 -3.625000e+001 1.191299e+003
      endloop
   endfacet
   facet normal 7.498304e-033 6.123032e-017 -1.000000e+000
      outer loop
         vertex 1.270000e+002 -3.625000e+001 1.191299e+003
         vertex 1.220000e+002 2.025000e+001 1.191299e+003
         vertex 1.270000e+002 3.625000e+001 1.191299e+003
      endloop
   endfacet
   facet normal -8.659275e-017 -7.071068e-001 -7.071068e-001
      outer loop
         vertex -6.970000e+001 -2.025000e+001 1.191299e+003
         vertex 1.220000e+002 -2.025000e+001 1.191299e+003
         vertex -6.970000e+001 -3.625000e+001 1.207299e+003
      endloop
   endfacet
   facet normal -8.659275e-017 -7.071068e-001 -7.071068e-001
      outer loop
         vertex -6.970000e+001 -3.625000e+001 1.207299e+003
         vertex 1.220000e+002 -2.025000e+001 1.191299e+003
         vertex 1.220000e+002 -3.625000e+001 1.207299e+003
      endloop
   endfacet
   facet normal -1.224606e-016 -1.000000e+000 -6.123032e-017
      outer loop
         vertex 1.220000e+002 -3.625000e+001 1.207299e+003
         vertex 1.220000e+002 -3.625000e+001 1.191299e+003
         vertex 1.270000e+002 -3.625000e+001 1.191299e+003
      endloop
   endfacet
   facet normal -1.224606e-016 -1.000000e+000 -6.123032e-017
      outer loop
         vertex 1.270000e+002 -3.625000e+001 1.263799e+003
         vertex 1.220000e+002 -3.625000e+001 1.263799e+003
         vertex 1.220000e+002 -3.625000e+001 1.247799e+003
      endloop
   endfacet
   facet normal -1.224606e-016 -1.000000e+000 -6.123032e-017
      outer loop
         vertex -6.970000e+001 -3.625000e+001 1.247799e+003
         vertex -6.970000e+001 -3.625000e+001 1.207299e+003
         vertex 1.220000e+002 -3.625000e+001 1.247799e+003
      endloop
   endfacet
   facet normal -1.224606e-016 -1.000000e+000 -6.123032e-017
      outer loop
         vertex 1.220000e+002 -3.625000e+001 1.247799e+003
         vertex -6.970000e+001 -3.625000e+001 1.207299e+003
         vertex 1.220000e+002 -3.625000e+001 1.207299e+003
      endloop
   endfacet
   facet normal -1.224606e-016 -1.000000e+000 -6.123032e-017
      outer loop
         vertex 1.220000e+002 -3.625000e+001 1.247799e+003
         vertex 1.220000e+002 -3.625000e+001 1.207299e+003
         vertex 1.270000e+002 -3.625000e+001 1.263799e+003
      endloop
   endfacet
   facet normal -1.224606e-016 -1.000000e+000 -6.123032e-017
      outer loop
         vertex 1.270000e+002 -3.625000e+001 1.263799e+003
         vertex 1.220000e+002 -3.625000e+001 1.207299e+003
         vertex 1.270000e+002 -3.625000e+001 1.191299e+003
      endloop
   endfacet
   facet normal 1.000000e+000 0.000000e+000 0.000000e+000
      outer loop
         vertex 1.270000e+002 3.625000e+001 1.263799e+003
         vertex 1.270000e+002 -3.625000e+001 1.263799e+003
         vertex 1.270000e+002 3.625000e+001 1.191299e+003
      endloop
   endfacet
   facet normal 1.000000e+000 0.000000e+000 0.000000e+000
      outer loop
         vertex 1.270000e+002 3.625000e+001 1.191299e+003
         vertex 1.270000e+002 -3.625000e+001 1.263799e+003
         vertex 1.270000e+002 -3.625000e+001 1.191299e+003
      endloop
   endfacet
   facet normal 1.224606e-016 1.000000e+000 6.123032e-017
      outer loop
         vertex 1.220000e+002 3.625000e+001 1.247799e+003
         vertex 1.220000e+002 3.625000e+001 1.263799e+003
         vertex 1.270000e+002 3.625000e+001 1.263799e+003
      endloop
   endfacet
   facet normal 1.224606e-016 1.000000e+000 6.123032e-017
      outer loop
         vertex 1.270000e+002 3.625000e+001 1.191299e+003
         vertex 1.220000e+002 3.625000e+001 1.191299e+003
         vertex 1.220000e+002 3.625000e+001 1.207299e+003
      endloop
   endfacet
   facet normal 1.224606e-016 1.000000e+000 6.123032e-017
      outer loop
         vertex -6.970000e+001 3.625000e+001 1.207299e+003
         vertex -6.970000e+001 3.625000e+001 1.247799e+003
         vertex 1.220000e+002 3.625000e+001 1.207299e+003
      endloop
   endfacet
   facet normal 1.224606e-016 1.000000e+000 6.123032e-017
      outer loop
         vertex 1.220000e+002 3.625000e+001 1.207299e+003
         vertex -6.970000e+001 3.625000e+001 1.247799e+003
         vertex 1.220000e+002 3.625000e+001 1.247799e+003
      endloop
   endfacet
   facet normal 1.224606e-016 1.000000e+000 6.123032e-017
      outer loop
         vertex 1.220000e+002 3.625000e+001 1.207299e+003
         vertex 1.220000e+002 3.625000e+001 1.247799e+003
         vertex 1.270000e+002 3.625000e+001 1.191299e+003
      endloop
   endfacet
   facet normal 1.224606e-016 1.000000e+000 6.123032e-017
      outer loop
         vertex 1.270000e+002 3.625000e+001 1.191299e+003
         vertex 1.220000e+002 3.625000e+001 1.247799e+003
         vertex 1.270000e+002 3.625000e+001 1.263799e+003
      endloop
   endfacet
   facet normal -1.000000e+000 1.224606e-016 0.000000e+000
      outer loop
         vertex 1.220000e+002 2.025000e+001 1.263799e+003
         vertex 1.220000e+002 3.625000e+001 1.263799e+003
         vertex 1.220000e+002 3.625000e+001 1.247799e+003
      endloop
   endfacet
   facet normal 8.659275e-017 7.071068e-001 7.071068e-001
      outer loop
         vertex -6.970000e+001 2.025000e+001 1.263799e+003
         vertex 1.220000e+002 2.025000e+001 1.263799e+003
         vertex -6.970000e+001 3.625000e+001 1.247799e+003
      endloop
   endfacet
   facet normal 8.659275e-017 7.071068e-001 7.071068e-001
      outer loop
         vertex -6.970000e+001 3.625000e+001 1.247799e+003
         vertex 1.220000e+002 2.025000e+001 1.263799e+003
         vertex 1.220000e+002 3.625000e+001 1.247799e+003
      endloop
   endfacet
   facet normal -1.000000e+000 1.224606e-016 0.000000e+000
      outer loop
         vertex -6.970000e+001 3.625000e+001 1.207299e+003
         vertex -6.970000e+001 2.025000e+001 1.191299e+003
         vertex -6.970000e+001 -2.025000e+001 1.191299e+003
      endloop
   endfacet
   facet normal -1.000000e+000 1.224606e-016 0.000000e+000
      outer loop
         vertex -6.970000e+001 -3.625000e+001 1.247799e+003
         vertex -6.970000e+001 -2.025000e+001 1.263799e+003
         vertex -6.970000e+001 2.025000e+001 1.263799e+003
      endloop
   endfacet
   facet normal -1.000000e+000 1.224606e-016 0.000000e+000
      outer loop
         vertex -6.970000e+001 -2.025000e+001 1.191299e+003
         vertex -6.970000e+001 -3.625000e+001 1.207299e+003
         vertex -6.970000e+001 3.625000e+001 1.207299e+003
      endloop
   endfacet
   facet normal -1.000000e+000 1.224606e-016 0.000000e+000
      outer loop
         vertex -6.970000e+001 3.625000e+001 1.207299e+003
         vertex -6.970000e+001 -3.625000e+001 1.207299e+003
         vertex -6.970000e+001 -3.625000e+001 1.247799e+003
      endloop
   endfacet
   facet normal -1.000000e+000 1.224606e-016 0.000000e+000
      outer loop
         vertex -6.970000e+001 3.625000e+001 1.207299e+003
         vertex -6.970000e+001 -3.625000e+001 1.247799e+003
         vertex -6.970000e+001 3.625000e+001 1.247799e+003
      endloop
   endfacet
   facet normal -1.000000e+000 1.224606e-016 0.000000e+000
      outer loop
         vertex -6.970000e+001 3.625000e+001 1.247799e+003
         vertex -6.970000e+001 -3.625000e+001 1.247799e+003
         vertex -6.970000e+001 2.025000e+001 1.263799e+003
      endloop
   endfacet
   facet normal -8.659275e-017 -7.071068e-001 7.071068e-001
      outer loop
         vertex -6.970000e+001 -3.625000e+001 1.247799e+003
         vertex 1.220000e+002 -3.625000e+001 1.247799e+003
         vertex -6.970000e+001 -2.025000e+001 1.263799e+003
      endloop
   endfacet
   facet normal -8.659275e-017 -7.071068e-001 7.071068e-001
      outer loop
         vertex -6.970000e+001 -2.025000e+001 1.263799e+003
         vertex 1.220000e+002 -3.625000e+001 1.247799e+003
         vertex 1.220000e+002 -2.025000e+001 1.263799e+003
      endloop
   endfacet
   facet normal -1.000000e+000 1.224606e-016 0.000000e+000
      outer loop
         vertex 1.220000e+002 -3.625000e+001 1.247799e+003
         vertex 1.220000e+002 -3.625000e+001 1.263799e+003
         vertex 1.220000e+002 -2.025000e+001 1.263799e+003
      endloop
   endfacet
   facet normal -7.498304e-033 -6.123032e-017 1.000000e+000
      outer loop
         vertex 1.220000e+002 -2.025000e+001 1.263799e+003
         vertex 1.220000e+002 -3.625000e+001 1.263799e+003
         vertex 1.270000e+002 -3.625000e+001 1.263799e+003
      endloop
   endfacet
   facet normal -7.498304e-033 -6.123032e-017 1.000000e+000
      outer loop
         vertex 1.270000e+002 3.625000e+001 1.263799e+003
         vertex 1.220000e+002 3.625000e+001 1.263799e+003
         vertex 1.220000e+002 2.025000e+001 1.263799e+003
      endloop
   endfacet
   facet normal -7.498304e-033 -6.123032e-017 1.000000e+000
      outer loop
         vertex -6.970000e+001 2.025000e+001 1.263799e+003
         vertex -6.970000e+001 -2.025000e+001 1.263799e+003
         vertex 1.220000e+002 2.025000e+001 1.263799e+003
      endloop
   endfacet
   facet normal -7.498304e-033 -6.123032e-017 1.000000e+000
      outer loop
         vertex 1.220000e+002 2.025000e+001 1.263799e+003
         vertex -6.970000e+001 -2.025000e+001 1.263799e+003
         vertex 1.220000e+002 -2.025000e+001 1.263799e+003
      endloop
   endfacet
   facet normal -7.498304e-033 -6.123032e-017 1.000000e+000
      outer loop
         vertex 1.220000e+002 2.025000e+001 1.263799e+003
         vertex 1.220000e+002 -2.025000e+001 1.263799e+003
         vertex 1.270000e+002 3.625000e+001 1.263799e+003
      endloop
   endfacet
   facet normal -7.498304e-033 -6.123032e-017 1.000000e+000
      outer loop
         vertex 1.270000e+002 3.625000e+001 1.263799e+003
         vertex 1.220000e+002 -2.025000e+001 1.263799e+003
         vertex 1.270000e+002 -3.625000e+001 1.263799e+003
      endloop
   endfacet
endsolid