solid KR16_2_Link2_2_motor_д╛хо_sldprt
   facet normal 6.525862e-014 1.000000e+000 1.277606e-026
      outer loop
         vertex 3.376451e+002 6.399584e+001 6.376804e+002
         vertex 3.376451e+002 6.399584e+001 5.976804e+002
         vertex 2.976451e+002 6.399584e+001 5.976804e+002
      endloop
   endfacet
   facet normal 7.071068e-001 -4.614482e-014 -7.071068e-001
      outer loop
         vertex 3.376451e+002 2.494958e+002 6.376804e+002
         vertex 3.376451e+002 6.399584e+001 6.376804e+002
         vertex 2.976451e+002 2.494958e+002 5.976804e+002
      endloop
   endfacet
   facet normal 7.071068e-001 -4.614482e-014 -7.071068e-001
      outer loop
         vertex 2.976451e+002 2.494958e+002 5.976804e+002
         vertex 3.376451e+002 6.399584e+001 6.376804e+002
         vertex 2.976451e+002 6.399584e+001 5.976804e+002
      endloop
   endfacet
   facet normal 6.525862e-014 1.000000e+000 1.277606e-026
      outer loop
         vertex 2.976451e+002 6.399584e+001 7.526804e+002
         vertex 3.376451e+002 6.399584e+001 7.526804e+002
         vertex 3.376451e+002 6.399584e+001 7.126804e+002
      endloop
   endfacet
   facet normal 7.071068e-001 -4.614482e-014 7.071068e-001
      outer loop
         vertex 2.976451e+002 2.494958e+002 7.526804e+002
         vertex 2.976451e+002 6.399584e+001 7.526804e+002
         vertex 3.376451e+002 2.494958e+002 7.126804e+002
      endloop
   endfacet
   facet normal 7.071068e-001 -4.614482e-014 7.071068e-001
      outer loop
         vertex 3.376451e+002 2.494958e+002 7.126804e+002
         vertex 2.976451e+002 6.399584e+001 7.526804e+002
         vertex 3.376451e+002 6.399584e+001 7.126804e+002
      endloop
   endfacet
   facet normal -7.071068e-001 4.614482e-014 -7.071068e-001
      outer loop
         vertex 2.226451e+002 2.494958e+002 5.976804e+002
         vertex 2.226451e+002 6.399584e+001 5.976804e+002
         vertex 1.826452e+002 2.494958e+002 6.376804e+002
      endloop
   endfacet
   facet normal -7.071068e-001 4.614482e-014 -7.071068e-001
      outer loop
         vertex 1.826452e+002 2.494958e+002 6.376804e+002
         vertex 2.226451e+002 6.399584e+001 5.976804e+002
         vertex 1.826452e+002 6.399584e+001 6.376804e+002
      endloop
   endfacet
   facet normal 6.525862e-014 1.000000e+000 1.277606e-026
      outer loop
         vertex 2.226451e+002 6.399584e+001 5.976804e+002
         vertex 1.826452e+002 6.399584e+001 5.976804e+002
         vertex 1.826452e+002 6.399584e+001 6.376804e+002
      endloop
   endfacet
   facet normal 6.525862e-014 1.000000e+000 1.277606e-026
      outer loop
         vertex 1.826452e+002 6.399584e+001 7.126804e+002
         vertex 1.826452e+002 6.399584e+001 7.526804e+002
         vertex 2.226451e+002 6.399584e+001 7.526804e+002
      endloop
   endfacet
   facet normal -7.071068e-001 4.614482e-014 7.071068e-001
      outer loop
         vertex 1.826452e+002 2.494958e+002 7.126804e+002
         vertex 1.826452e+002 6.399584e+001 7.126804e+002
         vertex 2.226451e+002 2.494958e+002 7.526804e+002
      endloop
   endfacet
   facet normal -7.071068e-001 4.614482e-014 7.071068e-001
      outer loop
         vertex 2.226451e+002 2.494958e+002 7.526804e+002
         vertex 1.826452e+002 6.399584e+001 7.126804e+002
         vertex 2.226451e+002 6.399584e+001 7.526804e+002
      endloop
   endfacet
   facet normal 6.525862e-014 1.000000e+000 1.277606e-026
      outer loop
         vertex 1.826452e+002 2.494958e+002 6.376804e+002
         vertex 1.826452e+002 2.494958e+002 7.126804e+002
         vertex 2.226451e+002 2.494958e+002 7.526804e+002
      endloop
   endfacet
   facet normal 6.525862e-014 1.000000e+000 1.277606e-026
      outer loop
         vertex 2.976451e+002 2.494958e+002 5.976804e+002
         vertex 2.226451e+002 2.494958e+002 5.976804e+002
         vertex 3.376451e+002 2.494958e+002 6.376804e+002
      endloop
   endfacet
   facet normal 6.525862e-014 1.000000e+000 1.277606e-026
      outer loop
         vertex 3.376451e+002 2.494958e+002 6.376804e+002
         vertex 2.226451e+002 2.494958e+002 5.976804e+002
         vertex 1.826452e+002 2.494958e+002 6.376804e+002
      endloop
   endfacet
   facet normal 6.525862e-014 1.000000e+000 1.277606e-026
      outer loop
         vertex 3.376451e+002 2.494958e+002 6.376804e+002
         vertex 1.826452e+002 2.494958e+002 6.376804e+002
         vertex 3.376451e+002 2.494958e+002 7.126804e+002
      endloop
   endfacet
   facet normal 6.525862e-014 1.000000e+000 1.277606e-026
      outer loop
         vertex 3.376451e+002 2.494958e+002 7.126804e+002
         vertex 1.826452e+002 2.494958e+002 6.376804e+002
         vertex 2.226451e+002 2.494958e+002 7.526804e+002
      endloop
   endfacet
   facet normal 6.525862e-014 1.000000e+000 1.277606e-026
      outer loop
         vertex 3.376451e+002 2.494958e+002 7.126804e+002
         vertex 2.226451e+002 2.494958e+002 7.526804e+002
         vertex 2.976451e+002 2.494958e+002 7.526804e+002
      endloop
   endfacet
   facet normal 6.525862e-014 4.258688e-027 -1.000000e+000
      outer loop
         vertex 3.376451e+002 5.199584e+001 5.976804e+002
         vertex 1.826452e+002 5.199584e+001 5.976804e+002
         vertex 2.226451e+002 6.399584e+001 5.976804e+002
      endloop
   endfacet
   facet normal 6.525862e-014 4.258688e-027 -1.000000e+000
      outer loop
         vertex 2.226451e+002 6.399584e+001 5.976804e+002
         vertex 1.826452e+002 5.199584e+001 5.976804e+002
         vertex 1.826452e+002 6.399584e+001 5.976804e+002
      endloop
   endfacet
   facet normal 6.525862e-014 4.258688e-027 -1.000000e+000
      outer loop
         vertex 3.376451e+002 6.399584e+001 5.976804e+002
         vertex 3.376451e+002 5.199584e+001 5.976804e+002
         vertex 2.976451e+002 6.399584e+001 5.976804e+002
      endloop
   endfacet
   facet normal 6.525862e-014 4.258688e-027 -1.000000e+000
      outer loop
         vertex 2.976451e+002 6.399584e+001 5.976804e+002
         vertex 3.376451e+002 5.199584e+001 5.976804e+002
         vertex 2.226451e+002 6.399584e+001 5.976804e+002
      endloop
   endfacet
   facet normal 6.525862e-014 4.258688e-027 -1.000000e+000
      outer loop
         vertex 2.976451e+002 6.399584e+001 5.976804e+002
         vertex 2.226451e+002 6.399584e+001 5.976804e+002
         vertex 2.976451e+002 2.494958e+002 5.976804e+002
      endloop
   endfacet
   facet normal 6.525862e-014 4.258688e-027 -1.000000e+000
      outer loop
         vertex 2.976451e+002 2.494958e+002 5.976804e+002
         vertex 2.226451e+002 6.399584e+001 5.976804e+002
         vertex 2.226451e+002 2.494958e+002 5.976804e+002
      endloop
   endfacet
   facet normal 1.000000e+000 -6.525862e-014 6.525862e-014
      outer loop
         vertex 3.376451e+002 5.199584e+001 7.526804e+002
         vertex 3.376451e+002 5.199584e+001 5.976804e+002
         vertex 3.376451e+002 6.399584e+001 6.376804e+002
      endloop
   endfacet
   facet normal 1.000000e+000 -6.525862e-014 6.525862e-014
      outer loop
         vertex 3.376451e+002 6.399584e+001 6.376804e+002
         vertex 3.376451e+002 5.199584e+001 5.976804e+002
         vertex 3.376451e+002 6.399584e+001 5.976804e+002
      endloop
   endfacet
   facet normal 1.000000e+000 -6.525862e-014 6.525862e-014
      outer loop
         vertex 3.376451e+002 6.399584e+001 7.526804e+002
         vertex 3.376451e+002 5.199584e+001 7.526804e+002
         vertex 3.376451e+002 6.399584e+001 7.126804e+002
      endloop
   endfacet
   facet normal 1.000000e+000 -6.525862e-014 6.525862e-014
      outer loop
         vertex 3.376451e+002 6.399584e+001 7.126804e+002
         vertex 3.376451e+002 5.199584e+001 7.526804e+002
         vertex 3.376451e+002 6.399584e+001 6.376804e+002
      endloop
   endfacet
   facet normal 1.000000e+000 -6.525862e-014 6.525862e-014
      outer loop
         vertex 3.376451e+002 6.399584e+001 7.126804e+002
         vertex 3.376451e+002 6.399584e+001 6.376804e+002
         vertex 3.376451e+002 2.494958e+002 7.126804e+002
      endloop
   endfacet
   facet normal 1.000000e+000 -6.525862e-014 6.525862e-014
      outer loop
         vertex 3.376451e+002 2.494958e+002 7.126804e+002
         vertex 3.376451e+002 6.399584e+001 6.376804e+002
         vertex 3.376451e+002 2.494958e+002 6.376804e+002
      endloop
   endfacet
   facet normal -6.525862e-014 -4.258688e-027 1.000000e+000
      outer loop
         vertex 1.826452e+002 5.199584e+001 7.526804e+002
         vertex 3.376451e+002 5.199584e+001 7.526804e+002
         vertex 2.976451e+002 6.399584e+001 7.526804e+002
      endloop
   endfacet
   facet normal -6.525862e-014 -4.258688e-027 1.000000e+000
      outer loop
         vertex 2.976451e+002 6.399584e+001 7.526804e+002
         vertex 3.376451e+002 5.199584e+001 7.526804e+002
         vertex 3.376451e+002 6.399584e+001 7.526804e+002
      endloop
   endfacet
   facet normal -6.525862e-014 -4.258688e-027 1.000000e+000
      outer loop
         vertex 1.826452e+002 6.399584e+001 7.526804e+002
         vertex 1.826452e+002 5.199584e+001 7.526804e+002
         vertex 2.226451e+002 6.399584e+001 7.526804e+002
      endloop
   endfacet
   facet normal -6.525862e-014 -4.258688e-027 1.000000e+000
      outer loop
         vertex 2.226451e+002 6.399584e+001 7.526804e+002
         vertex 1.826452e+002 5.199584e+001 7.526804e+002
         vertex 2.976451e+002 6.399584e+001 7.526804e+002
      endloop
   endfacet
   facet normal -6.525862e-014 -4.258688e-027 1.000000e+000
      outer loop
         vertex 2.226451e+002 6.399584e+001 7.526804e+002
         vertex 2.976451e+002 6.399584e+001 7.526804e+002
         vertex 2.226451e+002 2.494958e+002 7.526804e+002
      endloop
   endfacet
   facet normal -6.525862e-014 -4.258688e-027 1.000000e+000
      outer loop
         vertex 2.226451e+002 2.494958e+002 7.526804e+002
         vertex 2.976451e+002 6.399584e+001 7.526804e+002
         vertex 2.976451e+002 2.494958e+002 7.526804e+002
      endloop
   endfacet
   facet normal -1.000000e+000 6.525862e-014 -6.525862e-014
      outer loop
         vertex 1.826452e+002 6.399584e+001 6.376804e+002
         vertex 1.826452e+002 6.399584e+001 5.976804e+002
         vertex 1.826452e+002 5.199584e+001 5.976804e+002
      endloop
   endfacet
   facet normal -1.000000e+000 6.525862e-014 -6.525862e-014
      outer loop
         vertex 1.826452e+002 5.199584e+001 7.526804e+002
         vertex 1.826452e+002 6.399584e+001 7.526804e+002
         vertex 1.826452e+002 6.399584e+001 7.126804e+002
      endloop
   endfacet
   facet normal -1.000000e+000 6.525862e-014 -6.525862e-014
      outer loop
         vertex 1.826452e+002 2.494958e+002 7.126804e+002
         vertex 1.826452e+002 2.494958e+002 6.376804e+002
         vertex 1.826452e+002 6.399584e+001 7.126804e+002
      endloop
   endfacet
   facet normal -1.000000e+000 6.525862e-014 -6.525862e-014
      outer loop
         vertex 1.826452e+002 6.399584e+001 7.126804e+002
         vertex 1.826452e+002 2.494958e+002 6.376804e+002
         vertex 1.826452e+002 6.399584e+001 6.376804e+002
      endloop
   endfacet
   facet normal -1.000000e+000 6.525862e-014 -6.525862e-014
      outer loop
         vertex 1.826452e+002 6.399584e+001 7.126804e+002
         vertex 1.826452e+002 6.399584e+001 6.376804e+002
         vertex 1.826452e+002 5.199584e+001 7.526804e+002
      endloop
   endfacet
   facet normal -1.000000e+000 6.525862e-014 -6.525862e-014
      outer loop
         vertex 1.826452e+002 5.199584e+001 7.526804e+002
         vertex 1.826452e+002 6.399584e+001 6.376804e+002
         vertex 1.826452e+002 5.199584e+001 5.976804e+002
      endloop
   endfacet
   facet normal -6.525862e-014 -1.000000e+000 -1.277606e-026
      outer loop
         vertex 1.826452e+002 5.199584e+001 5.976804e+002
         vertex 3.376451e+002 5.199584e+001 5.976804e+002
         vertex 1.826452e+002 5.199584e+001 7.526804e+002
      endloop
   endfacet
   facet normal -6.525862e-014 -1.000000e+000 -1.277606e-026
      outer loop
         vertex 1.826452e+002 5.199584e+001 7.526804e+002
         vertex 3.376451e+002 5.199584e+001 5.976804e+002
         vertex 3.376451e+002 5.199584e+001 7.526804e+002
      endloop
   endfacet
   facet normal 0.000000e+000 0.000000e+000 1.000000e+000
      outer loop
         vertex 7.764515e+001 3.731962e+001 4.589958e+002
         vertex 7.764515e+001 7.731963e+001 4.589958e+002
         vertex 3.764515e+001 7.731963e+001 4.589958e+002
      endloop
   endfacet
   facet normal 7.071068e-001 7.071068e-001 0.000000e+000
      outer loop
         vertex 7.764515e+001 3.731962e+001 6.444958e+002
         vertex 7.764515e+001 3.731962e+001 4.589958e+002
         vertex 3.764515e+001 7.731963e+001 6.444958e+002
      endloop
   endfacet
   facet normal 7.071068e-001 7.071068e-001 0.000000e+000
      outer loop
         vertex 3.764515e+001 7.731963e+001 6.444958e+002
         vertex 7.764515e+001 3.731962e+001 4.589958e+002
         vertex 3.764515e+001 7.731963e+001 4.589958e+002
      endloop
   endfacet
   facet normal 0.000000e+000 0.000000e+000 1.000000e+000
      outer loop
         vertex 3.764515e+001 -7.768038e+001 4.589958e+002
         vertex 7.764515e+001 -7.768038e+001 4.589958e+002
         vertex 7.764515e+001 -3.768038e+001 4.589958e+002
      endloop
   endfacet
   facet normal 7.071068e-001 -7.071068e-001 0.000000e+000
      outer loop
         vertex 3.764515e+001 -7.768038e+001 6.444958e+002
         vertex 3.764515e+001 -7.768038e+001 4.589958e+002
         vertex 7.764515e+001 -3.768038e+001 6.444958e+002
      endloop
   endfacet
   facet normal 7.071068e-001 -7.071068e-001 0.000000e+000
      outer loop
         vertex 7.764515e+001 -3.768038e+001 6.444958e+002
         vertex 3.764515e+001 -7.768038e+001 4.589958e+002
         vertex 7.764515e+001 -3.768038e+001 4.589958e+002
      endloop
   endfacet
   facet normal -7.071068e-001 7.071068e-001 0.000000e+000
      outer loop
         vertex -3.735485e+001 7.731963e+001 6.444958e+002
         vertex -3.735485e+001 7.731963e+001 4.589958e+002
         vertex -7.735485e+001 3.731962e+001 6.444958e+002
      endloop
   endfacet
   facet normal -7.071068e-001 7.071068e-001 0.000000e+000
      outer loop
         vertex -7.735485e+001 3.731962e+001 6.444958e+002
         vertex -3.735485e+001 7.731963e+001 4.589958e+002
         vertex -7.735485e+001 3.731962e+001 4.589958e+002
      endloop
   endfacet
   facet normal 0.000000e+000 0.000000e+000 1.000000e+000
      outer loop
         vertex -3.735485e+001 7.731963e+001 4.589958e+002
         vertex -7.735485e+001 7.731963e+001 4.589958e+002
         vertex -7.735485e+001 3.731962e+001 4.589958e+002
      endloop
   endfacet
   facet normal 0.000000e+000 0.000000e+000 1.000000e+000
      outer loop
         vertex -7.735485e+001 -3.768038e+001 4.589958e+002
         vertex -7.735485e+001 -7.768038e+001 4.589958e+002
         vertex -3.735485e+001 -7.768038e+001 4.589958e+002
      endloop
   endfacet
   facet normal -7.071068e-001 -7.071068e-001 0.000000e+000
      outer loop
         vertex -7.735485e+001 -3.768038e+001 6.444958e+002
         vertex -7.735485e+001 -3.768038e+001 4.589958e+002
         vertex -3.735485e+001 -7.768038e+001 6.444958e+002
      endloop
   endfacet
   facet normal -7.071068e-001 -7.071068e-001 0.000000e+000
      outer loop
         vertex -3.735485e+001 -7.768038e+001 6.444958e+002
         vertex -7.735485e+001 -3.768038e+001 4.589958e+002
         vertex -3.735485e+001 -7.768038e+001 4.589958e+002
      endloop
   endfacet
   facet normal 0.000000e+000 0.000000e+000 1.000000e+000
      outer loop
         vertex -7.735485e+001 3.731962e+001 6.444958e+002
         vertex -7.735485e+001 -3.768038e+001 6.444958e+002
         vertex -3.735485e+001 7.731963e+001 6.444958e+002
      endloop
   endfacet
   facet normal 0.000000e+000 0.000000e+000 1.000000e+000
      outer loop
         vertex -3.735485e+001 7.731963e+001 6.444958e+002
         vertex -7.735485e+001 -3.768038e+001 6.444958e+002
         vertex -3.735485e+001 -7.768038e+001 6.444958e+002
      endloop
   endfacet
   facet normal 0.000000e+000 0.000000e+000 1.000000e+000
      outer loop
         vertex -3.735485e+001 7.731963e+001 6.444958e+002
         vertex -3.735485e+001 -7.768038e+001 6.444958e+002
         vertex 3.764515e+001 7.731963e+001 6.444958e+002
      endloop
   endfacet
   facet normal 0.000000e+000 0.000000e+000 1.000000e+000
      outer loop
         vertex 3.764515e+001 7.731963e+001 6.444958e+002
         vertex -3.735485e+001 -7.768038e+001 6.444958e+002
         vertex 3.764515e+001 -7.768038e+001 6.444958e+002
      endloop
   endfacet
   facet normal 0.000000e+000 0.000000e+000 1.000000e+000
      outer loop
         vertex 3.764515e+001 7.731963e+001 6.444958e+002
         vertex 3.764515e+001 -7.768038e+001 6.444958e+002
         vertex 7.764515e+001 3.731962e+001 6.444958e+002
      endloop
   endfacet
   facet normal 0.000000e+000 0.000000e+000 1.000000e+000
      outer loop
         vertex 7.764515e+001 3.731962e+001 6.444958e+002
         vertex 3.764515e+001 -7.768038e+001 6.444958e+002
         vertex 7.764515e+001 -3.768038e+001 6.444958e+002
      endloop
   endfacet
   facet normal 0.000000e+000 1.000000e+000 0.000000e+000
      outer loop
         vertex 7.764515e+001 7.731963e+001 4.469958e+002
         vertex -7.735485e+001 7.731963e+001 4.469958e+002
         vertex -3.735485e+001 7.731963e+001 4.589958e+002
      endloop
   endfacet
   facet normal 0.000000e+000 1.000000e+000 0.000000e+000
      outer loop
         vertex -3.735485e+001 7.731963e+001 4.589958e+002
         vertex -7.735485e+001 7.731963e+001 4.469958e+002
         vertex -7.735485e+001 7.731963e+001 4.589958e+002
      endloop
   endfacet
   facet normal 0.000000e+000 1.000000e+000 0.000000e+000
      outer loop
         vertex 7.764515e+001 7.731963e+001 4.589958e+002
         vertex 7.764515e+001 7.731963e+001 4.469958e+002
         vertex 3.764515e+001 7.731963e+001 4.589958e+002
      endloop
   endfacet
   facet normal 0.000000e+000 1.000000e+000 0.000000e+000
      outer loop
         vertex 3.764515e+001 7.731963e+001 4.589958e+002
         vertex 7.764515e+001 7.731963e+001 4.469958e+002
         vertex -3.735485e+001 7.731963e+001 4.589958e+002
      endloop
   endfacet
   facet normal 0.000000e+000 1.000000e+000 0.000000e+000
      outer loop
         vertex 3.764515e+001 7.731963e+001 4.589958e+002
         vertex -3.735485e+001 7.731963e+001 4.589958e+002
         vertex 3.764515e+001 7.731963e+001 6.444958e+002
      endloop
   endfacet
   facet normal 0.000000e+000 1.000000e+000 0.000000e+000
      outer loop
         vertex 3.764515e+001 7.731963e+001 6.444958e+002
         vertex -3.735485e+001 7.731963e+001 4.589958e+002
         vertex -3.735485e+001 7.731963e+001 6.444958e+002
      endloop
   endfacet
   facet normal 1.000000e+000 0.000000e+000 0.000000e+000
      outer loop
         vertex 7.764515e+001 -3.768038e+001 4.589958e+002
         vertex 7.764515e+001 -7.768038e+001 4.589958e+002
         vertex 7.764515e+001 -7.768038e+001 4.469958e+002
      endloop
   endfacet
   facet normal 1.000000e+000 0.000000e+000 0.000000e+000
      outer loop
         vertex 7.764515e+001 7.731963e+001 4.469958e+002
         vertex 7.764515e+001 7.731963e+001 4.589958e+002
         vertex 7.764515e+001 3.731962e+001 4.589958e+002
      endloop
   endfacet
   facet normal 1.000000e+000 0.000000e+000 0.000000e+000
      outer loop
         vertex 7.764515e+001 3.731962e+001 6.444958e+002
         vertex 7.764515e+001 -3.768038e+001 6.444958e+002
         vertex 7.764515e+001 3.731962e+001 4.589958e+002
      endloop
   endfacet
   facet normal 1.000000e+000 0.000000e+000 0.000000e+000
      outer loop
         vertex 7.764515e+001 3.731962e+001 4.589958e+002
         vertex 7.764515e+001 -3.768038e+001 6.444958e+002
         vertex 7.764515e+001 -3.768038e+001 4.589958e+002
      endloop
   endfacet
   facet normal 1.000000e+000 0.000000e+000 0.000000e+000
      outer loop
         vertex 7.764515e+001 3.731962e+001 4.589958e+002
         vertex 7.764515e+001 -3.768038e+001 4.589958e+002
         vertex 7.764515e+001 7.731963e+001 4.469958e+002
      endloop
   endfacet
   facet normal 1.000000e+000 0.000000e+000 0.000000e+000
      outer loop
         vertex 7.764515e+001 7.731963e+001 4.469958e+002
         vertex 7.764515e+001 -3.768038e+001 4.589958e+002
         vertex 7.764515e+001 -7.768038e+001 4.469958e+002
      endloop
   endfacet
   facet normal 0.000000e+000 -1.000000e+000 0.000000e+000
      outer loop
         vertex -3.735485e+001 -7.768038e+001 4.589958e+002
         vertex -7.735485e+001 -7.768038e+001 4.589958e+002
         vertex -7.735485e+001 -7.768038e+001 4.469958e+002
      endloop
   endfacet
   facet normal 0.000000e+000 -1.000000e+000 0.000000e+000
      outer loop
         vertex 7.764515e+001 -7.768038e+001 4.469958e+002
         vertex 7.764515e+001 -7.768038e+001 4.589958e+002
         vertex 3.764515e+001 -7.768038e+001 4.589958e+002
      endloop
   endfacet
   facet normal 0.000000e+000 -1.000000e+000 0.000000e+000
      outer loop
         vertex 3.764515e+001 -7.768038e+001 6.444958e+002
         vertex -3.735485e+001 -7.768038e+001 6.444958e+002
         vertex 3.764515e+001 -7.768038e+001 4.589958e+002
      endloop
   endfacet
   facet normal 0.000000e+000 -1.000000e+000 0.000000e+000
      outer loop
         vertex 3.764515e+001 -7.768038e+001 4.589958e+002
         vertex -3.735485e+001 -7.768038e+001 6.444958e+002
         vertex -3.735485e+001 -7.768038e+001 4.589958e+002
      endloop
   endfacet
   facet normal 0.000000e+000 -1.000000e+000 0.000000e+000
      outer loop
         vertex 3.764515e+001 -7.768038e+001 4.589958e+002
         vertex -3.735485e+001 -7.768038e+001 4.589958e+002
         vertex 7.764515e+001 -7.768038e+001 4.469958e+002
      endloop
   endfacet
   facet normal 0.000000e+000 -1.000000e+000 0.000000e+000
      outer loop
         vertex 7.764515e+001 -7.768038e+001 4.469958e+002
         vertex -3.735485e+001 -7.768038e+001 4.589958e+002
         vertex -7.735485e+001 -7.768038e+001 4.469958e+002
      endloop
   endfacet
   facet normal -1.000000e+000 0.000000e+000 0.000000e+000
      outer loop
         vertex -7.735485e+001 3.731962e+001 4.589958e+002
         vertex -7.735485e+001 7.731963e+001 4.589958e+002
         vertex -7.735485e+001 7.731963e+001 4.469958e+002
      endloop
   endfacet
   facet normal -1.000000e+000 0.000000e+000 0.000000e+000
      outer loop
         vertex -7.735485e+001 -7.768038e+001 4.469958e+002
         vertex -7.735485e+001 -7.768038e+001 4.589958e+002
         vertex -7.735485e+001 -3.768038e+001 4.589958e+002
      endloop
   endfacet
   facet normal -1.000000e+000 0.000000e+000 0.000000e+000
      outer loop
         vertex -7.735485e+001 -3.768038e+001 6.444958e+002
         vertex -7.735485e+001 3.731962e+001 6.444958e+002
         vertex -7.735485e+001 -3.768038e+001 4.589958e+002
      endloop
   endfacet
   facet normal -1.000000e+000 0.000000e+000 0.000000e+000
      outer loop
         vertex -7.735485e+001 -3.768038e+001 4.589958e+002
         vertex -7.735485e+001 3.731962e+001 6.444958e+002
         vertex -7.735485e+001 3.731962e+001 4.589958e+002
      endloop
   endfacet
   facet normal -1.000000e+000 0.000000e+000 0.000000e+000
      outer loop
         vertex -7.735485e+001 -3.768038e+001 4.589958e+002
         vertex -7.735485e+001 3.731962e+001 4.589958e+002
         vertex -7.735485e+001 -7.768038e+001 4.469958e+002
      endloop
   endfacet
   facet normal -1.000000e+000 0.000000e+000 0.000000e+000
      outer loop
         vertex -7.735485e+001 -7.768038e+001 4.469958e+002
         vertex -7.735485e+001 3.731962e+001 4.589958e+002
         vertex -7.735485e+001 7.731963e+001 4.469958e+002
      endloop
   endfacet
   facet normal 0.000000e+000 0.000000e+000 -1.000000e+000
      outer loop
         vertex -7.735485e+001 7.731963e+001 4.469958e+002
         vertex 7.764515e+001 7.731963e+001 4.469958e+002
         vertex -7.735485e+001 -7.768038e+001 4.469958e+002
      endloop
   endfacet
   facet normal 0.000000e+000 0.000000e+000 -1.000000e+000
      outer loop
         vertex -7.735485e+001 -7.768038e+001 4.469958e+002
         vertex 7.764515e+001 7.731963e+001 4.469958e+002
         vertex 7.764515e+001 -7.768038e+001 4.469958e+002
      endloop
   endfacet
endsolid