solid bed_д╛хо_sldprt
   facet normal 0.000000e+000 -1.000000e+000 0.000000e+000
      outer loop
         vertex 1.500000e+001 0.000000e+000 -2.598076e+001
         vertex 1.699662e-014 0.000000e+000 -3.000000e+001
         vertex 5.000000e+002 0.000000e+000 -2.000000e+002
      endloop
   endfacet
   facet normal 0.000000e+000 -1.000000e+000 0.000000e+000
      outer loop
         vertex -1.500000e+001 0.000000e+000 2.598076e+001
         vertex 0.000000e+000 0.000000e+000 3.000000e+001
         vertex -5.000000e+002 0.000000e+000 2.000000e+002
      endloop
   endfacet
   facet normal 0.000000e+000 -1.000000e+000 0.000000e+000
      outer loop
         vertex 5.000000e+002 0.000000e+000 -2.000000e+002
         vertex 1.699662e-014 0.000000e+000 -3.000000e+001
         vertex -5.000000e+002 0.000000e+000 -2.000000e+002
      endloop
   endfacet
   facet normal 0.000000e+000 -1.000000e+000 0.000000e+000
      outer loop
         vertex -5.000000e+002 0.000000e+000 2.000000e+002
         vertex 0.000000e+000 0.000000e+000 3.000000e+001
         vertex 5.000000e+002 0.000000e+000 2.000000e+002
      endloop
   endfacet
   facet normal 0.000000e+000 -1.000000e+000 0.000000e+000
      outer loop
         vertex 5.951057e+002 0.000000e+000 1.309017e+002
         vertex 5.809017e+002 0.000000e+000 1.587785e+002
         vertex 3.000000e+001 0.000000e+000 8.498308e-015
      endloop
   endfacet
   facet normal 0.000000e+000 -1.000000e+000 0.000000e+000
      outer loop
         vertex -5.587785e+002 0.000000e+000 1.809017e+002
         vertex -5.809017e+002 0.000000e+000 1.587785e+002
         vertex -2.598076e+001 0.000000e+000 1.500000e+001
      endloop
   endfacet
   facet normal 0.000000e+000 -1.000000e+000 0.000000e+000
      outer loop
         vertex 2.598076e+001 0.000000e+000 -1.500000e+001
         vertex 6.000000e+002 0.000000e+000 -1.000000e+002
         vertex 3.000000e+001 0.000000e+000 8.498308e-015
      endloop
   endfacet
   facet normal 0.000000e+000 -1.000000e+000 0.000000e+000
      outer loop
         vertex 3.000000e+001 0.000000e+000 8.498308e-015
         vertex 6.000000e+002 0.000000e+000 -1.000000e+002
         vertex 6.000000e+002 0.000000e+000 1.000000e+002
      endloop
   endfacet
   facet normal 0.000000e+000 -1.000000e+000 0.000000e+000
      outer loop
         vertex 3.000000e+001 0.000000e+000 8.498308e-015
         vertex 6.000000e+002 0.000000e+000 1.000000e+002
         vertex 5.951057e+002 0.000000e+000 1.309017e+002
      endloop
   endfacet
   facet normal 0.000000e+000 -1.000000e+000 0.000000e+000
      outer loop
         vertex -3.000000e+001 0.000000e+000 -3.215626e-014
         vertex -5.951057e+002 0.000000e+000 -1.309017e+002
         vertex -5.809017e+002 0.000000e+000 -1.587785e+002
      endloop
   endfacet
   facet normal 0.000000e+000 -1.000000e+000 0.000000e+000
      outer loop
         vertex 1.699662e-014 0.000000e+000 -3.000000e+001
         vertex -1.500000e+001 0.000000e+000 -2.598076e+001
         vertex -5.000000e+002 0.000000e+000 -2.000000e+002
      endloop
   endfacet
   facet normal 0.000000e+000 -1.000000e+000 0.000000e+000
      outer loop
         vertex -5.000000e+002 0.000000e+000 -2.000000e+002
         vertex -1.500000e+001 0.000000e+000 -2.598076e+001
         vertex -2.598076e+001 0.000000e+000 -1.500000e+001
      endloop
   endfacet
   facet normal 0.000000e+000 -1.000000e+000 0.000000e+000
      outer loop
         vertex -5.000000e+002 0.000000e+000 -2.000000e+002
         vertex -2.598076e+001 0.000000e+000 -1.500000e+001
         vertex -5.309017e+002 0.000000e+000 -1.951057e+002
      endloop
   endfacet
   facet normal 0.000000e+000 -1.000000e+000 0.000000e+000
      outer loop
         vertex -5.309017e+002 0.000000e+000 -1.951057e+002
         vertex -2.598076e+001 0.000000e+000 -1.500000e+001
         vertex -3.000000e+001 0.000000e+000 -3.215626e-014
      endloop
   endfacet
   facet normal 0.000000e+000 -1.000000e+000 0.000000e+000
      outer loop
         vertex -5.309017e+002 0.000000e+000 -1.951057e+002
         vertex -3.000000e+001 0.000000e+000 -3.215626e-014
         vertex -5.587785e+002 0.000000e+000 -1.809017e+002
      endloop
   endfacet
   facet normal 0.000000e+000 -1.000000e+000 0.000000e+000
      outer loop
         vertex -5.587785e+002 0.000000e+000 -1.809017e+002
         vertex -3.000000e+001 0.000000e+000 -3.215626e-014
         vertex -5.809017e+002 0.000000e+000 -1.587785e+002
      endloop
   endfacet
   facet normal 0.000000e+000 -1.000000e+000 0.000000e+000
      outer loop
         vertex -5.809017e+002 0.000000e+000 1.587785e+002
         vertex -5.951057e+002 0.000000e+000 1.309017e+002
         vertex -2.598076e+001 0.000000e+000 1.500000e+001
      endloop
   endfacet
   facet normal 0.000000e+000 -1.000000e+000 0.000000e+000
      outer loop
         vertex -2.598076e+001 0.000000e+000 1.500000e+001
         vertex -5.951057e+002 0.000000e+000 1.309017e+002
         vertex -6.000000e+002 0.000000e+000 1.000000e+002
      endloop
   endfacet
   facet normal 0.000000e+000 -1.000000e+000 0.000000e+000
      outer loop
         vertex -2.598076e+001 0.000000e+000 1.500000e+001
         vertex -6.000000e+002 0.000000e+000 1.000000e+002
         vertex -3.000000e+001 0.000000e+000 -3.215626e-014
      endloop
   endfacet
   facet normal 0.000000e+000 -1.000000e+000 0.000000e+000
      outer loop
         vertex -3.000000e+001 0.000000e+000 -3.215626e-014
         vertex -6.000000e+002 0.000000e+000 1.000000e+002
         vertex -6.000000e+002 0.000000e+000 -1.000000e+002
      endloop
   endfacet
   facet normal 0.000000e+000 -1.000000e+000 0.000000e+000
      outer loop
         vertex -3.000000e+001 0.000000e+000 -3.215626e-014
         vertex -6.000000e+002 0.000000e+000 -1.000000e+002
         vertex -5.951057e+002 0.000000e+000 -1.309017e+002
      endloop
   endfacet
   facet normal 0.000000e+000 -1.000000e+000 0.000000e+000
      outer loop
         vertex 5.587785e+002 0.000000e+000 -1.809017e+002
         vertex 5.809017e+002 0.000000e+000 -1.587785e+002
         vertex 2.598076e+001 0.000000e+000 -1.500000e+001
      endloop
   endfacet
   facet normal 0.000000e+000 -1.000000e+000 0.000000e+000
      outer loop
         vertex 2.598076e+001 0.000000e+000 -1.500000e+001
         vertex 5.809017e+002 0.000000e+000 -1.587785e+002
         vertex 5.951057e+002 0.000000e+000 -1.309017e+002
      endloop
   endfacet
   facet normal 0.000000e+000 -1.000000e+000 0.000000e+000
      outer loop
         vertex 2.598076e+001 0.000000e+000 -1.500000e+001
         vertex 5.951057e+002 0.000000e+000 -1.309017e+002
         vertex 6.000000e+002 0.000000e+000 -1.000000e+002
      endloop
   endfacet
   facet normal 0.000000e+000 -1.000000e+000 0.000000e+000
      outer loop
         vertex -1.500000e+001 0.000000e+000 2.598076e+001
         vertex -5.000000e+002 0.000000e+000 2.000000e+002
         vertex -2.598076e+001 0.000000e+000 1.500000e+001
      endloop
   endfacet
   facet normal 0.000000e+000 -1.000000e+000 0.000000e+000
      outer loop
         vertex -2.598076e+001 0.000000e+000 1.500000e+001
         vertex -5.000000e+002 0.000000e+000 2.000000e+002
         vertex -5.309017e+002 0.000000e+000 1.951057e+002
      endloop
   endfacet
   facet normal 0.000000e+000 -1.000000e+000 0.000000e+000
      outer loop
         vertex -2.598076e+001 0.000000e+000 1.500000e+001
         vertex -5.309017e+002 0.000000e+000 1.951057e+002
         vertex -5.587785e+002 0.000000e+000 1.809017e+002
      endloop
   endfacet
   facet normal 0.000000e+000 -1.000000e+000 0.000000e+000
      outer loop
         vertex 0.000000e+000 0.000000e+000 3.000000e+001
         vertex 1.500000e+001 0.000000e+000 2.598076e+001
         vertex 5.000000e+002 0.000000e+000 2.000000e+002
      endloop
   endfacet
   facet normal 0.000000e+000 -1.000000e+000 0.000000e+000
      outer loop
         vertex 5.000000e+002 0.000000e+000 2.000000e+002
         vertex 1.500000e+001 0.000000e+000 2.598076e+001
         vertex 2.598076e+001 0.000000e+000 1.500000e+001
      endloop
   endfacet
   facet normal 0.000000e+000 -1.000000e+000 0.000000e+000
      outer loop
         vertex 5.000000e+002 0.000000e+000 2.000000e+002
         vertex 2.598076e+001 0.000000e+000 1.500000e+001
         vertex 5.309017e+002 0.000000e+000 1.951057e+002
      endloop
   endfacet
   facet normal 0.000000e+000 -1.000000e+000 0.000000e+000
      outer loop
         vertex 5.309017e+002 0.000000e+000 1.951057e+002
         vertex 2.598076e+001 0.000000e+000 1.500000e+001
         vertex 3.000000e+001 0.000000e+000 8.498308e-015
      endloop
   endfacet
   facet normal 0.000000e+000 -1.000000e+000 0.000000e+000
      outer loop
         vertex 5.309017e+002 0.000000e+000 1.951057e+002
         vertex 3.000000e+001 0.000000e+000 8.498308e-015
         vertex 5.587785e+002 0.000000e+000 1.809017e+002
      endloop
   endfacet
   facet normal 0.000000e+000 -1.000000e+000 0.000000e+000
      outer loop
         vertex 5.587785e+002 0.000000e+000 1.809017e+002
         vertex 3.000000e+001 0.000000e+000 8.498308e-015
         vertex 5.809017e+002 0.000000e+000 1.587785e+002
      endloop
   endfacet
   facet normal 0.000000e+000 -1.000000e+000 0.000000e+000
      outer loop
         vertex 1.500000e+001 0.000000e+000 -2.598076e+001
         vertex 5.000000e+002 0.000000e+000 -2.000000e+002
         vertex 2.598076e+001 0.000000e+000 -1.500000e+001
      endloop
   endfacet
   facet normal 0.000000e+000 -1.000000e+000 0.000000e+000
      outer loop
         vertex 2.598076e+001 0.000000e+000 -1.500000e+001
         vertex 5.000000e+002 0.000000e+000 -2.000000e+002
         vertex 5.309017e+002 0.000000e+000 -1.951057e+002
      endloop
   endfacet
   facet normal 0.000000e+000 -1.000000e+000 0.000000e+000
      outer loop
         vertex 2.598076e+001 0.000000e+000 -1.500000e+001
         vertex 5.309017e+002 0.000000e+000 -1.951057e+002
         vertex 5.587785e+002 0.000000e+000 -1.809017e+002
      endloop
   endfacet
   facet normal -1.000000e+000 0.000000e+000 2.775558e-016
      outer loop
         vertex -6.000000e+002 0.000000e+000 -1.000000e+002
         vertex -6.000000e+002 0.000000e+000 1.000000e+002
         vertex -6.000000e+002 5.000000e+000 7.000000e+001
      endloop
   endfacet
   facet normal -1.000000e+000 0.000000e+000 2.775558e-016
      outer loop
         vertex -6.000000e+002 5.000000e+000 7.000000e+001
         vertex -6.000000e+002 0.000000e+000 1.000000e+002
         vertex -6.000000e+002 5.000000e+000 1.000000e+002
      endloop
   endfacet
   facet normal -1.000000e+000 0.000000e+000 2.775558e-016
      outer loop
         vertex -6.000000e+002 5.000000e+000 -1.000000e+002
         vertex -6.000000e+002 0.000000e+000 -1.000000e+002
         vertex -6.000000e+002 5.000000e+000 -7.000000e+001
      endloop
   endfacet
   facet normal -1.000000e+000 0.000000e+000 2.775558e-016
      outer loop
         vertex -6.000000e+002 5.000000e+000 -7.000000e+001
         vertex -6.000000e+002 0.000000e+000 -1.000000e+002
         vertex -6.000000e+002 5.000000e+000 7.000000e+001
      endloop
   endfacet
   facet normal -1.000000e+000 0.000000e+000 2.775558e-016
      outer loop
         vertex -6.000000e+002 5.000000e+000 -7.000000e+001
         vertex -6.000000e+002 5.000000e+000 7.000000e+001
         vertex -6.000000e+002 4.500000e+001 -7.000000e+001
      endloop
   endfacet
   facet normal -1.000000e+000 0.000000e+000 2.775558e-016
      outer loop
         vertex -6.000000e+002 4.500000e+001 -7.000000e+001
         vertex -6.000000e+002 5.000000e+000 7.000000e+001
         vertex -6.000000e+002 4.500000e+001 7.000000e+001
      endloop
   endfacet
   facet normal 0.000000e+000 0.000000e+000 1.000000e+000
      outer loop
         vertex -5.000000e+002 0.000000e+000 2.000000e+002
         vertex 5.000000e+002 0.000000e+000 2.000000e+002
         vertex -5.000000e+002 5.000000e+000 2.000000e+002
      endloop
   endfacet
   facet normal 0.000000e+000 0.000000e+000 1.000000e+000
      outer loop
         vertex -5.000000e+002 5.000000e+000 2.000000e+002
         vertex 5.000000e+002 0.000000e+000 2.000000e+002
         vertex 5.000000e+002 5.000000e+000 2.000000e+002
      endloop
   endfacet
   facet normal 1.000000e+000 0.000000e+000 2.775558e-016
      outer loop
         vertex 6.000000e+002 5.000000e+000 -1.000000e+002
         vertex 6.000000e+002 5.000000e+000 1.000000e+002
         vertex 6.000000e+002 0.000000e+000 -1.000000e+002
      endloop
   endfacet
   facet normal 1.000000e+000 0.000000e+000 2.775558e-016
      outer loop
         vertex 6.000000e+002 0.000000e+000 -1.000000e+002
         vertex 6.000000e+002 5.000000e+000 1.000000e+002
         vertex 6.000000e+002 0.000000e+000 1.000000e+002
      endloop
   endfacet
   facet normal 0.000000e+000 0.000000e+000 -1.000000e+000
      outer loop
         vertex -5.000000e+002 5.000000e+000 -2.000000e+002
         vertex 5.000000e+002 5.000000e+000 -2.000000e+002
         vertex -5.000000e+002 0.000000e+000 -2.000000e+002
      endloop
   endfacet
   facet normal 0.000000e+000 0.000000e+000 -1.000000e+000
      outer loop
         vertex -5.000000e+002 0.000000e+000 -2.000000e+002
         vertex 5.000000e+002 5.000000e+000 -2.000000e+002
         vertex 5.000000e+002 0.000000e+000 -2.000000e+002
      endloop
   endfacet
   facet normal 0.000000e+000 1.000000e+000 0.000000e+000
      outer loop
         vertex -6.000000e+002 5.000000e+000 -1.000000e+002
         vertex -6.000000e+002 5.000000e+000 -7.000000e+001
         vertex -5.000000e+002 5.000000e+000 -7.000000e+001
      endloop
   endfacet
   facet normal 0.000000e+000 1.000000e+000 0.000000e+000
      outer loop
         vertex -5.000000e+002 5.000000e+000 7.000000e+001
         vertex -6.000000e+002 5.000000e+000 7.000000e+001
         vertex -6.000000e+002 5.000000e+000 1.000000e+002
      endloop
   endfacet
   facet normal 0.000000e+000 1.000000e+000 0.000000e+000
      outer loop
         vertex 5.000000e+002 5.000000e+000 -2.000000e+002
         vertex -5.000000e+002 5.000000e+000 -2.000000e+002
         vertex -5.000000e+002 5.000000e+000 -7.000000e+001
      endloop
   endfacet
   facet normal 0.000000e+000 1.000000e+000 0.000000e+000
      outer loop
         vertex -5.000000e+002 5.000000e+000 -7.000000e+001
         vertex -5.000000e+002 5.000000e+000 -2.000000e+002
         vertex -5.309017e+002 5.000000e+000 -1.951057e+002
      endloop
   endfacet
   facet normal 0.000000e+000 1.000000e+000 0.000000e+000
      outer loop
         vertex -5.000000e+002 5.000000e+000 -7.000000e+001
         vertex -5.309017e+002 5.000000e+000 -1.951057e+002
         vertex -5.587785e+002 5.000000e+000 -1.809017e+002
      endloop
   endfacet
   facet normal 0.000000e+000 1.000000e+000 0.000000e+000
      outer loop
         vertex -5.587785e+002 5.000000e+000 -1.809017e+002
         vertex -5.809017e+002 5.000000e+000 -1.587785e+002
         vertex -5.000000e+002 5.000000e+000 -7.000000e+001
      endloop
   endfacet
   facet normal 0.000000e+000 1.000000e+000 0.000000e+000
      outer loop
         vertex -5.000000e+002 5.000000e+000 -7.000000e+001
         vertex -5.809017e+002 5.000000e+000 -1.587785e+002
         vertex -5.951057e+002 5.000000e+000 -1.309017e+002
      endloop
   endfacet
   facet normal 0.000000e+000 1.000000e+000 0.000000e+000
      outer loop
         vertex -5.000000e+002 5.000000e+000 -7.000000e+001
         vertex -5.951057e+002 5.000000e+000 -1.309017e+002
         vertex -6.000000e+002 5.000000e+000 -1.000000e+002
      endloop
   endfacet
   facet normal 0.000000e+000 1.000000e+000 0.000000e+000
      outer loop
         vertex 6.000000e+002 5.000000e+000 1.000000e+002
         vertex 5.000000e+002 5.000000e+000 2.000000e+002
         vertex 5.309017e+002 5.000000e+000 1.951057e+002
      endloop
   endfacet
   facet normal 0.000000e+000 1.000000e+000 0.000000e+000
      outer loop
         vertex 5.309017e+002 5.000000e+000 1.951057e+002
         vertex 5.587785e+002 5.000000e+000 1.809017e+002
         vertex 6.000000e+002 5.000000e+000 1.000000e+002
      endloop
   endfacet
   facet normal 0.000000e+000 1.000000e+000 0.000000e+000
      outer loop
         vertex 6.000000e+002 5.000000e+000 1.000000e+002
         vertex 5.587785e+002 5.000000e+000 1.809017e+002
         vertex 5.809017e+002 5.000000e+000 1.587785e+002
      endloop
   endfacet
   facet normal 0.000000e+000 1.000000e+000 0.000000e+000
      outer loop
         vertex 6.000000e+002 5.000000e+000 1.000000e+002
         vertex 5.809017e+002 5.000000e+000 1.587785e+002
         vertex 5.951057e+002 5.000000e+000 1.309017e+002
      endloop
   endfacet
   facet normal 0.000000e+000 1.000000e+000 0.000000e+000
      outer loop
         vertex 5.951057e+002 5.000000e+000 -1.309017e+002
         vertex 5.000000e+002 5.000000e+000 -2.000000e+002
         vertex 6.000000e+002 5.000000e+000 -1.000000e+002
      endloop
   endfacet
   facet normal 0.000000e+000 1.000000e+000 0.000000e+000
      outer loop
         vertex 6.000000e+002 5.000000e+000 -1.000000e+002
         vertex 5.000000e+002 5.000000e+000 -2.000000e+002
         vertex -5.000000e+002 5.000000e+000 -7.000000e+001
      endloop
   endfacet
   facet normal 0.000000e+000 1.000000e+000 0.000000e+000
      outer loop
         vertex 6.000000e+002 5.000000e+000 -1.000000e+002
         vertex -5.000000e+002 5.000000e+000 -7.000000e+001
         vertex 6.000000e+002 5.000000e+000 1.000000e+002
      endloop
   endfacet
   facet normal 0.000000e+000 1.000000e+000 0.000000e+000
      outer loop
         vertex 6.000000e+002 5.000000e+000 1.000000e+002
         vertex -5.000000e+002 5.000000e+000 -7.000000e+001
         vertex -5.000000e+002 5.000000e+000 7.000000e+001
      endloop
   endfacet
   facet normal 0.000000e+000 1.000000e+000 0.000000e+000
      outer loop
         vertex 6.000000e+002 5.000000e+000 1.000000e+002
         vertex -5.000000e+002 5.000000e+000 7.000000e+001
         vertex 5.000000e+002 5.000000e+000 2.000000e+002
      endloop
   endfacet
   facet normal 0.000000e+000 1.000000e+000 0.000000e+000
      outer loop
         vertex -6.000000e+002 5.000000e+000 1.000000e+002
         vertex -5.951057e+002 5.000000e+000 1.309017e+002
         vertex -5.000000e+002 5.000000e+000 7.000000e+001
      endloop
   endfacet
   facet normal 0.000000e+000 1.000000e+000 0.000000e+000
      outer loop
         vertex -5.000000e+002 5.000000e+000 7.000000e+001
         vertex -5.951057e+002 5.000000e+000 1.309017e+002
         vertex -5.809017e+002 5.000000e+000 1.587785e+002
      endloop
   endfacet
   facet normal 0.000000e+000 1.000000e+000 0.000000e+000
      outer loop
         vertex -5.000000e+002 5.000000e+000 7.000000e+001
         vertex -5.809017e+002 5.000000e+000 1.587785e+002
         vertex -5.587785e+002 5.000000e+000 1.809017e+002
      endloop
   endfacet
   facet normal 0.000000e+000 1.000000e+000 0.000000e+000
      outer loop
         vertex -5.587785e+002 5.000000e+000 1.809017e+002
         vertex -5.309017e+002 5.000000e+000 1.951057e+002
         vertex -5.000000e+002 5.000000e+000 7.000000e+001
      endloop
   endfacet
   facet normal 0.000000e+000 1.000000e+000 0.000000e+000
      outer loop
         vertex -5.000000e+002 5.000000e+000 7.000000e+001
         vertex -5.309017e+002 5.000000e+000 1.951057e+002
         vertex -5.000000e+002 5.000000e+000 2.000000e+002
      endloop
   endfacet
   facet normal 0.000000e+000 1.000000e+000 0.000000e+000
      outer loop
         vertex -5.000000e+002 5.000000e+000 7.000000e+001
         vertex -5.000000e+002 5.000000e+000 2.000000e+002
         vertex 5.000000e+002 5.000000e+000 2.000000e+002
      endloop
   endfacet
   facet normal 0.000000e+000 1.000000e+000 0.000000e+000
      outer loop
         vertex 5.951057e+002 5.000000e+000 -1.309017e+002
         vertex 5.809017e+002 5.000000e+000 -1.587785e+002
         vertex 5.000000e+002 5.000000e+000 -2.000000e+002
      endloop
   endfacet
   facet normal 0.000000e+000 1.000000e+000 0.000000e+000
      outer loop
         vertex 5.000000e+002 5.000000e+000 -2.000000e+002
         vertex 5.809017e+002 5.000000e+000 -1.587785e+002
         vertex 5.587785e+002 5.000000e+000 -1.809017e+002
      endloop
   endfacet
   facet normal 0.000000e+000 1.000000e+000 0.000000e+000
      outer loop
         vertex 5.000000e+002 5.000000e+000 -2.000000e+002
         vertex 5.587785e+002 5.000000e+000 -1.809017e+002
         vertex 5.309017e+002 5.000000e+000 -1.951057e+002
      endloop
   endfacet
   facet normal 0.000000e+000 0.000000e+000 1.000000e+000
      outer loop
         vertex -5.000000e+002 4.500000e+001 7.000000e+001
         vertex -6.000000e+002 4.500000e+001 7.000000e+001
         vertex -5.000000e+002 5.000000e+000 7.000000e+001
      endloop
   endfacet
   facet normal 0.000000e+000 0.000000e+000 1.000000e+000
      outer loop
         vertex -5.000000e+002 5.000000e+000 7.000000e+001
         vertex -6.000000e+002 4.500000e+001 7.000000e+001
         vertex -6.000000e+002 5.000000e+000 7.000000e+001
      endloop
   endfacet
   facet normal 1.000000e+000 0.000000e+000 0.000000e+000
      outer loop
         vertex -5.000000e+002 4.500000e+001 -7.000000e+001
         vertex -5.000000e+002 4.500000e+001 7.000000e+001
         vertex -5.000000e+002 5.000000e+000 -7.000000e+001
      endloop
   endfacet
   facet normal 1.000000e+000 0.000000e+000 0.000000e+000
      outer loop
         vertex -5.000000e+002 5.000000e+000 -7.000000e+001
         vertex -5.000000e+002 4.500000e+001 7.000000e+001
         vertex -5.000000e+002 5.000000e+000 7.000000e+001
      endloop
   endfacet
   facet normal 0.000000e+000 0.000000e+000 -1.000000e+000
      outer loop
         vertex -6.000000e+002 4.500000e+001 -7.000000e+001
         vertex -5.000000e+002 4.500000e+001 -7.000000e+001
         vertex -6.000000e+002 5.000000e+000 -7.000000e+001
      endloop
   endfacet
   facet normal 0.000000e+000 0.000000e+000 -1.000000e+000
      outer loop
         vertex -6.000000e+002 5.000000e+000 -7.000000e+001
         vertex -5.000000e+002 4.500000e+001 -7.000000e+001
         vertex -5.000000e+002 5.000000e+000 -7.000000e+001
      endloop
   endfacet
   facet normal 0.000000e+000 1.000000e+000 0.000000e+000
      outer loop
         vertex -5.000000e+002 4.500000e+001 7.000000e+001
         vertex -5.000000e+002 4.500000e+001 -7.000000e+001
         vertex -6.000000e+002 4.500000e+001 7.000000e+001
      endloop
   endfacet
   facet normal 0.000000e+000 1.000000e+000 0.000000e+000
      outer loop
         vertex -6.000000e+002 4.500000e+001 7.000000e+001
         vertex -5.000000e+002 4.500000e+001 -7.000000e+001
         vertex -6.000000e+002 4.500000e+001 -7.000000e+001
      endloop
   endfacet
   facet normal 1.718619e-001 0.000000e+000 9.851210e-001
      outer loop
         vertex 1.500000e+001 -5.000000e+000 2.598076e+001
         vertex 0.000000e+000 0.000000e+000 3.000000e+001
         vertex 0.000000e+000 -5.000000e+000 3.000000e+001
      endloop
   endfacet
   facet normal -1.718619e-001 0.000000e+000 9.851210e-001
      outer loop
         vertex 0.000000e+000 -5.000000e+000 3.000000e+001
         vertex 0.000000e+000 0.000000e+000 3.000000e+001
         vertex -1.500000e+001 0.000000e+000 2.598076e+001
      endloop
   endfacet
   facet normal -3.437238e-001 0.000000e+000 9.390708e-001
      outer loop
         vertex 0.000000e+000 -5.000000e+000 3.000000e+001
         vertex -1.500000e+001 0.000000e+000 2.598076e+001
         vertex -1.500000e+001 -5.000000e+000 2.598076e+001
      endloop
   endfacet
   facet normal -6.413973e-001 0.000000e+000 7.672089e-001
      outer loop
         vertex -1.500000e+001 -5.000000e+000 2.598076e+001
         vertex -1.500000e+001 0.000000e+000 2.598076e+001
         vertex -2.598076e+001 0.000000e+000 1.500000e+001
      endloop
   endfacet
   facet normal -7.672089e-001 0.000000e+000 6.413973e-001
      outer loop
         vertex -1.500000e+001 -5.000000e+000 2.598076e+001
         vertex -2.598076e+001 0.000000e+000 1.500000e+001
         vertex -2.598076e+001 -5.000000e+000 1.500000e+001
      endloop
   endfacet
   facet normal -9.390708e-001 0.000000e+000 3.437238e-001
      outer loop
         vertex -2.598076e+001 -5.000000e+000 1.500000e+001
         vertex -2.598076e+001 0.000000e+000 1.500000e+001
         vertex -3.000000e+001 0.000000e+000 -3.215626e-014
      endloop
   endfacet
   facet normal -9.851210e-001 0.000000e+000 1.718619e-001
      outer loop
         vertex -2.598076e+001 -5.000000e+000 1.500000e+001
         vertex -3.000000e+001 0.000000e+000 -3.215626e-014
         vertex -3.000000e+001 -5.000000e+000 -3.215626e-014
      endloop
   endfacet
   facet normal -9.851210e-001 0.000000e+000 -1.718619e-001
      outer loop
         vertex -3.000000e+001 -5.000000e+000 -3.215626e-014
         vertex -3.000000e+001 0.000000e+000 -3.215626e-014
         vertex -2.598076e+001 0.000000e+000 -1.500000e+001
      endloop
   endfacet
   facet normal -9.390708e-001 0.000000e+000 -3.437238e-001
      outer loop
         vertex -3.000000e+001 -5.000000e+000 -3.215626e-014
         vertex -2.598076e+001 0.000000e+000 -1.500000e+001
         vertex -2.598076e+001 -5.000000e+000 -1.500000e+001
      endloop
   endfacet
   facet normal -7.672089e-001 0.000000e+000 -6.413973e-001
      outer loop
         vertex -2.598076e+001 -5.000000e+000 -1.500000e+001
         vertex -2.598076e+001 0.000000e+000 -1.500000e+001
         vertex -1.500000e+001 0.000000e+000 -2.598076e+001
      endloop
   endfacet
   facet normal -6.413973e-001 0.000000e+000 -7.672089e-001
      outer loop
         vertex -2.598076e+001 -5.000000e+000 -1.500000e+001
         vertex -1.500000e+001 0.000000e+000 -2.598076e+001
         vertex -1.500000e+001 -5.000000e+000 -2.598076e+001
      endloop
   endfacet
   facet normal -3.437238e-001 0.000000e+000 -9.390708e-001
      outer loop
         vertex -1.500000e+001 -5.000000e+000 -2.598076e+001
         vertex -1.500000e+001 0.000000e+000 -2.598076e+001
         vertex 1.699662e-014 0.000000e+000 -3.000000e+001
      endloop
   endfacet
   facet normal -1.718619e-001 0.000000e+000 -9.851210e-001
      outer loop
         vertex -1.500000e+001 -5.000000e+000 -2.598076e+001
         vertex 1.699662e-014 0.000000e+000 -3.000000e+001
         vertex 1.102182e-014 -5.000000e+000 -3.000000e+001
      endloop
   endfacet
   facet normal 1.718619e-001 0.000000e+000 -9.851210e-001
      outer loop
         vertex 1.102182e-014 -5.000000e+000 -3.000000e+001
         vertex 1.699662e-014 0.000000e+000 -3.000000e+001
         vertex 1.500000e+001 0.000000e+000 -2.598076e+001
      endloop
   endfacet
   facet normal 3.437238e-001 0.000000e+000 -9.390708e-001
      outer loop
         vertex 1.102182e-014 -5.000000e+000 -3.000000e+001
         vertex 1.500000e+001 0.000000e+000 -2.598076e+001
         vertex 1.500000e+001 -5.000000e+000 -2.598076e+001
      endloop
   endfacet
   facet normal 6.413973e-001 0.000000e+000 -7.672089e-001
      outer loop
         vertex 1.500000e+001 -5.000000e+000 -2.598076e+001
         vertex 1.500000e+001 0.000000e+000 -2.598076e+001
         vertex 2.598076e+001 0.000000e+000 -1.500000e+001
      endloop
   endfacet
   facet normal 7.672089e-001 0.000000e+000 -6.413973e-001
      outer loop
         vertex 1.500000e+001 -5.000000e+000 -2.598076e+001
         vertex 2.598076e+001 0.000000e+000 -1.500000e+001
         vertex 2.598076e+001 -5.000000e+000 -1.500000e+001
      endloop
   endfacet
   facet normal 9.390708e-001 0.000000e+000 -3.437238e-001
      outer loop
         vertex 2.598076e+001 -5.000000e+000 -1.500000e+001
         vertex 2.598076e+001 0.000000e+000 -1.500000e+001
         vertex 3.000000e+001 0.000000e+000 8.498308e-015
      endloop
   endfacet
   facet normal 9.851210e-001 0.000000e+000 -1.718619e-001
      outer loop
         vertex 2.598076e+001 -5.000000e+000 -1.500000e+001
         vertex 3.000000e+001 0.000000e+000 8.498308e-015
         vertex 3.000000e+001 -5.000000e+000 8.498308e-015
      endloop
   endfacet
   facet normal 9.851210e-001 0.000000e+000 1.718619e-001
      outer loop
         vertex 3.000000e+001 -5.000000e+000 8.498308e-015
         vertex 3.000000e+001 0.000000e+000 8.498308e-015
         vertex 2.598076e+001 0.000000e+000 1.500000e+001
      endloop
   endfacet
   facet normal 9.390708e-001 0.000000e+000 3.437238e-001
      outer loop
         vertex 3.000000e+001 -5.000000e+000 8.498308e-015
         vertex 2.598076e+001 0.000000e+000 1.500000e+001
         vertex 2.598076e+001 -5.000000e+000 1.500000e+001
      endloop
   endfacet
   facet normal 7.672089e-001 0.000000e+000 6.413973e-001
      outer loop
         vertex 2.598076e+001 -5.000000e+000 1.500000e+001
         vertex 2.598076e+001 0.000000e+000 1.500000e+001
         vertex 1.500000e+001 0.000000e+000 2.598076e+001
      endloop
   endfacet
   facet normal 6.413973e-001 0.000000e+000 7.672089e-001
      outer loop
         vertex 2.598076e+001 -5.000000e+000 1.500000e+001
         vertex 1.500000e+001 0.000000e+000 2.598076e+001
         vertex 1.500000e+001 -5.000000e+000 2.598076e+001
      endloop
   endfacet
   facet normal 3.437238e-001 0.000000e+000 9.390708e-001
      outer loop
         vertex 1.500000e+001 -5.000000e+000 2.598076e+001
         vertex 1.500000e+001 0.000000e+000 2.598076e+001
         vertex 0.000000e+000 0.000000e+000 3.000000e+001
      endloop
   endfacet
   facet normal 0.000000e+000 -1.000000e+000 0.000000e+000
      outer loop
         vertex -3.000000e+001 -5.000000e+000 -3.215626e-014
         vertex 2.598076e+001 -5.000000e+000 -1.500000e+001
         vertex -2.598076e+001 -5.000000e+000 1.500000e+001
      endloop
   endfacet
   facet normal 0.000000e+000 -1.000000e+000 0.000000e+000
      outer loop
         vertex -2.598076e+001 -5.000000e+000 1.500000e+001
         vertex 2.598076e+001 -5.000000e+000 -1.500000e+001
         vertex 3.000000e+001 -5.000000e+000 8.498308e-015
      endloop
   endfacet
   facet normal 0.000000e+000 -1.000000e+000 0.000000e+000
      outer loop
         vertex 1.102182e-014 -5.000000e+000 -3.000000e+001
         vertex 1.500000e+001 -5.000000e+000 -2.598076e+001
         vertex -1.500000e+001 -5.000000e+000 -2.598076e+001
      endloop
   endfacet
   facet normal 0.000000e+000 -1.000000e+000 0.000000e+000
      outer loop
         vertex -1.500000e+001 -5.000000e+000 -2.598076e+001
         vertex 1.500000e+001 -5.000000e+000 -2.598076e+001
         vertex 2.598076e+001 -5.000000e+000 -1.500000e+001
      endloop
   endfacet
   facet normal 0.000000e+000 -1.000000e+000 0.000000e+000
      outer loop
         vertex -1.500000e+001 -5.000000e+000 -2.598076e+001
         vertex 2.598076e+001 -5.000000e+000 -1.500000e+001
         vertex -2.598076e+001 -5.000000e+000 -1.500000e+001
      endloop
   endfacet
   facet normal 0.000000e+000 -1.000000e+000 0.000000e+000
      outer loop
         vertex -2.598076e+001 -5.000000e+000 -1.500000e+001
         vertex 2.598076e+001 -5.000000e+000 -1.500000e+001
         vertex -3.000000e+001 -5.000000e+000 -3.215626e-014
      endloop
   endfacet
   facet normal 0.000000e+000 -1.000000e+000 0.000000e+000
      outer loop
         vertex 0.000000e+000 -5.000000e+000 3.000000e+001
         vertex -1.500000e+001 -5.000000e+000 2.598076e+001
         vertex 1.500000e+001 -5.000000e+000 2.598076e+001
      endloop
   endfacet
   facet normal 0.000000e+000 -1.000000e+000 0.000000e+000
      outer loop
         vertex 1.500000e+001 -5.000000e+000 2.598076e+001
         vertex -1.500000e+001 -5.000000e+000 2.598076e+001
         vertex -2.598076e+001 -5.000000e+000 1.500000e+001
      endloop
   endfacet
   facet normal 0.000000e+000 -1.000000e+000 0.000000e+000
      outer loop
         vertex 1.500000e+001 -5.000000e+000 2.598076e+001
         vertex -2.598076e+001 -5.000000e+000 1.500000e+001
         vertex 2.598076e+001 -5.000000e+000 1.500000e+001
      endloop
   endfacet
   facet normal 0.000000e+000 -1.000000e+000 0.000000e+000
      outer loop
         vertex 2.598076e+001 -5.000000e+000 1.500000e+001
         vertex -2.598076e+001 -5.000000e+000 1.500000e+001
         vertex 3.000000e+001 -5.000000e+000 8.498308e-015
      endloop
   endfacet
   facet normal -9.945621e-001 0.000000e+000 1.041446e-001
      outer loop
         vertex -6.000000e+002 5.000000e+000 1.000000e+002
         vertex -6.000000e+002 0.000000e+000 1.000000e+002
         vertex -5.951057e+002 0.000000e+000 1.309017e+002
      endloop
   endfacet
   facet normal -9.780673e-001 0.000000e+000 2.082892e-001
      outer loop
         vertex -6.000000e+002 5.000000e+000 1.000000e+002
         vertex -5.951057e+002 0.000000e+000 1.309017e+002
         vertex -5.951057e+002 5.000000e+000 1.309017e+002
      endloop
   endfacet
   facet normal -9.137024e-001 0.000000e+000 4.063840e-001
      outer loop
         vertex -5.951057e+002 5.000000e+000 1.309017e+002
         vertex -5.951057e+002 0.000000e+000 1.309017e+002
         vertex -5.809017e+002 0.000000e+000 1.587785e+002
      endloop
   endfacet
   facet normal -8.658324e-001 0.000000e+000 5.003342e-001
      outer loop
         vertex -5.951057e+002 5.000000e+000 1.309017e+002
         vertex -5.809017e+002 0.000000e+000 1.587785e+002
         vertex -5.809017e+002 5.000000e+000 1.587785e+002
      endloop
   endfacet
   facet normal -7.434030e-001 0.000000e+000 6.688437e-001
      outer loop
         vertex -5.809017e+002 5.000000e+000 1.587785e+002
         vertex -5.809017e+002 0.000000e+000 1.587785e+002
         vertex -5.587785e+002 0.000000e+000 1.809017e+002
      endloop
   endfacet
   facet normal -6.688437e-001 0.000000e+000 7.434030e-001
      outer loop
         vertex -5.809017e+002 5.000000e+000 1.587785e+002
         vertex -5.587785e+002 0.000000e+000 1.809017e+002
         vertex -5.587785e+002 5.000000e+000 1.809017e+002
      endloop
   endfacet
   facet normal -5.003342e-001 0.000000e+000 8.658324e-001
      outer loop
         vertex -5.587785e+002 5.000000e+000 1.809017e+002
         vertex -5.587785e+002 0.000000e+000 1.809017e+002
         vertex -5.309017e+002 0.000000e+000 1.951057e+002
      endloop
   endfacet
   facet normal -4.063840e-001 0.000000e+000 9.137024e-001
      outer loop
         vertex -5.587785e+002 5.000000e+000 1.809017e+002
         vertex -5.309017e+002 0.000000e+000 1.951057e+002
         vertex -5.309017e+002 5.000000e+000 1.951057e+002
      endloop
   endfacet
   facet normal -2.082892e-001 0.000000e+000 9.780673e-001
      outer loop
         vertex -5.309017e+002 5.000000e+000 1.951057e+002
         vertex -5.309017e+002 0.000000e+000 1.951057e+002
         vertex -5.000000e+002 0.000000e+000 2.000000e+002
      endloop
   endfacet
   facet normal -1.041446e-001 0.000000e+000 9.945621e-001
      outer loop
         vertex -5.309017e+002 5.000000e+000 1.951057e+002
         vertex -5.000000e+002 0.000000e+000 2.000000e+002
         vertex -5.000000e+002 5.000000e+000 2.000000e+002
      endloop
   endfacet
   facet normal -1.041446e-001 0.000000e+000 -9.945621e-001
      outer loop
         vertex -5.000000e+002 5.000000e+000 -2.000000e+002
         vertex -5.000000e+002 0.000000e+000 -2.000000e+002
         vertex -5.309017e+002 0.000000e+000 -1.951057e+002
      endloop
   endfacet
   facet normal -2.082892e-001 0.000000e+000 -9.780673e-001
      outer loop
         vertex -5.000000e+002 5.000000e+000 -2.000000e+002
         vertex -5.309017e+002 0.000000e+000 -1.951057e+002
         vertex -5.309017e+002 5.000000e+000 -1.951057e+002
      endloop
   endfacet
   facet normal -4.063840e-001 0.000000e+000 -9.137024e-001
      outer loop
         vertex -5.309017e+002 5.000000e+000 -1.951057e+002
         vertex -5.309017e+002 0.000000e+000 -1.951057e+002
         vertex -5.587785e+002 0.000000e+000 -1.809017e+002
      endloop
   endfacet
   facet normal -5.003342e-001 0.000000e+000 -8.658324e-001
      outer loop
         vertex -5.309017e+002 5.000000e+000 -1.951057e+002
         vertex -5.587785e+002 0.000000e+000 -1.809017e+002
         vertex -5.587785e+002 5.000000e+000 -1.809017e+002
      endloop
   endfacet
   facet normal -6.688437e-001 0.000000e+000 -7.434030e-001
      outer loop
         vertex -5.587785e+002 5.000000e+000 -1.809017e+002
         vertex -5.587785e+002 0.000000e+000 -1.809017e+002
         vertex -5.809017e+002 0.000000e+000 -1.587785e+002
      endloop
   endfacet
   facet normal -7.434030e-001 0.000000e+000 -6.688437e-001
      outer loop
         vertex -5.587785e+002 5.000000e+000 -1.809017e+002
         vertex -5.809017e+002 0.000000e+000 -1.587785e+002
         vertex -5.809017e+002 5.000000e+000 -1.587785e+002
      endloop
   endfacet
   facet normal -8.658324e-001 0.000000e+000 -5.003342e-001
      outer loop
         vertex -5.809017e+002 5.000000e+000 -1.587785e+002
         vertex -5.809017e+002 0.000000e+000 -1.587785e+002
         vertex -5.951057e+002 0.000000e+000 -1.309017e+002
      endloop
   endfacet
   facet normal -9.137024e-001 0.000000e+000 -4.063840e-001
      outer loop
         vertex -5.809017e+002 5.000000e+000 -1.587785e+002
         vertex -5.951057e+002 0.000000e+000 -1.309017e+002
         vertex -5.951057e+002 5.000000e+000 -1.309017e+002
      endloop
   endfacet
   facet normal -9.780673e-001 0.000000e+000 -2.082892e-001
      outer loop
         vertex -5.951057e+002 5.000000e+000 -1.309017e+002
         vertex -5.951057e+002 0.000000e+000 -1.309017e+002
         vertex -6.000000e+002 0.000000e+000 -1.000000e+002
      endloop
   endfacet
   facet normal -9.945621e-001 0.000000e+000 -1.041446e-001
      outer loop
         vertex -5.951057e+002 5.000000e+000 -1.309017e+002
         vertex -6.000000e+002 0.000000e+000 -1.000000e+002
         vertex -6.000000e+002 5.000000e+000 -1.000000e+002
      endloop
   endfacet
   facet normal 9.945621e-001 0.000000e+000 -1.041446e-001
      outer loop
         vertex 6.000000e+002 5.000000e+000 -1.000000e+002
         vertex 6.000000e+002 0.000000e+000 -1.000000e+002
         vertex 5.951057e+002 0.000000e+000 -1.309017e+002
      endloop
   endfacet
   facet normal 9.780673e-001 0.000000e+000 -2.082892e-001
      outer loop
         vertex 6.000000e+002 5.000000e+000 -1.000000e+002
         vertex 5.951057e+002 0.000000e+000 -1.309017e+002
         vertex 5.951057e+002 5.000000e+000 -1.309017e+002
      endloop
   endfacet
   facet normal 9.137024e-001 0.000000e+000 -4.063840e-001
      outer loop
         vertex 5.951057e+002 5.000000e+000 -1.309017e+002
         vertex 5.951057e+002 0.000000e+000 -1.309017e+002
         vertex 5.809017e+002 0.000000e+000 -1.587785e+002
      endloop
   endfacet
   facet normal 8.658324e-001 0.000000e+000 -5.003342e-001
      outer loop
         vertex 5.951057e+002 5.000000e+000 -1.309017e+002
         vertex 5.809017e+002 0.000000e+000 -1.587785e+002
         vertex 5.809017e+002 5.000000e+000 -1.587785e+002
      endloop
   endfacet
   facet normal 7.434030e-001 0.000000e+000 -6.688437e-001
      outer loop
         vertex 5.809017e+002 5.000000e+000 -1.587785e+002
         vertex 5.809017e+002 0.000000e+000 -1.587785e+002
         vertex 5.587785e+002 0.000000e+000 -1.809017e+002
      endloop
   endfacet
   facet normal 6.688437e-001 0.000000e+000 -7.434030e-001
      outer loop
         vertex 5.809017e+002 5.000000e+000 -1.587785e+002
         vertex 5.587785e+002 0.000000e+000 -1.809017e+002
         vertex 5.587785e+002 5.000000e+000 -1.809017e+002
      endloop
   endfacet
   facet normal 5.003342e-001 0.000000e+000 -8.658324e-001
      outer loop
         vertex 5.587785e+002 5.000000e+000 -1.809017e+002
         vertex 5.587785e+002 0.000000e+000 -1.809017e+002
         vertex 5.309017e+002 0.000000e+000 -1.951057e+002
      endloop
   endfacet
   facet normal 4.063840e-001 0.000000e+000 -9.137024e-001
      outer loop
         vertex 5.587785e+002 5.000000e+000 -1.809017e+002
         vertex 5.309017e+002 0.000000e+000 -1.951057e+002
         vertex 5.309017e+002 5.000000e+000 -1.951057e+002
      endloop
   endfacet
   facet normal 2.082892e-001 0.000000e+000 -9.780673e-001
      outer loop
         vertex 5.309017e+002 5.000000e+000 -1.951057e+002
         vertex 5.309017e+002 0.000000e+000 -1.951057e+002
         vertex 5.000000e+002 0.000000e+000 -2.000000e+002
      endloop
   endfacet
   facet normal 1.041446e-001 0.000000e+000 -9.945621e-001
      outer loop
         vertex 5.309017e+002 5.000000e+000 -1.951057e+002
         vertex 5.000000e+002 0.000000e+000 -2.000000e+002
         vertex 5.000000e+002 5.000000e+000 -2.000000e+002
      endloop
   endfacet
   facet normal 1.041446e-001 0.000000e+000 9.945621e-001
      outer loop
         vertex 5.000000e+002 5.000000e+000 2.000000e+002
         vertex 5.000000e+002 0.000000e+000 2.000000e+002
         vertex 5.309017e+002 0.000000e+000 1.951057e+002
      endloop
   endfacet
   facet normal 2.082892e-001 0.000000e+000 9.780673e-001
      outer loop
         vertex 5.000000e+002 5.000000e+000 2.000000e+002
         vertex 5.309017e+002 0.000000e+000 1.951057e+002
         vertex 5.309017e+002 5.000000e+000 1.951057e+002
      endloop
   endfacet
   facet normal 4.063840e-001 0.000000e+000 9.137024e-001
      outer loop
         vertex 5.309017e+002 5.000000e+000 1.951057e+002
         vertex 5.309017e+002 0.000000e+000 1.951057e+002
         vertex 5.587785e+002 0.000000e+000 1.809017e+002
      endloop
   endfacet
   facet normal 5.003342e-001 0.000000e+000 8.658324e-001
      outer loop
         vertex 5.309017e+002 5.000000e+000 1.951057e+002
         vertex 5.587785e+002 0.000000e+000 1.809017e+002
         vertex 5.587785e+002 5.000000e+000 1.809017e+002
      endloop
   endfacet
   facet normal 6.688437e-001 0.000000e+000 7.434030e-001
      outer loop
         vertex 5.587785e+002 5.000000e+000 1.809017e+002
         vertex 5.587785e+002 0.000000e+000 1.809017e+002
         vertex 5.809017e+002 0.000000e+000 1.587785e+002
      endloop
   endfacet
   facet normal 7.434030e-001 0.000000e+000 6.688437e-001
      outer loop
         vertex 5.587785e+002 5.000000e+000 1.809017e+002
         vertex 5.809017e+002 0.000000e+000 1.587785e+002
         vertex 5.809017e+002 5.000000e+000 1.587785e+002
      endloop
   endfacet
   facet normal 8.658324e-001 0.000000e+000 5.003342e-001
      outer loop
         vertex 5.809017e+002 5.000000e+000 1.587785e+002
         vertex 5.809017e+002 0.000000e+000 1.587785e+002
         vertex 5.951057e+002 0.000000e+000 1.309017e+002
      endloop
   endfacet
   facet normal 9.137024e-001 0.000000e+000 4.063840e-001
      outer loop
         vertex 5.809017e+002 5.000000e+000 1.587785e+002
         vertex 5.951057e+002 0.000000e+000 1.309017e+002
         vertex 5.951057e+002 5.000000e+000 1.309017e+002
      endloop
   endfacet
   facet normal 9.780673e-001 0.000000e+000 2.082892e-001
      outer loop
         vertex 5.951057e+002 5.000000e+000 1.309017e+002
         vertex 5.951057e+002 0.000000e+000 1.309017e+002
         vertex 6.000000e+002 0.000000e+000 1.000000e+002
      endloop
   endfacet
   facet normal 9.945621e-001 0.000000e+000 1.041446e-001
      outer loop
         vertex 5.951057e+002 5.000000e+000 1.309017e+002
         vertex 6.000000e+002 0.000000e+000 1.000000e+002
         vertex 6.000000e+002 5.000000e+000 1.000000e+002
      endloop
   endfacet
endsolid