solid bottom_д╛хо_sldprt
   facet normal 0.000000e+000 9.983119e-001 -5.807913e-002
      outer loop
         vertex 2.600903e+000 -2.442912e+002 6.208773e-001
         vertex 1.600902e+000 -2.442912e+002 6.208773e-001
         vertex 1.600902e+000 -2.415566e+002 3.187755e+001
      endloop
   endfacet
   facet normal 0.000000e+000 9.932307e-001 -1.161583e-001
      outer loop
         vertex 2.600903e+000 -2.442912e+002 6.208773e-001
         vertex 1.600902e+000 -2.415566e+002 3.187755e+001
         vertex 2.600903e+000 -2.415566e+002 3.187755e+001
      endloop
   endfacet
   facet normal 0.000000e+000 9.730600e-001 -2.305519e-001
      outer loop
         vertex 2.600903e+000 -2.415566e+002 3.187755e+001
         vertex 1.600902e+000 -2.415566e+002 3.187755e+001
         vertex 1.600902e+000 -2.334358e+002 6.218450e+001
      endloop
   endfacet
   facet normal 0.000000e+000 9.579706e-001 -2.868663e-001
      outer loop
         vertex 2.600903e+000 -2.415566e+002 3.187755e+001
         vertex 1.600902e+000 -2.334358e+002 6.218450e+001
         vertex 2.600903e+000 -2.334358e+002 6.218450e+001
      endloop
   endfacet
   facet normal 0.000000e+000 9.182422e-001 -3.960194e-001
      outer loop
         vertex 2.600903e+000 -2.334358e+002 6.218450e+001
         vertex 1.600902e+000 -2.334358e+002 6.218450e+001
         vertex 1.600902e+000 -2.201758e+002 9.062087e+001
      endloop
   endfacet
   facet normal 0.000000e+000 8.936031e-001 -4.488580e-001
      outer loop
         vertex 2.600903e+000 -2.334358e+002 6.218450e+001
         vertex 1.600902e+000 -2.201758e+002 9.062087e+001
         vertex 2.600903e+000 -2.201758e+002 9.062087e+001
      endloop
   endfacet
   facet normal 0.000000e+000 8.355240e-001 -5.494540e-001
      outer loop
         vertex 2.600903e+000 -2.201758e+002 9.062087e+001
         vertex 1.600902e+000 -2.201758e+002 9.062087e+001
         vertex 1.600902e+000 -2.021792e+002 1.163226e+002
      endloop
   endfacet
   facet normal 0.000000e+000 8.020838e-001 -5.972114e-001
      outer loop
         vertex 2.600903e+000 -2.201758e+002 9.062087e+001
         vertex 1.600902e+000 -2.021792e+002 1.163226e+002
         vertex 2.600903e+000 -2.021792e+002 1.163226e+002
      endloop
   endfacet
   facet normal 0.000000e+000 7.274188e-001 -6.861938e-001
      outer loop
         vertex 2.600903e+000 -2.021792e+002 1.163226e+002
         vertex 1.600902e+000 -2.021792e+002 1.163226e+002
         vertex 1.600902e+000 -1.799930e+002 1.385089e+002
      endloop
   endfacet
   facet normal 0.000000e+000 6.861938e-001 -7.274188e-001
      outer loop
         vertex 2.600903e+000 -2.021792e+002 1.163226e+002
         vertex 1.600902e+000 -1.799930e+002 1.385089e+002
         vertex 2.600903e+000 -1.799930e+002 1.385089e+002
      endloop
   endfacet
   facet normal 0.000000e+000 5.972114e-001 -8.020838e-001
      outer loop
         vertex 2.600903e+000 -1.799930e+002 1.385089e+002
         vertex 1.600902e+000 -1.799930e+002 1.385089e+002
         vertex 1.600902e+000 -1.542912e+002 1.565054e+002
      endloop
   endfacet
   facet normal 0.000000e+000 5.494540e-001 -8.355240e-001
      outer loop
         vertex 2.600903e+000 -1.799930e+002 1.385089e+002
         vertex 1.600902e+000 -1.542912e+002 1.565054e+002
         vertex 2.600903e+000 -1.542912e+002 1.565054e+002
      endloop
   endfacet
   facet normal 0.000000e+000 4.488580e-001 -8.936031e-001
      outer loop
         vertex 2.600903e+000 -1.542912e+002 1.565054e+002
         vertex 1.600902e+000 -1.542912e+002 1.565054e+002
         vertex 1.600902e+000 -1.258548e+002 1.697655e+002
      endloop
   endfacet
   facet normal 0.000000e+000 3.960194e-001 -9.182422e-001
      outer loop
         vertex 2.600903e+000 -1.542912e+002 1.565054e+002
         vertex 1.600902e+000 -1.258548e+002 1.697655e+002
         vertex 2.600903e+000 -1.258548e+002 1.697655e+002
      endloop
   endfacet
   facet normal 0.000000e+000 2.868663e-001 -9.579706e-001
      outer loop
         vertex 2.600903e+000 -1.258548e+002 1.697655e+002
         vertex 1.600902e+000 -1.258548e+002 1.697655e+002
         vertex 1.600902e+000 -9.554784e+001 1.778863e+002
      endloop
   endfacet
   facet normal 0.000000e+000 2.305519e-001 -9.730600e-001
      outer loop
         vertex 2.600903e+000 -1.258548e+002 1.697655e+002
         vertex 1.600902e+000 -9.554784e+001 1.778863e+002
         vertex 2.600903e+000 -9.554784e+001 1.778863e+002
      endloop
   endfacet
   facet normal 0.000000e+000 1.161583e-001 -9.932307e-001
      outer loop
         vertex 2.600903e+000 -9.554784e+001 1.778863e+002
         vertex 1.600902e+000 -9.554784e+001 1.778863e+002
         vertex 1.600902e+000 -6.429117e+001 1.806209e+002
      endloop
   endfacet
   facet normal 0.000000e+000 5.807913e-002 -9.983119e-001
      outer loop
         vertex 2.600903e+000 -9.554784e+001 1.778863e+002
         vertex 1.600902e+000 -6.429117e+001 1.806209e+002
         vertex 2.600903e+000 -6.429117e+001 1.806209e+002
      endloop
   endfacet
   facet normal 0.000000e+000 5.807913e-002 9.983119e-001
      outer loop
         vertex 2.600903e+000 -6.429117e+001 -1.793791e+002
         vertex 1.600902e+000 -6.429117e+001 -1.793791e+002
         vertex 1.600902e+000 -9.554784e+001 -1.766445e+002
      endloop
   endfacet
   facet normal 0.000000e+000 1.161583e-001 9.932307e-001
      outer loop
         vertex 2.600903e+000 -6.429117e+001 -1.793791e+002
         vertex 1.600902e+000 -9.554784e+001 -1.766445e+002
         vertex 2.600903e+000 -9.554784e+001 -1.766445e+002
      endloop
   endfacet
   facet normal 0.000000e+000 2.305519e-001 9.730600e-001
      outer loop
         vertex 2.600903e+000 -9.554784e+001 -1.766445e+002
         vertex 1.600902e+000 -9.554784e+001 -1.766445e+002
         vertex 1.600902e+000 -1.258548e+002 -1.685238e+002
      endloop
   endfacet
   facet normal 0.000000e+000 2.868663e-001 9.579706e-001
      outer loop
         vertex 2.600903e+000 -9.554784e+001 -1.766445e+002
         vertex 1.600902e+000 -1.258548e+002 -1.685238e+002
         vertex 2.600903e+000 -1.258548e+002 -1.685238e+002
      endloop
   endfacet
   facet normal 0.000000e+000 3.960194e-001 9.182422e-001
      outer loop
         vertex 2.600903e+000 -1.258548e+002 -1.685238e+002
         vertex 1.600902e+000 -1.258548e+002 -1.685238e+002
         vertex 1.600902e+000 -1.542912e+002 -1.552637e+002
      endloop
   endfacet
   facet normal 0.000000e+000 4.488580e-001 8.936031e-001
      outer loop
         vertex 2.600903e+000 -1.258548e+002 -1.685238e+002
         vertex 1.600902e+000 -1.542912e+002 -1.552637e+002
         vertex 2.600903e+000 -1.542912e+002 -1.552637e+002
      endloop
   endfacet
   facet normal 0.000000e+000 5.494540e-001 8.355240e-001
      outer loop
         vertex 2.600903e+000 -1.542912e+002 -1.552637e+002
         vertex 1.600902e+000 -1.542912e+002 -1.552637e+002
         vertex 1.600902e+000 -1.799930e+002 -1.372671e+002
      endloop
   endfacet
   facet normal 0.000000e+000 5.972114e-001 8.020838e-001
      outer loop
         vertex 2.600903e+000 -1.542912e+002 -1.552637e+002
         vertex 1.600902e+000 -1.799930e+002 -1.372671e+002
         vertex 2.600903e+000 -1.799930e+002 -1.372671e+002
      endloop
   endfacet
   facet normal 0.000000e+000 6.861938e-001 7.274188e-001
      outer loop
         vertex 2.600903e+000 -1.799930e+002 -1.372671e+002
         vertex 1.600902e+000 -1.799930e+002 -1.372671e+002
         vertex 1.600902e+000 -2.021792e+002 -1.150809e+002
      endloop
   endfacet
   facet normal 0.000000e+000 7.274188e-001 6.861938e-001
      outer loop
         vertex 2.600903e+000 -1.799930e+002 -1.372671e+002
         vertex 1.600902e+000 -2.021792e+002 -1.150809e+002
         vertex 2.600903e+000 -2.021792e+002 -1.150809e+002
      endloop
   endfacet
   facet normal 0.000000e+000 8.020838e-001 5.972114e-001
      outer loop
         vertex 2.600903e+000 -2.021792e+002 -1.150809e+002
         vertex 1.600902e+000 -2.021792e+002 -1.150809e+002
         vertex 1.600902e+000 -2.201758e+002 -8.937913e+001
      endloop
   endfacet
   facet normal 0.000000e+000 8.355240e-001 5.494540e-001
      outer loop
         vertex 2.600903e+000 -2.021792e+002 -1.150809e+002
         vertex 1.600902e+000 -2.201758e+002 -8.937913e+001
         vertex 2.600903e+000 -2.201758e+002 -8.937913e+001
      endloop
   endfacet
   facet normal 0.000000e+000 8.936031e-001 4.488580e-001
      outer loop
         vertex 2.600903e+000 -2.201758e+002 -8.937913e+001
         vertex 1.600902e+000 -2.201758e+002 -8.937913e+001
         vertex 1.600902e+000 -2.334358e+002 -6.094275e+001
      endloop
   endfacet
   facet normal 0.000000e+000 9.182422e-001 3.960194e-001
      outer loop
         vertex 2.600903e+000 -2.201758e+002 -8.937913e+001
         vertex 1.600902e+000 -2.334358e+002 -6.094275e+001
         vertex 2.600903e+000 -2.334358e+002 -6.094275e+001
      endloop
   endfacet
   facet normal 0.000000e+000 9.579706e-001 2.868663e-001
      outer loop
         vertex 2.600903e+000 -2.334358e+002 -6.094275e+001
         vertex 1.600902e+000 -2.334358e+002 -6.094275e+001
         vertex 1.600902e+000 -2.415566e+002 -3.063579e+001
      endloop
   endfacet
   facet normal 0.000000e+000 9.730600e-001 2.305519e-001
      outer loop
         vertex 2.600903e+000 -2.334358e+002 -6.094275e+001
         vertex 1.600902e+000 -2.415566e+002 -3.063579e+001
         vertex 2.600903e+000 -2.415566e+002 -3.063579e+001
      endloop
   endfacet
   facet normal 0.000000e+000 9.932307e-001 1.161583e-001
      outer loop
         vertex 2.600903e+000 -2.415566e+002 -3.063579e+001
         vertex 1.600902e+000 -2.415566e+002 -3.063579e+001
         vertex 1.600902e+000 -2.442912e+002 6.208773e-001
      endloop
   endfacet
   facet normal 0.000000e+000 9.983119e-001 5.807913e-002
      outer loop
         vertex 2.600903e+000 -2.415566e+002 -3.063579e+001
         vertex 1.600902e+000 -2.442912e+002 6.208773e-001
         vertex 2.600903e+000 -2.442912e+002 6.208773e-001
      endloop
   endfacet
   facet normal 1.000000e+000 0.000000e+000 0.000000e+000
      outer loop
         vertex 7.600903e+000 -6.429117e+001 2.196209e+002
         vertex 7.600903e+000 -2.710676e+002 2.196209e+002
         vertex 7.600903e+000 -2.710676e+002 1.823517e+002
      endloop
   endfacet
   facet normal 1.000000e+000 0.000000e+000 0.000000e+000
      outer loop
         vertex 7.600903e+000 -2.733513e+002 1.708712e+002
         vertex 7.600903e+000 -2.798544e+002 1.611384e+002
         vertex 7.600903e+000 -2.812676e+002 1.421517e+002
      endloop
   endfacet
   facet normal 1.000000e+000 0.000000e+000 0.000000e+000
      outer loop
         vertex 7.600903e+000 -2.798544e+002 -1.564352e+002
         vertex 7.600903e+000 -2.733513e+002 -1.661678e+002
         vertex 7.600903e+000 -6.429117e+001 -2.183791e+002
      endloop
   endfacet
   facet normal 1.000000e+000 0.000000e+000 0.000000e+000
      outer loop
         vertex 7.600903e+000 -6.429117e+001 -2.183791e+002
         vertex 7.600903e+000 -2.733513e+002 -1.661678e+002
         vertex 7.600903e+000 -2.710676e+002 -1.776483e+002
      endloop
   endfacet
   facet normal 1.000000e+000 0.000000e+000 0.000000e+000
      outer loop
         vertex 7.600903e+000 -6.429117e+001 -2.183791e+002
         vertex 7.600903e+000 -2.710676e+002 -1.776483e+002
         vertex 7.600903e+000 -2.710676e+002 -2.183791e+002
      endloop
   endfacet
   facet normal 1.000000e+000 0.000000e+000 0.000000e+000
      outer loop
         vertex 7.600903e+000 -2.895871e+002 -1.499320e+002
         vertex 7.600903e+000 -2.812676e+002 -1.374483e+002
         vertex 7.600903e+000 -3.010676e+002 -1.476483e+002
      endloop
   endfacet
   facet normal 1.000000e+000 0.000000e+000 0.000000e+000
      outer loop
         vertex 7.600903e+000 -3.010676e+002 -1.476483e+002
         vertex 7.600903e+000 -2.812676e+002 -1.374483e+002
         vertex 7.600903e+000 -5.608676e+002 -1.374483e+002
      endloop
   endfacet
   facet normal 1.000000e+000 0.000000e+000 0.000000e+000
      outer loop
         vertex 7.600903e+000 -2.798544e+002 1.611384e+002
         vertex 7.600903e+000 -2.895871e+002 1.546353e+002
         vertex 7.600903e+000 -2.812676e+002 1.421517e+002
      endloop
   endfacet
   facet normal 1.000000e+000 0.000000e+000 0.000000e+000
      outer loop
         vertex 7.600903e+000 -2.812676e+002 1.421517e+002
         vertex 7.600903e+000 -2.895871e+002 1.546353e+002
         vertex 7.600903e+000 -3.010676e+002 1.523517e+002
      endloop
   endfacet
   facet normal 1.000000e+000 0.000000e+000 0.000000e+000
      outer loop
         vertex 7.600903e+000 -2.812676e+002 1.421517e+002
         vertex 7.600903e+000 -3.010676e+002 1.523517e+002
         vertex 7.600903e+000 -5.608676e+002 1.421517e+002
      endloop
   endfacet
   facet normal 1.000000e+000 0.000000e+000 0.000000e+000
      outer loop
         vertex 7.600903e+000 -5.608676e+002 1.421517e+002
         vertex 7.600903e+000 -3.010676e+002 1.523517e+002
         vertex 7.600903e+000 -5.710676e+002 1.523517e+002
      endloop
   endfacet
   facet normal 1.000000e+000 0.000000e+000 0.000000e+000
      outer loop
         vertex 7.600903e+000 -5.608676e+002 1.421517e+002
         vertex 7.600903e+000 -5.710676e+002 1.523517e+002
         vertex 7.600903e+000 -5.608676e+002 -1.374483e+002
      endloop
   endfacet
   facet normal 1.000000e+000 0.000000e+000 0.000000e+000
      outer loop
         vertex 7.600903e+000 -5.608676e+002 -1.374483e+002
         vertex 7.600903e+000 -5.710676e+002 1.523517e+002
         vertex 7.600903e+000 -5.710676e+002 -1.476483e+002
      endloop
   endfacet
   facet normal 1.000000e+000 0.000000e+000 0.000000e+000
      outer loop
         vertex 7.600903e+000 -5.608676e+002 -1.374483e+002
         vertex 7.600903e+000 -5.710676e+002 -1.476483e+002
         vertex 7.600903e+000 -3.010676e+002 -1.476483e+002
      endloop
   endfacet
   facet normal 1.000000e+000 0.000000e+000 0.000000e+000
      outer loop
         vertex 7.600903e+000 -2.895871e+002 -1.499320e+002
         vertex 7.600903e+000 -2.798544e+002 -1.564352e+002
         vertex 7.600903e+000 -2.812676e+002 -1.374483e+002
      endloop
   endfacet
   facet normal 1.000000e+000 0.000000e+000 0.000000e+000
      outer loop
         vertex 7.600903e+000 -2.812676e+002 -1.374483e+002
         vertex 7.600903e+000 -2.798544e+002 -1.564352e+002
         vertex 7.600903e+000 -6.429117e+001 -2.183791e+002
      endloop
   endfacet
   facet normal 1.000000e+000 0.000000e+000 0.000000e+000
      outer loop
         vertex 7.600903e+000 -2.812676e+002 -1.374483e+002
         vertex 7.600903e+000 -6.429117e+001 -2.183791e+002
         vertex 7.600903e+000 -2.812676e+002 1.421517e+002
      endloop
   endfacet
   facet normal 1.000000e+000 0.000000e+000 0.000000e+000
      outer loop
         vertex 7.600903e+000 -2.812676e+002 1.421517e+002
         vertex 7.600903e+000 -6.429117e+001 -2.183791e+002
         vertex 7.600903e+000 -6.429117e+001 2.196209e+002
      endloop
   endfacet
   facet normal 1.000000e+000 0.000000e+000 0.000000e+000
      outer loop
         vertex 7.600903e+000 -2.812676e+002 1.421517e+002
         vertex 7.600903e+000 -6.429117e+001 2.196209e+002
         vertex 7.600903e+000 -2.733513e+002 1.708712e+002
      endloop
   endfacet
   facet normal 1.000000e+000 0.000000e+000 0.000000e+000
      outer loop
         vertex 7.600903e+000 -2.733513e+002 1.708712e+002
         vertex 7.600903e+000 -6.429117e+001 2.196209e+002
         vertex 7.600903e+000 -2.710676e+002 1.823517e+002
      endloop
   endfacet
   facet normal -1.000000e+000 0.000000e+000 0.000000e+000
      outer loop
         vertex 1.600902e+000 -2.021792e+002 -1.150809e+002
         vertex 1.600902e+000 -1.799930e+002 -1.372671e+002
         vertex 1.600902e+000 -2.733513e+002 -1.661678e+002
      endloop
   endfacet
   facet normal -1.000000e+000 0.000000e+000 0.000000e+000
      outer loop
         vertex 1.600902e+000 -2.733513e+002 -1.661678e+002
         vertex 1.600902e+000 -1.799930e+002 -1.372671e+002
         vertex 1.600902e+000 -2.710676e+002 -1.776483e+002
      endloop
   endfacet
   facet normal -1.000000e+000 0.000000e+000 0.000000e+000
      outer loop
         vertex 1.600902e+000 -6.429117e+001 -2.183791e+002
         vertex 1.600902e+000 -2.710676e+002 -2.183791e+002
         vertex 1.600902e+000 -2.710676e+002 -1.776483e+002
      endloop
   endfacet
   facet normal -1.000000e+000 0.000000e+000 0.000000e+000
      outer loop
         vertex 1.600902e+000 -2.021792e+002 -1.150809e+002
         vertex 1.600902e+000 -2.733513e+002 -1.661678e+002
         vertex 1.600902e+000 -2.201758e+002 -8.937913e+001
      endloop
   endfacet
   facet normal -1.000000e+000 0.000000e+000 0.000000e+000
      outer loop
         vertex 1.600902e+000 -2.201758e+002 -8.937913e+001
         vertex 1.600902e+000 -2.733513e+002 -1.661678e+002
         vertex 1.600902e+000 -2.798544e+002 -1.564352e+002
      endloop
   endfacet
   facet normal -1.000000e+000 0.000000e+000 0.000000e+000
      outer loop
         vertex 1.600902e+000 -2.201758e+002 -8.937913e+001
         vertex 1.600902e+000 -2.798544e+002 -1.564352e+002
         vertex 1.600902e+000 -2.334358e+002 -6.094275e+001
      endloop
   endfacet
   facet normal -1.000000e+000 0.000000e+000 0.000000e+000
      outer loop
         vertex 1.600902e+000 -2.334358e+002 -6.094275e+001
         vertex 1.600902e+000 -2.798544e+002 -1.564352e+002
         vertex 1.600902e+000 -2.895871e+002 -1.499320e+002
      endloop
   endfacet
   facet normal -1.000000e+000 0.000000e+000 0.000000e+000
      outer loop
         vertex 1.600902e+000 -2.334358e+002 -6.094275e+001
         vertex 1.600902e+000 -2.895871e+002 -1.499320e+002
         vertex 1.600902e+000 -2.415566e+002 -3.063579e+001
      endloop
   endfacet
   facet normal -1.000000e+000 0.000000e+000 0.000000e+000
      outer loop
         vertex 1.600902e+000 -6.429117e+001 1.806209e+002
         vertex 1.600902e+000 -9.554784e+001 1.778863e+002
         vertex 1.600902e+000 -6.429117e+001 2.196209e+002
      endloop
   endfacet
   facet normal -1.000000e+000 0.000000e+000 0.000000e+000
      outer loop
         vertex 1.600902e+000 -6.429117e+001 2.196209e+002
         vertex 1.600902e+000 -9.554784e+001 1.778863e+002
         vertex 1.600902e+000 -1.258548e+002 1.697655e+002
      endloop
   endfacet
   facet normal -1.000000e+000 0.000000e+000 0.000000e+000
      outer loop
         vertex 1.600902e+000 -1.799930e+002 -1.372671e+002
         vertex 1.600902e+000 -1.542912e+002 -1.552637e+002
         vertex 1.600902e+000 -2.710676e+002 -1.776483e+002
      endloop
   endfacet
   facet normal -1.000000e+000 0.000000e+000 0.000000e+000
      outer loop
         vertex 1.600902e+000 -2.710676e+002 -1.776483e+002
         vertex 1.600902e+000 -1.542912e+002 -1.552637e+002
         vertex 1.600902e+000 -1.258548e+002 -1.685238e+002
      endloop
   endfacet
   facet normal -1.000000e+000 0.000000e+000 0.000000e+000
      outer loop
         vertex 1.600902e+000 -2.710676e+002 -1.776483e+002
         vertex 1.600902e+000 -1.258548e+002 -1.685238e+002
         vertex 1.600902e+000 -6.429117e+001 -2.183791e+002
      endloop
   endfacet
   facet normal -1.000000e+000 0.000000e+000 0.000000e+000
      outer loop
         vertex 1.600902e+000 -6.429117e+001 -2.183791e+002
         vertex 1.600902e+000 -1.258548e+002 -1.685238e+002
         vertex 1.600902e+000 -9.554784e+001 -1.766445e+002
      endloop
   endfacet
   facet normal -1.000000e+000 0.000000e+000 0.000000e+000
      outer loop
         vertex 1.600902e+000 -6.429117e+001 -2.183791e+002
         vertex 1.600902e+000 -9.554784e+001 -1.766445e+002
         vertex 1.600902e+000 -6.429117e+001 -1.793791e+002
      endloop
   endfacet
   facet normal -1.000000e+000 0.000000e+000 0.000000e+000
      outer loop
         vertex 1.600902e+000 -5.710676e+002 -1.476483e+002
         vertex 1.600902e+000 -5.710676e+002 1.523517e+002
         vertex 1.600902e+000 -3.010676e+002 -1.476483e+002
      endloop
   endfacet
   facet normal -1.000000e+000 0.000000e+000 0.000000e+000
      outer loop
         vertex 1.600902e+000 -3.010676e+002 -1.476483e+002
         vertex 1.600902e+000 -5.710676e+002 1.523517e+002
         vertex 1.600902e+000 -3.010676e+002 1.523517e+002
      endloop
   endfacet
   facet normal -1.000000e+000 0.000000e+000 0.000000e+000
      outer loop
         vertex 1.600902e+000 -3.010676e+002 -1.476483e+002
         vertex 1.600902e+000 -3.010676e+002 1.523517e+002
         vertex 1.600902e+000 -2.895871e+002 -1.499320e+002
      endloop
   endfacet
   facet normal -1.000000e+000 0.000000e+000 0.000000e+000
      outer loop
         vertex 1.600902e+000 -2.415566e+002 -3.063579e+001
         vertex 1.600902e+000 -2.895871e+002 -1.499320e+002
         vertex 1.600902e+000 -2.442912e+002 6.208773e-001
      endloop
   endfacet
   facet normal -1.000000e+000 0.000000e+000 0.000000e+000
      outer loop
         vertex 1.600902e+000 -2.442912e+002 6.208773e-001
         vertex 1.600902e+000 -2.895871e+002 -1.499320e+002
         vertex 1.600902e+000 -3.010676e+002 1.523517e+002
      endloop
   endfacet
   facet normal -1.000000e+000 0.000000e+000 0.000000e+000
      outer loop
         vertex 1.600902e+000 -2.442912e+002 6.208773e-001
         vertex 1.600902e+000 -3.010676e+002 1.523517e+002
         vertex 1.600902e+000 -2.415566e+002 3.187755e+001
      endloop
   endfacet
   facet normal -1.000000e+000 0.000000e+000 0.000000e+000
      outer loop
         vertex 1.600902e+000 -2.415566e+002 3.187755e+001
         vertex 1.600902e+000 -3.010676e+002 1.523517e+002
         vertex 1.600902e+000 -2.895871e+002 1.546353e+002
      endloop
   endfacet
   facet normal -1.000000e+000 0.000000e+000 0.000000e+000
      outer loop
         vertex 1.600902e+000 -2.415566e+002 3.187755e+001
         vertex 1.600902e+000 -2.895871e+002 1.546353e+002
         vertex 1.600902e+000 -2.334358e+002 6.218450e+001
      endloop
   endfacet
   facet normal -1.000000e+000 0.000000e+000 0.000000e+000
      outer loop
         vertex 1.600902e+000 -2.334358e+002 6.218450e+001
         vertex 1.600902e+000 -2.895871e+002 1.546353e+002
         vertex 1.600902e+000 -2.201758e+002 9.062087e+001
      endloop
   endfacet
   facet normal -1.000000e+000 0.000000e+000 0.000000e+000
      outer loop
         vertex 1.600902e+000 -2.201758e+002 9.062087e+001
         vertex 1.600902e+000 -2.895871e+002 1.546353e+002
         vertex 1.600902e+000 -2.798544e+002 1.611384e+002
      endloop
   endfacet
   facet normal -1.000000e+000 0.000000e+000 0.000000e+000
      outer loop
         vertex 1.600902e+000 -2.201758e+002 9.062087e+001
         vertex 1.600902e+000 -2.798544e+002 1.611384e+002
         vertex 1.600902e+000 -2.021792e+002 1.163226e+002
      endloop
   endfacet
   facet normal -1.000000e+000 0.000000e+000 0.000000e+000
      outer loop
         vertex 1.600902e+000 -2.021792e+002 1.163226e+002
         vertex 1.600902e+000 -2.798544e+002 1.611384e+002
         vertex 1.600902e+000 -2.733513e+002 1.708712e+002
      endloop
   endfacet
   facet normal -1.000000e+000 0.000000e+000 0.000000e+000
      outer loop
         vertex 1.600902e+000 -2.021792e+002 1.163226e+002
         vertex 1.600902e+000 -2.733513e+002 1.708712e+002
         vertex 1.600902e+000 -1.799930e+002 1.385089e+002
      endloop
   endfacet
   facet normal -1.000000e+000 0.000000e+000 0.000000e+000
      outer loop
         vertex 1.600902e+000 -1.799930e+002 1.385089e+002
         vertex 1.600902e+000 -2.733513e+002 1.708712e+002
         vertex 1.600902e+000 -1.542912e+002 1.565054e+002
      endloop
   endfacet
   facet normal -1.000000e+000 0.000000e+000 0.000000e+000
      outer loop
         vertex 1.600902e+000 -1.542912e+002 1.565054e+002
         vertex 1.600902e+000 -2.733513e+002 1.708712e+002
         vertex 1.600902e+000 -2.710676e+002 1.823517e+002
      endloop
   endfacet
   facet normal -1.000000e+000 0.000000e+000 0.000000e+000
      outer loop
         vertex 1.600902e+000 -1.542912e+002 1.565054e+002
         vertex 1.600902e+000 -2.710676e+002 1.823517e+002
         vertex 1.600902e+000 -1.258548e+002 1.697655e+002
      endloop
   endfacet
   facet normal -1.000000e+000 0.000000e+000 0.000000e+000
      outer loop
         vertex 1.600902e+000 -1.258548e+002 1.697655e+002
         vertex 1.600902e+000 -2.710676e+002 1.823517e+002
         vertex 1.600902e+000 -2.710676e+002 2.196209e+002
      endloop
   endfacet
   facet normal -1.000000e+000 0.000000e+000 0.000000e+000
      outer loop
         vertex 1.600902e+000 -1.258548e+002 1.697655e+002
         vertex 1.600902e+000 -2.710676e+002 2.196209e+002
         vertex 1.600902e+000 -6.429117e+001 2.196209e+002
      endloop
   endfacet
   facet normal 0.000000e+000 -1.110223e-016 1.000000e+000
      outer loop
         vertex 1.600902e+000 -3.010676e+002 1.523517e+002
         vertex 1.600902e+000 -5.710676e+002 1.523517e+002
         vertex 7.600903e+000 -3.010676e+002 1.523517e+002
      endloop
   endfacet
   facet normal 0.000000e+000 -1.110223e-016 1.000000e+000
      outer loop
         vertex 7.600903e+000 -3.010676e+002 1.523517e+002
         vertex 1.600902e+000 -5.710676e+002 1.523517e+002
         vertex 7.600903e+000 -5.710676e+002 1.523517e+002
      endloop
   endfacet
   facet normal 0.000000e+000 -1.000000e+000 0.000000e+000
      outer loop
         vertex 7.600903e+000 -5.710676e+002 -1.476483e+002
         vertex 7.600903e+000 -5.710676e+002 1.523517e+002
         vertex 1.600902e+000 -5.710676e+002 -1.476483e+002
      endloop
   endfacet
   facet normal 0.000000e+000 -1.000000e+000 0.000000e+000
      outer loop
         vertex 1.600902e+000 -5.710676e+002 -1.476483e+002
         vertex 7.600903e+000 -5.710676e+002 1.523517e+002
         vertex 1.600902e+000 -5.710676e+002 1.523517e+002
      endloop
   endfacet
   facet normal 0.000000e+000 1.110223e-016 -1.000000e+000
      outer loop
         vertex 7.600903e+000 -3.010676e+002 -1.476483e+002
         vertex 7.600903e+000 -5.710676e+002 -1.476483e+002
         vertex 1.600902e+000 -3.010676e+002 -1.476483e+002
      endloop
   endfacet
   facet normal 0.000000e+000 1.110223e-016 -1.000000e+000
      outer loop
         vertex 1.600902e+000 -3.010676e+002 -1.476483e+002
         vertex 7.600903e+000 -5.710676e+002 -1.476483e+002
         vertex 1.600902e+000 -5.710676e+002 -1.476483e+002
      endloop
   endfacet
   facet normal 0.000000e+000 -1.000000e+000 0.000000e+000
      outer loop
         vertex -1.399098e+000 -2.710676e+002 -2.193791e+002
         vertex 1.060090e+001 -2.710676e+002 -2.193791e+002
         vertex 7.600903e+000 -2.710676e+002 -2.183791e+002
      endloop
   endfacet
   facet normal 0.000000e+000 -1.000000e+000 0.000000e+000
      outer loop
         vertex 7.600903e+000 -2.710676e+002 -2.183791e+002
         vertex 1.060090e+001 -2.710676e+002 -2.193791e+002
         vertex 1.060090e+001 -2.710676e+002 -2.183791e+002
      endloop
   endfacet
   facet normal 0.000000e+000 -1.000000e+000 0.000000e+000
      outer loop
         vertex -1.399098e+000 -2.710676e+002 -2.183791e+002
         vertex -1.399098e+000 -2.710676e+002 -2.193791e+002
         vertex 1.600902e+000 -2.710676e+002 -2.183791e+002
      endloop
   endfacet
   facet normal 0.000000e+000 -1.000000e+000 0.000000e+000
      outer loop
         vertex 1.600902e+000 -2.710676e+002 -2.183791e+002
         vertex -1.399098e+000 -2.710676e+002 -2.193791e+002
         vertex 7.600903e+000 -2.710676e+002 -2.183791e+002
      endloop
   endfacet
   facet normal 0.000000e+000 -1.000000e+000 0.000000e+000
      outer loop
         vertex 1.600902e+000 -2.710676e+002 -2.183791e+002
         vertex 7.600903e+000 -2.710676e+002 -2.183791e+002
         vertex 1.600902e+000 -2.710676e+002 -1.776483e+002
      endloop
   endfacet
   facet normal 0.000000e+000 -1.000000e+000 0.000000e+000
      outer loop
         vertex 1.600902e+000 -2.710676e+002 -1.776483e+002
         vertex 7.600903e+000 -2.710676e+002 -2.183791e+002
         vertex 7.600903e+000 -2.710676e+002 -1.776483e+002
      endloop
   endfacet
   facet normal 0.000000e+000 1.610758e-016 -1.000000e+000
      outer loop
         vertex -1.399098e+000 -2.660676e+002 -2.243791e+002
         vertex -1.399098e+000 -6.429117e+001 -2.243791e+002
         vertex 1.060090e+001 -2.660676e+002 -2.243791e+002
      endloop
   endfacet
   facet normal 0.000000e+000 1.610758e-016 -1.000000e+000
      outer loop
         vertex 1.060090e+001 -2.660676e+002 -2.243791e+002
         vertex -1.399098e+000 -6.429117e+001 -2.243791e+002
         vertex 1.060090e+001 -6.429117e+001 -2.243791e+002
      endloop
   endfacet
   facet normal 0.000000e+000 1.000000e+000 0.000000e+000
      outer loop
         vertex 1.600902e+000 -6.429117e+001 2.196209e+002
         vertex -1.399098e+000 -6.429117e+001 2.196209e+002
         vertex -1.399098e+000 -6.429117e+001 2.256209e+002
      endloop
   endfacet
   facet normal 0.000000e+000 1.000000e+000 0.000000e+000
      outer loop
         vertex 1.060090e+001 -6.429117e+001 -2.183791e+002
         vertex 1.060090e+001 -6.429117e+001 -2.243791e+002
         vertex 7.600903e+000 -6.429117e+001 -2.183791e+002
      endloop
   endfacet
   facet normal 0.000000e+000 1.000000e+000 0.000000e+000
      outer loop
         vertex 7.600903e+000 -6.429117e+001 -2.183791e+002
         vertex 1.060090e+001 -6.429117e+001 -2.243791e+002
         vertex -1.399098e+000 -6.429117e+001 -2.243791e+002
      endloop
   endfacet
   facet normal 0.000000e+000 1.000000e+000 0.000000e+000
      outer loop
         vertex 7.600903e+000 -6.429117e+001 -2.183791e+002
         vertex -1.399098e+000 -6.429117e+001 -2.243791e+002
         vertex 1.600902e+000 -6.429117e+001 -2.183791e+002
      endloop
   endfacet
   facet normal 0.000000e+000 1.000000e+000 0.000000e+000
      outer loop
         vertex 1.600902e+000 -6.429117e+001 -2.183791e+002
         vertex -1.399098e+000 -6.429117e+001 -2.243791e+002
         vertex -1.399098e+000 -6.429117e+001 -2.183791e+002
      endloop
   endfacet
   facet normal 0.000000e+000 1.000000e+000 0.000000e+000
      outer loop
         vertex 1.060090e+001 -6.429117e+001 2.256209e+002
         vertex 1.060090e+001 -6.429117e+001 2.196209e+002
         vertex 7.600903e+000 -6.429117e+001 2.196209e+002
      endloop
   endfacet
   facet normal 0.000000e+000 1.000000e+000 0.000000e+000
      outer loop
         vertex -1.399098e+000 -6.429117e+001 2.256209e+002
         vertex 1.060090e+001 -6.429117e+001 2.256209e+002
         vertex 1.600902e+000 -6.429117e+001 2.196209e+002
      endloop
   endfacet
   facet normal 0.000000e+000 1.000000e+000 0.000000e+000
      outer loop
         vertex 1.600902e+000 -6.429117e+001 2.196209e+002
         vertex 1.060090e+001 -6.429117e+001 2.256209e+002
         vertex 7.600903e+000 -6.429117e+001 2.196209e+002
      endloop
   endfacet
   facet normal 0.000000e+000 1.000000e+000 0.000000e+000
      outer loop
         vertex 1.600902e+000 -6.429117e+001 2.196209e+002
         vertex 7.600903e+000 -6.429117e+001 2.196209e+002
         vertex 1.600902e+000 -6.429117e+001 1.806209e+002
      endloop
   endfacet
   facet normal 0.000000e+000 1.000000e+000 0.000000e+000
      outer loop
         vertex 1.600902e+000 -6.429117e+001 -2.183791e+002
         vertex 1.600902e+000 -6.429117e+001 -1.793791e+002
         vertex 7.600903e+000 -6.429117e+001 -2.183791e+002
      endloop
   endfacet
   facet normal 0.000000e+000 1.000000e+000 0.000000e+000
      outer loop
         vertex 7.600903e+000 -6.429117e+001 -2.183791e+002
         vertex 1.600902e+000 -6.429117e+001 -1.793791e+002
         vertex 2.600903e+000 -6.429117e+001 -1.793791e+002
      endloop
   endfacet
   facet normal 0.000000e+000 1.000000e+000 0.000000e+000
      outer loop
         vertex 7.600903e+000 -6.429117e+001 -2.183791e+002
         vertex 2.600903e+000 -6.429117e+001 -1.793791e+002
         vertex 7.600903e+000 -6.429117e+001 2.196209e+002
      endloop
   endfacet
   facet normal 0.000000e+000 1.000000e+000 0.000000e+000
      outer loop
         vertex 7.600903e+000 -6.429117e+001 2.196209e+002
         vertex 2.600903e+000 -6.429117e+001 -1.793791e+002
         vertex 2.600903e+000 -6.429117e+001 1.806209e+002
      endloop
   endfacet
   facet normal 0.000000e+000 1.000000e+000 0.000000e+000
      outer loop
         vertex 7.600903e+000 -6.429117e+001 2.196209e+002
         vertex 2.600903e+000 -6.429117e+001 1.806209e+002
         vertex 1.600902e+000 -6.429117e+001 1.806209e+002
      endloop
   endfacet
   facet normal 0.000000e+000 0.000000e+000 1.000000e+000
      outer loop
         vertex 1.060090e+001 -2.660676e+002 2.256209e+002
         vertex 1.060090e+001 -6.429117e+001 2.256209e+002
         vertex -1.399098e+000 -2.660676e+002 2.256209e+002
      endloop
   endfacet
   facet normal 0.000000e+000 0.000000e+000 1.000000e+000
      outer loop
         vertex -1.399098e+000 -2.660676e+002 2.256209e+002
         vertex 1.060090e+001 -6.429117e+001 2.256209e+002
         vertex -1.399098e+000 -6.429117e+001 2.256209e+002
      endloop
   endfacet
   facet normal 0.000000e+000 -1.000000e+000 0.000000e+000
      outer loop
         vertex 1.060090e+001 -2.710676e+002 2.206209e+002
         vertex -1.399098e+000 -2.710676e+002 2.206209e+002
         vertex 1.600902e+000 -2.710676e+002 2.196209e+002
      endloop
   endfacet
   facet normal 0.000000e+000 -1.000000e+000 0.000000e+000
      outer loop
         vertex 1.600902e+000 -2.710676e+002 2.196209e+002
         vertex -1.399098e+000 -2.710676e+002 2.206209e+002
         vertex -1.399098e+000 -2.710676e+002 2.196209e+002
      endloop
   endfacet
   facet normal 0.000000e+000 -1.000000e+000 0.000000e+000
      outer loop
         vertex 1.060090e+001 -2.710676e+002 2.196209e+002
         vertex 1.060090e+001 -2.710676e+002 2.206209e+002
         vertex 7.600903e+000 -2.710676e+002 2.196209e+002
      endloop
   endfacet
   facet normal 0.000000e+000 -1.000000e+000 0.000000e+000
      outer loop
         vertex 7.600903e+000 -2.710676e+002 2.196209e+002
         vertex 1.060090e+001 -2.710676e+002 2.206209e+002
         vertex 1.600902e+000 -2.710676e+002 2.196209e+002
      endloop
   endfacet
   facet normal 0.000000e+000 -1.000000e+000 0.000000e+000
      outer loop
         vertex 7.600903e+000 -2.710676e+002 2.196209e+002
         vertex 1.600902e+000 -2.710676e+002 2.196209e+002
         vertex 7.600903e+000 -2.710676e+002 1.823517e+002
      endloop
   endfacet
   facet normal 0.000000e+000 -1.000000e+000 0.000000e+000
      outer loop
         vertex 7.600903e+000 -2.710676e+002 1.823517e+002
         vertex 1.600902e+000 -2.710676e+002 2.196209e+002
         vertex 1.600902e+000 -2.710676e+002 1.823517e+002
      endloop
   endfacet
   facet normal 0.000000e+000 1.206764e-016 -1.000000e+000
      outer loop
         vertex 5.800902e+000 -5.590676e+002 1.403517e+002
         vertex 4.600903e+000 -5.590676e+002 1.403517e+002
         vertex 5.800902e+000 -2.830677e+002 1.403517e+002
      endloop
   endfacet
   facet normal 0.000000e+000 1.206764e-016 -1.000000e+000
      outer loop
         vertex 5.800902e+000 -2.830677e+002 1.403517e+002
         vertex 4.600903e+000 -5.590676e+002 1.403517e+002
         vertex 4.600903e+000 -2.830677e+002 1.403517e+002
      endloop
   endfacet
   facet normal 0.000000e+000 -1.000000e+000 0.000000e+000
      outer loop
         vertex 5.800902e+000 -2.830677e+002 1.403517e+002
         vertex 4.600903e+000 -2.830677e+002 1.403517e+002
         vertex 5.800902e+000 -2.830677e+002 -1.356483e+002
      endloop
   endfacet
   facet normal 0.000000e+000 -1.000000e+000 0.000000e+000
      outer loop
         vertex 5.800902e+000 -2.830677e+002 -1.356483e+002
         vertex 4.600903e+000 -2.830677e+002 1.403517e+002
         vertex 4.600903e+000 -2.830677e+002 -1.356483e+002
      endloop
   endfacet
   facet normal 0.000000e+000 -1.206764e-016 1.000000e+000
      outer loop
         vertex 5.800902e+000 -2.830677e+002 -1.356483e+002
         vertex 4.600903e+000 -2.830677e+002 -1.356483e+002
         vertex 5.800902e+000 -5.590676e+002 -1.356483e+002
      endloop
   endfacet
   facet normal 0.000000e+000 -1.206764e-016 1.000000e+000
      outer loop
         vertex 5.800902e+000 -5.590676e+002 -1.356483e+002
         vertex 4.600903e+000 -2.830677e+002 -1.356483e+002
         vertex 4.600903e+000 -5.590676e+002 -1.356483e+002
      endloop
   endfacet
   facet normal 0.000000e+000 1.000000e+000 0.000000e+000
      outer loop
         vertex 5.800902e+000 -5.590676e+002 -1.356483e+002
         vertex 4.600903e+000 -5.590676e+002 -1.356483e+002
         vertex 5.800902e+000 -5.590676e+002 1.403517e+002
      endloop
   endfacet
   facet normal 0.000000e+000 1.000000e+000 0.000000e+000
      outer loop
         vertex 5.800902e+000 -5.590676e+002 1.403517e+002
         vertex 4.600903e+000 -5.590676e+002 -1.356483e+002
         vertex 4.600903e+000 -5.590676e+002 1.403517e+002
      endloop
   endfacet
   facet normal 1.000000e+000 0.000000e+000 0.000000e+000
      outer loop
         vertex 4.600903e+000 -5.590676e+002 -1.356483e+002
         vertex 4.600903e+000 -2.830677e+002 -1.356483e+002
         vertex 4.600903e+000 -5.590676e+002 1.403517e+002
      endloop
   endfacet
   facet normal 1.000000e+000 0.000000e+000 0.000000e+000
      outer loop
         vertex 4.600903e+000 -5.590676e+002 1.403517e+002
         vertex 4.600903e+000 -2.830677e+002 -1.356483e+002
         vertex 4.600903e+000 -2.830677e+002 1.403517e+002
      endloop
   endfacet
   facet normal 7.071068e-001 -7.071068e-001 0.000000e+000
      outer loop
         vertex 7.600903e+000 -2.812676e+002 1.421517e+002
         vertex 5.800902e+000 -2.830677e+002 1.403517e+002
         vertex 7.600903e+000 -2.812676e+002 -1.374483e+002
      endloop
   endfacet
   facet normal 7.071068e-001 -7.071068e-001 0.000000e+000
      outer loop
         vertex 7.600903e+000 -2.812676e+002 -1.374483e+002
         vertex 5.800902e+000 -2.830677e+002 1.403517e+002
         vertex 5.800902e+000 -2.830677e+002 -1.356483e+002
      endloop
   endfacet
   facet normal 7.071068e-001 8.533112e-017 -7.071068e-001
      outer loop
         vertex 7.600903e+000 -5.608676e+002 1.421517e+002
         vertex 5.800902e+000 -5.590676e+002 1.403517e+002
         vertex 7.600903e+000 -2.812676e+002 1.421517e+002
      endloop
   endfacet
   facet normal 7.071068e-001 8.533112e-017 -7.071068e-001
      outer loop
         vertex 7.600903e+000 -2.812676e+002 1.421517e+002
         vertex 5.800902e+000 -5.590676e+002 1.403517e+002
         vertex 5.800902e+000 -2.830677e+002 1.403517e+002
      endloop
   endfacet
   facet normal 7.071068e-001 -8.533112e-017 7.071068e-001
      outer loop
         vertex 5.800902e+000 -5.590676e+002 -1.356483e+002
         vertex 7.600903e+000 -5.608676e+002 -1.374483e+002
         vertex 5.800902e+000 -2.830677e+002 -1.356483e+002
      endloop
   endfacet
   facet normal 7.071068e-001 -8.533112e-017 7.071068e-001
      outer loop
         vertex 5.800902e+000 -2.830677e+002 -1.356483e+002
         vertex 7.600903e+000 -5.608676e+002 -1.374483e+002
         vertex 7.600903e+000 -2.812676e+002 -1.374483e+002
      endloop
   endfacet
   facet normal 7.071068e-001 7.071068e-001 0.000000e+000
      outer loop
         vertex 7.600903e+000 -5.608676e+002 -1.374483e+002
         vertex 5.800902e+000 -5.590676e+002 -1.356483e+002
         vertex 7.600903e+000 -5.608676e+002 1.421517e+002
      endloop
   endfacet
   facet normal 7.071068e-001 7.071068e-001 0.000000e+000
      outer loop
         vertex 7.600903e+000 -5.608676e+002 1.421517e+002
         vertex 5.800902e+000 -5.590676e+002 -1.356483e+002
         vertex 5.800902e+000 -5.590676e+002 1.403517e+002
      endloop
   endfacet
   facet normal 0.000000e+000 -1.297753e-001 9.915434e-001
      outer loop
         vertex 1.600902e+000 -3.010676e+002 1.523517e+002
         vertex 7.600903e+000 -3.010676e+002 1.523517e+002
         vertex 7.600903e+000 -2.895871e+002 1.546353e+002
      endloop
   endfacet
   facet normal 0.000000e+000 -2.595505e-001 9.657295e-001
      outer loop
         vertex 1.600902e+000 -3.010676e+002 1.523517e+002
         vertex 7.600903e+000 -2.895871e+002 1.546353e+002
         vertex 1.600902e+000 -2.895871e+002 1.546353e+002
      endloop
   endfacet
   facet normal 0.000000e+000 -4.993440e-001 8.664038e-001
      outer loop
         vertex 1.600902e+000 -2.895871e+002 1.546353e+002
         vertex 7.600903e+000 -2.895871e+002 1.546353e+002
         vertex 7.600903e+000 -2.798544e+002 1.611384e+002
      endloop
   endfacet
   facet normal 0.000000e+000 -6.093621e-001 7.928920e-001
      outer loop
         vertex 1.600902e+000 -2.895871e+002 1.546353e+002
         vertex 7.600903e+000 -2.798544e+002 1.611384e+002
         vertex 1.600902e+000 -2.798544e+002 1.611384e+002
      endloop
   endfacet
   facet normal 0.000000e+000 -7.928920e-001 6.093621e-001
      outer loop
         vertex 1.600902e+000 -2.798544e+002 1.611384e+002
         vertex 7.600903e+000 -2.798544e+002 1.611384e+002
         vertex 7.600903e+000 -2.733513e+002 1.708712e+002
      endloop
   endfacet
   facet normal 0.000000e+000 -8.664038e-001 4.993440e-001
      outer loop
         vertex 1.600902e+000 -2.798544e+002 1.611384e+002
         vertex 7.600903e+000 -2.733513e+002 1.708712e+002
         vertex 1.600902e+000 -2.733513e+002 1.708712e+002
      endloop
   endfacet
   facet normal 0.000000e+000 -9.657295e-001 2.595505e-001
      outer loop
         vertex 1.600902e+000 -2.733513e+002 1.708712e+002
         vertex 7.600903e+000 -2.733513e+002 1.708712e+002
         vertex 7.600903e+000 -2.710676e+002 1.823517e+002
      endloop
   endfacet
   facet normal 0.000000e+000 -9.915434e-001 1.297753e-001
      outer loop
         vertex 1.600902e+000 -2.733513e+002 1.708712e+002
         vertex 7.600903e+000 -2.710676e+002 1.823517e+002
         vertex 1.600902e+000 -2.710676e+002 1.823517e+002
      endloop
   endfacet
   facet normal 0.000000e+000 -9.915434e-001 -1.297753e-001
      outer loop
         vertex 1.600902e+000 -2.710676e+002 -1.776483e+002
         vertex 7.600903e+000 -2.710676e+002 -1.776483e+002
         vertex 7.600903e+000 -2.733513e+002 -1.661678e+002
      endloop
   endfacet
   facet normal 0.000000e+000 -9.657295e-001 -2.595505e-001
      outer loop
         vertex 1.600902e+000 -2.710676e+002 -1.776483e+002
         vertex 7.600903e+000 -2.733513e+002 -1.661678e+002
         vertex 1.600902e+000 -2.733513e+002 -1.661678e+002
      endloop
   endfacet
   facet normal 0.000000e+000 -8.664038e-001 -4.993440e-001
      outer loop
         vertex 1.600902e+000 -2.733513e+002 -1.661678e+002
         vertex 7.600903e+000 -2.733513e+002 -1.661678e+002
         vertex 7.600903e+000 -2.798544e+002 -1.564352e+002
      endloop
   endfacet
   facet normal 0.000000e+000 -7.928920e-001 -6.093621e-001
      outer loop
         vertex 1.600902e+000 -2.733513e+002 -1.661678e+002
         vertex 7.600903e+000 -2.798544e+002 -1.564352e+002
         vertex 1.600902e+000 -2.798544e+002 -1.564352e+002
      endloop
   endfacet
   facet normal 0.000000e+000 -6.093621e-001 -7.928920e-001
      outer loop
         vertex 1.600902e+000 -2.798544e+002 -1.564352e+002
         vertex 7.600903e+000 -2.798544e+002 -1.564352e+002
         vertex 7.600903e+000 -2.895871e+002 -1.499320e+002
      endloop
   endfacet
   facet normal 0.000000e+000 -4.993440e-001 -8.664038e-001
      outer loop
         vertex 1.600902e+000 -2.798544e+002 -1.564352e+002
         vertex 7.600903e+000 -2.895871e+002 -1.499320e+002
         vertex 1.600902e+000 -2.895871e+002 -1.499320e+002
      endloop
   endfacet
   facet normal 0.000000e+000 -2.595505e-001 -9.657295e-001
      outer loop
         vertex 1.600902e+000 -2.895871e+002 -1.499320e+002
         vertex 7.600903e+000 -2.895871e+002 -1.499320e+002
         vertex 7.600903e+000 -3.010676e+002 -1.476483e+002
      endloop
   endfacet
   facet normal 0.000000e+000 -1.297753e-001 -9.915434e-001
      outer loop
         vertex 1.600902e+000 -2.895871e+002 -1.499320e+002
         vertex 7.600903e+000 -3.010676e+002 -1.476483e+002
         vertex 1.600902e+000 -3.010676e+002 -1.476483e+002
      endloop
   endfacet
   facet normal -1.000000e+000 1.107396e-016 1.783748e-032
      outer loop
         vertex -1.399098e+000 -6.429117e+001 -2.183791e+002
         vertex -1.399098e+000 -6.429117e+001 -2.243791e+002
         vertex -1.399098e+000 -2.710676e+002 -2.183791e+002
      endloop
   endfacet
   facet normal -1.000000e+000 1.107396e-016 1.783748e-032
      outer loop
         vertex -1.399098e+000 -2.710676e+002 -2.183791e+002
         vertex -1.399098e+000 -6.429117e+001 -2.243791e+002
         vertex -1.399098e+000 -2.660676e+002 -2.243791e+002
      endloop
   endfacet
   facet normal -1.000000e+000 1.107396e-016 1.783748e-032
      outer loop
         vertex -1.399098e+000 -2.710676e+002 -2.183791e+002
         vertex -1.399098e+000 -2.660676e+002 -2.243791e+002
         vertex -1.399098e+000 -2.710676e+002 -2.193791e+002
      endloop
   endfacet
   facet normal -2.235376e-031 -1.610758e-016 1.000000e+000
      outer loop
         vertex 1.600902e+000 -6.429117e+001 -2.183791e+002
         vertex -1.399098e+000 -6.429117e+001 -2.183791e+002
         vertex 1.600902e+000 -2.710676e+002 -2.183791e+002
      endloop
   endfacet
   facet normal -2.235376e-031 -1.610758e-016 1.000000e+000
      outer loop
         vertex 1.600902e+000 -2.710676e+002 -2.183791e+002
         vertex -1.399098e+000 -6.429117e+001 -2.183791e+002
         vertex -1.399098e+000 -2.710676e+002 -2.183791e+002
      endloop
   endfacet
   facet normal 1.000000e+000 -1.107396e-016 -1.783748e-032
      outer loop
         vertex 1.060090e+001 -6.429117e+001 -2.243791e+002
         vertex 1.060090e+001 -6.429117e+001 -2.183791e+002
         vertex 1.060090e+001 -2.660676e+002 -2.243791e+002
      endloop
   endfacet
   facet normal 1.000000e+000 -1.107396e-016 -1.783748e-032
      outer loop
         vertex 1.060090e+001 -2.660676e+002 -2.243791e+002
         vertex 1.060090e+001 -6.429117e+001 -2.183791e+002
         vertex 1.060090e+001 -2.710676e+002 -2.183791e+002
      endloop
   endfacet
   facet normal 1.000000e+000 -1.107396e-016 -1.783748e-032
      outer loop
         vertex 1.060090e+001 -2.660676e+002 -2.243791e+002
         vertex 1.060090e+001 -2.710676e+002 -2.183791e+002
         vertex 1.060090e+001 -2.710676e+002 -2.193791e+002
      endloop
   endfacet
   facet normal -2.235376e-031 -1.610758e-016 1.000000e+000
      outer loop
         vertex 1.060090e+001 -2.710676e+002 -2.183791e+002
         vertex 1.060090e+001 -6.429117e+001 -2.183791e+002
         vertex 7.600903e+000 -2.710676e+002 -2.183791e+002
      endloop
   endfacet
   facet normal -2.235376e-031 -1.610758e-016 1.000000e+000
      outer loop
         vertex 7.600903e+000 -2.710676e+002 -2.183791e+002
         vertex 1.060090e+001 -6.429117e+001 -2.183791e+002
         vertex 7.600903e+000 -6.429117e+001 -2.183791e+002
      endloop
   endfacet
   facet normal -1.000000e+000 1.107396e-016 -1.783748e-032
      outer loop
         vertex -1.399098e+000 -6.429117e+001 2.256209e+002
         vertex -1.399098e+000 -6.429117e+001 2.196209e+002
         vertex -1.399098e+000 -2.660676e+002 2.256209e+002
      endloop
   endfacet
   facet normal -1.000000e+000 1.107396e-016 -1.783748e-032
      outer loop
         vertex -1.399098e+000 -2.660676e+002 2.256209e+002
         vertex -1.399098e+000 -6.429117e+001 2.196209e+002
         vertex -1.399098e+000 -2.710676e+002 2.196209e+002
      endloop
   endfacet
   facet normal -1.000000e+000 1.107396e-016 -1.783748e-032
      outer loop
         vertex -1.399098e+000 -2.660676e+002 2.256209e+002
         vertex -1.399098e+000 -2.710676e+002 2.196209e+002
         vertex -1.399098e+000 -2.710676e+002 2.206209e+002
      endloop
   endfacet
   facet normal -2.235376e-031 -1.610758e-016 -1.000000e+000
      outer loop
         vertex 1.600902e+000 -2.710676e+002 2.196209e+002
         vertex -1.399098e+000 -2.710676e+002 2.196209e+002
         vertex 1.600902e+000 -6.429117e+001 2.196209e+002
      endloop
   endfacet
   facet normal -2.235376e-031 -1.610758e-016 -1.000000e+000
      outer loop
         vertex 1.600902e+000 -6.429117e+001 2.196209e+002
         vertex -1.399098e+000 -2.710676e+002 2.196209e+002
         vertex -1.399098e+000 -6.429117e+001 2.196209e+002
      endloop
   endfacet
   facet normal 1.000000e+000 -1.107396e-016 1.783748e-032
      outer loop
         vertex 1.060090e+001 -6.429117e+001 2.196209e+002
         vertex 1.060090e+001 -6.429117e+001 2.256209e+002
         vertex 1.060090e+001 -2.710676e+002 2.196209e+002
      endloop
   endfacet
   facet normal 1.000000e+000 -1.107396e-016 1.783748e-032
      outer loop
         vertex 1.060090e+001 -2.710676e+002 2.196209e+002
         vertex 1.060090e+001 -6.429117e+001 2.256209e+002
         vertex 1.060090e+001 -2.660676e+002 2.256209e+002
      endloop
   endfacet
   facet normal 1.000000e+000 -1.107396e-016 1.783748e-032
      outer loop
         vertex 1.060090e+001 -2.710676e+002 2.196209e+002
         vertex 1.060090e+001 -2.660676e+002 2.256209e+002
         vertex 1.060090e+001 -2.710676e+002 2.206209e+002
      endloop
   endfacet
   facet normal -2.235376e-031 -1.610758e-016 -1.000000e+000
      outer loop
         vertex 1.060090e+001 -6.429117e+001 2.196209e+002
         vertex 1.060090e+001 -2.710676e+002 2.196209e+002
         vertex 7.600903e+000 -6.429117e+001 2.196209e+002
      endloop
   endfacet
   facet normal -2.235376e-031 -1.610758e-016 -1.000000e+000
      outer loop
         vertex 7.600903e+000 -6.429117e+001 2.196209e+002
         vertex 1.060090e+001 -2.710676e+002 2.196209e+002
         vertex 7.600903e+000 -2.710676e+002 2.196209e+002
      endloop
   endfacet
   facet normal -1.000000e+000 0.000000e+000 0.000000e+000
      outer loop
         vertex 2.600903e+000 -6.429117e+001 1.806209e+002
         vertex 2.600903e+000 -6.429117e+001 -1.793791e+002
         vertex 2.600903e+000 -9.554784e+001 1.778863e+002
      endloop
   endfacet
   facet normal -1.000000e+000 0.000000e+000 0.000000e+000
      outer loop
         vertex 2.600903e+000 -9.554784e+001 1.778863e+002
         vertex 2.600903e+000 -6.429117e+001 -1.793791e+002
         vertex 2.600903e+000 -1.258548e+002 1.697655e+002
      endloop
   endfacet
   facet normal -1.000000e+000 0.000000e+000 0.000000e+000
      outer loop
         vertex 2.600903e+000 -2.334358e+002 6.218450e+001
         vertex 2.600903e+000 -9.554784e+001 -1.766445e+002
         vertex 2.600903e+000 -1.258548e+002 -1.685238e+002
      endloop
   endfacet
   facet normal -1.000000e+000 0.000000e+000 0.000000e+000
      outer loop
         vertex 2.600903e+000 -2.334358e+002 6.218450e+001
         vertex 2.600903e+000 -2.021792e+002 -1.150809e+002
         vertex 2.600903e+000 -2.415566e+002 3.187755e+001
      endloop
   endfacet
   facet normal -1.000000e+000 0.000000e+000 0.000000e+000
      outer loop
         vertex 2.600903e+000 -2.415566e+002 3.187755e+001
         vertex 2.600903e+000 -2.021792e+002 -1.150809e+002
         vertex 2.600903e+000 -2.201758e+002 -8.937913e+001
      endloop
   endfacet
   facet normal -1.000000e+000 0.000000e+000 0.000000e+000
      outer loop
         vertex 2.600903e+000 -2.201758e+002 -8.937913e+001
         vertex 2.600903e+000 -2.334358e+002 -6.094275e+001
         vertex 2.600903e+000 -2.415566e+002 3.187755e+001
      endloop
   endfacet
   facet normal -1.000000e+000 0.000000e+000 0.000000e+000
      outer loop
         vertex 2.600903e+000 -2.415566e+002 3.187755e+001
         vertex 2.600903e+000 -2.334358e+002 -6.094275e+001
         vertex 2.600903e+000 -2.415566e+002 -3.063579e+001
      endloop
   endfacet
   facet normal -1.000000e+000 0.000000e+000 0.000000e+000
      outer loop
         vertex 2.600903e+000 -2.415566e+002 3.187755e+001
         vertex 2.600903e+000 -2.415566e+002 -3.063579e+001
         vertex 2.600903e+000 -2.442912e+002 6.208773e-001
      endloop
   endfacet
   facet normal -1.000000e+000 0.000000e+000 0.000000e+000
      outer loop
         vertex 2.600903e+000 -9.554784e+001 -1.766445e+002
         vertex 2.600903e+000 -2.334358e+002 6.218450e+001
         vertex 2.600903e+000 -6.429117e+001 -1.793791e+002
      endloop
   endfacet
   facet normal -1.000000e+000 0.000000e+000 0.000000e+000
      outer loop
         vertex 2.600903e+000 -6.429117e+001 -1.793791e+002
         vertex 2.600903e+000 -2.334358e+002 6.218450e+001
         vertex 2.600903e+000 -2.201758e+002 9.062087e+001
      endloop
   endfacet
   facet normal -1.000000e+000 0.000000e+000 0.000000e+000
      outer loop
         vertex 2.600903e+000 -6.429117e+001 -1.793791e+002
         vertex 2.600903e+000 -2.201758e+002 9.062087e+001
         vertex 2.600903e+000 -2.021792e+002 1.163226e+002
      endloop
   endfacet
   facet normal -1.000000e+000 0.000000e+000 0.000000e+000
      outer loop
         vertex 2.600903e+000 -2.021792e+002 1.163226e+002
         vertex 2.600903e+000 -1.799930e+002 1.385089e+002
         vertex 2.600903e+000 -6.429117e+001 -1.793791e+002
      endloop
   endfacet
   facet normal -1.000000e+000 0.000000e+000 0.000000e+000
      outer loop
         vertex 2.600903e+000 -6.429117e+001 -1.793791e+002
         vertex 2.600903e+000 -1.799930e+002 1.385089e+002
         vertex 2.600903e+000 -1.542912e+002 1.565054e+002
      endloop
   endfacet
   facet normal -1.000000e+000 0.000000e+000 0.000000e+000
      outer loop
         vertex 2.600903e+000 -6.429117e+001 -1.793791e+002
         vertex 2.600903e+000 -1.542912e+002 1.565054e+002
         vertex 2.600903e+000 -1.258548e+002 1.697655e+002
      endloop
   endfacet
   facet normal -1.000000e+000 0.000000e+000 0.000000e+000
      outer loop
         vertex 2.600903e+000 -1.258548e+002 -1.685238e+002
         vertex 2.600903e+000 -1.542912e+002 -1.552637e+002
         vertex 2.600903e+000 -2.334358e+002 6.218450e+001
      endloop
   endfacet
   facet normal -1.000000e+000 0.000000e+000 0.000000e+000
      outer loop
         vertex 2.600903e+000 -2.334358e+002 6.218450e+001
         vertex 2.600903e+000 -1.542912e+002 -1.552637e+002
         vertex 2.600903e+000 -1.799930e+002 -1.372671e+002
      endloop
   endfacet
   facet normal -1.000000e+000 0.000000e+000 0.000000e+000
      outer loop
         vertex 2.600903e+000 -2.334358e+002 6.218450e+001
         vertex 2.600903e+000 -1.799930e+002 -1.372671e+002
         vertex 2.600903e+000 -2.021792e+002 -1.150809e+002
      endloop
   endfacet
   facet normal 0.000000e+000 -7.071068e-001 7.071068e-001
      outer loop
         vertex -1.399098e+000 -2.660676e+002 2.256209e+002
         vertex -1.399098e+000 -2.710676e+002 2.206209e+002
         vertex 1.060090e+001 -2.660676e+002 2.256209e+002
      endloop
   endfacet
   facet normal 0.000000e+000 -7.071068e-001 7.071068e-001
      outer loop
         vertex 1.060090e+001 -2.660676e+002 2.256209e+002
         vertex -1.399098e+000 -2.710676e+002 2.206209e+002
         vertex 1.060090e+001 -2.710676e+002 2.206209e+002
      endloop
   endfacet
   facet normal 0.000000e+000 -7.071068e-001 -7.071068e-001
      outer loop
         vertex -1.399098e+000 -2.710676e+002 -2.193791e+002
         vertex -1.399098e+000 -2.660676e+002 -2.243791e+002
         vertex 1.060090e+001 -2.710676e+002 -2.193791e+002
      endloop
   endfacet
   facet normal 0.000000e+000 -7.071068e-001 -7.071068e-001
      outer loop
         vertex 1.060090e+001 -2.710676e+002 -2.193791e+002
         vertex -1.399098e+000 -2.660676e+002 -2.243791e+002
         vertex 1.060090e+001 -2.660676e+002 -2.243791e+002
      endloop
   endfacet
endsolid