solid p1_д╛хо_sldprt
   facet normal 3.254372e-001 -1.401358e-001 9.351217e-001
      outer loop
         vertex 3.044777e+001 8.000000e+002 1.185862e+002
         vertex 2.486899e+000 0.000000e+000 9.685832e+000
         vertex 5.898239e+001 8.000000e+002 1.072886e+002
      endloop
   endfacet
   facet normal 4.029013e-001 -1.401358e-001 9.044514e-001
      outer loop
         vertex 5.898239e+001 8.000000e+002 1.072886e+002
         vertex 2.486899e+000 0.000000e+000 9.685832e+000
         vertex 4.817536e+000 0.000000e+000 8.763066e+000
      endloop
   endfacet
   facet normal 5.477684e-001 -1.401358e-001 8.248101e-001
      outer loop
         vertex 5.898239e+001 8.000000e+002 1.072886e+002
         vertex 4.817536e+000 0.000000e+000 8.763066e+000
         vertex 8.381093e+001 8.000000e+002 8.924957e+001
      endloop
   endfacet
   facet normal 6.151713e-001 -1.401358e-001 7.758390e-001
      outer loop
         vertex 8.381093e+001 8.000000e+002 8.924957e+001
         vertex 4.817536e+000 0.000000e+000 8.763066e+000
         vertex 6.845471e+000 0.000000e+000 7.289686e+000
      endloop
   endfacet
   facet normal 7.356811e-001 -1.401358e-001 6.626728e-001
      outer loop
         vertex 8.381093e+001 8.000000e+002 8.924957e+001
         vertex 6.845471e+000 0.000000e+000 7.289686e+000
         vertex 1.033733e+002 8.000000e+002 6.560271e+001
      endloop
   endfacet
   facet normal 7.887879e-001 -1.401358e-001 5.984777e-001
      outer loop
         vertex 1.033733e+002 8.000000e+002 6.560271e+001
         vertex 6.845471e+000 0.000000e+000 7.289686e+000
         vertex 8.443279e+000 0.000000e+000 5.358268e+000
      endloop
   endfacet
   facet normal 8.773684e-001 -1.401358e-001 4.588972e-001
      outer loop
         vertex 1.033733e+002 8.000000e+002 6.560271e+001
         vertex 8.443279e+000 0.000000e+000 5.358268e+000
         vertex 1.164404e+002 8.000000e+002 3.783377e+001
      endloop
   endfacet
   facet normal 9.128420e-001 -1.401358e-001 3.835119e-001
      outer loop
         vertex 1.164404e+002 8.000000e+002 3.783377e+001
         vertex 8.443279e+000 0.000000e+000 5.358268e+000
         vertex 9.510566e+000 0.000000e+000 3.090170e+000
      endloop
   endfacet
   facet normal 9.639273e-001 -1.401358e-001 2.262875e-001
      outer loop
         vertex 1.164404e+002 8.000000e+002 3.783377e+001
         vertex 9.510566e+000 0.000000e+000 3.090170e+000
         vertex 1.221911e+002 8.000000e+002 7.687611e+000
      endloop
   endfacet
   facet normal 9.795390e-001 -1.401358e-001 1.444485e-001
      outer loop
         vertex 1.221911e+002 8.000000e+002 7.687611e+000
         vertex 9.510566e+000 0.000000e+000 3.090170e+000
         vertex 9.980267e+000 0.000000e+000 6.279052e-001
      endloop
   endfacet
   facet normal 9.899192e-001 -1.401358e-001 -2.054073e-002
      outer loop
         vertex 1.221911e+002 8.000000e+002 7.687611e+000
         vertex 9.980267e+000 0.000000e+000 6.279052e-001
         vertex 1.202640e+002 8.000000e+002 -2.294160e+001
      endloop
   endfacet
   facet normal 9.846878e-001 -1.401358e-001 -1.036910e-001
      outer loop
         vertex 1.202640e+002 8.000000e+002 -2.294160e+001
         vertex 9.980267e+000 0.000000e+000 6.279052e-001
         vertex 9.822872e+000 0.000000e+000 -1.873813e+000
      endloop
   endfacet
   facet normal 9.537108e-001 -1.401358e-001 -2.660783e-001
      outer loop
         vertex 1.202640e+002 8.000000e+002 -2.294160e+001
         vertex 9.822872e+000 0.000000e+000 -1.873813e+000
         vertex 1.107804e+002 8.000000e+002 -5.212930e+001
      endloop
   endfacet
   facet normal 9.279652e-001 -1.401358e-001 -3.453153e-001
      outer loop
         vertex 1.107804e+002 8.000000e+002 -5.212930e+001
         vertex 9.822872e+000 0.000000e+000 -1.873813e+000
         vertex 9.048270e+000 0.000000e+000 -4.257793e+000
      endloop
   endfacet
   facet normal 8.575773e-001 -1.401358e-001 -4.948972e-001
      outer loop
         vertex 1.107804e+002 8.000000e+002 -5.212930e+001
         vertex 9.048270e+000 0.000000e+000 -4.257793e+000
         vertex 9.433599e+001 8.000000e+002 -7.804152e+001
      endloop
   endfacet
   facet normal 8.129350e-001 -1.401358e-001 -5.652421e-001
      outer loop
         vertex 9.433599e+001 8.000000e+002 -7.804152e+001
         vertex 9.048270e+000 0.000000e+000 -4.257793e+000
         vertex 7.705132e+000 0.000000e+000 -6.374240e+000
      endloop
   endfacet
   facet normal 7.075589e-001 -1.401358e-001 -6.926199e-001
      outer loop
         vertex 9.433599e+001 8.000000e+002 -7.804152e+001
         vertex 7.705132e+000 0.000000e+000 -6.374240e+000
         vertex 7.196411e+001 8.000000e+002 -9.905011e+001
      endloop
   endfacet
   facet normal 6.468251e-001 -1.401358e-001 -7.496527e-001
      outer loop
         vertex 7.196411e+001 8.000000e+002 -9.905011e+001
         vertex 7.705132e+000 0.000000e+000 -6.374240e+000
         vertex 5.877852e+000 0.000000e+000 -8.090170e+000
      endloop
   endfacet
   facet normal 5.130821e-001 -1.401358e-001 -8.468227e-001
      outer loop
         vertex 7.196411e+001 8.000000e+002 -9.905011e+001
         vertex 5.877852e+000 0.000000e+000 -8.090170e+000
         vertex 4.507047e+001 8.000000e+002 -1.138350e+002
      endloop
   endfacet
   facet normal 4.400729e-001 -1.401358e-001 -8.869599e-001
      outer loop
         vertex 4.507047e+001 8.000000e+002 -1.138350e+002
         vertex 5.877852e+000 0.000000e+000 -8.090170e+000
         vertex 3.681246e+000 0.000000e+000 -9.297765e+000
      endloop
   endfacet
   facet normal 2.863664e-001 -1.401358e-001 -9.478165e-001
      outer loop
         vertex 4.507047e+001 8.000000e+002 -1.138350e+002
         vertex 3.681246e+000 0.000000e+000 -9.297765e+000
         vertex 1.534488e+001 8.000000e+002 -1.214672e+002
      endloop
   endfacet
   facet normal 2.056693e-001 -1.401358e-001 -9.685361e-001
      outer loop
         vertex 1.534488e+001 8.000000e+002 -1.214672e+002
         vertex 3.681246e+000 0.000000e+000 -9.297765e+000
         vertex 1.253332e+000 0.000000e+000 -9.921146e+000
      endloop
   endfacet
   facet normal 4.165735e-002 -1.401358e-001 -9.892556e-001
      outer loop
         vertex 1.534488e+001 8.000000e+002 -1.214672e+002
         vertex 1.253332e+000 0.000000e+000 -9.921146e+000
         vertex -1.534488e+001 8.000000e+002 -1.214672e+002
      endloop
   endfacet
   facet normal -4.165735e-002 -1.401358e-001 -9.892556e-001
      outer loop
         vertex -1.534488e+001 8.000000e+002 -1.214672e+002
         vertex 1.253332e+000 0.000000e+000 -9.921146e+000
         vertex -1.253332e+000 0.000000e+000 -9.921146e+000
      endloop
   endfacet
   facet normal -2.056693e-001 -1.401358e-001 -9.685361e-001
      outer loop
         vertex -1.534488e+001 8.000000e+002 -1.214672e+002
         vertex -1.253332e+000 0.000000e+000 -9.921146e+000
         vertex -4.507047e+001 8.000000e+002 -1.138350e+002
      endloop
   endfacet
   facet normal -2.863664e-001 -1.401358e-001 -9.478165e-001
      outer loop
         vertex -4.507047e+001 8.000000e+002 -1.138350e+002
         vertex -1.253332e+000 0.000000e+000 -9.921146e+000
         vertex -3.681246e+000 0.000000e+000 -9.297765e+000
      endloop
   endfacet
   facet normal -4.400729e-001 -1.401358e-001 -8.869599e-001
      outer loop
         vertex -4.507047e+001 8.000000e+002 -1.138350e+002
         vertex -3.681246e+000 0.000000e+000 -9.297765e+000
         vertex -7.196411e+001 8.000000e+002 -9.905011e+001
      endloop
   endfacet
   facet normal -5.130821e-001 -1.401358e-001 -8.468227e-001
      outer loop
         vertex -7.196411e+001 8.000000e+002 -9.905011e+001
         vertex -3.681246e+000 0.000000e+000 -9.297765e+000
         vertex -5.877852e+000 0.000000e+000 -8.090170e+000
      endloop
   endfacet
   facet normal -6.468251e-001 -1.401358e-001 -7.496527e-001
      outer loop
         vertex -7.196411e+001 8.000000e+002 -9.905011e+001
         vertex -5.877852e+000 0.000000e+000 -8.090170e+000
         vertex -9.433599e+001 8.000000e+002 -7.804152e+001
      endloop
   endfacet
   facet normal -7.075589e-001 -1.401358e-001 -6.926199e-001
      outer loop
         vertex -9.433599e+001 8.000000e+002 -7.804152e+001
         vertex -5.877852e+000 0.000000e+000 -8.090170e+000
         vertex -7.705132e+000 0.000000e+000 -6.374240e+000
      endloop
   endfacet
   facet normal -8.129349e-001 -1.401358e-001 -5.652421e-001
      outer loop
         vertex -9.433599e+001 8.000000e+002 -7.804152e+001
         vertex -7.705132e+000 0.000000e+000 -6.374240e+000
         vertex -1.107804e+002 8.000000e+002 -5.212930e+001
      endloop
   endfacet
   facet normal -8.575773e-001 -1.401358e-001 -4.948972e-001
      outer loop
         vertex -1.107804e+002 8.000000e+002 -5.212930e+001
         vertex -7.705132e+000 0.000000e+000 -6.374240e+000
         vertex -9.048270e+000 0.000000e+000 -4.257793e+000
      endloop
   endfacet
   facet normal -9.279652e-001 -1.401358e-001 -3.453153e-001
      outer loop
         vertex -1.107804e+002 8.000000e+002 -5.212930e+001
         vertex -9.048270e+000 0.000000e+000 -4.257793e+000
         vertex -1.202640e+002 8.000000e+002 -2.294160e+001
      endloop
   endfacet
   facet normal -9.537108e-001 -1.401358e-001 -2.660783e-001
      outer loop
         vertex -1.202640e+002 8.000000e+002 -2.294160e+001
         vertex -9.048270e+000 0.000000e+000 -4.257793e+000
         vertex -9.822872e+000 0.000000e+000 -1.873813e+000
      endloop
   endfacet
   facet normal -9.846878e-001 -1.401358e-001 -1.036910e-001
      outer loop
         vertex -1.202640e+002 8.000000e+002 -2.294160e+001
         vertex -9.822872e+000 0.000000e+000 -1.873813e+000
         vertex -1.221911e+002 8.000000e+002 7.687611e+000
      endloop
   endfacet
   facet normal -9.899192e-001 -1.401358e-001 -2.054073e-002
      outer loop
         vertex -1.221911e+002 8.000000e+002 7.687611e+000
         vertex -9.822872e+000 0.000000e+000 -1.873813e+000
         vertex -9.980267e+000 0.000000e+000 6.279052e-001
      endloop
   endfacet
   facet normal -9.795390e-001 -1.401358e-001 1.444485e-001
      outer loop
         vertex -1.221911e+002 8.000000e+002 7.687611e+000
         vertex -9.980267e+000 0.000000e+000 6.279052e-001
         vertex -1.164404e+002 8.000000e+002 3.783377e+001
      endloop
   endfacet
   facet normal -9.639273e-001 -1.401358e-001 2.262875e-001
      outer loop
         vertex -1.164404e+002 8.000000e+002 3.783377e+001
         vertex -9.980267e+000 0.000000e+000 6.279052e-001
         vertex -9.510566e+000 0.000000e+000 3.090170e+000
      endloop
   endfacet
   facet normal -9.128420e-001 -1.401358e-001 3.835119e-001
      outer loop
         vertex -1.164404e+002 8.000000e+002 3.783377e+001
         vertex -9.510566e+000 0.000000e+000 3.090170e+000
         vertex -1.033733e+002 8.000000e+002 6.560271e+001
      endloop
   endfacet
   facet normal -8.773684e-001 -1.401358e-001 4.588972e-001
      outer loop
         vertex -1.033733e+002 8.000000e+002 6.560271e+001
         vertex -9.510566e+000 0.000000e+000 3.090170e+000
         vertex -8.443279e+000 0.000000e+000 5.358268e+000
      endloop
   endfacet
   facet normal -7.887879e-001 -1.401358e-001 5.984777e-001
      outer loop
         vertex -1.033733e+002 8.000000e+002 6.560271e+001
         vertex -8.443279e+000 0.000000e+000 5.358268e+000
         vertex -8.381093e+001 8.000000e+002 8.924957e+001
      endloop
   endfacet
   facet normal -7.356811e-001 -1.401358e-001 6.626728e-001
      outer loop
         vertex -8.381093e+001 8.000000e+002 8.924957e+001
         vertex -8.443279e+000 0.000000e+000 5.358268e+000
         vertex -6.845471e+000 0.000000e+000 7.289686e+000
      endloop
   endfacet
   facet normal -6.151713e-001 -1.401358e-001 7.758390e-001
      outer loop
         vertex -8.381093e+001 8.000000e+002 8.924957e+001
         vertex -6.845471e+000 0.000000e+000 7.289686e+000
         vertex -5.898239e+001 8.000000e+002 1.072886e+002
      endloop
   endfacet
   facet normal -5.477684e-001 -1.401358e-001 8.248101e-001
      outer loop
         vertex -5.898239e+001 8.000000e+002 1.072886e+002
         vertex -6.845471e+000 0.000000e+000 7.289686e+000
         vertex -4.817536e+000 0.000000e+000 8.763066e+000
      endloop
   endfacet
   facet normal -4.029013e-001 -1.401358e-001 9.044514e-001
      outer loop
         vertex -5.898239e+001 8.000000e+002 1.072886e+002
         vertex -4.817536e+000 0.000000e+000 8.763066e+000
         vertex -3.044777e+001 8.000000e+002 1.185862e+002
      endloop
   endfacet
   facet normal -3.254372e-001 -1.401358e-001 9.351217e-001
      outer loop
         vertex -3.044777e+001 8.000000e+002 1.185862e+002
         vertex -4.817536e+000 0.000000e+000 8.763066e+000
         vertex -2.486899e+000 0.000000e+000 9.685832e+000
      endloop
   endfacet
   facet normal -1.653155e-001 -1.401358e-001 9.762340e-001
      outer loop
         vertex -3.044777e+001 8.000000e+002 1.185862e+002
         vertex -2.486899e+000 0.000000e+000 9.685832e+000
         vertex 0.000000e+000 8.000000e+002 1.224327e+002
      endloop
   endfacet
   facet normal -8.265774e-002 -1.401358e-001 9.866760e-001
      outer loop
         vertex 0.000000e+000 8.000000e+002 1.224327e+002
         vertex -2.486899e+000 0.000000e+000 9.685832e+000
         vertex 0.000000e+000 0.000000e+000 1.000000e+001
      endloop
   endfacet
   facet normal 8.265774e-002 -1.401358e-001 9.866760e-001
      outer loop
         vertex 0.000000e+000 8.000000e+002 1.224327e+002
         vertex 0.000000e+000 0.000000e+000 1.000000e+001
         vertex 3.044777e+001 8.000000e+002 1.185862e+002
      endloop
   endfacet
   facet normal 1.653155e-001 -1.401358e-001 9.762340e-001
      outer loop
         vertex 3.044777e+001 8.000000e+002 1.185862e+002
         vertex 0.000000e+000 0.000000e+000 1.000000e+001
         vertex 2.486899e+000 0.000000e+000 9.685832e+000
      endloop
   endfacet
   facet normal 0.000000e+000 1.000000e+000 0.000000e+000
      outer loop
         vertex 1.534488e+001 8.000000e+002 -1.214672e+002
         vertex -1.534488e+001 8.000000e+002 -1.214672e+002
         vertex -3.044777e+001 8.000000e+002 1.185862e+002
      endloop
   endfacet
   facet normal 0.000000e+000 1.000000e+000 0.000000e+000
      outer loop
         vertex -3.044777e+001 8.000000e+002 1.185862e+002
         vertex -1.534488e+001 8.000000e+002 -1.214672e+002
         vertex -4.507047e+001 8.000000e+002 -1.138350e+002
      endloop
   endfacet
   facet normal 0.000000e+000 1.000000e+000 0.000000e+000
      outer loop
         vertex -4.507047e+001 8.000000e+002 -1.138350e+002
         vertex -7.196411e+001 8.000000e+002 -9.905011e+001
         vertex -3.044777e+001 8.000000e+002 1.185862e+002
      endloop
   endfacet
   facet normal 0.000000e+000 1.000000e+000 0.000000e+000
      outer loop
         vertex -3.044777e+001 8.000000e+002 1.185862e+002
         vertex -7.196411e+001 8.000000e+002 -9.905011e+001
         vertex -9.433599e+001 8.000000e+002 -7.804152e+001
      endloop
   endfacet
   facet normal 0.000000e+000 1.000000e+000 0.000000e+000
      outer loop
         vertex -3.044777e+001 8.000000e+002 1.185862e+002
         vertex -9.433599e+001 8.000000e+002 -7.804152e+001
         vertex -1.107804e+002 8.000000e+002 -5.212930e+001
      endloop
   endfacet
   facet normal 0.000000e+000 1.000000e+000 0.000000e+000
      outer loop
         vertex -3.044777e+001 8.000000e+002 1.185862e+002
         vertex -2.998735e-014 8.000000e+002 1.224327e+002
         vertex 1.534488e+001 8.000000e+002 -1.214672e+002
      endloop
   endfacet
   facet normal 0.000000e+000 1.000000e+000 0.000000e+000
      outer loop
         vertex 1.534488e+001 8.000000e+002 -1.214672e+002
         vertex -2.998735e-014 8.000000e+002 1.224327e+002
         vertex 3.044777e+001 8.000000e+002 1.185862e+002
      endloop
   endfacet
   facet normal 0.000000e+000 1.000000e+000 0.000000e+000
      outer loop
         vertex 1.534488e+001 8.000000e+002 -1.214672e+002
         vertex 3.044777e+001 8.000000e+002 1.185862e+002
         vertex 5.898239e+001 8.000000e+002 1.072886e+002
      endloop
   endfacet
   facet normal 0.000000e+000 1.000000e+000 0.000000e+000
      outer loop
         vertex 1.221911e+002 8.000000e+002 7.687611e+000
         vertex 7.196411e+001 8.000000e+002 -9.905011e+001
         vertex 1.164404e+002 8.000000e+002 3.783377e+001
      endloop
   endfacet
   facet normal 0.000000e+000 1.000000e+000 0.000000e+000
      outer loop
         vertex 1.164404e+002 8.000000e+002 3.783377e+001
         vertex 7.196411e+001 8.000000e+002 -9.905011e+001
         vertex 4.507047e+001 8.000000e+002 -1.138350e+002
      endloop
   endfacet
   facet normal 0.000000e+000 1.000000e+000 0.000000e+000
      outer loop
         vertex 1.164404e+002 8.000000e+002 3.783377e+001
         vertex 4.507047e+001 8.000000e+002 -1.138350e+002
         vertex 1.534488e+001 8.000000e+002 -1.214672e+002
      endloop
   endfacet
   facet normal 0.000000e+000 1.000000e+000 0.000000e+000
      outer loop
         vertex -1.107804e+002 8.000000e+002 -5.212930e+001
         vertex -1.202640e+002 8.000000e+002 -2.294160e+001
         vertex -3.044777e+001 8.000000e+002 1.185862e+002
      endloop
   endfacet
   facet normal 0.000000e+000 1.000000e+000 0.000000e+000
      outer loop
         vertex -3.044777e+001 8.000000e+002 1.185862e+002
         vertex -1.202640e+002 8.000000e+002 -2.294160e+001
         vertex -1.221911e+002 8.000000e+002 7.687611e+000
      endloop
   endfacet
   facet normal 0.000000e+000 1.000000e+000 0.000000e+000
      outer loop
         vertex -3.044777e+001 8.000000e+002 1.185862e+002
         vertex -1.221911e+002 8.000000e+002 7.687611e+000
         vertex -1.164404e+002 8.000000e+002 3.783377e+001
      endloop
   endfacet
   facet normal 0.000000e+000 1.000000e+000 0.000000e+000
      outer loop
         vertex -1.164404e+002 8.000000e+002 3.783377e+001
         vertex -1.033733e+002 8.000000e+002 6.560271e+001
         vertex -3.044777e+001 8.000000e+002 1.185862e+002
      endloop
   endfacet
   facet normal 0.000000e+000 1.000000e+000 0.000000e+000
      outer loop
         vertex -3.044777e+001 8.000000e+002 1.185862e+002
         vertex -1.033733e+002 8.000000e+002 6.560271e+001
         vertex -8.381093e+001 8.000000e+002 8.924957e+001
      endloop
   endfacet
   facet normal 0.000000e+000 1.000000e+000 0.000000e+000
      outer loop
         vertex -3.044777e+001 8.000000e+002 1.185862e+002
         vertex -8.381093e+001 8.000000e+002 8.924957e+001
         vertex -5.898239e+001 8.000000e+002 1.072886e+002
      endloop
   endfacet
   facet normal 0.000000e+000 1.000000e+000 0.000000e+000
      outer loop
         vertex 5.898239e+001 8.000000e+002 1.072886e+002
         vertex 8.381093e+001 8.000000e+002 8.924957e+001
         vertex 1.534488e+001 8.000000e+002 -1.214672e+002
      endloop
   endfacet
   facet normal 0.000000e+000 1.000000e+000 0.000000e+000
      outer loop
         vertex 1.534488e+001 8.000000e+002 -1.214672e+002
         vertex 8.381093e+001 8.000000e+002 8.924957e+001
         vertex 1.033733e+002 8.000000e+002 6.560271e+001
      endloop
   endfacet
   facet normal 0.000000e+000 1.000000e+000 0.000000e+000
      outer loop
         vertex 1.534488e+001 8.000000e+002 -1.214672e+002
         vertex 1.033733e+002 8.000000e+002 6.560271e+001
         vertex 1.164404e+002 8.000000e+002 3.783377e+001
      endloop
   endfacet
   facet normal 0.000000e+000 1.000000e+000 0.000000e+000
      outer loop
         vertex 1.221911e+002 8.000000e+002 7.687611e+000
         vertex 1.202640e+002 8.000000e+002 -2.294160e+001
         vertex 7.196411e+001 8.000000e+002 -9.905011e+001
      endloop
   endfacet
   facet normal 0.000000e+000 1.000000e+000 0.000000e+000
      outer loop
         vertex 7.196411e+001 8.000000e+002 -9.905011e+001
         vertex 1.202640e+002 8.000000e+002 -2.294160e+001
         vertex 1.107804e+002 8.000000e+002 -5.212930e+001
      endloop
   endfacet
   facet normal 0.000000e+000 1.000000e+000 0.000000e+000
      outer loop
         vertex 7.196411e+001 8.000000e+002 -9.905011e+001
         vertex 1.107804e+002 8.000000e+002 -5.212930e+001
         vertex 9.433599e+001 8.000000e+002 -7.804152e+001
      endloop
   endfacet
   facet normal 0.000000e+000 -1.000000e+000 0.000000e+000
      outer loop
         vertex 1.253332e+000 0.000000e+000 -9.921146e+000
         vertex 3.681246e+000 0.000000e+000 -9.297765e+000
         vertex 8.443279e+000 0.000000e+000 5.358268e+000
      endloop
   endfacet
   facet normal 0.000000e+000 -1.000000e+000 0.000000e+000
      outer loop
         vertex -6.845471e+000 0.000000e+000 7.289686e+000
         vertex -8.443279e+000 0.000000e+000 5.358268e+000
         vertex -9.510566e+000 0.000000e+000 3.090170e+000
      endloop
   endfacet
   facet normal 0.000000e+000 -1.000000e+000 0.000000e+000
      outer loop
         vertex 4.817536e+000 0.000000e+000 8.763066e+000
         vertex 2.486899e+000 0.000000e+000 9.685832e+000
         vertex -9.048270e+000 0.000000e+000 -4.257793e+000
      endloop
   endfacet
   facet normal 0.000000e+000 -1.000000e+000 0.000000e+000
      outer loop
         vertex -9.048270e+000 0.000000e+000 -4.257793e+000
         vertex 2.486899e+000 0.000000e+000 9.685832e+000
         vertex 0.000000e+000 0.000000e+000 1.000000e+001
      endloop
   endfacet
   facet normal 0.000000e+000 -1.000000e+000 0.000000e+000
      outer loop
         vertex -9.048270e+000 0.000000e+000 -4.257793e+000
         vertex 0.000000e+000 0.000000e+000 1.000000e+001
         vertex -9.822872e+000 0.000000e+000 -1.873813e+000
      endloop
   endfacet
   facet normal 0.000000e+000 -1.000000e+000 0.000000e+000
      outer loop
         vertex -9.822872e+000 0.000000e+000 -1.873813e+000
         vertex 0.000000e+000 0.000000e+000 1.000000e+001
         vertex -9.980267e+000 0.000000e+000 6.279052e-001
      endloop
   endfacet
   facet normal 0.000000e+000 -1.000000e+000 0.000000e+000
      outer loop
         vertex 8.443279e+000 0.000000e+000 5.358268e+000
         vertex -7.705132e+000 0.000000e+000 -6.374240e+000
         vertex -5.877852e+000 0.000000e+000 -8.090170e+000
      endloop
   endfacet
   facet normal 0.000000e+000 -1.000000e+000 0.000000e+000
      outer loop
         vertex 3.681246e+000 0.000000e+000 -9.297765e+000
         vertex 5.877852e+000 0.000000e+000 -8.090170e+000
         vertex 8.443279e+000 0.000000e+000 5.358268e+000
      endloop
   endfacet
   facet normal 0.000000e+000 -1.000000e+000 0.000000e+000
      outer loop
         vertex 8.443279e+000 0.000000e+000 5.358268e+000
         vertex 5.877852e+000 0.000000e+000 -8.090170e+000
         vertex 7.705132e+000 0.000000e+000 -6.374240e+000
      endloop
   endfacet
   facet normal 0.000000e+000 -1.000000e+000 0.000000e+000
      outer loop
         vertex 8.443279e+000 0.000000e+000 5.358268e+000
         vertex 7.705132e+000 0.000000e+000 -6.374240e+000
         vertex 9.048270e+000 0.000000e+000 -4.257793e+000
      endloop
   endfacet
   facet normal 0.000000e+000 -1.000000e+000 0.000000e+000
      outer loop
         vertex 9.048270e+000 0.000000e+000 -4.257793e+000
         vertex 9.822872e+000 0.000000e+000 -1.873813e+000
         vertex 8.443279e+000 0.000000e+000 5.358268e+000
      endloop
   endfacet
   facet normal 0.000000e+000 -1.000000e+000 0.000000e+000
      outer loop
         vertex 8.443279e+000 0.000000e+000 5.358268e+000
         vertex 9.822872e+000 0.000000e+000 -1.873813e+000
         vertex 9.980267e+000 0.000000e+000 6.279052e-001
      endloop
   endfacet
   facet normal 0.000000e+000 -1.000000e+000 0.000000e+000
      outer loop
         vertex 8.443279e+000 0.000000e+000 5.358268e+000
         vertex 9.980267e+000 0.000000e+000 6.279052e-001
         vertex 9.510566e+000 0.000000e+000 3.090170e+000
      endloop
   endfacet
   facet normal 0.000000e+000 -1.000000e+000 0.000000e+000
      outer loop
         vertex -7.705132e+000 0.000000e+000 -6.374240e+000
         vertex 8.443279e+000 0.000000e+000 5.358268e+000
         vertex -9.048270e+000 0.000000e+000 -4.257793e+000
      endloop
   endfacet
   facet normal 0.000000e+000 -1.000000e+000 0.000000e+000
      outer loop
         vertex -9.048270e+000 0.000000e+000 -4.257793e+000
         vertex 8.443279e+000 0.000000e+000 5.358268e+000
         vertex 6.845471e+000 0.000000e+000 7.289686e+000
      endloop
   endfacet
   facet normal 0.000000e+000 -1.000000e+000 0.000000e+000
      outer loop
         vertex -9.048270e+000 0.000000e+000 -4.257793e+000
         vertex 6.845471e+000 0.000000e+000 7.289686e+000
         vertex 4.817536e+000 0.000000e+000 8.763066e+000
      endloop
   endfacet
   facet normal 0.000000e+000 -1.000000e+000 0.000000e+000
      outer loop
         vertex -6.845471e+000 0.000000e+000 7.289686e+000
         vertex -9.510566e+000 0.000000e+000 3.090170e+000
         vertex -4.817536e+000 0.000000e+000 8.763066e+000
      endloop
   endfacet
   facet normal 0.000000e+000 -1.000000e+000 0.000000e+000
      outer loop
         vertex -5.877852e+000 0.000000e+000 -8.090170e+000
         vertex -3.681246e+000 0.000000e+000 -9.297765e+000
         vertex 8.443279e+000 0.000000e+000 5.358268e+000
      endloop
   endfacet
   facet normal 0.000000e+000 -1.000000e+000 0.000000e+000
      outer loop
         vertex 8.443279e+000 0.000000e+000 5.358268e+000
         vertex -3.681246e+000 0.000000e+000 -9.297765e+000
         vertex -1.253332e+000 0.000000e+000 -9.921146e+000
      endloop
   endfacet
   facet normal 0.000000e+000 -1.000000e+000 0.000000e+000
      outer loop
         vertex 8.443279e+000 0.000000e+000 5.358268e+000
         vertex -1.253332e+000 0.000000e+000 -9.921146e+000
         vertex 1.253332e+000 0.000000e+000 -9.921146e+000
      endloop
   endfacet
   facet normal 0.000000e+000 -1.000000e+000 0.000000e+000
      outer loop
         vertex -9.980267e+000 0.000000e+000 6.279052e-001
         vertex 0.000000e+000 0.000000e+000 1.000000e+001
         vertex -9.510566e+000 0.000000e+000 3.090170e+000
      endloop
   endfacet
   facet normal 0.000000e+000 -1.000000e+000 0.000000e+000
      outer loop
         vertex -9.510566e+000 0.000000e+000 3.090170e+000
         vertex 0.000000e+000 0.000000e+000 1.000000e+001
         vertex -2.486899e+000 0.000000e+000 9.685832e+000
      endloop
   endfacet
   facet normal 0.000000e+000 -1.000000e+000 0.000000e+000
      outer loop
         vertex -9.510566e+000 0.000000e+000 3.090170e+000
         vertex -2.486899e+000 0.000000e+000 9.685832e+000
         vertex -4.817536e+000 0.000000e+000 8.763066e+000
      endloop
   endfacet
endsolid