solid p2_д╛хо_sldprt
   facet normal 6.413931e-001 -3.599458e-003 7.672039e-001
      outer loop
         vertex 3.419870e+000 1.100000e+003 5.923388e+000
         vertex 1.500000e+000 0.000000e+000 2.598076e+000
         vertex 5.923388e+000 1.100000e+003 3.419870e+000
      endloop
   endfacet
   facet normal 7.672039e-001 -3.599458e-003 6.413931e-001
      outer loop
         vertex 5.923388e+000 1.100000e+003 3.419870e+000
         vertex 1.500000e+000 0.000000e+000 2.598076e+000
         vertex 2.598076e+000 0.000000e+000 1.500000e+000
      endloop
   endfacet
   facet normal 9.390647e-001 -3.599458e-003 3.437215e-001
      outer loop
         vertex 5.923388e+000 1.100000e+003 3.419870e+000
         vertex 2.598076e+000 0.000000e+000 1.500000e+000
         vertex 6.839740e+000 1.100000e+003 1.898409e-015
      endloop
   endfacet
   facet normal 9.851147e-001 -3.599459e-003 1.718608e-001
      outer loop
         vertex 6.839740e+000 1.100000e+003 1.898409e-015
         vertex 2.598076e+000 0.000000e+000 1.500000e+000
         vertex 3.000000e+000 0.000000e+000 8.326673e-016
      endloop
   endfacet
   facet normal 9.851147e-001 -3.599458e-003 -1.718608e-001
      outer loop
         vertex 6.839740e+000 1.100000e+003 1.898409e-015
         vertex 3.000000e+000 0.000000e+000 8.326673e-016
         vertex 5.923388e+000 1.100000e+003 -3.419870e+000
      endloop
   endfacet
   facet normal 9.390647e-001 -3.599458e-003 -3.437215e-001
      outer loop
         vertex 5.923388e+000 1.100000e+003 -3.419870e+000
         vertex 3.000000e+000 0.000000e+000 8.326673e-016
         vertex 2.598076e+000 0.000000e+000 -1.500000e+000
      endloop
   endfacet
   facet normal 7.672039e-001 -3.599458e-003 -6.413931e-001
      outer loop
         vertex 5.923388e+000 1.100000e+003 -3.419870e+000
         vertex 2.598076e+000 0.000000e+000 -1.500000e+000
         vertex 3.419870e+000 1.100000e+003 -5.923388e+000
      endloop
   endfacet
   facet normal 6.413931e-001 -3.599458e-003 -7.672039e-001
      outer loop
         vertex 3.419870e+000 1.100000e+003 -5.923388e+000
         vertex 2.598076e+000 0.000000e+000 -1.500000e+000
         vertex 1.500000e+000 0.000000e+000 -2.598076e+000
      endloop
   endfacet
   facet normal 3.437215e-001 -3.599458e-003 -9.390647e-001
      outer loop
         vertex 3.419870e+000 1.100000e+003 -5.923388e+000
         vertex 1.500000e+000 0.000000e+000 -2.598076e+000
         vertex 3.796818e-015 1.100000e+003 -6.839740e+000
      endloop
   endfacet
   facet normal 1.718608e-001 -3.599459e-003 -9.851146e-001
      outer loop
         vertex 3.796818e-015 1.100000e+003 -6.839740e+000
         vertex 1.500000e+000 0.000000e+000 -2.598076e+000
         vertex 1.665335e-015 0.000000e+000 -3.000000e+000
      endloop
   endfacet
   facet normal -1.718608e-001 -3.599458e-003 -9.851147e-001
      outer loop
         vertex 3.796818e-015 1.100000e+003 -6.839740e+000
         vertex 1.665335e-015 0.000000e+000 -3.000000e+000
         vertex -3.419870e+000 1.100000e+003 -5.923388e+000
      endloop
   endfacet
   facet normal -3.437215e-001 -3.599458e-003 -9.390647e-001
      outer loop
         vertex -3.419870e+000 1.100000e+003 -5.923388e+000
         vertex 1.665335e-015 0.000000e+000 -3.000000e+000
         vertex -1.500000e+000 0.000000e+000 -2.598076e+000
      endloop
   endfacet
   facet normal -6.413931e-001 -3.599458e-003 -7.672039e-001
      outer loop
         vertex -3.419870e+000 1.100000e+003 -5.923388e+000
         vertex -1.500000e+000 0.000000e+000 -2.598076e+000
         vertex -5.923388e+000 1.100000e+003 -3.419870e+000
      endloop
   endfacet
   facet normal -7.672039e-001 -3.599458e-003 -6.413931e-001
      outer loop
         vertex -5.923388e+000 1.100000e+003 -3.419870e+000
         vertex -1.500000e+000 0.000000e+000 -2.598076e+000
         vertex -2.598076e+000 0.000000e+000 -1.500000e+000
      endloop
   endfacet
   facet normal -9.390647e-001 -3.599458e-003 -3.437215e-001
      outer loop
         vertex -5.923388e+000 1.100000e+003 -3.419870e+000
         vertex -2.598076e+000 0.000000e+000 -1.500000e+000
         vertex -6.839740e+000 1.100000e+003 -5.695228e-015
      endloop
   endfacet
   facet normal -9.851147e-001 -3.599459e-003 -1.718608e-001
      outer loop
         vertex -6.839740e+000 1.100000e+003 -5.695228e-015
         vertex -2.598076e+000 0.000000e+000 -1.500000e+000
         vertex -3.000000e+000 0.000000e+000 -2.498002e-015
      endloop
   endfacet
   facet normal -9.851147e-001 -3.599458e-003 1.718608e-001
      outer loop
         vertex -6.839740e+000 1.100000e+003 -5.695228e-015
         vertex -3.000000e+000 0.000000e+000 -2.498002e-015
         vertex -5.923388e+000 1.100000e+003 3.419870e+000
      endloop
   endfacet
   facet normal -9.390647e-001 -3.599458e-003 3.437215e-001
      outer loop
         vertex -5.923388e+000 1.100000e+003 3.419870e+000
         vertex -3.000000e+000 0.000000e+000 -2.498002e-015
         vertex -2.598076e+000 0.000000e+000 1.500000e+000
      endloop
   endfacet
   facet normal -7.672039e-001 -3.599458e-003 6.413931e-001
      outer loop
         vertex -5.923388e+000 1.100000e+003 3.419870e+000
         vertex -2.598076e+000 0.000000e+000 1.500000e+000
         vertex -3.419870e+000 1.100000e+003 5.923388e+000
      endloop
   endfacet
   facet normal -6.413931e-001 -3.599458e-003 7.672039e-001
      outer loop
         vertex -3.419870e+000 1.100000e+003 5.923388e+000
         vertex -2.598076e+000 0.000000e+000 1.500000e+000
         vertex -1.500000e+000 0.000000e+000 2.598076e+000
      endloop
   endfacet
   facet normal -3.437215e-001 -3.599458e-003 9.390647e-001
      outer loop
         vertex -3.419870e+000 1.100000e+003 5.923388e+000
         vertex -1.500000e+000 0.000000e+000 2.598076e+000
         vertex 0.000000e+000 1.100000e+003 6.839740e+000
      endloop
   endfacet
   facet normal -1.718608e-001 -3.599459e-003 9.851146e-001
      outer loop
         vertex 0.000000e+000 1.100000e+003 6.839740e+000
         vertex -1.500000e+000 0.000000e+000 2.598076e+000
         vertex 0.000000e+000 0.000000e+000 3.000000e+000
      endloop
   endfacet
   facet normal 1.718608e-001 -3.599458e-003 9.851147e-001
      outer loop
         vertex 0.000000e+000 1.100000e+003 6.839740e+000
         vertex 0.000000e+000 0.000000e+000 3.000000e+000
         vertex 3.419870e+000 1.100000e+003 5.923388e+000
      endloop
   endfacet
   facet normal 3.437215e-001 -3.599458e-003 9.390647e-001
      outer loop
         vertex 3.419870e+000 1.100000e+003 5.923388e+000
         vertex 0.000000e+000 0.000000e+000 3.000000e+000
         vertex 1.500000e+000 0.000000e+000 2.598076e+000
      endloop
   endfacet
   facet normal 0.000000e+000 1.000000e+000 0.000000e+000
      outer loop
         vertex 5.923388e+000 1.100000e+003 3.419870e+000
         vertex 6.839740e+000 1.100000e+003 4.188133e-016
         vertex 5.923388e+000 1.100000e+003 -3.419870e+000
      endloop
   endfacet
   facet normal 0.000000e+000 1.000000e+000 0.000000e+000
      outer loop
         vertex -5.923388e+000 1.100000e+003 3.419870e+000
         vertex 5.923388e+000 1.100000e+003 -3.419870e+000
         vertex 3.419870e+000 1.100000e+003 -5.923388e+000
      endloop
   endfacet
   facet normal 0.000000e+000 1.000000e+000 0.000000e+000
      outer loop
         vertex 3.419870e+000 1.100000e+003 5.923388e+000
         vertex 5.923388e+000 1.100000e+003 3.419870e+000
         vertex -1.675253e-015 1.100000e+003 6.839740e+000
      endloop
   endfacet
   facet normal 0.000000e+000 1.000000e+000 0.000000e+000
      outer loop
         vertex -1.675253e-015 1.100000e+003 6.839740e+000
         vertex 5.923388e+000 1.100000e+003 3.419870e+000
         vertex 5.923388e+000 1.100000e+003 -3.419870e+000
      endloop
   endfacet
   facet normal 0.000000e+000 1.000000e+000 0.000000e+000
      outer loop
         vertex -1.675253e-015 1.100000e+003 6.839740e+000
         vertex 5.923388e+000 1.100000e+003 -3.419870e+000
         vertex -3.419870e+000 1.100000e+003 5.923388e+000
      endloop
   endfacet
   facet normal 0.000000e+000 1.000000e+000 0.000000e+000
      outer loop
         vertex -3.419870e+000 1.100000e+003 5.923388e+000
         vertex 5.923388e+000 1.100000e+003 -3.419870e+000
         vertex -5.923388e+000 1.100000e+003 3.419870e+000
      endloop
   endfacet
   facet normal 0.000000e+000 1.000000e+000 0.000000e+000
      outer loop
         vertex -5.923388e+000 1.100000e+003 -3.419870e+000
         vertex -6.839740e+000 1.100000e+003 -1.256440e-015
         vertex -3.419870e+000 1.100000e+003 -5.923388e+000
      endloop
   endfacet
   facet normal 0.000000e+000 1.000000e+000 0.000000e+000
      outer loop
         vertex -3.419870e+000 1.100000e+003 -5.923388e+000
         vertex -6.839740e+000 1.100000e+003 -1.256440e-015
         vertex -5.923388e+000 1.100000e+003 3.419870e+000
      endloop
   endfacet
   facet normal 0.000000e+000 1.000000e+000 0.000000e+000
      outer loop
         vertex -3.419870e+000 1.100000e+003 -5.923388e+000
         vertex -5.923388e+000 1.100000e+003 3.419870e+000
         vertex 3.875081e-015 1.100000e+003 -6.839740e+000
      endloop
   endfacet
   facet normal 0.000000e+000 1.000000e+000 0.000000e+000
      outer loop
         vertex 3.875081e-015 1.100000e+003 -6.839740e+000
         vertex -5.923388e+000 1.100000e+003 3.419870e+000
         vertex 3.419870e+000 1.100000e+003 -5.923388e+000
      endloop
   endfacet
   facet normal 0.000000e+000 -1.000000e+000 0.000000e+000
      outer loop
         vertex 1.699662e-015 0.000000e+000 -3.000000e+000
         vertex 1.500000e+000 0.000000e+000 -2.598076e+000
         vertex -1.500000e+000 0.000000e+000 2.598076e+000
      endloop
   endfacet
   facet normal 0.000000e+000 -1.000000e+000 0.000000e+000
      outer loop
         vertex -1.500000e+000 0.000000e+000 2.598076e+000
         vertex 1.500000e+000 0.000000e+000 -2.598076e+000
         vertex 2.598076e+000 0.000000e+000 -1.500000e+000
      endloop
   endfacet
   facet normal 0.000000e+000 -1.000000e+000 0.000000e+000
      outer loop
         vertex -1.500000e+000 0.000000e+000 -2.598076e+000
         vertex 1.699662e-015 0.000000e+000 -3.000000e+000
         vertex -2.598076e+000 0.000000e+000 -1.500000e+000
      endloop
   endfacet
   facet normal 0.000000e+000 -1.000000e+000 0.000000e+000
      outer loop
         vertex -2.598076e+000 0.000000e+000 -1.500000e+000
         vertex 1.699662e-015 0.000000e+000 -3.000000e+000
         vertex -1.500000e+000 0.000000e+000 2.598076e+000
      endloop
   endfacet
   facet normal 0.000000e+000 -1.000000e+000 0.000000e+000
      outer loop
         vertex -2.598076e+000 0.000000e+000 -1.500000e+000
         vertex -1.500000e+000 0.000000e+000 2.598076e+000
         vertex -3.000000e+000 0.000000e+000 -5.510910e-016
      endloop
   endfacet
   facet normal 0.000000e+000 -1.000000e+000 0.000000e+000
      outer loop
         vertex -3.000000e+000 0.000000e+000 -5.510910e-016
         vertex -1.500000e+000 0.000000e+000 2.598076e+000
         vertex -2.598076e+000 0.000000e+000 1.500000e+000
      endloop
   endfacet
   facet normal 0.000000e+000 -1.000000e+000 0.000000e+000
      outer loop
         vertex 1.500000e+000 0.000000e+000 2.598076e+000
         vertex 0.000000e+000 0.000000e+000 3.000000e+000
         vertex 2.598076e+000 0.000000e+000 1.500000e+000
      endloop
   endfacet
   facet normal 0.000000e+000 -1.000000e+000 0.000000e+000
      outer loop
         vertex 2.598076e+000 0.000000e+000 1.500000e+000
         vertex 0.000000e+000 0.000000e+000 3.000000e+000
         vertex -1.500000e+000 0.000000e+000 2.598076e+000
      endloop
   endfacet
   facet normal 0.000000e+000 -1.000000e+000 0.000000e+000
      outer loop
         vertex 2.598076e+000 0.000000e+000 1.500000e+000
         vertex -1.500000e+000 0.000000e+000 2.598076e+000
         vertex 3.000000e+000 0.000000e+000 1.836970e-016
      endloop
   endfacet
   facet normal 0.000000e+000 -1.000000e+000 0.000000e+000
      outer loop
         vertex 3.000000e+000 0.000000e+000 1.836970e-016
         vertex -1.500000e+000 0.000000e+000 2.598076e+000
         vertex 2.598076e+000 0.000000e+000 -1.500000e+000
      endloop
   endfacet
endsolid