solid zhongjian_д╛хо_sldprt
   facet normal -9.476778e-002 0.000000e+000 9.954994e-001
      outer loop
         vertex -9.797174e-015 -5.000000e+001 4.000000e+001
         vertex -9.797174e-015 5.000000e+001 4.000000e+001
         vertex -1.126930e+001 5.000000e+001 3.837972e+001
      endloop
   endfacet
   facet normal -1.895356e-001 0.000000e+000 9.818738e-001
      outer loop
         vertex -9.797174e-015 -5.000000e+001 4.000000e+001
         vertex -1.126930e+001 5.000000e+001 3.837972e+001
         vertex -1.126930e+001 -5.000000e+001 3.837972e+001
      endloop
   endfacet
   facet normal -3.713936e-001 0.000000e+000 9.284755e-001
      outer loop
         vertex -1.126930e+001 -5.000000e+001 3.837972e+001
         vertex -1.126930e+001 5.000000e+001 3.837972e+001
         vertex -2.162563e+001 5.000000e+001 3.365014e+001
      endloop
   endfacet
   facet normal -4.584839e-001 0.000000e+000 8.887027e-001
      outer loop
         vertex -1.126930e+001 -5.000000e+001 3.837972e+001
         vertex -2.162563e+001 5.000000e+001 3.365014e+001
         vertex -2.162563e+001 -5.000000e+001 3.365014e+001
      endloop
   endfacet
   facet normal -6.179314e-001 0.000000e+000 7.862321e-001
      outer loop
         vertex -2.162563e+001 -5.000000e+001 3.365014e+001
         vertex -2.162563e+001 5.000000e+001 3.365014e+001
         vertex -3.022998e+001 5.000000e+001 2.619443e+001
      endloop
   endfacet
   facet normal -6.902886e-001 0.000000e+000 7.235342e-001
      outer loop
         vertex -2.162563e+001 -5.000000e+001 3.365014e+001
         vertex -3.022998e+001 5.000000e+001 2.619443e+001
         vertex -3.022998e+001 -5.000000e+001 2.619443e+001
      endloop
   endfacet
   facet normal -8.144079e-001 0.000000e+000 5.802928e-001
      outer loop
         vertex -3.022998e+001 -5.000000e+001 2.619443e+001
         vertex -3.022998e+001 5.000000e+001 2.619443e+001
         vertex -3.638528e+001 5.000000e+001 1.661660e+001
      endloop
   endfacet
   facet normal -8.661701e-001 0.000000e+000 4.997492e-001
      outer loop
         vertex -3.022998e+001 -5.000000e+001 2.619443e+001
         vertex -3.638528e+001 5.000000e+001 1.661660e+001
         vertex -3.638528e+001 -5.000000e+001 1.661660e+001
      endloop
   endfacet
   facet normal -9.449061e-001 0.000000e+000 3.273416e-001
      outer loop
         vertex -3.638528e+001 -5.000000e+001 1.661660e+001
         vertex -3.638528e+001 5.000000e+001 1.661660e+001
         vertex -3.959286e+001 5.000000e+001 5.692594e+000
      endloop
   endfacet
   facet normal -9.718798e-001 0.000000e+000 2.354775e-001
      outer loop
         vertex -3.638528e+001 -5.000000e+001 1.661660e+001
         vertex -3.959286e+001 5.000000e+001 5.692594e+000
         vertex -3.959286e+001 -5.000000e+001 5.692594e+000
      endloop
   endfacet
   facet normal -9.988535e-001 0.000000e+000 4.787115e-002
      outer loop
         vertex -3.959286e+001 -5.000000e+001 5.692594e+000
         vertex -3.959286e+001 5.000000e+001 5.692594e+000
         vertex -3.959286e+001 5.000000e+001 -5.692594e+000
      endloop
   endfacet
   facet normal -9.988535e-001 0.000000e+000 -4.787115e-002
      outer loop
         vertex -3.959286e+001 -5.000000e+001 5.692594e+000
         vertex -3.959286e+001 5.000000e+001 -5.692594e+000
         vertex -3.959286e+001 -5.000000e+001 -5.692594e+000
      endloop
   endfacet
   facet normal -9.718798e-001 0.000000e+000 -2.354775e-001
      outer loop
         vertex -3.959286e+001 -5.000000e+001 -5.692594e+000
         vertex -3.959286e+001 5.000000e+001 -5.692594e+000
         vertex -3.638528e+001 5.000000e+001 -1.661660e+001
      endloop
   endfacet
   facet normal -9.449061e-001 0.000000e+000 -3.273416e-001
      outer loop
         vertex -3.959286e+001 -5.000000e+001 -5.692594e+000
         vertex -3.638528e+001 5.000000e+001 -1.661660e+001
         vertex -3.638528e+001 -5.000000e+001 -1.661660e+001
      endloop
   endfacet
   facet normal -8.661701e-001 0.000000e+000 -4.997492e-001
      outer loop
         vertex -3.638528e+001 -5.000000e+001 -1.661660e+001
         vertex -3.638528e+001 5.000000e+001 -1.661660e+001
         vertex -3.022998e+001 5.000000e+001 -2.619443e+001
      endloop
   endfacet
   facet normal -8.144079e-001 0.000000e+000 -5.802928e-001
      outer loop
         vertex -3.638528e+001 -5.000000e+001 -1.661660e+001
         vertex -3.022998e+001 5.000000e+001 -2.619443e+001
         vertex -3.022998e+001 -5.000000e+001 -2.619443e+001
      endloop
   endfacet
   facet normal -6.902886e-001 0.000000e+000 -7.235342e-001
      outer loop
         vertex -3.022998e+001 -5.000000e+001 -2.619443e+001
         vertex -3.022998e+001 5.000000e+001 -2.619443e+001
         vertex -2.162563e+001 5.000000e+001 -3.365014e+001
      endloop
   endfacet
   facet normal -6.179314e-001 0.000000e+000 -7.862321e-001
      outer loop
         vertex -3.022998e+001 -5.000000e+001 -2.619443e+001
         vertex -2.162563e+001 5.000000e+001 -3.365014e+001
         vertex -2.162563e+001 -5.000000e+001 -3.365014e+001
      endloop
   endfacet
   facet normal -4.584839e-001 0.000000e+000 -8.887027e-001
      outer loop
         vertex -2.162563e+001 -5.000000e+001 -3.365014e+001
         vertex -2.162563e+001 5.000000e+001 -3.365014e+001
         vertex -1.126930e+001 5.000000e+001 -3.837972e+001
      endloop
   endfacet
   facet normal -3.713937e-001 0.000000e+000 -9.284755e-001
      outer loop
         vertex -2.162563e+001 -5.000000e+001 -3.365014e+001
         vertex -1.126930e+001 5.000000e+001 -3.837972e+001
         vertex -1.126930e+001 -5.000000e+001 -3.837972e+001
      endloop
   endfacet
   facet normal -1.895356e-001 0.000000e+000 -9.818738e-001
      outer loop
         vertex -1.126930e+001 -5.000000e+001 -3.837972e+001
         vertex -1.126930e+001 5.000000e+001 -3.837972e+001
         vertex 4.898587e-015 5.000000e+001 -4.000000e+001
      endloop
   endfacet
   facet normal -9.476778e-002 0.000000e+000 -9.954994e-001
      outer loop
         vertex -1.126930e+001 -5.000000e+001 -3.837972e+001
         vertex 4.898587e-015 5.000000e+001 -4.000000e+001
         vertex 4.898587e-015 -5.000000e+001 -4.000000e+001
      endloop
   endfacet
   facet normal 0.000000e+000 -1.000000e+000 0.000000e+000
      outer loop
         vertex 2.225268e+002 -5.000000e+001 -1.205086e+001
         vertex 9.740984e+000 -5.000000e+001 2.837452e+001
         vertex 1.842638e+001 -5.000000e+001 2.367422e+001
      endloop
   endfacet
   facet normal 0.000000e+000 -1.000000e+000 0.000000e+000
      outer loop
         vertex 2.500000e+002 -5.000000e+001 -4.000000e+001
         vertex 2.612693e+002 -5.000000e+001 -3.837972e+001
         vertex 2.549378e+002 -5.000000e+001 -2.959084e+001
      endloop
   endfacet
   facet normal 0.000000e+000 -1.000000e+000 0.000000e+000
      outer loop
         vertex 2.500000e+002 -5.000000e+001 4.000000e+001
         vertex 0.000000e+000 -5.000000e+001 4.000000e+001
         vertex 2.315736e+002 -5.000000e+001 2.367422e+001
      endloop
   endfacet
   facet normal 0.000000e+000 -1.000000e+000 0.000000e+000
      outer loop
         vertex 2.315736e+002 -5.000000e+001 2.367422e+001
         vertex 2.402590e+002 -5.000000e+001 2.837452e+001
         vertex 2.500000e+002 -5.000000e+001 4.000000e+001
      endloop
   endfacet
   facet normal 0.000000e+000 -1.000000e+000 0.000000e+000
      outer loop
         vertex 2.500000e+002 -5.000000e+001 4.000000e+001
         vertex 2.402590e+002 -5.000000e+001 2.837452e+001
         vertex 2.500000e+002 -5.000000e+001 3.000000e+001
      endloop
   endfacet
   facet normal 0.000000e+000 -1.000000e+000 0.000000e+000
      outer loop
         vertex 2.500000e+002 -5.000000e+001 4.000000e+001
         vertex 2.500000e+002 -5.000000e+001 3.000000e+001
         vertex 2.612693e+002 -5.000000e+001 3.837972e+001
      endloop
   endfacet
   facet normal 0.000000e+000 -1.000000e+000 0.000000e+000
      outer loop
         vertex 2.612693e+002 -5.000000e+001 3.837972e+001
         vertex 2.500000e+002 -5.000000e+001 3.000000e+001
         vertex 2.597410e+002 -5.000000e+001 2.837452e+001
      endloop
   endfacet
   facet normal 0.000000e+000 -1.000000e+000 0.000000e+000
      outer loop
         vertex 2.612693e+002 -5.000000e+001 3.837972e+001
         vertex 2.597410e+002 -5.000000e+001 2.837452e+001
         vertex 2.716256e+002 -5.000000e+001 3.365014e+001
      endloop
   endfacet
   facet normal 0.000000e+000 -1.000000e+000 0.000000e+000
      outer loop
         vertex 2.716256e+002 -5.000000e+001 3.365014e+001
         vertex 2.597410e+002 -5.000000e+001 2.837452e+001
         vertex 2.684264e+002 -5.000000e+001 2.367422e+001
      endloop
   endfacet
   facet normal 0.000000e+000 -1.000000e+000 0.000000e+000
      outer loop
         vertex 2.716256e+002 -5.000000e+001 3.365014e+001
         vertex 2.684264e+002 -5.000000e+001 2.367422e+001
         vertex 2.802300e+002 -5.000000e+001 2.619443e+001
      endloop
   endfacet
   facet normal 0.000000e+000 -1.000000e+000 0.000000e+000
      outer loop
         vertex 2.802300e+002 -5.000000e+001 2.619443e+001
         vertex 2.684264e+002 -5.000000e+001 2.367422e+001
         vertex 2.751150e+002 -5.000000e+001 1.640845e+001
      endloop
   endfacet
   facet normal 0.000000e+000 -1.000000e+000 0.000000e+000
      outer loop
         vertex -2.511499e+001 -5.000000e+001 1.640845e+001
         vertex -1.842638e+001 -5.000000e+001 2.367422e+001
         vertex -2.162563e+001 -5.000000e+001 3.365014e+001
      endloop
   endfacet
   facet normal 0.000000e+000 -1.000000e+000 0.000000e+000
      outer loop
         vertex 1.842638e+001 -5.000000e+001 2.367422e+001
         vertex 2.511499e+001 -5.000000e+001 1.640845e+001
         vertex 2.225268e+002 -5.000000e+001 -1.205086e+001
      endloop
   endfacet
   facet normal 0.000000e+000 -1.000000e+000 0.000000e+000
      outer loop
         vertex 2.225268e+002 -5.000000e+001 -1.205086e+001
         vertex 2.511499e+001 -5.000000e+001 1.640845e+001
         vertex 2.908201e+001 -5.000000e+001 7.364564e+000
      endloop
   endfacet
   facet normal 0.000000e+000 -1.000000e+000 0.000000e+000
      outer loop
         vertex 2.225268e+002 -5.000000e+001 -1.205086e+001
         vertex 2.908201e+001 -5.000000e+001 7.364564e+000
         vertex 2.279283e+002 -5.000000e+001 -2.031845e+001
      endloop
   endfacet
   facet normal 0.000000e+000 -1.000000e+000 0.000000e+000
      outer loop
         vertex -2.162563e+001 -5.000000e+001 3.365014e+001
         vertex -1.842638e+001 -5.000000e+001 2.367422e+001
         vertex -1.126930e+001 -5.000000e+001 3.837972e+001
      endloop
   endfacet
   facet normal 0.000000e+000 -1.000000e+000 0.000000e+000
      outer loop
         vertex -1.126930e+001 -5.000000e+001 3.837972e+001
         vertex -1.842638e+001 -5.000000e+001 2.367422e+001
         vertex -9.740984e+000 -5.000000e+001 2.837452e+001
      endloop
   endfacet
   facet normal 0.000000e+000 -1.000000e+000 0.000000e+000
      outer loop
         vertex -1.126930e+001 -5.000000e+001 3.837972e+001
         vertex -9.740984e+000 -5.000000e+001 2.837452e+001
         vertex 0.000000e+000 -5.000000e+001 4.000000e+001
      endloop
   endfacet
   facet normal 0.000000e+000 -1.000000e+000 0.000000e+000
      outer loop
         vertex 0.000000e+000 -5.000000e+001 4.000000e+001
         vertex -9.740984e+000 -5.000000e+001 2.837452e+001
         vertex -7.347881e-015 -5.000000e+001 3.000000e+001
      endloop
   endfacet
   facet normal 0.000000e+000 -1.000000e+000 0.000000e+000
      outer loop
         vertex 0.000000e+000 -5.000000e+001 4.000000e+001
         vertex -7.347881e-015 -5.000000e+001 3.000000e+001
         vertex 9.740984e+000 -5.000000e+001 2.837452e+001
      endloop
   endfacet
   facet normal 0.000000e+000 -1.000000e+000 0.000000e+000
      outer loop
         vertex 2.549378e+002 -5.000000e+001 -2.959084e+001
         vertex 2.612693e+002 -5.000000e+001 -3.837972e+001
         vertex 2.642784e+002 -5.000000e+001 -2.638421e+001
      endloop
   endfacet
   facet normal 0.000000e+000 -1.000000e+000 0.000000e+000
      outer loop
         vertex 2.642784e+002 -5.000000e+001 -2.638421e+001
         vertex 2.612693e+002 -5.000000e+001 -3.837972e+001
         vertex 2.716256e+002 -5.000000e+001 -3.365014e+001
      endloop
   endfacet
   facet normal 0.000000e+000 -1.000000e+000 0.000000e+000
      outer loop
         vertex 2.642784e+002 -5.000000e+001 -2.638421e+001
         vertex 2.716256e+002 -5.000000e+001 -3.365014e+001
         vertex 2.720717e+002 -5.000000e+001 -2.031845e+001
      endloop
   endfacet
   facet normal 0.000000e+000 -1.000000e+000 0.000000e+000
      outer loop
         vertex 2.720717e+002 -5.000000e+001 -2.031845e+001
         vertex 2.716256e+002 -5.000000e+001 -3.365014e+001
         vertex 2.802300e+002 -5.000000e+001 -2.619443e+001
      endloop
   endfacet
   facet normal 0.000000e+000 -1.000000e+000 0.000000e+000
      outer loop
         vertex 2.720717e+002 -5.000000e+001 -2.031845e+001
         vertex 2.802300e+002 -5.000000e+001 -2.619443e+001
         vertex 2.774732e+002 -5.000000e+001 -1.205086e+001
      endloop
   endfacet
   facet normal 0.000000e+000 -1.000000e+000 0.000000e+000
      outer loop
         vertex 2.774732e+002 -5.000000e+001 -1.205086e+001
         vertex 2.802300e+002 -5.000000e+001 -2.619443e+001
         vertex 2.863853e+002 -5.000000e+001 -1.661660e+001
      endloop
   endfacet
   facet normal 0.000000e+000 -1.000000e+000 0.000000e+000
      outer loop
         vertex 2.774732e+002 -5.000000e+001 -1.205086e+001
         vertex 2.863853e+002 -5.000000e+001 -1.661660e+001
         vertex 2.798976e+002 -5.000000e+001 -2.477381e+000
      endloop
   endfacet
   facet normal 0.000000e+000 -1.000000e+000 0.000000e+000
      outer loop
         vertex 2.798976e+002 -5.000000e+001 -2.477381e+000
         vertex 2.863853e+002 -5.000000e+001 -1.661660e+001
         vertex 2.895929e+002 -5.000000e+001 -5.692594e+000
      endloop
   endfacet
   facet normal 0.000000e+000 -1.000000e+000 0.000000e+000
      outer loop
         vertex 2.798976e+002 -5.000000e+001 -2.477381e+000
         vertex 2.895929e+002 -5.000000e+001 -5.692594e+000
         vertex 2.790820e+002 -5.000000e+001 7.364564e+000
      endloop
   endfacet
   facet normal 0.000000e+000 -1.000000e+000 0.000000e+000
      outer loop
         vertex 2.790820e+002 -5.000000e+001 7.364564e+000
         vertex 2.895929e+002 -5.000000e+001 -5.692594e+000
         vertex 2.895929e+002 -5.000000e+001 5.692594e+000
      endloop
   endfacet
   facet normal 0.000000e+000 -1.000000e+000 0.000000e+000
      outer loop
         vertex 2.790820e+002 -5.000000e+001 7.364564e+000
         vertex 2.895929e+002 -5.000000e+001 5.692594e+000
         vertex 2.751150e+002 -5.000000e+001 1.640845e+001
      endloop
   endfacet
   facet normal 0.000000e+000 -1.000000e+000 0.000000e+000
      outer loop
         vertex 2.751150e+002 -5.000000e+001 1.640845e+001
         vertex 2.895929e+002 -5.000000e+001 5.692594e+000
         vertex 2.863853e+002 -5.000000e+001 1.661660e+001
      endloop
   endfacet
   facet normal 0.000000e+000 -1.000000e+000 0.000000e+000
      outer loop
         vertex 2.751150e+002 -5.000000e+001 1.640845e+001
         vertex 2.863853e+002 -5.000000e+001 1.661660e+001
         vertex 2.802300e+002 -5.000000e+001 2.619443e+001
      endloop
   endfacet
   facet normal 0.000000e+000 -1.000000e+000 0.000000e+000
      outer loop
         vertex 2.549378e+002 -5.000000e+001 -2.959084e+001
         vertex 2.450622e+002 -5.000000e+001 -2.959084e+001
         vertex 2.500000e+002 -5.000000e+001 -4.000000e+001
      endloop
   endfacet
   facet normal 0.000000e+000 -1.000000e+000 0.000000e+000
      outer loop
         vertex 2.500000e+002 -5.000000e+001 -4.000000e+001
         vertex 2.450622e+002 -5.000000e+001 -2.959084e+001
         vertex 2.357216e+002 -5.000000e+001 -2.638421e+001
      endloop
   endfacet
   facet normal 0.000000e+000 -1.000000e+000 0.000000e+000
      outer loop
         vertex 2.500000e+002 -5.000000e+001 -4.000000e+001
         vertex 2.357216e+002 -5.000000e+001 -2.638421e+001
         vertex 2.747320e+001 -5.000000e+001 -1.205086e+001
      endloop
   endfacet
   facet normal 0.000000e+000 -1.000000e+000 0.000000e+000
      outer loop
         vertex 2.747320e+001 -5.000000e+001 -1.205086e+001
         vertex 2.357216e+002 -5.000000e+001 -2.638421e+001
         vertex 2.279283e+002 -5.000000e+001 -2.031845e+001
      endloop
   endfacet
   facet normal 0.000000e+000 -1.000000e+000 0.000000e+000
      outer loop
         vertex 2.747320e+001 -5.000000e+001 -1.205086e+001
         vertex 2.279283e+002 -5.000000e+001 -2.031845e+001
         vertex 2.989754e+001 -5.000000e+001 -2.477381e+000
      endloop
   endfacet
   facet normal 0.000000e+000 -1.000000e+000 0.000000e+000
      outer loop
         vertex 2.989754e+001 -5.000000e+001 -2.477381e+000
         vertex 2.279283e+002 -5.000000e+001 -2.031845e+001
         vertex 2.908201e+001 -5.000000e+001 7.364564e+000
      endloop
   endfacet
   facet normal 0.000000e+000 -1.000000e+000 0.000000e+000
      outer loop
         vertex 2.225268e+002 -5.000000e+001 -1.205086e+001
         vertex 2.201025e+002 -5.000000e+001 -2.477381e+000
         vertex 9.740984e+000 -5.000000e+001 2.837452e+001
      endloop
   endfacet
   facet normal 0.000000e+000 -1.000000e+000 0.000000e+000
      outer loop
         vertex 9.740984e+000 -5.000000e+001 2.837452e+001
         vertex 2.201025e+002 -5.000000e+001 -2.477381e+000
         vertex 2.209180e+002 -5.000000e+001 7.364564e+000
      endloop
   endfacet
   facet normal 0.000000e+000 -1.000000e+000 0.000000e+000
      outer loop
         vertex 9.740984e+000 -5.000000e+001 2.837452e+001
         vertex 2.209180e+002 -5.000000e+001 7.364564e+000
         vertex 0.000000e+000 -5.000000e+001 4.000000e+001
      endloop
   endfacet
   facet normal 0.000000e+000 -1.000000e+000 0.000000e+000
      outer loop
         vertex 0.000000e+000 -5.000000e+001 4.000000e+001
         vertex 2.209180e+002 -5.000000e+001 7.364564e+000
         vertex 2.248850e+002 -5.000000e+001 1.640845e+001
      endloop
   endfacet
   facet normal 0.000000e+000 -1.000000e+000 0.000000e+000
      outer loop
         vertex 0.000000e+000 -5.000000e+001 4.000000e+001
         vertex 2.248850e+002 -5.000000e+001 1.640845e+001
         vertex 2.315736e+002 -5.000000e+001 2.367422e+001
      endloop
   endfacet
   facet normal 0.000000e+000 -1.000000e+000 0.000000e+000
      outer loop
         vertex 2.747320e+001 -5.000000e+001 -1.205086e+001
         vertex 2.207172e+001 -5.000000e+001 -2.031845e+001
         vertex 2.500000e+002 -5.000000e+001 -4.000000e+001
      endloop
   endfacet
   facet normal 0.000000e+000 -1.000000e+000 0.000000e+000
      outer loop
         vertex 2.500000e+002 -5.000000e+001 -4.000000e+001
         vertex 2.207172e+001 -5.000000e+001 -2.031845e+001
         vertex 1.427842e+001 -5.000000e+001 -2.638421e+001
      endloop
   endfacet
   facet normal 0.000000e+000 -1.000000e+000 0.000000e+000
      outer loop
         vertex 2.500000e+002 -5.000000e+001 -4.000000e+001
         vertex 1.427842e+001 -5.000000e+001 -2.638421e+001
         vertex 0.000000e+000 -5.000000e+001 -4.000000e+001
      endloop
   endfacet
   facet normal 0.000000e+000 -1.000000e+000 0.000000e+000
      outer loop
         vertex 0.000000e+000 -5.000000e+001 -4.000000e+001
         vertex 1.427842e+001 -5.000000e+001 -2.638421e+001
         vertex 4.937838e+000 -5.000000e+001 -2.959084e+001
      endloop
   endfacet
   facet normal 0.000000e+000 -1.000000e+000 0.000000e+000
      outer loop
         vertex 0.000000e+000 -5.000000e+001 -4.000000e+001
         vertex 4.937838e+000 -5.000000e+001 -2.959084e+001
         vertex -1.126930e+001 -5.000000e+001 -3.837972e+001
      endloop
   endfacet
   facet normal 0.000000e+000 -1.000000e+000 0.000000e+000
      outer loop
         vertex -1.126930e+001 -5.000000e+001 -3.837972e+001
         vertex 4.937838e+000 -5.000000e+001 -2.959084e+001
         vertex -4.937838e+000 -5.000000e+001 -2.959084e+001
      endloop
   endfacet
   facet normal 0.000000e+000 -1.000000e+000 0.000000e+000
      outer loop
         vertex -1.126930e+001 -5.000000e+001 -3.837972e+001
         vertex -4.937838e+000 -5.000000e+001 -2.959084e+001
         vertex -2.162563e+001 -5.000000e+001 -3.365014e+001
      endloop
   endfacet
   facet normal 0.000000e+000 -1.000000e+000 0.000000e+000
      outer loop
         vertex -2.162563e+001 -5.000000e+001 -3.365014e+001
         vertex -4.937838e+000 -5.000000e+001 -2.959084e+001
         vertex -1.427842e+001 -5.000000e+001 -2.638421e+001
      endloop
   endfacet
   facet normal 0.000000e+000 -1.000000e+000 0.000000e+000
      outer loop
         vertex -2.162563e+001 -5.000000e+001 -3.365014e+001
         vertex -1.427842e+001 -5.000000e+001 -2.638421e+001
         vertex -3.022998e+001 -5.000000e+001 -2.619443e+001
      endloop
   endfacet
   facet normal 0.000000e+000 -1.000000e+000 0.000000e+000
      outer loop
         vertex -3.022998e+001 -5.000000e+001 -2.619443e+001
         vertex -1.427842e+001 -5.000000e+001 -2.638421e+001
         vertex -2.207172e+001 -5.000000e+001 -2.031845e+001
      endloop
   endfacet
   facet normal 0.000000e+000 -1.000000e+000 0.000000e+000
      outer loop
         vertex -3.022998e+001 -5.000000e+001 -2.619443e+001
         vertex -2.207172e+001 -5.000000e+001 -2.031845e+001
         vertex -3.638528e+001 -5.000000e+001 -1.661660e+001
      endloop
   endfacet
   facet normal 0.000000e+000 -1.000000e+000 0.000000e+000
      outer loop
         vertex -3.638528e+001 -5.000000e+001 -1.661660e+001
         vertex -2.207172e+001 -5.000000e+001 -2.031845e+001
         vertex -2.747320e+001 -5.000000e+001 -1.205086e+001
      endloop
   endfacet
   facet normal 0.000000e+000 -1.000000e+000 0.000000e+000
      outer loop
         vertex -3.638528e+001 -5.000000e+001 -1.661660e+001
         vertex -2.747320e+001 -5.000000e+001 -1.205086e+001
         vertex -3.959286e+001 -5.000000e+001 -5.692594e+000
      endloop
   endfacet
   facet normal 0.000000e+000 -1.000000e+000 0.000000e+000
      outer loop
         vertex -3.959286e+001 -5.000000e+001 -5.692594e+000
         vertex -2.747320e+001 -5.000000e+001 -1.205086e+001
         vertex -2.989754e+001 -5.000000e+001 -2.477381e+000
      endloop
   endfacet
   facet normal 0.000000e+000 -1.000000e+000 0.000000e+000
      outer loop
         vertex -3.959286e+001 -5.000000e+001 -5.692594e+000
         vertex -2.989754e+001 -5.000000e+001 -2.477381e+000
         vertex -3.959286e+001 -5.000000e+001 5.692594e+000
      endloop
   endfacet
   facet normal 0.000000e+000 -1.000000e+000 0.000000e+000
      outer loop
         vertex -3.959286e+001 -5.000000e+001 5.692594e+000
         vertex -2.989754e+001 -5.000000e+001 -2.477381e+000
         vertex -2.908201e+001 -5.000000e+001 7.364564e+000
      endloop
   endfacet
   facet normal 0.000000e+000 -1.000000e+000 0.000000e+000
      outer loop
         vertex -3.959286e+001 -5.000000e+001 5.692594e+000
         vertex -2.908201e+001 -5.000000e+001 7.364564e+000
         vertex -3.638528e+001 -5.000000e+001 1.661660e+001
      endloop
   endfacet
   facet normal 0.000000e+000 -1.000000e+000 0.000000e+000
      outer loop
         vertex -3.638528e+001 -5.000000e+001 1.661660e+001
         vertex -2.908201e+001 -5.000000e+001 7.364564e+000
         vertex -2.511499e+001 -5.000000e+001 1.640845e+001
      endloop
   endfacet
   facet normal 0.000000e+000 -1.000000e+000 0.000000e+000
      outer loop
         vertex -3.638528e+001 -5.000000e+001 1.661660e+001
         vertex -2.511499e+001 -5.000000e+001 1.640845e+001
         vertex -3.022998e+001 -5.000000e+001 2.619443e+001
      endloop
   endfacet
   facet normal 0.000000e+000 -1.000000e+000 0.000000e+000
      outer loop
         vertex -3.022998e+001 -5.000000e+001 2.619443e+001
         vertex -2.511499e+001 -5.000000e+001 1.640845e+001
         vertex -2.162563e+001 -5.000000e+001 3.365014e+001
      endloop
   endfacet
   facet normal 1.095604e-001 0.000000e+000 -9.939802e-001
      outer loop
         vertex -9.740984e+000 -5.000000e+001 2.837452e+001
         vertex -7.347881e-015 5.000000e+001 3.000000e+001
         vertex -7.347881e-015 -5.000000e+001 3.000000e+001
      endloop
   endfacet
   facet normal -1.095604e-001 0.000000e+000 -9.939802e-001
      outer loop
         vertex -7.347881e-015 -5.000000e+001 3.000000e+001
         vertex -7.347881e-015 5.000000e+001 3.000000e+001
         vertex 9.740984e+000 5.000000e+001 2.837452e+001
      endloop
   endfacet
   facet normal -2.191207e-001 0.000000e+000 -9.756978e-001
      outer loop
         vertex -7.347881e-015 -5.000000e+001 3.000000e+001
         vertex 9.740984e+000 5.000000e+001 2.837452e+001
         vertex 9.740984e+000 -5.000000e+001 2.837452e+001
      endloop
   endfacet
   facet normal -4.263689e-001 0.000000e+000 -9.045494e-001
      outer loop
         vertex 9.740984e+000 -5.000000e+001 2.837452e+001
         vertex 9.740984e+000 5.000000e+001 2.837452e+001
         vertex 1.842638e+001 5.000000e+001 2.367422e+001
      endloop
   endfacet
   facet normal -5.240567e-001 0.000000e+000 -8.516834e-001
      outer loop
         vertex 9.740984e+000 -5.000000e+001 2.837452e+001
         vertex 1.842638e+001 5.000000e+001 2.367422e+001
         vertex 1.842638e+001 -5.000000e+001 2.367422e+001
      endloop
   endfacet
   facet normal -6.969737e-001 0.000000e+000 -7.170966e-001
      outer loop
         vertex 1.842638e+001 -5.000000e+001 2.367422e+001
         vertex 1.842638e+001 5.000000e+001 2.367422e+001
         vertex 2.511499e+001 5.000000e+001 1.640845e+001
      endloop
   endfacet
   facet normal -7.722030e-001 0.000000e+000 -6.353759e-001
      outer loop
         vertex 1.842638e+001 -5.000000e+001 2.367422e+001
         vertex 2.511499e+001 5.000000e+001 1.640845e+001
         vertex 2.511499e+001 -5.000000e+001 1.640845e+001
      endloop
   endfacet
   facet normal -8.920507e-001 0.000000e+000 -4.519353e-001
      outer loop
         vertex 2.511499e+001 -5.000000e+001 1.640845e+001
         vertex 2.511499e+001 5.000000e+001 1.640845e+001
         vertex 2.908201e+001 5.000000e+001 7.364564e+000
      endloop
   endfacet
   facet normal -9.366692e-001 0.000000e+000 -3.502155e-001
      outer loop
         vertex 2.511499e+001 -5.000000e+001 1.640845e+001
         vertex 2.908201e+001 5.000000e+001 7.364564e+000
         vertex 2.908201e+001 -5.000000e+001 7.364564e+000
      endloop
   endfacet
   facet normal -9.904601e-001 0.000000e+000 -1.377998e-001
      outer loop
         vertex 2.908201e+001 -5.000000e+001 7.364564e+000
         vertex 2.908201e+001 5.000000e+001 7.364564e+000
         vertex 2.989754e+001 5.000000e+001 -2.477381e+000
      endloop
   endfacet
   facet normal -9.996326e-001 0.000000e+000 -2.710393e-002
      outer loop
         vertex 2.908201e+001 -5.000000e+001 7.364564e+000
         vertex 2.989754e+001 5.000000e+001 -2.477381e+000
         vertex 2.989754e+001 -5.000000e+001 -2.477381e+000
      endloop
   endfacet
   facet normal -9.815378e-001 0.000000e+000 1.912684e-001
      outer loop
         vertex 2.989754e+001 -5.000000e+001 -2.477381e+000
         vertex 2.989754e+001 5.000000e+001 -2.477381e+000
         vertex 2.747320e+001 5.000000e+001 -1.205086e+001
      endloop
   endfacet
   facet normal -9.542704e-001 0.000000e+000 2.989448e-001
      outer loop
         vertex 2.989754e+001 -5.000000e+001 -2.477381e+000
         vertex 2.747320e+001 5.000000e+001 -1.205086e+001
         vertex 2.747320e+001 -5.000000e+001 -1.205086e+001
      endloop
   endfacet
   facet normal -8.662506e-001 0.000000e+000 4.996097e-001
      outer loop
         vertex 2.747320e+001 -5.000000e+001 -1.205086e+001
         vertex 2.747320e+001 5.000000e+001 -1.205086e+001
         vertex 2.207172e+001 5.000000e+001 -2.031845e+001
      endloop
   endfacet
   facet normal -8.054982e-001 0.000000e+000 5.925983e-001
      outer loop
         vertex 2.747320e+001 -5.000000e+001 -1.205086e+001
         vertex 2.207172e+001 5.000000e+001 -2.031845e+001
         vertex 2.207172e+001 -5.000000e+001 -2.031845e+001
      endloop
   endfacet
   facet normal -6.570917e-001 0.000000e+000 7.538106e-001
      outer loop
         vertex 2.207172e+001 -5.000000e+001 -2.031845e+001
         vertex 2.207172e+001 5.000000e+001 -2.031845e+001
         vertex 1.427842e+001 5.000000e+001 -2.638421e+001
      endloop
   endfacet
   facet normal -5.694377e-001 0.000000e+000 8.220344e-001
      outer loop
         vertex 2.207172e+001 -5.000000e+001 -2.031845e+001
         vertex 1.427842e+001 5.000000e+001 -2.638421e+001
         vertex 1.427842e+001 -5.000000e+001 -2.638421e+001
      endloop
   endfacet
   facet normal -3.767268e-001 0.000000e+000 9.263244e-001
      outer loop
         vertex 1.427842e+001 -5.000000e+001 -2.638421e+001
         vertex 1.427842e+001 5.000000e+001 -2.638421e+001
         vertex 4.937838e+000 5.000000e+001 -2.959084e+001
      endloop
   endfacet
   facet normal -2.716698e-001 0.000000e+000 9.623905e-001
      outer loop
         vertex 1.427842e+001 -5.000000e+001 -2.638421e+001
         vertex 4.937838e+000 5.000000e+001 -2.959084e+001
         vertex 4.937838e+000 -5.000000e+001 -2.959084e+001
      endloop
   endfacet
   facet normal -5.553765e-002 0.000000e+000 9.984566e-001
      outer loop
         vertex 4.937838e+000 -5.000000e+001 -2.959084e+001
         vertex 4.937838e+000 5.000000e+001 -2.959084e+001
         vertex -4.937838e+000 5.000000e+001 -2.959084e+001
      endloop
   endfacet
   facet normal 5.553765e-002 0.000000e+000 9.984566e-001
      outer loop
         vertex 4.937838e+000 -5.000000e+001 -2.959084e+001
         vertex -4.937838e+000 5.000000e+001 -2.959084e+001
         vertex -4.937838e+000 -5.000000e+001 -2.959084e+001
      endloop
   endfacet
   facet normal 2.716698e-001 0.000000e+000 9.623905e-001
      outer loop
         vertex -4.937838e+000 -5.000000e+001 -2.959084e+001
         vertex -4.937838e+000 5.000000e+001 -2.959084e+001
         vertex -1.427842e+001 5.000000e+001 -2.638421e+001
      endloop
   endfacet
   facet normal 3.767268e-001 0.000000e+000 9.263244e-001
      outer loop
         vertex -4.937838e+000 -5.000000e+001 -2.959084e+001
         vertex -1.427842e+001 5.000000e+001 -2.638421e+001
         vertex -1.427842e+001 -5.000000e+001 -2.638421e+001
      endloop
   endfacet
   facet normal 5.694377e-001 0.000000e+000 8.220344e-001
      outer loop
         vertex -1.427842e+001 -5.000000e+001 -2.638421e+001
         vertex -1.427842e+001 5.000000e+001 -2.638421e+001
         vertex -2.207172e+001 5.000000e+001 -2.031845e+001
      endloop
   endfacet
   facet normal 6.570918e-001 0.000000e+000 7.538106e-001
      outer loop
         vertex -1.427842e+001 -5.000000e+001 -2.638421e+001
         vertex -2.207172e+001 5.000000e+001 -2.031845e+001
         vertex -2.207172e+001 -5.000000e+001 -2.031845e+001
      endloop
   endfacet
   facet normal 8.054982e-001 0.000000e+000 5.925983e-001
      outer loop
         vertex -2.207172e+001 -5.000000e+001 -2.031845e+001
         vertex -2.207172e+001 5.000000e+001 -2.031845e+001
         vertex -2.747320e+001 5.000000e+001 -1.205086e+001
      endloop
   endfacet
   facet normal 8.662506e-001 0.000000e+000 4.996097e-001
      outer loop
         vertex -2.207172e+001 -5.000000e+001 -2.031845e+001
         vertex -2.747320e+001 5.000000e+001 -1.205086e+001
         vertex -2.747320e+001 -5.000000e+001 -1.205086e+001
      endloop
   endfacet
   facet normal 9.542704e-001 0.000000e+000 2.989448e-001
      outer loop
         vertex -2.747320e+001 -5.000000e+001 -1.205086e+001
         vertex -2.747320e+001 5.000000e+001 -1.205086e+001
         vertex -2.989754e+001 5.000000e+001 -2.477381e+000
      endloop
   endfacet
   facet normal 9.815378e-001 0.000000e+000 1.912684e-001
      outer loop
         vertex -2.747320e+001 -5.000000e+001 -1.205086e+001
         vertex -2.989754e+001 5.000000e+001 -2.477381e+000
         vertex -2.989754e+001 -5.000000e+001 -2.477381e+000
      endloop
   endfacet
   facet normal 9.996326e-001 0.000000e+000 -2.710393e-002
      outer loop
         vertex -2.989754e+001 -5.000000e+001 -2.477381e+000
         vertex -2.989754e+001 5.000000e+001 -2.477381e+000
         vertex -2.908201e+001 5.000000e+001 7.364564e+000
      endloop
   endfacet
   facet normal 9.904601e-001 0.000000e+000 -1.377998e-001
      outer loop
         vertex -2.989754e+001 -5.000000e+001 -2.477381e+000
         vertex -2.908201e+001 5.000000e+001 7.364564e+000
         vertex -2.908201e+001 -5.000000e+001 7.364564e+000
      endloop
   endfacet
   facet normal 9.366692e-001 0.000000e+000 -3.502155e-001
      outer loop
         vertex -2.908201e+001 -5.000000e+001 7.364564e+000
         vertex -2.908201e+001 5.000000e+001 7.364564e+000
         vertex -2.511499e+001 5.000000e+001 1.640845e+001
      endloop
   endfacet
   facet normal 8.920507e-001 0.000000e+000 -4.519353e-001
      outer loop
         vertex -2.908201e+001 -5.000000e+001 7.364564e+000
         vertex -2.511499e+001 5.000000e+001 1.640845e+001
         vertex -2.511499e+001 -5.000000e+001 1.640845e+001
      endloop
   endfacet
   facet normal 7.722030e-001 0.000000e+000 -6.353759e-001
      outer loop
         vertex -2.511499e+001 -5.000000e+001 1.640845e+001
         vertex -2.511499e+001 5.000000e+001 1.640845e+001
         vertex -1.842638e+001 5.000000e+001 2.367422e+001
      endloop
   endfacet
   facet normal 6.969737e-001 0.000000e+000 -7.170966e-001
      outer loop
         vertex -2.511499e+001 -5.000000e+001 1.640845e+001
         vertex -1.842638e+001 5.000000e+001 2.367422e+001
         vertex -1.842638e+001 -5.000000e+001 2.367422e+001
      endloop
   endfacet
   facet normal 5.240567e-001 0.000000e+000 -8.516834e-001
      outer loop
         vertex -1.842638e+001 -5.000000e+001 2.367422e+001
         vertex -1.842638e+001 5.000000e+001 2.367422e+001
         vertex -9.740984e+000 5.000000e+001 2.837452e+001
      endloop
   endfacet
   facet normal 4.263689e-001 0.000000e+000 -9.045494e-001
      outer loop
         vertex -1.842638e+001 -5.000000e+001 2.367422e+001
         vertex -9.740984e+000 5.000000e+001 2.837452e+001
         vertex -9.740984e+000 -5.000000e+001 2.837452e+001
      endloop
   endfacet
   facet normal 2.191207e-001 0.000000e+000 -9.756978e-001
      outer loop
         vertex -9.740984e+000 -5.000000e+001 2.837452e+001
         vertex -9.740984e+000 5.000000e+001 2.837452e+001
         vertex -7.347881e-015 5.000000e+001 3.000000e+001
      endloop
   endfacet
   facet normal 0.000000e+000 1.000000e+000 0.000000e+000
      outer loop
         vertex 2.751150e+002 5.000000e+001 1.640845e+001
         vertex 2.684264e+002 5.000000e+001 2.367422e+001
         vertex 2.716256e+002 5.000000e+001 3.365014e+001
      endloop
   endfacet
   facet normal 0.000000e+000 1.000000e+000 0.000000e+000
      outer loop
         vertex 2.716256e+002 5.000000e+001 3.365014e+001
         vertex 2.684264e+002 5.000000e+001 2.367422e+001
         vertex 2.612693e+002 5.000000e+001 3.837972e+001
      endloop
   endfacet
   facet normal 0.000000e+000 1.000000e+000 0.000000e+000
      outer loop
         vertex 2.612693e+002 5.000000e+001 3.837972e+001
         vertex 2.684264e+002 5.000000e+001 2.367422e+001
         vertex 2.597410e+002 5.000000e+001 2.837452e+001
      endloop
   endfacet
   facet normal 0.000000e+000 1.000000e+000 0.000000e+000
      outer loop
         vertex 2.612693e+002 5.000000e+001 3.837972e+001
         vertex 2.597410e+002 5.000000e+001 2.837452e+001
         vertex 2.500000e+002 5.000000e+001 4.000000e+001
      endloop
   endfacet
   facet normal 0.000000e+000 1.000000e+000 0.000000e+000
      outer loop
         vertex 2.597410e+002 5.000000e+001 2.837452e+001
         vertex 2.500000e+002 5.000000e+001 3.000000e+001
         vertex 2.500000e+002 5.000000e+001 4.000000e+001
      endloop
   endfacet
   facet normal 0.000000e+000 1.000000e+000 0.000000e+000
      outer loop
         vertex 2.500000e+002 5.000000e+001 4.000000e+001
         vertex 2.500000e+002 5.000000e+001 3.000000e+001
         vertex 2.402590e+002 5.000000e+001 2.837452e+001
      endloop
   endfacet
   facet normal 0.000000e+000 1.000000e+000 0.000000e+000
      outer loop
         vertex 2.500000e+002 5.000000e+001 4.000000e+001
         vertex 2.402590e+002 5.000000e+001 2.837452e+001
         vertex 0.000000e+000 5.000000e+001 4.000000e+001
      endloop
   endfacet
   facet normal 0.000000e+000 1.000000e+000 0.000000e+000
      outer loop
         vertex 0.000000e+000 5.000000e+001 4.000000e+001
         vertex 2.402590e+002 5.000000e+001 2.837452e+001
         vertex 2.315736e+002 5.000000e+001 2.367422e+001
      endloop
   endfacet
   facet normal 0.000000e+000 1.000000e+000 0.000000e+000
      outer loop
         vertex 0.000000e+000 5.000000e+001 4.000000e+001
         vertex 2.315736e+002 5.000000e+001 2.367422e+001
         vertex 1.842638e+001 5.000000e+001 2.367422e+001
      endloop
   endfacet
   facet normal 0.000000e+000 1.000000e+000 0.000000e+000
      outer loop
         vertex 2.201025e+002 5.000000e+001 -2.477381e+000
         vertex 4.937838e+000 5.000000e+001 -2.959084e+001
         vertex 2.209180e+002 5.000000e+001 7.364564e+000
      endloop
   endfacet
   facet normal 0.000000e+000 1.000000e+000 0.000000e+000
      outer loop
         vertex 2.209180e+002 5.000000e+001 7.364564e+000
         vertex 4.937838e+000 5.000000e+001 -2.959084e+001
         vertex 1.427842e+001 5.000000e+001 -2.638421e+001
      endloop
   endfacet
   facet normal 0.000000e+000 1.000000e+000 0.000000e+000
      outer loop
         vertex 2.209180e+002 5.000000e+001 7.364564e+000
         vertex 1.427842e+001 5.000000e+001 -2.638421e+001
         vertex 2.207172e+001 5.000000e+001 -2.031845e+001
      endloop
   endfacet
   facet normal 0.000000e+000 1.000000e+000 0.000000e+000
      outer loop
         vertex 2.716256e+002 5.000000e+001 3.365014e+001
         vertex 2.802300e+002 5.000000e+001 2.619443e+001
         vertex 2.751150e+002 5.000000e+001 1.640845e+001
      endloop
   endfacet
   facet normal 0.000000e+000 1.000000e+000 0.000000e+000
      outer loop
         vertex 2.751150e+002 5.000000e+001 1.640845e+001
         vertex 2.802300e+002 5.000000e+001 2.619443e+001
         vertex 2.863853e+002 5.000000e+001 1.661660e+001
      endloop
   endfacet
   facet normal 0.000000e+000 1.000000e+000 0.000000e+000
      outer loop
         vertex 2.751150e+002 5.000000e+001 1.640845e+001
         vertex 2.863853e+002 5.000000e+001 1.661660e+001
         vertex 2.790820e+002 5.000000e+001 7.364564e+000
      endloop
   endfacet
   facet normal 0.000000e+000 1.000000e+000 0.000000e+000
      outer loop
         vertex 2.790820e+002 5.000000e+001 7.364564e+000
         vertex 2.863853e+002 5.000000e+001 1.661660e+001
         vertex 2.895929e+002 5.000000e+001 5.692594e+000
      endloop
   endfacet
   facet normal 0.000000e+000 1.000000e+000 0.000000e+000
      outer loop
         vertex 2.790820e+002 5.000000e+001 7.364564e+000
         vertex 2.895929e+002 5.000000e+001 5.692594e+000
         vertex 2.798976e+002 5.000000e+001 -2.477381e+000
      endloop
   endfacet
   facet normal 0.000000e+000 1.000000e+000 0.000000e+000
      outer loop
         vertex 2.798976e+002 5.000000e+001 -2.477381e+000
         vertex 2.895929e+002 5.000000e+001 5.692594e+000
         vertex 2.895929e+002 5.000000e+001 -5.692594e+000
      endloop
   endfacet
   facet normal 0.000000e+000 1.000000e+000 0.000000e+000
      outer loop
         vertex 2.798976e+002 5.000000e+001 -2.477381e+000
         vertex 2.895929e+002 5.000000e+001 -5.692594e+000
         vertex 2.774732e+002 5.000000e+001 -1.205086e+001
      endloop
   endfacet
   facet normal 0.000000e+000 1.000000e+000 0.000000e+000
      outer loop
         vertex 2.774732e+002 5.000000e+001 -1.205086e+001
         vertex 2.895929e+002 5.000000e+001 -5.692594e+000
         vertex 2.863853e+002 5.000000e+001 -1.661660e+001
      endloop
   endfacet
   facet normal 0.000000e+000 1.000000e+000 0.000000e+000
      outer loop
         vertex 2.774732e+002 5.000000e+001 -1.205086e+001
         vertex 2.863853e+002 5.000000e+001 -1.661660e+001
         vertex 2.720717e+002 5.000000e+001 -2.031845e+001
      endloop
   endfacet
   facet normal 0.000000e+000 1.000000e+000 0.000000e+000
      outer loop
         vertex 2.720717e+002 5.000000e+001 -2.031845e+001
         vertex 2.863853e+002 5.000000e+001 -1.661660e+001
         vertex 2.802300e+002 5.000000e+001 -2.619443e+001
      endloop
   endfacet
   facet normal 0.000000e+000 1.000000e+000 0.000000e+000
      outer loop
         vertex 2.720717e+002 5.000000e+001 -2.031845e+001
         vertex 2.802300e+002 5.000000e+001 -2.619443e+001
         vertex 2.642784e+002 5.000000e+001 -2.638421e+001
      endloop
   endfacet
   facet normal 0.000000e+000 1.000000e+000 0.000000e+000
      outer loop
         vertex 2.642784e+002 5.000000e+001 -2.638421e+001
         vertex 2.802300e+002 5.000000e+001 -2.619443e+001
         vertex 2.716256e+002 5.000000e+001 -3.365014e+001
      endloop
   endfacet
   facet normal 0.000000e+000 1.000000e+000 0.000000e+000
      outer loop
         vertex 2.642784e+002 5.000000e+001 -2.638421e+001
         vertex 2.716256e+002 5.000000e+001 -3.365014e+001
         vertex 2.549378e+002 5.000000e+001 -2.959084e+001
      endloop
   endfacet
   facet normal 0.000000e+000 1.000000e+000 0.000000e+000
      outer loop
         vertex 2.549378e+002 5.000000e+001 -2.959084e+001
         vertex 2.716256e+002 5.000000e+001 -3.365014e+001
         vertex 2.612693e+002 5.000000e+001 -3.837972e+001
      endloop
   endfacet
   facet normal 0.000000e+000 1.000000e+000 0.000000e+000
      outer loop
         vertex 2.549378e+002 5.000000e+001 -2.959084e+001
         vertex 2.612693e+002 5.000000e+001 -3.837972e+001
         vertex 2.450622e+002 5.000000e+001 -2.959084e+001
      endloop
   endfacet
   facet normal 0.000000e+000 1.000000e+000 0.000000e+000
      outer loop
         vertex 2.450622e+002 5.000000e+001 -2.959084e+001
         vertex 2.612693e+002 5.000000e+001 -3.837972e+001
         vertex 2.500000e+002 5.000000e+001 -4.000000e+001
      endloop
   endfacet
   facet normal 0.000000e+000 1.000000e+000 0.000000e+000
      outer loop
         vertex 2.450622e+002 5.000000e+001 -2.959084e+001
         vertex 2.500000e+002 5.000000e+001 -4.000000e+001
         vertex 2.357216e+002 5.000000e+001 -2.638421e+001
      endloop
   endfacet
   facet normal 0.000000e+000 1.000000e+000 0.000000e+000
      outer loop
         vertex 2.357216e+002 5.000000e+001 -2.638421e+001
         vertex 2.500000e+002 5.000000e+001 -4.000000e+001
         vertex 0.000000e+000 5.000000e+001 -4.000000e+001
      endloop
   endfacet
   facet normal 0.000000e+000 1.000000e+000 0.000000e+000
      outer loop
         vertex 2.357216e+002 5.000000e+001 -2.638421e+001
         vertex 0.000000e+000 5.000000e+001 -4.000000e+001
         vertex 2.279283e+002 5.000000e+001 -2.031845e+001
      endloop
   endfacet
   facet normal 0.000000e+000 1.000000e+000 0.000000e+000
      outer loop
         vertex 2.279283e+002 5.000000e+001 -2.031845e+001
         vertex 0.000000e+000 5.000000e+001 -4.000000e+001
         vertex 2.225268e+002 5.000000e+001 -1.205086e+001
      endloop
   endfacet
   facet normal 0.000000e+000 1.000000e+000 0.000000e+000
      outer loop
         vertex 2.207172e+001 5.000000e+001 -2.031845e+001
         vertex 2.747320e+001 5.000000e+001 -1.205086e+001
         vertex 2.209180e+002 5.000000e+001 7.364564e+000
      endloop
   endfacet
   facet normal 0.000000e+000 1.000000e+000 0.000000e+000
      outer loop
         vertex 2.209180e+002 5.000000e+001 7.364564e+000
         vertex 2.747320e+001 5.000000e+001 -1.205086e+001
         vertex 2.989754e+001 5.000000e+001 -2.477381e+000
      endloop
   endfacet
   facet normal 0.000000e+000 1.000000e+000 0.000000e+000
      outer loop
         vertex 2.209180e+002 5.000000e+001 7.364564e+000
         vertex 2.989754e+001 5.000000e+001 -2.477381e+000
         vertex 2.248850e+002 5.000000e+001 1.640845e+001
      endloop
   endfacet
   facet normal 0.000000e+000 1.000000e+000 0.000000e+000
      outer loop
         vertex 2.248850e+002 5.000000e+001 1.640845e+001
         vertex 2.989754e+001 5.000000e+001 -2.477381e+000
         vertex 2.908201e+001 5.000000e+001 7.364564e+000
      endloop
   endfacet
   facet normal 0.000000e+000 1.000000e+000 0.000000e+000
      outer loop
         vertex 2.248850e+002 5.000000e+001 1.640845e+001
         vertex 2.908201e+001 5.000000e+001 7.364564e+000
         vertex 2.315736e+002 5.000000e+001 2.367422e+001
      endloop
   endfacet
   facet normal 0.000000e+000 1.000000e+000 0.000000e+000
      outer loop
         vertex 2.315736e+002 5.000000e+001 2.367422e+001
         vertex 2.908201e+001 5.000000e+001 7.364564e+000
         vertex 2.511499e+001 5.000000e+001 1.640845e+001
      endloop
   endfacet
   facet normal 0.000000e+000 1.000000e+000 0.000000e+000
      outer loop
         vertex 2.315736e+002 5.000000e+001 2.367422e+001
         vertex 2.511499e+001 5.000000e+001 1.640845e+001
         vertex 1.842638e+001 5.000000e+001 2.367422e+001
      endloop
   endfacet
   facet normal 0.000000e+000 1.000000e+000 0.000000e+000
      outer loop
         vertex -2.511499e+001 5.000000e+001 1.640845e+001
         vertex -3.022998e+001 5.000000e+001 2.619443e+001
         vertex -1.842638e+001 5.000000e+001 2.367422e+001
      endloop
   endfacet
   facet normal 0.000000e+000 1.000000e+000 0.000000e+000
      outer loop
         vertex -1.842638e+001 5.000000e+001 2.367422e+001
         vertex -3.022998e+001 5.000000e+001 2.619443e+001
         vertex -2.162563e+001 5.000000e+001 3.365014e+001
      endloop
   endfacet
   facet normal 0.000000e+000 1.000000e+000 0.000000e+000
      outer loop
         vertex -1.842638e+001 5.000000e+001 2.367422e+001
         vertex -2.162563e+001 5.000000e+001 3.365014e+001
         vertex -9.740984e+000 5.000000e+001 2.837452e+001
      endloop
   endfacet
   facet normal 0.000000e+000 1.000000e+000 0.000000e+000
      outer loop
         vertex -9.740984e+000 5.000000e+001 2.837452e+001
         vertex -2.162563e+001 5.000000e+001 3.365014e+001
         vertex -1.126930e+001 5.000000e+001 3.837972e+001
      endloop
   endfacet
   facet normal 0.000000e+000 1.000000e+000 0.000000e+000
      outer loop
         vertex -9.740984e+000 5.000000e+001 2.837452e+001
         vertex -1.126930e+001 5.000000e+001 3.837972e+001
         vertex 0.000000e+000 5.000000e+001 3.000000e+001
      endloop
   endfacet
   facet normal 0.000000e+000 1.000000e+000 0.000000e+000
      outer loop
         vertex 0.000000e+000 5.000000e+001 3.000000e+001
         vertex -1.126930e+001 5.000000e+001 3.837972e+001
         vertex 0.000000e+000 5.000000e+001 4.000000e+001
      endloop
   endfacet
   facet normal 0.000000e+000 1.000000e+000 0.000000e+000
      outer loop
         vertex 0.000000e+000 5.000000e+001 3.000000e+001
         vertex 0.000000e+000 5.000000e+001 4.000000e+001
         vertex 9.740984e+000 5.000000e+001 2.837452e+001
      endloop
   endfacet
   facet normal 0.000000e+000 1.000000e+000 0.000000e+000
      outer loop
         vertex 9.740984e+000 5.000000e+001 2.837452e+001
         vertex 0.000000e+000 5.000000e+001 4.000000e+001
         vertex 1.842638e+001 5.000000e+001 2.367422e+001
      endloop
   endfacet
   facet normal 0.000000e+000 1.000000e+000 0.000000e+000
      outer loop
         vertex 2.201025e+002 5.000000e+001 -2.477381e+000
         vertex 2.225268e+002 5.000000e+001 -1.205086e+001
         vertex 4.937838e+000 5.000000e+001 -2.959084e+001
      endloop
   endfacet
   facet normal 0.000000e+000 1.000000e+000 0.000000e+000
      outer loop
         vertex 4.937838e+000 5.000000e+001 -2.959084e+001
         vertex 2.225268e+002 5.000000e+001 -1.205086e+001
         vertex 0.000000e+000 5.000000e+001 -4.000000e+001
      endloop
   endfacet
   facet normal 0.000000e+000 1.000000e+000 0.000000e+000
      outer loop
         vertex 4.937838e+000 5.000000e+001 -2.959084e+001
         vertex 0.000000e+000 5.000000e+001 -4.000000e+001
         vertex -4.937838e+000 5.000000e+001 -2.959084e+001
      endloop
   endfacet
   facet normal 0.000000e+000 1.000000e+000 0.000000e+000
      outer loop
         vertex -4.937838e+000 5.000000e+001 -2.959084e+001
         vertex 0.000000e+000 5.000000e+001 -4.000000e+001
         vertex -1.126930e+001 5.000000e+001 -3.837972e+001
      endloop
   endfacet
   facet normal 0.000000e+000 1.000000e+000 0.000000e+000
      outer loop
         vertex -4.937838e+000 5.000000e+001 -2.959084e+001
         vertex -1.126930e+001 5.000000e+001 -3.837972e+001
         vertex -1.427842e+001 5.000000e+001 -2.638421e+001
      endloop
   endfacet
   facet normal 0.000000e+000 1.000000e+000 0.000000e+000
      outer loop
         vertex -1.427842e+001 5.000000e+001 -2.638421e+001
         vertex -1.126930e+001 5.000000e+001 -3.837972e+001
         vertex -2.162563e+001 5.000000e+001 -3.365014e+001
      endloop
   endfacet
   facet normal 0.000000e+000 1.000000e+000 0.000000e+000
      outer loop
         vertex -1.427842e+001 5.000000e+001 -2.638421e+001
         vertex -2.162563e+001 5.000000e+001 -3.365014e+001
         vertex -2.207172e+001 5.000000e+001 -2.031845e+001
      endloop
   endfacet
   facet normal 0.000000e+000 1.000000e+000 0.000000e+000
      outer loop
         vertex -2.207172e+001 5.000000e+001 -2.031845e+001
         vertex -2.162563e+001 5.000000e+001 -3.365014e+001
         vertex -3.022998e+001 5.000000e+001 -2.619443e+001
      endloop
   endfacet
   facet normal 0.000000e+000 1.000000e+000 0.000000e+000
      outer loop
         vertex -2.207172e+001 5.000000e+001 -2.031845e+001
         vertex -3.022998e+001 5.000000e+001 -2.619443e+001
         vertex -2.747320e+001 5.000000e+001 -1.205086e+001
      endloop
   endfacet
   facet normal 0.000000e+000 1.000000e+000 0.000000e+000
      outer loop
         vertex -2.747320e+001 5.000000e+001 -1.205086e+001
         vertex -3.022998e+001 5.000000e+001 -2.619443e+001
         vertex -3.638528e+001 5.000000e+001 -1.661660e+001
      endloop
   endfacet
   facet normal 0.000000e+000 1.000000e+000 0.000000e+000
      outer loop
         vertex -2.747320e+001 5.000000e+001 -1.205086e+001
         vertex -3.638528e+001 5.000000e+001 -1.661660e+001
         vertex -2.989754e+001 5.000000e+001 -2.477381e+000
      endloop
   endfacet
   facet normal 0.000000e+000 1.000000e+000 0.000000e+000
      outer loop
         vertex -2.989754e+001 5.000000e+001 -2.477381e+000
         vertex -3.638528e+001 5.000000e+001 -1.661660e+001
         vertex -3.959286e+001 5.000000e+001 -5.692594e+000
      endloop
   endfacet
   facet normal 0.000000e+000 1.000000e+000 0.000000e+000
      outer loop
         vertex -2.989754e+001 5.000000e+001 -2.477381e+000
         vertex -3.959286e+001 5.000000e+001 -5.692594e+000
         vertex -2.908201e+001 5.000000e+001 7.364564e+000
      endloop
   endfacet
   facet normal 0.000000e+000 1.000000e+000 0.000000e+000
      outer loop
         vertex -2.908201e+001 5.000000e+001 7.364564e+000
         vertex -3.959286e+001 5.000000e+001 -5.692594e+000
         vertex -3.959286e+001 5.000000e+001 5.692594e+000
      endloop
   endfacet
   facet normal 0.000000e+000 1.000000e+000 0.000000e+000
      outer loop
         vertex -2.908201e+001 5.000000e+001 7.364564e+000
         vertex -3.959286e+001 5.000000e+001 5.692594e+000
         vertex -2.511499e+001 5.000000e+001 1.640845e+001
      endloop
   endfacet
   facet normal 0.000000e+000 1.000000e+000 0.000000e+000
      outer loop
         vertex -2.511499e+001 5.000000e+001 1.640845e+001
         vertex -3.959286e+001 5.000000e+001 5.692594e+000
         vertex -3.638528e+001 5.000000e+001 1.661660e+001
      endloop
   endfacet
   facet normal 0.000000e+000 1.000000e+000 0.000000e+000
      outer loop
         vertex -2.511499e+001 5.000000e+001 1.640845e+001
         vertex -3.638528e+001 5.000000e+001 1.661660e+001
         vertex -3.022998e+001 5.000000e+001 2.619443e+001
      endloop
   endfacet
   facet normal 0.000000e+000 0.000000e+000 -1.000000e+000
      outer loop
         vertex 2.500000e+002 5.000000e+001 -4.000000e+001
         vertex 2.500000e+002 -5.000000e+001 -4.000000e+001
         vertex 0.000000e+000 5.000000e+001 -4.000000e+001
      endloop
   endfacet
   facet normal 0.000000e+000 0.000000e+000 -1.000000e+000
      outer loop
         vertex 0.000000e+000 5.000000e+001 -4.000000e+001
         vertex 2.500000e+002 -5.000000e+001 -4.000000e+001
         vertex 0.000000e+000 -5.000000e+001 -4.000000e+001
      endloop
   endfacet
   facet normal 9.476778e-002 0.000000e+000 -9.954994e-001
      outer loop
         vertex 2.500000e+002 -5.000000e+001 -4.000000e+001
         vertex 2.500000e+002 5.000000e+001 -4.000000e+001
         vertex 2.612693e+002 5.000000e+001 -3.837972e+001
      endloop
   endfacet
   facet normal 1.895356e-001 0.000000e+000 -9.818738e-001
      outer loop
         vertex 2.500000e+002 -5.000000e+001 -4.000000e+001
         vertex 2.612693e+002 5.000000e+001 -3.837972e+001
         vertex 2.612693e+002 -5.000000e+001 -3.837972e+001
      endloop
   endfacet
   facet normal 3.713936e-001 0.000000e+000 -9.284755e-001
      outer loop
         vertex 2.612693e+002 -5.000000e+001 -3.837972e+001
         vertex 2.612693e+002 5.000000e+001 -3.837972e+001
         vertex 2.716256e+002 5.000000e+001 -3.365014e+001
      endloop
   endfacet
   facet normal 4.584839e-001 0.000000e+000 -8.887027e-001
      outer loop
         vertex 2.612693e+002 -5.000000e+001 -3.837972e+001
         vertex 2.716256e+002 5.000000e+001 -3.365014e+001
         vertex 2.716256e+002 -5.000000e+001 -3.365014e+001
      endloop
   endfacet
   facet normal 6.179314e-001 0.000000e+000 -7.862321e-001
      outer loop
         vertex 2.716256e+002 -5.000000e+001 -3.365014e+001
         vertex 2.716256e+002 5.000000e+001 -3.365014e+001
         vertex 2.802300e+002 5.000000e+001 -2.619443e+001
      endloop
   endfacet
   facet normal 6.902886e-001 0.000000e+000 -7.235342e-001
      outer loop
         vertex 2.716256e+002 -5.000000e+001 -3.365014e+001
         vertex 2.802300e+002 5.000000e+001 -2.619443e+001
         vertex 2.802300e+002 -5.000000e+001 -2.619443e+001
      endloop
   endfacet
   facet normal 8.144079e-001 0.000000e+000 -5.802928e-001
      outer loop
         vertex 2.802300e+002 -5.000000e+001 -2.619443e+001
         vertex 2.802300e+002 5.000000e+001 -2.619443e+001
         vertex 2.863853e+002 5.000000e+001 -1.661660e+001
      endloop
   endfacet
   facet normal 8.661701e-001 0.000000e+000 -4.997492e-001
      outer loop
         vertex 2.802300e+002 -5.000000e+001 -2.619443e+001
         vertex 2.863853e+002 5.000000e+001 -1.661660e+001
         vertex 2.863853e+002 -5.000000e+001 -1.661660e+001
      endloop
   endfacet
   facet normal 9.449061e-001 0.000000e+000 -3.273416e-001
      outer loop
         vertex 2.863853e+002 -5.000000e+001 -1.661660e+001
         vertex 2.863853e+002 5.000000e+001 -1.661660e+001
         vertex 2.895929e+002 5.000000e+001 -5.692594e+000
      endloop
   endfacet
   facet normal 9.718798e-001 0.000000e+000 -2.354775e-001
      outer loop
         vertex 2.863853e+002 -5.000000e+001 -1.661660e+001
         vertex 2.895929e+002 5.000000e+001 -5.692594e+000
         vertex 2.895929e+002 -5.000000e+001 -5.692594e+000
      endloop
   endfacet
   facet normal 9.988535e-001 0.000000e+000 -4.787115e-002
      outer loop
         vertex 2.895929e+002 -5.000000e+001 -5.692594e+000
         vertex 2.895929e+002 5.000000e+001 -5.692594e+000
         vertex 2.895929e+002 5.000000e+001 5.692594e+000
      endloop
   endfacet
   facet normal 9.988535e-001 0.000000e+000 4.787115e-002
      outer loop
         vertex 2.895929e+002 -5.000000e+001 -5.692594e+000
         vertex 2.895929e+002 5.000000e+001 5.692594e+000
         vertex 2.895929e+002 -5.000000e+001 5.692594e+000
      endloop
   endfacet
   facet normal 9.718798e-001 0.000000e+000 2.354775e-001
      outer loop
         vertex 2.895929e+002 -5.000000e+001 5.692594e+000
         vertex 2.895929e+002 5.000000e+001 5.692594e+000
         vertex 2.863853e+002 5.000000e+001 1.661660e+001
      endloop
   endfacet
   facet normal 9.449061e-001 0.000000e+000 3.273416e-001
      outer loop
         vertex 2.895929e+002 -5.000000e+001 5.692594e+000
         vertex 2.863853e+002 5.000000e+001 1.661660e+001
         vertex 2.863853e+002 -5.000000e+001 1.661660e+001
      endloop
   endfacet
   facet normal 8.661701e-001 0.000000e+000 4.997492e-001
      outer loop
         vertex 2.863853e+002 -5.000000e+001 1.661660e+001
         vertex 2.863853e+002 5.000000e+001 1.661660e+001
         vertex 2.802300e+002 5.000000e+001 2.619443e+001
      endloop
   endfacet
   facet normal 8.144079e-001 0.000000e+000 5.802928e-001
      outer loop
         vertex 2.863853e+002 -5.000000e+001 1.661660e+001
         vertex 2.802300e+002 5.000000e+001 2.619443e+001
         vertex 2.802300e+002 -5.000000e+001 2.619443e+001
      endloop
   endfacet
   facet normal 6.902886e-001 0.000000e+000 7.235342e-001
      outer loop
         vertex 2.802300e+002 -5.000000e+001 2.619443e+001
         vertex 2.802300e+002 5.000000e+001 2.619443e+001
         vertex 2.716256e+002 5.000000e+001 3.365014e+001
      endloop
   endfacet
   facet normal 6.179314e-001 0.000000e+000 7.862321e-001
      outer loop
         vertex 2.802300e+002 -5.000000e+001 2.619443e+001
         vertex 2.716256e+002 5.000000e+001 3.365014e+001
         vertex 2.716256e+002 -5.000000e+001 3.365014e+001
      endloop
   endfacet
   facet normal 4.584839e-001 0.000000e+000 8.887027e-001
      outer loop
         vertex 2.716256e+002 -5.000000e+001 3.365014e+001
         vertex 2.716256e+002 5.000000e+001 3.365014e+001
         vertex 2.612693e+002 5.000000e+001 3.837972e+001
      endloop
   endfacet
   facet normal 3.713937e-001 0.000000e+000 9.284755e-001
      outer loop
         vertex 2.716256e+002 -5.000000e+001 3.365014e+001
         vertex 2.612693e+002 5.000000e+001 3.837972e+001
         vertex 2.612693e+002 -5.000000e+001 3.837972e+001
      endloop
   endfacet
   facet normal 1.895356e-001 0.000000e+000 9.818738e-001
      outer loop
         vertex 2.612693e+002 -5.000000e+001 3.837972e+001
         vertex 2.612693e+002 5.000000e+001 3.837972e+001
         vertex 2.500000e+002 5.000000e+001 4.000000e+001
      endloop
   endfacet
   facet normal 9.476778e-002 0.000000e+000 9.954994e-001
      outer loop
         vertex 2.612693e+002 -5.000000e+001 3.837972e+001
         vertex 2.500000e+002 5.000000e+001 4.000000e+001
         vertex 2.500000e+002 -5.000000e+001 4.000000e+001
      endloop
   endfacet
   facet normal -2.775558e-017 0.000000e+000 1.000000e+000
      outer loop
         vertex 0.000000e+000 5.000000e+001 4.000000e+001
         vertex 0.000000e+000 -5.000000e+001 4.000000e+001
         vertex 2.500000e+002 5.000000e+001 4.000000e+001
      endloop
   endfacet
   facet normal -2.775558e-017 0.000000e+000 1.000000e+000
      outer loop
         vertex 2.500000e+002 5.000000e+001 4.000000e+001
         vertex 0.000000e+000 -5.000000e+001 4.000000e+001
         vertex 2.500000e+002 -5.000000e+001 4.000000e+001
      endloop
   endfacet
   facet normal 1.095604e-001 0.000000e+000 -9.939802e-001
      outer loop
         vertex 2.402590e+002 -5.000000e+001 2.837452e+001
         vertex 2.500000e+002 5.000000e+001 3.000000e+001
         vertex 2.500000e+002 -5.000000e+001 3.000000e+001
      endloop
   endfacet
   facet normal -1.095604e-001 0.000000e+000 -9.939802e-001
      outer loop
         vertex 2.500000e+002 -5.000000e+001 3.000000e+001
         vertex 2.500000e+002 5.000000e+001 3.000000e+001
         vertex 2.597410e+002 5.000000e+001 2.837452e+001
      endloop
   endfacet
   facet normal -2.191207e-001 0.000000e+000 -9.756978e-001
      outer loop
         vertex 2.500000e+002 -5.000000e+001 3.000000e+001
         vertex 2.597410e+002 5.000000e+001 2.837452e+001
         vertex 2.597410e+002 -5.000000e+001 2.837452e+001
      endloop
   endfacet
   facet normal -4.263689e-001 0.000000e+000 -9.045494e-001
      outer loop
         vertex 2.597410e+002 -5.000000e+001 2.837452e+001
         vertex 2.597410e+002 5.000000e+001 2.837452e+001
         vertex 2.684264e+002 5.000000e+001 2.367422e+001
      endloop
   endfacet
   facet normal -5.240567e-001 0.000000e+000 -8.516834e-001
      outer loop
         vertex 2.597410e+002 -5.000000e+001 2.837452e+001
         vertex 2.684264e+002 5.000000e+001 2.367422e+001
         vertex 2.684264e+002 -5.000000e+001 2.367422e+001
      endloop
   endfacet
   facet normal -6.969737e-001 0.000000e+000 -7.170966e-001
      outer loop
         vertex 2.684264e+002 -5.000000e+001 2.367422e+001
         vertex 2.684264e+002 5.000000e+001 2.367422e+001
         vertex 2.751150e+002 5.000000e+001 1.640845e+001
      endloop
   endfacet
   facet normal -7.722030e-001 0.000000e+000 -6.353759e-001
      outer loop
         vertex 2.684264e+002 -5.000000e+001 2.367422e+001
         vertex 2.751150e+002 5.000000e+001 1.640845e+001
         vertex 2.751150e+002 -5.000000e+001 1.640845e+001
      endloop
   endfacet
   facet normal -8.920507e-001 0.000000e+000 -4.519353e-001
      outer loop
         vertex 2.751150e+002 -5.000000e+001 1.640845e+001
         vertex 2.751150e+002 5.000000e+001 1.640845e+001
         vertex 2.790820e+002 5.000000e+001 7.364564e+000
      endloop
   endfacet
   facet normal -9.366692e-001 0.000000e+000 -3.502155e-001
      outer loop
         vertex 2.751150e+002 -5.000000e+001 1.640845e+001
         vertex 2.790820e+002 5.000000e+001 7.364564e+000
         vertex 2.790820e+002 -5.000000e+001 7.364564e+000
      endloop
   endfacet
   facet normal -9.904601e-001 0.000000e+000 -1.377998e-001
      outer loop
         vertex 2.790820e+002 -5.000000e+001 7.364564e+000
         vertex 2.790820e+002 5.000000e+001 7.364564e+000
         vertex 2.798976e+002 5.000000e+001 -2.477381e+000
      endloop
   endfacet
   facet normal -9.996326e-001 0.000000e+000 -2.710393e-002
      outer loop
         vertex 2.790820e+002 -5.000000e+001 7.364564e+000
         vertex 2.798976e+002 5.000000e+001 -2.477381e+000
         vertex 2.798976e+002 -5.000000e+001 -2.477381e+000
      endloop
   endfacet
   facet normal -9.815378e-001 0.000000e+000 1.912684e-001
      outer loop
         vertex 2.798976e+002 -5.000000e+001 -2.477381e+000
         vertex 2.798976e+002 5.000000e+001 -2.477381e+000
         vertex 2.774732e+002 5.000000e+001 -1.205086e+001
      endloop
   endfacet
   facet normal -9.542704e-001 0.000000e+000 2.989448e-001
      outer loop
         vertex 2.798976e+002 -5.000000e+001 -2.477381e+000
         vertex 2.774732e+002 5.000000e+001 -1.205086e+001
         vertex 2.774732e+002 -5.000000e+001 -1.205086e+001
      endloop
   endfacet
   facet normal -8.662506e-001 0.000000e+000 4.996097e-001
      outer loop
         vertex 2.774732e+002 -5.000000e+001 -1.205086e+001
         vertex 2.774732e+002 5.000000e+001 -1.205086e+001
         vertex 2.720717e+002 5.000000e+001 -2.031845e+001
      endloop
   endfacet
   facet normal -8.054982e-001 0.000000e+000 5.925983e-001
      outer loop
         vertex 2.774732e+002 -5.000000e+001 -1.205086e+001
         vertex 2.720717e+002 5.000000e+001 -2.031845e+001
         vertex 2.720717e+002 -5.000000e+001 -2.031845e+001
      endloop
   endfacet
   facet normal -6.570917e-001 0.000000e+000 7.538106e-001
      outer loop
         vertex 2.720717e+002 -5.000000e+001 -2.031845e+001
         vertex 2.720717e+002 5.000000e+001 -2.031845e+001
         vertex 2.642784e+002 5.000000e+001 -2.638421e+001
      endloop
   endfacet
   facet normal -5.694377e-001 0.000000e+000 8.220344e-001
      outer loop
         vertex 2.720717e+002 -5.000000e+001 -2.031845e+001
         vertex 2.642784e+002 5.000000e+001 -2.638421e+001
         vertex 2.642784e+002 -5.000000e+001 -2.638421e+001
      endloop
   endfacet
   facet normal -3.767268e-001 0.000000e+000 9.263244e-001
      outer loop
         vertex 2.642784e+002 -5.000000e+001 -2.638421e+001
         vertex 2.642784e+002 5.000000e+001 -2.638421e+001
         vertex 2.549378e+002 5.000000e+001 -2.959084e+001
      endloop
   endfacet
   facet normal -2.716698e-001 0.000000e+000 9.623905e-001
      outer loop
         vertex 2.642784e+002 -5.000000e+001 -2.638421e+001
         vertex 2.549378e+002 5.000000e+001 -2.959084e+001
         vertex 2.549378e+002 -5.000000e+001 -2.959084e+001
      endloop
   endfacet
   facet normal -5.553765e-002 0.000000e+000 9.984566e-001
      outer loop
         vertex 2.549378e+002 -5.000000e+001 -2.959084e+001
         vertex 2.549378e+002 5.000000e+001 -2.959084e+001
         vertex 2.450622e+002 5.000000e+001 -2.959084e+001
      endloop
   endfacet
   facet normal 5.553765e-002 0.000000e+000 9.984566e-001
      outer loop
         vertex 2.549378e+002 -5.000000e+001 -2.959084e+001
         vertex 2.450622e+002 5.000000e+001 -2.959084e+001
         vertex 2.450622e+002 -5.000000e+001 -2.959084e+001
      endloop
   endfacet
   facet normal 2.716698e-001 0.000000e+000 9.623905e-001
      outer loop
         vertex 2.450622e+002 -5.000000e+001 -2.959084e+001
         vertex 2.450622e+002 5.000000e+001 -2.959084e+001
         vertex 2.357216e+002 5.000000e+001 -2.638421e+001
      endloop
   endfacet
   facet normal 3.767268e-001 0.000000e+000 9.263244e-001
      outer loop
         vertex 2.450622e+002 -5.000000e+001 -2.959084e+001
         vertex 2.357216e+002 5.000000e+001 -2.638421e+001
         vertex 2.357216e+002 -5.000000e+001 -2.638421e+001
      endloop
   endfacet
   facet normal 5.694377e-001 0.000000e+000 8.220344e-001
      outer loop
         vertex 2.357216e+002 -5.000000e+001 -2.638421e+001
         vertex 2.357216e+002 5.000000e+001 -2.638421e+001
         vertex 2.279283e+002 5.000000e+001 -2.031845e+001
      endloop
   endfacet
   facet normal 6.570918e-001 0.000000e+000 7.538106e-001
      outer loop
         vertex 2.357216e+002 -5.000000e+001 -2.638421e+001
         vertex 2.279283e+002 5.000000e+001 -2.031845e+001
         vertex 2.279283e+002 -5.000000e+001 -2.031845e+001
      endloop
   endfacet
   facet normal 8.054982e-001 0.000000e+000 5.925983e-001
      outer loop
         vertex 2.279283e+002 -5.000000e+001 -2.031845e+001
         vertex 2.279283e+002 5.000000e+001 -2.031845e+001
         vertex 2.225268e+002 5.000000e+001 -1.205086e+001
      endloop
   endfacet
   facet normal 8.662506e-001 0.000000e+000 4.996097e-001
      outer loop
         vertex 2.279283e+002 -5.000000e+001 -2.031845e+001
         vertex 2.225268e+002 5.000000e+001 -1.205086e+001
         vertex 2.225268e+002 -5.000000e+001 -1.205086e+001
      endloop
   endfacet
   facet normal 9.542704e-001 0.000000e+000 2.989448e-001
      outer loop
         vertex 2.225268e+002 -5.000000e+001 -1.205086e+001
         vertex 2.225268e+002 5.000000e+001 -1.205086e+001
         vertex 2.201025e+002 5.000000e+001 -2.477381e+000
      endloop
   endfacet
   facet normal 9.815378e-001 0.000000e+000 1.912684e-001
      outer loop
         vertex 2.225268e+002 -5.000000e+001 -1.205086e+001
         vertex 2.201025e+002 5.000000e+001 -2.477381e+000
         vertex 2.201025e+002 -5.000000e+001 -2.477381e+000
      endloop
   endfacet
   facet normal 9.996326e-001 0.000000e+000 -2.710393e-002
      outer loop
         vertex 2.201025e+002 -5.000000e+001 -2.477381e+000
         vertex 2.201025e+002 5.000000e+001 -2.477381e+000
         vertex 2.209180e+002 5.000000e+001 7.364564e+000
      endloop
   endfacet
   facet normal 9.904601e-001 0.000000e+000 -1.377998e-001
      outer loop
         vertex 2.201025e+002 -5.000000e+001 -2.477381e+000
         vertex 2.209180e+002 5.000000e+001 7.364564e+000
         vertex 2.209180e+002 -5.000000e+001 7.364564e+000
      endloop
   endfacet
   facet normal 9.366692e-001 0.000000e+000 -3.502155e-001
      outer loop
         vertex 2.209180e+002 -5.000000e+001 7.364564e+000
         vertex 2.209180e+002 5.000000e+001 7.364564e+000
         vertex 2.248850e+002 5.000000e+001 1.640845e+001
      endloop
   endfacet
   facet normal 8.920507e-001 0.000000e+000 -4.519353e-001
      outer loop
         vertex 2.209180e+002 -5.000000e+001 7.364564e+000
         vertex 2.248850e+002 5.000000e+001 1.640845e+001
         vertex 2.248850e+002 -5.000000e+001 1.640845e+001
      endloop
   endfacet
   facet normal 7.722030e-001 0.000000e+000 -6.353759e-001
      outer loop
         vertex 2.248850e+002 -5.000000e+001 1.640845e+001
         vertex 2.248850e+002 5.000000e+001 1.640845e+001
         vertex 2.315736e+002 5.000000e+001 2.367422e+001
      endloop
   endfacet
   facet normal 6.969737e-001 0.000000e+000 -7.170966e-001
      outer loop
         vertex 2.248850e+002 -5.000000e+001 1.640845e+001
         vertex 2.315736e+002 5.000000e+001 2.367422e+001
         vertex 2.315736e+002 -5.000000e+001 2.367422e+001
      endloop
   endfacet
   facet normal 5.240567e-001 0.000000e+000 -8.516834e-001
      outer loop
         vertex 2.315736e+002 -5.000000e+001 2.367422e+001
         vertex 2.315736e+002 5.000000e+001 2.367422e+001
         vertex 2.402590e+002 5.000000e+001 2.837452e+001
      endloop
   endfacet
   facet normal 4.263689e-001 0.000000e+000 -9.045494e-001
      outer loop
         vertex 2.315736e+002 -5.000000e+001 2.367422e+001
         vertex 2.402590e+002 5.000000e+001 2.837452e+001
         vertex 2.402590e+002 -5.000000e+001 2.837452e+001
      endloop
   endfacet
   facet normal 2.191207e-001 0.000000e+000 -9.756978e-001
      outer loop
         vertex 2.402590e+002 -5.000000e+001 2.837452e+001
         vertex 2.402590e+002 5.000000e+001 2.837452e+001
         vertex 2.500000e+002 5.000000e+001 3.000000e+001
      endloop
   endfacet
endsolid