solid R8_д╛хо_sldprt
   facet normal 1.718619e-001 0.000000e+000 -9.851210e-001
      outer loop
         vertex 2.500000e+000 1.000000e+004 -4.330127e+000
         vertex 0.000000e+000 0.000000e+000 -5.000000e+000
         vertex 0.000000e+000 1.000000e+004 -5.000000e+000
      endloop
   endfacet
   facet normal -1.718619e-001 0.000000e+000 -9.851210e-001
      outer loop
         vertex 0.000000e+000 1.000000e+004 -5.000000e+000
         vertex 0.000000e+000 0.000000e+000 -5.000000e+000
         vertex -2.500000e+000 0.000000e+000 -4.330127e+000
      endloop
   endfacet
   facet normal -3.437238e-001 0.000000e+000 -9.390708e-001
      outer loop
         vertex 0.000000e+000 1.000000e+004 -5.000000e+000
         vertex -2.500000e+000 0.000000e+000 -4.330127e+000
         vertex -2.500000e+000 1.000000e+004 -4.330127e+000
      endloop
   endfacet
   facet normal -6.413973e-001 0.000000e+000 -7.672089e-001
      outer loop
         vertex -2.500000e+000 1.000000e+004 -4.330127e+000
         vertex -2.500000e+000 0.000000e+000 -4.330127e+000
         vertex -4.330127e+000 0.000000e+000 -2.500000e+000
      endloop
   endfacet
   facet normal -7.672089e-001 0.000000e+000 -6.413973e-001
      outer loop
         vertex -2.500000e+000 1.000000e+004 -4.330127e+000
         vertex -4.330127e+000 0.000000e+000 -2.500000e+000
         vertex -4.330127e+000 1.000000e+004 -2.500000e+000
      endloop
   endfacet
   facet normal -9.390708e-001 0.000000e+000 -3.437238e-001
      outer loop
         vertex -4.330127e+000 1.000000e+004 -2.500000e+000
         vertex -4.330127e+000 0.000000e+000 -2.500000e+000
         vertex -5.000000e+000 0.000000e+000 5.359377e-015
      endloop
   endfacet
   facet normal -9.851210e-001 0.000000e+000 -1.718619e-001
      outer loop
         vertex -4.330127e+000 1.000000e+004 -2.500000e+000
         vertex -5.000000e+000 0.000000e+000 5.359377e-015
         vertex -5.000000e+000 1.000000e+004 5.359377e-015
      endloop
   endfacet
   facet normal -9.851210e-001 0.000000e+000 1.718619e-001
      outer loop
         vertex -5.000000e+000 1.000000e+004 5.359377e-015
         vertex -5.000000e+000 0.000000e+000 5.359377e-015
         vertex -4.330127e+000 0.000000e+000 2.500000e+000
      endloop
   endfacet
   facet normal -9.390708e-001 0.000000e+000 3.437238e-001
      outer loop
         vertex -5.000000e+000 1.000000e+004 5.359377e-015
         vertex -4.330127e+000 0.000000e+000 2.500000e+000
         vertex -4.330127e+000 1.000000e+004 2.500000e+000
      endloop
   endfacet
   facet normal -7.672089e-001 0.000000e+000 6.413973e-001
      outer loop
         vertex -4.330127e+000 1.000000e+004 2.500000e+000
         vertex -4.330127e+000 0.000000e+000 2.500000e+000
         vertex -2.500000e+000 0.000000e+000 4.330127e+000
      endloop
   endfacet
   facet normal -6.413973e-001 0.000000e+000 7.672089e-001
      outer loop
         vertex -4.330127e+000 1.000000e+004 2.500000e+000
         vertex -2.500000e+000 0.000000e+000 4.330127e+000
         vertex -2.500000e+000 1.000000e+004 4.330127e+000
      endloop
   endfacet
   facet normal -3.437238e-001 0.000000e+000 9.390708e-001
      outer loop
         vertex -2.500000e+000 1.000000e+004 4.330127e+000
         vertex -2.500000e+000 0.000000e+000 4.330127e+000
         vertex 2.832770e-015 0.000000e+000 5.000000e+000
      endloop
   endfacet
   facet normal -1.718619e-001 0.000000e+000 9.851210e-001
      outer loop
         vertex -2.500000e+000 1.000000e+004 4.330127e+000
         vertex 2.832770e-015 0.000000e+000 5.000000e+000
         vertex 2.832770e-015 1.000000e+004 5.000000e+000
      endloop
   endfacet
   facet normal 1.718619e-001 0.000000e+000 9.851210e-001
      outer loop
         vertex 2.832770e-015 1.000000e+004 5.000000e+000
         vertex 2.832770e-015 0.000000e+000 5.000000e+000
         vertex 2.500000e+000 0.000000e+000 4.330127e+000
      endloop
   endfacet
   facet normal 3.437238e-001 0.000000e+000 9.390708e-001
      outer loop
         vertex 2.832770e-015 1.000000e+004 5.000000e+000
         vertex 2.500000e+000 0.000000e+000 4.330127e+000
         vertex 2.500000e+000 1.000000e+004 4.330127e+000
      endloop
   endfacet
   facet normal 6.413973e-001 0.000000e+000 7.672089e-001
      outer loop
         vertex 2.500000e+000 1.000000e+004 4.330127e+000
         vertex 2.500000e+000 0.000000e+000 4.330127e+000
         vertex 4.330127e+000 0.000000e+000 2.500000e+000
      endloop
   endfacet
   facet normal 7.672089e-001 0.000000e+000 6.413973e-001
      outer loop
         vertex 2.500000e+000 1.000000e+004 4.330127e+000
         vertex 4.330127e+000 0.000000e+000 2.500000e+000
         vertex 4.330127e+000 1.000000e+004 2.500000e+000
      endloop
   endfacet
   facet normal 9.390708e-001 0.000000e+000 3.437238e-001
      outer loop
         vertex 4.330127e+000 1.000000e+004 2.500000e+000
         vertex 4.330127e+000 0.000000e+000 2.500000e+000
         vertex 5.000000e+000 0.000000e+000 -1.416385e-015
      endloop
   endfacet
   facet normal 9.851210e-001 0.000000e+000 1.718619e-001
      outer loop
         vertex 4.330127e+000 1.000000e+004 2.500000e+000
         vertex 5.000000e+000 0.000000e+000 -1.416385e-015
         vertex 5.000000e+000 1.000000e+004 -1.416385e-015
      endloop
   endfacet
   facet normal 9.851210e-001 0.000000e+000 -1.718619e-001
      outer loop
         vertex 5.000000e+000 1.000000e+004 -1.416385e-015
         vertex 5.000000e+000 0.000000e+000 -1.416385e-015
         vertex 4.330127e+000 0.000000e+000 -2.500000e+000
      endloop
   endfacet
   facet normal 9.390708e-001 0.000000e+000 -3.437238e-001
      outer loop
         vertex 5.000000e+000 1.000000e+004 -1.416385e-015
         vertex 4.330127e+000 0.000000e+000 -2.500000e+000
         vertex 4.330127e+000 1.000000e+004 -2.500000e+000
      endloop
   endfacet
   facet normal 7.672089e-001 0.000000e+000 -6.413973e-001
      outer loop
         vertex 4.330127e+000 1.000000e+004 -2.500000e+000
         vertex 4.330127e+000 0.000000e+000 -2.500000e+000
         vertex 2.500000e+000 0.000000e+000 -4.330127e+000
      endloop
   endfacet
   facet normal 6.413973e-001 0.000000e+000 -7.672089e-001
      outer loop
         vertex 4.330127e+000 1.000000e+004 -2.500000e+000
         vertex 2.500000e+000 0.000000e+000 -4.330127e+000
         vertex 2.500000e+000 1.000000e+004 -4.330127e+000
      endloop
   endfacet
   facet normal 3.437238e-001 0.000000e+000 -9.390708e-001
      outer loop
         vertex 2.500000e+000 1.000000e+004 -4.330127e+000
         vertex 2.500000e+000 0.000000e+000 -4.330127e+000
         vertex 0.000000e+000 0.000000e+000 -5.000000e+000
      endloop
   endfacet
   facet normal 0.000000e+000 1.000000e+000 0.000000e+000
      outer loop
         vertex 0.000000e+000 1.000000e+004 -5.000000e+000
         vertex -2.500000e+000 1.000000e+004 -4.330127e+000
         vertex 2.500000e+000 1.000000e+004 -4.330127e+000
      endloop
   endfacet
   facet normal 0.000000e+000 1.000000e+000 0.000000e+000
      outer loop
         vertex 2.500000e+000 1.000000e+004 -4.330127e+000
         vertex -2.500000e+000 1.000000e+004 -4.330127e+000
         vertex -4.330127e+000 1.000000e+004 -2.500000e+000
      endloop
   endfacet
   facet normal 0.000000e+000 1.000000e+000 0.000000e+000
      outer loop
         vertex 2.500000e+000 1.000000e+004 -4.330127e+000
         vertex -4.330127e+000 1.000000e+004 -2.500000e+000
         vertex -5.000000e+000 1.000000e+004 5.359377e-015
      endloop
   endfacet
   facet normal 0.000000e+000 1.000000e+000 0.000000e+000
      outer loop
         vertex 6.123234e-016 1.000000e+004 5.000000e+000
         vertex 2.500000e+000 1.000000e+004 4.330127e+000
         vertex -2.500000e+000 1.000000e+004 4.330127e+000
      endloop
   endfacet
   facet normal 0.000000e+000 1.000000e+000 0.000000e+000
      outer loop
         vertex -2.500000e+000 1.000000e+004 4.330127e+000
         vertex 2.500000e+000 1.000000e+004 4.330127e+000
         vertex 4.330127e+000 1.000000e+004 2.500000e+000
      endloop
   endfacet
   facet normal 0.000000e+000 1.000000e+000 0.000000e+000
      outer loop
         vertex -2.500000e+000 1.000000e+004 4.330127e+000
         vertex 4.330127e+000 1.000000e+004 2.500000e+000
         vertex 5.000000e+000 1.000000e+004 -1.416385e-015
      endloop
   endfacet
   facet normal 0.000000e+000 1.000000e+000 0.000000e+000
      outer loop
         vertex -5.000000e+000 1.000000e+004 5.359377e-015
         vertex -4.330127e+000 1.000000e+004 2.500000e+000
         vertex 2.500000e+000 1.000000e+004 -4.330127e+000
      endloop
   endfacet
   facet normal 0.000000e+000 1.000000e+000 0.000000e+000
      outer loop
         vertex 2.500000e+000 1.000000e+004 -4.330127e+000
         vertex -4.330127e+000 1.000000e+004 2.500000e+000
         vertex -2.500000e+000 1.000000e+004 4.330127e+000
      endloop
   endfacet
   facet normal 0.000000e+000 1.000000e+000 0.000000e+000
      outer loop
         vertex 2.500000e+000 1.000000e+004 -4.330127e+000
         vertex -2.500000e+000 1.000000e+004 4.330127e+000
         vertex 4.330127e+000 1.000000e+004 -2.500000e+000
      endloop
   endfacet
   facet normal 0.000000e+000 1.000000e+000 0.000000e+000
      outer loop
         vertex 4.330127e+000 1.000000e+004 -2.500000e+000
         vertex -2.500000e+000 1.000000e+004 4.330127e+000
         vertex 5.000000e+000 1.000000e+004 -1.416385e-015
      endloop
   endfacet
   facet normal 0.000000e+000 -1.000000e+000 0.000000e+000
      outer loop
         vertex 2.500000e+000 0.000000e+000 -4.330127e+000
         vertex -2.500000e+000 0.000000e+000 4.330127e+000
         vertex -4.330127e+000 0.000000e+000 2.500000e+000
      endloop
   endfacet
   facet normal 0.000000e+000 -1.000000e+000 0.000000e+000
      outer loop
         vertex 4.330127e+000 0.000000e+000 -2.500000e+000
         vertex 5.000000e+000 0.000000e+000 -1.416385e-015
         vertex 2.500000e+000 0.000000e+000 -4.330127e+000
      endloop
   endfacet
   facet normal 0.000000e+000 -1.000000e+000 0.000000e+000
      outer loop
         vertex 2.500000e+000 0.000000e+000 -4.330127e+000
         vertex 5.000000e+000 0.000000e+000 -1.416385e-015
         vertex 4.330127e+000 0.000000e+000 2.500000e+000
      endloop
   endfacet
   facet normal 0.000000e+000 -1.000000e+000 0.000000e+000
      outer loop
         vertex 4.330127e+000 0.000000e+000 2.500000e+000
         vertex 2.500000e+000 0.000000e+000 4.330127e+000
         vertex 2.500000e+000 0.000000e+000 -4.330127e+000
      endloop
   endfacet
   facet normal 0.000000e+000 -1.000000e+000 0.000000e+000
      outer loop
         vertex 2.500000e+000 0.000000e+000 -4.330127e+000
         vertex 2.500000e+000 0.000000e+000 4.330127e+000
         vertex 1.836970e-015 0.000000e+000 5.000000e+000
      endloop
   endfacet
   facet normal 0.000000e+000 -1.000000e+000 0.000000e+000
      outer loop
         vertex 2.500000e+000 0.000000e+000 -4.330127e+000
         vertex 1.836970e-015 0.000000e+000 5.000000e+000
         vertex -2.500000e+000 0.000000e+000 4.330127e+000
      endloop
   endfacet
   facet normal 0.000000e+000 -1.000000e+000 0.000000e+000
      outer loop
         vertex -2.500000e+000 0.000000e+000 -4.330127e+000
         vertex 0.000000e+000 0.000000e+000 -5.000000e+000
         vertex -4.330127e+000 0.000000e+000 -2.500000e+000
      endloop
   endfacet
   facet normal 0.000000e+000 -1.000000e+000 0.000000e+000
      outer loop
         vertex -4.330127e+000 0.000000e+000 -2.500000e+000
         vertex 0.000000e+000 0.000000e+000 -5.000000e+000
         vertex 2.500000e+000 0.000000e+000 -4.330127e+000
      endloop
   endfacet
   facet normal 0.000000e+000 -1.000000e+000 0.000000e+000
      outer loop
         vertex -4.330127e+000 0.000000e+000 -2.500000e+000
         vertex 2.500000e+000 0.000000e+000 -4.330127e+000
         vertex -5.000000e+000 0.000000e+000 5.359377e-015
      endloop
   endfacet
   facet normal 0.000000e+000 -1.000000e+000 0.000000e+000
      outer loop
         vertex -5.000000e+000 0.000000e+000 5.359377e-015
         vertex 2.500000e+000 0.000000e+000 -4.330127e+000
         vertex -4.330127e+000 0.000000e+000 2.500000e+000
      endloop
   endfacet
endsolid