v 0.014219094602435964 -0.041164989448219953 1.1744390313847575
v 0.022342913943652939 -0.038637776529481811 1.1744390313847575
v 0.014081948351923099 -0.041147907882835573 1.1744390313847575
v -0.03039335151867352 -0.03745955098771931 1.0740514672005119
v 0.014219094602435964 -0.040849088125870243 0.63037559924851827
v 0.022431653845795027 -0.038603627438355832 1.1744390313847575
v 0.019083704469503901 -0.039115894224471544 0.63037559924851827
v 0.021382901889765202 -0.038296262218817385 0.63037559924851827
v 0.0032474975187871541 -0.039636708813100836 1.1744390313847575
v -0.030175531140796644 -0.037331481366264803 1.0812410372323455
v -0.033813906907610117 -0.029220501278371676 1.1744390313847575
v -0.036080831868997257 -0.030800007890120225 1.0740514672005119
v -0.019591168464530809 -0.026309086515091402 0.63037559924851827
v -0.030175531140796644 -0.037331481366264803 1.0673944676181968
v 0.0033846437693000192 -0.039636708813100836 0.63037559924851827
v 0.010742064750410049 -0.040464879261506721 0.63037559924851827
v 0.028708057431822462 -0.033702886550589235 1.1744390313847575
v 0.037670881145791854 -0.0022066649011998132 0.63037559924851827
v 0.035460423627672641 -0.026684752256822271 0.99869418999697146
v 0.036081612302429109 -0.027419009194721018 1.1744390313847575
v -0.023463496158777311 -0.033694348107837509 1.1744390313847575
v -0.023584506179853096 -0.033643119791267613 1.1744390313847575
v -0.034911067551951183 -0.018368861242590025 1.1744390313847575
v -0.039089953186276186 -0.018240793961075981 1.0740514672005119
v -0.022551885773379424 -0.018240793961075981 0.63037559924851827
v -0.021608007608988303 -0.020827768959254818 0.63037559924851827
v -0.013685868906300427 -0.029920606785203981 0.63037559924851827
v -0.010902633741676451 -0.03161964457565531 0.63037559924851827
v -0.0054571722635340519 -0.034676203505953081 0.63037559924851827
v 0.041567410844253513 0.006877633897012507 0.63037559924851827
v 0.039139137628138351 -0.018240793961075981 0.99869418999697146
v 0.040107217796744629 -0.018240793961075981 1.1744390313847575
v -0.03491913332672926 -0.018240793961075981 1.1744390313847575
v -0.0052877582340279533 0.03912518644487855 1.1744390313847575
v -0.0071109790048237281 0.04143895233446631 1.0740514672005119
v -0.020139748786701342 -0.0066805111456805302 0.63037559924851827
v -0.020914215261526828 -0.010385949606181173 0.63037559924851827
v 0.036952884454174759 0.015475273632557789 0.63037559924851827
v 0.043221215245602726 0.0060750740969808745 1.1744390313847575
v 0.043326091377181894 -0.0039398535377324698 1.1744390313847575
v 0.043309955147744814 -0.0047765653538156608 1.1744390313847575
v 0.042003046920126338 -0.0056730421742651263 0.99869418999697146
v 0.0016662979601131805 0.042309812656690364 1.1744390313847575
v 0.0016662979601131805 0.046057938651068712 1.0740514672005119
v 0.0035459896840875776 0.028606524616950062 0.63037559924851827
v -0.0027223411073403897 0.023347194872956049 0.63037559924851827
v -0.0068124868395233046 0.017063318687058064 0.63037559924851827
v -0.019010320363367042 -0.0046655726178646065 0.63037559924851827
v 0.03003916532371563 0.019445386268808477 0.63037559924851827
v 0.014081948351923099 0.042898925427571614 1.0740514672005119
v 0.020358347258069606 0.037827429724413268 1.0740514672005119
v 0.036952884454174759 0.01549234934809101 1.0740514672005119
v 0.042866250957153448 0.0066471111523289036 1.1744390313847575
v 0.011919899522115127 0.041464565322781026 1.1744390313847575
v 0.013436562352832401 0.028606524616950062 0.63037559924851827
v 0.026779955849566592 0.021315178874651557 0.63037559924851827
v 0.019721024693816522 0.025276754238120751 0.63037559924851827
v 0.036952884454174759 0.015475273632557789 1.1744390313847575
f 1 2 6
f 1 6 17
f 1 17 20
f 1 20 32
f 1 32 41
f 1 41 40
f 1 40 39
f 1 39 53
f 1 53 58
f 1 58 54
f 1 54 43
f 1 43 34
f 1 34 33
f 1 33 23
f 1 23 11
f 1 11 22
f 1 22 21
f 1 21 9
f 1 9 3
f 1 3 4
f 1 4 5
f 1 5 2
f 2 5 7
f 2 7 8
f 2 8 6
f 3 9 10
f 3 10 4
f 4 10 11
f 4 11 12
f 4 12 13
f 4 13 14
f 4 14 15
f 4 15 16
f 4 16 5
f 5 16 15
f 5 15 29
f 5 29 28
f 5 28 27
f 5 27 13
f 5 13 26
f 5 26 25
f 5 25 37
f 5 37 36
f 5 36 48
f 5 48 47
f 5 47 46
f 5 46 45
f 5 45 55
f 5 55 57
f 5 57 56
f 5 56 49
f 5 49 38
f 5 38 30
f 5 30 18
f 5 18 8
f 5 8 7
f 6 8 17
f 8 18 19
f 8 19 20
f 8 20 17
f 9 21 10
f 10 21 22
f 10 22 11
f 11 23 24
f 11 24 12
f 12 24 25
f 12 25 26
f 12 26 13
f 13 27 14
f 14 27 28
f 14 28 29
f 14 29 15
f 18 30 31
f 18 31 19
f 19 31 32
f 19 32 20
f 23 33 24
f 24 33 34
f 24 34 35
f 24 35 36
f 24 36 37
f 24 37 25
f 30 38 39
f 30 39 40
f 30 40 41
f 30 41 42
f 30 42 31
f 31 42 41
f 31 41 32
f 34 43 44
f 34 44 35
f 35 44 45
f 35 45 46
f 35 46 47
f 35 47 48
f 35 48 36
f 38 49 50
f 38 50 51
f 38 51 52
f 38 52 53
f 38 53 39
f 43 54 44
f 44 54 50
f 44 50 55
f 44 55 45
f 49 56 50
f 50 54 51
f 50 56 57
f 50 57 55
f 51 54 58
f 51 58 52
f 52 58 53
