v 0.0016478557193492088 -0.065501203288607923 0.0063154057136749486
v -0.010894242715173932 -0.065087099344881272 0.0063154057136749486
v -0.010894242715173932 -0.063780092839763325 -0.0020436478423491167
v 0.0016478557193492088 -0.063922436098045876 -0.0021683947483452926
v 0.014215814005905977 -0.062913060660137743 -0.00092077593219386245
v 0.02049979197921413 -0.062201325649201285 1.4900740872292317e-05
v 0.015172634381001346 -0.063223636277992268 0.0050677868975235185
v 0.0016478557193492088 -0.065203572221398109 0.018854004767234755
v -0.010894242715173932 -0.064660060210271764 0.018854004767234755
v -0.020087471006833515 -0.063068348469065005 0.0063154057136749486
v -0.01951855075218302 -0.062964820143192879 -0.001045597716284874
v -0.023604430772900767 -0.056675631122472266 -0.0033536401114986347
v -0.010894242715173932 -0.055925071819363521 -0.0054746370258129673
v 0.0016478557193492088 -0.055925071819363521 -0.0056617573848072311
v 0.014215814005905977 -0.055925071819363521 -0.0043517651156577131
v 0.025516631353023386 -0.055950951560891089 -0.0025427103444286558
v 0.036882096575269516 -0.052689888853894869 0.0063154057136749486
v 0.025516631353023386 -0.059548469627269403 0.0050677868975235185
v 0.021379031628238385 -0.038299809568560224 0.63037554308994714
v 0.01999552310960305 -0.062084852772684447 0.0084363651889418634
v 0.035783049938914777 -0.051784041741858862 -0.0019812743893510287
v 0.012832305487270643 -0.063262460570164547 0.018854004767234755
v 0.014215814005905977 -0.040849134924679516 0.63037554308994714
v -0.019298741424912072 -0.062718948559038201 0.018854004767234755
v 0.010737644602874283 -0.040460910722480432 0.63037554308994714
v 0.0033804763353343231 -0.03963270283502713 0.63037554308994714
v -0.025569791227158759 -0.061075477334776314 0.018854004767234755
v -0.0263714501501119 -0.061036653042604035 0.0063154057136749486
v -0.04340025923679959 -0.05051585016915134 -0.00098314938519195039
v -0.036017227607315308 -0.052806361730411706 -0.0024803368914305679
v -0.036017227607315308 -0.043359628968805138 -0.0059113260748944185
v -0.023462199831760469 -0.043359628968805138 -0.0068470027479605733
v 0.026783774632403209 -0.043359628968805138 -0.0066598075108714738
v 0.014215814005905977 -0.043359628968805138 -0.0068470027479605733
v 0.026783774632403209 -0.058332046897378871 0.018854004767234755
v 0.043166076888518132 -0.047448899563254661 0.0063154057136749486
v 0.042752319255980095 -0.047254787462155119 0.018854004767234755
v 0.037670829667101655 -0.0022081393561844478 0.63037554308994714
v 0.048997508036222923 -0.04097854299207921 0.018854004767234755
v 0.055281488349471539 -0.031221234612618116 0.018854004767234755
v 0.058720868559437908 -0.025617903201246857 0.0063154057136749486
v 0.039726701358432689 -0.043799612654059357 -0.0038527026135781739
v 0.048014826639123695 -0.039891518969826519 -0.0021060212953472046
v -0.0054636433688861757 -0.034676407080773415 0.63037554308994714
v -0.036017227607315308 -0.055679200235208844 0.018854004767234755
v -0.036017227607315308 -0.055925071819363521 0.0063154057136749486
v -0.055709614323139159 -0.038235105534860377 -0.001045597716284874
v -0.047990408127128417 -0.042790237216151224 -0.0026050837974267438
v -0.043775225336331838 -0.050813490596123008 0.0063154057136749486
v -0.050059205649580454 -0.0450289799345946 0.0063154057136749486
v -0.04858518823381254 -0.030794190798127681 -0.0059736246497976708
v -0.04858518823381254 -0.018241692498214009 -0.0068470027479605733
v 0.039338800068017585 -0.030794190798127681 -0.0067222558419643974
v 0.039338800068017585 -0.018241692498214009 -0.0068470027479605733
v 0.049165599999367079 -0.041172645733416897 0.0063154057136749486
v 0.041562759042611849 0.0068762468973026999 0.63037554308994714
v 0.055449575632734768 -0.031894152351203693 0.0063154057136749486
v 0.058630354982424401 -0.025436733310851563 -0.00060890866720342274
v 0.061293937291441489 -0.018241692498214009 0.0063154057136749486
v 0.060906036001026384 -0.018241692498214009 0.018854004767234755
v 0.052087778488779976 -0.030095393318014536 -0.003041772846508195
v -0.010894242715173932 -0.031622398685580984 0.63037554308994714
v -0.043426115578922522 -0.050541729910678908 0.018854004767234755
v -0.019596131478254133 -0.026303760810596218 0.63037554308994714
v -0.057700833459460546 -0.030794190798127681 -0.0024803368914305679
v -0.056084585102552334 -0.03873979091387398 0.0063154057136749486
v -0.060403202621602495 -0.030794190798127681 0.0063154057136749486
v -0.067605211776940691 -0.012599537964640702 -0.00023459307112005945
v -0.049710095892171138 -0.04480898809196749 0.018854004767234755
v -0.055929423650410107 -0.038519801411187334 0.018854004767234755
v -0.061644484878978459 -0.017361722787765106 -0.0029169510624171835
v -0.061140213669426915 -0.0056762525725812044 -0.0041022713036653613
v -0.04858518823381254 0.019441686822935504 -0.0068470027479605733
v 0.05190675601463389 -0.0056762525725812044 -0.0064103136988791221
v 0.05190675601463389 -0.018241692498214009 -0.0053498901198167914
v 0.039338800068017585 0.019441686822935504 -0.0068470027479605733
v 0.040088741626843935 0.0096326201303895062 0.63037554308994714
v 0.063336873791889667 -0.0056762525725812044 0.018854004767234755
v 0.063323947960768665 0.0068762468973026999 0.018854004767234755
v 0.060828457614895734 0.019441686822935504 0.018854004767234755
v 0.058617424471422472 0.026649667506336842 0.0063154057136749486
v 0.055281488349471539 0.032291823209880381 0.018854004767234755
v 0.059819915195792647 -0.018241692498214009 -0.0019189009363529408
v 0.063737705593306701 -0.0056762525725812044 0.0063154057136749486
v -0.022557101500672819 -0.018241692498214009 0.63037554308994714
v -0.067527633390810041 -0.012250138054613897 0.025466414444075269
v -0.065213165519083197 -0.018849906203099738 0.018854004767234755
v -0.059989444989064458 -0.030794190798127681 0.018854004767234755
v -0.065471766379359933 -0.019108719997958663 0.0063154057136749486
v -0.067695725353954198 -0.012832470848001827 0.0063154057136749486
v -0.068355153335767041 -0.0056762525725812044 0.0063154057136749486
v -0.067967252045351936 -0.0056762525725812044 -0.00079602902619768656
v -0.061140213669426915 0.0068762468973026999 -0.0041022713036653613
v -0.023462199831760469 0.04455962797340756 -0.0068470027479605733
v -0.04858518823381254 0.031994185122849177 -0.0059113260748944185
v -0.036017227607315308 0.04455962797340756 -0.0060360729808905944
v 0.05190675601463389 0.0068762468973026999 -0.0064103136988791221
v 0.061035336431164752 -0.0056762525725812044 -0.003104146299506283
v 0.014215814005905977 0.04455962797340756 -0.0068470027479605733
v 0.039338800068017585 0.031994185122849177 -0.0067222558419643974
v 0.036946749130279163 0.015468885595092123 0.63037554308994714
v 0.063698909380419985 0.0068762468973026999 0.0063154057136749486
v 0.06117756737230505 0.019441686822935504 0.0063154057136749486
v 0.05859156812929954 0.026584963472636995 -0.0005465352142053348
v 0.055449575632734768 0.032925916656293679 0.0063154057136749486
v 0.049010438547224852 0.042113828603219931 0.018854004767234755
v 0.061022405920162823 0.0068762468973026999 -0.003104146299506283
v -0.020914990951790516 -0.010386674987724893 0.63037554308994714
v -0.067527633390810041 0.013450132379335393 0.025466414444075269
v -0.063545195118167266 0.0068762468973026999 0.081671709501982548
v -0.063545195118167266 -0.0056762525725812044 0.081671709501982548
v -0.067579355434817759 -0.0056762525725812044 0.025715908256067621
v -0.067954321534350007 -0.0056762525725812044 0.018854004767234755
v -0.067644003309946479 -0.012573657053142902 0.018854004767234755
v -0.068316361802761252 0.0068762468973026999 0.0063154057136749486
v -0.067954321534350007 0.0068762468973026999 -0.00079602902619768656
v -0.067941395703229004 0.0068762468973026999 0.018854004767234755
v -0.0616186238569746 0.018509955289491002 -0.0028546524875139312
v -0.010894242715173932 0.05712506146420409 -0.0054746370258129673
v 0.0016478557193492088 0.05712506146420409 -0.0056617573848072311
v -0.057674977117337614 0.031994185122849177 -0.0024803368914305679
v -0.048080917024260997 0.043990236220753647 -0.0026674572504248317
v -0.036017227607315308 0.054122814892007258 -0.0026050837974267438
v -0.023604430772900767 0.057875630127074688 -0.0033536401114986347
v 0.05190675601463389 0.019441686822935504 -0.0053498901198167914
v 0.026783774632403209 0.04455962797340756 -0.0066598075108714738
v 0.039687909825426901 0.044960787366489501 -0.0038527026135781739
v 0.052087778488779976 0.031256565690504216 -0.0029793993935101071
v 0.030042132368223493 0.019441686822935504 0.63037554308994714
v 0.042674740869849445 0.048403017623940552 0.018854004767234755
v 0.036390760556600829 0.053579312240642767 0.018854004767234755
v 0.026783774632403209 0.059506156800691871 0.018854004767234755
v 0.059768197831665856 0.019441686822935504 -0.0018565274833548528
v 0.049165599999367079 0.042269116412147194 0.0063154057136749486
v 0.048014826639123695 0.041039749131611951 -0.0021060212953472046
v 0.043049706969381693 0.048558305432867814 0.0063154057136749486
v -0.02013919071090077 -0.0066856285954744535 0.63037554308994714
v -0.065277813394211917 0.020036959487087218 0.018854004767234755
v -0.06761814228794262 0.013747769296396366 0.018854004767234755
v -0.067579355434817759 0.0068762468973026999 0.025715908256067621
v -0.06076524289001374 0.019441686822935504 0.081671709501982548
v -0.067669864331950338 0.013941880227525676 0.0063154057136749486
v -0.067579355434817759 0.013696006303430534 -0.00023459307112005945
v -0.010894242715173932 0.064980082484603907 -0.0020436478423491167
v 0.0016478557193492088 0.065122435102648313 -0.0021683947483452926
v 0.014215814005905977 0.05712506146420409 -0.0043517651156577131
v -0.055735475345143018 0.039435099859581872 -0.001045597716284874
v -0.043555416009060891 0.051871136982681025 -0.0011703446222810499
v -0.01951855075218302 0.064164819147795316 -0.001045597716284874
v 0.025516631353023386 0.057150950565493512 -0.0025427103444286558
v 0.035744258405908988 0.05298403138669943 -0.0019812743893510287
v 0.026783774632403209 0.021305149889824508 0.63037554308994714
v 0.036765726656133077 0.05387694330785258 0.0063154057136749486
v 0.025516631353023386 0.060735524081227114 0.0050677868975235185
v 0.01999552310960305 0.063284851777286877 0.0084363651889418634
v 0.013440013765016232 0.028603716688393725 0.63037554308994714
v 0.019711063567262918 0.025277952287638121 0.63037554308994714
v 0.021973811734922508 0.024009760714930599 0.63037554308994714
v -0.019014280712601708 -0.0046668759647028393 0.63037554308994714
v -0.053175337124141367 0.035345831605072812 0.081671709501982548
v -0.056472486392967439 0.029069582455115976 0.081671709501982548
v -0.060092884397198967 0.031994185122849177 0.018854004767234755
v -0.060480785687614072 0.031994185122849177 0.0063154057136749486
v -0.065497622721482865 0.020218129377482512 0.0063154057136749486
v -0.010894242715173932 0.066364737574066412 0.0063154057136749486
v 0.0016478557193492088 0.06670120229321036 0.0063154057136749486
v 0.014215814005905977 0.064113050304978325 -0.00092077593219386245
v -0.056123376635558123 0.039952725109359259 0.0063154057136749486
v -0.050227297612724611 0.046228978939197023 0.0063154057136749486
v -0.043943317299475995 0.05218171260053555 0.0063154057136749486
v -0.036017227607315308 0.057357997857475911 0.0063154057136749486
v -0.026668840203453961 0.062288411530261593 0.0063154057136749486
v -0.020384861060175577 0.064358931248894857 0.0063154057136749486
v 0.02049979197921413 0.06340131529404186 1.4900740872292317e-05
v 0.015172634381001346 0.064423635282594705 0.0050677868975235185
v 0.012832305487270643 0.064462450215005129 0.018854004767234755
v 0.019103352949576866 0.063064859934659767 0.018854004767234755
v 0.0035485659585380164 0.028603716688393725 0.63037554308994714
v 0.0016478557193492088 0.066403561866238692 0.018854004767234755
v -0.0086444227185758088 0.013799532289362197 0.63037554308994714
v -0.04690428732189468 0.042734979838928981 0.081671709501982548
v -0.055955284672413966 0.039732737946613077 0.018854004767234755
v -0.0068083638644264172 0.017060593826388186 0.63037554308994714
v -0.0055024337319217326 0.019079347042144916 0.63037554308994714
v -0.0027224838437086701 0.02334978518704927 0.63037554308994714
v -0.010894242715173932 0.065950633630339761 0.018854004767234755
v -0.049761817936178857 0.046021931647214624 0.018854004767234755
v -0.04347783762293024 0.051793488398336467 0.018854004767234755
v -0.036017227607315308 0.057008597947449106 0.018854004767234755
v -0.025905970473566145 0.062327235822433873 0.018854004767234755
v -0.019621991330287761 0.064009531338868053 0.018854004767234755
v -0.033728618417651859 0.053644016274342614 0.081671709501982548
v -0.039999668219898546 0.049011233668766745 0.081671709501982548
v 0.0015314858002127701 0.026921423511900015 0.63037554308994714
f 1 2 3
f 1 3 4
f 1 4 5
f 1 5 6
f 1 6 7
f 1 7 8
f 1 8 2
f 2 8 9
f 2 9 10
f 2 10 11
f 2 11 3
f 3 11 12
f 3 12 13
f 3 13 14
f 3 14 4
f 4 14 15
f 4 15 5
f 5 15 16
f 5 16 6
f 6 17 18
f 6 18 19
f 6 19 20
f 6 20 7
f 6 16 21
f 6 21 17
f 7 20 22
f 7 22 8
f 8 22 23
f 8 23 9
f 9 24 10
f 9 23 25
f 9 25 26
f 9 26 24
f 10 24 27
f 10 27 28
f 10 28 11
f 11 29 30
f 11 30 12
f 11 28 29
f 12 31 13
f 12 30 31
f 13 31 32
f 13 32 14
f 14 33 15
f 14 32 34
f 14 34 33
f 15 33 16
f 16 33 21
f 17 35 18
f 17 21 36
f 17 36 37
f 17 37 19
f 17 19 35
f 18 35 19
f 19 38 56
f 19 56 77
f 19 77 101
f 19 101 129
f 19 129 152
f 19 152 158
f 19 158 157
f 19 157 156
f 19 156 178
f 19 178 194
f 19 194 185
f 19 185 184
f 19 184 183
f 19 183 180
f 19 180 159
f 19 159 137
f 19 137 108
f 19 108 85
f 19 85 64
f 19 64 62
f 19 62 44
f 19 44 26
f 19 26 25
f 19 25 23
f 19 23 20
f 19 37 39
f 19 39 40
f 19 40 41
f 19 41 38
f 20 23 22
f 21 33 42
f 21 42 43
f 21 43 36
f 24 26 27
f 26 44 45
f 26 45 27
f 27 45 28
f 28 45 46
f 28 46 29
f 29 47 48
f 29 48 30
f 29 46 49
f 29 49 50
f 29 50 47
f 30 48 31
f 31 48 51
f 31 51 32
f 32 52 73
f 32 73 94
f 32 94 99
f 32 99 76
f 32 76 54
f 32 54 34
f 32 51 52
f 33 34 53
f 33 53 42
f 34 54 53
f 36 55 39
f 36 39 37
f 36 43 55
f 38 41 56
f 39 55 57
f 39 57 40
f 40 57 41
f 41 57 58
f 41 58 59
f 41 59 60
f 41 60 56
f 42 61 43
f 42 53 61
f 43 61 58
f 43 58 55
f 44 62 45
f 45 63 49
f 45 49 46
f 45 62 64
f 45 64 63
f 47 65 51
f 47 51 48
f 47 50 66
f 47 66 67
f 47 67 68
f 47 68 65
f 49 63 69
f 49 69 50
f 50 69 70
f 50 70 66
f 51 65 71
f 51 71 72
f 51 72 52
f 52 72 93
f 52 93 73
f 53 54 74
f 53 74 75
f 53 75 61
f 54 76 97
f 54 97 74
f 55 58 57
f 56 60 78
f 56 78 79
f 56 79 80
f 56 80 81
f 56 81 82
f 56 82 77
f 58 61 83
f 58 83 59
f 59 83 84
f 59 84 60
f 60 84 78
f 61 75 83
f 63 64 69
f 64 85 86
f 64 86 87
f 64 87 88
f 64 88 70
f 64 70 69
f 65 68 71
f 66 70 67
f 67 89 68
f 67 70 88
f 67 88 87
f 67 87 89
f 68 89 90
f 68 90 91
f 68 91 92
f 68 92 71
f 71 92 72
f 72 92 93
f 73 93 95
f 73 95 96
f 73 96 94
f 74 97 98
f 74 98 75
f 75 98 83
f 76 99 100
f 76 100 97
f 77 82 101
f 78 84 79
f 79 84 102
f 79 102 80
f 80 102 103
f 80 103 81
f 81 103 104
f 81 104 105
f 81 105 82
f 82 105 106
f 82 106 101
f 83 98 84
f 84 98 107
f 84 107 102
f 85 108 109
f 85 109 110
f 85 110 111
f 85 111 86
f 86 111 112
f 86 112 113
f 86 113 91
f 86 91 114
f 86 114 87
f 87 114 89
f 89 114 90
f 90 114 91
f 91 115 116
f 91 116 92
f 91 113 117
f 91 117 115
f 92 116 93
f 93 118 95
f 93 116 118
f 94 96 119
f 94 119 120
f 94 120 99
f 95 118 121
f 95 121 122
f 95 122 96
f 96 122 123
f 96 123 124
f 96 124 119
f 97 125 107
f 97 107 98
f 97 100 125
f 99 120 126
f 99 126 100
f 100 126 127
f 100 127 128
f 100 128 125
f 101 106 130
f 101 130 131
f 101 131 132
f 101 132 129
f 102 107 133
f 102 133 104
f 102 104 103
f 104 134 105
f 104 133 128
f 104 128 135
f 104 135 134
f 105 134 106
f 106 134 136
f 106 136 130
f 107 125 133
f 108 137 109
f 109 138 139
f 109 139 115
f 109 115 117
f 109 117 140
f 109 140 110
f 109 137 141
f 109 141 138
f 110 140 112
f 110 112 111
f 112 140 113
f 113 140 117
f 115 142 143
f 115 143 116
f 115 139 142
f 116 143 118
f 118 143 121
f 119 124 144
f 119 144 120
f 120 144 145
f 120 145 146
f 120 146 126
f 121 143 147
f 121 147 122
f 122 147 148
f 122 148 123
f 123 148 149
f 123 149 124
f 124 149 144
f 125 128 133
f 126 146 150
f 126 150 151
f 126 151 127
f 127 151 135
f 127 135 128
f 129 132 152
f 130 136 153
f 130 153 131
f 131 153 132
f 132 153 154
f 132 154 155
f 132 155 156
f 132 156 157
f 132 157 158
f 132 158 152
f 134 135 136
f 135 151 136
f 136 151 153
f 137 159 160
f 137 160 161
f 137 161 141
f 138 141 162
f 138 162 163
f 138 163 164
f 138 164 139
f 139 164 142
f 141 161 162
f 142 164 143
f 143 164 163
f 143 163 147
f 144 149 165
f 144 165 166
f 144 166 145
f 145 167 146
f 145 166 167
f 146 167 150
f 147 163 168
f 147 168 169
f 147 169 148
f 148 169 170
f 148 170 171
f 148 171 172
f 148 172 149
f 149 172 173
f 149 173 165
f 150 167 174
f 150 174 151
f 151 174 153
f 153 174 154
f 154 174 155
f 155 174 175
f 155 175 176
f 155 176 177
f 155 177 156
f 156 177 176
f 156 176 179
f 156 179 178
f 159 180 160
f 160 181 182
f 160 182 162
f 160 162 161
f 160 180 183
f 160 183 184
f 160 184 185
f 160 185 181
f 162 182 163
f 163 182 168
f 165 173 186
f 165 186 179
f 165 179 166
f 166 175 174
f 166 174 167
f 166 179 175
f 168 182 169
f 169 182 187
f 169 187 170
f 170 187 188
f 170 188 189
f 170 189 171
f 171 189 172
f 172 189 190
f 172 190 173
f 173 190 191
f 173 191 186
f 175 179 176
f 178 179 186
f 178 186 191
f 178 191 190
f 178 190 192
f 178 192 193
f 178 193 194
f 181 193 188
f 181 188 187
f 181 187 182
f 181 185 193
f 185 194 193
f 188 193 192
f 188 192 189
f 189 192 190
