v -0.086275877528970382 0.054090991701702111 1.222714511565286
v 0.0016546590962471658 0.043016895865985165 1.234841842682961
v 0.0016546590962471658 0.046899194046547125 1.2248368188462599
v -0.086275877528970382 0.054090991701702111 1.2153428380068121
v -0.096516383614167714 0.053698518167621105 1.2215104718003289
v 0.01412707410376389 0.0078852888936947682 1.2590012599816802
v 0.018262666159631111 0.013729949479795715 1.2565324543168543
v 0.021594114275772833 0.013729949479795715 1.2565324543168543
v 0.011402835858049007 0.040969672594607646 1.233655099757911
v 0.013142410777091981 0.042306204468495472 1.2248368188462599
v 0.01191158103376698 0.041468220309785191 1.1744391062628523
v -0.096516383614167714 0.053698518167621105 1.2162004168269647
v 0.0016546590962471658 0.042306204468495472 1.1744391062628523
v -0.096516383614167714 0.047578066933612599 1.2215104718003289
v 0.0011787374353825347 -0.0061694757532337954 1.2592957555286688
v 0.014209131135941896 -0.0056709292080264831 1.2629253214196368
v 0.0050517507321848759 0.0043636422268788985 1.2584208798686092
v 0.026189214480122666 0.0068563743679303443 1.2581956465593436
v 0.029980170744747001 0.011025070731506541 1.2548086482565957
v 0.058305688243097994 -0.011855025067689935 1.2562899241676817
v 0.0350019590926368 0.014748256470453462 1.2464321106654275
v 0.071007853814945329 -0.011504982844005869 1.2443271751024554
v 0.019427851213189892 0.037172237034839566 1.2248368188462599
v 0.064459839299663466 -0.0051193461572560175 1.1997158919317563
v 0.071007853814945329 -0.011504982844005869 1.192907264207399
v 0.036954878083449758 0.015480165278096973 1.1744391062628523
v -0.034909214319104001 -0.018240661754439787 1.1744391062628523
v -0.096516383614167714 0.047578066933612599 1.2162004168269647
v -0.0053036370700140362 0.039123990735301643 1.1744391062628523
v -0.042589596222942463 -0.024827838683290922 1.2248368188462599
v -0.04254036387558803 -0.024742978402437506 1.2313855821424902
v -0.044165059417569888 -0.018240661754439787 1.2331527051806113
v -0.0048113042367078501 -0.024764194642621092 1.2563678722644056
v -0.0051231153431271631 -0.018240661754439787 1.2567923561840288
v 0.0016546590962471658 -0.018240661754439787 1.2594430407412105
v -0.0050902929982440531 -0.010698821875600735 1.2568529325627509
v 0.014209131135941896 -0.018240661754439787 1.2618338234312176
v 0.026780012008137719 -0.018240661754439787 1.2615046593263202
v 0.039334485217802681 -0.018240661754439787 1.2605084811526268
v 0.051905366089998503 -0.018240661754439787 1.2593477209264847
v 0.026780012008137719 -0.0056709292080264831 1.2613487631328724
v 0.063278244243633361 -0.0091501463194007607 1.2490914810816101
v 0.059634985021072326 -0.018240661754439787 1.257407329976914
v 0.059996028474846072 -0.028296447089588291 1.2577451799408124
v 0.071007853814945329 -0.012523289834663616 1.2443271751024554
v 0.071139152554239624 -0.01127162058156967 1.2373972448644643
v 0.071139152554239624 -0.01127162058156967 1.1997158919317563
v 0.071007853814945329 -0.012523289834663616 1.192907264207399
v 0.043322375551725675 -0.0039419278949534634 1.1744391062628523
v 0.043207498514605022 0.0060714284697385643 1.1744391062628523
v 0.042862867403243063 0.0066442265907223838 1.1744391062628523
v -0.034909214319104001 -0.018367951005749679 1.1744391062628523
v -0.0424418968409387 -0.024700550601951261 1.2182620728511218
v -0.033809671615370976 -0.029219289189211524 1.1744391062628523
v -0.036025167025308349 -0.030036057107738219 1.2248368188462599
v -0.026260579091064953 -0.036008006360163942 1.2248368188462599
v -0.019039705920694219 -0.037556681916363917 1.2319572763965603
v -0.036025167025308349 -0.027288747049052105 1.2334038837497374
v 0.0010310380533787716 -0.033281912541661414 1.2504601403380633
v 0.014209131135941896 -0.035191238441637247 1.2547913139776412
v 0.0016546590962471658 -0.026662913592475364 1.2572601196424671
v 0.014209131135941896 -0.028911675935983934 1.2583862113107003
v 0.039334485217802681 -0.040622212178399182 1.2577538657998133
v 0.039334485217802681 -0.030799787935716645 1.2600753862520975
v 0.052906444099022662 -0.031807487976252831 1.2589406087248634
v 0.057829767752203595 -0.036708093147472538 1.2499577083217162
v 0.06127609290546597 -0.030428530641819225 1.2499577083217162
v 0.04937806191358228 -0.040505528707240619 1.2577019004019974
v 0.051429445599104104 -0.044154464625366381 1.2507893044429608
v 0.067922576795337627 -0.019089251693301397 1.2373972448644643
v 0.071139152554239624 -0.012809689187648084 1.2373972448644643
v 0.071139152554239624 -0.012809689187648084 1.1997158919317563
v 0.067922576795337627 -0.019089251693301397 1.1997158919317563
v 0.061637141039120644 -0.030672499854376985 1.1997158919317563
v 0.054514727298592733 -0.043358912947023272 1.1997158919317563
v 0.047408735260238463 -0.05162205234344381 1.1911401411692779
v 0.060488361308152258 -0.028625276582999466 1.1908283113433349
v 0.064591128679195906 -0.017317820824786785 1.1897628334928712
v 0.040105804472704606 -0.018240661754439787 1.1744391062628523
v 0.043305963209313889 -0.0047799102987083966 1.1744391062628523
v -0.023585573192704504 -0.033642562885437273 1.1744391062628523
v -0.023454284983142296 -0.033695599975985542 1.1744391062628523
v 0.039334485217802681 -0.054273897511095411 1.1997158919317563
v -0.019975136900011695 -0.037800651128921677 1.2248368188462599
v 0.039334485217802681 -0.054273897511095411 1.2373972448644643
v 0.0048055843155317829 -0.038649239897813055 1.2466053785768771
v 0.031079713448480026 -0.050752249674309309 1.2456092004031838
v 0.039334485217802681 -0.046901774684052495 1.2540203691132135
v 0.054514727298592733 -0.043358912947023272 1.2373972448644643
v 0.061637141039120644 -0.030672499854376985 1.2373972448644643
v 0.047408735260238463 -0.05162205234344381 1.2471597759910402
v 0.048311343894672829 -0.052608538483736873 1.2373972448644643
v 0.048311343894672829 -0.052608538483736873 1.1997158919317563
v 0.050067328816187126 -0.043358912947023272 1.1894769863658361
v 0.039334485217802681 -0.051961488786976547 1.190455830260575
v 0.014209131135941896 -0.041163187694062971 1.1744391062628523
v 0.022332608845851185 -0.038638632947691494 1.1744391062628523
v 0.022431078220440978 -0.038606812097326811 1.1744391062628523
v 0.02870011099400803 -0.033695599975985542 1.1744391062628523
v 0.035986624759249172 -0.02749028846112362 1.1744391062628523
v 0.036068681791427179 -0.027416037470332229 1.1744391062628523
v 0.036117914138781612 -0.027320570239357252 1.1744391062628523
v 0.0032465334633161452 -0.039635726038106119 1.1744391062628523
v 0.031079713448480026 -0.050752249674309309 1.1917638382602114
v 0.039334485217802681 -0.051961488786976547 1.2477314702451103
f 1 2 3
f 1 3 4
f 1 4 12
f 1 12 5
f 1 5 6
f 1 6 7
f 1 7 2
f 2 7 8
f 2 8 9
f 2 9 3
f 3 9 10
f 3 10 11
f 3 11 4
f 4 11 13
f 4 13 12
f 5 12 28
f 5 28 14
f 5 14 15
f 5 15 16
f 5 16 17
f 5 17 6
f 6 16 18
f 6 18 8
f 6 8 7
f 6 17 16
f 8 19 9
f 8 18 20
f 8 20 19
f 9 19 21
f 9 21 22
f 9 22 23
f 9 23 10
f 10 23 11
f 11 23 24
f 11 24 25
f 11 25 26
f 11 26 51
f 11 51 50
f 11 50 49
f 11 49 80
f 11 80 79
f 11 79 102
f 11 102 101
f 11 101 100
f 11 100 99
f 11 99 98
f 11 98 97
f 11 97 96
f 11 96 103
f 11 103 82
f 11 82 81
f 11 81 54
f 11 54 52
f 11 52 27
f 11 27 29
f 11 29 13
f 12 27 52
f 12 52 28
f 12 13 29
f 12 29 27
f 14 28 30
f 14 30 31
f 14 31 32
f 14 32 33
f 14 33 34
f 14 34 35
f 14 35 36
f 14 36 15
f 15 36 35
f 15 35 16
f 16 37 38
f 16 38 39
f 16 39 40
f 16 40 41
f 16 41 18
f 16 35 37
f 18 41 40
f 18 40 20
f 19 20 42
f 19 42 21
f 20 40 43
f 20 43 22
f 20 22 42
f 21 42 22
f 22 43 44
f 22 44 45
f 22 45 71
f 22 71 46
f 22 46 23
f 23 46 47
f 23 47 24
f 24 47 25
f 25 47 72
f 25 72 48
f 25 48 49
f 25 49 50
f 25 50 51
f 25 51 26
f 28 53 30
f 28 52 54
f 28 54 53
f 30 53 55
f 30 55 31
f 31 55 56
f 31 56 57
f 31 57 58
f 31 58 33
f 31 33 32
f 33 59 60
f 33 60 61
f 33 61 35
f 33 35 34
f 33 58 59
f 35 61 37
f 37 62 63
f 37 63 64
f 37 64 38
f 37 61 62
f 38 64 39
f 39 64 65
f 39 65 40
f 40 65 44
f 40 44 43
f 44 66 67
f 44 67 45
f 44 65 68
f 44 68 69
f 44 69 66
f 45 70 71
f 45 67 70
f 46 71 72
f 46 72 47
f 48 73 74
f 48 74 75
f 48 75 76
f 48 76 77
f 48 77 78
f 48 78 79
f 48 79 80
f 48 80 49
f 48 72 73
f 53 54 55
f 54 81 56
f 54 56 55
f 56 81 82
f 56 82 83
f 56 83 84
f 56 84 85
f 56 85 57
f 57 86 58
f 57 85 87
f 57 87 86
f 58 86 59
f 59 86 60
f 60 88 61
f 60 86 88
f 61 88 63
f 61 63 62
f 63 88 68
f 63 68 64
f 64 68 65
f 66 89 90
f 66 90 67
f 66 69 91
f 66 91 92
f 66 92 89
f 67 90 70
f 68 91 69
f 68 88 91
f 70 73 72
f 70 72 71
f 70 90 74
f 70 74 73
f 74 90 89
f 74 89 75
f 75 89 92
f 75 92 93
f 75 93 76
f 76 94 77
f 76 93 83
f 76 83 95
f 76 95 96
f 76 96 97
f 76 97 98
f 76 98 99
f 76 99 100
f 76 100 101
f 76 101 94
f 77 94 101
f 77 101 102
f 77 102 78
f 78 102 79
f 82 103 104
f 82 104 83
f 83 104 95
f 83 93 92
f 83 92 85
f 83 85 84
f 85 92 91
f 85 91 105
f 85 105 87
f 86 87 88
f 87 105 88
f 88 105 91
f 95 104 103
f 95 103 96
